<?xml version="1.0" encoding="utf-8"?>
<!-- Generator: Adobe Illustrator 21.1.0, SVG Export Plug-In . SVG Version: 6.00 Build 0)  -->
<svg version="1.1" id="Layer_1" xmlns="http://www.w3.org/2000/svg" xmlns:xlink="http://www.w3.org/1999/xlink" x="0px" y="0px"
	 viewBox="0 0 1440 220" style="enable-background:new 0 0 1440 220;" xml:space="preserve">
<style type="text/css">
	.st0{fill:#009CCC;}
	.st1{fill:#E2E0DF;}
	.st2{fill:#8CC396;}
</style>
<path class="st0" d="M1443,223V64h-22v21h-3v-4h-13v17h-17v17h-18V98h18V81h-35V64h-17v34h-17V81h-18V47h-8v8h-8v26h-17v34h-18v17
	h-17v-17h-34V81h-18v-8h-8v-9h-9v17h-34v16h17v18h-17V98h-17V81h-17V64h-35v17h-34V64h-18v-9h-8v-8h-9v51h-17V81h-16v17h-18v17h18
	v17h-18v-17h-17V98h-17v9h-9v-9h9V81h-17v17h-18V81h17V64h-34v26h-8v-9h-27V64h-16V47h-17v34h-17v17h-18V81h-30l-0.5-17H704v21h-5
	v-4h-13v17h-17v17h-17V98h17V81h-34V64h-17v34h-17V81h-17V47h-9v8h-8v26h-18v34h-17v17h-17v-17h-35V81h-16v-8h-10v-9h-8v17h-34v16
	h17v18h-17V98h-17V81h-18V64h-34v17h-34V64h-17v-9h-9v-8h-8v51h-18V81h-16.6l-0.4,0.3V98h-17v17h17v17h-17v-17h-17V98h-18v9h-8v-9h8
	V81h-17v17h-17V81h17V64h-34v26h-9v-9h-25V64H86V47H68v34H51v17H34V81H-3v142H1443z M1331,149h10v9h-10V149z M1297,114h9v9h-9V114z
	 M1229,163h9v9h-9V163z M1160,116h8v9h-8V116z M1091,115h9v10h-9V115z M1029,169h-4v-4h4V169z M1056,123h10v9h-10V123z M1022,114h9
	v9h-9V114z M988,123h9v9h-9V123z M954,183h9v8h-9V183z M851,150h9v8h-9V150z M817,115h8v10h-8V115z M782,114h5v4h-5V114z M614,149h8
	v9h-8V149z M579,114h9v9h-9V114z M510,163h9v9h-9V163z M441,116h9v9h-9V116z M373,115h9v10h-9V115z M311,169h-4v-4h4V169z M339,123
	h9v9h-9V123z M305,114h8v9h-8V114z M270,123h9v9h-9V123z M236,183h9v8h-9V183z M134,150h8v8h-8V150z M99,115h10v10H99V115z M65,114
	h4v4h-4V114z"/>
<title>Group 40</title>
<desc>Created with Sketch.</desc>
<g id="Group-5-Copy-4" transform="translate(12.980147, 0.406217)">
	<polygon id="Fill-2" class="st1" points="1034,74.6 1016,74.6 1016,92.6 1034,92.6 	"/>
	<polygon id="Fill-3" class="st1" points="650,108.6 632,108.6 632,126.6 650,126.6 	"/>
	<polygon id="Fill-4" class="st2" points="548,106.6 530,106.6 530,124.6 548,124.6 	"/>
	<polygon id="Fill-5" class="st1" points="1216,74.6 1198,74.6 1198,91.6 1216,91.6 	"/>
	<polygon id="Fill-6" class="st1" points="584,90.6 566,90.6 566,107.6 584,107.6 	"/>
	<polygon id="Fill-7" class="st2" points="792,72.6 774,72.6 774,90.6 792,90.6 	"/>
	<polygon id="Fill-8" class="st2" points="892,99.6 874,99.6 874,117.6 892,117.6 	"/>
	<polygon id="Fill-9" class="st2" points="1144,96.6 1126,96.6 1126,114.6 1144,114.6 	"/>
	<polygon id="Fill-10" class="st1" points="1043,65.6 1035,65.6 1035,73.6 1043,73.6 	"/>
	<polygon id="Fill-11" class="st1" points="896,29.6 886,29.6 886,37.6 896,37.6 	"/>
	<polygon id="Fill-12" class="st2" points="932,61.6 922,61.6 922,71.6 932,71.6 	"/>
	<polygon id="Fill-13" class="st2" points="749,64.6 739,64.6 739,74.6 749,74.6 	"/>
	<polygon id="Fill-14" class="st1" points="632,99.6 622,99.6 622,107.6 632,107.6 	"/>
	<polygon id="Fill-15" class="st2" points="1184,27.6 1174,27.6 1174,37.6 1184,37.6 	"/>
	<polygon id="Fill-16" class="st1" points="1075,46.6 1065,46.6 1065,54.6 1075,54.6 	"/>
	<polygon id="Fill-17" class="st1" points="1147,-0.4 1139,-0.4 1139,7.6 1147,7.6 	"/>
	<polygon id="Fill-18" class="st2" points="971,118.6 963,118.6 963,126.6 971,126.6 	"/>
	<polygon id="Fill-19" class="st2" points="675,133.6 665,133.6 665,143.6 675,143.6 	"/>
	<polygon id="Fill-20" class="st2" points="967,68.6 963,68.6 963,72.6 967,72.6 	"/>
	<polygon id="Fill-2_1_" class="st1" points="1384,72.6 1366,72.6 1366,90.6 1384,90.6 	"/>
	<polygon id="Fill-8_1_" class="st2" points="1241,98.6 1223,98.6 1223,116.6 1241,116.6 	"/>
	<polygon id="Fill-10_1_" class="st1" points="1392,64.6 1384,64.6 1384,72.6 1392,72.6 	"/>
	<polygon id="Fill-11_1_" class="st1" points="1246,27.6 1236,27.6 1236,35.6 1246,35.6 	"/>
	<polygon id="Fill-12_1_" class="st2" points="1281,59.6 1271,59.6 1271,69.6 1281,69.6 	"/>
	<polygon id="Fill-16_1_" class="st1" points="1425,44.6 1415,44.6 1415,52.6 1425,52.6 	"/>
	<polygon id="Fill-18_1_" class="st2" points="1320,116.6 1312,116.6 1312,124.6 1320,124.6 	"/>
	<polygon id="Fill-20_1_" class="st2" points="1316,67.6 1312,67.6 1312,71.6 1316,71.6 	"/>
	<polygon id="Fill-21" class="st2" points="570,50.6 566,50.6 566,54.6 570,54.6 	"/>
	<polygon id="Fill-23" class="st1" points="48,54.6 30,54.6 30,72.6 48,72.6 	"/>
	<polygon id="Fill-24" class="st1" points="426,19.6 408,19.6 408,37.6 426,37.6 	"/>
	<polygon id="Fill-25" class="st2" points="533,19.6 515,19.6 515,37.6 533,37.6 	"/>
	<polygon id="Fill-26" class="st1" points="5,-0.4 -13,-0.4 -13,17.6 5,17.6 	"/>
	<polygon id="Fill-27" class="st1" points="498,37.6 480,37.6 480,55.6 498,55.6 	"/>
	<polygon id="Fill-28" class="st2" points="295,54.6 277,54.6 277,72.6 295,72.6 	"/>
	<polygon id="Fill-29" class="st2" points="174,19.6 156,19.6 156,37.6 174,37.6 	"/>
	<polygon id="Fill-31" class="st1" points="30,72.6 22,72.6 22,80.6 30,80.6 	"/>
	<polygon id="Fill-32" class="st1" points="178,107.6 170,107.6 170,117.6 178,117.6 	"/>
	<polygon id="Fill-33" class="st2" points="143,74.6 133,74.6 133,84.6 143,84.6 	"/>
	<polygon id="Fill-34" class="st2" points="323,72.6 313,72.6 313,82.6 323,82.6 	"/>
	<polygon id="Fill-35" class="st1" points="443,37.6 435,37.6 435,47.6 443,47.6 	"/>
	<polygon id="Fill-37" class="st1" points="-1,89.6 -11,89.6 -11,99.6 -1,99.6 	"/>
	<polygon id="Fill-39" class="st2" points="102,19.6 94,19.6 94,27.6 102,27.6 	"/>
	<polygon id="Fill-40" class="st2" points="399,-0.4 389,-0.4 389,9.6 399,9.6 	"/>
	<polygon id="Fill-41" class="st2" points="102,72.6 98,72.6 98,76.6 102,76.6 	"/>
	<polygon id="Fill-42" class="st2" points="499,91.6 495,91.6 495,95.6 499,95.6 	"/>
</g>
</svg>
