<?xml version="1.0" encoding="utf-8"?>
<!-- Generator: Adobe Illustrator 23.0.2, SVG Export Plug-In . SVG Version: 6.00 Build 0)  -->
<svg version="1.1" id="Layer_1" xmlns="http://www.w3.org/2000/svg" xmlns:xlink="http://www.w3.org/1999/xlink" x="0px" y="0px"
	 width="2286px" height="1780px" viewBox="0 0 2286 1780" style="enable-background:new 0 0 2286 1780;" xml:space="preserve">
<style type="text/css">
	.st0{fill:#F6FBFC;}
	.st1{fill:#FEFEFE;}
	.st2{fill-rule:evenodd;clip-rule:evenodd;fill:#E6F5FF;}
	.st3{opacity:0.45;fill-rule:evenodd;clip-rule:evenodd;fill:#FEFEFE;enable-background:new    ;}
	.st4{opacity:0.45;fill-rule:evenodd;clip-rule:evenodd;fill:#E6F5FF;enable-background:new    ;}
	.st5{opacity:0.21;fill-rule:evenodd;clip-rule:evenodd;fill:#FEFEFE;enable-background:new    ;}
	.st6{opacity:0.21;fill-rule:evenodd;clip-rule:evenodd;fill:#E6F5FF;enable-background:new    ;}
	.st7{opacity:0.78;fill-rule:evenodd;clip-rule:evenodd;fill:#FEFEFE;}
	.st8{clip-path:url(#SVGID_2_);}
	.st9{opacity:5.070000e-02;clip-path:url(#SVGID_4_);fill:#216DB4;enable-background:new    ;}
</style>
<g id="background">
	<rect class="st0" width="2286.9" height="1740.6"/>
</g>
<title>Group 11</title>
<desc>Created with Sketch.</desc>
<path id="Line" class="st1" d="M2286,1267.7V0l-627,140.3L775.5,696.1c-10,6.3-21,10.8-32.6,13.2L0,866v333.7V1780h2286V1267.7z"/>
<polygon class="st2" points="807.6,472.7 879,513.1 807.6,554.2 738.7,513.4 "/>
<polygon class="st2" points="1069.8,189.1 1141.3,229.7 1069.8,270.6 1000.9,229.9 "/>
<polygon class="st3" points="1260.9,-0.4 1332.3,40.2 1260.9,81.1 1192,40.4 "/>
<polygon class="st4" points="916.3,311 987.7,351.4 916.3,392.5 847.4,351.7 "/>
<polygon class="st5" points="1195.9,1.1 1267.3,41.7 1195.9,82.6 1127,41.9 "/>
<polygon class="st5" points="921,108.8 992.4,149.4 921,190.5 852.1,149.6 "/>
<polygon class="st5" points="914.5,147.8 986,188.4 914.5,229.3 845.6,188.5 "/>
<polygon class="st6" points="807.6,439.5 879,480.1 807.6,521 738.7,480.2 "/>
<polygon class="st2" points="986.3,313.9 1057.9,354.4 986.3,395.4 917.6,354.7 "/>
<polygon class="st2" points="1210,189 1281.6,229.4 1210,270.5 1141.3,229.7 "/>
<polygon class="st4" points="1327.8,110.7 1399.4,151.4 1327.8,192.4 1259,151.7 "/>
<polygon class="st2" points="1497.6,156.1 1569.2,196.7 1501.1,239.3 1428.7,196.9 "/>
<polygon class="st2" points="1659.9,100.7 1731.4,141.4 1659.9,182.3 1591,141.5 "/>
<polygon class="st6" points="1259.3,392.5 1330.7,432.9 1259.3,474 1192.2,434.1 "/>
<polygon class="st2" points="877.7,544.1 949.2,584.7 881.7,627.6 808.8,584.8 "/>
<polygon class="st6" points="1273.1,186.6 1344.5,227.2 1273.1,268.1 1204.2,227.4 "/>
<polygon class="st6" points="1765.7,311.7 1837.1,352.3 1765.7,393.2 1696.8,352.5 "/>
<polygon class="st2" points="1259.3,311 1326.4,349.4 1259.3,392.5 1190.4,351.7 "/>
<polygon class="st2" points="1196.5,331.3 1232.2,351.6 1196.5,372.1 1162.1,351.7 "/>
<polygon class="st2" points="1983,615.5 2018.7,635.9 1983,656.3 1948.5,635.9 "/>
<polygon class="st2" points="1033.6,413 1069.3,433.2 1033.6,453.8 999.3,433.4 "/>
<polygon class="st2" points="1345.8,496.1 1381.5,516.5 1345.8,537.1 1311.5,516.5 "/>
<polygon class="st2" points="1717.2,464.9 1752.9,485.3 1717.2,505.8 1682.9,485.3 "/>
<polygon class="st6" points="1258.7,132.9 1294.4,153.1 1258.7,173.7 1224.3,153.3 "/>
<polygon class="st2" points="879.4,289.7 915.1,310.1 879.4,330.6 844.9,310.2 "/>
<polygon class="st2" points="777.7,234.9 813.4,255.3 777.7,275.9 743.2,255.5 "/>
<polygon class="st6" points="1191.6,535 1337.1,617.6 1191.6,701 1051.5,618 "/>
<polygon class="st6" points="1501.5,240 1698.2,351.8 1520.8,464.5 1327.4,349.4 "/>
<polygon class="st6" points="2070.2,368.5 2266.9,480.4 2089.4,593.1 1896.1,478 "/>
<polygon class="st7" points="513.7,250.4 710.4,362.3 533,474.9 339.6,359.8 "/>
<polygon class="st7" points="198.4,376.8 395,488.7 217.6,601.4 24.3,486.2 "/>
<polygon class="st7" points="551,531.2 665,596 562.2,661.3 450.2,594.6 "/>
<polygon class="st7" points="410.7,118.1 494.9,166 418.9,214.3 336.1,165 "/>
<polygon class="st7" points="87.1,251 155.4,289.9 93.8,329 26.7,289 "/>
<polygon class="st7" points="698.7,60.8 747.8,88.7 703.5,116.8 655.3,88.1 "/>
<polygon class="st7" points="606.3,60.2 655.3,88.1 611.1,116.2 562.9,87.4 "/>
<polygon class="st6" points="1301.1,748 1372.5,788.6 1301.1,829.6 1232.2,788.7 "/>
<polygon class="st6" points="2090.8,594.2 2162.2,634.8 2090.8,675.9 2021.9,635 "/>
<polygon class="st4" points="947.9,472.4 1019.3,513 947.9,554 879,513.1 "/>
<g>
	<g>
		<g>
			<defs>
				<polygon id="SVGID_1_" points="-1919.1,1003.3 -1871,1030.5 -1919.1,1058.1 -1965.4,1030.7 				"/>
			</defs>
			<clipPath id="SVGID_2_">
				<use xlink:href="#SVGID_1_"  style="overflow:visible;"/>
			</clipPath>
			<g class="st8">
				<g>
					<g>
						<defs>
							<rect id="SVGID_3_" x="-2323" y="247.2" width="2286" height="4431"/>
						</defs>
						<clipPath id="SVGID_4_">
							<use xlink:href="#SVGID_3_"  style="overflow:visible;"/>
						</clipPath>
						<rect x="-1970.4" y="998.3" class="st9" width="104.3" height="64.8"/>
					</g>
				</g>
			</g>
		</g>
	</g>
</g>
</svg>
