<?xml version="1.0" encoding="utf-8"?>
<!-- Generator: Adobe Illustrator 23.0.2, SVG Export Plug-In . SVG Version: 6.00 Build 0)  -->
<svg version="1.1" id="Layer_1" xmlns="http://www.w3.org/2000/svg" xmlns:xlink="http://www.w3.org/1999/xlink" x="0px" y="0px"
	 width="1440px" height="470px" viewBox="0 0 1440 470" style="enable-background:new 0 0 1440 470;" xml:space="preserve">
<style type="text/css">
	.st0{fill:#EAF1F4;}
</style>
<path class="st0" d="M-1398.7,2339.3c0.4,0.4,1,0.6,1.5,0.8c0.4,0.2,1,0.6,1.5,0.8c0.6,0.2,1,0.6,1.7,0.8c0.6,0.2,1,0.4,1.7,0.6
	c4.2,1.6,9,2.4,14.4,2.3c5.4-0.1,11.4-0.7,18.1-2.5c6.6-1.7,14.1-4.3,22.2-7.9c8.1-3.6,16.8-8.1,26.3-13.6c1-0.6,2.3-1.3,3.3-1.9
	c1.2-0.6,2.3-1.5,3.5-2.1s2.3-1.5,3.5-2.1s2.3-1.5,3.5-2.3c-4.8-2.2-10.6-3.2-17.5-3.1c-6.7,0.1-14.3,1.4-22.9,3.8
	c-8.5,2.4-17.8,5.8-28,10.1C-1375.9,2327.4-1386.9,2332.9-1398.7,2339.3"/>
<path class="st0" d="M-1297.7,2312.2c0.2,0.2,0.6,0.4,0.8,0.8c0.2,0.2,0.6,0.4,0.8,0.8c0.2,0.4,0.6,0.4,0.8,0.8
	c0.2,0.2,0.6,0.4,0.8,0.8c1.5,1.2,3.1,2.5,5.2,3.3c1.9,0.8,4.2,1.2,6.9,0.8c2.7-0.2,6-1.3,10-3c3.9-1.9,8.5-4.7,13.9-8.7
	c0.8-0.6,1.7-1.3,2.5-1.9c0.8-0.6,1.7-1.3,2.7-2.1c0.8-0.6,1.9-1.5,2.7-2.3c1-0.8,1.9-1.5,2.9-2.3c-2.1-1.6-4-3.5-6.5-4.5
	c-2.5-1.2-5.2-1.8-8.8-1.4c-3.5,0.5-8.1,1.8-13.7,4.9C-1282,2300.8-1289,2305.4-1297.7,2312.2"/>
<path class="st0" d="M-1247.4,2299c0.2,0.2,0.6,0.4,0.8,0.6s0.6,0.4,0.8,0.8c0.2,0.2,0.6,0.4,0.8,0.8c0.2,0.2,0.6,0.4,0.8,0.6
	c1.5,1.2,3.1,2.5,5.2,3.3c1.9,0.8,4.2,1.2,6.9,1c2.7-0.2,6-1.1,10-3c3.9-1.9,8.5-4.7,13.9-8.7c0.8-0.6,1.7-1.3,2.5-1.9
	c0.8-0.6,1.7-1.3,2.7-2.1c0.8-0.6,1.9-1.5,2.7-2.3c1-0.8,1.9-1.7,2.9-2.5c-2.1-1.6-4.2-3.5-6.5-4.5c-2.5-1.2-5.2-1.8-9-1.4
	c-3.5,0.5-8.1,2-13.7,4.9C-1232.2,2287.5-1239,2292.2-1247.4,2299"/>
</svg>
