<?xml version="1.0" encoding="UTF-8"?>
<svg width="44px" height="44px" viewBox="0 0 44 44" version="1.1" xmlns="http://www.w3.org/2000/svg" xmlns:xlink="http://www.w3.org/1999/xlink">
    <!-- Generator: Sketch 51.3 (57544) - http://www.bohemiancoding.com/sketch -->
    <title>Group 3</title>
    <desc>Created with Sketch.</desc>
    <defs>
        <linearGradient x1="0%" y1="85%" x2="100%" y2="15%" id="linearGradient-1">
            <stop stop-color="#912E40" offset="0%"></stop>
            <stop stop-color="#D78747" offset="100%"></stop>
        </linearGradient>
    </defs>
    <g id="Page-1" stroke="none" stroke-width="1" fill="none" fill-rule="evenodd">
        <g id="docs-new-design" transform="translate(-188.000000, -496.000000)">
            <g id="Group-3" transform="translate(188.000000, 496.000000)">
                <circle id="Oval-2" fill="#F6FAF9" cx="21.754546" cy="22.1328125" r="21.5"></circle>
                <g id="icon_idocs" transform="translate(4.770377, 12.045898)" fill-rule="nonzero">
                    <polygon id="Fill-1" fill="#15CCCC" points="0.437196398 15.9755231 16.6832379 15.9755231 16.6832379 3.68809622 3.09835346 3.61478854"></polygon>
                    <path d="M0,16.3292547 L17.0374112,16.3292547 L17.0374112,3.33701426 L2.81307177,3.26017368 L0,16.3292547 Z M3.38275193,3.96940339 L16.3308311,4.03829495 L16.3308311,15.6217914 L0.874392793,15.6217914 L3.38275193,3.96940339 Z" id="Fill-2" fill="#FFFFFF"></path>
                    <g id="Group-27" transform="translate(1.766450, 0.018561)">
                        <path d="M14.9173177,15.4555551 C14.9173177,15.4555551 14.3776672,14.5149204 9.41129277,13.5636871 C4.9395244,12.7087252 0.828111804,14.1024543 0.828111804,14.1024543 L2.88514293,2.54015523 C2.88514293,2.54015523 6.66887904,0.974197228 10.2017792,1.40167815 C13.7346794,1.82915907 14.9173177,3.41896416 14.9173177,3.41896416 L14.9173177,15.4555551 Z" id="Fill-3" fill="#15CCCC"></path>
                        <path d="M6.34906324,12.9300613 C7.3347424,12.9300613 8.39284601,13.0095516 9.47744634,13.2171095 C12.4079871,13.7779575 13.8538265,14.3449879 14.5639394,14.7459721 L14.5639394,3.55109462 C14.2715919,3.23843295 13.0209453,2.09818942 10.1592961,1.75284842 C7.18636059,1.39425906 3.97848722,2.50358971 3.1985995,2.79682043 L1.2767018,13.6004292 C2.1758249,13.3548926 4.06680972,12.9300613 6.34906324,12.9300613 Z M15.2714027,16.7809226 L14.6204658,15.648628 C14.5559904,15.5770868 13.726642,14.7503882 9.3449626,13.9104412 C5.01980955,13.0819761 0.981704636,14.4227117 0.941076287,14.4368434 L0.375812257,14.6285032 L2.57150972,2.28719958 L2.74992118,2.2138919 C2.90801847,2.14765003 6.66172491,0.619670693 10.2440857,1.05068452 C13.8856226,1.49229704 15.1486344,3.13862853 15.2007446,3.2084033 L15.2714027,3.30202516 L15.2714027,16.7809226 Z" id="Fill-5" fill="#FFFFFF"></path>
                        <polygon id="Fill-7" fill="#15CCCC" points="14.9173177 15.956697 31.1651257 15.956697 28.5039686 3.59596245 14.9173177 3.66927013"></polygon>
                        <path d="M15.270961,15.6030536 L30.7273994,15.6030536 L28.2190403,3.95066563 L15.270961,4.02044041 L15.270961,15.6030536 Z M31.6017922,16.310517 L14.5634978,16.310517 L14.5634978,3.3182765 L28.7887203,3.24143592 L31.6017922,16.310517 Z" id="Fill-9" fill="#FFFFFF"></path>
                        <path d="M14.9173177,15.4555551 C14.9173177,15.4555551 16.9019245,14.0388621 20.8649552,13.6387611 C25.5645956,13.1653526 29.0074069,14.1024543 29.0074069,14.1024543 L26.9503758,2.54015523 C26.9503758,2.54015523 23.1666396,0.974197228 19.6337395,1.40167815 C16.1008393,1.82915907 14.9173177,3.41896416 14.9173177,3.41896416 L14.9173177,15.4555551 Z" id="Fill-11" fill="#15CCCC"></path>
                        <path d="M15.270961,3.5510063 L15.270961,14.8333231 C16.1294558,14.3749292 17.9762794,13.5756106 20.8299795,13.286796 C24.520977,12.9167247 27.4144222,13.3936662 28.5661477,13.6365531 L26.6371842,2.79673211 C25.8564132,2.50350139 22.6432405,1.38798816 19.6756044,1.7527601 C16.8174881,2.0981011 15.5668415,3.23746141 15.270961,3.5510063 Z M14.564381,16.1378464 L14.5634978,3.30193684 L14.6332726,3.20743176 C14.686266,3.13765698 15.9501611,1.49220871 19.591698,1.05059619 C23.1793581,0.61781592 26.926882,2.14844492 27.0858625,2.21380358 L27.2642739,2.28711126 L29.4529056,14.5886697 L28.9150216,14.4429376 C28.8805758,14.4341054 25.4713271,13.52615 20.9006375,13.9907263 C17.0930544,14.374046 15.1420102,15.7297964 15.121696,15.7439281 L14.564381,16.1378464 Z" id="Fill-13" fill="#FFFFFF"></path>
                        <path d="M25.4616999,1.88974831 C25.4616999,1.88974831 23.2898496,0.510150787 20.1702987,0.888171107 C17.0507479,1.26619143 14.9177594,3.04853957 14.9177594,3.04853957 C14.9177594,3.04853957 13.4321749,1.47551576 10.312624,1.09837867 C7.19218988,0.720358348 4.37381875,1.88974831 4.37381875,1.88974831 L2.69392471,11.9108197 C2.69392471,11.9108197 5.97952189,11.3888337 9.26335264,12.0282887 C13.6467985,12.8806008 14.9177594,14.89877 14.9177594,14.89877 C14.9177594,14.89877 16.6815597,12.9759891 20.5156397,12.2031672 C24.351486,11.4303453 27.141594,11.9108197 27.141594,11.9108197 L25.4616999,1.88974831 Z" id="Fill-15" fill="#15CCCC"></path>
                        <path d="M14.9173177,14.1255948 C13.980216,13.4190148 11.8313295,12.1674849 9.3309193,11.6808278 C8.05112623,11.4317585 6.77839894,11.3540346 5.69379858,11.3540346 C4.572986,11.3540346 3.65001583,11.4370578 3.12184725,11.4980003 L4.68868848,2.14729673 C5.34669114,1.90882597 7.71373426,1.13688728 10.2697875,1.44866572 C12.3215193,1.69685196 14.2160371,2.90422059 14.9173177,3.4191408 C15.4101573,3.04818628 17.6500161,1.54935338 20.2122519,1.23934139 C22.740042,0.928446171 24.6380926,1.83993442 25.1406477,2.11285096 L26.7145547,11.4980003 C25.7421239,11.3955462 23.411293,11.2595295 20.4471898,11.8565897 C17.7886824,12.391824 15.7466661,13.4728915 14.9173177,14.1255948 Z M25.7845187,1.67565456 L25.6511517,1.59174818 C25.5584131,1.53168887 23.3335692,0.148558453 20.1274623,0.537177473 C17.4901523,0.857788167 15.5770868,2.11726708 14.9367487,2.58890926 C14.4032808,2.13139868 12.9185794,1.05739702 10.3545771,0.747385034 C7.18468246,0.36671504 4.35747909,1.5149076 4.23824371,1.56348498 L4.0580658,1.6385591 L2.26423573,12.3361809 L2.74912628,12.2602235 C2.78180561,12.2540409 6.01705895,11.755902 9.19578589,12.3750428 C12.2490948,12.96857 13.8998425,14.3464011 14.5640277,15.0406159 L14.5640277,15.8072553 L14.9040694,15.4363008 C14.9093687,15.4433666 14.9164345,15.4539653 14.9173177,15.4557318 L14.9173177,15.4221692 L15.1778691,15.1377707 C15.1937672,15.1201062 16.9063406,13.2909471 20.5867393,12.5499213 C24.3042335,11.8009465 27.0537131,12.2549241 27.0819763,12.2593403 L27.5721662,12.3423635 L25.7845187,1.67565456 Z" id="Fill-17" fill="#FFFFFF"></path>
                        <path d="M14.8155702,5.01901465 C14.6742542,5.01901465 14.540004,5.03932882 14.4172357,5.0773075 C14.2944674,5.11528617 14.1840643,5.17092936 14.0913257,5.23893769 C13.9977039,5.30694601 13.9226297,5.38731949 13.8705194,5.47829167 C13.8175259,5.5674974 13.7883795,5.66641861 13.7874963,5.77063916 L13.778664,8.7064792 C13.7777808,8.81511587 13.806044,8.91845322 13.8581543,9.01207506 C13.9102645,9.10658018 13.9853387,9.19136977 14.0780773,9.26202781 C14.1716992,9.33268576 14.2829855,9.39009543 14.406637,9.42984053 C14.5311718,9.46958564 14.6671884,9.49078305 14.8093876,9.49166625 L14.8173367,9.49166625 C14.9621855,9.49166625 15.0999687,9.47046891 15.2253866,9.43072373 C15.3499213,9.39097863 15.4629741,9.33356904 15.5574793,9.26202781 C15.6511011,9.19048658 15.7279417,9.10569691 15.7809352,9.01207506 C15.8321623,8.91668676 15.8621919,8.81334948 15.8613087,8.70471273 L15.8383449,5.77505529 L15.8383449,5.76887271 C15.8383449,5.66465215 15.8091984,5.56573095 15.7570881,5.47652522 C15.705861,5.38731949 15.6307869,5.30606278 15.5380483,5.23893769 C15.4461929,5.17092936 15.3357898,5.1161694 15.2139047,5.07819072 C15.0911364,5.04021205 14.9568862,5.01989787 14.8155702,5.01901465" id="Fill-19" fill="#FFFFFF"></path>
                        <path d="M7.91369639,5.01901465 C7.6204657,5.01901465 7.33960014,5.06582557 7.08258165,5.1514984 C6.82467993,5.23805446 6.58974207,5.36347241 6.39013321,5.5180368 C6.19140757,5.67348441 6.02712771,5.85896167 5.90877556,6.06563633 C5.79130663,6.27142776 5.72064863,6.49929982 5.70828348,6.73777058 C5.69591833,6.9780078 5.7444957,7.20764631 5.84165046,7.41697064 C5.94057166,7.62629498 6.08807025,7.8161884 6.27531395,7.97693535 C6.46167444,8.13679902 6.68778005,8.26663311 6.94126564,8.3567221 C7.19651768,8.44769429 7.47826646,8.4971549 7.77679651,8.4980381 C8.0762098,8.49892137 8.36149152,8.45034394 8.62292616,8.36113823 C8.88436073,8.2728157 9.12018184,8.14298161 9.32067388,7.98311793 C9.51939955,7.82502065 9.68191296,7.63601046 9.79673222,7.42668612 C9.91155147,7.21736179 9.97691012,6.98772327 9.9839759,6.74836929 C9.99104175,6.5090153 9.93804821,6.28114324 9.83647732,6.07358535 C9.73490643,5.86779392 9.58475819,5.68143343 9.39751451,5.5251026 C9.21115402,5.36965499 8.98593162,5.24335381 8.73597896,5.15591453 C8.48425983,5.06935848 8.20692716,5.01989787 7.91369639,5.01901465" id="Fill-21" fill="#FFFFFF"></path>
                        <path d="M21.5501612,5.05178229 C21.2569305,5.05089907 20.9787146,5.09859322 20.7269955,5.18426606 C20.4752763,5.27082211 20.250054,5.39624006 20.061927,5.55080445 C19.8746832,5.70625205 19.7227685,5.89172932 19.6194313,6.09840397 C19.5160939,6.30419542 19.4622172,6.53206748 19.4675166,6.77053824 C19.4719327,7.01165868 19.5372913,7.24129719 19.6494609,7.45062153 C19.7633969,7.65994586 19.9241439,7.84983926 20.1228695,8.0105862 C20.3207119,8.17044996 20.556533,8.30028405 20.8170844,8.39037296 C21.0776358,8.48134514 21.3638007,8.53168895 21.6623308,8.53168895 C21.9590944,8.53257222 22.2408432,8.4839948 22.495212,8.39478908 C22.7495808,8.30646656 22.9774529,8.17663254 23.166463,8.01676879 C23.35459,7.8586715 23.5047382,7.66966133 23.6045427,7.46033699 C23.7043471,7.25012944 23.7546909,7.02049093 23.7440922,6.78113694 C23.7343767,6.54178295 23.664602,6.31479411 23.547133,6.106353 C23.4305473,5.90056157 23.2662675,5.71420108 23.0675418,5.55787025 C22.8688162,5.40153942 22.6356448,5.27612146 22.3777431,5.18779895 C22.1207245,5.1012429 21.8416255,5.05266553 21.5501612,5.05178229" id="Fill-25" fill="#FFFFFF"></path>
                    </g>
                </g>
            </g>
        </g>
    </g>
</svg>