<svg class="copy-code__icon" width="21px" height="24px" viewBox="0 0 21 24" version="1.1" xmlns="http://www.w3.org/2000/svg" xmlns:xlink="http://www.w3.org/1999/xlink">
  <g stroke="none" stroke-width="1" fill="none" fill-rule="evenodd">
    <g transform="translate(-0.571777, 0.291992)" fill="#ffffff">
      <path d="M17.5069368,23.3635254 L0.576381617,23.3635254 L0.576381617,3.74340604 L13.4661192,3.74340604 C15.6942855,3.74340604 17.5069368,5.14497231 17.5069368,6.86754247 L17.5069368,23.3635254 Z M1.56164563,21.9902344 L16.5216728,21.9902344 L16.5216728,7.27126201 C16.5216728,5.91969318 15.0500946,4.81989734 13.2412914,4.81989734 L1.56164563,4.81989734 L1.56164563,21.9902344 Z"></path>
      <path d="M20.6667136,19.4626729 L3.73615842,19.4626729 L3.73615842,0.476884598 L16.625896,0.476884598 C18.8540623,0.476884598 20.6667136,1.83313734 20.6667136,3.5000157 L20.6667136,19.4626729 Z M4.72142243,18.2597921 L19.6814496,18.2597921 L19.6814496,3.93850778 C19.6814496,2.62345664 18.2098715,1.5533759 16.4010682,1.5533759 L4.72142243,1.5533759 L4.72142243,18.2597921 Z"></path>
      <path d="M8.28321247,13.6988033 L8.93924825,13.3143431 C8.94013002,13.313552 8.94167311,13.3139475 8.94233444,13.3149364 C9.20554234,13.6752689 9.80911289,14.0379747 10.456331,14.0379747 C11.0568153,14.0379747 11.736218,13.7173934 12.040869,13.2921931 C12.0415303,13.291402 12.042853,13.2910065 12.0437347,13.2915998 L12.7021954,13.6695337 C12.7028567,13.6699292 12.7030772,13.6703248 12.7026363,13.6709181 C12.2520526,14.3010056 11.3306045,14.7426207 10.4611807,14.7426207 C9.61093541,14.7426207 8.73798459,14.32454 8.28321247,13.6988033"></path>
      <path d="M7.04946401,12.1027594 C7.64179201,12.1027594 8.12169453,11.6739992 8.12169453,11.1447731 C8.12169453,10.6157448 7.64179201,10.1867869 7.04946401,10.1867869 C6.45735645,10.1867869 5.97745394,10.6157448 5.97745394,11.1447731 C5.97745394,11.6739992 6.45735645,12.1027594 7.04946401,12.1027594"></path>
      <path d="M13.9365611,12.1027594 C14.5286686,12.1027594 15.0087916,11.6739992 15.0087916,11.1447731 C15.0087916,10.6157448 14.5286686,10.1867869 13.9365611,10.1867869 C13.3444535,10.1867869 12.8643306,10.6157448 12.8643306,11.1447731 C12.8643306,11.6739992 13.3444535,12.1027594 13.9365611,12.1027594"></path>
      <path d="M10.4916238,10.0704402 C10.7696013,10.0696491 10.9955545,10.2717676 10.9955545,10.5209548 L10.9955545,11.7696594 C10.9955545,12.0180555 10.7713648,12.2195807 10.4944895,12.2203718 C10.216512,12.2211629 9.99077925,12.0192422 9.99077925,11.7696594 L9.99077925,10.5209548 C9.99077925,10.2725587 10.2147484,10.0710335 10.4916238,10.0704402"></path>
    </g>
  </g>
</svg>
