<svg xmlns="http://www.w3.org/2000/svg" width="24.62" height="23.96" viewBox="0 0 24.62 23.96">
  <title>Asset 3</title>
  <g id="49b0f95b-a52d-468e-88ce-fa008272b9fd" data-name="Layer 2">
    <g id="5567fed9-24e7-4d42-9c64-0f4ad682da2e" data-name="Layer 1">
      <g>
        <path d="M24,9.55C23,7.67,21.73,9,21.73,9c0-5.16-3.91-9-9.29-9S3.06,3.8,3.06,9c0,0-1.41-1.05-2.5.95C-1.8,14.24,3.87,22.67,6.27,22.67h0a3,3,0,0,0,4.15.76,18.94,18.94,0,0,0,2,.11c.66,0,1.31,0,1.94-.1a3,3,0,0,0,1.68.52,3,3,0,0,0,2.46-1.29h0C21,22.67,26.49,14.13,24,9.55Z" style="fill: #577fa1;fill-rule: evenodd"/>
        <path d="M11.87,10.2V8A.58.58,0,1,1,13,8h0v2.19a.58.58,0,0,1-.58.58.57.57,0,0,1-.57-.57Z" style="fill: #fff;fill-rule: evenodd"/>
        <path d="M6.06,9.1a1.5,1.5,0,1,0,1.5-1.43A1.46,1.46,0,0,0,6.06,9.1Z" style="fill: #fff;fill-rule: evenodd"/>
        <path d="M18.69,9.1a1.5,1.5,0,1,0-1.5,1.42A1.47,1.47,0,0,0,18.69,9.1Z" style="fill: #fff;fill-rule: evenodd"/>
      </g>
    </g>
  </g>
</svg>
