<svg xmlns="http://www.w3.org/2000/svg" width="31.84" height="24.77" viewBox="0 0 31.84 24.77">
  <title>Asset 4</title>
  <g id="879ee5dc-f868-40e8-9d77-b2d97f39bb0b" data-name="Layer 2">
    <g id="22d974ba-4d10-48f9-862e-41027d8806e0" data-name="Layer 1">
      <g>
        <path d="M15.92,24.27a18.37,18.37,0,0,1-10-3.67C.5,16.82.5,14,.5,14V8.21A7.71,7.71,0,0,1,8.21.5h0a7.71,7.71,0,0,1,7.71,7.71Z" style="fill: #27d798;stroke: #fff;stroke-linecap: round;stroke-linejoin: round"/>
        <path d="M31.34,14s-.47,3.6-5,6.61a26.9,26.9,0,0,1-10.44,3.67V8.21A7.71,7.71,0,0,1,23.63.5h0a7.71,7.71,0,0,1,7.71,7.71Z" style="fill: #27d798;stroke: #fff;stroke-linecap: round;stroke-linejoin: round"/>
        <path d="M.5,14A7.72,7.72,0,0,1,8.21,6.27h0A7.72,7.72,0,0,1,15.92,14" style="fill: none;stroke: #fff;stroke-miterlimit: 10"/>
        <path d="M15.92,14a7.72,7.72,0,0,1,7.71-7.72h0A7.72,7.72,0,0,1,31.34,14" style="fill: none;stroke: #fff;stroke-miterlimit: 10"/>
        <path d="M14.8,15.3V11.51a1.15,1.15,0,0,1,2.28,0h0v3.8a1.15,1.15,0,0,1-2.28,0Z" style="fill: #fff;fill-rule: evenodd"/>
        <path d="M5.87,13.4a2.31,2.31,0,0,0,2.36,2.25,2.25,2.25,0,1,0,0-4.49A2.3,2.3,0,0,0,5.87,13.4Z" style="fill: #fff;fill-rule: evenodd"/>
        <path d="M25.8,13.4a2.37,2.37,0,1,0-2.36,2.25A2.3,2.3,0,0,0,25.8,13.4Z" style="fill: #fff;fill-rule: evenodd"/>
      </g>
    </g>
  </g>
</svg>
