<?xml version="1.0" encoding="utf-8"?>
<!-- Generator: Adobe Illustrator 24.2.1, SVG Export Plug-In . SVG Version: 6.00 Build 0)  -->
<svg version="1.1" id="Layer_1" xmlns="http://www.w3.org/2000/svg" xmlns:xlink="http://www.w3.org/1999/xlink" x="0px" y="0px"
	 viewBox="0 0 37 22" style="enable-background:new 0 0 37 22;" xml:space="preserve">
<style type="text/css">
	.st0{fill-rule:evenodd;clip-rule:evenodd;fill:#15CCCC;}
	.st1{fill:#8FCEFC;}
	.st2{fill:#15CCCC;}
</style>
<path id="Fill-1" class="st0" d="M16.9,6.5c0,0.8,0.7,1.4,1.4,1.4s1.4-0.7,1.4-1.4c0-0.8-0.7-1.4-1.4-1.4
	C17.5,5.1,16.9,5.7,16.9,6.5"/>
<path id="Fill-3" class="st0" d="M16.9,15.6c0,0.8,0.7,1.4,1.4,1.4s1.4-0.7,1.4-1.4s-0.7-1.4-1.4-1.4C17.5,14.1,16.9,14.8,16.9,15.6
	"/>
<path id="Fill-5" class="st0" d="M20,11c0,0.4-0.3,0.7-0.7,0.7h-2c-0.4,0-0.7-0.3-0.7-0.7c0-0.4,0.3-0.7,0.7-0.7h2
	C19.7,10.4,20,10.7,20,11"/>
<path id="Fill-5_1_" class="st0" d="M16.2,11c0,0.4-0.3,0.7-0.7,0.7h-2c-0.4,0-0.7-0.3-0.7-0.7c0-0.4,0.3-0.7,0.7-0.7h2
	C15.9,10.4,16.2,10.7,16.2,11"/>
<path id="Fill-5_2_" class="st0" d="M24,11c0,0.4-0.3,0.7-0.7,0.7h-2c-0.4,0-0.7-0.3-0.7-0.7c0-0.4,0.3-0.7,0.7-0.7h2
	C23.8,10.4,24,10.7,24,11"/>
<path class="st1" d="M7.9,17.8c0.3,0,0.6,0.1,0.7,0.4c0.3,0.4,0.3,0.9-0.1,1.3c-0.9,0.8-2,1.5-3.3,1.9c-0.5,0.2-1-0.1-1.2-0.6
	c-0.2-0.5,0.1-1,0.6-1.2c1-0.4,2-0.9,2.7-1.6C7.4,17.8,7.7,17.8,7.9,17.8"/>
<path class="st1" d="M11.3,8.4c0.5,0,0.8,0.3,0.9,0.7c0.1,0.7,0.2,1.2,0.2,1.9s-0.1,1.3-0.2,1.9c-0.1,0.6-0.6,0.8-1,0.7
	c-0.5-0.1-0.8-0.6-0.7-1c0.1-0.6,0.1-1,0.1-1.6c0-0.6,0-1-0.1-1.6C10.4,9,10.8,8.5,11.3,8.4C11.2,8.5,11.3,8.4,11.3,8.4"/>
<path class="st1" d="M4.9,0.8c0.1,0,0.2,0,0.3,0.1C5.7,1,6.3,1.3,6.8,1.7C7.4,2,8,2.3,8.4,2.8c0.4,0.3,0.5,0.9,0.1,1.3
	C8.2,4.5,7.6,4.6,7.2,4.2C6.8,3.8,6.4,3.6,5.9,3.3S5,2.8,4.5,2.6C4.1,2.4,3.8,2,4,1.4C4.2,1,4.5,0.8,4.9,0.8"/>
<path class="st2" d="M1.4,20L1.4,20c0.6,0,1,0.4,1,0.9c0,0.6-0.4,0.9-0.9,0.9H1.4c-0.6,0-0.9-0.4-0.9-0.9C0.5,20.5,0.9,20,1.4,20"/>
<path class="st2" d="M10.1,15.1c0.2,0,0.3,0,0.5,0.1c0.5,0.3,0.6,0.8,0.4,1.2v0.1c-0.3,0.5-0.8,0.6-1.3,0.4
	c-0.5-0.2-0.6-0.8-0.4-1.2l0,0C9.5,15.3,9.8,15.1,10.1,15.1"/>
<path class="st2" d="M10.1,5.1c0.3,0,0.7,0.2,0.8,0.5v0.1c0.3,0.5,0.1,1-0.4,1.2c-0.5,0.2-1,0.1-1.2-0.4l0,0c-0.3-0.5-0.1-1,0.4-1.2
	C9.8,5.1,10,5.1,10.1,5.1"/>
<path class="st2" d="M1.4,0.2L1.4,0.2c0.6,0,1,0.4,1,0.9c0,0.6-0.4,0.9-0.9,0.9H1.4c-0.6,0-0.9-0.4-0.9-0.9C0.5,0.6,0.9,0.2,1.4,0.2
	"/>
<path class="st1" d="M29.4,4.3c-0.3,0-0.6-0.1-0.7-0.4c-0.3-0.4-0.3-0.9,0.1-1.3c0.9-0.8,2-1.5,3.3-1.9c0.5-0.2,1,0.1,1.2,0.6
	c0.2,0.5-0.1,1-0.6,1.2c-1,0.4-2,0.9-2.7,1.6C29.9,4.3,29.6,4.3,29.4,4.3"/>
<path class="st1" d="M26,13.7c-0.5,0-0.8-0.3-0.9-0.7c-0.1-0.7-0.2-1.2-0.2-1.9s0.1-1.3,0.2-1.9c0.1-0.6,0.6-0.8,1-0.7
	c0.5,0.1,0.8,0.6,0.7,1c-0.1,0.6-0.1,1-0.1,1.6s0,1,0.1,1.6C26.9,13.1,26.5,13.6,26,13.7C26,13.6,26,13.7,26,13.7"/>
<path class="st1" d="M32.4,21.3c-0.1,0-0.2,0-0.3-0.1c-0.6-0.2-1.1-0.5-1.7-0.8c-0.6-0.3-1.1-0.7-1.6-1.1c-0.4-0.3-0.5-0.9-0.1-1.3
	c0.3-0.4,0.9-0.5,1.3-0.1s0.8,0.7,1.3,0.9s0.9,0.5,1.4,0.7c0.5,0.2,0.7,0.7,0.6,1.2C33,21.1,32.7,21.3,32.4,21.3"/>
<path class="st2" d="M35.9,2.1L35.9,2.1c-0.6,0-1-0.4-1-0.9s0.4-0.9,0.9-0.9h0.1c0.6,0,0.9,0.4,0.9,0.9C36.7,1.6,36.4,2.1,35.9,2.1"
	/>
<path class="st2" d="M27.2,7c-0.2,0-0.3,0-0.5-0.1c-0.5-0.3-0.6-0.8-0.4-1.2V5.6c0.3-0.5,0.8-0.6,1.3-0.4c0.5,0.2,0.6,0.8,0.4,1.2
	l0,0C27.7,6.8,27.4,7,27.2,7"/>
<path class="st2" d="M27.2,17c-0.3,0-0.7-0.2-0.8-0.5v-0.1c-0.3-0.5-0.1-1,0.4-1.2s1-0.1,1.2,0.4l0,0c0.3,0.5,0.1,1-0.4,1.2
	C27.4,17,27.3,17,27.2,17"/>
<path class="st2" d="M35.8,21.9L35.8,21.9c-0.6,0-1-0.4-1-0.9c0-0.6,0.4-0.9,0.9-0.9h0.1c0.6,0,0.9,0.4,0.9,0.9
	C36.7,21.5,36.4,21.9,35.8,21.9"/>
</svg>
