<?xml version="1.0" encoding="utf-8"?>
<!-- Generator: Adobe Illustrator 24.3.0, SVG Export Plug-In . SVG Version: 6.00 Build 0)  -->
<svg version="1.1" id="Layer_1" xmlns="http://www.w3.org/2000/svg" xmlns:xlink="http://www.w3.org/1999/xlink" x="0px" y="0px"
	 viewBox="0 0 37 22" style="enable-background:new 0 0 37 22;" xml:space="preserve">
<style type="text/css">
	.st0{fill:none;stroke:#598DB7;stroke-width:1.1345;stroke-linecap:round;stroke-miterlimit:10;}
	.st1{fill:none;stroke:#8FCEFC;stroke-width:1.1345;stroke-linecap:round;stroke-miterlimit:10;}
	.st2{clip-path:url(#SVGID_2_);fill:#598DB7;}
	.st3{clip-path:url(#SVGID_4_);fill:#8FCEFC;}
	.st4{clip-path:url(#SVGID_6_);fill:#8FCEFC;}
	.st5{clip-path:url(#SVGID_8_);fill:#8FCEFC;}
	.st6{clip-path:url(#SVGID_10_);fill:#22E0B6;}
	.st7{clip-path:url(#SVGID_12_);fill:#8FCEFC;}
	.st8{clip-path:url(#SVGID_14_);fill:#8FCEFC;}
	.st9{clip-path:url(#SVGID_16_);fill:#8FCEFC;}
	.st10{clip-path:url(#SVGID_18_);fill:#598DB7;}
	.st11{fill:none;stroke:#22E0B6;stroke-width:1.1345;stroke-linecap:round;stroke-miterlimit:10;}
</style>
<path class="st0" d="M6.8,16.4c3.1-3.2,11.1-0.2,14.3-3.3c3.2-3.1,0.1-9.7,3-12.6"/>
<path class="st1" d="M30.2,5.7c-3.1,3.2-9.3,0.9-12.5,4c-3.2,3.1-2.5,8.7-5.7,11.5"/>
<g>
	<defs>
		<circle id="SVGID_1_" cx="10.8" cy="18.9" r="1.1"/>
	</defs>
	<use xlink:href="#SVGID_1_"  style="overflow:visible;fill:#598DB7;"/>
	<clipPath id="SVGID_2_">
		<use xlink:href="#SVGID_1_"  style="overflow:visible;"/>
	</clipPath>
	<path class="st2" d="M8.6,16.5h4.6v4.6H8.6V16.5z"/>
</g>
<g>
	<defs>
		<circle id="SVGID_3_" cx="10.8" cy="11.4" r="1.1"/>
	</defs>
	<use xlink:href="#SVGID_3_"  style="overflow:visible;fill:#8FCEFC;"/>
	<clipPath id="SVGID_4_">
		<use xlink:href="#SVGID_3_"  style="overflow:visible;"/>
	</clipPath>
	<path class="st3" d="M8.6,9.1h4.6v4.6H8.6V9.1z"/>
</g>
<g>
	<defs>
		<circle id="SVGID_5_" cx="10.8" cy="3.9" r="1.1"/>
	</defs>
	<use xlink:href="#SVGID_5_"  style="overflow:visible;fill:#8FCEFC;"/>
	<clipPath id="SVGID_6_">
		<use xlink:href="#SVGID_5_"  style="overflow:visible;"/>
	</clipPath>
	<path class="st4" d="M8.6,1.6h4.6v4.6H8.6V1.6z"/>
</g>
<g>
	<defs>
		<circle id="SVGID_7_" cx="19.3" cy="18.9" r="1.1"/>
	</defs>
	<use xlink:href="#SVGID_7_"  style="overflow:visible;fill:#8FCEFC;"/>
	<clipPath id="SVGID_8_">
		<use xlink:href="#SVGID_7_"  style="overflow:visible;"/>
	</clipPath>
	<path class="st5" d="M17.1,16.5h4.6v4.6h-4.6V16.5z"/>
</g>
<g>
	<defs>
		<circle id="SVGID_9_" cx="19.3" cy="11.4" r="1.1"/>
	</defs>
	<use xlink:href="#SVGID_9_"  style="overflow:visible;fill:#22E0B6;"/>
	<clipPath id="SVGID_10_">
		<use xlink:href="#SVGID_9_"  style="overflow:visible;"/>
	</clipPath>
	<path class="st6" d="M17.1,9.1h4.6v4.6h-4.6V9.1z"/>
</g>
<g>
	<defs>
		<circle id="SVGID_11_" cx="19.3" cy="3.9" r="1.1"/>
	</defs>
	<use xlink:href="#SVGID_11_"  style="overflow:visible;fill:#8FCEFC;"/>
	<clipPath id="SVGID_12_">
		<use xlink:href="#SVGID_11_"  style="overflow:visible;"/>
	</clipPath>
	<path class="st7" d="M17.1,1.6h4.6v4.6h-4.6V1.6z"/>
</g>
<g>
	<defs>
		<circle id="SVGID_13_" cx="27.8" cy="18.9" r="1.1"/>
	</defs>
	<use xlink:href="#SVGID_13_"  style="overflow:visible;fill:#8FCEFC;"/>
	<clipPath id="SVGID_14_">
		<use xlink:href="#SVGID_13_"  style="overflow:visible;"/>
	</clipPath>
	<path class="st8" d="M25.6,16.5h4.6v4.6h-4.6V16.5z"/>
</g>
<g>
	<defs>
		<circle id="SVGID_15_" cx="27.8" cy="11.4" r="1.1"/>
	</defs>
	<use xlink:href="#SVGID_15_"  style="overflow:visible;fill:#8FCEFC;"/>
	<clipPath id="SVGID_16_">
		<use xlink:href="#SVGID_15_"  style="overflow:visible;"/>
	</clipPath>
	<path class="st9" d="M25.6,9.1h4.6v4.6h-4.6V9.1z"/>
</g>
<g>
	<defs>
		<circle id="SVGID_17_" cx="27.8" cy="3.9" r="1.1"/>
	</defs>
	<use xlink:href="#SVGID_17_"  style="overflow:visible;fill:#598DB7;"/>
	<clipPath id="SVGID_18_">
		<use xlink:href="#SVGID_17_"  style="overflow:visible;"/>
	</clipPath>
	<path class="st10" d="M25.6,1.6h4.6v4.6h-4.6V1.6z"/>
</g>
<path class="st11" d="M8.3,17.7c3.1-3.2,9.6-1.5,12.8-4.6c3.2-3.1,1.8-8.3,4.6-11.3"/>
</svg>
