<?xml version="1.0" encoding="utf-8"?>
<!-- Generator: Adobe Illustrator 24.3.0, SVG Export Plug-In . SVG Version: 6.00 Build 0)  -->
<svg version="1.1" id="Layer_1" xmlns="http://www.w3.org/2000/svg" xmlns:xlink="http://www.w3.org/1999/xlink" x="0px" y="0px"
	 viewBox="0 0 37 22" style="enable-background:new 0 0 37 22;" xml:space="preserve">
<style type="text/css">
	.st0{fill-rule:evenodd;clip-rule:evenodd;fill:#15CCCC;}
	.st1{fill:#8FCEFC;}
	.st2{fill:#15CCCC;}
</style>
<g>
	<path class="st0" d="M14.1,12.4c0.8,0,1.4-0.7,1.4-1.4s-0.7-1.4-1.4-1.4c-0.8,0-1.4,0.7-1.4,1.4C12.7,11.8,13.3,12.4,14.1,12.4"/>
	<path class="st0" d="M23.2,12.4c0.8,0,1.4-0.7,1.4-1.4s-0.7-1.4-1.4-1.4s-1.4,0.7-1.4,1.4C21.7,11.8,22.3,12.4,23.2,12.4"/>
	<path class="st0" d="M18.6,9.3c0.4,0,0.7,0.3,0.7,0.7v2c0,0.4-0.3,0.7-0.7,0.7s-0.7-0.3-0.7-0.7v-2C18,9.6,18.2,9.3,18.6,9.3"/>
	<path class="st1" d="M12.2,4.3c-0.3,0-0.6-0.1-0.7-0.4c-0.3-0.4-0.3-0.9,0.1-1.3c0.9-0.8,2-1.5,3.3-1.9c0.5-0.2,1,0.1,1.2,0.6
		c0.2,0.5-0.1,1-0.6,1.2c-1,0.4-2,0.9-2.7,1.6C12.7,4.3,12.4,4.3,12.2,4.3 M25,4.4c-0.2,0-0.4-0.1-0.6-0.2c-0.4-0.4-0.8-0.7-1.3-0.9
		s-0.9-0.5-1.4-0.7C21.3,2.4,21,2,21.2,1.4c0.2-0.5,0.7-0.7,1.2-0.6s1.1,0.5,1.7,0.8s1.1,0.7,1.6,1.1C26.1,3,26.2,3.6,25.8,4
		C25.6,4.2,25.3,4.4,25,4.4 M8.7,13.7c-0.5,0-0.8-0.3-0.9-0.7c-0.1-0.7-0.2-1.2-0.2-1.9s0.1-1.3,0.2-1.9s0.6-0.8,1-0.7
		c0.5,0.1,0.9,0.5,0.8,1c-0.1,0.6-0.1,1-0.1,1.6s0,1,0.1,1.6C9.7,13.1,9.3,13.6,8.7,13.7C8.8,13.6,8.7,13.7,8.7,13.7 M28.5,13.7
		c-0.1,0-0.1,0-0.2,0c-0.6-0.1-0.8-0.6-0.7-1c0.1-0.6,0.1-1,0.1-1.6s0-1-0.1-1.6c-0.1-0.5,0.3-0.9,0.7-1c0.6-0.1,0.9,0.3,1,0.7
		c0.1,0.7,0.2,1.2,0.2,1.9s-0.1,1.3-0.2,1.9C29.3,13.4,28.9,13.7,28.5,13.7 M3.8,15c-0.7,0-1.3-0.4-1.4-1.1c-0.1-1-0.3-1.8-0.3-2.8
		s0.1-2,0.3-2.8S3.3,7.1,4,7.2S5.2,8,5.1,8.7C5,9.5,5,10.2,5,11.1s0,1.5,0.1,2.4C5.2,14.2,4.7,14.9,4,15C4,14.9,3.8,15,3.8,15
		 M33.4,15c-0.1,0-0.1,0-0.3,0c-0.8-0.1-1.3-0.8-1.1-1.5c0.1-0.8,0.1-1.5,0.1-2.4s0-1.5-0.1-2.4c-0.1-0.7,0.4-1.4,1.1-1.5
		c0.8-0.1,1.4,0.4,1.5,1.1c0.1,1,0.3,1.8,0.3,2.8s-0.1,2-0.3,2.8C34.7,14.6,34.1,15,33.4,15 M15.2,21.3c-0.1,0-0.2,0-0.3-0.1
		c-0.6-0.2-1.1-0.5-1.7-0.8s-1.1-0.7-1.6-1.1c-0.3-0.3-0.4-0.9-0.1-1.3s0.9-0.5,1.3-0.1s0.8,0.7,1.3,0.9c0.5,0.3,0.9,0.5,1.4,0.7
		s0.7,0.7,0.6,1.2C15.8,21.1,15.5,21.3,15.2,21.3 M22.1,21.3c-0.4,0-0.7-0.3-0.8-0.7c-0.2-0.5,0.1-1,0.6-1.2c1-0.4,2-0.9,2.7-1.6
		c0.4-0.3,0.9-0.3,1.3,0.1c0.3,0.4,0.3,0.9-0.1,1.3c-0.9,0.8-2,1.5-3.3,1.9C22.2,21.3,22.2,21.3,22.1,21.3"/>
	<g>
		<path class="st2" d="M18.7,2c-0.6,0-1-0.4-1-0.9s0.4-0.9,0.9-0.9h0.1c0.6,0,0.9,0.4,0.9,0.9C19.5,1.5,19.2,2,18.7,2"/>
		<path class="st2" d="M10,6.9c-0.2,0-0.3,0-0.5-0.1C9,6.5,8.9,6,9.1,5.6V5.5C9.4,5,10,4.9,10.4,5.1s0.6,0.8,0.4,1.2
			C10.5,6.7,10.2,6.9,10,6.9"/>
		<path class="st2" d="M27.4,6.9c-0.3,0-0.7-0.2-0.8-0.5c-0.3-0.5-0.1-1,0.4-1.2c0.5-0.3,1-0.1,1.3,0.4v0.1c0.3,0.5,0.1,1-0.4,1.2
			C27.6,6.9,27.5,6.9,27.4,6.9"/>
		<path class="st2" d="M10,16.9c-0.3,0-0.7-0.2-0.8-0.5v-0.1c-0.3-0.5-0.1-1,0.4-1.2s1-0.1,1.2,0.4c0.3,0.5,0.1,1-0.4,1.2
			C10.2,16.9,10,16.9,10,16.9"/>
		<path class="st2" d="M27.3,16.9c-0.2,0-0.3,0-0.5-0.1c-0.5-0.3-0.6-0.8-0.4-1.2v-0.1c0.3-0.5,0.8-0.6,1.3-0.4
			c0.5,0.3,0.6,0.8,0.4,1.2v0.1C27.9,16.8,27.6,16.9,27.3,16.9"/>
		<path class="st2" d="M18.6,21.8c-0.6,0-1-0.4-1-0.9S18,20,18.5,20h0.1c0.6,0,0.9,0.4,0.9,0.9S19.2,21.8,18.6,21.8"/>
	</g>
</g>
</svg>
