<?xml version="1.0" encoding="utf-8"?>
<!-- Generator: Adobe Illustrator 25.2.3, SVG Export Plug-In . SVG Version: 6.00 Build 0)  -->
<svg version="1.1" id="Layer_1" xmlns="http://www.w3.org/2000/svg" xmlns:xlink="http://www.w3.org/1999/xlink" x="0px" y="0px"
	 viewBox="0 0 43 44" style="enable-background:new 0 0 43 44;" xml:space="preserve">
<style type="text/css">
	.st0{opacity:0.8;fill:url(#SVGID_1_);enable-background:new    ;}
	.st1{opacity:0.8;fill:url(#SVGID_2_);enable-background:new    ;}
	.st2{opacity:0.8;fill:url(#SVGID_3_);}
	.st3{opacity:0.8;fill:url(#SVGID_4_);}
</style>
<linearGradient id="SVGID_1_" gradientUnits="userSpaceOnUse" x1="23.3893" y1="23.7145" x2="9.7992" y2="10.1244">
	<stop  offset="0" style="stop-color:#F0567E"/>
	<stop  offset="1" style="stop-color:#9C56AA"/>
</linearGradient>
<path class="st0" d="M26.6,2.2c-1.6-0.3-3.4-0.4-5.1-0.4c-1.7,0-3.3,0.1-4.7,0.4c-4.1,0.7-4.9,2.3-4.9,5.1V11h9.8v1.2h-9.8H8.2
	c-2.9,0-5.3,1.7-6.2,5c-0.9,3.7-1,6.1,0,10c0.7,2.9,2.4,5,5.2,5h3.4v-4.4c0-0.5,0.1-1.1,0.3-1.6c-0.3,0.1-0.5,0.1-0.8,0.1
	c-2,0-3.5-1.5-3.5-3.5c0-2,1.5-3.5,3.5-3.5c1.9,0,3.5,1.5,3.5,3.4c0.9-0.6,2-1,3.2-1h3v-0.7c0-0.9,0.9-1.8,1.5-1.8
	c1.1,0,1.8,0.9,1.8,1.8v0.7h3.5c2.7,0,4.9-2.2,4.9-5V7.3C31.6,4.6,29.3,2.6,26.6,2.2z M16.2,8.5c-1,0-1.8-0.8-1.8-1.9
	c0-1,0.8-1.9,1.8-1.9c1,0,1.8,0.8,1.8,1.9C18.1,7.7,17.2,8.5,16.2,8.5z"/>
<linearGradient id="SVGID_2_" gradientUnits="userSpaceOnUse" x1="34.0318" y1="38.7835" x2="22.455" y2="20.6633">
	<stop  offset="0" style="stop-color:#F0567E"/>
	<stop  offset="1" style="stop-color:#9C56AA"/>
</linearGradient>
<path class="st1" d="M41.4,17.2c-0.7-2.9-2.1-5-4.9-5h-3.7v4.4c0,0.9-0.2,1.8-0.6,2.6c0.2,0,0.4-0.1,0.7-0.1c2,0,3.5,1.5,3.5,3.5
	c0,2-1.5,3.5-3.5,3.5c-2,0-3.5-1.5-3.5-3.5c0-0.2,0-0.4,0.1-0.6c-0.8,0.4-1.8,0.7-2.7,0.7h-3.5v1.8c0,0.9-0.7,1.8-1.5,1.8
	c-0.9,0-1.8-0.7-1.8-1.5v-0.2v-1.8h-3c-2.7,0-4.9,2.3-4.9,5v9.3c0,2.7,2.3,4.2,4.9,5c3.1,0.9,6.1,1.1,9.8,0c2.5-0.7,4.9-2.2,4.9-5
	v-3.7h-9.8v-1.2h9.8h4.9c2.9,0,3.9-2,4.9-5C42.4,24.1,42.4,21.2,41.4,17.2z M27.3,35.9c1,0,1.8,0.8,1.8,1.9c0,1-0.8,1.9-1.8,1.9
	c-1,0-1.8-0.8-1.8-1.9C25.4,36.8,26.3,35.9,27.3,35.9z"/>
<desc>Created with Sketch.</desc>
<linearGradient id="SVGID_3_" gradientUnits="userSpaceOnUse" x1="22.8387" y1="23.0687" x2="9.2485" y2="9.4786">
	<stop  offset="0" style="stop-color:#0088FF"/>
	<stop  offset="1" style="stop-color:#00F0B4"/>
</linearGradient>
<path class="st2" d="M26.1,1.5c-1.6-0.3-3.4-0.4-5.1-0.4s-3.3,0.1-4.7,0.4c-4.1,0.7-4.9,2.3-4.9,5.1v3.7h9.8v1.2h-9.8H7.7
	c-2.9,0-5.3,1.7-6.2,5c-0.9,3.7-1,6.1,0,10c0.7,2.9,2.4,5,5.2,5h3.4v-4.4c0-0.5,0.1-1.1,0.3-1.6c-0.3,0.1-0.5,0.1-0.8,0.1
	C7.6,25.6,6,24,6,22c0-2,1.5-3.5,3.5-3.5c1.9,0,3.5,1.5,3.5,3.4c0.9-0.6,2-1,3.2-1h3v-0.7c0-0.9,0.9-1.8,1.5-1.8
	c1.1,0,1.8,0.9,1.8,1.8V21h3.5c2.7,0,4.9-2.2,4.9-5V6.6C31,4,28.8,2,26.1,1.5z M15.7,7.9c-1,0-1.8-0.8-1.8-1.9c0-1,0.8-1.9,1.8-1.9
	S17.5,5,17.5,6C17.5,7,16.7,7.9,15.7,7.9z"/>
<linearGradient id="SVGID_4_" gradientUnits="userSpaceOnUse" x1="33.4811" y1="38.1377" x2="21.9044" y2="20.0176">
	<stop  offset="4.364633e-04" style="stop-color:#FFEF54"/>
	<stop  offset="1" style="stop-color:#F0AA3D"/>
</linearGradient>
<path class="st3" d="M40.9,16.6c-0.7-2.9-2.1-5-4.9-5h-3.7V16c0,0.9-0.2,1.8-0.6,2.6c0.2,0,0.4-0.1,0.7-0.1c2,0,3.5,1.5,3.5,3.5
	c0,2-1.5,3.5-3.5,3.5c-2,0-3.5-1.5-3.5-3.5c0-0.2,0-0.4,0.1-0.6c-0.8,0.4-1.8,0.7-2.7,0.7h-3.5V24c0,0.9-0.7,1.8-1.5,1.8
	c-0.9,0-1.8-0.7-1.8-1.5V24v-1.8h-3c-2.7,0-4.9,2.3-4.9,5v9.3c0,2.7,2.3,4.2,4.9,5c3.1,0.9,6.1,1.1,9.8,0c2.5-0.7,4.9-2.2,4.9-5
	v-3.7h-9.8v-1.2H31h4.9c2.9,0,3.9-2,4.9-5C41.9,23.5,41.8,20.5,40.9,16.6z M26.7,35.3c1,0,1.8,0.8,1.8,1.9c0,1-0.8,1.9-1.8,1.9
	c-1,0-1.8-0.8-1.8-1.9C24.9,36.1,25.7,35.3,26.7,35.3z"/>
</svg>
