<?xml version="1.0" encoding="UTF-8"?>
<svg width="49px" height="25px" viewBox="0 0 49 25" version="1.1" xmlns="http://www.w3.org/2000/svg" xmlns:xlink="http://www.w3.org/1999/xlink">
    <!-- Generator: Sketch 48.2 (47327) - http://www.bohemiancoding.com/sketch -->
    <title>Page 1 Copy</title>
    <desc>Created with Sketch.</desc>
    <defs>
        <polygon id="path-1" points="0.114060594 0.212920228 3.00793877 0.212920228 3.00793877 3.55994363 0.114060594 3.55994363"></polygon>
        <polygon id="path-3" points="0.128407167 0.212849029 2.92901482 0.212849029 2.92901482 3.55994363 0.128407167 3.55994363"></polygon>
        <polygon id="path-5" points="0.133141892 0.212920228 3.6183267 0.212920228 3.6183267 3.55994363 0.133141892 3.55994363"></polygon>
    </defs>
    <g id="docs.imanda-copy-2" stroke="none" stroke-width="1" fill="none" fill-rule="evenodd" transform="translate(-568.000000, -544.000000)">
        <g id="Group-6" transform="translate(554.339844, 532.000000)">
            <g id="Page-1-Copy" transform="translate(14.500000, 12.375000)">
                <polygon id="Fill-1" fill="#21D8AF" points="1.94942513 23.8094726 2.35419072 23.8094726 2.35419072 20.4624136 1.94942513 20.4624136"></polygon>
                <polygon id="Fill-2" fill="#21D8AF" points="9.84573609 20.4623068 8.66312282 22.1668078 7.48086554 20.4623068 6.98282942 20.4623068 6.98282942 23.8093658 7.38723902 23.8093658 7.38723902 21.0514774 8.6011798 22.7556225 8.69445032 22.7556225 9.93900661 21.082449 9.93900661 23.8093658 10.3437722 23.8093658 10.3437722 20.4623068"></polygon>
                <path d="M16.2324886,20.4623068 L14.7387362,23.8093658 L15.2058008,23.8093658 L15.5165839,23.0653376 L17.4457173,23.0653376 L17.7881839,23.8093658 L18.223921,23.8093658 L16.7305247,20.4623068 L16.2324886,20.4623068 Z M16.4813286,20.8962639 L17.2591763,22.6936794 L15.6721534,22.6936794 L16.4813286,20.8962639 Z" id="Fill-3" fill="#21D8AF"></path>
                <polygon id="Fill-4" fill="#21D8AF" points="24.8258009 20.4623068 24.8258009 23.0037505 22.7717134 20.4623068 22.4919018 20.4623068 22.4919018 23.8093658 22.8963114 23.8093658 22.8963114 21.268278 24.9500429 23.8093658 25.2302105 23.8093658 25.2302105 20.4623068"></polygon>
                <g id="Group-20" transform="translate(0.000000, 0.313845)">
                    <g id="Group-7" transform="translate(29.903526, 19.935684)">
                        <mask id="mask-2" fill="white">
                            <use xlink:href="#path-1"></use>
                        </mask>
                        <g id="Clip-6"></g>
                        <path d="M0.114060594,0.212920228 L1.32764538,0.212920228 C2.47893115,0.212920228 3.00793877,1.01889147 3.00793877,1.85512222 C3.00793877,2.72303648 2.50990265,3.55997923 1.32764538,3.55997923 L0.114060594,3.55997923 L0.114060594,0.212920228 Z M2.60317318,1.85512222 C2.60317318,1.23569203 2.19876358,0.615905847 1.32764538,0.615905847 L0.51847019,0.615905847 L0.51847019,3.15699361 L1.32764538,3.15699361 C2.22973509,3.15699361 2.60317318,2.4752644 2.60317318,1.85512222 Z" id="Fill-5" fill="#21D8AF" mask="url(#mask-2)"></path>
                    </g>
                    <g id="Group-10" transform="translate(37.023414, 19.935684)">
                        <mask id="mask-4" fill="white">
                            <use xlink:href="#path-3"></use>
                        </mask>
                        <g id="Clip-9"></g>
                        <path d="M1.34199195,2.35130717 L0.533172757,2.35130717 L0.533172757,3.56026402 L0.128407167,3.56026402 L0.128407167,0.212849029 L1.65313102,0.212849029 C2.4000072,0.212849029 2.77344528,0.740076681 2.77344528,1.26659234 C2.77344528,1.76284848 2.49327772,2.25839264 1.80905655,2.28900815 L2.92901482,3.52893652 L2.4000072,3.52893652 L1.34199195,2.35130717 Z M2.33770818,1.29756385 C2.33770818,0.956877248 2.08886812,0.584863138 1.62215951,0.584863138 L0.501845253,0.584863138 L0.501845253,1.97964905 L1.59083201,1.97964905 C2.08886812,1.97964905 2.33770818,1.66957796 2.33770818,1.29756385 Z" id="Fill-8" fill="#21D8AF" mask="url(#mask-4)"></path>
                    </g>
                    <g id="Group-13" transform="translate(43.787307, 19.935684)">
                        <mask id="mask-6" fill="white">
                            <use xlink:href="#path-5"></use>
                        </mask>
                        <g id="Clip-12"></g>
                        <path d="M2.09360285,0.212920228 L3.6183267,3.55997923 L3.1825896,3.55997923 L2.84047902,2.81595101 L0.910989574,2.81595101 L0.599850501,3.55997923 L0.133141892,3.55997923 L1.62653824,0.212920228 L2.09360285,0.212920228 Z M1.8757343,0.646877356 L1.06655911,2.44429289 L2.65358198,2.44429289 L1.8757343,0.646877356 Z" id="Fill-11" fill="#21D8AF" mask="url(#mask-6)"></path>
                    </g>
                    <path d="M5.6518021,11.5981183 C8.77316067,11.5981183 11.3035686,9.07839024 11.3035686,5.96913548 C11.3035686,2.8609487 8.77316067,0.341220597 5.6518021,0.341220597 C2.53008754,0.341220597 3.55994363e-05,2.8609487 3.55994363e-05,5.96913548 C3.55994363e-05,9.07839024 2.53008754,11.5981183 5.6518021,11.5981183" id="Fill-14" fill="#21D8AF"></path>
                    <path d="M41.9555732,11.5981183 C45.0772878,11.5981183 47.6073397,9.07839024 47.6073397,5.96913548 C47.6073397,2.8609487 45.0772878,0.341220597 41.9555732,0.341220597 C38.8342146,0.341220597 36.3038067,2.8609487 36.3038067,5.96913548 C36.3038067,9.07839024 38.8342146,11.5981183 41.9555732,11.5981183" id="Fill-16" fill="#21D8AF"></path>
                    <path d="M23.8544347,0.0422209314 C25.3193515,0.0383049934 26.5094406,1.2251902 26.5094406,2.690107 L26.5094406,9.24894714 C26.5094406,10.709236 25.3278953,11.8936293 23.8676064,11.8971892 C22.4026896,11.9011051 21.2129565,10.7145759 21.2129565,9.24894714 L21.2129565,2.690107 C21.2129565,1.23053011 22.3941458,0.0461368694 23.8544347,0.0422209314" id="Fill-18" fill="#21D8AF"></path>
                </g>
            </g>
        </g>
    </g>
</svg>