<?xml version="1.0" encoding="utf-8"?>
<!-- Generator: Adobe Illustrator 24.3.0, SVG Export Plug-In . SVG Version: 6.00 Build 0)  -->
<svg version="1.1" id="Layer_1" xmlns="http://www.w3.org/2000/svg" xmlns:xlink="http://www.w3.org/1999/xlink" x="0px" y="0px"
	 viewBox="0 0 37 22" style="enable-background:new 0 0 37 22;" xml:space="preserve">
<style type="text/css">
	.st0{fill-rule:evenodd;clip-rule:evenodd;fill:none;stroke:#8FCEFC;stroke-miterlimit:10;}
	.st1{fill-rule:evenodd;clip-rule:evenodd;fill:#15CCCC;}
	.st2{fill-rule:evenodd;clip-rule:evenodd;fill:#8FCEFC;}
	.st3{fill:#598DB7;}
	.st4{fill:#B6D0DD;}
	.st5{fill-rule:evenodd;clip-rule:evenodd;fill:none;stroke:#598DB7;stroke-miterlimit:10;}
	.st6{fill-rule:evenodd;clip-rule:evenodd;fill:none;stroke:#15CCCC;stroke-miterlimit:10;}
</style>
<g>
	<circle class="st0" cx="18.5" cy="15.3" r="5.4"/>
	<path class="st1" d="M24.1,7.7c0.8,0,1.4-0.7,1.4-1.4s-0.7-1.4-1.4-1.4s-1.4,0.7-1.4,1.4C22.6,7.1,23.2,7.7,24.1,7.7"/>
	<path class="st2" d="M18.6,17.2c0.8,0,1.4-0.7,1.4-1.4c0-0.7-0.7-1.4-1.4-1.4s-1.4,0.7-1.4,1.4C17.1,16.6,17.7,17.2,18.6,17.2"/>
	<circle class="st3" cx="13.3" cy="6.4" r="1.5"/>
	<circle class="st4" cx="18.6" cy="10.1" r="1.5"/>
	<circle class="st5" cx="14.6" cy="6.6" r="5.4"/>
	<circle class="st6" cx="22.4" cy="6.3" r="5.4"/>
</g>
</svg>
