<?xml version="1.0" encoding="utf-8"?>
<!-- Generator: Adobe Illustrator 23.0.4, SVG Export Plug-In . SVG Version: 6.00 Build 0)  -->
<svg version="1.1" id="Layer_1" xmlns="http://www.w3.org/2000/svg" xmlns:xlink="http://www.w3.org/1999/xlink" x="0px" y="0px"
	 viewBox="0 0 28 20" style="enable-background:new 0 0 28 20;" xml:space="preserve">
<style type="text/css">
	.st0{fill:#8FCEFC;}
	.st1{fill:#598DB7;}
	.st2{fill:#8E65B3;}
	.st3{fill:#CC9EF5;}
	.st4{fill:#B477EC;}
</style>
<title>icon--machine-learning--big</title>
<desc>Created with Sketch.</desc>
<g id="New-Menu">
	<g id="Homepage-Copy-2" transform="translate(-1453.000000, -155.000000)">
		<g id="icon--machine-learning--big" transform="translate(1453.279889, 155.750421)">
			<path id="Path" class="st0" d="M16.1,14.1c-0.2,0-0.4-0.1-0.5-0.3l-5.4-8.1c-0.2-0.3-0.1-0.6,0.2-0.8c0.3-0.2,0.6-0.1,0.8,0.2
				l5.4,8.1c0.2,0.3,0.1,0.7-0.2,0.8C16.4,14.1,16.2,14.1,16.1,14.1L16.1,14.1z"/>
			<path class="st0" d="M10.8,14.1c-0.1,0-0.2,0-0.3-0.1c-0.3-0.2-0.4-0.6-0.2-0.8l5.2-8.1c0.2-0.3,0.6-0.3,0.8-0.2
				c0.3,0.2,0.4,0.5,0.2,0.8l-5.2,8.1C11.2,14,11,14.1,10.8,14.1z"/>
			<path class="st1" d="M13.5,18c-0.2,0-0.4-0.1-0.5-0.3l-8.2-12C4.6,5.6,4.6,5.3,4.7,5.1C4.8,4.9,5,4.8,5.2,4.8S5.7,4.9,5.8,5
				L14,17c0.1,0.2,0.1,0.4,0,0.6C13.9,17.9,13.7,18,13.5,18L13.5,18z"/>
			<path class="st1" d="M13.5,18c-0.1,0-0.2,0-0.3-0.1c-0.3-0.2-0.3-0.6-0.2-0.8l8.3-12c0.1-0.2,0.3-0.3,0.6-0.3
				c0.2,0,0.4,0.2,0.5,0.4s0.1,0.4-0.1,0.6l-8.3,12C13.8,17.9,13.7,18,13.5,18L13.5,18z"/>
			<path class="st1" d="M21.7,14.1c-0.2,0-0.4-0.1-0.5-0.3l-8.4-12C12.6,1.6,12.7,1.2,13,1s0.6-0.1,0.8,0.1l8.4,12
				c0.1,0.1,0.1,0.3,0.1,0.5S22.2,13.9,22,14C22,14.1,21.9,14.1,21.7,14.1z"/>
			<path class="st1" d="M5.3,14.1c-0.1,0-0.2,0-0.3-0.1c-0.3-0.2-0.4-0.6-0.2-0.8l8.1-12C13,1,13.2,0.9,13.5,0.9S13.9,1,14,1.2
				s0.1,0.4,0,0.6l-8.1,12C5.7,14,5.5,14.1,5.3,14.1z"/>
			<path class="st0" d="M26.2,14.1H0.8c-0.3,0-0.6-0.3-0.6-0.6s0.3-0.6,0.6-0.6h25.4c0.3,0,0.6,0.3,0.6,0.6S26.5,14.1,26.2,14.1
				L26.2,14.1z"/>
			<path class="st0" d="M26.3,6H0.7C0.4,6,0.1,5.7,0.1,5.4c0-0.3,0.3-0.6,0.6-0.6h25.6c0.3,0,0.6,0.3,0.6,0.6
				C26.9,5.7,26.6,6,26.3,6z"/>
			<path class="st0" d="M21.7,6c-0.1,0-0.2,0-0.3-0.1L13,2c-0.3-0.1-0.4-0.5-0.3-0.8C12.9,1,13.3,0.8,13.6,1L22,4.8
				c0.3,0.1,0.4,0.4,0.3,0.7C22.3,5.8,22,6,21.7,6L21.7,6z"/>
			<path class="st0" d="M5.3,6C5,6,4.7,5.8,4.7,5.5C4.6,5.2,4.8,5,5,4.8L13.1,1c0.3-0.1,0.7,0,0.8,0.3s0,0.7-0.3,0.8L5.5,5.9
				C5.5,6,5.4,6,5.3,6L5.3,6z"/>
			<path class="st0" d="M13.7,18.1c-0.1,0-0.2,0-0.3-0.1L5,14.2c-0.2-0.1-0.3-0.3-0.4-0.5c0-0.2,0.1-0.4,0.3-0.6
				c0.2-0.1,0.4-0.1,0.6,0L14,17c0.3,0.1,0.4,0.4,0.3,0.7C14.2,17.9,14,18.1,13.7,18.1L13.7,18.1z"/>
			<path class="st0" d="M13.7,18.1c-0.3,0-0.5-0.2-0.6-0.5s0.1-0.6,0.3-0.7l8.1-3.9c0.3-0.1,0.7,0,0.8,0.3s0,0.7-0.3,0.8l-8,4
				C13.9,18.1,13.8,18.1,13.7,18.1L13.7,18.1z"/>
			<circle id="Oval" class="st2" cx="5.3" cy="5.4" r="1.5"/>
			<circle class="st1" cx="10.7" cy="5.4" r="1.5"/>
			<circle class="st1" cx="16" cy="5.4" r="1.5"/>
			<circle class="st2" cx="13.3" cy="1.5" r="1.5"/>
			<circle class="st0" cx="8" cy="9.4" r="1.5"/>
			<circle class="st3" cx="13.4" cy="9.4" r="1.5"/>
			<circle class="st0" cx="19" cy="9.4" r="1.5"/>
			<circle class="st4" cx="13.5" cy="17.4" r="1.5"/>
			<circle class="st3" cx="21.7" cy="5.4" r="1.5"/>
			<circle class="st2" cx="5.3" cy="13.5" r="1.5"/>
			<circle class="st1" cx="10.8" cy="13.5" r="1.5"/>
			<circle class="st1" cx="16.1" cy="13.5" r="1.5"/>
			<circle class="st2" cx="21.7" cy="13.5" r="1.5"/>
		</g>
	</g>
</g>
</svg>
