<?xml version="1.0" encoding="utf-8"?>
<!-- Generator: Adobe Illustrator 23.0.4, SVG Export Plug-In . SVG Version: 6.00 Build 0)  -->
<svg version="1.1" id="Layer_1" xmlns="http://www.w3.org/2000/svg" xmlns:xlink="http://www.w3.org/1999/xlink" x="0px" y="0px"
	 viewBox="0 0 43 44" style="enable-background:new 0 0 43 44;" xml:space="preserve">
<style type="text/css">
	.st0{opacity:6.000000e-02;fill-rule:evenodd;clip-rule:evenodd;fill:#00A3FF;enable-background:new    ;}
	.st1{fill:none;stroke:#15CCCC;stroke-linecap:round;stroke-miterlimit:10;}
	.st2{fill:none;stroke:#00A3FF;stroke-linecap:round;stroke-miterlimit:10;}
	.st3{fill:#00A3FF;}
	.st4{fill:#15CCCC;}
	.st5{fill:#0080FF;}
	.st6{fill:#0092F4;}
	.st7{fill:#00A1EA;}
</style>
<g id="background">
	<circle id="Oval-2-Copy" class="st0" cx="21.5" cy="22.1" r="21.5"/>
</g>
<title>Group 4</title>
<desc>Created with Sketch.</desc>
<g>
	<path class="st1" d="M22,28c0.5,0,5.1,0,5.1,0h2.6c1.5,0,2-1,2.6-2.6c0.5-1.6,0.5-3.1,0-5.2c-0.4-1.5-1.1-2.6-2.6-2.6h-2.6"/>
	<path class="st2" d="M22,17.6c-0.5,0-5.1,0-5.1,0H15c-1.5,0-2.8,0.9-3.2,2.6c-0.5,1.9-0.5,3.2,0,5.2c0.4,1.5,1.2,2.6,2.7,2.6h2.4
		 M27.1,19v-4c0-1.4-1.2-2.4-2.6-2.6c-0.9-0.2-1.8-0.2-2.6-0.2c-0.9,0-1.7,0.1-2.4,0.2c-2.2,0.4-2.6,1.2-2.6,2.6v1.9"/>
	<path class="st1" d="M16.9,26.5v4c0,1.4,1.2,2.2,2.6,2.6c1.6,0.5,3.2,0.6,5.1,0c1.3-0.4,2.6-1.1,2.6-2.6v-1.9"/>
</g>
<path class="st3" d="M19.1,15.7c-0.5,0-1-0.4-1-1c0-0.5,0.4-1,1-1c0.5,0,1,0.4,1,1C20.1,15.2,19.7,15.7,19.1,15.7z"/>
<path class="st4" d="M24.9,29.9c0.5,0,1,0.4,1,1c0,0.5-0.4,1-1,1c-0.5,0-1-0.4-1-1C23.9,30.3,24.4,29.9,24.9,29.9z"/>
<path id="Fill-6_23_" class="st5" d="M16.9,21.2c-0.9,0-1.6,0.7-1.6,1.6c0,0.9,0.7,1.6,1.6,1.6c0.9,0,1.6-0.7,1.6-1.6
	C18.5,21.9,17.8,21.2,16.9,21.2L16.9,21.2z"/>
<path id="Fill-12_23_" class="st6" d="M21.3,22v1.7c0,0,0,0.1,0,0.1c0,0.4,0.4,0.7,0.8,0.7c0.4,0,0.7-0.4,0.7-0.8V22
	c0-0.4-0.3-0.8-0.8-0.8C21.7,21.2,21.3,21.6,21.3,22"/>
<path id="Fill-9_9_" class="st7" d="M27.2,21.2c-0.9,0-1.6,0.7-1.6,1.6c0,0.9,0.7,1.6,1.6,1.6h0c0.9,0,1.6-0.7,1.6-1.6
	C28.8,21.9,28.1,21.2,27.2,21.2L27.2,21.2z"/>
</svg>
