<?xml version="1.0" encoding="utf-8"?>
<!-- Generator: Adobe Illustrator 23.0.4, SVG Export Plug-In . SVG Version: 6.00 Build 0)  -->
<svg version="1.1" id="Layer_1" xmlns="http://www.w3.org/2000/svg" xmlns:xlink="http://www.w3.org/1999/xlink" x="0px" y="0px"
	 viewBox="0 0 39 19" style="enable-background:new 0 0 39 19;" xml:space="preserve">
<style type="text/css">
	.st0{fill:#8FCEFC;}
	.st1{fill-rule:evenodd;clip-rule:evenodd;fill:#8FCEFC;}
	.st2{fill-rule:evenodd;clip-rule:evenodd;fill:#598DB7;}
</style>
<g>
	<path id="Path_5_" class="st0" d="M17.6,10.3l-6.2,0.1c-0.3,0-0.6-0.3-0.6-0.6c0-0.3,0.3-0.6,0.6-0.6l0,0l6.2-0.1
		c0.3,0,0.6,0.3,0.6,0.6C18.2,10,17.9,10.3,17.6,10.3z"/>
	<path class="st1" d="M23,14.2c0.5,0,0.9-0.3,1.1-0.7h0l4.7-11.8l0,0c0.1-0.1,0.1-0.3,0.1-0.4c0-0.7-0.5-1.2-1.2-1.2
		c-0.5,0-0.9,0.3-1.1,0.7l0,0L22,12.5v0c0,0-0.1,0-0.1,0.5C21.9,13.6,22.4,14.2,23,14.2z"/>
	<path class="st1" d="M14.8,13c-0.7,0-1.2,0.5-1.2,1.2c0,0.7,0.5,1.2,1.2,1.2h3.5c0.7,0,1.2-0.5,1.2-1.2c0-0.7-0.5-1.2-1.2-1.2H14.8
		z"/>
	<path class="st2" d="M26.6,13.7v2.9H12.4v-5.9h7.8l0.9-2.4h-9.9c-0.7,0-1.2,0.5-1.2,1.2v8.3c0,0.7,0.5,1.2,1.2,1.2h16.5
		c0.7,0,1.2-0.5,1.2-1.2V9.4c0-0.3-0.1-0.6-0.3-0.8L26.6,13.7z"/>
</g>
</svg>
