<?xml version="1.0" encoding="utf-8"?>
<!-- Generator: Adobe Illustrator 24.0.1, SVG Export Plug-In . SVG Version: 6.00 Build 0)  -->
<svg version="1.1" id="Layer_1" xmlns="http://www.w3.org/2000/svg" xmlns:xlink="http://www.w3.org/1999/xlink" x="0px" y="0px"
	 viewBox="0 0 37 22" style="enable-background:new 0 0 37 22;" xml:space="preserve">
<style type="text/css">
	.st0{fill-rule:evenodd;clip-rule:evenodd;fill:#6D92CC;}
	.st1{fill:#22E0B6;}
</style>
<g>
	<rect x="7.6" y="4.1" class="st0" width="2.9" height="13.1"/>
	<rect x="17" y="14.6" class="st0" width="2.9" height="2.6"/>
	<rect x="17" y="3" class="st0" width="2.9" height="4"/>
	
		<rect x="17.1" y="4.6" transform="matrix(-1.836970e-16 1 -1 -1.836970e-16 36.6814 -0.3186)" class="st0" width="2.9" height="27.1"/>
	<rect x="26.7" y="4.1" class="st0" width="2.9" height="13.1"/>
	<polygon class="st0" points="5.4,4.9 18.6,0.5 31.6,4.6 31.6,8.6 18.5,4.5 5.4,8.6 	"/>
	<g>
		<circle class="st1" cx="13.8" cy="11" r="1.5"/>
		<circle class="st1" cx="23.2" cy="11" r="1.5"/>
		<path class="st1" d="M18.5,9.5c-0.4,0-0.7,0.3-0.7,0.7l0,1.7c0,0.3,0.3,0.7,0.7,0.7s0.7-0.4,0.7-0.7l0-1.7
			C19.2,9.9,19,9.5,18.5,9.5z"/>
	</g>
</g>
<polygon class="st1" points="31.6,10.6 35.2,12.7 31.6,14.7 "/>
<polygon class="st1" points="5.7,10.6 2.2,12.7 5.7,14.7 "/>
</svg>
