<?xml version="1.0" encoding="UTF-8"?>
<svg width="48px" height="48px" viewBox="0 0 48 48" version="1.1" xmlns="http://www.w3.org/2000/svg" xmlns:xlink="http://www.w3.org/1999/xlink">
    <!-- Generator: Sketch 48.2 (47327) - http://www.bohemiancoding.com/sketch -->
    <title>Group 9</title>
    <desc>Created with Sketch.</desc>
    <defs></defs>
    <g id="docs.imanda-copy-2" stroke="none" stroke-width="1" fill="none" fill-rule="evenodd" transform="translate(-226.000000, -548.000000)">
        <g id="Group-9" transform="translate(226.000000, 548.000000)">
            <path d="M23.7401499,47.6147583 C36.8514726,47.6147583 47.4802997,36.9859312 47.4802997,23.8746084 C47.4802997,10.7632857 36.8514726,0.134458598 23.7401499,0.134458598 C10.6288271,0.134458598 0,10.7632857 0,23.8746084 C0,36.9859312 10.6288271,47.6147583 23.7401499,47.6147583 Z" id="Base" fill="#009BE7"></path>
            <g id="Group-6-Copy-3" transform="translate(11.870075, 12.270126)" fill="#FFFFFF">
                <polygon id="Fill-27-Copy-4" points="15.960152 0.169118293 8.52254195 10.8916272 5.57664085 6.69878683 1.59840227 6.69878683 8.07537559 15.5003502 8.80934519 15.5003502 16.5985205 5.09864313 16.5985205 19.5331762 14.0450464 19.5331762 14.0450464 22.5734492 22.5674203 22.5734492 22.5674203 19.5331762 19.9175742 19.5331762 19.9175742 3.2743247 22.5998013 3.2743247 22.5998013 0.169118293"></polygon>
                <path d="M4.29790866,0.169118293 C3.27636484,0.169118293 2.31958304,0.840869443 2.31958304,2.12098441 L2.31958304,2.12098441 C2.31958304,3.43433907 3.27636484,4.13623786 4.29790866,4.13623786 L4.29790866,4.13623786 C5.32022346,4.13623786 6.27777624,3.43433907 6.27777624,2.18437174 L6.27777624,2.18437174 C6.27777624,0.873336127 5.32022346,0.169118293 4.29790866,0.169118293 L4.29790866,0.169118293 Z M0.276495395,6.72970749 L0.276495395,9.51411214 L2.67037733,9.51411214 L2.67037733,19.7550319 L0.212504348,19.7550319 L0.212504348,22.6043699 L8.16050078,22.6043699 L8.16050078,19.7550319 L5.83060988,19.7550319 L5.83060988,6.72970749 L0.276495395,6.72970749 Z" id="Fill-29-Copy-4"></path>
            </g>
        </g>
    </g>
</svg>