<?xml version="1.0" encoding="utf-8"?>
<!-- Generator: Adobe Illustrator 25.2.3, SVG Export Plug-In . SVG Version: 6.00 Build 0)  -->
<svg version="1.1" id="Layer_1" xmlns="http://www.w3.org/2000/svg" xmlns:xlink="http://www.w3.org/1999/xlink" x="0px" y="0px"
	 viewBox="0 0 43 44" style="enable-background:new 0 0 43 44;" xml:space="preserve">
<style type="text/css">
	.st0{opacity:0.8;fill:url(#SVGID_1_);}
	.st1{opacity:0.8;fill:url(#SVGID_2_);}
	.st2{opacity:0.8;fill:url(#SVGID_3_);}
	.st3{fill-rule:evenodd;clip-rule:evenodd;fill:url(#SVGID_4_);}
	.st4{opacity:0.8;fill:url(#SVGID_5_);}
	.st5{opacity:0.8;fill:url(#SVGID_6_);}
	.st6{opacity:0.8;fill:url(#SVGID_7_);}
	.st7{opacity:0.8;fill:url(#SVGID_8_);}
	.st8{opacity:0.8;fill:url(#SVGID_9_);}
	.st9{opacity:0.8;fill:url(#SVGID_10_);}
	.st10{opacity:0.8;fill-rule:evenodd;clip-rule:evenodd;fill:url(#Fill-5_1_);}
</style>
<linearGradient id="SVGID_1_" gradientUnits="userSpaceOnUse" x1="3418.6865" y1="225.3786" x2="3448.1738" y2="195.8914" gradientTransform="matrix(0 1 -1 0 230.2137 -3410.0991)">
	<stop  offset="0" style="stop-color:#0088FF"/>
	<stop  offset="1" style="stop-color:#00F0B4"/>
</linearGradient>
<path class="st0" d="M32.4,6.6V39c0,2.2-1.8,4-4,4H9.8c-2.2,0-4-1.8-4-4V6.6c0-2.2,1.8-4,4-4h18.6C30.6,2.7,32.4,4.4,32.4,6.6z"/>
<linearGradient id="SVGID_2_" gradientUnits="userSpaceOnUse" x1="3417.4114" y1="223.9848" x2="3446.8987" y2="194.4976" gradientTransform="matrix(0 1 -1 0 230.2137 -3410.0991)">
	<stop  offset="0" style="stop-color:#7656F0"/>
	<stop  offset="1" style="stop-color:#0088FF"/>
</linearGradient>
<path class="st1" d="M33.7,5.4v32.4c0,2.2-1.8,4-4,4H11.2c-2.2,0-4-1.8-4-4V5.4c0-2.2,1.8-4,4-4h18.6C32,1.4,33.7,3.2,33.7,5.4z"/>
<linearGradient id="SVGID_3_" gradientUnits="userSpaceOnUse" x1="-1.3354" y1="19.1391" x2="14.1191" y2="6.3492">
	<stop  offset="0" style="stop-color:#0088FF"/>
	<stop  offset="1" style="stop-color:#00F0B4"/>
</linearGradient>
<path class="st2" d="M15.4,16.3L3.1,23.4c-1.2,0.7-2.8-0.2-2.8-1.6V7.6c0-1.4,1.6-2.3,2.8-1.6l12.3,7.1
	C16.6,13.8,16.6,15.6,15.4,16.3z"/>
<linearGradient id="SVGID_4_" gradientUnits="userSpaceOnUse" x1="10.8258" y1="14.6987" x2="4.72" y2="14.6987">
	<stop  offset="5.339492e-03" style="stop-color:#78FF80"/>
	<stop  offset="1" style="stop-color:#F0E566"/>
</linearGradient>
<path class="st3" d="M7.6,11.4c-1.8,0-3.2,1.5-3.2,3.3c0,1.8,1.5,3.3,3.3,3.3c1.8,0,3.3-1.5,3.3-3.3C10.9,12.9,9.5,11.4,7.6,11.4
	L7.6,11.4z"/>
<linearGradient id="SVGID_5_" gradientUnits="userSpaceOnUse" x1="-1178.2178" y1="326.7232" x2="-1160.0018" y2="326.7232" gradientTransform="matrix(0.3888 -0.9213 0.9213 0.3888 187.1385 -1189.4568)">
	<stop  offset="0" style="stop-color:#F0567E"/>
	<stop  offset="1" style="stop-color:#9C56AA"/>
</linearGradient>
<path class="st4" d="M24.3,16c0,0.1,0.1,0.3,0.3,0.3l2.2,0.3c0.2,0.6,0.4,1.1,0.7,1.6L26.1,20c-0.1,0.1-0.1,0.3,0,0.4
	c0.5,0.7,1.1,1.3,1.8,1.8c0.1,0.1,0.3,0.1,0.4,0l1.8-1.4c0.5,0.3,1,0.5,1.6,0.7l0.3,2.2c0,0.1,0.1,0.3,0.3,0.3
	c0.9,0.1,1.7,0.1,2.6,0c0.1,0,0.3-0.1,0.3-0.3l0.3-2.2c0.6-0.2,1.1-0.4,1.6-0.7l1.8,1.4c0.1,0.1,0.3,0.1,0.4,0
	c0.7-0.5,1.3-1.1,1.8-1.8c0.1-0.1,0.1-0.3,0-0.4l-1.4-1.8c0.3-0.5,0.5-1,0.7-1.6l2.2-0.3c0.1,0,0.3-0.1,0.3-0.3
	c0.1-0.9,0.1-1.7,0-2.6c0-0.1-0.1-0.3-0.3-0.3l-2.2-0.3c-0.2-0.6-0.4-1.1-0.7-1.6l1.4-1.8c0.1-0.1,0.1-0.3,0-0.4
	c-0.5-0.7-1.2-1.3-1.8-1.8c-0.1-0.1-0.3-0.1-0.4,0l-1.8,1.4c-0.5-0.3-1.1-0.5-1.6-0.7l-0.3-2.2c0-0.1-0.1-0.3-0.3-0.3
	c-0.4-0.1-0.9-0.1-1.3-0.1c-0.4,0-0.9,0-1.3,0.1c-0.1,0-0.3,0.1-0.3,0.3l-0.3,2.2c-0.6,0.2-1.1,0.4-1.6,0.7l-1.8-1.4
	c-0.1-0.1-0.3-0.1-0.4,0c-0.7,0.5-1.3,1.1-1.8,1.8c-0.1,0.1-0.1,0.3,0,0.4l1.4,1.8c-0.3,0.5-0.5,1-0.7,1.6l-2.2,0.3
	c-0.1,0-0.3,0.1-0.3,0.3C24.1,14.3,24.1,15.1,24.3,16z M33.6,11.7c1.7,0,3,1.4,3,3c0,1.7-1.4,3-3,3c-1.7,0-3-1.4-3-3
	C30.5,13,31.9,11.7,33.6,11.7z"/>
<linearGradient id="SVGID_6_" gradientUnits="userSpaceOnUse" x1="11.7511" y1="27.1837" x2="30.0711" y2="27.1837">
	<stop  offset="5.339492e-03" style="stop-color:#78FF80"/>
	<stop  offset="1" style="stop-color:#F0E566"/>
</linearGradient>
<path class="st5" d="M29.3,27.9H12.5c-0.4,0-0.7-0.3-0.7-0.7v0c0-0.4,0.3-0.7,0.7-0.7h16.9c0.4,0,0.7,0.3,0.7,0.7v0
	C30.1,27.6,29.7,27.9,29.3,27.9z"/>
<linearGradient id="SVGID_7_" gradientUnits="userSpaceOnUse" x1="11.7511" y1="29.4856" x2="30.0711" y2="29.4856">
	<stop  offset="5.339492e-03" style="stop-color:#78FF80"/>
	<stop  offset="1" style="stop-color:#F0E566"/>
</linearGradient>
<path class="st6" d="M29.3,30.2H12.5c-0.4,0-0.7-0.3-0.7-0.7v0c0-0.4,0.3-0.7,0.7-0.7h16.9c0.4,0,0.7,0.3,0.7,0.7v0
	C30.1,29.9,29.7,30.2,29.3,30.2z"/>
<linearGradient id="SVGID_8_" gradientUnits="userSpaceOnUse" x1="11.7511" y1="31.7874" x2="30.0711" y2="31.7874">
	<stop  offset="5.339492e-03" style="stop-color:#78FF80"/>
	<stop  offset="1" style="stop-color:#F0E566"/>
</linearGradient>
<path class="st7" d="M29.3,32.5H12.5c-0.4,0-0.7-0.3-0.7-0.7v0c0-0.4,0.3-0.7,0.7-0.7h16.9c0.4,0,0.7,0.3,0.7,0.7v0
	C30.1,32.2,29.7,32.5,29.3,32.5z"/>
<linearGradient id="SVGID_9_" gradientUnits="userSpaceOnUse" x1="11.7511" y1="34.0893" x2="30.0711" y2="34.0893">
	<stop  offset="5.339492e-03" style="stop-color:#78FF80"/>
	<stop  offset="1" style="stop-color:#F0E566"/>
</linearGradient>
<path class="st8" d="M29.3,34.8H12.5c-0.4,0-0.7-0.3-0.7-0.7l0,0c0-0.4,0.3-0.7,0.7-0.7h16.9c0.4,0,0.7,0.3,0.7,0.7l0,0
	C30.1,34.5,29.7,34.8,29.3,34.8z"/>
<linearGradient id="SVGID_10_" gradientUnits="userSpaceOnUse" x1="11.7511" y1="36.3911" x2="20.9696" y2="36.3911">
	<stop  offset="5.339492e-03" style="stop-color:#78FF80"/>
	<stop  offset="1" style="stop-color:#F0E566"/>
</linearGradient>
<path class="st9" d="M20.2,37.1h-7.8c-0.4,0-0.7-0.3-0.7-0.7l0,0c0-0.4,0.3-0.7,0.7-0.7h7.8c0.4,0,0.7,0.3,0.7,0.7l0,0
	C21,36.8,20.6,37.1,20.2,37.1z"/>
<linearGradient id="Fill-5_1_" gradientUnits="userSpaceOnUse" x1="20.3264" y1="10.5659" x2="20.3264" y2="19.5269">
	<stop  offset="0" style="stop-color:#F0AA3D"/>
	<stop  offset="1" style="stop-color:#F0567E"/>
</linearGradient>
<path id="Fill-5_9_" class="st10" d="M20.3,10.3c1.1,0,1.9,0.8,1.9,1.9v5.6c0,1.1-0.8,1.9-1.9,1.9c-1.1,0-1.9-0.8-1.9-1.9v-5.6
	C18.5,11.1,19.3,10.3,20.3,10.3"/>
</svg>
