<?xml version="1.0" encoding="UTF-8"?>
<svg width="45px" height="45px" viewBox="0 0 45 45" version="1.1" xmlns="http://www.w3.org/2000/svg" xmlns:xlink="http://www.w3.org/1999/xlink">
    <!-- Generator: Sketch 48.2 (47327) - http://www.bohemiancoding.com/sketch -->
    <title>ipl big copy</title>
    <desc>Created with Sketch.</desc>
    <defs></defs>
    <g id="docs.imanda-copy-2" stroke="none" stroke-width="1" fill="none" fill-rule="evenodd" transform="translate(-576.000000, -684.000000)">
        <g id="Group-3" transform="translate(554.339844, 674.000000)" fill="#27D7CD">
            <g id="ipl-big-copy" transform="translate(22.500000, 10.375000)">
                <path d="M9.8198005,17.8621869 C10.5173786,17.8621869 11.0828963,17.298999 11.0828963,16.6041185 C11.0828963,15.9094832 10.5173786,15.3462953 9.8198005,15.3462953 C9.12222239,15.3462953 8.55670469,15.9094832 8.55670469,16.6041185 C8.55670469,17.298999 9.12222239,17.8621869 9.8198005,17.8621869" id="Fill-1"></path>
                <path d="M17.8999474,17.8621869 C18.5975255,17.8621869 19.1630432,17.298999 19.1630432,16.6041185 C19.1630432,15.9094832 18.5975255,15.3462953 17.8999474,15.3462953 C17.2023693,15.3462953 16.636729,15.9094832 16.636729,16.6041185 C16.636729,17.298999 17.2023693,17.8621869 17.8999474,17.8621869" id="Fill-3"></path>
                <path d="M13.8377229,15.1303269 C14.163153,15.1303269 14.4271512,15.3942024 14.4271512,15.7198779 L14.4271512,17.4886534 C14.4271512,17.8142062 14.163153,18.0780818 13.8377229,18.0780818 C13.5121701,18.0780818 13.2482945,17.8142062 13.2482945,17.4886534 L13.2482945,15.7198779 C13.2482945,15.3942024 13.5121701,15.1303269 13.8377229,15.1303269" id="Fill-5"></path>
                <path d="M21.9786887,3.75157604 L21.9714542,3.75157604 L21.8523913,3.7513308 C20.8366176,3.7513308 20.01311,2.92782323 20.01311,1.91204945 C20.01311,0.89627567 20.8366176,0.0727681011 21.8523913,0.0727681011 L21.9856779,0.0730133386 C23.0014517,0.0769371388 23.8217712,0.903510177 23.8178474,1.91940658 C23.8139236,2.93272798 22.9912744,3.75157604 21.9786887,3.75157604 Z" id="Fill-7"></path>
                <path d="M9.04805031,8.38889479 C8.52078966,8.38889479 7.99757542,8.16352152 7.63376557,7.7267535 C6.98364092,6.9461625 7.08946091,5.7864343 7.8699293,5.13630965 C9.81969014,3.5127147 12.0230266,2.24998674 14.4189971,1.38331737 C15.3745651,1.03777772 16.4285959,1.5319313 16.7742582,2.48713142 C17.1197978,3.44245415 16.6255216,4.49685284 15.6703215,4.84239249 C13.677031,5.56339078 11.8447389,6.6133752 10.2242094,7.96303985 C9.88038643,8.24935465 9.46299218,8.38889479 9.04805031,8.38889479 Z" id="Path"></path>
                <path d="M34.7580155,8.45277916 C34.3407438,8.45277916 33.9213877,8.31164497 33.576829,8.02250995 C32.7648476,7.34124013 31.8838318,6.72508088 30.9585507,6.19083096 C30.0577933,5.67055958 29.1104408,5.22582135 28.1431014,4.86875553 C27.1902311,4.51696231 26.7028215,3.45925292 27.0546147,2.50638256 C27.4064079,1.55326697 28.4644852,1.0664705 29.4169877,1.41777324 C30.5795361,1.84693889 31.7170703,2.38094357 32.7979547,3.00507305 C33.9080223,3.64612391 34.965609,4.38600548 35.9410412,5.20448568 C36.7193025,5.85730794 36.8209534,7.017404 36.1680086,7.79554263 C35.8041987,8.22924517 35.2829464,8.45277916 34.7580155,8.45277916 Z" id="Path"></path>
                <path d="M4.5182682,13.7762725 C4.20632609,13.7762725 3.89021493,13.6968155 3.60071205,13.5298088 C2.72337485,13.0236386 2.42087437,11.9037614 2.92238509,11.0250754 L2.99558848,10.8989007 C3.50838012,10.022054 4.63500126,9.72666542 5.51172537,10.2397023 C6.3885721,10.7526166 6.68383806,11.8791151 6.1709238,12.7559618 L6.11304775,12.8557735 C5.77253546,13.4460602 5.15392384,13.7762725 4.5182682,13.7762725 Z" id="Path"></path>
                <path d="M39.265481,13.8587949 C38.624798,13.8587949 38.0022625,13.52331 37.6637121,12.926034 L37.6079206,12.8285521 C37.1001563,11.9487625 37.4017985,10.8239807 38.2817107,10.3162164 C39.1611324,9.80857475 40.2861595,10.1099717 40.7940464,10.9900065 L40.8640617,11.1121348 C41.3649593,11.9958481 41.0544886,13.1184228 40.1707752,13.6193205 C39.8843378,13.7816677 39.5727636,13.8587949 39.265481,13.8587949 Z" id="Path"></path>
                <path d="M2.13112625,27.1812002 C1.2528081,27.1812002 0.475650419,26.5500814 0.320905548,25.6550871 C0.108039386,24.4239948 1.22618757e-05,23.1675204 1.22618757e-05,21.9206103 C1.22618757e-05,20.6443943 0.113189374,19.3613116 0.336355511,18.1070443 C0.514275327,17.1069658 1.4692302,16.4400423 2.4694314,16.6185753 C3.46950998,16.7964951 4.13594292,17.7514499 3.95790049,18.7515285 C3.77250093,19.7935427 3.67857496,20.8597128 3.67857496,21.9206103 C3.67857496,22.957965 3.76833189,24.0035351 3.94563861,25.0281374 C4.1187763,26.0290743 3.44768384,26.9808411 2.44674693,27.1538562 C2.34080432,27.172249 2.23510696,27.1812002 2.13112625,27.1812002 Z" id="Path"></path>
                <path d="M41.5895969,27.2779464 C41.4827959,27.2779464 41.3748914,27.2686274 41.2662512,27.2493762 C40.26605,27.0720695 39.599004,26.1173599 39.7763107,25.1171587 C39.9606067,24.0782099 40.0540422,23.0152279 40.0540422,21.9578864 C40.0539196,20.9168531 39.9635495,19.8679723 39.7852619,18.8403045 C39.6116337,17.8394902 40.2821131,16.8873556 41.2831726,16.7137274 C42.2846,16.5403445 43.2359989,17.2107012 43.4096271,18.2115155 C43.623842,19.4460412 43.7324823,20.7063167 43.7326049,21.9576412 C43.7326049,23.230056 43.6201635,24.5090922 43.3984688,25.7594357 C43.2402906,26.6511193 42.4644817,27.2779464 41.5895969,27.2779464 Z" id="Path"></path>
                <path d="M4.52795509,33.7991797 C3.89217683,33.7991797 3.27381044,33.4689674 2.93317554,32.8788033 L2.86450903,32.7587596 C2.36226261,31.8757819 2.67113925,30.7529619 3.55423954,30.2508381 C4.43684935,29.7487143 5.5602824,30.0574684 6.06216097,30.9405686 L6.11930131,31.0402577 C6.62706558,31.9201699 6.32542344,33.0448291 5.44551124,33.5525934 C5.15600836,33.7196001 4.8398972,33.7991797 4.52795509,33.7991797 Z" id="Path"></path>
                <path d="M39.1423717,33.8997271 C38.8271189,33.8997271 38.5079423,33.8187987 38.2162323,33.6483586 C37.3391403,33.1360575 37.0433839,32.009559 37.5558076,31.132467 L37.6250872,31.0130363 C38.1324837,30.1331241 39.2575107,29.8312368 40.1374229,30.339001 C41.0173351,30.8467653 41.3190999,31.9715471 40.8114582,32.8513367 L40.7321239,32.9880566 C40.3901402,33.573316 39.774594,33.8997271 39.1423717,33.8997271 Z" id="Path"></path>
                <path d="M14.9420887,42.5709577 C14.7302035,42.5709577 14.514885,42.5340495 14.3044712,42.4563092 C13.1462144,42.0280018 12.0124814,41.4952234 10.9347851,40.8730558 C9.82054848,40.2296752 8.75989623,39.4872186 7.78250212,38.6657955 C7.00473135,38.0124828 6.90393873,36.8522641 7.55737409,36.0744934 C8.21044158,35.2966 9.37078288,35.19593 10.1485536,35.8494879 C10.9621291,36.5328423 11.8454746,37.1512087 12.7741891,37.6874205 C13.6722489,38.2059752 14.6164133,38.6496099 15.5801967,39.0060626 C16.5330671,39.3584689 17.0198635,40.4164235 16.6675798,41.3690487 C16.3929138,42.1115052 15.6899405,42.5709577 14.9420887,42.5709577 Z" id="Path"></path>
                <path d="M28.678087,42.6088469 C27.9249626,42.6088469 27.218556,42.1428956 26.9479364,41.3938176 C26.6030098,40.4383723 27.0977765,39.3842188 28.0530992,39.039047 C30.0468802,38.3190297 31.8797854,37.2701489 33.5010506,35.9214652 C34.2817642,35.2719536 35.441615,35.3783867 36.0912492,36.1592229 C36.7408834,36.9401818 36.6344503,38.0997874 35.8534914,38.7494215 C33.9031175,40.3719129 31.6990454,41.6334147 29.302707,42.4989805 C29.0964622,42.5734101 28.8854354,42.6088469 28.678087,42.6088469 Z" id="Path"></path>
                <path d="M21.8694354,43.8053607 L21.7372523,43.8051155 C20.7214786,43.8016822 19.9006686,42.9753544 19.9042245,41.9595806 C19.9076579,40.9458913 20.7303071,40.1265528 21.743138,40.1265528 L21.7496368,40.1265528 L21.8694354,40.126798 C22.8853318,40.126798 23.7087167,40.9503056 23.7087167,41.9660794 C23.7087167,42.9818532 22.8853318,43.8053607 21.8694354,43.8053607 Z" id="Path"></path>
                <path d="M33.5232936,24.1812465 C33.5232936,23.695431 33.1304231,23.3026831 32.6448529,23.3026831 L9.43508415,23.3026831 C8.9496365,23.3026831 8.556766,23.695431 8.556766,24.1812465 C8.556766,24.6669394 8.9496365,25.0601777 9.43508415,25.0601777 L32.6448529,25.0601777 C33.1304231,25.0601777 33.5232936,24.6669394 33.5232936,24.1812465" id="Fill-10"></path>
                <path d="M32.649635,15.4034724 L22.9436247,15.4034724 C22.2802572,15.4034724 21.7431871,15.9401747 21.7431871,16.6039101 C21.7431871,17.2676454 22.2802572,17.8050834 22.9436247,17.8050834 L32.649635,17.8050834 C33.3130025,17.8050834 33.84995,17.2676454 33.84995,16.6039101 C33.84995,15.9401747 33.3130025,15.4034724 32.649635,15.4034724" id="Fill-12"></path>
                <path d="M26.0795994,19.7672165 L22.5658363,19.7672165 C22.080266,19.7672165 21.6873955,20.160087 21.6873955,20.6457799 C21.6873955,21.1315954 22.080266,21.5248337 22.5658363,21.5248337 L26.0795994,21.5248337 C26.5650471,21.5248337 26.9579176,21.1315954 26.9579176,20.6457799 C26.9579176,20.160087 26.5650471,19.7672165 26.0795994,19.7672165" id="Fill-14"></path>
                <path d="M12.9488472,19.7672165 L9.43520677,19.7672165 C8.9496365,19.7672165 8.556766,20.160087 8.556766,20.6457799 C8.556766,21.1315954 8.9496365,21.5248337 9.43520677,21.5248337 L12.9488472,21.5248337 C13.4344175,21.5248337 13.827288,21.1315954 13.827288,20.6457799 C13.827288,20.160087 13.4344175,19.7672165 12.9488472,19.7672165" id="Fill-16"></path>
                <path d="M19.5142233,19.7672165 L16.0004602,19.7672165 C15.5150126,19.7672165 15.1220195,20.160087 15.1220195,20.6457799 C15.1220195,21.1315954 15.5150126,21.5248337 16.0004602,21.5248337 L19.5142233,21.5248337 C19.999671,21.5248337 20.3926641,21.1315954 20.3926641,20.6457799 C20.3926641,20.160087 19.999671,19.7672165 19.5142233,19.7672165" id="Fill-18"></path>
                <path d="M32.6448529,19.7672165 L29.1312124,19.7672165 C28.6456421,19.7672165 28.252649,20.160087 28.252649,20.6457799 C28.252649,21.1315954 28.6456421,21.5248337 29.1312124,21.5248337 L32.6448529,21.5248337 C33.1304231,21.5248337 33.5232936,21.1315954 33.5232936,20.6457799 C33.5232936,20.160087 33.1304231,19.7672165 32.6448529,19.7672165" id="Fill-20"></path>
                <path d="M9.97475382,26.8380271 L9.43523129,26.8380271 C8.94966102,26.8380271 8.55679052,27.2307749 8.55679052,27.7165905 C8.55679052,28.2022834 8.94966102,28.5956443 9.43523129,28.5956443 L9.97475382,28.5956443 C10.4602015,28.5956443 10.8531946,28.2022834 10.8531946,27.7165905 C10.8531946,27.2307749 10.4602015,26.8380271 9.97475382,26.8380271" id="Fill-22"></path>
                <path d="M13.2133727,26.8380271 L12.6738502,26.8380271 C12.1882799,26.8380271 11.7952868,27.2307749 11.7952868,27.7165905 C11.7952868,28.2022834 12.1882799,28.5956443 12.6738502,28.5956443 L13.2133727,28.5956443 C13.6988203,28.5956443 14.0916908,28.2022834 14.0916908,27.7165905 C14.0916908,27.2307749 13.6988203,26.8380271 13.2133727,26.8380271" id="Fill-24"></path>
                <path d="M16.4518689,26.8380271 L15.9123464,26.8380271 C15.4268987,26.8380271 15.0339056,27.2307749 15.0339056,27.7165905 C15.0339056,28.2022834 15.4268987,28.5956443 15.9123464,28.5956443 L16.4518689,28.5956443 C16.9374392,28.5956443 17.3303097,28.2022834 17.3303097,27.7165905 C17.3303097,27.2307749 16.9374392,26.8380271 16.4518689,26.8380271" id="Fill-26"></path>
                <path d="M19.6904878,26.8380271 L19.1509653,26.8380271 C18.6655176,26.8380271 18.2725245,27.2307749 18.2725245,27.7165905 C18.2725245,28.2022834 18.6655176,28.5956443 19.1509653,28.5956443 L19.6904878,28.5956443 C20.1760581,28.5956443 20.5689286,28.2022834 20.5689286,27.7165905 C20.5689286,27.2307749 20.1760581,26.8380271 19.6904878,26.8380271" id="Fill-28"></path>
                <path d="M22.9291066,26.8380271 L22.3895841,26.8380271 C21.9040138,26.8380271 21.5110207,27.2307749 21.5110207,27.7165905 C21.5110207,28.2022834 21.9040138,28.5956443 22.3895841,28.5956443 L22.9291066,28.5956443 C23.4145543,28.5956443 23.8075474,28.2022834 23.8075474,27.7165905 C23.8075474,27.2307749 23.4145543,26.8380271 22.9291066,26.8380271" id="Fill-30"></path>
                <path d="M26.1677255,26.8380271 L25.628203,26.8380271 C25.1426327,26.8380271 24.7496396,27.2307749 24.7496396,27.7165905 C24.7496396,28.2022834 25.1426327,28.5956443 25.628203,28.5956443 L26.1677255,28.5956443 C26.6531732,28.5956443 27.0460437,28.2022834 27.0460437,27.7165905 C27.0460437,27.2307749 26.6531732,26.8380271 26.1677255,26.8380271" id="Fill-32"></path>
                <path d="M29.406234,26.8380271 L28.8667115,26.8380271 C28.3812638,26.8380271 27.9882707,27.2307749 27.9882707,27.7165905 C27.9882707,28.2022834 28.3812638,28.5956443 28.8667115,28.5956443 L29.406234,28.5956443 C29.8918043,28.5956443 30.2846748,28.2022834 30.2846748,27.7165905 C30.2846748,27.2307749 29.8918043,26.8380271 29.406234,26.8380271" id="Fill-34"></path>
                <path d="M32.6448529,26.8380271 L32.1053303,26.8380271 C31.6197601,26.8380271 31.2268896,27.2307749 31.2268896,27.7165905 C31.2268896,28.2022834 31.6197601,28.5956443 32.1053303,28.5956443 L32.6448529,28.5956443 C33.1304231,28.5956443 33.5232936,28.2022834 33.5232936,27.7165905 C33.5232936,27.2307749 33.1304231,26.8380271 32.6448529,26.8380271" id="Fill-36"></path>
            </g>
        </g>
    </g>
</svg>