<?xml version="1.0" encoding="utf-8"?>
<!-- Generator: Adobe Illustrator 23.0.4, SVG Export Plug-In . SVG Version: 6.00 Build 0)  -->
<svg version="1.1" id="Layer_1" xmlns="http://www.w3.org/2000/svg" xmlns:xlink="http://www.w3.org/1999/xlink" x="0px" y="0px"
	 viewBox="0 0 37 22" style="enable-background:new 0 0 37 22;" xml:space="preserve">
<style type="text/css">
	.st0{fill:#8FCEFC;}
	.st1{fill:#34EBB9;}
</style>
<title>icon--financial--big</title>
<desc>Created with Sketch.</desc>
<g id="New-Menu">
	<g id="Homepage-Copy-2" transform="translate(-1449.000000, -70.000000)">
		<g id="icon--financial--big" transform="translate(1449.253132, 70.702128)">
			<g id="Group">
				<path id="Path" class="st0" d="M6.6,21.1c-0.3,0-0.6-0.3-0.6-0.6v-2.3c0-0.3,0.3-0.6,0.6-0.6c0.3,0,0.6,0.3,0.6,0.6v2.3
					c0,0.2-0.1,0.3-0.2,0.4C6.9,21.1,6.8,21.1,6.6,21.1L6.6,21.1z"/>
				<path class="st1" d="M9.9,21.1c-0.3,0-0.6-0.3-0.6-0.6V15c0-0.3,0.3-0.6,0.6-0.6c0.3,0,0.6,0.3,0.6,0.6v5.5
					C10.5,20.9,10.3,21.1,9.9,21.1L9.9,21.1z"/>
				<path class="st0" d="M13.2,21.1c-0.3,0-0.6-0.3-0.6-0.6V17c0-0.3,0.3-0.6,0.6-0.6c0.3,0,0.6,0.2,0.6,0.6v3.5
					c0,0.2-0.1,0.3-0.2,0.4C13.6,21.1,13.4,21.1,13.2,21.1L13.2,21.1z"/>
				<path class="st0" d="M16.6,21.1c-0.3,0-0.6-0.3-0.6-0.6V15c0-0.2,0.1-0.4,0.3-0.5c0.2-0.1,0.4-0.1,0.6,0
					c0.2,0.1,0.3,0.3,0.3,0.5v5.5C17.1,20.9,16.9,21.1,16.6,21.1L16.6,21.1z"/>
				<path class="st0" d="M19.9,21.1c-0.2,0-0.3-0.1-0.4-0.2s-0.2-0.3-0.2-0.4V12c0-0.2,0.1-0.4,0.3-0.5c0.2-0.1,0.4-0.1,0.6,0
					c0.2,0.1,0.3,0.3,0.3,0.5v8.5C20.4,20.9,20.2,21.1,19.9,21.1z"/>
				<path class="st1" d="M23.2,21.1c-0.2,0-0.3-0.1-0.4-0.2s-0.2-0.3-0.2-0.4v-12c0-0.3,0.3-0.6,0.6-0.6s0.6,0.2,0.6,0.6v12
					C23.7,20.9,23.5,21.1,23.2,21.1z"/>
				<path class="st1" d="M26.5,21.1c-0.2,0-0.3-0.1-0.4-0.2s-0.2-0.3-0.2-0.4V7.6c0-0.3,0.3-0.6,0.6-0.6c0.3,0,0.6,0.3,0.6,0.6v12.9
					C27.1,20.9,26.8,21.1,26.5,21.1L26.5,21.1z"/>
				<g>
					<path class="st0" d="M1.1,21.2c-0.2,0-0.3,0-0.5-0.1C0.2,21,0,20.7,0.1,20.4s0.4-0.5,0.7-0.4c0.1,0,1.3,0.2,1.8-1.6
						c0.1-0.3,0.4-0.5,0.7-0.4c0.3,0.1,0.5,0.4,0.4,0.7C3.2,20.7,1.9,21.2,1.1,21.2z"/>
					<path id="Shape" class="st0" d="M3.6,15.8L3.6,15.8c-0.3,0-0.6-0.3-0.6-0.6c0.1-4.5,3.2-5.6,4.1-5.8c0.3-0.1,0.6,0.1,0.7,0.4
						c0.1,0.3-0.1,0.6-0.4,0.7c-0.9,0.2-3.1,1.1-3.2,4.7C4.2,15.5,3.9,15.8,3.6,15.8L3.6,15.8z M13.9,12.8c-1.5,0-2.7-0.7-3.8-1.5
						c-0.2-0.1-0.3-0.3-0.3-0.5c0-0.2,0.2-0.4,0.4-0.5c0.2-0.1,0.4-0.1,0.6,0.1c0.9,0.7,2,1.3,3.1,1.3c0.8,0,1.6-0.3,2.5-0.9
						c0.3-0.2,0.6-0.1,0.8,0.1c0.2,0.3,0.1,0.6-0.1,0.8C16.1,12.4,15,12.8,13.9,12.8L13.9,12.8z M19.3,9.4c-0.2,0-0.4-0.1-0.5-0.3
						c-0.1-0.2-0.1-0.4,0.1-0.6l0.2-0.3c1.2-1.5,3.2-3,5.3-4.1c0.3-0.2,0.6,0,0.8,0.2s0,0.6-0.2,0.8c-2,1-3.8,2.5-4.9,3.8
						c-0.1,0.1-0.2,0.2-0.3,0.3C19.6,9.3,19.5,9.4,19.3,9.4L19.3,9.4z"/>
					<path class="st0" d="M27.9,3.8c-0.3,0-0.5-0.2-0.6-0.5s0.1-0.6,0.4-0.6c1.2-0.3,2.4-0.5,3.6-0.6c0.3,0,0.6,0.3,0.6,0.6
						c0,0.3-0.2,0.6-0.5,0.6c-1.1,0-2.2,0.2-3.3,0.5C28,3.8,27.9,3.8,27.9,3.8L27.9,3.8z"/>
					<path class="st0" d="M29.5,5.6l-0.1-0.1c-0.2-0.2-0.2-0.4,0-0.6L31.2,3c0.1-0.1,0.1-0.2,0.1-0.3c0-0.1-0.1-0.2-0.2-0.3l-2-1.5
						c-0.1-0.1-0.2-0.2-0.2-0.3c0-0.1,0-0.2,0.1-0.3l0,0C29.2,0,29.5,0,29.6,0.1l2.9,2.2c0.1,0.1,0.2,0.2,0.2,0.3s0,0.2-0.1,0.3
						l-2.4,2.7c-0.1,0.1-0.2,0.1-0.3,0.1C29.7,5.8,29.6,5.7,29.5,5.6z"/>
				</g>
			</g>
			<path class="st1" d="M35.3,3.2c-0.3,0-0.6-0.2-0.7-0.5S34.5,2.2,34.7,2c0.3-0.3,0.8-0.3,1.1,0C36,2.2,36.1,2.5,36,2.8
				S35.6,3.2,35.3,3.2L35.3,3.2z"/>
		</g>
	</g>
</g>
</svg>
