<svg id="Layer_1" data-name="Layer 1" xmlns="http://www.w3.org/2000/svg" viewBox="0 0 43 44"><defs><style>.cls-1,.cls-2{fill:#00a3ff;}.cls-1{opacity:0.06;isolation:isolate;}.cls-3{fill:#15cccc;}.cls-4,.cls-5,.cls-6,.cls-8{fill:none;stroke-miterlimit:10;}.cls-4,.cls-6{stroke:#15cccc;}.cls-5,.cls-8{stroke:#00a3ff;}.cls-5,.cls-6{stroke-width:0.99px;}.cls-7{fill:#43c1f9;}</style></defs><g id="background"><circle id="Oval-2-Copy" class="cls-1" cx="21.63" cy="22" r="21.5"/></g><rect class="cls-2" x="7.35" y="13.66" width="4.73" height="0.79" rx="0.39"/><rect class="cls-2" x="8.54" y="16.03" width="0.99" height="0.79" rx="0.39"/><rect class="cls-2" x="8.54" y="21.55" width="0.99" height="0.79" rx="0.39"/><rect class="cls-2" x="19.18" y="13.66" width="1.68" height="0.79" rx="0.39"/><rect class="cls-2" x="20.07" y="16.03" width="1.68" height="0.79" rx="0.39"/><rect class="cls-2" x="13.96" y="19.08" width="1.68" height="0.79" rx="0.39"/><rect class="cls-2" x="20.07" y="21.55" width="1.68" height="0.79" rx="0.39"/><rect class="cls-2" x="13.96" y="23.13" width="1.68" height="0.79" rx="0.39"/><rect class="cls-2" x="13.96" y="24.6" width="1.68" height="0.79" rx="0.39"/><rect class="cls-2" x="17.71" y="27.07" width="1.68" height="0.79" rx="0.39"/><rect class="cls-2" x="13.96" y="30.13" width="0.79" height="0.79" rx="0.39"/><rect class="cls-2" x="13.96" y="28.65" width="1.68" height="0.79" rx="0.39"/><rect class="cls-2" x="17.9" y="28.65" width="1.68" height="0.79" rx="0.39"/><rect class="cls-2" x="8.54" y="27.07" width="0.99" height="0.79" rx="0.39"/><rect class="cls-3" x="12.87" y="13.66" width="5.52" height="0.79" rx="0.39"/><rect class="cls-3" x="10.11" y="16.03" width="4.14" height="0.79" rx="0.39"/><rect class="cls-3" x="15.14" y="16.03" width="4.14" height="0.79" rx="0.39"/><rect class="cls-3" x="10.11" y="17.7" width="3.15" height="0.79" rx="0.39"/><rect class="cls-3" x="13.96" y="17.7" width="4.83" height="0.79" rx="0.39"/><rect class="cls-3" x="10.11" y="19.08" width="3.15" height="0.79" rx="0.39"/><rect class="cls-3" x="10.11" y="21.55" width="4.14" height="0.79" rx="0.39"/><rect class="cls-3" x="15.14" y="21.55" width="4.14" height="0.79" rx="0.39"/><rect class="cls-3" x="10.11" y="23.13" width="3.15" height="0.79" rx="0.39"/><rect class="cls-3" x="16.42" y="23.13" width="4.83" height="0.79" rx="0.39"/><rect class="cls-3" x="10.11" y="24.6" width="3.15" height="0.79" rx="0.39"/><rect class="cls-3" x="16.42" y="24.6" width="0.79" height="0.79" rx="0.39"/><rect class="cls-3" x="15.24" y="27.07" width="1.68" height="0.79" rx="0.39"/><rect class="cls-3" x="20.07" y="17.7" width="1.68" height="0.79" rx="0.39"/><rect class="cls-3" x="17.9" y="24.6" width="1.68" height="0.79" rx="0.39"/><rect class="cls-3" x="10.11" y="27.07" width="4.14" height="0.79" rx="0.39"/><rect class="cls-3" x="10.11" y="28.65" width="3.15" height="0.79" rx="0.39"/><rect class="cls-3" x="16.33" y="28.65" width="0.79" height="0.79" rx="0.39"/><rect class="cls-3" x="10.11" y="30.22" width="3.15" height="0.79" rx="0.39"/><path class="cls-4" d="M23,16.42c2.35,0,2.82,1.92,5.43,1.92h1.82"/><line class="cls-5" x1="22.99" y1="13.66" x2="22.99" y2="19.87"/><path class="cls-6" d="M23,23.52c2.68,0,2.59-1.58,5.43-1.58h3.84"/><path class="cls-6" d="M23,29c2.12,0,3.34-3.5,5.43-3.5h3.42"/><rect class="cls-7" x="28.42" y="17.15" width="9.58" height="2.39" rx="1.2"/><rect class="cls-7" x="28.42" y="20.75" width="9.58" height="2.39" rx="1.2"/><rect class="cls-7" x="28.42" y="24.35" width="9.58" height="2.39" rx="1.2"/><line class="cls-8" x1="22.99" y1="21.55" x2="22.99" y2="25.39"/><line class="cls-8" x1="22.99" y1="27.07" x2="22.99" y2="31.01"/></svg>