<?xml version="1.0" encoding="utf-8"?>
<!-- Generator: Adobe Illustrator 25.2.3, SVG Export Plug-In . SVG Version: 6.00 Build 0)  -->
<svg version="1.1" id="Layer_1" xmlns="http://www.w3.org/2000/svg" xmlns:xlink="http://www.w3.org/1999/xlink" x="0px" y="0px"
	 viewBox="0 0 44 44" style="enable-background:new 0 0 44 44;" xml:space="preserve">
<style type="text/css">
	.st0{opacity:0.8;fill:url(#SVGID_1_);}
	.st1{opacity:0.8;fill:url(#SVGID_2_);}
	.st2{opacity:0.8;fill:url(#SVGID_3_);}
	.st3{fill-rule:evenodd;clip-rule:evenodd;fill:url(#SVGID_4_);}
	.st4{opacity:0.8;fill:url(#SVGID_5_);}
	.st5{fill-rule:evenodd;clip-rule:evenodd;fill:url(#SVGID_6_);}
	.st6{opacity:0.8;}
	.st7{fill:url(#Rectangle-path_1_);}
	.st8{fill:url(#SVGID_7_);}
	.st9{fill:url(#SVGID_8_);}
	.st10{fill:url(#SVGID_9_);}
	.st11{fill:url(#SVGID_10_);}
	.st12{fill:url(#SVGID_11_);}
	.st13{fill:url(#SVGID_12_);}
	.st14{fill:url(#SVGID_13_);}
	.st15{fill:url(#SVGID_14_);}
	.st16{fill:url(#SVGID_15_);}
	.st17{fill:url(#SVGID_16_);}
	.st18{fill:url(#SVGID_17_);}
	.st19{opacity:0.8;fill-rule:evenodd;clip-rule:evenodd;fill:url(#Fill-5_1_);}
</style>
<linearGradient id="SVGID_1_" gradientUnits="userSpaceOnUse" x1="3420.7407" y1="223.2484" x2="3448.627" y2="195.3621" gradientTransform="matrix(0 1 -1 0 231.2137 -3411.0991)">
	<stop  offset="0" style="stop-color:#7656F0"/>
	<stop  offset="1" style="stop-color:#0088FF"/>
</linearGradient>
<path class="st0" d="M34,7.8v30.6c0,2.1-1.7,3.8-3.8,3.8H12.6c-2.1,0-3.8-1.7-3.8-3.8V7.8c0-2.1,1.7-3.8,3.8-3.8h17.6
	C32.3,4,34,5.7,34,7.8z"/>
<linearGradient id="SVGID_2_" gradientUnits="userSpaceOnUse" x1="3419.5349" y1="221.9302" x2="3447.4211" y2="194.044" gradientTransform="matrix(0 1 -1 0 231.2137 -3411.0991)">
	<stop  offset="0" style="stop-color:#F0567E"/>
	<stop  offset="1" style="stop-color:#9C56AA"/>
</linearGradient>
<path class="st1" d="M35.3,6.6v30.6c0,2.1-1.7,3.8-3.8,3.8H14c-2.1,0-3.8-1.7-3.8-3.8V6.6c0-2.1,1.7-3.8,3.8-3.8h17.6
	C33.6,2.8,35.3,4.5,35.3,6.6z"/>
<linearGradient id="SVGID_3_" gradientUnits="userSpaceOnUse" x1="15.2925" y1="19.6204" x2="29.9079" y2="7.5249" gradientTransform="matrix(1 0 0 1 12.0591 0)">
	<stop  offset="0" style="stop-color:#F0AA3D"/>
	<stop  offset="1" style="stop-color:#F0567E"/>
</linearGradient>
<path class="st2" d="M43.2,17l-11.6,6.7c-1.2,0.7-2.7-0.2-2.7-1.5V8.7c0-1.4,1.5-2.2,2.7-1.5l11.6,6.7C44.4,14.6,44.4,16.3,43.2,17z
	"/>
<linearGradient id="SVGID_4_" gradientUnits="userSpaceOnUse" x1="25.9116" y1="15.2447" x2="20.1373" y2="15.2447" gradientTransform="matrix(1 0 0 1 12.0591 0)">
	<stop  offset="5.339492e-03" style="stop-color:#78FF80"/>
	<stop  offset="1" style="stop-color:#F0E566"/>
</linearGradient>
<path class="st3" d="M35,12.1c-1.7,0-3.1,1.4-3.1,3.1c0,1.7,1.4,3.1,3.1,3.1c1.7,0,3.1-1.4,3.1-3.1C38.1,13.5,36.7,12.1,35,12.1
	L35,12.1z"/>
<linearGradient id="SVGID_5_" gradientUnits="userSpaceOnUse" x1="4759.2852" y1="-3388.7969" x2="4773.9004" y2="-3400.8923" gradientTransform="matrix(-1 0 0 -1 4776.1782 -3377.5752)">
	<stop  offset="0" style="stop-color:#F0AA3D"/>
	<stop  offset="1" style="stop-color:#F0567E"/>
</linearGradient>
<path class="st4" d="M1.1,13.9l11.6-6.7c1.2-0.7,2.7,0.2,2.7,1.5v13.4c0,1.4-1.5,2.2-2.7,1.5L1.1,17C-0.1,16.3-0.1,14.6,1.1,13.9z"
	/>
<linearGradient id="SVGID_6_" gradientUnits="userSpaceOnUse" x1="4769.2153" y1="-3392.9963" x2="4763.4409" y2="-3392.9963" gradientTransform="matrix(-1 0 0 -1 4776.1782 -3377.5752)">
	<stop  offset="5.339492e-03" style="stop-color:#78FF80"/>
	<stop  offset="1" style="stop-color:#F0E566"/>
</linearGradient>
<path class="st5" d="M10,18.5c1.7,0,3.1-1.4,3.1-3.1c0-1.7-1.4-3.1-3.1-3.1c-1.7,0-3.1,1.4-3.1,3.1C6.9,17.1,8.2,18.5,10,18.5
	L10,18.5z"/>
<g id="Layer_1_4_" class="st6">
	<g id="icon_ifix_1_" transform="translate(13.754546, 13.251953)">
		<g>
			<linearGradient id="Rectangle-path_1_" gradientUnits="userSpaceOnUse" x1="1.3329" y1="25.3019" x2="1.3329" y2="13.3677">
				<stop  offset="5.339492e-03" style="stop-color:#78FF80"/>
				<stop  offset="1" style="stop-color:#F0E566"/>
			</linearGradient>
			<path id="Rectangle-path_5_" class="st7" d="M1.3,22.2L1.3,22.2c0.3,0,0.5,0.2,0.5,0.5v1.9c0,0.3-0.2,0.5-0.5,0.5l0,0
				c-0.3,0-0.5-0.2-0.5-0.5v-1.9C0.8,22.4,1,22.2,1.3,22.2z"/>
			<linearGradient id="SVGID_7_" gradientUnits="userSpaceOnUse" x1="8.5905" y1="25.3019" x2="8.5905" y2="13.3677">
				<stop  offset="5.339492e-03" style="stop-color:#78FF80"/>
				<stop  offset="1" style="stop-color:#F0E566"/>
			</linearGradient>
			<path class="st8" d="M8.6,16.9L8.6,16.9c0.3,0,0.5,0.2,0.5,0.5v3.9c0,0.3-0.2,0.5-0.5,0.5l0,0c-0.3,0-0.5-0.2-0.5-0.5v-3.9
				C8.1,17.1,8.3,16.9,8.6,16.9z"/>
			<linearGradient id="SVGID_8_" gradientUnits="userSpaceOnUse" x1="3.7176" y1="25.3019" x2="3.7176" y2="13.3677">
				<stop  offset="5.339492e-03" style="stop-color:#78FF80"/>
				<stop  offset="1" style="stop-color:#F0E566"/>
			</linearGradient>
			<path class="st9" d="M3.7,20.8L3.7,20.8c0.3,0,0.5,0.2,0.5,0.5v2c0,0.3-0.2,0.5-0.5,0.5l0,0c-0.3,0-0.5-0.2-0.5-0.5v-2
				C3.2,21,3.4,20.8,3.7,20.8z"/>
			<linearGradient id="SVGID_9_" gradientUnits="userSpaceOnUse" x1="6.2059" y1="25.3019" x2="6.2059" y2="13.3677">
				<stop  offset="5.339492e-03" style="stop-color:#78FF80"/>
				<stop  offset="1" style="stop-color:#F0E566"/>
			</linearGradient>
			<path class="st10" d="M6.2,18.4L6.2,18.4c0.3,0,0.5,0.2,0.5,0.5v1.2c0,0.3-0.2,0.5-0.5,0.5l0,0c-0.3,0-0.5-0.2-0.5-0.5v-1.2
				C5.7,18.6,5.9,18.4,6.2,18.4z"/>
			<linearGradient id="SVGID_10_" gradientUnits="userSpaceOnUse" x1="13.4635" y1="25.3019" x2="13.4635" y2="13.3677">
				<stop  offset="5.339492e-03" style="stop-color:#78FF80"/>
				<stop  offset="1" style="stop-color:#F0E566"/>
			</linearGradient>
			<path class="st11" d="M13.5,12.8L13.5,12.8c0.3,0,0.5,0.2,0.5,0.5v5.8c0,0.3-0.2,0.5-0.5,0.5l0,0c-0.3,0-0.5-0.2-0.5-0.5v-5.8
				C12.9,13,13.2,12.8,13.5,12.8z"/>
			<linearGradient id="SVGID_11_" gradientUnits="userSpaceOnUse" x1="15.8481" y1="25.3019" x2="15.8481" y2="13.3677">
				<stop  offset="5.339492e-03" style="stop-color:#78FF80"/>
				<stop  offset="1" style="stop-color:#F0E566"/>
			</linearGradient>
			<path class="st12" d="M15.8,12.8L15.8,12.8c0.3,0,0.5,0.2,0.5,0.5v8.4c0,0.3-0.2,0.5-0.5,0.5l0,0c-0.3,0-0.5-0.2-0.5-0.5v-8.4
				C15.3,13,15.5,12.8,15.8,12.8z"/>
			<linearGradient id="SVGID_12_" gradientUnits="userSpaceOnUse" x1="1.3329" y1="25.3019" x2="1.3329" y2="13.3677">
				<stop  offset="5.339492e-03" style="stop-color:#78FF80"/>
				<stop  offset="1" style="stop-color:#F0E566"/>
			</linearGradient>
			<path class="st13" d="M1.3,12.8L1.3,12.8c0.3,0,0.5,0.2,0.5,0.5v7.1c0,0.3-0.2,0.5-0.5,0.5l0,0c-0.3,0-0.5-0.2-0.5-0.5v-7.1
				C0.8,13,1,12.8,1.3,12.8z"/>
			<linearGradient id="SVGID_13_" gradientUnits="userSpaceOnUse" x1="8.5905" y1="25.3019" x2="8.5905" y2="13.3677">
				<stop  offset="5.339492e-03" style="stop-color:#78FF80"/>
				<stop  offset="1" style="stop-color:#F0E566"/>
			</linearGradient>
			<path class="st14" d="M8.6,12.8L8.6,12.8c0.3,0,0.5,0.2,0.5,0.5V15c0,0.3-0.2,0.5-0.5,0.5l0,0c-0.3,0-0.5-0.2-0.5-0.5v-1.7
				C8.1,13,8.3,12.8,8.6,12.8z"/>
			<linearGradient id="SVGID_14_" gradientUnits="userSpaceOnUse" x1="11.0788" y1="25.3019" x2="11.0788" y2="13.3677">
				<stop  offset="5.339492e-03" style="stop-color:#78FF80"/>
				<stop  offset="1" style="stop-color:#F0E566"/>
			</linearGradient>
			<path class="st15" d="M11.1,12.8L11.1,12.8c0.3,0,0.5,0.2,0.5,0.5v0.3c0,0.3-0.2,0.5-0.5,0.5l0,0c-0.3,0-0.5-0.2-0.5-0.5v-0.3
				C10.6,13,10.8,12.8,11.1,12.8z"/>
			<linearGradient id="SVGID_15_" gradientUnits="userSpaceOnUse" x1="3.7176" y1="25.3019" x2="3.7176" y2="13.3677">
				<stop  offset="5.339492e-03" style="stop-color:#78FF80"/>
				<stop  offset="1" style="stop-color:#F0E566"/>
			</linearGradient>
			<path class="st16" d="M3.7,12.8L3.7,12.8c0.3,0,0.5,0.2,0.5,0.5v5.6c0,0.3-0.2,0.5-0.5,0.5l0,0c-0.3,0-0.5-0.2-0.5-0.5v-5.6
				C3.2,13,3.4,12.8,3.7,12.8z"/>
			<linearGradient id="SVGID_16_" gradientUnits="userSpaceOnUse" x1="6.2059" y1="25.3019" x2="6.2059" y2="13.3677">
				<stop  offset="5.339492e-03" style="stop-color:#78FF80"/>
				<stop  offset="1" style="stop-color:#F0E566"/>
			</linearGradient>
			<path class="st17" d="M6.2,12.8L6.2,12.8c0.3,0,0.5,0.2,0.5,0.5v3.1c0,0.3-0.2,0.5-0.5,0.5l0,0c-0.3,0-0.5-0.2-0.5-0.5v-3.1
				C5.7,13,5.9,12.8,6.2,12.8z"/>
			<linearGradient id="SVGID_17_" gradientUnits="userSpaceOnUse" x1="11.0788" y1="25.3019" x2="11.0788" y2="13.3677">
				<stop  offset="5.339492e-03" style="stop-color:#78FF80"/>
				<stop  offset="1" style="stop-color:#F0E566"/>
			</linearGradient>
			<path class="st18" d="M11.1,15.6L11.1,15.6c0.3,0,0.5,0.2,0.5,0.5v4c0,0.3-0.2,0.5-0.5,0.5l0,0c-0.3,0-0.5-0.2-0.5-0.5v-4
				C10.6,15.8,10.8,15.6,11.1,15.6z"/>
		</g>
	</g>
</g>
<linearGradient id="Fill-5_1_" gradientUnits="userSpaceOnUse" x1="4782.7627" y1="-3396.9048" x2="4782.7627" y2="-3388.4302" gradientTransform="matrix(-1 0 0 -1 4804.7422 -3377.5752)">
	<stop  offset="0" style="stop-color:#0088FF"/>
	<stop  offset="1" style="stop-color:#00F0B4"/>
</linearGradient>
<path id="Fill-5_10_" class="st19" d="M22,19.6c-1,0-1.8-0.8-1.8-1.8v-5.3c0-1,0.8-1.8,1.8-1.8c1,0,1.8,0.8,1.8,1.8v5.3
	C23.7,18.9,23,19.6,22,19.6"/>
</svg>
