<?xml version="1.0" encoding="utf-8"?>
<!-- Generator: Adobe Illustrator 24.0.1, SVG Export Plug-In . SVG Version: 6.00 Build 0)  -->
<svg version="1.1" id="Layer_1" xmlns="http://www.w3.org/2000/svg" xmlns:xlink="http://www.w3.org/1999/xlink" x="0px" y="0px"
	 viewBox="0 0 37 22" style="enable-background:new 0 0 37 22;" xml:space="preserve">
<style type="text/css">
	.st0{fill:#21D8AF;}
	.st1{fill:#8FCEFC;}
</style>
<g>
	<path class="st0" d="M18.4,9c-0.9,0-1.6,0.7-1.6,1.6s0.7,1.6,1.6,1.6s1.6-0.7,1.6-1.6C19.9,9.7,19.2,9,18.4,9"/>
	<path class="st0" d="M28.4,12.1c0.9,0,1.6-0.7,1.6-1.6c0-0.9-0.7-1.6-1.6-1.6c-0.9,0-1.6,0.7-1.6,1.6
		C26.9,11.4,27.6,12.1,28.4,12.1"/>
	<path class="st0" d="M22.7,11.4V9.7C22.7,9.3,23,9,23.4,9s0.7,0.3,0.7,0.7v1.7c0,0.4-0.3,0.7-0.7,0.7S22.7,11.8,22.7,11.4"/>
</g>
<path class="st1" d="M31,20.3H15.7c-1.7,0-3.1-1.4-3.1-3.1V4.9c0-1.7,1.4-3.1,3.1-3.1H31c1.7,0,3.1,1.4,3.1,3.1v12.3
	C34.1,18.9,32.7,20.3,31,20.3z M15.7,2.7c-1.2,0-2.1,1-2.1,2.1v12.3c0,1.2,1,2.1,2.1,2.1H31c1.2,0,2.1-1,2.1-2.1V4.9
	c0-1.2-1-2.1-2.1-2.1H15.7z"/>
<g>
	<path class="st1" d="M7.1,19.3H6.5c-1.2,0-2.1-1-2.1-2.1V4.9c0-1.2,1-2.1,2.1-2.1h0.5c0.2-0.4,0.6-0.7,1-1H6.5
		c-1.7,0-3.1,1.4-3.1,3.1v12.3c0,1.7,1.4,3.1,3.1,3.1H8C7.6,20.1,7.3,19.7,7.1,19.3z"/>
</g>
<g>
	<path class="st1" d="M11.7,19.3h-0.5c-1.2,0-2.1-1-2.1-2.1V4.9c0-1.2,1-2.1,2.1-2.1h0.5c0.2-0.4,0.6-0.7,1-1h-1.5
		C9.4,1.7,8,3.1,8,4.9v12.3c0,1.7,1.4,3.1,3.1,3.1h1.5C12.2,20.1,11.9,19.7,11.7,19.3z"/>
</g>
</svg>
