<?xml version="1.0" encoding="utf-8"?>
<!-- Generator: Adobe Illustrator 23.0.3, SVG Export Plug-In . SVG Version: 6.00 Build 0)  -->
<svg version="1.1" id="Ocaml-package-icon" xmlns="http://www.w3.org/2000/svg" xmlns:xlink="http://www.w3.org/1999/xlink" x="0px"
	 y="0px" viewBox="0 0 44 44" style="enable-background:new 0 0 44 44;" xml:space="preserve">
<style type="text/css">
	.st0{fill-rule:evenodd;clip-rule:evenodd;fill:#F6FAF9;}
	.st1{fill:#14CCCC;}
	.st2{fill-rule:evenodd;clip-rule:evenodd;fill:#FCA338;}
	.st3{fill:#577FA1;}
	.st4{fill-rule:evenodd;clip-rule:evenodd;fill:none;stroke:#14CCCC;stroke-linecap:round;stroke-miterlimit:10;}
</style>
<title>Group 5</title>
<desc>Created with Sketch.</desc>
<circle id="Oval-2-Copy-2" class="st0" cx="21.8" cy="22.3" r="21.5"/>
<g>
	<path id="Shape" class="st1" d="M25.8,9.2c0.6,0,1.2-0.5,1.2-1.2c0-0.6-0.5-1.2-1.2-1.2S24.6,7.4,24.6,8
		C24.6,8.7,25.1,9.2,25.8,9.2"/>
	<path id="Shape-Copy" class="st1" d="M18.2,9.2c0.6,0,1.2-0.5,1.2-1.2c0-0.6-0.5-1.2-1.2-1.2S17.1,7.4,17.1,8
		C17.1,8.7,17.6,9.2,18.2,9.2"/>
	<path class="st1" d="M22,6.6L22,6.6c0.3,0,0.5,0.2,0.5,0.5l0,1.7c0,0.3-0.2,0.5-0.5,0.5l0,0c-0.3,0-0.5-0.2-0.5-0.5l0-1.7
		C21.4,6.9,21.7,6.6,22,6.6z"/>
</g>
<g>
	<path class="st2" d="M19.8,21.5c-0.6,0.1-0.8,0.7-1.1,1.2c-0.2,0.3-0.3,0.5-0.5,0.8c-0.1,0.3-0.1,0.5-0.3,0.8
		c-0.2,0.2-0.3,0.5-0.4,0.8c0,0.1-0.1,0.6-0.1,0.8c0,0,0,0,0,0l0.9-0.1c0.9,0.1,0.6,0.4,1.9,0.3l2.1-0.1c-0.1-0.2-0.2-0.4-0.2-0.5
		c-0.1-0.1-0.1-0.4-0.2-0.5c0-0.1-0.2-0.4-0.3-0.4c-0.2-0.2-0.2-0.2-0.2-0.4c-0.1-0.4-0.3-1.1-0.5-1.6c-0.1-0.3-0.3-0.5-0.5-0.7
		C20.2,21.7,19.9,21.5,19.8,21.5C19.8,21.5,19.8,21.5,19.8,21.5"/>
	<path class="st2" d="M22,21.3L22,21.3C22,21.3,22,21.3,22,21.3z M14.3,11.5c-0.3,0-0.6,0.3-0.6,0.6v6.1v0c0.3-0.1,0.7-0.7,0.9-0.9
		c0.2-0.3,0.3-0.6,0.4-0.8c0.3-0.5,0.3-0.8,0.9-0.8c0.3,0,0.4,0.1,0.6,0.3c0.1,0.2,0.4,0.5,0.5,0.7c0.1,0.3,0.3,0.6,0.4,0.7
		c0.1,0.1,0.1,0.1,0.2,0.1c0.1,0,0.2,0,0.2-0.1c0.1-0.1,0.1-0.2,0.2-0.4c0.1-0.3,0.2-0.6,0.3-0.7c0.1-0.2,0.2-0.4,0.3-0.5
		c0.2-0.2,0.4-0.2,0.5-0.2c0.4-0.1,0.6,0.2,0.8,0.4c0.1,0.1,0.3,0.3,0.4,0.6c0.1,0.2,0.2,0.5,0.3,0.6c0,0.1,0.2,0.3,0.2,0.6
		c0.1,0.2,0.2,0.4,0.3,0.5c0,0,0.1,0.3,0.7,0.5c0.1,0.1,0.4,0.1,0.6,0.2c0.3,0.1,0.5,0.1,0.9,0c0.2,0,0.4-0.3,0.5-0.6
		c0.1-0.2,0.1-0.6,0.2-0.7c0-0.1-0.1-0.2,0-0.3c0.1-0.1,0.1-0.1,0.2-0.3c0.1-0.4,0.8-0.4,1.1-0.4c0.3,0,0.3,0.3,0.8,0.2
		c0.3-0.1,0.6,0,0.9,0.1c0.3,0.1,0.5,0.2,0.7,0.3c0.1,0.1,0.3,0.7,0.1,0.7c0,0,0,0.1,0.1,0.1c-0.1,0.2-0.3,0.1-0.4,0
		c-0.2,0-0.3,0-0.5,0.1c-0.3,0.1-0.7,0.1-1,0.3c-0.2,0.2-0.2,0.6-0.3,0.8c0,0-0.3,0.7-0.9,1.2c-0.2,0.1-0.5,0.4-1.2,0.5
		c-0.3,0-0.6,0.1-0.9,0c-0.2,0-0.3,0-0.5,0c-0.1,0-0.4,0-0.4,0l0,0.1c0,0,0,0.1,0,0.1c0,0.1,0,0.1,0,0.2c0,0.1,0,0.3,0,0.4
		c0,0.3,0.1,0.5,0.1,0.8c0,0.3,0.2,0.6,0.3,0.9c0.1,0.1,0.1,0.1,0.2,0.2c0,0.1,0,0.3,0,0.4c0.1,0.6,0.2,1.1,0.5,1.6c0,0,0,0,0,0
		c0,0,0,0,0,0c0.3-0.1,0.6-0.2,1-0.2c0.7-0.1,1.8-0.1,2.4-0.1c0.8-0.1,1.4,0.1,1.9,0.2c0.7,0.2,1.3,0.3,2.1,0.1V12.1
		c0-0.3-0.3-0.6-0.6-0.6H14.3z"/>
	<path class="st2" d="M15,20.8c-0.1,0-0.3,0.1-0.3,0.2c-0.1,0.1-0.1,0.3-0.1,0.4c-0.1,0.1-0.1,0.3-0.2,0.4c-0.1,0.3-0.4,0.5-0.5,0.7
		c0,0.1,0,0.1-0.1,0.2v0v0.9v1.6v0.2c0.1,0,0.3,0.1,0.4,0.1c1.2,0.3,1.5,0.3,2.6,0.2l0.1,0v0c0.1-0.2,0.2-0.8,0.2-1
		c0-0.1,0.1-0.3,0.1-0.4c0-0.1,0-0.3,0-0.4c0-0.3,0.2-0.4,0.4-0.7c0.1-0.3,0.2-0.5,0.3-0.8c0.1-0.2,0.2-0.6,0.5-0.7
		c0,0-0.5-0.1-0.6-0.1c-0.1,0-0.3,0-0.4-0.1c-0.3-0.1-0.5-0.1-0.8-0.2c-0.2,0-0.7-0.2-0.8-0.3C15.4,21.1,15.2,20.8,15,20.8
		C15,20.8,15,20.8,15,20.8"/>
</g>
<g>
	<path class="st3" d="M17.3,30.5c0,1.4-0.8,2.2-2,2.2c-1.2,0-1.9-0.9-1.9-2.1c0-1.3,0.8-2.1,1.9-2.1C16.6,28.4,17.3,29.3,17.3,30.5z
		 M14.2,30.5c0,0.8,0.4,1.5,1.1,1.5c0.7,0,1.1-0.7,1.1-1.5c0-0.8-0.4-1.5-1.1-1.5C14.6,29,14.2,29.7,14.2,30.5z"/>
	<path class="st3" d="M20.9,32.5c-0.2,0.1-0.6,0.2-1.1,0.2c-1.3,0-2.1-0.8-2.1-2.1c0-1.3,0.9-2.2,2.2-2.2c0.5,0,0.8,0.1,1,0.2
		l-0.2,0.6c-0.2-0.1-0.5-0.2-0.8-0.2c-0.8,0-1.4,0.5-1.4,1.5c0,0.9,0.5,1.5,1.4,1.5c0.3,0,0.6-0.1,0.8-0.2L20.9,32.5z"/>
	<path class="st3" d="M23.1,32.6l0-0.3h0c-0.2,0.2-0.5,0.4-0.9,0.4c-0.6,0-0.9-0.4-0.9-0.9c0-0.7,0.7-1.1,1.8-1.1v0
		c0-0.2-0.1-0.5-0.6-0.5c-0.3,0-0.6,0.1-0.8,0.2l-0.1-0.5c0.2-0.1,0.6-0.3,1.1-0.3c0.9,0,1.2,0.6,1.2,1.2v1.1c0,0.3,0,0.5,0,0.7
		H23.1z M23,31.1c-0.5,0-1,0.1-1,0.6c0,0.3,0.2,0.4,0.4,0.4c0.3,0,0.5-0.2,0.6-0.4c0-0.1,0-0.1,0-0.2V31.1z"/>
	<path class="st3" d="M24.5,30.5c0-0.3,0-0.6,0-0.9h0.6l0,0.4h0c0.1-0.2,0.4-0.5,0.9-0.5c0.4,0,0.7,0.2,0.8,0.5h0
		c0.1-0.2,0.2-0.3,0.4-0.4c0.2-0.1,0.4-0.2,0.6-0.2c0.5,0,1,0.3,1,1.3v1.7h-0.7v-1.6c0-0.5-0.2-0.8-0.5-0.8c-0.3,0-0.4,0.2-0.5,0.4
		c0,0.1,0,0.2,0,0.2v1.8h-0.7v-1.7c0-0.4-0.2-0.7-0.5-0.7c-0.3,0-0.5,0.2-0.5,0.4c0,0.1,0,0.2,0,0.2v1.7h-0.7V30.5z"/>
	<path class="st3" d="M29.6,28.3h0.8v4.3h-0.8V28.3z"/>
</g>
<path id="frame" class="st4" d="M30.8,8h3.8C35.3,8,36,8.7,36,9.5v25c0,0.8-0.7,1.5-1.5,1.5h-25C8.7,36,8,35.3,8,34.5v-25
	C8,8.7,8.7,8,9.5,8h3.7"/>
</svg>
