<?xml version="1.0" encoding="utf-8"?>
<!-- Generator: Adobe Illustrator 24.3.0, SVG Export Plug-In . SVG Version: 6.00 Build 0)  -->
<svg version="1.1" id="Layer_1" xmlns="http://www.w3.org/2000/svg" xmlns:xlink="http://www.w3.org/1999/xlink" x="0px" y="0px"
	 viewBox="0 0 37 22" style="enable-background:new 0 0 37 22;" xml:space="preserve">
<style type="text/css">
	.st0{fill:none;stroke:#9CDBFF;stroke-linecap:round;stroke-miterlimit:10;}
	.st1{fill-rule:evenodd;clip-rule:evenodd;fill:#15CCCC;}
	.st2{fill:none;stroke:#15CCCC;stroke-linecap:round;stroke-miterlimit:10;}
</style>
<path class="st0" d="M28.3,12.9H22"/>
<path class="st0" d="M15.7,12.9H9.5"/>
<path class="st0" d="M14.2,12.9c-0.1,0-1.6,2-1.6,2"/>
<path class="st0" d="M25.1,12.9l1.7-1.6"/>
<path class="st0" d="M12.5,12.9L11,11.3"/>
<path class="st0" d="M23.6,12.9l1.5,1.6"/>
<path class="st0" d="M26.7,8.6h-3.1L22,10.2v2.7v3.5h1.6l0.7,0.8"/>
<path class="st0" d="M23.6,5.5h-3.2l-1.5,1.4v3.3V9.7v8.6"/>
<path class="st0" d="M11,8.6h3.2l1.5,1.6V9.7v6.7h-1.5l-0.7,0.8"/>
<path class="st0" d="M15.7,4.3h1.6l1.6,1.6V5.5v1.4"/>
<path class="st0" d="M18.9,3.8v0.5v1.6"/>
<path class="st0" d="M20.4,10.2L22,9.7"/>
<path class="st0" d="M18.8,8.6L17.3,7"/>
<path class="st0" d="M20.4,5.5L22,3.9"/>
<path class="st0" d="M14.2,8.6L12.5,7"/>
<path class="st1" d="M22,11.9c-0.6,0-1,0.5-1,1s0.5,1,1,1c0.6,0,1-0.5,1-1C23,12.3,22.6,11.9,22,11.9"/>
<path class="st1" d="M15.6,11.9c-0.6,0-1,0.5-1,1s0.5,1,1,1s1-0.5,1-1C16.7,12.3,16.2,11.9,15.6,11.9"/>
<path class="st1" d="M18.9,14.1c-0.3,0-0.5-0.2-0.5-0.5v-1.4c0-0.3,0.2-0.5,0.5-0.5s0.5,0.2,0.5,0.5v1.4
	C19.3,13.9,19.1,14.1,18.9,14.1"/>
<polyline class="st2" points="6.4,8.1 7.3,9.2 9.3,7 "/>
<polyline class="st2" points="4.8,13 5.6,14.1 7.6,11.9 "/>
<polyline class="st2" points="9.4,19.9 10.2,21 12.2,18.8 "/>
<polyline class="st2" points="17.7,20.3 18.5,21.4 20.5,19.2 "/>
<polyline class="st2" points="25,19.1 25.8,20.2 27.8,17.9 "/>
<polyline class="st2" points="30.3,12.9 31.1,14 33.1,11.8 "/>
<polyline class="st2" points="28.6,8.6 29.4,9.7 31.4,7.4 "/>
<polyline class="st2" points="25.7,4.6 26.5,5.7 28.5,3.5 "/>
<polyline class="st2" points="17.2,1.4 18,2.5 20,0.3 "/>
<polyline class="st2" points="11.1,3.3 11.9,4.4 13.9,2.2 "/>
</svg>
