<?xml version="1.0" encoding="utf-8"?>
<!-- Generator: Adobe Illustrator 23.0.2, SVG Export Plug-In . SVG Version: 6.00 Build 0)  -->
<svg version="1.1" xmlns="http://www.w3.org/2000/svg" xmlns:xlink="http://www.w3.org/1999/xlink" x="0px" y="0px" width="43px"
	 height="44px" viewBox="0 0 43 44" style="enable-background:new 0 0 43 44;" xml:space="preserve">
<style type="text/css">
	.st0{opacity:6.000000e-02;fill-rule:evenodd;clip-rule:evenodd;fill:#00A3FF;}
	.st1{fill-rule:evenodd;clip-rule:evenodd;fill:#15CCCC;}
	.st2{fill:#00A3FF;}
	.st3{fill:#15CCCC;}
</style>
<g id="background">
	<circle id="Oval-2-Copy" class="st0" cx="21.5" cy="21.6" r="21.5"/>
</g>
<g id="Layer_1">
	<path id="Fill-1" class="st1" d="M16.6,23.1c0.9,0,1.5-0.7,1.5-1.5c0-0.8-0.7-1.5-1.5-1.5c-0.9,0-1.5,0.7-1.5,1.5
		C15.1,22.5,15.8,23.1,16.6,23.1"/>
	<path id="Fill-3" class="st1" d="M26.4,23.1c0.9,0,1.5-0.7,1.5-1.5c0-0.8-0.7-1.5-1.5-1.5s-1.5,0.7-1.5,1.5
		C24.8,22.5,25.5,23.1,26.4,23.1"/>
	<path id="Fill-5" class="st1" d="M21.5,19.9c0.4,0,0.7,0.3,0.7,0.7v2.1c0,0.4-0.3,0.7-0.7,0.7c-0.4,0-0.7-0.3-0.7-0.7v-2.1
		C20.8,20.2,21.1,19.9,21.5,19.9"/>
	<path id="Fill-7" class="st2" d="M14.6,14.4c-0.3,0-0.6-0.1-0.8-0.4c-0.3-0.4-0.3-1,0.1-1.4c1-0.9,2.2-1.6,3.5-2
		c0.5-0.2,1.1,0.1,1.3,0.6c0.2,0.5-0.1,1.1-0.6,1.3c-1.1,0.4-2.1,1-2.9,1.7C15.1,14.4,14.8,14.4,14.6,14.4 M28.4,14.5
		c-0.2,0-0.4-0.1-0.6-0.2c-0.4-0.4-0.9-0.7-1.4-1c-0.5-0.3-1-0.5-1.5-0.7c-0.5-0.2-0.8-0.7-0.6-1.3c0.2-0.5,0.7-0.8,1.3-0.6
		c0.6,0.2,1.2,0.5,1.8,0.9c0.6,0.3,1.2,0.7,1.7,1.2c0.4,0.3,0.5,1,0.1,1.4C29,14.3,28.7,14.5,28.4,14.5 M10.9,24.5
		c-0.5,0-0.9-0.3-1-0.8c-0.1-0.7-0.2-1.3-0.2-2c0-0.7,0.1-1.4,0.2-2c0.1-0.6,0.6-0.9,1.1-0.8c0.5,0.1,0.9,0.6,0.8,1.1
		c-0.1,0.6-0.1,1.1-0.1,1.7c0,0.6,0,1.1,0.1,1.7c0.1,0.5-0.3,1-0.8,1.1C11,24.4,10.9,24.5,10.9,24.5 M32.1,24.5c-0.1,0-0.1,0-0.2,0
		c-0.6-0.1-0.9-0.6-0.8-1.1c0.1-0.6,0.1-1.1,0.1-1.7c0-0.6,0-1.1-0.1-1.7c-0.1-0.5,0.3-1,0.8-1.1c0.6-0.1,1,0.3,1.1,0.8
		c0.1,0.7,0.2,1.3,0.2,2c0,0.7-0.1,1.4-0.2,2C33,24.2,32.6,24.5,32.1,24.5 M17.8,32.7c-0.1,0-0.2,0-0.3-0.1
		c-0.6-0.2-1.2-0.5-1.8-0.9c-0.6-0.3-1.2-0.7-1.7-1.2c-0.4-0.3-0.5-1-0.1-1.4c0.3-0.4,1-0.5,1.4-0.1s0.9,0.7,1.4,1
		c0.5,0.3,1,0.5,1.5,0.7c0.5,0.2,0.8,0.7,0.6,1.3C18.5,32.4,18.2,32.7,17.8,32.7 M25.2,32.7c-0.4,0-0.8-0.3-0.9-0.7
		c-0.2-0.5,0.1-1.1,0.6-1.3c1.1-0.4,2.1-1,2.9-1.7c0.4-0.3,1-0.3,1.4,0.1c0.3,0.4,0.3,1-0.1,1.4c-1,0.9-2.2,1.6-3.5,2
		C25.4,32.7,25.3,32.7,25.2,32.7"/>
	<path class="st3" d="M21.6,12L21.6,12c-0.6,0-1.1-0.4-1.1-1s0.4-1,1-1h0.1c0.6,0,1,0.4,1,1C22.5,11.5,22.1,12,21.6,12"/>
	<path class="st3" d="M12.2,17.3c-0.2,0-0.3,0-0.5-0.1c-0.5-0.3-0.6-0.9-0.4-1.3l0-0.1c0.3-0.5,0.9-0.6,1.4-0.4s0.6,0.9,0.4,1.3l0,0
		C12.8,17.1,12.5,17.3,12.2,17.3"/>
	<path class="st3" d="M30.9,17.3c-0.3,0-0.7-0.2-0.9-0.5l0,0c-0.3-0.5-0.1-1.1,0.4-1.3c0.5-0.3,1.1-0.1,1.4,0.4l0,0.1
		c0.3,0.5,0.1,1.1-0.4,1.3C31.2,17.3,31,17.3,30.9,17.3"/>
	<path class="st3" d="M12.2,28c-0.3,0-0.7-0.2-0.9-0.5l0-0.1c-0.3-0.5-0.1-1.1,0.4-1.3s1.1-0.1,1.3,0.4l0,0c0.3,0.5,0.1,1.1-0.4,1.3
		C12.5,28,12.3,28,12.2,28"/>
	<path class="st3" d="M30.8,28c-0.2,0-0.3,0-0.5-0.1c-0.5-0.3-0.6-0.9-0.4-1.3l0-0.1c0.3-0.5,0.9-0.6,1.4-0.4
		c0.5,0.3,0.6,0.9,0.4,1.3l0,0.1C31.5,27.9,31.1,28,30.8,28"/>
	<path class="st3" d="M21.5,33.3L21.5,33.3c-0.6,0-1.1-0.4-1.1-1c0-0.6,0.4-1,1-1h0.1c0.6,0,1,0.4,1,1
		C22.5,32.9,22.1,33.3,21.5,33.3"/>
</g>
</svg>
