<?xml version="1.0" encoding="utf-8"?>
<!-- Generator: Adobe Illustrator 23.0.4, SVG Export Plug-In . SVG Version: 6.00 Build 0)  -->
<svg version="1.1" id="Layer_1" xmlns="http://www.w3.org/2000/svg" xmlns:xlink="http://www.w3.org/1999/xlink" x="0px" y="0px"
	 viewBox="0 0 37 22" style="enable-background:new 0 0 37 22;" xml:space="preserve">
<style type="text/css">
	.st0{fill-rule:evenodd;clip-rule:evenodd;fill:#6D92CC;}
	.st1{fill-rule:evenodd;clip-rule:evenodd;fill:#22E0B6;}
</style>
<g>
	<path class="st0" d="M18.6,0.1c-6.1,0-11,4.9-11,11c0,6,4.9,11,11,11c6,0,11-4.9,11-11C29.5,5,24.6,0.1,18.6,0.1z M15,3.6
		c-1.8,1.5-2.9,3.7-3.2,6h-1.4C10.9,7,12.6,4.8,15,3.6z M10.5,12.4h1.4c0.3,2.3,1.4,4.5,3.2,6C12.7,17.2,10.9,15,10.5,12.4z
		 M17.2,16.9c-1.4-1.1-2.3-2.7-2.6-4.5h2.6V16.9z M17.2,9.6h-2.6c0.3-1.8,1.2-3.3,2.6-4.5V9.6z M26.7,9.6h-1.4
		c-0.3-2.3-1.4-4.5-3.2-6C24.5,4.8,26.2,7,26.7,9.6z M19.9,5.1c1.4,1.1,2.3,2.7,2.6,4.5h-2.6V5.1z M19.9,12.4h2.6
		c-0.3,1.8-1.2,3.3-2.6,4.5V12.4z M22.1,18.4c1.8-1.5,2.9-3.7,3.2-6h1.4C26.2,15,24.5,17.2,22.1,18.4z"/>
	<g>
		<path class="st1" d="M18.6,8c-0.1,0-0.3,0-0.4,0.1c-0.1,0.1-0.2,0.1-0.3,0.2c-0.1,0.1-0.2,0.2-0.2,0.3c-0.1,0.1-0.1,0.3-0.1,0.4
			l0,4.1c0,0.2,0,0.3,0.1,0.4c0.1,0.1,0.1,0.3,0.2,0.3c0.1,0.1,0.2,0.2,0.3,0.2c0.1,0.1,0.3,0.1,0.4,0.1h0c0.2,0,0.3,0,0.4-0.1
			c0.1-0.1,0.3-0.1,0.4-0.2c0.1-0.1,0.2-0.2,0.2-0.3c0.1-0.1,0.1-0.3,0.1-0.4l0-4.1v0c0-0.1,0-0.3-0.1-0.4c-0.1-0.1-0.1-0.2-0.2-0.3
			c-0.1-0.1-0.2-0.2-0.3-0.2C18.9,8.1,18.7,8,18.6,8"/>
		<path class="st1" d="M11.2,8.6c-0.3,0-0.6,0.1-0.9,0.2C10.1,9,9.8,9.1,9.6,9.3c-0.2,0.2-0.4,0.5-0.5,0.8c-0.1,0.3-0.2,0.6-0.2,0.9
			c0,0.3,0,0.7,0.1,1c0.1,0.3,0.3,0.6,0.5,0.8c0.2,0.2,0.4,0.4,0.7,0.5c0.3,0.1,0.6,0.2,0.9,0.2c0.3,0,0.6-0.1,0.9-0.2
			c0.3-0.1,0.5-0.3,0.7-0.5c0.2-0.2,0.4-0.5,0.5-0.8c0.1-0.3,0.2-0.6,0.2-0.9c0-0.3,0-0.7-0.2-0.9c-0.1-0.3-0.3-0.5-0.5-0.8
			c-0.2-0.2-0.4-0.4-0.7-0.5C11.8,8.7,11.5,8.7,11.2,8.6"/>
		<path class="st1" d="M25.6,8.7c-0.3,0-0.6,0.1-0.9,0.2c-0.3,0.1-0.5,0.3-0.7,0.5c-0.2,0.2-0.4,0.5-0.5,0.8
			c-0.1,0.3-0.2,0.6-0.2,0.9c0,0.3,0.1,0.7,0.2,1c0.1,0.3,0.3,0.6,0.5,0.8c0.2,0.2,0.5,0.4,0.7,0.5c0.3,0.1,0.6,0.2,0.9,0.2
			c0.3,0,0.6-0.1,0.9-0.2c0.3-0.1,0.5-0.3,0.7-0.5c0.2-0.2,0.4-0.5,0.5-0.8c0.1-0.3,0.2-0.6,0.1-1c0-0.3-0.1-0.7-0.2-0.9
			c-0.1-0.3-0.3-0.5-0.5-0.8C27,9.2,26.8,9,26.5,8.9C26.2,8.8,25.9,8.7,25.6,8.7"/>
	</g>
</g>
</svg>
