<?xml version="1.0" encoding="utf-8"?>
<!-- Generator: Adobe Illustrator 23.0.4, SVG Export Plug-In . SVG Version: 6.00 Build 0)  -->
<svg version="1.1" id="Layer_1" xmlns="http://www.w3.org/2000/svg" xmlns:xlink="http://www.w3.org/1999/xlink" x="0px" y="0px"
	 viewBox="0 0 28 20" style="enable-background:new 0 0 28 20;" xml:space="preserve">
<style type="text/css">
	.st0{clip-path:url(#SVGID_2_);fill:#22E0B6;}
	.st1{fill:#6D92CC;}
	.st2{fill:#22E0B6;}
	.st3{fill:#8E65B3;}
	.st4{fill:#CC9EF5;}
	.st5{fill-rule:evenodd;clip-rule:evenodd;fill:none;}
	.st6{fill-rule:evenodd;clip-rule:evenodd;fill:#6D92CC;}
	.st7{fill-rule:evenodd;clip-rule:evenodd;fill:#22E0B6;}
</style>
<title>icon--machine-learning--big</title>
<desc>Created with Sketch.</desc>
<g>
	<defs>
		<circle id="SVGID_1_" cx="11.7" cy="-13.3" r="2.7"/>
	</defs>
	<use xlink:href="#SVGID_1_"  style="overflow:visible;fill:#22E0B6;"/>
	<clipPath id="SVGID_2_">
		<use xlink:href="#SVGID_1_"  style="overflow:visible;"/>
	</clipPath>
	<rect x="6" y="-19.1" class="st0" width="11.5" height="11.5"/>
</g>
<path class="st1" d="M11.7-19.5c-0.3,0-0.6-0.3-0.6-0.6v-2.7c0-0.3,0.3-0.6,0.6-0.6s0.6,0.3,0.6,0.6v2.7
	C12.3-19.8,12.1-19.5,11.7-19.5z"/>
<path class="st1" d="M11.7-3.6c-0.3,0-0.6-0.3-0.6-0.6V-7c0-0.3,0.3-0.6,0.6-0.6s0.6,0.3,0.6,0.6v2.7C12.3-3.9,12.1-3.6,11.7-3.6z"
	/>
<path class="st2" d="M16.4-17.6c-0.2,0-0.3-0.1-0.4-0.2c-0.2-0.2-0.2-0.6,0-0.9l1.9-1.9c0.2-0.2,0.6-0.2,0.9,0s0.2,0.6,0,0.9
	l-1.9,1.9C16.7-17.7,16.5-17.6,16.4-17.6z"/>
<path class="st2" d="M5.1-6.4C5-6.4,4.8-6.4,4.7-6.5c-0.2-0.2-0.2-0.6,0-0.9l1.9-1.9c0.2-0.2,0.6-0.2,0.9,0s0.2,0.6,0,0.9L5.6-6.5
	C5.5-6.4,5.3-6.4,5.1-6.4z"/>
<path class="st3" d="M18.3-6.4c-0.2,0-0.3-0.1-0.4-0.2l-1.9-1.9c-0.2-0.2-0.2-0.6,0-0.9c0.2-0.2,0.6-0.2,0.9,0l1.9,1.9
	c0.2,0.2,0.2,0.6,0,0.9C18.6-6.4,18.5-6.4,18.3-6.4z"/>
<path class="st3" d="M7.1-17.6c-0.2,0-0.3-0.1-0.4-0.2l-1.9-1.9c-0.2-0.2-0.2-0.6,0-0.9s0.6-0.2,0.9,0l1.9,1.9
	c0.2,0.2,0.2,0.6,0,0.9C7.4-17.7,7.2-17.6,7.1-17.6z"/>
<path class="st4" d="M21-12.9h-2.7c-0.3,0-0.6-0.3-0.6-0.6s0.3-0.6,0.6-0.6H21c0.3,0,0.6,0.3,0.6,0.6S21.4-12.9,21-12.9z"/>
<path class="st4" d="M5.1-12.9H2.4c-0.3,0-0.6-0.3-0.6-0.6s0.3-0.6,0.6-0.6h2.7c0.3,0,0.6,0.3,0.6,0.6S5.5-12.9,5.1-12.9z"/>
<rect x="-9.7" y="-7.4" class="st5" width="45.6" height="45"/>
<path class="st5" d="M6.9,28.3H4c-0.4,0-0.7,0.3-0.7,0.7c0,0.4,0.3,0.7,0.7,0.7h2.9c0.4,0,0.7-0.3,0.7-0.7
	C7.6,28.6,7.3,28.3,6.9,28.3"/>
<path class="st6" d="M12.7,14.6c-0.1,0-0.2,0-0.4-0.1c-2.4-1.5-5.7-1.5-8.2,0c-0.3,0.2-0.7,0.1-0.9-0.2C3,14,3.1,13.5,3.5,13.3
	C4.9,12.5,6.5,12,8.2,12c1.7,0,3.4,0.5,4.8,1.3c0.3,0.2,0.4,0.6,0.2,0.9C13.1,14.5,12.9,14.6,12.7,14.6"/>
<path class="st6" d="M8.2,11.1c-2.1,0-3.7-1.7-3.7-3.7c0-2,1.7-3.7,3.7-3.7c2.1,0,3.7,1.7,3.7,3.7C12,9.5,10.3,11.1,8.2,11.1
	 M8.2,5.1c-1.3,0-2.4,1.1-2.4,2.3c0,1.3,1.1,2.3,2.4,2.3s2.4-1.1,2.4-2.3C10.6,6.1,9.6,5.1,8.2,5.1"/>
<path class="st7" d="M4.4,2.5c-0.4-0.3-0.9-0.3-1.3,0c-0.4,0.3-0.4,0.9,0,1.3l0.6,0.6c0.4,0.3,0.9,0.3,1.3,0c0.4-0.3,0.4-0.9,0-1.3
	L4.4,2.5z"/>
<path class="st7" d="M3.7,7.5c0-0.5-0.4-0.9-0.9-0.9H1.9C1.4,6.6,1,7,1,7.5s0.4,0.9,0.9,0.9h0.9C3.3,8.4,3.7,8,3.7,7.5"/>
<path class="st7" d="M8.2,3.1c0.5,0,0.9-0.4,0.9-0.9V1.3c0-0.5-0.4-0.9-0.9-0.9c-0.5,0-0.9,0.4-0.9,0.9v0.9C7.3,2.7,7.7,3.1,8.2,3.1
	"/>
<path class="st7" d="M12.7,4.4l0.6-0.6c0.4-0.3,0.4-0.9,0-1.3c-0.4-0.3-0.9-0.3-1.3,0l-0.6,0.6c-0.4,0.3-0.4,0.9,0,1.3
	C11.8,4.7,12.4,4.7,12.7,4.4"/>
<path class="st7" d="M14.6,6.6h-0.9c-0.5,0-0.9,0.4-0.9,0.9s0.4,0.9,0.9,0.9h0.9c0.5,0,0.9-0.4,0.9-0.9S15.1,6.6,14.6,6.6"/>
<path class="st6" d="M15.4,17.1c-0.2,0-0.4-0.1-0.6-0.3c-0.2-0.3-0.1-0.7,0.2-0.9c1.8-1.1,3.9-1.4,5.9-0.9c0.4,0.1,0.6,0.5,0.5,0.8
	c-0.1,0.4-0.5,0.6-0.8,0.5c-1.6-0.4-3.4-0.2-4.9,0.7C15.6,17.1,15.5,17.1,15.4,17.1"/>
<path class="st6" d="M13.5,18.7c-0.2,0-0.3-0.1-0.4-0.2c-0.3-0.2-0.3-0.7-0.1-0.9c0.1-0.2,0.3-0.3,0.5-0.5c0.5-0.5,1-0.8,1.5-1.2
	c0.3-0.2,0.7-0.1,0.9,0.2c0.2,0.3,0.1,0.7-0.2,0.9c-0.5,0.3-0.9,0.6-1.3,1c-0.1,0.1-0.3,0.3-0.4,0.4C13.9,18.6,13.7,18.7,13.5,18.7"
	/>
<path class="st6" d="M19,13.9c-1.8,0-3.2-1.4-3.2-3.1c0-1.7,1.4-3.1,3.2-3.1c1.8,0,3.2,1.4,3.2,3.1C22.2,12.5,20.8,13.9,19,13.9
	 M19,8.9c-1,0-1.8,0.8-1.8,1.8c0,1,0.8,1.8,1.8,1.8c1,0,1.8-0.8,1.8-1.8C20.8,9.7,20,8.9,19,8.9"/>
<path class="st7" d="M14.9,10.6c0-0.5-0.4-0.9-0.9-0.9h-0.9c-0.5,0-0.9,0.4-0.9,0.9s0.4,0.9,0.9,0.9H14
	C14.5,11.5,14.9,11.1,14.9,10.6"/>
<path class="st7" d="M19.4,6.2c0.5,0,0.9-0.4,0.9-0.9V4.4c0-0.5-0.4-0.9-0.9-0.9c-0.5,0-0.9,0.4-0.9,0.9v0.9
	C18.5,5.8,18.9,6.2,19.4,6.2"/>
<path class="st7" d="M23.9,7.5l0.6-0.6c0.4-0.3,0.4-0.9,0-1.3c-0.4-0.3-0.9-0.3-1.3,0l-0.6,0.6c-0.4,0.3-0.4,0.9,0,1.3
	C22.9,7.8,23.5,7.8,23.9,7.5"/>
<path class="st7" d="M26.7,10.6c0-0.5-0.4-0.9-0.9-0.9h-0.9c-0.5,0-0.9,0.4-0.9,0.9s0.4,0.9,0.9,0.9h0.9
	C26.3,11.5,26.7,11.1,26.7,10.6"/>
</svg>
