<?xml version="1.0" encoding="utf-8"?>
<!-- Generator: Adobe Illustrator 23.0.4, SVG Export Plug-In . SVG Version: 6.00 Build 0)  -->
<svg version="1.1" id="Layer_1" xmlns="http://www.w3.org/2000/svg" xmlns:xlink="http://www.w3.org/1999/xlink" x="0px" y="0px"
	 viewBox="0 0 39 19" style="enable-background:new 0 0 39 19;" xml:space="preserve">
<style type="text/css">
	.st0{fill:#598DB7;}
	.st1{fill:#8FCEFC;}
</style>
<title>icon--robotics--big</title>
<desc>Created with Sketch.</desc>
<g id="New-Menu">
	<g id="Homepage-Copy-2" transform="translate(-1447.000000, -114.000000)">
		<g id="icon--robotics--big" transform="translate(1447.215849, 114.000000)">
			<path id="Path" class="st0" d="M14.7,1.3h-14C0.4,1.3,0.1,1,0.1,0.7s0.3-0.6,0.6-0.6l0,0h14c0.3,0,0.6,0.3,0.6,0.6
				S15,1.3,14.7,1.3z"/>
			<path class="st0" d="M38.1,1.3H24c-0.3,0-0.6-0.3-0.6-0.6s0.3-0.6,0.6-0.6h14c0.3,0,0.6,0.3,0.6,0.6S38.4,1.3,38.1,1.3z"/>
			<path class="st1" d="M28.1,5.5c-0.9,0-2-0.2-3.3-0.4c-1.6-0.3-3.5-0.6-5.5-0.6s-3.9,0.4-5.5,0.7c-2.4,0.4-4.2,0.8-5.5-0.2
				c-0.9-0.7-1.3-2-1.3-4.1c0-0.3,0.3-0.6,0.6-0.6c0.3,0,0.6,0.3,0.6,0.6c0,1.7,0.3,2.7,0.8,3.2c0.8,0.7,2.4,0.4,4.5,0
				c1.7-0.3,3.6-0.7,5.7-0.7s4.1,0.4,5.7,0.7c2.1,0.4,3.7,0.7,4.5,0c0.6-0.5,0.8-1.5,0.8-3.2c0-0.3,0.3-0.6,0.6-0.6
				c0.3,0,0.6,0.3,0.6,0.6c0,2.1-0.4,3.4-1.3,4.1C29.8,5.3,29,5.5,28.1,5.5z"/>
			<path id="Shape" class="st0" d="M19.3,7.4c-1.2,0-2.1,0.9-2.1,2.1c0,1.2,0.9,2.1,2.1,2.1c1.2,0,2.1-0.9,2.1-2.1
				C21.5,8.4,20.5,7.4,19.3,7.4z M19.3,10.5c-0.5,0-1-0.4-1-1c0-0.5,0.4-1,1-1s1,0.4,1,1l0,0C20.3,10.1,19.9,10.5,19.3,10.5
				L19.3,10.5z"/>
			<path class="st1" d="M19.3,18.9L19.3,18.9c-5.1,0-7.9-5.3-7.9-14.9c0-0.3,0.3-0.6,0.6-0.6c0.3,0,0.6,0.3,0.6,0.6
				c0,5.1,0.9,13.7,6.7,13.7c1.2,0,2.3-0.5,3.2-1.4c2.2-2.2,3.5-6.9,3.5-12.3c0-0.3,0.3-0.6,0.6-0.6c0.3,0,0.6,0.3,0.6,0.6
				c0,5.8-1.5,10.8-3.9,13.2C22.2,18.4,20.9,18.9,19.3,18.9z"/>
			<path class="st1" d="M12.1,18.9c-0.3,0-0.6-0.3-0.6-0.6c0-0.1,0-0.2,0.1-0.3l2.1-3.3c0.2-0.3,0.6-0.4,0.8-0.2
				c0.3,0.2,0.4,0.6,0.2,0.8l-2.1,3.3C12.5,18.8,12.3,18.9,12.1,18.9z"/>
			<path class="st1" d="M26.7,18.9c-0.2,0-0.4-0.1-0.5-0.3l-2.1-3.3c-0.2-0.3-0.1-0.7,0.2-0.8s0.7-0.1,0.8,0.2l0,0l2.1,3.3
				c0.2,0.3,0.1,0.7-0.2,0.8C26.9,18.9,26.8,18.9,26.7,18.9z"/>
		</g>
	</g>
</g>
</svg>
