<?xml version="1.0" encoding="utf-8"?>
<!-- Generator: Adobe Illustrator 23.0.4, SVG Export Plug-In . SVG Version: 6.00 Build 0)  -->
<svg version="1.1" id="Layer_1" xmlns="http://www.w3.org/2000/svg" xmlns:xlink="http://www.w3.org/1999/xlink" x="0px" y="0px"
	 viewBox="0 0 28 20" style="enable-background:new 0 0 28 20;" xml:space="preserve">
<style type="text/css">
	.st0{fill-rule:evenodd;clip-rule:evenodd;fill:#22E0B6;}
	.st1{fill-rule:evenodd;clip-rule:evenodd;fill:#8FCEFC;}
	.st2{fill-rule:evenodd;clip-rule:evenodd;fill:#CC9EF5;}
	.st3{fill-rule:evenodd;clip-rule:evenodd;fill:#8E65B3;}
</style>
<path class="st0" d="M15.3,3.3L16,2.4c0.1-0.1,0.3-0.2,0.5-0.1l0,0c0.1,0.1,0.2,0.3,0.1,0.5l-0.6,0.8c-0.1,0.1-0.3,0.2-0.5,0.1l0,0
	C15.3,3.6,15.2,3.4,15.3,3.3"/>
<path class="st0" d="M15.6,4.9l0.6-0.8c0.1-0.1,0.3-0.2,0.5-0.1l0,0c0.1,0.1,0.2,0.3,0.1,0.5l-0.6,0.8c-0.1,0.1-0.3,0.2-0.5,0.1l0,0
	C15.5,5.3,15.5,5.1,15.6,4.9"/>
<path class="st0" d="M13.7,3.4l0.6-0.8c0.1-0.1,0.3-0.2,0.5-0.1l0,0c0.1,0.1,0.2,0.3,0.1,0.5l-0.6,0.8C14.1,4,13.9,4,13.7,3.9l0,0
	C13.6,3.8,13.5,3.5,13.7,3.4"/>
<path class="st0" d="M5.5,16.4l0.6-0.8c0.1-0.1,0.3-0.2,0.5-0.1l0,0c0.1,0.1,0.2,0.3,0.1,0.5L6,16.8C5.9,17,5.7,17,5.6,16.9l0,0
	C5.4,16.8,5.4,16.6,5.5,16.4"/>
<path class="st0" d="M5.7,18l0.6-0.8C6.4,17,6.6,17,6.8,17.1l0,0C7,17.2,7,17.4,6.9,17.5l-0.6,0.8c-0.1,0.1-0.3,0.2-0.5,0.1l0,0
	C5.6,18.3,5.6,18.1,5.7,18"/>
<path class="st0" d="M7.1,16.2l0.6-0.8c0.1-0.1,0.3-0.2,0.5-0.1l0,0c0.1,0.1,0.2,0.3,0.1,0.5l-0.6,0.8c-0.1,0.1-0.3,0.2-0.5,0.1l0,0
	C7,16.5,7,16.3,7.1,16.2"/>
<path class="st0" d="M5.2,14.7l0.6-0.8c0.1-0.1,0.3-0.2,0.5-0.1l0,0c0.1,0.1,0.2,0.3,0.1,0.5l-0.6,0.8c-0.1,0.1-0.3,0.2-0.5,0.1l0,0
	C5.1,15,5.1,14.8,5.2,14.7"/>
<title>icon--machine-learning--big</title>
<desc>Created with Sketch.</desc>
<path class="st1" d="M17.9,15.9l-1.4-1.1c-1.4,1.5-3.3,2.4-5.5,2.4c-4.2,0-7.6-3.4-7.6-7.6S6.8,2,11,2c4.2,0,7.6,3.4,7.6,7.6
	c0,1.3-0.3,2.5-0.9,3.5l1.4,1.1c0.4-0.1,0.8,0,1.2,0.3l2.8,2.1c0.7,0.5,0.8,1.4,0.3,2.1l-0.1,0.1c-0.5,0.7-1.4,0.8-2.1,0.3L18.5,17
	C18.2,16.7,18,16.3,17.9,15.9z M11,15.8c-3.4,0-6.1-2.8-6.1-6.2c0-3.4,2.7-6.2,6.1-6.2s6.1,2.8,6.1,6.2C17.1,13.1,14.4,15.8,11,15.8
	"/>
<path class="st0" d="M9,11.5l0.6-0.8c0.1-0.1,0.3-0.2,0.5-0.1l0,0c0.1,0.1,0.2,0.3,0.1,0.5l-0.6,0.8c-0.1,0.1-0.3,0.2-0.5,0.1l0,0
	C8.9,11.9,8.9,11.7,9,11.5"/>
<path class="st0" d="M7.6,13.3l0.6-0.8c0.1-0.1,0.3-0.2,0.5-0.1l0,0c0.1,0.1,0.2,0.3,0.1,0.5l-0.6,0.8c-0.1,0.1-0.3,0.2-0.5,0.1l0,0
	C7.5,13.7,7.5,13.5,7.6,13.3"/>
<path class="st0" d="M10.6,9.4l0.2-0.3c0.1-0.1,0.3-0.2,0.5-0.1l0,0c0.1,0.1,0.2,0.3,0.1,0.5l-0.2,0.3c-0.1,0.1-0.3,0.2-0.5,0.1l0,0
	C10.5,9.7,10.5,9.5,10.6,9.4"/>
<path class="st2" d="M11.8,7.9L12.5,7c0.1-0.1,0.3-0.2,0.5-0.1l0,0c0.1,0.1,0.2,0.3,0.1,0.5l-0.6,0.8c-0.1,0.1-0.3,0.2-0.5,0.1l0,0
	C11.8,8.2,11.7,8,11.8,7.9"/>
<path class="st0" d="M13.2,6l0.6-0.8C13.9,5,14.1,5,14.3,5.1l0,0c0.1,0.1,0.2,0.3,0.1,0.5l-0.6,0.8c-0.1,0.1-0.3,0.2-0.5,0.1l0,0
	C13.1,6.3,13.1,6.1,13.2,6"/>
<path class="st0" d="M9.2,13.2l0.6-0.8c0.1-0.1,0.3-0.2,0.5-0.1l0,0c0.1,0.1,0.2,0.3,0.1,0.5l-0.6,0.8c-0.1,0.1-0.3,0.2-0.5,0.1l0,0
	C9.2,13.5,9.1,13.3,9.2,13.2"/>
<path class="st0" d="M10.6,11.3l0.6-0.8c0.1-0.1,0.3-0.2,0.5-0.1l0,0c0.1,0.1,0.2,0.3,0.1,0.5l-0.6,0.8c-0.1,0.1-0.3,0.2-0.5,0.1
	l0,0C10.5,11.7,10.5,11.5,10.6,11.3"/>
<path class="st3" d="M12.1,9.5l0.6-0.8c0.1-0.1,0.3-0.2,0.5-0.1l0,0c0.1,0.1,0.2,0.3,0.1,0.5l-0.6,0.8c-0.1,0.1-0.3,0.2-0.5,0.1l0,0
	C12,9.9,12,9.7,12.1,9.5"/>
<path class="st2" d="M13.5,7.6l0.6-0.8c0.1-0.1,0.3-0.2,0.5-0.1l0,0c0.1,0.1,0.2,0.3,0.1,0.5L14,8c-0.1,0.1-0.3,0.2-0.5,0.1l0,0
	C13.4,8,13.4,7.8,13.5,7.6"/>
<path class="st3" d="M7.3,11.7l0.6-0.8c0.1-0.1,0.3-0.2,0.5-0.1l0,0c0.1,0.1,0.2,0.3,0.1,0.5l-0.6,0.8c-0.1,0.1-0.3,0.2-0.5,0.1l0,0
	C7.2,12,7.2,11.8,7.3,11.7"/>
<path class="st2" d="M8.7,9.8L9.3,9c0.1-0.1,0.3-0.2,0.5-0.1l0,0C9.9,9,10,9.2,9.8,9.4l-0.6,0.8c-0.1,0.1-0.3,0.2-0.5,0.1l0,0
	C8.6,10.2,8.6,10,8.7,9.8"/>
<path class="st0" d="M10.1,8l0.6-0.8C10.9,7,11.1,7,11.2,7.1l0,0c0.1,0.1,0.2,0.3,0.1,0.5l-0.6,0.8c-0.1,0.1-0.3,0.2-0.5,0.1l0,0
	C10.1,8.4,10,8.1,10.1,8"/>
<path class="st3" d="M11.5,6.1l0.6-0.8c0.1-0.1,0.3-0.2,0.5-0.1l0,0c0.1,0.1,0.2,0.3,0.1,0.5l-0.6,0.8c-0.1,0.1-0.3,0.2-0.5,0.1l0,0
	C11.4,6.5,11.4,6.3,11.5,6.1"/>
<path class="st0" d="M15,1.5l0.6-0.8c0.1-0.1,0.3-0.2,0.5-0.1l0,0c0.1,0.1,0.2,0.3,0.1,0.5l-0.6,0.8c-0.1,0.1-0.3,0.2-0.5,0.1l0,0
	C14.9,1.9,14.9,1.7,15,1.5"/>
</svg>
