<?xml version="1.0" encoding="utf-8"?>
<!-- Generator: Adobe Illustrator 23.0.2, SVG Export Plug-In . SVG Version: 6.00 Build 0)  -->
<svg version="1.1" xmlns="http://www.w3.org/2000/svg" xmlns:xlink="http://www.w3.org/1999/xlink" x="0px" y="0px" width="44px"
	 height="44px" viewBox="0 0 44 44" style="enable-background:new 0 0 44 44;" xml:space="preserve">
<style type="text/css">
	.st0{opacity:6.000000e-02;fill-rule:evenodd;clip-rule:evenodd;fill:#00A3FF;}
	.st1{fill:#00A3FF;}
	.st2{fill:#15CCCC;}
	.st3{fill:#577FA1;}
</style>
<g id="Layer_2">
	<circle id="Oval-2-Copy-2" class="st0" cx="21.8" cy="22.3" r="21.5"/>
</g>
<g id="Layer_1">
	<g id="icon_ifix" transform="translate(13.754546, 13.251953)">
		<g>
			<path id="Rectangle-path" class="st1" d="M0.8,18.1L0.8,18.1c0.3,0,0.5,0.2,0.5,0.5v1.8c0,0.3-0.2,0.5-0.5,0.5l0,0
				c-0.3,0-0.5-0.2-0.5-0.5v-1.8C0.3,18.3,0.5,18.1,0.8,18.1z"/>
			<path class="st1" d="M7.8,13L7.8,13c0.3,0,0.5,0.2,0.5,0.5v3.8c0,0.3-0.2,0.5-0.5,0.5h0c-0.3,0-0.5-0.2-0.5-0.5v-3.8
				C7.3,13.2,7.5,13,7.8,13z"/>
			<path class="st1" d="M3.1,16.7L3.1,16.7c0.3,0,0.5,0.2,0.5,0.5v1.9c0,0.3-0.2,0.5-0.5,0.5l0,0c-0.3,0-0.5-0.2-0.5-0.5v-1.9
				C2.6,16.9,2.8,16.7,3.1,16.7z"/>
			<path class="st1" d="M5.5,14.4L5.5,14.4c0.3,0,0.5,0.2,0.5,0.5v1.2c0,0.3-0.2,0.5-0.5,0.5l0,0c-0.3,0-0.5-0.2-0.5-0.5v-1.2
				C4.9,14.6,5.2,14.4,5.5,14.4z"/>
			<path class="st2" d="M12.5,9.1L12.5,9.1c0.3,0,0.5,0.2,0.5,0.5v5.5c0,0.3-0.2,0.5-0.5,0.5h0c-0.3,0-0.5-0.2-0.5-0.5V9.6
				C12,9.3,12.2,9.1,12.5,9.1z"/>
			<path class="st2" d="M14.8,8L14.8,8c0.3,0,0.5,0.2,0.5,0.5v9.1c0,0.3-0.2,0.5-0.5,0.5h0c-0.3,0-0.5-0.2-0.5-0.5V8.5
				C14.3,8.2,14.5,8,14.8,8z"/>
			<path class="st2" d="M0.8,9L0.8,9c0.3,0,0.5,0.2,0.5,0.5v6.8c0,0.3-0.2,0.5-0.5,0.5l0,0c-0.3,0-0.5-0.2-0.5-0.5V9.5
				C0.3,9.2,0.5,9,0.8,9z"/>
			<path class="st2" d="M7.8,9L7.8,9c0.3,0,0.5,0.2,0.5,0.5v1.6c0,0.3-0.2,0.5-0.5,0.5h0c-0.3,0-0.5-0.2-0.5-0.5V9.5
				C7.3,9.2,7.5,9,7.8,9z"/>
			<path class="st2" d="M10.2,9L10.2,9c0.3,0,0.5,0.2,0.5,0.5v0.3c0,0.3-0.2,0.5-0.5,0.5h0c-0.3,0-0.5-0.2-0.5-0.5V9.5
				C9.6,9.2,9.9,9,10.2,9z"/>
			<path class="st2" d="M3.1,9L3.1,9c0.3,0,0.5,0.2,0.5,0.5v5.4c0,0.3-0.2,0.5-0.5,0.5l0,0c-0.3,0-0.5-0.2-0.5-0.5V9.5
				C2.6,9.2,2.8,9,3.1,9z"/>
			<path class="st2" d="M5.5,9L5.5,9C5.8,9,6,9.2,6,9.5v3c0,0.3-0.2,0.5-0.5,0.5l0,0c-0.3,0-0.5-0.2-0.5-0.5v-3C4.9,9.2,5.2,9,5.5,9
				z"/>
			<path class="st1" d="M12.5,0.4L12.5,0.4c0.3,0,0.5,0.2,0.5,0.5v6.5C13,7.7,12.8,8,12.5,8h0C12.2,8,12,7.7,12,7.4V0.9
				C12,0.6,12.2,0.4,12.5,0.4z"/>
			<path class="st1" d="M14.8,0.4L14.8,0.4c0.3,0,0.5,0.2,0.5,0.5v5.3c0,0.3-0.2,0.5-0.5,0.5h0c-0.3,0-0.5-0.2-0.5-0.5V0.9
				C14.3,0.6,14.5,0.4,14.8,0.4z"/>
			<path id="Shape" class="st1" d="M8.9,2.7c0.6,0,1.2-0.5,1.2-1.2S9.5,0.3,8.9,0.3S7.7,0.9,7.7,1.5S8.2,2.7,8.9,2.7"/>
			<path id="Shape-Copy" class="st1" d="M1.3,2.7c0.6,0,1.2-0.5,1.2-1.2S2,0.3,1.3,0.3S0.2,0.9,0.2,1.5S0.7,2.7,1.3,2.7"/>
			<path class="st1" d="M5.1,0.1L5.1,0.1c0.3,0,0.5,0.2,0.5,0.5l0,1.7c0,0.3-0.2,0.5-0.5,0.5l0,0c-0.3,0-0.5-0.2-0.5-0.5l0-1.7
				C4.5,0.4,4.8,0.1,5.1,0.1z"/>
			<path class="st1" d="M10.2,11.7L10.2,11.7c0.3,0,0.5,0.2,0.5,0.5v3.9c0,0.3-0.2,0.5-0.5,0.5h0c-0.3,0-0.5-0.2-0.5-0.5v-3.9
				C9.6,11.9,9.9,11.7,10.2,11.7z"/>
		</g>
		<path id="FIX" class="st3" d="M0.3,7.7C0.3,7.7,0.3,7.7,0.3,7.7l0-3.7c0,0,0-0.1,0-0.1c0,0,0.1,0,0.1,0H3c0,0,0.1,0,0.1,0
			c0,0,0,0.1,0,0.1v0.6c0,0,0,0.1,0,0.1c0,0-0.1,0-0.1,0H1.3v0.8h1.6c0,0,0.1,0,0.1,0c0,0,0,0.1,0,0.1v0.6c0,0,0,0.1,0,0.1
			c0,0-0.1,0-0.1,0H1.3v1.2c0,0,0,0.1,0,0.1c0,0-0.1,0-0.1,0L0.3,7.7C0.4,7.8,0.4,7.8,0.3,7.7z M4.5,7.7C4.5,7.7,4.5,7.7,4.5,7.7
			l0-3.7c0,0,0-0.1,0-0.1c0,0,0.1,0,0.1,0h0.8c0,0,0.1,0,0.1,0c0,0,0,0.1,0,0.1v3.6c0,0,0,0.1,0,0.1c0,0-0.1,0-0.1,0L4.5,7.7
			C4.6,7.8,4.6,7.8,4.5,7.7z M6.7,7.7C6.7,7.7,6.7,7.7,6.7,7.7c0-0.1,0-0.1,0-0.1L8,5.8L6.8,4c0,0,0,0,0-0.1c0,0,0-0.1,0-0.1
			c0,0,0.1,0,0.1,0h0.9c0.1,0,0.1,0,0.2,0.1l0.6,1l0.7-1c0.1-0.1,0.1-0.1,0.2-0.1h0.8c0,0,0.1,0,0.1,0c0,0,0,0.1,0,0.1
			c0,0,0,0,0,0.1L9.3,5.8l1.2,1.8c0,0,0,0,0,0.1c0,0,0,0.1,0,0.1c0,0-0.1,0-0.1,0H9.5c-0.1,0-0.1,0-0.2-0.1l-0.7-1l-0.7,1
			c0,0.1-0.1,0.1-0.2,0.1L6.7,7.7C6.8,7.8,6.8,7.8,6.7,7.7z"/>
	</g>
</g>
</svg>
