<?xml version="1.0" encoding="utf-8"?>
<!-- Generator: Adobe Illustrator 23.0.2, SVG Export Plug-In . SVG Version: 6.00 Build 0)  -->
<svg version="1.1" xmlns="http://www.w3.org/2000/svg" xmlns:xlink="http://www.w3.org/1999/xlink" x="0px" y="0px" width="43px"
	 height="44px" viewBox="0 0 43 44" style="enable-background:new 0 0 43 44;" xml:space="preserve">
<style type="text/css">
	.st0{opacity:6.000000e-02;fill-rule:evenodd;clip-rule:evenodd;fill:#00A3FF;}
	.st1{fill-rule:evenodd;clip-rule:evenodd;fill:#15CCCC;}
	.st2{fill-rule:evenodd;clip-rule:evenodd;fill:#00A3FF;}
	.st3{fill-rule:evenodd;clip-rule:evenodd;fill:#27D7CD;}
</style>
<g id="background">
	<circle id="Oval-2-Copy" class="st0" cx="21.5" cy="22.1" r="21.5"/>
</g>
<g id="Layer_1">
	<title>Group 4</title>
	<desc>Created with Sketch.</desc>
	<g id="ipl-copy" transform="translate(10.269194, 11.132812)">
		<path id="Fill-1" class="st1" d="M5.2,9.5c0.4,0,0.7-0.3,0.7-0.7c0-0.4-0.3-0.7-0.7-0.7c-0.4,0-0.7,0.3-0.7,0.7
			C4.5,9.2,4.8,9.5,5.2,9.5"/>
		<path id="Fill-3" class="st1" d="M9.5,9.5c0.4,0,0.7-0.3,0.7-0.7c0-0.4-0.3-0.7-0.7-0.7c-0.4,0-0.7,0.3-0.7,0.7
			C8.8,9.2,9.1,9.5,9.5,9.5"/>
		<path id="Fill-5" class="st1" d="M7.4,8c0.2,0,0.3,0.1,0.3,0.3v0.9c0,0.2-0.1,0.3-0.3,0.3C7.2,9.6,7,9.5,7,9.3V8.4
			C7,8.2,7.2,8,7.4,8"/>
		<path id="Fill-7" class="st1" d="M11.7,2L11.7,2L11.7,2c-0.6,0-1-0.4-1-1s0.4-1,1-1l0.1,0c0.5,0,1,0.4,1,1C12.7,1.6,12.2,2,11.7,2
			z"/>
		<path id="Path" class="st2" d="M4.8,4.5c-0.3,0-0.6-0.1-0.8-0.4c-0.3-0.4-0.3-1,0.1-1.4c1-0.9,2.2-1.5,3.5-2
			c0.5-0.2,1.1,0.1,1.3,0.6c0.2,0.5-0.1,1.1-0.6,1.3C7.3,3,6.3,3.5,5.4,4.2C5.3,4.4,5,4.5,4.8,4.5z"/>
		<path class="st2" d="M18.5,4.5c-0.2,0-0.4-0.1-0.6-0.2c-0.4-0.4-0.9-0.7-1.4-1C16,3,15.5,2.8,15,2.6c-0.5-0.2-0.8-0.7-0.6-1.3
			c0.2-0.5,0.7-0.8,1.3-0.6c0.6,0.2,1.2,0.5,1.8,0.8c0.6,0.3,1.2,0.7,1.7,1.2c0.4,0.3,0.5,1,0.1,1.4C19,4.4,18.7,4.5,18.5,4.5z"/>
		<path class="st1" d="M2.4,7.3c-0.2,0-0.3,0-0.5-0.1C1.4,6.9,1.3,6.3,1.6,5.9l0-0.1c0.3-0.5,0.9-0.6,1.3-0.4
			c0.5,0.3,0.6,0.9,0.4,1.3l0,0.1C3.1,7.1,2.7,7.3,2.4,7.3z"/>
		<path class="st1" d="M20.9,7.4c-0.3,0-0.7-0.2-0.9-0.5l0-0.1c-0.3-0.5-0.1-1.1,0.4-1.3c0.5-0.3,1.1-0.1,1.3,0.4l0,0.1
			C22,6.4,21.8,7,21.3,7.2C21.2,7.3,21,7.4,20.9,7.4z"/>
		<path class="st2" d="M1.1,14.4c-0.5,0-0.9-0.3-1-0.8C0.1,13,0,12.3,0,11.6c0-0.7,0.1-1.4,0.2-2c0.1-0.5,0.6-0.9,1.1-0.8
			C1.8,8.9,2.2,9.4,2.1,10C2,10.5,2,11.1,2,11.6c0,0.6,0,1.1,0.1,1.7c0.1,0.5-0.3,1-0.8,1.1C1.2,14.4,1.2,14.4,1.1,14.4z"/>
		<path class="st2" d="M22.1,14.5c-0.1,0-0.1,0-0.2,0c-0.5-0.1-0.9-0.6-0.8-1.1c0.1-0.6,0.1-1.1,0.1-1.7c0-0.6,0-1.1-0.1-1.7
			c-0.1-0.5,0.3-1,0.8-1.1c0.5-0.1,1,0.3,1.1,0.8c0.1,0.7,0.2,1.3,0.2,2c0,0.7-0.1,1.4-0.2,2C23,14.2,22.6,14.5,22.1,14.5z"/>
		<path class="st1" d="M2.4,18c-0.3,0-0.7-0.2-0.8-0.5l0-0.1c-0.3-0.5-0.1-1.1,0.4-1.3C2.4,15.8,3,16,3.2,16.4l0,0.1
			c0.3,0.5,0.1,1.1-0.4,1.3C2.7,17.9,2.6,18,2.4,18z"/>
		<path class="st3" d="M20.8,18c-0.2,0-0.3,0-0.5-0.1c-0.5-0.3-0.6-0.9-0.4-1.3l0-0.1c0.3-0.5,0.9-0.6,1.3-0.4
			c0.5,0.3,0.6,0.9,0.4,1.3l0,0.1C21.5,17.8,21.1,18,20.8,18z"/>
		<path class="st2" d="M7.9,22.6c-0.1,0-0.2,0-0.3-0.1c-0.6-0.2-1.2-0.5-1.8-0.8c-0.6-0.3-1.2-0.7-1.7-1.2c-0.4-0.3-0.5-1-0.1-1.4
			c0.3-0.4,1-0.5,1.4-0.1c0.4,0.4,0.9,0.7,1.4,1c0.5,0.3,1,0.5,1.5,0.7C8.8,20.9,9,21.5,8.9,22C8.7,22.4,8.3,22.6,7.9,22.6z"/>
		<path class="st2" d="M15.2,22.6c-0.4,0-0.8-0.2-0.9-0.6c-0.2-0.5,0.1-1.1,0.6-1.3c1.1-0.4,2-0.9,2.9-1.7c0.4-0.3,1-0.3,1.4,0.1
			c0.3,0.4,0.3,1-0.1,1.4c-1,0.9-2.2,1.5-3.5,2C15.5,22.6,15.3,22.6,15.2,22.6z"/>
		<path class="st1" d="M11.6,23.3L11.6,23.3c-0.6,0-1-0.4-1-1c0-0.5,0.4-1,1-1h0l0.1,0c0.5,0,1,0.4,1,1
			C12.6,22.8,12.2,23.3,11.6,23.3z"/>
		<path id="Fill-10" class="st1" d="M17.8,12.8c0-0.3-0.2-0.5-0.5-0.5H5c-0.3,0-0.5,0.2-0.5,0.5c0,0.3,0.2,0.5,0.5,0.5h12.3
			C17.6,13.3,17.8,13.1,17.8,12.8"/>
		<path id="Fill-12" class="st2" d="M17.3,8.2h-5.2c-0.4,0-0.6,0.3-0.6,0.6s0.3,0.6,0.6,0.6h5.2c0.4,0,0.6-0.3,0.6-0.6
			S17.7,8.2,17.3,8.2"/>
		<path id="Fill-14" class="st1" d="M13.9,10.5H12c-0.3,0-0.5,0.2-0.5,0.5c0,0.3,0.2,0.5,0.5,0.5h1.9c0.3,0,0.5-0.2,0.5-0.5
			C14.3,10.7,14.1,10.5,13.9,10.5"/>
		<path id="Fill-16" class="st1" d="M6.9,10.5H5c-0.3,0-0.5,0.2-0.5,0.5c0,0.3,0.2,0.5,0.5,0.5h1.9c0.3,0,0.5-0.2,0.5-0.5
			C7.3,10.7,7.1,10.5,6.9,10.5"/>
		<path id="Fill-18" class="st2" d="M10.4,10.5H8.5C8.2,10.5,8,10.7,8,11c0,0.3,0.2,0.5,0.5,0.5h1.9c0.3,0,0.5-0.2,0.5-0.5
			C10.8,10.7,10.6,10.5,10.4,10.5"/>
		<path id="Fill-20" class="st2" d="M17.3,10.5h-1.9c-0.3,0-0.5,0.2-0.5,0.5c0,0.3,0.2,0.5,0.5,0.5h1.9c0.3,0,0.5-0.2,0.5-0.5
			C17.8,10.7,17.6,10.5,17.3,10.5"/>
		<path id="Fill-22" class="st1" d="M5.3,14.3H5c-0.3,0-0.5,0.2-0.5,0.5c0,0.3,0.2,0.5,0.5,0.5h0.3c0.3,0,0.5-0.2,0.5-0.5
			C5.8,14.5,5.6,14.3,5.3,14.3"/>
		<path id="Fill-24" class="st2" d="M7,14.3H6.7c-0.3,0-0.5,0.2-0.5,0.5c0,0.3,0.2,0.5,0.5,0.5H7c0.3,0,0.5-0.2,0.5-0.5
			C7.5,14.5,7.3,14.3,7,14.3"/>
		<path id="Fill-26" class="st1" d="M8.7,14.3H8.5c-0.3,0-0.5,0.2-0.5,0.5c0,0.3,0.2,0.5,0.5,0.5h0.3c0.3,0,0.5-0.2,0.5-0.5
			C9.2,14.5,9,14.3,8.7,14.3"/>
		<path id="Fill-28" class="st2" d="M10.5,14.3h-0.3c-0.3,0-0.5,0.2-0.5,0.5c0,0.3,0.2,0.5,0.5,0.5h0.3c0.3,0,0.5-0.2,0.5-0.5
			C10.9,14.5,10.7,14.3,10.5,14.3"/>
		<path id="Fill-30" class="st1" d="M12.2,14.3h-0.3c-0.3,0-0.5,0.2-0.5,0.5c0,0.3,0.2,0.5,0.5,0.5h0.3c0.3,0,0.5-0.2,0.5-0.5
			C12.7,14.5,12.4,14.3,12.2,14.3"/>
		<path id="Fill-32" class="st2" d="M13.9,14.3h-0.3c-0.3,0-0.5,0.2-0.5,0.5c0,0.3,0.2,0.5,0.5,0.5h0.3c0.3,0,0.5-0.2,0.5-0.5
			C14.4,14.5,14.2,14.3,13.9,14.3"/>
		<path id="Fill-34" class="st1" d="M15.6,14.3h-0.3c-0.3,0-0.5,0.2-0.5,0.5c0,0.3,0.2,0.5,0.5,0.5h0.3c0.3,0,0.5-0.2,0.5-0.5
			C16.1,14.5,15.9,14.3,15.6,14.3"/>
		<path id="Fill-36" class="st2" d="M17.3,14.3h-0.3c-0.3,0-0.5,0.2-0.5,0.5c0,0.3,0.2,0.5,0.5,0.5h0.3c0.3,0,0.5-0.2,0.5-0.5
			C17.8,14.5,17.6,14.3,17.3,14.3"/>
	</g>
</g>
</svg>
