<?xml version="1.0" encoding="utf-8"?>
<!-- Generator: Adobe Illustrator 24.3.0, SVG Export Plug-In . SVG Version: 6.00 Build 0)  -->
<svg version="1.1" id="Layer_1" xmlns="http://www.w3.org/2000/svg" xmlns:xlink="http://www.w3.org/1999/xlink" x="0px" y="0px"
	 viewBox="0 0 37 22" style="enable-background:new 0 0 37 22;" xml:space="preserve">
<style type="text/css">
	.st0{fill:none;stroke:#BFD5E7;stroke-width:1.5742;stroke-linecap:round;stroke-linejoin:round;}
	.st1{fill:none;stroke:#6D9FC9;stroke-width:0.9723;stroke-linejoin:round;}
	.st2{fill:#21D8AF;}
	.st3{fill:#6D9FC9;}
</style>
<g>
	<g>
		<polyline class="st0" points="14.4,16.7 16.6,15.5 16.6,13 		"/>
		<polyline class="st0" points="16.6,9.6 16.6,7.1 14.4,5.8 		"/>
		<polyline class="st0" points="11.5,4.1 9.3,2.9 7.2,4.1 		"/>
		<polyline class="st0" points="4.2,5.8 2.1,7.1 2.1,9.6 		"/>
		<polyline class="st0" points="2.1,13 2.1,15.5 4.2,16.7 		"/>
		<polyline class="st0" points="7.2,18.4 9.3,19.7 11.5,18.4 		"/>
	</g>
</g>
<polygon class="st1" points="34.9,15.5 34.9,7.1 27.7,2.9 20.4,7.1 20.4,15.5 27.7,19.7 "/>
<polygon class="st2" points="32.5,14 32.5,8.5 27.7,5.7 22.9,8.5 22.9,14 27.7,16.8 "/>
<g>
	<g>
		<line class="st1" x1="9.4" y1="11" x2="25.1" y2="11"/>
		<g>
			<polygon class="st3" points="24.7,12.5 27.2,11 24.7,9.5 			"/>
		</g>
	</g>
</g>
</svg>
