<?xml version="1.0" encoding="utf-8"?>
<!-- Generator: Adobe Illustrator 23.0.4, SVG Export Plug-In . SVG Version: 6.00 Build 0)  -->
<svg version="1.1" id="Layer_1" xmlns="http://www.w3.org/2000/svg" xmlns:xlink="http://www.w3.org/1999/xlink" x="0px" y="0px"
	 viewBox="0 0 37 22" style="enable-background:new 0 0 37 22;" xml:space="preserve">
<style type="text/css">
	.st0{fill-rule:evenodd;clip-rule:evenodd;fill:#FFFFFF;}
	.st1{fill:none;stroke:#6D9FC9;stroke-width:0.9723;}
	.st2{fill-rule:evenodd;clip-rule:evenodd;fill:#BFD5E7;}
	.st3{fill:none;stroke:#BFD5E7;stroke-linecap:round;stroke-linejoin:round;stroke-miterlimit:10;stroke-dasharray:1,2;}
	.st4{fill:none;stroke:#BFD5E7;stroke-linecap:round;stroke-linejoin:round;stroke-dasharray:1.032,2.0639;}
	.st5{fill:#21D8AF;}
</style>
<g>
	<title>icon--financial--big</title>
	<desc>Created with Sketch.</desc>
	<path class="st0" d="M18.5,12.3c-0.6,0-1.1-0.5-1.1-1.1s0.5-1.1,1.1-1.1c0.6,0,1.1,0.5,1.1,1.1S19.1,12.3,18.5,12.3"/>
	<ellipse transform="matrix(1.900118e-03 -1 1 1.900118e-03 12.809 24.1451)" class="st1" cx="18.5" cy="5.7" rx="5.3" ry="5.3"/>
	<path class="st1" d="M23.8,16.3c0,2.9-2.4,5.3-5.3,5.3c-2.9,0-5.3-2.4-5.3-5.3c0-2.9,2.4-5.3,5.3-5.3C21.4,11,23.8,13.3,23.8,16.3z
		"/>
	<path class="st2" d="M8.4,12.1c0.5,0,0.8-0.4,0.8-0.9c0-0.5-0.4-0.8-0.8-0.9c0,0.3,0,0.6,0,0.9C8.4,11.5,8.4,11.8,8.4,12.1"/>
	<path class="st2" d="M28.5,10.4c-0.5,0-0.8,0.4-0.8,0.9c0,0.5,0.4,0.8,0.8,0.9c0-0.3,0-0.6,0-0.9S28.5,10.6,28.5,10.4"/>
	<path class="st2" d="M8.4,12.1c0.5,0,0.8-0.4,0.8-0.9c0-0.5-0.4-0.8-0.8-0.9c0,0.3,0,0.6,0,0.9S8.4,11.8,8.4,12.1"/>
	<path class="st2" d="M28.4,10.4c-0.5,0-0.8,0.4-0.8,0.9c0,0.5,0.4,0.8,0.8,0.9c0-0.3,0-0.6,0-0.9C28.5,10.9,28.5,10.6,28.4,10.4"/>
	<path class="st3" d="M18.5,16.6c-3,0-5.4-2.4-5.4-5.4c0-3,2.4-5.4,5.4-5.4c3,0,5.4,2.4,5.4,5.4C23.9,14.1,21.5,16.6,18.5,16.6z"/>
	<path class="st3" d="M7.4,11.1c0-3,2.5-5.4,5.5-5.4c3,0,5.4,2.5,5.4,5.5c0,3-2.5,5.4-5.5,5.4C9.8,16.5,7.4,14.1,7.4,11.1z"/>
	<g>
		<path class="st4" d="M29.5,10.8c0.2,3-2,5.6-5,5.8c-3,0.2-5.6-2-5.8-5c-0.2-3,2-5.6,5-5.8C26.7,5.5,29.3,7.8,29.5,10.8z"/>
	</g>
	<path class="st5" d="M7.4,7.8c-1.9,0-3.5,1.6-3.5,3.5c0,1.9,1.6,3.5,3.5,3.5c1.9,0,3.5-1.6,3.5-3.5C10.8,9.3,9.3,7.8,7.4,7.8"/>
	<path class="st5" d="M29.6,14.7c1.9,0,3.5-1.6,3.5-3.5c0-1.9-1.6-3.5-3.5-3.5c-1.9,0-3.5,1.6-3.5,3.5
		C26.2,13.1,27.7,14.7,29.6,14.7"/>
	<path class="st5" d="M16.9,13.1l0-3.7c0-0.9,0.7-1.6,1.6-1.6c0.9,0,1.6,0.7,1.6,1.6l0,3.7c0,0.9-0.7,1.6-1.6,1.6
		C17.6,14.7,16.9,14,16.9,13.1"/>
</g>
</svg>
