<?xml version="1.0" encoding="utf-8"?>
<!-- Generator: Adobe Illustrator 23.0.4, SVG Export Plug-In . SVG Version: 6.00 Build 0)  -->
<svg version="1.1" id="Layer_1" xmlns="http://www.w3.org/2000/svg" xmlns:xlink="http://www.w3.org/1999/xlink" x="0px" y="0px"
	 viewBox="0 0 28 20" style="enable-background:new 0 0 28 20;" xml:space="preserve">
<style type="text/css">
	.st0{fill-rule:evenodd;clip-rule:evenodd;fill:#CC9EF5;}
	.st1{fill-rule:evenodd;clip-rule:evenodd;fill:#8E65B3;}
	.st2{fill-rule:evenodd;clip-rule:evenodd;fill:#8FCEFC;}
	.st3{fill-rule:evenodd;clip-rule:evenodd;fill:#22E0B6;}
</style>
<polygon class="st0" points="17.8,18 9.7,18 9.7,11.4 12.2,11.4 12.2,12.8 11.1,12.8 11.1,16.6 16.5,16.6 16.5,12.1 17.8,12.1 "/>
<title>icon--machine-learning--big</title>
<desc>Created with Sketch.</desc>
<polygon class="st1" points="15,12.8 7,12.8 7,6.3 9.4,6.3 9.4,7.7 8.3,7.7 8.3,11.4 13.7,11.4 13.7,7 15,7 "/>
<polygon class="st2" points="18.9,8.3 16.7,8.3 16.7,7 17.6,7 17.6,3.2 12.2,3.2 12.2,7.7 10.9,7.7 10.9,1.8 18.9,1.8 "/>
<polygon class="st3" points="21.7,13.5 19.5,13.5 19.5,12.1 20.4,12.1 20.4,8.3 15,8.3 15,12.8 13.7,12.8 13.7,7 21.7,7 "/>
</svg>
