<?xml version="1.0" encoding="utf-8"?>
<!-- Generator: Adobe Illustrator 25.2.3, SVG Export Plug-In . SVG Version: 6.00 Build 0)  -->
<svg version="1.1" id="Layer_1" xmlns="http://www.w3.org/2000/svg" xmlns:xlink="http://www.w3.org/1999/xlink" x="0px" y="0px"
	 viewBox="0 0 43 44" style="enable-background:new 0 0 43 44;" xml:space="preserve">
<style type="text/css">
	.st0{opacity:0.8;fill:url(#SVGID_1_);}
	.st1{opacity:0.8;fill:url(#SVGID_2_);}
	.st2{opacity:0.8;fill:url(#SVGID_3_);}
	.st3{opacity:0.8;fill:url(#SVGID_4_);}
	.st4{opacity:0.8;fill:url(#SVGID_5_);}
</style>
<g>
	
		<linearGradient id="SVGID_1_" gradientUnits="userSpaceOnUse" x1="4150.8921" y1="120.2356" x2="4126.8032" y2="120.2356" gradientTransform="matrix(6.500000e-13 1 -1 6.500000e-13 141.5473 -4117.1299)">
		<stop  offset="0" style="stop-color:#0088FF"/>
		<stop  offset="1" style="stop-color:#00F0B4"/>
	</linearGradient>
	<path class="st0" d="M9.3,21.7L9.3,21.7c0-6.6,5.4-12,12-12h0c6.6,0,12,5.4,12,12v0c0,6.6-5.4,12-12,12h0
		C14.7,33.8,9.3,28.3,9.3,21.7z"/>
	
		<linearGradient id="SVGID_2_" gradientUnits="userSpaceOnUse" x1="3591.5955" y1="-4957.6934" x2="3574.0105" y2="-4957.6934" gradientTransform="matrix(-0.7071 -0.7071 0.7071 -0.7071 6070.1504 -940.6805)">
		<stop  offset="0" style="stop-color:#7656F0"/>
		<stop  offset="1" style="stop-color:#0088FF"/>
	</linearGradient>
	<path class="st1" d="M29.7,24.8l10,2.7c3.2,0.9,4.3,4.9,1.9,7.2l-7.3,7.3c-2.4,2.4-6.4,1.3-7.2-1.9l-2.7-10
		C23.6,26.9,26.5,24,29.7,24.8z"/>
	
		<linearGradient id="SVGID_3_" gradientUnits="userSpaceOnUse" x1="6028.2554" y1="-958.5114" x2="6010.6704" y2="-958.5114" gradientTransform="matrix(-0.7071 0.7071 -0.7071 -0.7071 3609.2969 -4921.8066)">
		<stop  offset="4.364633e-04" style="stop-color:#9D56A8"/>
		<stop  offset="1" style="stop-color:#7656F0"/>
	</linearGradient>
	<path class="st2" d="M24,13.7l2.7-10c0.9-3.2,4.9-4.3,7.2-1.9l7.3,7.3c2.4,2.4,1.3,6.4-1.9,7.2l-10,2.7
		C26.1,19.9,23.1,16.9,24,13.7z"/>
	
		<linearGradient id="SVGID_4_" gradientUnits="userSpaceOnUse" x1="2007.2418" y1="1459.2307" x2="1989.6567" y2="1459.2307" gradientTransform="matrix(0.7071 0.7071 -0.7071 0.7071 -368.8902 -2432.1477)">
		<stop  offset="0" style="stop-color:#F0567E"/>
		<stop  offset="1" style="stop-color:#9C56AA"/>
	</linearGradient>
	<path class="st3" d="M13.8,19.5l-10-2.7c-3.2-0.9-4.3-4.9-1.9-7.2l7.3-7.3c2.4-2.4,6.4-1.3,7.2,1.9l2.7,10
		C19.9,17.4,17,20.3,13.8,19.5z"/>
	
		<linearGradient id="SVGID_5_" gradientUnits="userSpaceOnUse" x1="-438.3797" y1="-2509.1741" x2="-455.9648" y2="-2509.1741" gradientTransform="matrix(0.7071 -0.7071 0.7071 0.7071 2102.429 1489.1088)">
		<stop  offset="0" style="stop-color:#F0AA3D"/>
		<stop  offset="1" style="stop-color:#F0567E"/>
	</linearGradient>
	<path class="st4" d="M18.6,29.7l-2.7,10c-0.9,3.2-4.9,4.3-7.2,1.9l-7.3-7.3C-1,32,0.1,27.9,3.3,27.1l10-2.7
		C16.6,23.5,19.5,26.5,18.6,29.7z"/>
</g>
</svg>
