<?xml version="1.0" encoding="utf-8"?>
<!-- Generator: Adobe Illustrator 22.0.1, SVG Export Plug-In . SVG Version: 6.00 Build 0)  -->
<svg version="1.1" id="Layer_1" xmlns="http://www.w3.org/2000/svg" xmlns:xlink="http://www.w3.org/1999/xlink" x="0px" y="0px"
	 viewBox="0 0 44 37.7" style="enable-background:new 0 0 44 37.7;" xml:space="preserve">
<style type="text/css">
	.st0{fill:#FFFFFF;}
	.st1{fill:#27D798;}
</style>
<title>Page 1</title>
<desc>Created with Sketch.</desc>
<g id="https:_x2F__x2F_aestheticintegration.github.io_x2F_ipl" transform="translate(-296.000000, -18.000000)">
	<g id="Page-1" transform="translate(296.000000, 17.488281)">
		<path id="Fill-2" class="st0" d="M0.3,36.3h22V4.2L3.9,4.1L0.3,36.3z M4.7,5l16.7,0.1v30.3h-20L4.7,5z"/>
		<polygon id="Fill-1" class="st1" points="0.8,35.9 21.8,35.9 21.8,4.6 4.3,4.6 		"/>
		<g id="Group-27" transform="translate(2.281481, 0.535692)">
			<path id="Fill-3" class="st1" d="M19.6,34.7c0,0-0.7-1.2-7.1-2.4c-5.8-1.1-11.1,0.7-11.1,0.7L4,2.7c0,0,4.9-2,9.4-1.5
				s6.1,2.6,6.1,2.6V34.7z"/>
			<path id="Fill-5" class="st0" d="M8.5,31.4c1.3,0,2.6,0.1,4,0.4c3.8,0.7,5.7,1.5,6.6,2V4c-0.4-0.4-2-1.9-5.7-2.3
				c-3.8-0.5-8,1-9,1.3L1.9,32.3C3.1,32,5.5,31.4,8.5,31.4z M20,36.4l-0.8-1.5c-0.1-0.1-1.2-1.2-6.8-2.2c-5.6-1.1-10.8,0.7-10.9,0.7
				l-0.7,0.2L3.6,2.3l0.2-0.1C4,2.1,8.9,0.2,13.5,0.7c4.7,0.6,6.3,2.7,6.4,2.8L20,3.6V36.4z"/>
			<polygon id="Fill-7" class="st1" points="19.6,35.3 40.5,35.3 37.1,4 19.6,4.1 			"/>
			<path id="Fill-9" class="st0" d="M20,34.9h20L36.7,4.5L20,4.6V34.9z M41.1,35.8h-22V3.7l18.4-0.1L41.1,35.8z"/>
			<path id="Fill-11" class="st1" d="M19.6,34.7c0,0,2.6-1.8,7.7-2.3c6.1-0.6,10.5,0.6,10.5,0.6L35.1,2.7c0,0-4.9-2-9.4-1.5
				s-6.1,2.6-6.1,2.6V34.7z"/>
			<path id="Fill-13" class="st0" d="M20,4v29.9c1.1-0.6,3.5-1.6,7.2-2c4.8-0.5,8.5,0.1,10,0.5L34.7,3c-1-0.4-5.2-1.8-9-1.3
				C22,2.1,20.4,3.6,20,4z M19.1,35.6l0-31.9l0.1-0.1c0.1-0.1,1.7-2.2,6.4-2.8c4.6-0.6,9.5,1.4,9.7,1.5l0.2,0.1l2.8,31.2l-0.7-0.2
				c0,0-4.4-1.2-10.4-0.6c-4.9,0.5-7.4,2.2-7.5,2.3L19.1,35.6z"/>
			<path id="Fill-15" class="st1" d="M33.2,1.8c0,0-2.8-1.8-6.8-1.3s-6.8,2.8-6.8,2.8s-1.9-2-5.9-2.5c-4-0.5-7.7,1-7.7,1L3.8,30.1
				c0,0,4.2-0.7,8.5,0.2c5.7,1.1,7.3,3.7,7.3,3.7s2.3-2.5,7.2-3.5c5-1,8.6-0.4,8.6-0.4L33.2,1.8z"/>
			<path id="Fill-17" class="st0" d="M19.6,33c-1.2-0.9-4-2.5-7.2-3.2c-1.7-0.3-3.3-0.4-4.7-0.4c-1.4,0-2.6,0.1-3.3,0.2l2-27.4
				c0.8-0.3,3.9-1.3,7.2-0.9c2.6,0.3,5.1,1.9,6,2.5c0.6-0.5,3.5-2.4,6.8-2.8c3.3-0.4,5.7,0.8,6.4,1.1l2,27.5
				c-1.3-0.1-4.3-0.3-8.1,0.5C23.3,30.7,20.6,32.1,19.6,33z M33.6,1.5l-0.2-0.1c-0.1-0.1-3-1.9-7.1-1.4c-3.4,0.4-5.9,2-6.7,2.6
				c-0.7-0.6-2.6-2-5.9-2.4c-4.1-0.5-7.7,1-7.9,1.1L5.5,1.5L3.2,30.7l0.6-0.1c0,0,4.2-0.7,8.3,0.1c3.9,0.8,6.1,2.5,6.9,3.4v1
				l0.4-0.5c0,0,0,0,0,0v0l0.3-0.4c0,0,2.2-2.4,7-3.3c4.8-1,8.4-0.4,8.4-0.4l0.6,0.1L33.6,1.5z"/>
		</g>
		<g id="Group-6-Copy-3">
			<path id="Fill-27-Copy-4_1_" class="st0" d="M25.6,6.3c-2,3.2-4.3,6.3-6.7,9.3c-0.9-1.2-1.8-2.5-2.6-3.7
				c-1.2-0.1-2.4-0.1-3.6-0.2c1.8,2.7,3.7,5.4,5.7,8c0.2,0,0.5,0,0.7,0c2.6-3,5-6,7.2-9.1c0.2,4.2,0.4,8.3,0.5,12.5
				c-0.9,0-1.7,0.1-2.6,0.1c0,0.9,0,1.8,0.1,2.6c2.9-0.1,5.9-0.2,8.8-0.5c-0.1-0.9-0.2-1.7-0.2-2.6c-0.9,0.1-1.8,0.2-2.7,0.2
				c-0.3-4.7-0.7-9.4-1-14.1c0.8-0.1,1.6-0.1,2.4-0.2c-0.1-0.9-0.2-1.8-0.3-2.7C29.4,6.1,27.5,6.2,25.6,6.3z"/>
			<path id="Fill-29-Copy-4_1_" class="st0" d="M15.5,6.2c-0.9-0.1-1.8,0.5-1.8,1.6c0,0,0,0,0,0c-0.1,1.1,0.7,1.8,1.6,1.9l0,0
				c0.9,0.1,1.8-0.5,1.8-1.6l0,0C17.2,6.9,16.4,6.3,15.5,6.2C15.5,6.2,15.5,6.2,15.5,6.2z M11.5,11.6c-0.1,0.8-0.2,1.6-0.2,2.4
				c0.7,0.1,1.5,0.1,2.2,0.2c-0.2,3-0.4,5.9-0.7,8.9c-0.8-0.1-1.7-0.1-2.5-0.2c-0.1,0.8-0.2,1.6-0.2,2.5c2.7,0.3,5.5,0.4,8.2,0.5
				c0-0.8,0-1.6,0.1-2.5c-0.8,0-1.6-0.1-2.4-0.1c0.2-3.8,0.4-7.5,0.5-11.3C14.9,11.9,13.2,11.8,11.5,11.6z"/>
		</g>
	</g>
</g>
</svg>
