<?xml version="1.0" encoding="UTF-8"?>
<svg width="44px" height="22px" viewBox="0 0 44 22" version="1.1" xmlns="http://www.w3.org/2000/svg" xmlns:xlink="http://www.w3.org/1999/xlink">
    <!-- Generator: Sketch 48.2 (47327) - http://www.bohemiancoding.com/sketch -->
    <title>Page 1</title>
    <desc>Created with Sketch.</desc>
    <defs></defs>
    <g id="https://aestheticintegration.github.io/ipl" stroke="none" stroke-width="1" fill="none" fill-rule="evenodd" transform="translate(-296.000000, -18.000000)">
        <g id="Page-1" transform="translate(296.000000, 17.488281)">
            <polygon id="Fill-1" fill="#27D798" points="0.564666667 21.1451126 21.5474519 21.1451126 21.5474519 5.27512741 4.00171852 5.18044593"></polygon>
            <path d="M0,21.6019793 L22.0048889,21.6019793 L22.0048889,4.82168296 L3.63325926,4.72243852 L0,21.6019793 Z M4.36903704,5.63845333 L21.0922963,5.72743111 L21.0922963,20.6882459 L1.12933333,20.6882459 L4.36903704,5.63845333 Z" id="Fill-2" fill="#FFFFFF"></path>
            <g id="Group-27" transform="translate(2.281481, 0.535692)">
                <path d="M19.2666548,19.9618222 C19.2666548,19.9618222 18.5696622,18.7469333 12.155277,17.5183556 C6.37970667,16.4141185 1.06955852,18.2142074 1.06955852,18.2142074 L3.7263437,3.28077037 C3.7263437,3.28077037 8.61327704,1.25823704 13.17624,1.81035556 C17.739203,2.36247407 19.2666548,4.41580741 19.2666548,4.41580741 L19.2666548,19.9618222 Z" id="Fill-3" fill="#27D798"></path>
                <path d="M8.20021481,16.6999881 C9.47328148,16.6999881 10.8398889,16.8026548 12.2407185,17.0707289 C16.0256963,17.7950993 17.8930889,18.5274548 18.8102444,19.0453511 L18.8102444,4.58646222 C18.4326593,4.18264 16.8173704,2.7099437 13.1213704,2.26391407 C9.28163704,1.80077333 5.13846667,3.2335437 4.13119259,3.61226963 L1.64894074,17.5658104 C2.81021481,17.2486844 5.25254074,16.6999881 8.20021481,16.6999881 Z M19.7239778,21.6736178 L18.8832519,20.2111881 C18.7999778,20.1187881 17.7288222,19.0510548 12.0696074,17.9662104 C6.4834,16.8961956 1.26793333,18.62784 1.21545926,18.6460919 L0.485385185,18.8936326 L3.32126667,2.95406222 L3.5516963,2.85938074 C3.75588889,2.77382519 8.60403704,0.800343704 13.2308815,1.35702519 C17.9341556,1.92739556 19.5654148,4.0537363 19.6327185,4.14385481 L19.7239778,4.26477333 L19.7239778,21.6736178 Z" id="Fill-5" fill="#FFFFFF"></path>
                <polygon id="Fill-7" fill="#27D798" points="19.2666548 20.6090785 40.2517215 20.6090785 36.8146696 4.64441185 19.2666548 4.73909333"></polygon>
                <path d="M19.7234074,20.1523259 L39.6863704,20.1523259 L36.4466667,5.10253333 L19.7234074,5.19265185 L19.7234074,20.1523259 Z M40.8157037,21.0660593 L18.8096741,21.0660593 L18.8096741,4.28576296 L37.1824444,4.18651852 L40.8157037,21.0660593 Z" id="Fill-9" fill="#FFFFFF"></path>
                <path d="M19.2666548,19.9618222 C19.2666548,19.9618222 21.8298993,18.1320741 26.948403,17.6153185 C33.0182844,17.0038815 37.4648919,18.2142074 37.4648919,18.2142074 L34.8081067,3.28077037 C34.8081067,3.28077037 29.9211733,1.25823704 25.3582104,1.81035556 C20.7952474,2.36247407 19.2666548,4.41580741 19.2666548,4.41580741 L19.2666548,19.9618222 Z" id="Fill-11" fill="#27D798"></path>
                <path d="M19.7234074,4.58634815 L19.7234074,19.1581704 C20.8322074,18.5661259 23.2174963,17.5337556 26.9032296,17.1607333 C31.6703852,16.682763 35.4074519,17.298763 36.8949778,17.6124667 L34.4036,3.61215556 C33.3951852,3.23342963 29.2451704,1.79267407 25.4122815,2.2638 C21.7208444,2.70982963 20.1055556,4.18138519 19.7234074,4.58634815 Z M18.8108148,20.8430444 L18.8096741,4.26465926 L18.8997926,4.1426 C18.968237,4.05248148 20.600637,1.92728148 25.3039111,1.35691111 C29.9376,0.797948148 34.777763,2.77485185 34.9830963,2.85926667 L35.2135259,2.95394815 L38.0402815,18.8421852 L37.3455704,18.653963 C37.3010815,18.6425556 32.8978222,17.4698741 26.9944889,18.0699037 C22.0767556,18.5649852 19.5568593,20.3160222 19.5306222,20.3342741 L18.8108148,20.8430444 Z" id="Fill-13" fill="#FFFFFF"></path>
                <path d="M32.8853881,2.44072889 C32.8853881,2.44072889 30.0803067,0.658891852 26.0512104,1.14712889 C22.0221141,1.63536593 19.2672252,3.93738074 19.2672252,3.93738074 C19.2672252,3.93738074 17.3484993,1.90572148 13.319403,1.41862519 C9.28916593,0.930388148 5.64906222,2.44072889 5.64906222,2.44072889 L3.47937333,15.3835733 C3.47937333,15.3835733 7.72292889,14.7093956 11.964203,15.5352919 C17.6256993,16.6361067 19.2672252,19.2426993 19.2672252,19.2426993 C19.2672252,19.2426993 21.5452844,16.7593067 26.49724,15.7611585 C31.451477,14.7630104 35.055077,15.3835733 35.055077,15.3835733 L32.8853881,2.44072889 Z" id="Fill-15" fill="#27D798"></path>
                <path d="M19.2666548,18.2440948 C18.0563289,17.3315022 15.2809067,15.7150726 12.0514696,15.0865244 C10.3985363,14.7648356 8.75472889,14.6644504 7.35389926,14.6644504 C5.90629926,14.6644504 4.71422519,14.77168 4.03206222,14.8503911 L6.0557363,2.77336889 C6.90558815,2.46536889 9.96277333,1.46836148 13.264077,1.87104296 C15.9140178,2.19159111 18.3609067,3.7509837 19.2666548,4.41603556 C19.9031881,3.93692444 22.7961067,2.00108741 26.1053956,1.60068741 C29.3701956,1.19914667 31.8216474,2.37639111 32.4707289,2.72888 L34.5035289,14.8503911 C33.2475733,14.7180652 30.2371585,14.5423911 26.4088326,15.3135319 C22.975203,16.0048207 20.3378104,17.4010874 19.2666548,18.2440948 Z M33.3023289,2.16421333 L33.130077,2.05584296 C33.0102993,1.97827259 30.1367733,0.191872593 25.9958844,0.693798519 C22.5896326,1.10788741 20.1187881,2.7345837 19.2917511,3.34373926 C18.6027437,2.75283556 16.6851585,1.36569481 13.3735881,0.965294815 C9.27946963,0.473635556 5.62795852,1.95659852 5.47395852,2.01933926 L5.24124741,2.11630222 L2.92440296,15.9329541 L3.55066963,15.8348504 C3.59287704,15.8268652 7.77141037,15.1834874 11.8769363,15.9831467 C15.820477,16.7497244 17.9525215,18.52928 18.8103585,19.4259022 L18.8103585,20.4160652 L19.2495437,19.9369541 C19.2563881,19.94608 19.2655141,19.9597689 19.2666548,19.9620504 L19.2666548,19.9187022 L19.6031733,19.5513837 C19.6237067,19.5285689 21.835603,17.1660948 26.5890696,16.2090133 C31.3904474,15.2416652 34.9415733,15.8280059 34.978077,15.8337096 L35.6111881,15.9409393 L33.3023289,2.16421333 Z" id="Fill-17" fill="#FFFFFF"></path>
                <path d="M19.1352415,6.48237333 C18.952723,6.48237333 18.7793304,6.50861037 18.6207674,6.55766222 C18.4622044,6.60671407 18.3196119,6.67858074 18.1998341,6.76641778 C18.0789156,6.85425481 17.9819526,6.95806222 17.9146489,7.07555852 C17.8462044,7.19077333 17.80856,7.3185363 17.8074193,7.4531437 L17.7960119,11.2449659 C17.7948711,11.385277 17.8313748,11.5187437 17.8986785,11.6396622 C17.9659822,11.7617215 18.0629452,11.8712326 18.182723,11.9624919 C18.3036415,12.0537511 18.4473748,12.1278993 18.6070785,12.1792326 C18.767923,12.2305659 18.943597,12.2579437 19.1272563,12.2590844 L19.137523,12.2590844 C19.3246044,12.2590844 19.50256,12.2317067 19.6645452,12.1803733 C19.8253896,12.12904 19.9714044,12.0548919 20.0934637,11.9624919 C20.2143822,11.8700919 20.3136267,11.7605807 20.3820711,11.6396622 C20.4482341,11.5164622 20.4870193,11.3829956 20.4858785,11.2426844 L20.4562193,7.45884741 L20.4562193,7.45086222 C20.4562193,7.31625481 20.4185748,7.18849185 20.3512711,7.07327704 C20.2851081,6.95806222 20.1881452,6.85311407 20.0683674,6.76641778 C19.9497304,6.67858074 19.8071378,6.60785481 19.6497156,6.55880296 C19.4911526,6.50975111 19.31776,6.48351407 19.1352415,6.48237333" id="Fill-19" fill="#FFFFFF"></path>
                <path d="M10.221037,6.48237333 C9.84231111,6.48237333 9.47955556,6.54283259 9.1476,6.65348444 C8.8145037,6.76527704 8.51106667,6.92726222 8.25325926,7.12689185 C7.99659259,7.32766222 7.78441481,7.56721778 7.63155556,7.83415111 C7.47983704,8.0999437 7.38857778,8.39425481 7.37260741,8.70225481 C7.35663704,9.0125363 7.41937778,9.30912889 7.54485926,9.57948444 C7.67262222,9.84984 7.86312593,10.0950993 8.10496296,10.3027141 C8.34565926,10.5091881 8.63768889,10.676877 8.96508148,10.7932326 C9.29475556,10.9107289 9.65865185,10.9746104 10.0442222,10.9757511 C10.4309333,10.9768919 10.7993926,10.9141511 11.1370519,10.7989363 C11.4747111,10.6848622 11.7792889,10.5171733 12.038237,10.3106993 C12.2949037,10.1065067 12.5048,9.86238815 12.6530963,9.59203259 C12.8013926,9.32167704 12.8858074,9.02508444 12.8949333,8.7159437 C12.9040593,8.40680296 12.8356148,8.11249185 12.7044296,7.84441778 C12.5732444,7.57862519 12.3793185,7.33792889 12.1374815,7.13601778 C11.8967852,6.93524741 11.6058963,6.77212148 11.2830667,6.65918815 C10.9579556,6.54739556 10.599763,6.48351407 10.221037,6.48237333" id="Fill-21" fill="#FFFFFF"></path>
                <path d="M10.2589096,5.52996889 C9.7261837,5.52882815 9.21627259,5.61552444 8.74856889,5.77408741 C8.27972444,5.93265037 7.85308741,6.16308 7.48919111,6.44826519 C7.12415407,6.73459111 6.82299852,7.07567259 6.60739852,7.45553926 C6.38951704,7.83654667 6.25719111,8.25748 6.23323556,8.70008741 C6.20928,9.14383556 6.29483556,9.56933185 6.47279111,9.95832444 C6.64960593,10.3484578 6.91882074,10.7009467 7.25876148,10.99868 C7.6009837,11.2975541 8.01393185,11.5405319 8.47821333,11.7082207 C8.94363556,11.8770504 9.45925037,11.9705911 10.0045244,11.9717319 C10.5509393,11.9740133 11.0745393,11.8816133 11.5525096,11.7162059 C12.03048,11.5496578 12.4628207,11.3089615 12.8278578,11.0123689 C13.1917541,10.716917 13.4883467,10.3644281 13.6971022,9.97543556 C13.9035763,9.5875837 14.0244948,9.16322815 14.0347615,8.71833926 C14.0438874,8.27573185 13.9457837,7.85479852 13.7587022,7.47265037 C13.5716207,7.09164296 13.297843,6.74828 12.9556207,6.46081333 C12.6145393,6.17334667 12.2061541,5.9417763 11.7509985,5.78093185 C11.2947022,5.62008741 10.7916356,5.53110963 10.2589096,5.52996889 M10.0444504,10.9758652 C9.65888,10.9747244 9.29384296,10.910843 8.96530963,10.7933467 C8.63791704,10.6769911 8.34588741,10.5093022 8.10405037,10.3028281 C7.86221333,10.0952133 7.67170963,9.84995407 7.54508741,9.57959852 C7.41960593,9.30924296 7.35686519,9.01265037 7.37283556,8.70236889 C7.38766519,8.39436889 7.47892444,8.10005778 7.6317837,7.83426519 C7.78464296,7.56733185 7.99682074,7.3277763 8.25348741,7.12700593 C8.51129481,6.9273763 8.81359111,6.76539111 9.14668741,6.65359852 C9.47864296,6.54294667 9.84253926,6.48248741 10.2212652,6.48248741 C10.5999911,6.48362815 10.9581837,6.54750963 11.2821541,6.65930222 C11.6061244,6.77223556 11.8970133,6.93536148 12.1365689,7.13613185 C12.3784059,7.33804296 12.5723319,7.57873926 12.7046578,7.84453185 C12.835843,8.11260593 12.9031467,8.40691704 12.8951615,8.71605778 C12.8860356,9.02519852 12.8016207,9.32179111 12.6533244,9.59214667 C12.5050281,9.86250222 12.2951319,10.1066207 12.0384652,10.3108133 C11.779517,10.5172874 11.4737985,10.6849763 11.13728,10.7990504 C10.7996207,10.9142652 10.4300207,10.9770059 10.0444504,10.9758652" id="Fill-23" fill="#27D798"></path>
                <path d="M27.8333896,6.52469481 C27.4546637,6.52355407 27.0953304,6.58515407 26.7702193,6.69580593 C26.4451081,6.80759852 26.1542193,6.9695837 25.9112415,7.16921333 C25.6694044,7.3699837 25.473197,7.60953926 25.3397304,7.87647259 C25.2062637,8.14226519 25.1366785,8.4365763 25.143523,8.7445763 C25.1492267,9.05599852 25.2336415,9.35259111 25.3785156,9.62294667 C25.5256711,9.89330222 25.7332859,10.1385615 25.9899526,10.3461763 C26.2454785,10.5526504 26.5500563,10.7203393 26.8865748,10.8366948 C27.2230933,10.9541911 27.5926933,11.0192133 27.9782637,11.0192133 C28.3615526,11.0203541 28.7254489,10.9576133 29.0539822,10.8423985 C29.3825156,10.7283244 29.6768267,10.5606356 29.9209452,10.3541615 C30.163923,10.1499689 30.3578489,9.90585037 30.4867526,9.63549481 C30.6156563,9.36399852 30.6806785,9.06740593 30.6669896,8.75826519 C30.6544415,8.44912444 30.564323,8.15595407 30.4126044,7.88673926 C30.2620267,7.62094667 30.0498489,7.38025037 29.7931822,7.17833926 C29.5365156,6.97642815 29.23536,6.81444296 28.9022637,6.70036889 C28.5703081,6.5885763 28.2098341,6.52583556 27.8333896,6.52469481" id="Fill-25" fill="#FFFFFF"></path>
            </g>
        </g>
    </g>
</svg>