<?xml version="1.0" encoding="UTF-8"?>
<svg width="44px" height="60px" viewBox="0 0 44 60" version="1.1" xmlns="http://www.w3.org/2000/svg" xmlns:xlink="http://www.w3.org/1999/xlink">
    <!-- Generator: Sketch 47.1 (45422) - http://www.bohemiancoding.com/sketch -->
    <title>ifix</title>
    <desc>Created with Sketch.</desc>
    <defs></defs>
    <g id="Page-1" stroke="none" stroke-width="1" fill="none" fill-rule="evenodd">
        <g id="https://aestheticintegration.github.io" transform="translate(-365.000000, -615.000000)">
            <g id="ifix" transform="translate(364.984375, 615.584609)">
                <g id="Group">
                    <rect id="Rectangle-path" fill="#27D798" fill-rule="nonzero" x="0.511159078" y="51.0856641" width="3.08161653" height="8.21067998" rx="1.54080827"></rect>
                    <rect id="Rectangle-path" fill="#27D798" fill-rule="nonzero" x="20.4633204" y="36.5341664" width="3.08161653" height="14.0187437" rx="1.54080827"></rect>
                    <rect id="Rectangle-path" fill="#27D798" fill-rule="nonzero" x="7.16536156" y="47.0638934" width="3.08161653" height="8.62330321" rx="1.54080827"></rect>
                    <rect id="Rectangle-path" fill="#27D798" fill-rule="nonzero" x="13.814341" y="40.4932602" width="3.08161653" height="6.45572548" rx="1.54080827"></rect>
                    <rect id="Rectangle-path" fill="#27D798" fill-rule="nonzero" x="33.7665022" y="25.5239162" width="3.08161653" height="18.7142916" rx="1.54080827"></rect>
                    <rect id="Rectangle-path" fill="#27D798" fill-rule="nonzero" x="40.4207047" y="22.3430611" width="3.08161653" height="29.0925493" rx="1.54080827"></rect>
                    <rect id="Rectangle-path" fill="#27D798" fill-rule="nonzero" x="27.1175228" y="32.8101112" width="3.08161653" height="14.1388745" rx="1.54080827"></rect>
                    <rect id="Rectangle-path" fill="#27D798" fill-rule="nonzero" x="0.511159078" y="25.2262007" width="3.08161653" height="22.3391083" rx="1.54080827"></rect>
                    <rect id="Rectangle-path" fill="#27D798" fill-rule="nonzero" x="20.4633204" y="25.2262007" width="3.08161653" height="7.58391052" rx="1.54080827"></rect>
                    <rect id="Rectangle-path" fill="#27D798" fill-rule="nonzero" x="27.1175228" y="25.2262007" width="3.08161653" height="3.85985528" rx="1.54080827"></rect>
                    <rect id="Rectangle-path" fill="#27D798" fill-rule="nonzero" x="7.16536156" y="25.2262007" width="3.08161653" height="18.3121145" rx="1.54080827"></rect>
                    <rect id="Rectangle-path" fill="#27D798" fill-rule="nonzero" x="13.814341" y="25.2262007" width="3.08161653" height="11.6631351" rx="1.54080827"></rect>
                    <rect id="Rectangle-path" fill="#27D798" fill-rule="nonzero" x="33.7665022" y="0.719514621" width="3.08161653" height="21.6235465" rx="1.54080827"></rect>
                    <rect id="Rectangle-path" fill="#27D798" fill-rule="nonzero" x="40.4207047" y="0.719514621" width="3.08161653" height="18.1606452" rx="1.54080827"></rect>
                    <path d="M25.0230682,7.29014784 C26.8663447,7.29014784 28.3606156,5.79587697 28.3606156,3.95260044 C28.3606156,2.10932391 26.8663447,0.615053043 25.0230682,0.615053043 C23.1797917,0.615053043 21.6855208,2.10932391 21.6855208,3.95260044 C21.6855208,5.79587697 23.1797917,7.29014784 25.0230682,7.29014784" id="Shape" fill="#27D798"></path>
                    <path d="M3.55273765,7.29014784 C5.39601418,7.29014784 6.89028505,5.79587697 6.89028505,3.95260044 C6.89028505,2.10932391 5.39601418,0.615053043 3.55273765,0.615053043 C1.70946112,0.615053043 0.215190257,2.10932391 0.215190257,3.95260044 C0.215190257,5.79587697 1.70946112,7.29014784 3.55273765,7.29014784" id="Shape-Copy" fill="#27D798"></path>
                    <rect id="Rectangle-path" fill="#27D798" fill-rule="nonzero" transform="translate(14.231644, 3.950393) rotate(-0.190000) translate(-14.231644, -3.950393) " x="12.6751662" y="0.0226378219" width="3.11295501" height="7.85551062" rx="1.5564775"></rect>
                    <path d="M0.702935736,21.6581645 C0.623161416,21.5783902 0.583274855,21.4853216 0.583274855,21.3789558 L0.583274855,11.0243009 C0.583274855,10.9072986 0.620502312,10.8089117 0.694958344,10.7291374 C0.769414376,10.6493631 0.865142124,10.6094765 0.982144459,10.6094765 L8.4011191,10.6094765 C8.51812144,10.6094765 8.61650829,10.6493631 8.69628261,10.7291374 C8.77605693,10.8089117 8.81594349,10.9072986 8.81594349,11.0243009 L8.81594349,12.715508 C8.81594349,12.8325103 8.77605693,12.9282381 8.69628261,13.0026941 C8.61650829,13.0771502 8.51812144,13.1143776 8.4011191,13.1143776 L3.51895514,13.1143776 L3.51895514,15.3320926 L8.08202342,15.3320926 C8.19902576,15.3320926 8.29741261,15.3719792 8.37718693,15.4517535 C8.45696125,15.5315278 8.49684781,15.6299147 8.49684781,15.746917 L8.49684781,17.4381241 C8.49684781,17.5551265 8.45696125,17.6508542 8.37718693,17.7253102 C8.29741261,17.7997663 8.19902576,17.8369937 8.08202342,17.8369937 L3.51895514,17.8369937 L3.51895514,21.3789558 C3.51895514,21.4853216 3.48172769,21.5783902 3.40727166,21.6581645 C3.33281562,21.7379389 3.23708788,21.7778254 3.12008554,21.7778254 L0.982144459,21.7778254 C0.8757787,21.7778254 0.782710056,21.7379389 0.702935736,21.6581645 Z M12.6281283,21.6581645 C12.548354,21.5783902 12.5084674,21.4853216 12.5084674,21.3789558 L12.5084674,11.0083461 C12.5084674,10.8913438 12.548354,10.795616 12.6281283,10.72116 C12.7079026,10.646704 12.8009712,10.6094765 12.907337,10.6094765 L15.1888711,10.6094765 C15.3058735,10.6094765 15.4016012,10.646704 15.4760573,10.72116 C15.5505133,10.795616 15.5877407,10.8913438 15.5877407,11.0083461 L15.5877407,21.3789558 C15.5877407,21.4853216 15.5505133,21.5783902 15.4760573,21.6581645 C15.4016012,21.7379389 15.3058735,21.7778254 15.1888711,21.7778254 L12.907337,21.7778254 C12.8009712,21.7778254 12.7079026,21.7379389 12.6281283,21.6581645 Z M18.9531916,21.6741193 C18.8840538,21.6049816 18.8494855,21.5278676 18.8494855,21.442775 C18.8494855,21.3789555 18.8654401,21.315137 18.8973498,21.2513176 L22.3754928,16.0819675 L19.1685812,11.1359844 C19.1366714,11.0721649 19.1207168,11.0083464 19.1207168,10.944527 C19.1207168,10.8594344 19.1552852,10.7823203 19.2244229,10.7131826 C19.2935606,10.6440449 19.3706747,10.6094765 19.4557673,10.6094765 L21.8968493,10.6094765 C22.1308539,10.6094765 22.3223094,10.7264771 22.4712215,10.9604818 L24.2741121,13.7366142 L26.1408218,10.9604818 C26.2897339,10.7264771 26.4758712,10.6094765 26.6992393,10.6094765 L29.0286378,10.6094765 C29.1137304,10.6094765 29.1908444,10.6440449 29.2599822,10.7131826 C29.3291199,10.7823203 29.3636883,10.8594344 29.3636883,10.944527 C29.3636883,11.0083464 29.3477336,11.0721649 29.3158239,11.1359844 L26.0770027,16.0500579 L29.5870552,21.2513176 C29.618965,21.315137 29.6349196,21.3789555 29.6349196,21.442775 C29.6349196,21.5278676 29.6003512,21.6049816 29.5312135,21.6741193 C29.4620757,21.7432571 29.3849617,21.7778254 29.2998691,21.7778254 L26.7790132,21.7778254 C26.5450085,21.7778254 26.3588713,21.6714613 26.2205958,21.4587297 L24.1783834,18.4911399 L22.1840354,21.4587297 C22.0457599,21.6714613 21.8596226,21.7778254 21.6256179,21.7778254 L19.1845359,21.7778254 C19.0994433,21.7778254 19.0223293,21.7432571 18.9531916,21.6741193 Z" id="FIX" fill="#577FA1"></path>
                </g>
            </g>
        </g>
    </g>
</svg>