<?xml version="1.0" encoding="UTF-8"?>
<svg width="56px" height="56px" viewBox="0 0 56 56" version="1.1" xmlns="http://www.w3.org/2000/svg" xmlns:xlink="http://www.w3.org/1999/xlink">
    <!-- Generator: Sketch 47.1 (45422) - http://www.bohemiancoding.com/sketch -->
    <title>imandra_doc_icon</title>
    <desc>Created with Sketch.</desc>
    <defs></defs>
    <g id="Page-1" stroke="none" stroke-width="1" fill="none" fill-rule="evenodd">
        <g id="https://aestheticintegration.github.io" transform="translate(-359.000000, -759.000000)">
            <g id="imandra_doc_icon" transform="translate(360.000000, 760.000000)">
                <path d="M3.18584071e-05,26.9614513 C3.18584071e-05,35.075469 12.071023,41.6527965 26.9616425,41.6527965 C41.8519434,41.6527965 53.9230938,35.075469 53.9230938,26.9614513 C53.9230938,18.8475929 41.8519434,12.2701062 26.9616425,12.2701062 C12.071023,12.2701062 3.18584071e-05,18.8475929 3.18584071e-05,26.9614513 Z" id="Stroke-5" stroke="#FFFFFF"></path>
                <path d="M26.9616106,3.18584071e-05 C18.8475929,3.18584071e-05 12.2702655,12.071023 12.2702655,26.9614832 C12.2702655,41.8519434 18.8475929,53.9230938 26.9616106,53.9230938 C35.075469,53.9230938 41.6529558,41.8519434 41.6529558,26.9614832 C41.6529558,12.071023 35.075469,3.18584071e-05 26.9616106,3.18584071e-05 Z" id="Stroke-7" stroke="#FFFFFF"></path>
                <path d="M22.8567186,16.4019664 L16.387869,22.8708159 C14.1208248,25.1380195 14.1208248,28.8135239 16.387869,31.0804088 L22.8567186,37.5494177 C25.1237628,39.8163027 28.7994265,39.8163027 31.0663115,37.5494177 L37.5351611,31.0804088 C39.8022053,28.8135239 39.8022053,25.1380195 37.5351611,22.8708159 L31.0663115,16.4019664 C28.7994265,14.1350814 25.1237628,14.1350814 22.8567186,16.4019664 Z" id="Stroke-9" stroke="#FFFFFF"></path>
                <path d="M34.5833522,19.5036531 L40.623069,13.4642549" id="Stroke-11" stroke="#FFFFFF"></path>
                <polygon id="Fill-15" fill="#F4F4F4" points="42.5271186 13.0790867 40.4811717 13.5977416 40.999508 11.5514761"></polygon>
                <path d="M13.4469876,40.640177 L19.0996248,34.9873805" id="Stroke-17" stroke="#FFFFFF"></path>
                <polygon id="Fill-19" fill="#F4F4F4" points="13.0618195 42.5443699 13.5804743 40.4982637 11.5343681 41.0167593"></polygon>
                <path d="M34.2745646,35.0697823 L40.5621398,40.7044195" id="Stroke-23" stroke="#FFFFFF"></path>
                <polygon id="Fill-27" fill="#F4F4F4" points="41.0508637 42.5846708 40.4211823 40.5701044 42.4926159 40.9758212"></polygon>
                <path d="M13.4784,13.4318867 L19.4551965,19.0845239" id="Stroke-29" stroke="#FFFFFF"></path>
                <polygon id="Fill-31" fill="#F4F4F4" points="11.5644106 13.0999221 13.6240566 13.5612319 13.0486938 11.5304177"></polygon>
                <polygon id="Stroke-35" stroke="#FFFFFF" points="9.82075221 28.6960779 7.04333628 30.2996708 4.26592035 28.6960779 4.26592035 25.4890513 7.04333628 23.8856177 9.82075221 25.4890513"></polygon>
                <polygon id="Stroke-37" stroke="#FFFFFF" points="24.0772301 8.84943717 26.9194779 3.98784425 29.8458319 8.79926018"></polygon>
                <polygon id="Stroke-39" stroke="#FFFFFF" points="30.3907381 45.1817204 29.0941009 49.2172248 24.8554991 49.2312425 23.5322602 45.2043398 26.9533752 42.7015434"></polygon>
                <path d="M46.778846,33.547954 C50.4690053,33.5307504 53.4463327,30.525069 53.4289699,26.8349097 C53.4116071,23.1449097 50.406085,20.1675823 46.7159257,20.1847858 C43.0257664,20.202308 40.0484389,23.2078301 40.0658018,26.8979894 C40.0833239,30.5879894 43.0886867,33.5653168 46.778846,33.547954 Z" id="Stroke-41" stroke="#FFFFFF"></path>
                <path d="M7.34068673,33.6594903 C11.030846,33.6421274 14.0081735,30.6366053 13.9908106,26.946446 C13.9736071,23.2562867 10.9679257,20.2789593 7.27776637,20.2963221 C3.58760708,20.3138442 0.610438938,23.3192071 0.627642478,27.0093664 C0.645164602,30.6995257 3.65068673,33.6768531 7.34068673,33.6594903 Z" id="Stroke-43" stroke="#FFFFFF"></path>
                <path d="M11.1809628,19.1104088 C13.4464142,21.354515 17.1020071,21.3371522 19.3461133,19.0720195 C21.5903788,16.8065681 21.5730159,13.1509752 19.3078832,10.906869 C17.0424319,8.66260354 13.3868389,8.67996637 11.1425735,10.9452584 C8.89846726,13.2105504 8.9156708,16.8661434 11.1809628,19.1104088 Z" id="Stroke-45" stroke="#FFFFFF"></path>
                <path d="M35.3230407,43.1975628 C37.588492,45.441669 41.244085,45.4244655 43.4881912,43.1591735 C45.7322973,40.8937221 45.7150938,37.2381292 43.4498018,34.994023 C41.1845097,32.7499168 37.5287575,32.7671204 35.2846513,35.0324124 C33.0405451,37.2977044 33.0575894,40.9534566 35.3230407,43.1975628 Z" id="Stroke-47" stroke="#FFFFFF"></path>
                <path d="M20.2800425,7.24081062 C20.297246,10.9308106 23.3029274,13.9081381 26.9930867,13.8907752 C30.6830867,13.8735717 33.6604142,10.8680496 33.6432106,7.17773097 C33.6256885,3.48773097 30.6211221,0.69900531 26.9309628,0.71620885 C23.2408035,0.733571681 20.2626796,3.55065133 20.2800425,7.24081062 Z" id="Stroke-49" stroke="#FFFFFF"></path>
                <path d="M20.2800425,46.5595009 C20.297246,50.2496602 23.3037239,53.4154301 26.9937239,53.3982265 C30.6838832,53.3807044 33.6604142,50.1867398 33.6432106,46.4965805 C33.6256885,42.8064212 30.6201664,39.8290938 26.9301664,39.8464566 C23.2400071,39.8639788 20.2626796,42.8693416 20.2800425,46.5595009 Z" id="Stroke-51" stroke="#FFFFFF"></path>
                <path d="M35.2846195,10.9452903 C33.0405133,13.2105823 33.0577168,16.8661752 35.3230088,19.1104407 C37.5884602,21.3545469 41.2440531,21.3371841 43.4881593,19.0720513 C45.7322655,16.8066 45.7150619,13.1510071 43.4497699,10.9069009 C41.1843186,8.6626354 37.5287257,8.67983894 35.2846195,10.9452903 Z" id="Stroke-53" stroke="#FFFFFF"></path>
                <path d="M11.1425416,35.0324442 C8.8984354,37.2977363 8.91579823,40.9534885 11.180931,43.1975947 C13.4463823,45.4417009 17.1019752,45.4244973 19.3460814,43.1592053 C21.5903469,40.893754 21.5729841,37.2381611 19.3078513,34.9940549 C17.0424,32.7499487 13.3868071,32.7669929 11.1425416,35.0324442 Z" id="Stroke-55" stroke="#FFFFFF"></path>
                <path d="M46.7889611,29.8185929 C48.3122708,29.8185929 49.5469434,28.5837611 49.5469434,27.0606106 C49.5469434,25.5371416 48.3122708,24.3023097 46.7889611,24.3023097 C45.2656513,24.3023097 44.0308195,25.5371416 44.0308195,27.0606106 C44.0308195,28.5837611 45.2656513,29.8185929 46.7889611,29.8185929 Z" id="Stroke-3" stroke="#FFFFFF"></path>
                <g id="Page-1" transform="translate(0.919922, 19.552616)" fill="#27D798">
                    <path d="M6.98837802,13.2423702 C10.3373215,13.2423702 13.0526312,10.5389362 13.0526312,7.20292401 C13.0526312,3.86796742 10.3373215,1.16426953 6.98837802,1.16426953 C3.63943452,1.16426953 0.924388752,3.86796742 0.924388752,7.20292401 C0.924388752,10.5389362 3.63943452,13.2423702 6.98837802,13.2423702" id="Fill-57"></path>
                    <path d="M45.7799639,13.2423702 C49.1289074,13.2423702 51.8439532,10.5389362 51.8439532,7.20292401 C51.8439532,3.86796742 49.1289074,1.16426953 45.7799639,1.16426953 C42.4310204,1.16426953 39.7157107,3.86796742 39.7157107,7.20292401 C39.7157107,10.5389362 42.4310204,13.2423702 45.7799639,13.2423702" id="Fill-59"></path>
                    <path d="M26.2778704,0.12757491 L26.2778704,0.12757491 C27.8407107,0.12757491 29.1074505,1.39457867 29.1074505,2.95741898 L29.1074505,11.4493263 C29.1074505,13.0121666 27.8407107,14.2791704 26.2778704,14.2791704 C24.7150301,14.2791704 23.4480263,13.0121666 23.4480263,11.4493263 L23.4480263,2.95741898 C23.4480263,1.39457867 24.7150301,0.12757491 26.2778704,0.12757491" id="Fill-61"></path>
                </g>
            </g>
        </g>
    </g>
</svg>