<?xml version="1.0" encoding="utf-8"?>
<!-- Generator: Adobe Illustrator 23.0.2, SVG Export Plug-In . SVG Version: 6.00 Build 0)  -->
<svg version="1.1" id="Layer_1" xmlns="http://www.w3.org/2000/svg" xmlns:xlink="http://www.w3.org/1999/xlink" x="0px" y="0px"
	 width="300px" height="24px" viewBox="0 0 300 24" style="enable-background:new 0 0 300 24;" xml:space="preserve">
<style type="text/css">
	.st0{fill-rule:evenodd;clip-rule:evenodd;fill:#0080FF;}
	.st1{fill-rule:evenodd;clip-rule:evenodd;fill:#0092F4;}
	.st2{fill-rule:evenodd;clip-rule:evenodd;fill:#00A1EA;}
	.st3{fill-rule:evenodd;clip-rule:evenodd;fill:#00AEE0;}
	.st4{fill-rule:evenodd;clip-rule:evenodd;fill:#00BBD8;}
	.st5{fill-rule:evenodd;clip-rule:evenodd;fill:#00C6CF;}
	.st6{fill-rule:evenodd;clip-rule:evenodd;fill:#00D2C7;}
	.st7{fill-rule:evenodd;clip-rule:evenodd;fill:#00DDBF;}
	.st8{fill-rule:evenodd;clip-rule:evenodd;fill:#00E9B6;}
	.st9{fill-rule:evenodd;clip-rule:evenodd;fill:#00EEB2;}
</style>
<g>
	<path class="st0" d="M11.5,0.3c-6.1,0-11,5.1-11,11.3s5,11.3,11.2,11.3s11.2-5.1,11.1-11.3c0-6.2-5-11.2-11.1-11.2h-0.2V0.3z"/>
	<path class="st1" d="M42.5,5.6v11.9c0,0.3,0,0.5,0,0.8c0.2,2.9,2.7,5.1,5.6,4.9c2.9-0.2,5.1-2.8,4.9-5.7V5.6c0-2.9-2.4-5.3-5.3-5.3
		C44.8,0.3,42.5,2.7,42.5,5.6"/>
	<path class="st2" d="M83.6,0.3c-6.1,0.1-11.1,5.1-11.1,11.3s5,11.3,11.2,11.3l0,0c6.2,0,11.2-5.1,11.1-11.3c0-6.2-5-11.2-11.1-11.2
		h-0.1V0.3z"/>
	<path class="st3" d="M118.1,21.5h2.3V2.7h-2.3V21.5z"/>
	<path class="st4" d="M150.1,2.7l-6.7,9.6l-6.7-9.6h-2.8v18.8h2.3V6l6.9,9.6h0.5l7-9.4v15.3h2.3V2.7H150.1z"/>
	<path class="st5" d="M172.6,2.7l-8.3,18.8h2.6l1.7-4.2h10.7l1.9,4.2h2.4l-8.3-18.8L172.6,2.7L172.6,2.7z M174,5.1l4.3,10.1h-8.8
		L174,5.1z"/>
	<path class="st6" d="M208.1,2.7V17l-12-14.3h-1.7v18.8h2.4V7.2l11.9,14.3h1.7V2.7H208.1z"/>
	<path class="st7" d="M222.9,2.7v18.8h6.8c6.6,0,9.4-4.7,9.4-9.6c0-4.7-2.9-9.2-9.4-9.2C229.6,2.7,222.9,2.7,222.9,2.7z M225.1,4.9
		h4.5c4.9,0,7.1,3.5,7.1,7s-2.1,7.3-7.1,7.3h-4.5V4.9L225.1,4.9z"/>
	<path class="st8" d="M251.8,2.7v2.1h8.5c2.2,0,3.9,1.8,3.8,4c0,2.1-1.4,3.8-4.2,3.8h-6.1V8.2l-2.1-1.7v15h2.3v-6.8h4.5l5.9,6.6h2.9
		l-6.2-7c3.8-0.2,5.4-3,5.4-5.7c0-3-2.1-5.9-6.2-5.9L251.8,2.7L251.8,2.7z"/>
	<path class="st9" d="M286.6,2.7l-8.3,18.8h2.6l1.7-4.2h10.7l1.9,4.2h2.4l-8.5-18.8L286.6,2.7L286.6,2.7z M288,5.1l4.3,10.1h-8.8
		L288,5.1z"/>
</g>
</svg>
