<?xml version="1.0" encoding="utf-8"?>
<!-- Generator: Adobe Illustrator 21.1.0, SVG Export Plug-In . SVG Version: 6.00 Build 0)  -->
<svg version="1.1" id="Layer_1" xmlns="http://www.w3.org/2000/svg" xmlns:xlink="http://www.w3.org/1999/xlink"
	 viewBox="0 0 72 72">
<style type="text/css">
	.st0{fill:url(#Fill-27-Copy-4_1_);}
	.st1{fill:#27D798;}
</style>
<title>Group Copy</title>
<desc>Created with Sketch.</desc>
<g id="Page-1">
	<g id="Desktop-HD" transform="translate(-305.000000, -1385.000000)">
		<g id="Group-Copy" transform="translate(305.000000, 1384.827852)">
			<g id="Group-6-Copy-3" transform="translate(51.125102, 0.590441)">
				
					<linearGradient id="Fill-27-Copy-4_1_" gradientUnits="userSpaceOnUse" x1="-688.0388" y1="449.1394" x2="-687.4277" y2="449.1394" gradientTransform="matrix(63.4063 0 0 -67.6419 43598.9648 30416.6934)">
					<stop  offset="0" style="stop-color:#394D7C"/>
					<stop  offset="0.4752" style="stop-color:#53A0FE"/>
					<stop  offset="1" style="stop-color:#069EEA"/>
				</linearGradient>
				<polygon id="Fill-27-Copy-4" class="st0" points="-1.4,2.2 -23.9,34.6 -32,22 -39.2,29.6 -25.2,48.5 -23,48.5 0.5,17.1 
					0.5,60.7 -7.2,60.7 -7.2,69.9 18.5,69.9 18.5,60.7 10.5,60.7 10.5,11.6 18.6,11.6 18.6,2.2 				"/>
				<path id="Fill-29-Copy-4" class="st1" d="M-36.6,2.2c-3.1,0-6,2-6,5.9l0,0c0,4,2.9,6.1,6,6.1l0,0c3.1,0,6-2.1,6-5.9l0,0
					C-30.7,4.4-33.5,2.2-36.6,2.2L-36.6,2.2z M-48.8,22v8.4h7.2v30.9H-49V70h24v-8.6h-7V22H-48.8z"/>
			</g>
		</g>
	</g>
</g>
</svg>
