<?xml version="1.0" encoding="utf-8"?>
<!-- Generator: Adobe Illustrator 22.0.1, SVG Export Plug-In . SVG Version: 6.00 Build 0)  -->
<svg version="1.1" xmlns="http://www.w3.org/2000/svg" xmlns:xlink="http://www.w3.org/1999/xlink" x="0px" y="0px"
	 viewBox="0 0 1440 200" style="enable-background:new 0 0 1440 200;" xml:space="preserve">
<style type="text/css">
	.st0{fill:#FFFFFF;}
	.st1{fill:#B2DAD1;}
	.st2{fill:#E9F5F3;}
	.st3{fill:none;}
	.st4{fill:#21D8AF;}
	.st5{fill:#ECF6F5;}
	.st6{fill:#E2E0DF;}
	.st7{fill:#EAF5F3;}
	.st8{fill:none;stroke:#E5ECF7;stroke-width:0.61;stroke-miterlimit:10;}
	.st9{fill:none;stroke:#E5ECF7;stroke-width:0.61;stroke-miterlimit:10;stroke-dasharray:3.09,1.24;}
	.st10{fill:none;stroke:#E5ECF7;stroke-width:0.61;stroke-miterlimit:10;stroke-dasharray:3.08,1.23;}
	.st11{fill:none;stroke:#E5ECF7;stroke-width:0.61;stroke-miterlimit:10;stroke-dasharray:3.09,1.23;}
	.st12{fill:none;stroke:#E5ECF7;stroke-width:0.61;stroke-miterlimit:10;stroke-dasharray:3.07,1.23;}
	.st13{fill:none;stroke:#E5ECF7;stroke-width:0.61;stroke-miterlimit:10;stroke-dasharray:3.06,1.22;}
	.st14{fill:none;stroke:#E5ECF7;stroke-width:0.61;stroke-miterlimit:10;stroke-dasharray:3.05,1.22;}
	.st15{fill:none;stroke:#E5ECF7;stroke-width:0.61;stroke-miterlimit:10;stroke-dasharray:3.1,1.24;}
	.st16{fill:none;stroke:#E5ECF7;stroke-width:0.68;stroke-miterlimit:10;}
	.st17{fill:none;stroke:#E5ECF7;stroke-width:0.68;stroke-miterlimit:10;stroke-dasharray:3.39,1.35;}
	.st18{fill:none;stroke:#E5ECF7;stroke-width:0.61;stroke-miterlimit:10;stroke-dasharray:3.03,1.21;}
	.st19{fill:none;stroke:#E5ECF7;stroke-width:0.61;stroke-miterlimit:10;stroke-dasharray:3.06,1.23;}
	.st20{fill:none;stroke:#E5ECF7;stroke-width:0.61;stroke-miterlimit:10;stroke-dasharray:3.12,1.25;}
	.st21{fill:none;stroke:#E5ECF7;stroke-width:0.68;stroke-miterlimit:10;stroke-dasharray:3.4,1.36;}
	.st22{fill:none;stroke:#E5ECF7;stroke-width:0.61;stroke-miterlimit:10;stroke-dasharray:3.13,1.25;}
</style>
<g id="Layer_1">
	<title>imandra_background_transition</title>
	<desc>Created with Sketch.</desc>
	<polygon class="st0" points="75,77.4 75,111.4 58,111.4 58,128.4 41,128.4 41,111.4 0,111.7 0,200 1440,200 1440,94.4 1412,94.4 
		1412,111.4 1395,111.4 1395,128.4 1378,128.4 1378,145.4 1360,145.4 1360,128.4 1378,128.4 1378,111.4 1343,111.4 1343,94.4 
		1327,94.4 1327,128.4 1310,128.4 1310,111.4 1292,111.4 1292,77.4 1284,77.4 1284,85.4 1277,85.4 1277,111.4 1260,111.4 
		1260,145.4 1242,145.4 1242,162.4 1225,162.4 1225,145.4 1192,145.4 1192,111.4 1174,111.4 1174,103.4 1166,103.4 1166,94.4 
		1157,94.4 1157,111.4 1123,111.4 1123,127.4 1140,127.4 1140,145.4 1123,145.4 1123,128.4 1106,128.4 1106,111.4 1090,111.4 
		1090,94.4 1055,94.4 1055,111.4 1022,111.4 1022,94.4 1004,94.4 1004,85.4 996,85.4 996,78.4 987,78.4 987,128.4 970,128.4 
		970,111.4 954,111.4 954,128.4 937,128.4 937,145.4 920,145.4 920,128.4 903,128.4 903,137.4 894,137.4 894,128.4 903,128.4 
		903,111.4 886,111.4 886,128.4 868,128.4 868,111.4 885,111.4 885,94.4 851,94.4 851,120.4 844,120.4 844,111.4 817,111.4 
		817,94.4 801,94.4 801,77.4 784,77.4 784,111.4 768,111.4 768,128.4 750,128.4 750,111.4 720.1,111.4 720.5,94.4 703,94.4 
		703,115.4 699,115.4 699,111.4 686,111.4 686,128.4 669,128.4 669,145.4 652,145.4 652,128.4 669,128.4 669,111.4 635,111.4 
		635,94.4 619,94.4 619,128.4 602,128.4 602,111.4 585,111.4 585,77.4 576,77.4 576,85.4 568,85.4 568,111.4 550,111.4 550,144.4 
		534,144.4 534,161.4 517,161.4 517,144.4 482,144.4 482,111.4 466,111.4 466,103.4 456,103.4 456,94.4 449,94.4 449,111.4 
		415,111.4 415,127.4 432,127.4 432,145.4 415,145.4 415,128.4 398,128.4 398,111.4 381,111.4 381,94.4 347,94.4 347,111.4 
		313,111.4 313,94.4 296,94.4 296,85.4 287,85.4 287,77.4 280,77.4 280,127.4 262,127.4 262,111.4 245.5,111.4 245,128.4 228,128.4 
		228,144.4 211,144.4 211,128.4 194,128.4 194,136.4 186,136.4 186,128.4 194,128.4 194,111.4 177,111.4 177,128.4 160,128.4 
		160,111.4 177,111.4 177,94.4 143,94.4 143,120.4 134,120.4 134,111.4 110,111.4 110,94.4 93,94.4 93,77.4 	"/>
	<rect x="487.5" y="114.4" class="st1" width="18" height="18"/>
	<rect x="324" y="123.4" class="st2" width="9" height="9"/>
	<rect x="297" y="146.4" class="st1" width="10" height="10"/>
	<rect x="227.9" y="144.2" class="st1" width="10" height="10"/>
	<rect x="587" y="131.4" class="st2" width="9" height="9"/>
	<rect x="45" y="133.4" class="st2" width="9" height="9"/>
	<rect x="82" y="164.4" class="st1" width="9" height="9"/>
	<rect x="79" y="97.4" class="st2" width="9" height="9"/>
	<rect x="212.2" y="39.7" class="st0" width="13.3" height="13.3"/>
	<rect x="214" y="97.4" class="st3" width="18" height="18"/>
	<rect x="10" y="82.4" class="st0" width="18" height="18"/>
	<rect x="371" y="85.4" class="st4" width="18" height="18"/>
	<rect x="576.6" y="85.4" class="st5" width="18" height="18"/>
	<rect x="112" y="73.4" class="st1" width="18" height="18"/>
	<rect x="257" y="136.4" class="st2" width="9" height="9"/>
	<rect x="540.9" y="152.7" class="st1" width="9" height="9"/>
	<rect x="535" y="56.4" class="st4" width="9" height="9"/>
	<rect x="690" y="74.4" class="st1" width="4" height="4"/>
	<rect x="10" y="131.4" class="st1" width="4" height="4"/>
	<rect x="263" y="179.4" class="st1" width="5" height="5"/>
	<rect x="1058" y="174.4" class="st2" width="8" height="8"/>
	<rect x="659.5" y="119.4" class="st2" width="17" height="17"/>
	<rect x="982" y="97.4" class="st6" width="9" height="9"/>
	<rect x="1007" y="122.4" class="st1" width="9" height="9"/>
	<rect x="1070" y="98.4" class="st2" width="9" height="9"/>
	<rect x="732" y="72.4" class="st6" width="8" height="8"/>
	<rect x="653" y="157.4" class="st2" width="8" height="8"/>
	<rect x="1260" y="78.4" class="st2" width="9" height="8"/>
	<rect x="1209" y="55.4" class="st0" width="9" height="9"/>
	<rect x="1210" y="106.4" class="st6" width="9" height="8"/>
	<rect x="1104" y="39.4" class="st0" width="9" height="9"/>
	<rect x="1363" y="148.4" class="st6" width="9" height="9"/>
	<rect x="1261" y="147.4" class="st7" width="9" height="9"/>
	<rect x="1421" y="56.4" class="st0" width="9" height="9"/>
	<rect x="1075" y="131.4" class="st1" width="17" height="17"/>
	<rect x="922" y="114.4" class="st1" width="17" height="17"/>
	<rect x="735" y="131.4" class="st2" width="17" height="17"/>
	<rect x="1160" y="173.4" class="st2" width="17" height="17"/>
	<rect x="1397" y="114.4" class="st2" width="17" height="17"/>
	<rect x="888" y="158.4" class="st2" width="9" height="9"/>
	<rect x="1040" y="89.4" class="st0" width="8" height="8"/>
	<rect x="770" y="122.4" class="st1" width="9" height="9"/>
	<rect x="812" y="148.4" class="st1" width="9" height="9"/>
	<rect x="637" y="148.4" class="st1" width="4" height="4"/>
	<rect x="1278" y="114.4" class="st2" width="4" height="4"/>
	<rect x="1039" y="61.4" class="st1" width="4" height="4"/>
</g>
<g id="lines">
	<g>
		<line class="st8" x1="718.9" y1="58.4" x2="718.9" y2="59.2"/>
		<line class="st9" x1="718.9" y1="59.8" x2="718.9" y2="144.9"/>
		<line class="st8" x1="718.9" y1="145.2" x2="718.9" y2="146"/>
		<line class="st8" x1="689.3" y1="28.5" x2="689.3" y2="29.1"/>
		<line class="st10" x1="689.3" y1="29.8" x2="689.3" y2="148.8"/>
		<line class="st8" x1="689.3" y1="149.1" x2="689.3" y2="149.8"/>
		<line class="st8" x1="655.4" y1="30.9" x2="655.4" y2="31.6"/>
		<line class="st11" x1="655.4" y1="32.3" x2="655.4" y2="165.9"/>
		<line class="st8" x1="655.4" y1="166.2" x2="655.4" y2="166.9"/>
		<line class="st8" x1="621.4" y1="40.8" x2="621.4" y2="41.6"/>
		<line class="st9" x1="621.4" y1="42.2" x2="621.4" y2="182.9"/>
		<line class="st8" x1="621.4" y1="183.2" x2="621.4" y2="184"/>
		<line class="st8" x1="587.4" y1="13.4" x2="587.4" y2="14.2"/>
		<line class="st12" x1="587.4" y1="14.8" x2="587.4" y2="148"/>
		<line class="st8" x1="587.4" y1="148.3" x2="587.4" y2="149.1"/>
		<line class="st8" x1="553.5" y1="62.3" x2="553.5" y2="63"/>
		<line class="st9" x1="553.5" y1="63.6" x2="553.5" y2="165.9"/>
		<line class="st8" x1="553.5" y1="166.2" x2="553.5" y2="166.9"/>
		<line class="st8" x1="519.6" y1="75" x2="519.6" y2="75.8"/>
		<line class="st13" x1="519.6" y1="76.4" x2="519.6" y2="196.4"/>
		<line class="st8" x1="519.6" y1="196.7" x2="519.6" y2="197.5"/>
		<line class="st8" x1="485.6" y1="74.5" x2="485.6" y2="75.2"/>
		<line class="st14" x1="485.6" y1="75.8" x2="485.6" y2="182.9"/>
		<line class="st8" x1="485.6" y1="183.2" x2="485.6" y2="184"/>
		<line class="st8" x1="451.6" y1="62.3" x2="451.6" y2="63"/>
		<line class="st14" x1="451.6" y1="63.6" x2="451.6" y2="149.6"/>
		<line class="st8" x1="451.6" y1="150" x2="451.6" y2="150.7"/>
		<line class="st8" x1="417.7" y1="79.5" x2="417.7" y2="80.3"/>
		<line class="st15" x1="417.7" y1="80.9" x2="417.7" y2="132"/>
		<line class="st8" x1="417.7" y1="132.3" x2="417.7" y2="133.1"/>
		<line class="st8" x1="383.7" y1="27.7" x2="383.7" y2="28.4"/>
		<line class="st13" x1="383.7" y1="29" x2="383.7" y2="149.2"/>
		<line class="st8" x1="383.7" y1="149.5" x2="383.7" y2="150.3"/>
		<line class="st8" x1="349.7" y1="41.1" x2="349.7" y2="41.9"/>
		<line class="st11" x1="349.7" y1="42.5" x2="349.7" y2="114.6"/>
		<line class="st8" x1="349.7" y1="114.9" x2="349.7" y2="115.7"/>
		<line class="st8" x1="315.8" y1="28.4" x2="315.8" y2="29.1"/>
		<line class="st12" x1="315.8" y1="29.7" x2="315.8" y2="148"/>
		<line class="st8" x1="315.8" y1="148.3" x2="315.8" y2="149.1"/>
		<line class="st8" x1="281.9" y1="31.2" x2="281.9" y2="32"/>
		<line class="st14" x1="281.9" y1="32.6" x2="281.9" y2="156.4"/>
		<line class="st8" x1="281.9" y1="156.7" x2="281.9" y2="157.5"/>
		<line class="st8" x1="247.9" y1="48.6" x2="247.9" y2="49.4"/>
		<line class="st13" x1="247.9" y1="50" x2="247.9" y2="170.1"/>
		<line class="st8" x1="247.9" y1="170.4" x2="247.9" y2="171.2"/>
		<line class="st8" x1="214" y1="75.3" x2="214" y2="76.1"/>
		<line class="st11" x1="214" y1="76.7" x2="214" y2="182.9"/>
		<line class="st8" x1="214" y1="183.2" x2="214" y2="184"/>
		<line class="st8" x1="180" y1="75" x2="180" y2="75.8"/>
		<line class="st15" x1="180" y1="76.4" x2="180" y2="114.6"/>
		<line class="st8" x1="180" y1="114.9" x2="180" y2="115.7"/>
		<line class="st8" x1="146" y1="32.9" x2="146" y2="33.7"/>
		<line class="st10" x1="146" y1="34.3" x2="146" y2="183.1"/>
		<line class="st8" x1="146" y1="183.4" x2="146" y2="184.1"/>
		<line class="st8" x1="112" y1="79.5" x2="112" y2="80.3"/>
		<line class="st10" x1="112" y1="80.9" x2="112" y2="148.8"/>
		<line class="st8" x1="112" y1="149.1" x2="112" y2="149.8"/>
		<line class="st8" x1="78.1" y1="28.4" x2="78.1" y2="29.1"/>
		<line class="st12" x1="78.1" y1="29.7" x2="78.1" y2="148"/>
		<line class="st8" x1="78.1" y1="148.3" x2="78.1" y2="149.1"/>
		<line class="st8" x1="44.2" y1="58.2" x2="44.2" y2="59"/>
		<line class="st11" x1="44.2" y1="59.6" x2="44.2" y2="182.9"/>
		<line class="st8" x1="44.2" y1="183.2" x2="44.2" y2="184"/>
		<line class="st8" x1="10.2" y1="53.9" x2="10.2" y2="54.7"/>
		<line class="st9" x1="10.2" y1="55.3" x2="10.2" y2="140.5"/>
		<line class="st8" x1="10.2" y1="140.9" x2="10.2" y2="141.6"/>
		<line class="st16" x1="706.3" y1="64.5" x2="706.3" y2="65.3"/>
		<line class="st17" x1="706.3" y1="66" x2="706.3" y2="168.5"/>
		<line class="st16" x1="706.3" y1="168.8" x2="706.3" y2="169.7"/>
		<line class="st8" x1="672.4" y1="46.4" x2="672.4" y2="47.2"/>
		<line class="st13" x1="672.4" y1="47.8" x2="672.4" y2="165.9"/>
		<line class="st8" x1="672.4" y1="166.2" x2="672.4" y2="166.9"/>
		<line class="st8" x1="638.4" y1="71.7" x2="638.4" y2="72.5"/>
		<line class="st12" x1="638.4" y1="73.1" x2="638.4" y2="182.9"/>
		<line class="st8" x1="638.4" y1="183.2" x2="638.4" y2="184"/>
		<line class="st8" x1="604.4" y1="40.4" x2="604.4" y2="41.2"/>
		<line class="st11" x1="604.4" y1="41.8" x2="604.4" y2="148"/>
		<line class="st8" x1="604.4" y1="148.3" x2="604.4" y2="149.1"/>
		<line class="st8" x1="570.5" y1="46.4" x2="570.5" y2="47.2"/>
		<line class="st13" x1="570.5" y1="47.8" x2="570.5" y2="165.9"/>
		<line class="st8" x1="570.5" y1="166.2" x2="570.5" y2="166.9"/>
		<line class="st8" x1="536.6" y1="81.5" x2="536.6" y2="82.3"/>
		<line class="st14" x1="536.6" y1="82.9" x2="536.6" y2="196.4"/>
		<line class="st8" x1="536.6" y1="196.7" x2="536.6" y2="197.5"/>
		<line class="st8" x1="502.6" y1="107.5" x2="502.6" y2="108.2"/>
		<line class="st10" x1="502.6" y1="108.8" x2="502.6" y2="182.9"/>
		<line class="st8" x1="502.6" y1="183.2" x2="502.6" y2="184"/>
		<line class="st8" x1="468.7" y1="71.7" x2="468.7" y2="72.5"/>
		<line class="st9" x1="468.7" y1="73.1" x2="468.7" y2="149.6"/>
		<line class="st8" x1="468.7" y1="150" x2="468.7" y2="150.7"/>
		<line class="st8" x1="434.7" y1="71.7" x2="434.7" y2="72.5"/>
		<line class="st13" x1="434.7" y1="73.1" x2="434.7" y2="132"/>
		<line class="st8" x1="434.7" y1="132.3" x2="434.7" y2="133.1"/>
		<line class="st8" x1="400.7" y1="88.3" x2="400.7" y2="89.1"/>
		<line class="st9" x1="400.7" y1="89.7" x2="400.7" y2="149.2"/>
		<line class="st8" x1="400.7" y1="149.5" x2="400.7" y2="150.3"/>
		<line class="st8" x1="366.7" y1="71.7" x2="366.7" y2="72.5"/>
		<line class="st18" x1="366.7" y1="73.1" x2="366.7" y2="114.6"/>
		<line class="st8" x1="366.7" y1="114.9" x2="366.7" y2="115.7"/>
		<line class="st8" x1="332.7" y1="64.5" x2="332.7" y2="65.3"/>
		<line class="st19" x1="332.7" y1="65.9" x2="332.7" y2="148"/>
		<line class="st8" x1="332.7" y1="148.3" x2="332.7" y2="149.1"/>
		<line class="st8" x1="298.9" y1="59.5" x2="298.9" y2="60.2"/>
		<line class="st11" x1="298.9" y1="60.9" x2="298.9" y2="156.4"/>
		<line class="st8" x1="298.9" y1="156.7" x2="298.9" y2="157.5"/>
		<line class="st8" x1="264.9" y1="58.3" x2="264.9" y2="59.1"/>
		<line class="st10" x1="264.9" y1="59.7" x2="264.9" y2="170.1"/>
		<line class="st8" x1="264.9" y1="170.4" x2="264.9" y2="171.2"/>
		<line class="st8" x1="230.9" y1="46.3" x2="230.9" y2="47.1"/>
		<line class="st19" x1="230.9" y1="47.7" x2="230.9" y2="182.9"/>
		<line class="st8" x1="230.9" y1="183.2" x2="230.9" y2="184"/>
		<line class="st8" x1="196.9" y1="81.5" x2="196.9" y2="82.3"/>
		<line class="st20" x1="196.9" y1="82.9" x2="196.9" y2="119.2"/>
		<line class="st8" x1="196.9" y1="119.5" x2="196.9" y2="120.3"/>
		<line class="st8" x1="163" y1="81.5" x2="163" y2="82.3"/>
		<line class="st9" x1="163" y1="82.9" x2="163" y2="183.1"/>
		<line class="st8" x1="163" y1="183.4" x2="163" y2="184.1"/>
		<line class="st8" x1="129" y1="46.3" x2="129" y2="47.1"/>
		<line class="st13" x1="129" y1="47.7" x2="129" y2="148.8"/>
		<line class="st8" x1="129" y1="149.1" x2="129" y2="149.8"/>
		<line class="st8" x1="95" y1="73.7" x2="95" y2="74.4"/>
		<line class="st18" x1="95" y1="75" x2="95" y2="148"/>
		<line class="st8" x1="95" y1="148.3" x2="95" y2="149.1"/>
		<line class="st8" x1="61.2" y1="90.1" x2="61.2" y2="90.9"/>
		<line class="st9" x1="61.2" y1="91.5" x2="61.2" y2="182.9"/>
		<line class="st8" x1="61.2" y1="183.2" x2="61.2" y2="184"/>
		<line class="st8" x1="27.2" y1="47.4" x2="27.2" y2="48.1"/>
		<line class="st15" x1="27.2" y1="48.8" x2="27.2" y2="164"/>
		<line class="st8" x1="27.2" y1="164.3" x2="27.2" y2="165.1"/>
		<line class="st8" x1="301.3" y1="81.5" x2="302" y2="81.5"/>
		<line class="st10" x1="302.6" y1="81.5" x2="436.2" y2="81.5"/>
		<line class="st8" x1="436.5" y1="81.5" x2="437.3" y2="81.5"/>
		<line class="st8" x1="10.2" y1="81.5" x2="11" y2="81.5"/>
		<line class="st12" x1="11.6" y1="81.5" x2="51.7" y2="81.5"/>
		<line class="st8" x1="52" y1="81.5" x2="52.7" y2="81.5"/>
		<line class="st8" x1="524.8" y1="81.5" x2="525.6" y2="81.5"/>
		<line class="st10" x1="526.2" y1="81.5" x2="659.8" y2="81.5"/>
		<line class="st8" x1="660" y1="81.5" x2="660.8" y2="81.5"/>
		<line class="st8" x1="471.8" y1="115.7" x2="472.6" y2="115.7"/>
		<line class="st9" x1="473.2" y1="115.7" x2="573.3" y2="115.7"/>
		<line class="st8" x1="573.6" y1="115.7" x2="574.4" y2="115.7"/>
		<line class="st8" x1="9.9" y1="64.5" x2="10.6" y2="64.5"/>
		<line class="st8" x1="9.9" y1="98.6" x2="10.6" y2="98.6"/>
		<line class="st9" x1="11.3" y1="98.6" x2="77.2" y2="98.6"/>
		<line class="st8" x1="77.5" y1="98.6" x2="78.2" y2="98.6"/>
		<line class="st8" x1="489" y1="132.8" x2="489.8" y2="132.8"/>
		<line class="st11" x1="490.4" y1="132.8" x2="556.1" y2="132.8"/>
		<line class="st8" x1="556.5" y1="132.8" x2="557.2" y2="132.8"/>
		<line class="st8" x1="489" y1="149.7" x2="489.8" y2="149.7"/>
		<line class="st11" x1="490.4" y1="149.7" x2="556.1" y2="149.7"/>
		<line class="st8" x1="556.5" y1="149.7" x2="557.2" y2="149.7"/>
		<line class="st8" x1="385.6" y1="115.7" x2="386.4" y2="115.7"/>
		<line class="st18" x1="387" y1="115.7" x2="453.8" y2="115.7"/>
		<line class="st8" x1="454.1" y1="115.7" x2="454.9" y2="115.7"/>
		<line class="st8" x1="591.8" y1="98.6" x2="592.6" y2="98.6"/>
		<line class="st9" x1="593.2" y1="98.6" x2="693.1" y2="98.6"/>
		<line class="st8" x1="693.4" y1="98.6" x2="694.2" y2="98.6"/>
		<line class="st8" x1="386.4" y1="98.6" x2="387.1" y2="98.6"/>
		<line class="st15" x1="387.8" y1="98.6" x2="453.8" y2="98.6"/>
		<line class="st8" x1="454.1" y1="98.6" x2="454.9" y2="98.6"/>
		<line class="st8" x1="300.9" y1="98.6" x2="301.7" y2="98.6"/>
		<line class="st9" x1="302.3" y1="98.6" x2="385.3" y2="98.6"/>
		<line class="st8" x1="385.6" y1="98.6" x2="386.4" y2="98.6"/>
		<line class="st8" x1="185" y1="115.6" x2="185.8" y2="115.6"/>
		<line class="st9" x1="186.3" y1="115.6" x2="269.3" y2="115.6"/>
		<line class="st8" x1="269.7" y1="115.6" x2="270.4" y2="115.6"/>
		<line class="st8" x1="198" y1="132.8" x2="198.8" y2="132.8"/>
		<line class="st15" x1="199.4" y1="132.8" x2="248.4" y2="132.8"/>
		<line class="st8" x1="248.7" y1="132.8" x2="249.5" y2="132.8"/>
		<line class="st8" x1="9.9" y1="115.6" x2="10.6" y2="115.6"/>
		<line class="st20" x1="11.3" y1="115.6" x2="75.5" y2="115.6"/>
		<line class="st8" x1="75.9" y1="115.6" x2="76.6" y2="115.6"/>
		<line class="st8" x1="95.9" y1="98.7" x2="96.7" y2="98.7"/>
		<line class="st20" x1="97.3" y1="98.7" x2="161.5" y2="98.7"/>
		<line class="st8" x1="161.8" y1="98.7" x2="162.6" y2="98.7"/>
		<line class="st8" x1="283.6" y1="98.6" x2="282.9" y2="98.6"/>
		<line class="st15" x1="282.3" y1="98.6" x2="182" y2="98.6"/>
		<line class="st8" x1="181.6" y1="98.6" x2="180.9" y2="98.6"/>
		<line class="st8" x1="751.1" y1="28.6" x2="751.1" y2="29.2"/>
		<line class="st10" x1="751.1" y1="29.8" x2="751.1" y2="148.8"/>
		<line class="st8" x1="751.1" y1="149.1" x2="751.1" y2="149.9"/>
		<line class="st8" x1="785" y1="14.1" x2="785" y2="14.9"/>
		<line class="st11" x1="785" y1="15.5" x2="785" y2="165.9"/>
		<line class="st8" x1="785" y1="166.3" x2="785" y2="167"/>
		<line class="st8" x1="819" y1="40.9" x2="819" y2="41.7"/>
		<line class="st9" x1="819" y1="42.3" x2="819" y2="183"/>
		<line class="st8" x1="819" y1="183.3" x2="819" y2="184.1"/>
		<line class="st8" x1="853" y1="13.5" x2="853" y2="14.3"/>
		<line class="st12" x1="853" y1="14.9" x2="853" y2="148.1"/>
		<line class="st8" x1="853" y1="148.4" x2="853" y2="149.2"/>
		<line class="st8" x1="886.9" y1="62.3" x2="886.9" y2="63.1"/>
		<line class="st9" x1="886.9" y1="63.7" x2="886.9" y2="165.9"/>
		<line class="st8" x1="886.9" y1="166.3" x2="886.9" y2="167"/>
		<line class="st8" x1="920.9" y1="75.1" x2="920.9" y2="75.8"/>
		<line class="st13" x1="920.9" y1="76.5" x2="920.9" y2="196.5"/>
		<line class="st8" x1="920.9" y1="196.8" x2="920.9" y2="197.5"/>
		<line class="st8" x1="954.9" y1="74.5" x2="954.9" y2="75.3"/>
		<line class="st14" x1="954.9" y1="75.9" x2="954.9" y2="183"/>
		<line class="st8" x1="954.9" y1="183.3" x2="954.9" y2="184.1"/>
		<line class="st8" x1="988.8" y1="62.3" x2="988.8" y2="63.1"/>
		<line class="st14" x1="988.8" y1="63.7" x2="988.8" y2="149.7"/>
		<line class="st8" x1="988.8" y1="150" x2="988.8" y2="150.8"/>
		<line class="st8" x1="1022.7" y1="79.6" x2="1022.7" y2="80.4"/>
		<line class="st15" x1="1022.7" y1="81" x2="1022.7" y2="132.1"/>
		<line class="st8" x1="1022.7" y1="132.4" x2="1022.7" y2="133.1"/>
		<line class="st8" x1="1056.7" y1="27.8" x2="1056.7" y2="28.5"/>
		<line class="st13" x1="1056.7" y1="29" x2="1056.7" y2="149.3"/>
		<line class="st8" x1="1056.7" y1="149.6" x2="1056.7" y2="150.4"/>
		<line class="st8" x1="1090.7" y1="41.2" x2="1090.7" y2="42"/>
		<line class="st11" x1="1090.7" y1="42.6" x2="1090.7" y2="114.7"/>
		<line class="st8" x1="1090.7" y1="115" x2="1090.7" y2="115.8"/>
		<line class="st8" x1="1124.6" y1="28.5" x2="1124.6" y2="29.1"/>
		<line class="st12" x1="1124.6" y1="29.8" x2="1124.6" y2="148.1"/>
		<line class="st8" x1="1124.6" y1="148.4" x2="1124.6" y2="149.2"/>
		<line class="st8" x1="1158.6" y1="31.3" x2="1158.6" y2="32.1"/>
		<line class="st14" x1="1158.6" y1="32.7" x2="1158.6" y2="156.5"/>
		<line class="st8" x1="1158.6" y1="156.8" x2="1158.6" y2="157.5"/>
		<line class="st8" x1="1192.6" y1="48.7" x2="1192.6" y2="49.4"/>
		<line class="st13" x1="1192.6" y1="50" x2="1192.6" y2="170.2"/>
		<line class="st8" x1="1192.6" y1="170.5" x2="1192.6" y2="171.3"/>
		<line class="st8" x1="1226.4" y1="75.4" x2="1226.4" y2="76.1"/>
		<line class="st11" x1="1226.4" y1="76.8" x2="1226.4" y2="183"/>
		<line class="st8" x1="1226.4" y1="183.3" x2="1226.4" y2="184.1"/>
		<line class="st8" x1="1260.4" y1="75.1" x2="1260.4" y2="75.8"/>
		<line class="st15" x1="1260.4" y1="76.5" x2="1260.4" y2="114.7"/>
		<line class="st8" x1="1260.4" y1="115" x2="1260.4" y2="115.8"/>
		<line class="st8" x1="1294.4" y1="33" x2="1294.4" y2="33.8"/>
		<line class="st10" x1="1294.4" y1="34.4" x2="1294.4" y2="183.1"/>
		<line class="st8" x1="1294.4" y1="183.4" x2="1294.4" y2="184.2"/>
		<line class="st8" x1="1328.4" y1="79.6" x2="1328.4" y2="80.4"/>
		<line class="st10" x1="1328.4" y1="81" x2="1328.4" y2="148.8"/>
		<line class="st8" x1="1328.4" y1="149.1" x2="1328.4" y2="149.9"/>
		<line class="st8" x1="1362.3" y1="28.5" x2="1362.3" y2="29.2"/>
		<line class="st12" x1="1362.3" y1="29.8" x2="1362.3" y2="148.1"/>
		<line class="st8" x1="1362.3" y1="148.4" x2="1362.3" y2="149.2"/>
		<line class="st8" x1="1396.3" y1="58.3" x2="1396.3" y2="59"/>
		<line class="st11" x1="1396.3" y1="59.7" x2="1396.3" y2="183"/>
		<line class="st8" x1="1396.3" y1="183.3" x2="1396.3" y2="184.1"/>
		<line class="st16" x1="735.8" y1="64.6" x2="735.8" y2="65.4"/>
		<line class="st21" x1="735.8" y1="66.1" x2="735.8" y2="166.6"/>
		<line class="st16" x1="735.8" y1="166.9" x2="735.8" y2="167.8"/>
		<line class="st8" x1="768" y1="46.5" x2="768" y2="47.3"/>
		<line class="st13" x1="768" y1="47.9" x2="768" y2="165.9"/>
		<line class="st8" x1="768" y1="166.3" x2="768" y2="167"/>
		<line class="st8" x1="802" y1="71.8" x2="802" y2="72.6"/>
		<line class="st12" x1="802" y1="73.1" x2="802" y2="183"/>
		<line class="st8" x1="802" y1="183.3" x2="802" y2="184.1"/>
		<line class="st8" x1="836" y1="40.5" x2="836" y2="41.2"/>
		<line class="st11" x1="836" y1="41.8" x2="836" y2="148.1"/>
		<line class="st8" x1="836" y1="148.4" x2="836" y2="149.2"/>
		<line class="st8" x1="869.9" y1="46.5" x2="869.9" y2="47.3"/>
		<line class="st13" x1="869.9" y1="47.9" x2="869.9" y2="165.9"/>
		<line class="st8" x1="869.9" y1="166.3" x2="869.9" y2="167"/>
		<line class="st8" x1="903.9" y1="81.6" x2="903.9" y2="82.4"/>
		<line class="st14" x1="903.9" y1="83" x2="903.9" y2="196.5"/>
		<line class="st8" x1="903.9" y1="196.8" x2="903.9" y2="197.5"/>
		<line class="st8" x1="937.9" y1="107.5" x2="937.9" y2="108.3"/>
		<line class="st10" x1="937.9" y1="108.9" x2="937.9" y2="183"/>
		<line class="st8" x1="937.9" y1="183.3" x2="937.9" y2="184.1"/>
		<line class="st8" x1="971.7" y1="71.8" x2="971.7" y2="72.6"/>
		<line class="st9" x1="971.7" y1="73.1" x2="971.7" y2="149.7"/>
		<line class="st8" x1="971.7" y1="150" x2="971.7" y2="150.8"/>
		<line class="st8" x1="1005.7" y1="71.8" x2="1005.7" y2="72.6"/>
		<line class="st13" x1="1005.7" y1="73.1" x2="1005.7" y2="132.1"/>
		<line class="st8" x1="1005.7" y1="132.4" x2="1005.7" y2="133.1"/>
		<line class="st8" x1="1039.7" y1="88.4" x2="1039.7" y2="89.2"/>
		<line class="st9" x1="1039.7" y1="89.8" x2="1039.7" y2="149.3"/>
		<line class="st8" x1="1039.7" y1="149.6" x2="1039.7" y2="150.3"/>
		<line class="st8" x1="1073.7" y1="71.8" x2="1073.7" y2="72.6"/>
		<line class="st18" x1="1073.7" y1="73.1" x2="1073.7" y2="114.7"/>
		<line class="st8" x1="1073.7" y1="115" x2="1073.7" y2="115.8"/>
		<line class="st8" x1="1107.7" y1="64.6" x2="1107.7" y2="65.3"/>
		<line class="st19" x1="1107.7" y1="65.9" x2="1107.7" y2="148.1"/>
		<line class="st8" x1="1107.7" y1="148.4" x2="1107.7" y2="149.2"/>
		<line class="st8" x1="1141.6" y1="59.5" x2="1141.6" y2="60.3"/>
		<line class="st11" x1="1141.6" y1="60.9" x2="1141.6" y2="156.5"/>
		<line class="st8" x1="1141.6" y1="156.8" x2="1141.6" y2="157.5"/>
		<line class="st8" x1="1175.6" y1="58.4" x2="1175.6" y2="59.1"/>
		<line class="st10" x1="1175.6" y1="59.8" x2="1175.6" y2="170.2"/>
		<line class="st8" x1="1175.6" y1="170.5" x2="1175.6" y2="171.3"/>
		<line class="st8" x1="1209.5" y1="46.4" x2="1209.5" y2="47.2"/>
		<line class="st19" x1="1209.5" y1="47.8" x2="1209.5" y2="183"/>
		<line class="st8" x1="1209.5" y1="183.3" x2="1209.5" y2="184.1"/>
		<line class="st8" x1="1243.5" y1="81.6" x2="1243.5" y2="82.4"/>
		<line class="st20" x1="1243.5" y1="83" x2="1243.5" y2="119.3"/>
		<line class="st8" x1="1243.5" y1="119.6" x2="1243.5" y2="120.3"/>
		<line class="st8" x1="1277.4" y1="81.6" x2="1277.4" y2="82.4"/>
		<line class="st9" x1="1277.4" y1="83" x2="1277.4" y2="183.1"/>
		<line class="st8" x1="1277.4" y1="183.4" x2="1277.4" y2="184.2"/>
		<line class="st8" x1="1311.4" y1="46.4" x2="1311.4" y2="47.2"/>
		<line class="st13" x1="1311.4" y1="47.8" x2="1311.4" y2="148.8"/>
		<line class="st8" x1="1311.4" y1="149.1" x2="1311.4" y2="149.9"/>
		<line class="st8" x1="1345.4" y1="73.7" x2="1345.4" y2="74.5"/>
		<line class="st18" x1="1345.4" y1="75.1" x2="1345.4" y2="148.1"/>
		<line class="st8" x1="1345.4" y1="148.4" x2="1345.4" y2="149.2"/>
		<line class="st8" x1="1379.3" y1="90.2" x2="1379.3" y2="90.9"/>
		<line class="st9" x1="1379.3" y1="91.6" x2="1379.3" y2="183"/>
		<line class="st8" x1="1379.3" y1="183.3" x2="1379.3" y2="184.1"/>
		<line class="st8" x1="1413.3" y1="47.5" x2="1413.3" y2="48.2"/>
		<line class="st15" x1="1413.3" y1="48.8" x2="1413.3" y2="164.1"/>
		<line class="st8" x1="1413.3" y1="164.4" x2="1413.3" y2="165.1"/>
		<line class="st8" x1="1139.1" y1="81.6" x2="1138.4" y2="81.6"/>
		<line class="st10" x1="1137.8" y1="81.6" x2="1004.3" y2="81.6"/>
		<line class="st8" x1="1004" y1="81.6" x2="1003.2" y2="81.6"/>
		<line class="st8" x1="1428.8" y1="81.6" x2="1428" y2="81.6"/>
		<line class="st22" x1="1427.4" y1="81.6" x2="1388.9" y2="81.6"/>
		<line class="st8" x1="1388.5" y1="81.6" x2="1387.8" y2="81.6"/>
		<line class="st10" x1="843.5" y1="81.6" x2="780.7" y2="81.6"/>
		<line class="st8" x1="780.4" y1="81.6" x2="779.6" y2="81.6"/>
		<line class="st8" x1="968.6" y1="115.8" x2="967.8" y2="115.8"/>
		<line class="st9" x1="967.2" y1="115.8" x2="867.1" y2="115.8"/>
		<line class="st8" x1="866.8" y1="115.8" x2="866" y2="115.8"/>
		<line class="st8" x1="1429.3" y1="64.6" x2="1428.5" y2="64.6"/>
		<line class="st8" x1="1429.3" y1="98.7" x2="1428.5" y2="98.7"/>
		<line class="st18" x1="1427.9" y1="98.7" x2="1363.3" y2="98.7"/>
		<line class="st8" x1="1363" y1="98.7" x2="1362.2" y2="98.7"/>
		<line class="st8" x1="951.4" y1="132.9" x2="950.6" y2="132.9"/>
		<line class="st11" x1="950" y1="132.9" x2="884.3" y2="132.9"/>
		<line class="st8" x1="883.9" y1="132.9" x2="883.2" y2="132.9"/>
		<line class="st8" x1="951.4" y1="149.8" x2="950.6" y2="149.8"/>
		<line class="st11" x1="950" y1="149.8" x2="884.3" y2="149.8"/>
		<line class="st8" x1="883.9" y1="149.8" x2="883.2" y2="149.8"/>
		<line class="st8" x1="1054.8" y1="115.8" x2="1054" y2="115.8"/>
		<line class="st18" x1="1053.5" y1="115.8" x2="986.7" y2="115.8"/>
		<line class="st8" x1="986.4" y1="115.8" x2="985.6" y2="115.8"/>
		<line class="st8" x1="968.6" y1="98.7" x2="967.8" y2="98.7"/>
		<line class="st9" x1="967.2" y1="98.7" x2="867.1" y2="98.7"/>
		<line class="st8" x1="866.8" y1="98.7" x2="866" y2="98.7"/>
		<line class="st8" x1="848.6" y1="98.7" x2="847.9" y2="98.7"/>
		<line class="st9" x1="847.3" y1="98.7" x2="747.3" y2="98.7"/>
		<line class="st8" x1="747" y1="98.7" x2="746.2" y2="98.7"/>
		<line class="st8" x1="1054" y1="98.7" x2="1053.4" y2="98.7"/>
		<line class="st15" x1="1052.8" y1="98.7" x2="986.7" y2="98.7"/>
		<line class="st8" x1="986.4" y1="98.7" x2="985.6" y2="98.7"/>
		<line class="st8" x1="1139.5" y1="98.7" x2="1138.7" y2="98.7"/>
		<line class="st9" x1="1138.1" y1="98.7" x2="1055.1" y2="98.7"/>
		<line class="st8" x1="1054.8" y1="98.7" x2="1054" y2="98.7"/>
		<line class="st8" x1="1255.4" y1="115.6" x2="1254.6" y2="115.6"/>
		<line class="st9" x1="1254" y1="115.6" x2="1171.1" y2="115.6"/>
		<line class="st8" x1="1170.8" y1="115.6" x2="1170" y2="115.6"/>
		<line class="st8" x1="1242.4" y1="132.9" x2="1241.7" y2="132.9"/>
		<line class="st15" x1="1241.1" y1="132.9" x2="1192.1" y2="132.9"/>
		<line class="st8" x1="1191.8" y1="132.9" x2="1191" y2="132.9"/>
		<line class="st8" x1="1428.1" y1="115.6" x2="1427.3" y2="115.6"/>
		<line class="st15" x1="1426.7" y1="115.6" x2="1365" y2="115.6"/>
		<line class="st8" x1="1364.7" y1="115.6" x2="1363.9" y2="115.6"/>
		<line class="st8" x1="1344.5" y1="98.7" x2="1343.7" y2="98.7"/>
		<line class="st20" x1="1343.1" y1="98.7" x2="1278.9" y2="98.7"/>
		<line class="st8" x1="1278.6" y1="98.7" x2="1277.8" y2="98.7"/>
		<line class="st8" x1="1156.8" y1="98.7" x2="1157.6" y2="98.7"/>
		<line class="st15" x1="1158.2" y1="98.7" x2="1258.5" y2="98.7"/>
		<line class="st8" x1="1258.8" y1="98.7" x2="1259.5" y2="98.7"/>
	</g>
</g>
</svg>
