<svg xmlns="http://www.w3.org/2000/svg" width="37.78" height="18.47" viewBox="0 0 37.78 18.47">
  <title>imandra_doc_logo_main</title>
  <g id="155fd7d2-db11-4f02-a4ed-6a0787777488" data-name="Layer 2">
    <g id="5453b741-430e-4eba-83d1-c57924e0309c" data-name="Layer 1">
      <g>
        <g>
          <polygon points="18.89 17.54 0.49 17.54 3.51 3.54 18.89 3.62 18.89 17.54" style="fill: #27d798"/>
          <path d="M19.29,17.94H0L3.19,3.14l16.1.09ZM1,17.14h17.5V4L3.83,3.94Z" style="fill: #fff"/>
        </g>
        <g>
          <path d="M18.89,17s-.61-1.07-6.24-2.14a21.24,21.24,0,0,0-9.71.61L5.27,2.35a19,19,0,0,1,8.28-1.29c4,.48,5.34,2.28,5.34,2.28Z" style="fill: #27d798"/>
          <path d="M19.29,18.47l-.74-1.28c-.07-.08-1-1-6-2a20.85,20.85,0,0,0-9.51.6L2.43,16l2.48-14L5.11,2A19.22,19.22,0,0,1,13.6.66c4.12.5,5.55,2.36,5.61,2.44l.08.11ZM9.19,14.11a19.32,19.32,0,0,1,3.54.32,20.23,20.23,0,0,1,5.76,1.73V3.49c-.33-.35-1.75-1.64-5-2A18.5,18.5,0,0,0,5.62,2.64L3.45,14.87A22.24,22.24,0,0,1,9.19,14.11Z" style="fill: #fff"/>
        </g>
        <g>
          <polygon points="18.89 17.54 37.28 17.54 34.27 3.54 18.89 3.62 18.89 17.54" style="fill: #27d798"/>
          <path d="M37.78,17.94H18.49V3.23l16.1-.09Zm-18.49-.8h17.5L34,3.94,19.29,4Z" style="fill: #fff"/>
        </g>
        <g>
          <path d="M18.89,17a14.85,14.85,0,0,1,6.73-2.06,28,28,0,0,1,9.22.53L32.51,2.35a19,19,0,0,0-8.28-1.29c-4,.48-5.34,2.28-5.34,2.28Z" style="fill: #27d798"/>
          <path d="M18.49,17.74V3.21l.08-.11C18.63,3,20.06,1.16,24.18.66A19.22,19.22,0,0,1,32.67,2l.2.08L35.35,16l-.61-.17a27.64,27.64,0,0,0-9.08-.51,14.76,14.76,0,0,0-6.54,2Zm.8-14.25V16.26a17.1,17.1,0,0,1,6.29-1.75,29.21,29.21,0,0,1,8.76.4L32.16,2.64a18.35,18.35,0,0,0-7.88-1.19C21,1.85,19.62,3.13,19.29,3.49Z" style="fill: #fff"/>
        </g>
        <path d="M30.83,1.61a9.79,9.79,0,0,0-6-1.13,12.43,12.43,0,0,0-5.95,2.44A8.91,8.91,0,0,0,13.68.71,14.89,14.89,0,0,0,7,1.61L5.05,13a24,24,0,0,1,7.44.13c5,1,6.4,3.25,6.4,3.25a12.2,12.2,0,0,1,6.34-3.05,22.27,22.27,0,0,1,7.5-.33Z" style="fill: #27d798"/>
        <path d="M31.19,1.37,31,1.27A10.08,10.08,0,0,0,24.79.08,12.9,12.9,0,0,0,18.91,2.4,9.67,9.67,0,0,0,13.72.32a15.07,15.07,0,0,0-6.92.92l-.21.09-2,12.11.55-.09a23.94,23.94,0,0,1,7.3.13,11.18,11.18,0,0,1,6.08,3v.87l.38-.42,0,0v0l.29-.32a12,12,0,0,1,6.13-2.93,22.09,22.09,0,0,1,7.35-.33l.56.09ZM18.89,15.46a16.62,16.62,0,0,0-6.33-2.76,21.1,21.1,0,0,0-4.11-.37,26,26,0,0,0-2.92.16L7.31,1.9a14.59,14.59,0,0,1,6.32-.79,12.27,12.27,0,0,1,5.26,2.23h0a13.93,13.93,0,0,1,6-2.47,9.56,9.56,0,0,1,5.58,1l1.79,10.63a24.12,24.12,0,0,0-7.1.4,16.31,16.31,0,0,0-6.26,2.57" style="fill: #fff"/>
        <path d="M18.77,5.15a1.63,1.63,0,0,0-.45.07A1.16,1.16,0,0,0,18,5.4a1.06,1.06,0,0,0-.25.27.66.66,0,0,0-.09.33V9.33a.67.67,0,0,0,.09.34.86.86,0,0,0,.25.29,1.43,1.43,0,0,0,.37.19,1.7,1.7,0,0,0,.46.07h0a1.7,1.7,0,0,0,.46-.07,1.29,1.29,0,0,0,.37-.19.89.89,0,0,0,.26-.29A.67.67,0,0,0,20,9.33l0-3.32h0a.63.63,0,0,0-.09-.33.91.91,0,0,0-.25-.27,1.11,1.11,0,0,0-.36-.18,1.7,1.7,0,0,0-.46-.07" style="fill: #fff"/>
        <path d="M11,5.15A3.19,3.19,0,0,0,10,5.3a2.54,2.54,0,0,0-.78.42,1.91,1.91,0,0,0-.55.62,1.82,1.82,0,0,0-.23.76,1.68,1.68,0,0,0,.15.77,2.11,2.11,0,0,0,.49.63,2.46,2.46,0,0,0,.76.43,2.91,2.91,0,0,0,1,.16,3,3,0,0,0,.95-.15,2.5,2.5,0,0,0,.79-.43,2.13,2.13,0,0,0,.54-.63,1.68,1.68,0,0,0,.05-1.53,1.88,1.88,0,0,0-.5-.62,2.39,2.39,0,0,0-.75-.42A2.79,2.79,0,0,0,11,5.15" style="fill: #fff"/>
        <path d="M10.81,9.09a2.91,2.91,0,0,1-1-.16A2.46,2.46,0,0,1,9.1,8.5a2.11,2.11,0,0,1-.49-.63,1.68,1.68,0,0,1-.15-.77,1.82,1.82,0,0,1,.23-.76,1.91,1.91,0,0,1,.55-.62A2.54,2.54,0,0,1,10,5.3,3.19,3.19,0,0,1,11,5.15a2.79,2.79,0,0,1,.93.16,2.39,2.39,0,0,1,.75.42,1.88,1.88,0,0,1,.5.62,1.68,1.68,0,0,1-.05,1.53,2.13,2.13,0,0,1-.54.63,2.5,2.5,0,0,1-.79.43,3,3,0,0,1-.95.15M11,4.32a4.1,4.1,0,0,0-1.32.21,3.63,3.63,0,0,0-1.1.59A3,3,0,0,0,7.79,6,2.57,2.57,0,0,0,7.46,7.1a2.4,2.4,0,0,0,.21,1.1,2.75,2.75,0,0,0,.69.91,3.34,3.34,0,0,0,1.07.62,4.14,4.14,0,0,0,1.34.24,4,4,0,0,0,1.36-.23,3.75,3.75,0,0,0,1.11-.62A3,3,0,0,0,14,8.21a2.47,2.47,0,0,0,.29-1.1A2.26,2.26,0,0,0,14.06,6a2.82,2.82,0,0,0-.7-.89,3.41,3.41,0,0,0-1.06-.59A4,4,0,0,0,11,4.32" style="fill: #27d798"/>
        <path d="M26.4,5.19a2.79,2.79,0,0,0-.93.15,2.64,2.64,0,0,0-.76.41,2.1,2.1,0,0,0-.5.62,1.81,1.81,0,0,0-.17.77,1.66,1.66,0,0,0,.21.76,2.16,2.16,0,0,0,.53.64,2.62,2.62,0,0,0,.79.43,3,3,0,0,0,1,.16A2.65,2.65,0,0,0,27.47,9a2.33,2.33,0,0,0,.76-.42,2.14,2.14,0,0,0,.5-.63,1.56,1.56,0,0,0,.15-.77,1.75,1.75,0,0,0-.22-.77,2.26,2.26,0,0,0-.54-.62,2.92,2.92,0,0,0-.78-.42,3.19,3.19,0,0,0-.94-.15" style="fill: #fff"/>
      </g>
    </g>
  </g>
</svg>
