<svg id="Layer_1" data-name="Layer 1" xmlns="http://www.w3.org/2000/svg" viewBox="0 0 1366 792"><defs><style>.cls-1,.cls-16,.cls-5{fill:none;stroke-width:3px;}.cls-1,.cls-5{stroke:#0c80f4;}.cls-1,.cls-16,.cls-18,.cls-5{stroke-miterlimit:10;}.cls-2{fill:#0c80f4;}.cls-3{fill:#27d798;}.cls-18,.cls-4{fill:#fff;}.cls-5{stroke-dasharray:3 3;}.cls-6{fill:#f6f8f8;}.cls-7{fill:#176faa;}.cls-8{fill:#1d74bc;}.cls-9{fill:#2075c9;}.cls-10{fill:#2b7ad8;}.cls-11{fill:#e8ebf0;}.cls-12{fill:#274382;}.cls-13{fill:#66287f;}.cls-14,.cls-15{fill:#0f6df7;}.cls-14{opacity:0.22;}.cls-15{opacity:0.11;}.cls-16{stroke:#2970d6;}.cls-17{fill:#f7bd6f;}.cls-18{stroke:#c6bfde;}.cls-19{fill:#4679b8;}.cls-20{fill:#4589c6;}.cls-21{fill:#359dd4;}.cls-22{fill:#1caddc;}.cls-23{fill:#1fb9d4;}.cls-24{fill:#35bdc7;}.cls-25{fill:#4abeb9;}.cls-26{fill:#58beaf;}.cls-27{fill:#63bfa4;}.cls-28{fill:#68c0a0;}</style></defs><line class="cls-1" x1="496" y1="360.5" x2="368.61" y2="360.5"/><polygon class="cls-2" points="370.36 354.52 360 360.5 370.36 366.48 370.36 354.52"/><rect class="cls-3" x="432.89" y="432.68" width="216.11" height="72.32" rx="9.9"/><path class="cls-4" d="M476,461.45h2.39v8.88a10.25,10.25,0,0,0,.45,3.41,3.06,3.06,0,0,0,1.31,1.71,4.29,4.29,0,0,0,2.18.49,3.64,3.64,0,0,0,2-.49,3.23,3.23,0,0,0,1.21-1.73,10.87,10.87,0,0,0,.42-3.39v-8.88h2.39v9.49a7.62,7.62,0,0,1-1.52,5.11,5.67,5.67,0,0,1-4.54,1.76q-3.28,0-4.77-1.75a7.68,7.68,0,0,1-1.48-5.15Z"/><path class="cls-4" d="M499.68,466.18a4.46,4.46,0,0,1,1.75,1.91,6.86,6.86,0,0,1,.66,3.15,7.51,7.51,0,0,1-.76,3.41,5.66,5.66,0,0,1-2.16,2.33,6.64,6.64,0,0,1-5.22.52l0,1.68v4.06h-2.36V465.55h2.13V467a5.61,5.61,0,0,1,1.4-1,4.52,4.52,0,0,1,2.11-.42A4.68,4.68,0,0,1,499.68,466.18Zm-.79,2.22a2.75,2.75,0,0,0-2.29-1,3.44,3.44,0,0,0-1.44.31,5.17,5.17,0,0,0-1.18.75v7.11a2.08,2.08,0,0,0,.86.4,6.26,6.26,0,0,0,1.34.12,3.16,3.16,0,0,0,1.81-.54,3.45,3.45,0,0,0,1.24-1.58,6.4,6.4,0,0,0,.45-2.53A4.85,4.85,0,0,0,498.89,468.4Z"/><path class="cls-4" d="M514.55,460.07v17.74h-1a2.94,2.94,0,0,1-.67-.06.7.7,0,0,1-.4-.27,1,1,0,0,1-.15-.61v-.44a4.93,4.93,0,0,1-1.37,1,4.48,4.48,0,0,1-2,.4,4.72,4.72,0,0,1-2.42-.63,4.49,4.49,0,0,1-1.75-1.92,6.79,6.79,0,0,1-.65-3.14,7.35,7.35,0,0,1,.76-3.41,5.57,5.57,0,0,1,2.15-2.33,6.11,6.11,0,0,1,3.22-.84,6.73,6.73,0,0,1,2,.3l0-.65v-5.12ZM507.28,475a2.73,2.73,0,0,0,2.28,1,3.69,3.69,0,0,0,1.46-.28,5.42,5.42,0,0,0,1.17-.66v-7.13a1.94,1.94,0,0,0-.86-.47,5.13,5.13,0,0,0-1.35-.15,3.12,3.12,0,0,0-1.79.54,3.55,3.55,0,0,0-1.25,1.59,6.38,6.38,0,0,0-.45,2.52A4.83,4.83,0,0,0,507.28,475Z"/><path class="cls-4" d="M524.53,465.86A2.7,2.7,0,0,1,526,467a4.41,4.41,0,0,1,.53,2.34v8.47h-1a3.36,3.36,0,0,1-.73-.06.66.66,0,0,1-.38-.3,1.49,1.49,0,0,1-.14-.76v-.08a4.58,4.58,0,0,1-1.48.85,5.66,5.66,0,0,1-2,.35,4.32,4.32,0,0,1-1.94-.42,3.2,3.2,0,0,1-1.33-1.19,3.43,3.43,0,0,1-.48-1.84,3.3,3.3,0,0,1,.63-2A4.07,4.07,0,0,1,519.5,471a10.73,10.73,0,0,1,2.27-.59,15.74,15.74,0,0,1,2.4-.2v-1.11a2,2,0,0,0-.28-1.16,1.37,1.37,0,0,0-.82-.52,6.64,6.64,0,0,0-1.51-.13,6.06,6.06,0,0,0-1.19.13,8.91,8.91,0,0,0-1.26.32,3.94,3.94,0,0,0-.86.36l-.58-1.47a6.49,6.49,0,0,1,1-.44,13.21,13.21,0,0,1,1.68-.48,8.25,8.25,0,0,1,1.81-.21A7.56,7.56,0,0,1,524.53,465.86Zm-1.9,10a5.3,5.3,0,0,0,1-.36,1.91,1.91,0,0,0,.56-.36v-3.43a11.73,11.73,0,0,0-1.77.15,5.89,5.89,0,0,0-1.59.44,3.1,3.1,0,0,0-1,.73,1.66,1.66,0,0,0-.35,1.09c0,1.26.71,1.89,2.12,1.89A4.1,4.1,0,0,0,522.63,475.9Z"/><path class="cls-4" d="M530.24,467.34h-1.59v-1.28L529,466l.73-.24a1.3,1.3,0,0,0,.41-.28,1.14,1.14,0,0,0,.29-.47c.11-.29.26-.8.47-1.55l.24-.81h1.41v2.95h3.46v1.79h-3.46v6.08a10.6,10.6,0,0,0,.1,1.7.92.92,0,0,0,.36.65,2,2,0,0,0,.9.15,5.77,5.77,0,0,0,1.12-.14,4.25,4.25,0,0,0,1-.31l.41,1.34a5.22,5.22,0,0,1-1.51.7,6.39,6.39,0,0,1-1.87.3,3,3,0,0,1-2.09-.66,3.14,3.14,0,0,1-.74-2.4Z"/><path class="cls-4" d="M547.56,471.23a4.47,4.47,0,0,1-.1.8h-7.55a1.28,1.28,0,0,1,0,.22q.18,3.78,3.74,3.78a8.14,8.14,0,0,0,1.63-.21,4.77,4.77,0,0,0,1.42-.46l.45,1.36a4.77,4.77,0,0,1-1.79.79,9.63,9.63,0,0,1-2.34.3,5.59,5.59,0,0,1-2.95-.73,4.59,4.59,0,0,1-1.84-2.11,7.85,7.85,0,0,1-.64-3.33,7.49,7.49,0,0,1,.63-3.14,5,5,0,0,1,1.86-2.16,5.37,5.37,0,0,1,3-.8,5.09,5.09,0,0,1,2.25.5,3.94,3.94,0,0,1,1.61,1.5,4.82,4.82,0,0,1,.65,2.41C547.58,470.5,547.57,470.93,547.56,471.23ZM545.39,470a3.39,3.39,0,0,0-.55-2,2.19,2.19,0,0,0-1.9-.77,2.75,2.75,0,0,0-2,.77,4,4,0,0,0-1,2.47h5.39C545.38,470.26,545.39,470.1,545.39,470Z"/><path class="cls-4" d="M558,475.53a9.09,9.09,0,0,0,1.28.37,6.51,6.51,0,0,0,1.45.16,2.79,2.79,0,0,0,1.61-.39,1.21,1.21,0,0,0,.57-1.07,1.35,1.35,0,0,0-.64-1.12,9,9,0,0,0-1.89-1,7.73,7.73,0,0,1-2.52-1.57,3.09,3.09,0,0,1-.89-2.26,2.59,2.59,0,0,1,.58-1.71,3.49,3.49,0,0,1,1.59-1.06,6.6,6.6,0,0,1,2.25-.36,7.9,7.9,0,0,1,1.86.22,5.36,5.36,0,0,1,1.25.42l-.39,1.85a2.66,2.66,0,0,0-1.06-.51,5.26,5.26,0,0,0-1.58-.24,3.4,3.4,0,0,0-1.73.36,1.1,1.1,0,0,0-.59,1,1.47,1.47,0,0,0,.27.89,2.46,2.46,0,0,0,.78.66,12.32,12.32,0,0,0,1.32.61,8.79,8.79,0,0,1,2.58,1.48,2.84,2.84,0,0,1,1,2.24,3,3,0,0,1-.52,1.8,3.26,3.26,0,0,1-1.49,1.14,6.42,6.42,0,0,1-2.31.38,9.86,9.86,0,0,1-2.31-.27,4.88,4.88,0,0,1-1.59-.6l.36-1.76A3.89,3.89,0,0,0,558,475.53Z"/><path class="cls-4" d="M568.28,467.34h-1.59v-1.28l.38-.11c.33-.1.58-.18.73-.24a1.34,1.34,0,0,0,.42-.28,1.13,1.13,0,0,0,.28-.47c.11-.29.27-.8.47-1.55l.24-.81h1.42v2.95h3.46v1.79h-3.46v6.08a9.52,9.52,0,0,0,.1,1.7.86.86,0,0,0,.36.65,1.89,1.89,0,0,0,.89.15,5.86,5.86,0,0,0,1.13-.14,4.25,4.25,0,0,0,1-.31l.41,1.34a5.48,5.48,0,0,1-1.51.7,6.45,6.45,0,0,1-1.88.3,3,3,0,0,1-2.08-.66,3.1,3.1,0,0,1-.74-2.4Z"/><path class="cls-4" d="M583.38,465.86a2.7,2.7,0,0,1,1.47,1.14,4.41,4.41,0,0,1,.53,2.34v8.47h-1a3.36,3.36,0,0,1-.73-.06.72.72,0,0,1-.39-.3,1.6,1.6,0,0,1-.14-.76v-.08a4.52,4.52,0,0,1-1.47.85,5.66,5.66,0,0,1-2,.35,4.32,4.32,0,0,1-1.94-.42,3.14,3.14,0,0,1-1.33-1.19,3.43,3.43,0,0,1-.48-1.84,3.3,3.3,0,0,1,.63-2,4.07,4.07,0,0,1,1.75-1.31,10.79,10.79,0,0,1,2.26-.59,16,16,0,0,1,2.4-.2v-1.11a2,2,0,0,0-.27-1.16,1.4,1.4,0,0,0-.82-.52,6.73,6.73,0,0,0-1.52-.13,6,6,0,0,0-1.18.13,8.91,8.91,0,0,0-1.26.32,3.94,3.94,0,0,0-.86.36l-.58-1.47a6.49,6.49,0,0,1,1-.44,13.21,13.21,0,0,1,1.68-.48,8.25,8.25,0,0,1,1.81-.21A7.56,7.56,0,0,1,583.38,465.86Zm-1.9,10a5.3,5.3,0,0,0,1-.36,1.82,1.82,0,0,0,.55-.36v-3.43a11.72,11.72,0,0,0-1.76.15,5.78,5.78,0,0,0-1.59.44,3.1,3.1,0,0,0-1,.73,1.66,1.66,0,0,0-.35,1.09c0,1.26.7,1.89,2.12,1.89A4.1,4.1,0,0,0,581.48,475.9Z"/><path class="cls-4" d="M589.09,467.34H587.5v-1.28l.39-.11.73-.24a1.3,1.3,0,0,0,.41-.28,1.26,1.26,0,0,0,.29-.47c.1-.29.26-.8.47-1.55l.24-.81h1.41v2.95h3.46v1.79h-3.46v6.08a10.6,10.6,0,0,0,.1,1.7.86.86,0,0,0,.36.65,1.94,1.94,0,0,0,.9.15,5.86,5.86,0,0,0,1.12-.14,4.25,4.25,0,0,0,1-.31l.41,1.34a5.22,5.22,0,0,1-1.51.7,6.44,6.44,0,0,1-1.87.3,3,3,0,0,1-2.09-.66,3.14,3.14,0,0,1-.74-2.4Z"/><path class="cls-4" d="M606.41,471.23a5.62,5.62,0,0,1-.1.8h-7.55a1.28,1.28,0,0,1,0,.22Q599,476,602.51,476a8.14,8.14,0,0,0,1.63-.21,4.77,4.77,0,0,0,1.42-.46l.45,1.36a4.77,4.77,0,0,1-1.79.79,9.69,9.69,0,0,1-2.34.3,5.59,5.59,0,0,1-3-.73,4.66,4.66,0,0,1-1.85-2.11,8,8,0,0,1-.63-3.33,7.49,7.49,0,0,1,.63-3.14,5,5,0,0,1,1.86-2.16,5.37,5.37,0,0,1,3-.8,5,5,0,0,1,2.24.5,3.9,3.9,0,0,1,1.62,1.5,4.93,4.93,0,0,1,.65,2.41C606.43,470.5,606.42,470.93,606.41,471.23ZM604.24,470a3.46,3.46,0,0,0-.55-2,2.2,2.2,0,0,0-1.9-.77,2.73,2.73,0,0,0-2,.77,3.9,3.9,0,0,0-1,2.47h5.39C604.23,470.26,604.24,470.1,604.24,470Z"/><line class="cls-1" x1="71" y1="575.5" x2="6.61" y2="575.5"/><polygon class="cls-2" points="8.36 569.52 -2 575.5 8.36 581.48 8.36 569.52"/><line class="cls-5" x1="215.5" y1="396" x2="215.5" y2="531.39"/><polygon class="cls-2" points="209.51 529.64 215.5 540 221.48 529.64 209.51 529.64"/><path class="cls-5" d="M249.5,396v69.67a3.31,3.31,0,0,0,3.33,3.32l172.06-.47"/><polygon class="cls-2" points="423.15 474.51 433.5 468.5 423.12 462.55 423.15 474.51"/><rect class="cls-6" x="395.94" y="36" width="504.06" height="262" rx="12.3" transform="translate(1295.94 334) rotate(180)"/><rect class="cls-7" x="692" y="161" width="144" height="72" rx="8.3"/><rect class="cls-8" x="683" y="152" width="144" height="72" rx="8.3"/><rect class="cls-9" x="674" y="142" width="144" height="72" rx="8.3"/><rect class="cls-10" x="72" y="539" width="288" height="72" rx="8.3"/><path class="cls-4" d="M138.28,566.78a6.81,6.81,0,0,0,1.73.7,7.82,7.82,0,0,0,2.13.3,4.47,4.47,0,0,0,2.42-.54,1.87,1.87,0,0,0,.83-1.68,2,2,0,0,0-.4-1.29,3.78,3.78,0,0,0-1.11-1c-.48-.28-1.18-.64-2.11-1.08a10,10,0,0,1-2.94-2,3.85,3.85,0,0,1-1.15-2.77,3.57,3.57,0,0,1,.77-2.37,4.29,4.29,0,0,1,2-1.33,8.15,8.15,0,0,1,2.66-.41,9.12,9.12,0,0,1,2.31.25,5.29,5.29,0,0,1,1.5.6l-.49,1.94a6,6,0,0,0-1.43-.68,6.28,6.28,0,0,0-1.92-.23,5.32,5.32,0,0,0-1.52.21,2.54,2.54,0,0,0-1.15.65,1.45,1.45,0,0,0-.44,1.09,2.4,2.4,0,0,0,.31,1.28,2.86,2.86,0,0,0,1,.93,20,20,0,0,0,2,1.1,21.11,21.11,0,0,1,2.3,1.31,6,6,0,0,1,1.58,1.51,3.41,3.41,0,0,1,.64,2.06,4.06,4.06,0,0,1-.68,2.41,4,4,0,0,1-1.91,1.46,7.77,7.77,0,0,1-2.85.48,12.24,12.24,0,0,1-2-.15,11.19,11.19,0,0,1-1.64-.37,4,4,0,0,1-1-.42Z"/><path class="cls-4" d="M159.55,563.1a5.62,5.62,0,0,1-.1.8H151.9a1.22,1.22,0,0,1,0,.21q.18,3.78,3.74,3.78a8,8,0,0,0,1.63-.2,5.08,5.08,0,0,0,1.42-.46l.45,1.35a4.62,4.62,0,0,1-1.79.79,9.32,9.32,0,0,1-2.35.31,5.67,5.67,0,0,1-2.94-.73,4.69,4.69,0,0,1-1.85-2.12,8,8,0,0,1-.63-3.32,7.46,7.46,0,0,1,.63-3.14,5,5,0,0,1,1.86-2.17,5.36,5.36,0,0,1,3-.79,5,5,0,0,1,2.24.5,3.83,3.83,0,0,1,1.62,1.5,4.93,4.93,0,0,1,.65,2.41C159.57,562.37,159.56,562.79,159.55,563.1Zm-2.17-1.23a3.35,3.35,0,0,0-.56-2,2.14,2.14,0,0,0-1.89-.77,2.71,2.71,0,0,0-2,.76,4,4,0,0,0-1,2.48h5.4C157.37,562.12,157.38,562,157.38,561.87Z"/><path class="cls-4" d="M164.43,557.42v1.44a9.85,9.85,0,0,1,2.08-1,6.88,6.88,0,0,1,2.36-.45,3.8,3.8,0,0,1,2,.47,2.65,2.65,0,0,1,1.1,1.49,9,9,0,0,1,.34,2.78v7.52H170v-7.5a6.34,6.34,0,0,0-.16-1.61,1.58,1.58,0,0,0-.59-.89,2.18,2.18,0,0,0-1.25-.29h-.29a3.86,3.86,0,0,0-1.47.34,6.41,6.41,0,0,0-1.54.9v9h-2.36V557.42Z"/><path class="cls-4" d="M185.41,551.93v17.75h-1a2.45,2.45,0,0,1-.67-.07.66.66,0,0,1-.4-.27,1.1,1.1,0,0,1-.14-.61v-.44a5,5,0,0,1-1.38,1,4.58,4.58,0,0,1-2,.4,4.68,4.68,0,0,1-2.42-.64,4.44,4.44,0,0,1-1.74-1.91A6.83,6.83,0,0,1,175,564a7.41,7.41,0,0,1,.76-3.41,5.66,5.66,0,0,1,2.16-2.33,6.16,6.16,0,0,1,3.21-.83,6.68,6.68,0,0,1,2,.3l0-.66v-5.12Zm-7.26,14.89a2.71,2.71,0,0,0,2.28,1,3.64,3.64,0,0,0,1.45-.28,5.42,5.42,0,0,0,1.17-.66v-7.14a1.87,1.87,0,0,0-.86-.46,5.11,5.11,0,0,0-1.34-.15,3.13,3.13,0,0,0-1.8.54,3.54,3.54,0,0,0-1.24,1.59,6.38,6.38,0,0,0-.45,2.52A4.85,4.85,0,0,0,178.15,566.82Z"/><path class="cls-4" d="M196,560.17a5,5,0,0,1,2-2.06,5.85,5.85,0,0,1,2.88-.7,5.21,5.21,0,0,1,3.06.84,4.83,4.83,0,0,1,1.76,2.24,8.51,8.51,0,0,1,.56,3.16,6.87,6.87,0,0,1-.72,3.27,4.83,4.83,0,0,1-2,2.06,5.81,5.81,0,0,1-2.89.7,5.23,5.23,0,0,1-3-.84,4.83,4.83,0,0,1-1.76-2.24,8.51,8.51,0,0,1-.56-3.16A6.87,6.87,0,0,1,196,560.17Zm7.52,1.16a3.54,3.54,0,0,0-1-1.63,2.63,2.63,0,0,0-1.75-.59,2.6,2.6,0,0,0-2.27,1.09,5.34,5.34,0,0,0-.78,3.13,7.69,7.69,0,0,0,.34,2.38,3.76,3.76,0,0,0,1,1.67,2.5,2.5,0,0,0,1.73.62,2.6,2.6,0,0,0,2.28-1.13,5.53,5.53,0,0,0,.79-3.18A7.72,7.72,0,0,0,203.5,561.33Z"/><path class="cls-4" d="M218.53,557.42v12.26h-.91a2.45,2.45,0,0,1-.67-.07.62.62,0,0,1-.38-.27,1.1,1.1,0,0,1-.14-.61v-.3a9.75,9.75,0,0,1-1.92.88,6.59,6.59,0,0,1-2,.37,3.63,3.63,0,0,1-2.29-.63,3,3,0,0,1-1.07-1.73,11.76,11.76,0,0,1-.28-2.84v-7.06h2.36v7a8,8,0,0,0,.22,2.16,1.4,1.4,0,0,0,.68.9,3.33,3.33,0,0,0,1.35.21,4.63,4.63,0,0,0,1.45-.27,6.31,6.31,0,0,0,1.28-.57v-9.47Z"/><path class="cls-4" d="M222.43,559.2h-1.59v-1.27l.39-.12.73-.24a1.13,1.13,0,0,0,.41-.27,1.4,1.4,0,0,0,.29-.48c.1-.28.26-.8.47-1.54l.24-.81h1.41v2.95h3.46v1.78h-3.46v6.09a10.6,10.6,0,0,0,.1,1.7.89.89,0,0,0,.36.65,1.94,1.94,0,0,0,.9.15,5.17,5.17,0,0,0,1.12-.15,4.94,4.94,0,0,0,1-.3l.41,1.34a5,5,0,0,1-1.51.69,6.1,6.1,0,0,1-1.87.31,3,3,0,0,1-2.09-.66,3.14,3.14,0,0,1-.74-2.4Z"/><path class="cls-4" d="M238.78,558a4.49,4.49,0,0,1,1.75,1.92,6.74,6.74,0,0,1,.66,3.13,7.42,7.42,0,0,1-.77,3.42,5.58,5.58,0,0,1-2.18,2.33,6.15,6.15,0,0,1-3.23.84,10.39,10.39,0,0,1-1.7-.15,13.82,13.82,0,0,1-1.63-.36,4.69,4.69,0,0,1-1-.37V551.93h2.37V557l-.09,1.72a4.83,4.83,0,0,1,1.36-1,4.51,4.51,0,0,1,2-.39A4.79,4.79,0,0,1,238.78,558Zm-.79,2.23a2.74,2.74,0,0,0-2.29-1,3.45,3.45,0,0,0-1.45.3,5.66,5.66,0,0,0-1.17.73v7.23a4.25,4.25,0,0,0,2.2.41,3.13,3.13,0,0,0,1.8-.54,3.52,3.52,0,0,0,1.25-1.58,6.38,6.38,0,0,0,.45-2.52A4.79,4.79,0,0,0,238,560.27Z"/><path class="cls-4" d="M243.9,560.17a5,5,0,0,1,2-2.06,5.85,5.85,0,0,1,2.88-.7,5.21,5.21,0,0,1,3.06.84,4.83,4.83,0,0,1,1.76,2.24,8.51,8.51,0,0,1,.56,3.16,6.87,6.87,0,0,1-.72,3.27,4.83,4.83,0,0,1-2,2.06,5.81,5.81,0,0,1-2.89.7,5.23,5.23,0,0,1-3.05-.84,4.83,4.83,0,0,1-1.76-2.24,8.51,8.51,0,0,1-.56-3.16A6.87,6.87,0,0,1,243.9,560.17Zm7.52,1.16a3.54,3.54,0,0,0-1-1.63,2.63,2.63,0,0,0-1.75-.59,2.6,2.6,0,0,0-2.27,1.09,5.34,5.34,0,0,0-.78,3.13,7.69,7.69,0,0,0,.34,2.38,3.76,3.76,0,0,0,1,1.67,2.5,2.5,0,0,0,1.73.62,2.6,2.6,0,0,0,2.28-1.13,5.53,5.53,0,0,0,.79-3.18A7.72,7.72,0,0,0,251.42,561.33Z"/><path class="cls-4" d="M266.45,557.42v12.26h-.91a2.45,2.45,0,0,1-.67-.07.62.62,0,0,1-.38-.27,1.1,1.1,0,0,1-.14-.61v-.3a9.75,9.75,0,0,1-1.92.88,6.59,6.59,0,0,1-2,.37,3.63,3.63,0,0,1-2.29-.63,3,3,0,0,1-1.07-1.73,11.76,11.76,0,0,1-.28-2.84v-7.06h2.36v7a8,8,0,0,0,.22,2.16,1.4,1.4,0,0,0,.68.9,3.33,3.33,0,0,0,1.35.21,4.63,4.63,0,0,0,1.45-.27,6.31,6.31,0,0,0,1.28-.57v-9.47Z"/><path class="cls-4" d="M272,557.42v1.44a9.75,9.75,0,0,1,2.07-1,7,7,0,0,1,2.37-.45,3.8,3.8,0,0,1,2,.47,2.69,2.69,0,0,1,1.1,1.49,9,9,0,0,1,.34,2.78v7.52h-2.36v-7.5a6.34,6.34,0,0,0-.16-1.61,1.58,1.58,0,0,0-.59-.89,2.18,2.18,0,0,0-1.25-.29h-.29a4,4,0,0,0-1.48.34,6.54,6.54,0,0,0-1.53.9v9h-2.36V557.42Z"/><path class="cls-4" d="M293,551.93v17.75h-1a2.45,2.45,0,0,1-.67-.07.66.66,0,0,1-.4-.27,1.1,1.1,0,0,1-.14-.61v-.44a5,5,0,0,1-1.38,1,4.58,4.58,0,0,1-2,.4,4.66,4.66,0,0,1-2.42-.64,4.52,4.52,0,0,1-1.75-1.91,7,7,0,0,1-.65-3.15,7.41,7.41,0,0,1,.76-3.41,5.66,5.66,0,0,1,2.16-2.33,6.16,6.16,0,0,1,3.21-.83,6.68,6.68,0,0,1,2,.3l0-.66v-5.12Zm-7.27,14.89a2.74,2.74,0,0,0,2.29,1,3.64,3.64,0,0,0,1.45-.28,5.42,5.42,0,0,0,1.17-.66v-7.14a1.87,1.87,0,0,0-.86-.46,5.11,5.11,0,0,0-1.34-.15,3.13,3.13,0,0,0-1.8.54,3.54,3.54,0,0,0-1.24,1.59,6.38,6.38,0,0,0-.45,2.52A4.91,4.91,0,0,0,285.69,566.82Z"/><path class="cls-4" d="M175.77,584.27a2.63,2.63,0,0,1,1.12,1.47,8.54,8.54,0,0,1,.36,2.76v7.57h-2.36v-7.49a6.46,6.46,0,0,0-.17-1.65,1.46,1.46,0,0,0-.66-.88,2.94,2.94,0,0,0-1.41-.27,4.38,4.38,0,0,0-1.48.29,6,6,0,0,0-1.51.77,13.61,13.61,0,0,1,.09,1.66v7.57h-2.36v-7.49a6,6,0,0,0-.18-1.65,1.46,1.46,0,0,0-.66-.88,2.9,2.9,0,0,0-1.39-.27,4.12,4.12,0,0,0-1.48.33,5.9,5.9,0,0,0-1.53.91v9.05h-2.37V583.82h2.11v1.43a9.78,9.78,0,0,1,2-1,6.09,6.09,0,0,1,2.24-.45,4.77,4.77,0,0,1,2,.34,2.38,2.38,0,0,1,1.16,1.14,8.07,8.07,0,0,1,2.06-1,7.44,7.44,0,0,1,2.43-.44A3.9,3.9,0,0,1,175.77,584.27Z"/><path class="cls-4" d="M189.85,589.5a4.47,4.47,0,0,1-.1.8H182.2a1.22,1.22,0,0,1,0,.21q.18,3.78,3.74,3.78a8,8,0,0,0,1.63-.2,4.77,4.77,0,0,0,1.42-.46l.45,1.35a4.62,4.62,0,0,1-1.79.79,9.19,9.19,0,0,1-2.34.31,5.68,5.68,0,0,1-2.95-.73,4.61,4.61,0,0,1-1.84-2.12,7.8,7.8,0,0,1-.64-3.32,7.46,7.46,0,0,1,.63-3.14,5,5,0,0,1,1.86-2.17,5.36,5.36,0,0,1,3-.79,5.09,5.09,0,0,1,2.25.5,3.81,3.81,0,0,1,1.61,1.5,4.82,4.82,0,0,1,.65,2.41C189.87,588.77,189.86,589.2,189.85,589.5Zm-2.17-1.23a3.34,3.34,0,0,0-.55-2,2.16,2.16,0,0,0-1.9-.77,2.74,2.74,0,0,0-2,.76,4,4,0,0,0-1,2.48h5.39C187.67,588.52,187.68,588.37,187.68,588.27Z"/><path class="cls-4" d="M193,593.79a9,9,0,0,0,1.28.38,7.16,7.16,0,0,0,1.45.16,2.79,2.79,0,0,0,1.61-.39,1.22,1.22,0,0,0,.57-1.07,1.39,1.39,0,0,0-.64-1.13,9.46,9.46,0,0,0-1.89-1,7.56,7.56,0,0,1-2.52-1.56,3.05,3.05,0,0,1-.89-2.26,2.59,2.59,0,0,1,.58-1.72,3.57,3.57,0,0,1,1.59-1.06,6.81,6.81,0,0,1,2.25-.35,7.41,7.41,0,0,1,1.86.22,6,6,0,0,1,1.25.41l-.39,1.86a2.88,2.88,0,0,0-1.06-.52,5.59,5.59,0,0,0-1.58-.23,3.5,3.5,0,0,0-1.73.35,1.08,1.08,0,0,0-.59,1,1.5,1.5,0,0,0,.27.9,2.35,2.35,0,0,0,.78.66,10.76,10.76,0,0,0,1.32.6,8.94,8.94,0,0,1,2.58,1.49,2.82,2.82,0,0,1,1,2.23,3,3,0,0,1-2,2.94,6.12,6.12,0,0,1-2.3.39,10,10,0,0,1-2.32-.27,4.9,4.9,0,0,1-1.58-.6l.36-1.76A3.45,3.45,0,0,0,193,593.79Z"/><path class="cls-4" d="M203.14,593.79a9.42,9.42,0,0,0,1.28.38,7.23,7.23,0,0,0,1.45.16,2.85,2.85,0,0,0,1.62-.39,1.23,1.23,0,0,0,.56-1.07,1.36,1.36,0,0,0-.64-1.13,9.06,9.06,0,0,0-1.88-1A7.56,7.56,0,0,1,203,589.2a3.06,3.06,0,0,1-.9-2.26,2.6,2.6,0,0,1,.59-1.72,3.54,3.54,0,0,1,1.58-1.06,6.92,6.92,0,0,1,2.26-.35,7.33,7.33,0,0,1,1.85.22,6,6,0,0,1,1.25.41l-.39,1.86a2.79,2.79,0,0,0-1.06-.52,5.54,5.54,0,0,0-1.58-.23,3.48,3.48,0,0,0-1.72.35,1.09,1.09,0,0,0-.6,1,1.44,1.44,0,0,0,.28.9,2.41,2.41,0,0,0,.77.66,10.32,10.32,0,0,0,1.33.6,8.87,8.87,0,0,1,2.57,1.49,2.79,2.79,0,0,1,1,2.23,3.07,3.07,0,0,1-.52,1.81,3.13,3.13,0,0,1-1.49,1.13,6.21,6.21,0,0,1-2.31.39,9.86,9.86,0,0,1-2.31-.27,4.71,4.71,0,0,1-1.58-.6l.35-1.76A4,4,0,0,0,203.14,593.79Z"/><path class="cls-4" d="M219.67,584.12a2.67,2.67,0,0,1,1.47,1.15,4.36,4.36,0,0,1,.52,2.34v8.47h-1A2.7,2.7,0,0,1,220,596a.59.59,0,0,1-.39-.3,1.58,1.58,0,0,1-.14-.75v-.08a4.57,4.57,0,0,1-1.48.84,5.41,5.41,0,0,1-2,.36,4.35,4.35,0,0,1-1.94-.42,3.16,3.16,0,0,1-1.33-1.2,3.42,3.42,0,0,1-.48-1.83,3.3,3.3,0,0,1,.63-2,4,4,0,0,1,1.76-1.31,10.62,10.62,0,0,1,2.26-.6,15.68,15.68,0,0,1,2.4-.19v-1.11a2,2,0,0,0-.27-1.16,1.38,1.38,0,0,0-.82-.52,6.7,6.7,0,0,0-1.52-.14,7,7,0,0,0-1.19.13,10.85,10.85,0,0,0-1.25.32,4.23,4.23,0,0,0-.87.37l-.58-1.47a6.2,6.2,0,0,1,1-.44,13.52,13.52,0,0,1,1.67-.48,8.32,8.32,0,0,1,1.81-.21A7.61,7.61,0,0,1,219.67,584.12Zm-1.91,10a5.41,5.41,0,0,0,1-.36,2,2,0,0,0,.55-.36V590a12,12,0,0,0-1.77.15,5.8,5.8,0,0,0-1.58.44,3,3,0,0,0-1,.73,1.61,1.61,0,0,0-.36,1.09c0,1.26.71,1.89,2.12,1.89A4,4,0,0,0,217.76,594.17Z"/><path class="cls-4" d="M235.78,585.78h-2.25a3.72,3.72,0,0,1,.55,2,3.67,3.67,0,0,1-.64,2.18,4.05,4.05,0,0,1-1.76,1.38,6.56,6.56,0,0,1-2.53.46,6.06,6.06,0,0,1-1.33-.13,1.49,1.49,0,0,0-.49.56,1.44,1.44,0,0,0-.2.71,1.24,1.24,0,0,0,.31,1,1.72,1.72,0,0,0,1.09.26h2.22a5.1,5.1,0,0,1,3.53.94,3.17,3.17,0,0,1,1,2.43,3,3,0,0,1-.79,2.06,5.21,5.21,0,0,1-2.14,1.39,8.89,8.89,0,0,1-3,.48,6.85,6.85,0,0,1-3.77-.88,3,3,0,0,1-1.36-2.66,2.31,2.31,0,0,1,.5-1.46,3.91,3.91,0,0,1,1.21-1,2,2,0,0,1-.95-1.82,2.57,2.57,0,0,1,.41-1.32,3.57,3.57,0,0,1,1.1-1.16,4,4,0,0,1-1.56-1.37,3.5,3.5,0,0,1-.56-1.94,3.92,3.92,0,0,1,.64-2.27,3.78,3.78,0,0,1,1.77-1.36,6.84,6.84,0,0,1,2.56-.45,5.64,5.64,0,0,1,3,.74,3.43,3.43,0,0,1,1-.53,3.92,3.92,0,0,1,1.26-.21h1.19ZM227.29,596a2.51,2.51,0,0,0-.57.7,2.09,2.09,0,0,0-.21,1,2,2,0,0,0,.68,1.66,3.59,3.59,0,0,0,2.21.54,7.29,7.29,0,0,0,1.8-.21,3.32,3.32,0,0,0,1.31-.61,1.25,1.25,0,0,0,.5-1,2.18,2.18,0,0,0-.26-1.12,1.56,1.56,0,0,0-.91-.66,5.7,5.7,0,0,0-1.86-.23h-1.1A13.47,13.47,0,0,1,227.29,596Zm3.8-6.27a2.32,2.32,0,0,0,.64-1.87,2.53,2.53,0,0,0-.6-1.82,2.44,2.44,0,0,0-1.82-.62,3.09,3.09,0,0,0-1.89.53,2.17,2.17,0,0,0-.71,1.86,2.54,2.54,0,0,0,.62,1.76,2.37,2.37,0,0,0,1.88.7A2.85,2.85,0,0,0,231.09,589.72Z"/><path class="cls-4" d="M246.89,589.5a4.53,4.53,0,0,1-.09.8h-7.56a1.22,1.22,0,0,1,0,.21c.13,2.52,1.37,3.78,3.74,3.78a8.11,8.11,0,0,0,1.64-.2,4.69,4.69,0,0,0,1.41-.46l.46,1.35a4.74,4.74,0,0,1-1.8.79,9.19,9.19,0,0,1-2.34.31,5.65,5.65,0,0,1-2.94-.73,4.63,4.63,0,0,1-1.85-2.12,8,8,0,0,1-.64-3.32,7.46,7.46,0,0,1,.63-3.14,5,5,0,0,1,1.86-2.17,5.36,5.36,0,0,1,3-.79,5.06,5.06,0,0,1,2.25.5,3.81,3.81,0,0,1,1.61,1.5,4.82,4.82,0,0,1,.65,2.41C246.91,588.77,246.91,589.2,246.89,589.5Zm-2.17-1.23a3.34,3.34,0,0,0-.55-2,2.16,2.16,0,0,0-1.9-.77,2.74,2.74,0,0,0-2,.76,4,4,0,0,0-1,2.48h5.39C244.71,588.52,244.72,588.37,244.72,588.27Z"/><path class="cls-4" d="M250.14,583.17a15.16,15.16,0,0,1,2.07-3.83,7.34,7.34,0,0,1,1.82-1.86l1.63.8A9.13,9.13,0,0,0,254.1,580a13.31,13.31,0,0,0-1.7,3.37,15.21,15.21,0,0,0-.87,4.92v.52a14.39,14.39,0,0,0,.75,4.84A12.71,12.71,0,0,0,254,597a9.12,9.12,0,0,0,1.69,1.8l-1.63.8a9.44,9.44,0,0,1-1.86-1.84,13.77,13.77,0,0,1-2-3.77,16.15,16.15,0,0,1-.92-5.7A14.18,14.18,0,0,1,250.14,583.17Z"/><path class="cls-4" d="M257.73,593.79a9.42,9.42,0,0,0,1.28.38,7.23,7.23,0,0,0,1.45.16,2.85,2.85,0,0,0,1.62-.39,1.23,1.23,0,0,0,.56-1.07,1.36,1.36,0,0,0-.64-1.13,9.06,9.06,0,0,0-1.88-1,7.56,7.56,0,0,1-2.52-1.56,3.06,3.06,0,0,1-.9-2.26,2.6,2.6,0,0,1,.59-1.72,3.59,3.59,0,0,1,1.58-1.06,6.92,6.92,0,0,1,2.26-.35A7.41,7.41,0,0,1,263,584a5.86,5.86,0,0,1,1.24.41l-.39,1.86a2.79,2.79,0,0,0-1.06-.52,5.54,5.54,0,0,0-1.58-.23,3.48,3.48,0,0,0-1.72.35,1.09,1.09,0,0,0-.6,1,1.44,1.44,0,0,0,.28.9,2.41,2.41,0,0,0,.77.66,10.32,10.32,0,0,0,1.33.6,8.87,8.87,0,0,1,2.57,1.49,2.79,2.79,0,0,1,1,2.23,3.07,3.07,0,0,1-.52,1.81,3.13,3.13,0,0,1-1.49,1.13,6.19,6.19,0,0,1-2.3.39,9.89,9.89,0,0,1-2.32-.27,4.71,4.71,0,0,1-1.58-.6l.35-1.76A4,4,0,0,0,257.73,593.79Z"/><path class="cls-4" d="M271,593.64a14.94,14.94,0,0,1-2.06,3.82,7.34,7.34,0,0,1-1.82,1.86l-1.63-.79A9.47,9.47,0,0,0,267,596.8a13.66,13.66,0,0,0,1.7-3.37,15.22,15.22,0,0,0,.87-4.93V588a14.34,14.34,0,0,0-.75-4.84,12.55,12.55,0,0,0-1.7-3.35,8.58,8.58,0,0,0-1.69-1.8l1.63-.81A9.29,9.29,0,0,1,269,579a13.22,13.22,0,0,1,2,3.77,16,16,0,0,1,.92,5.69A14,14,0,0,1,271,593.64Z"/><rect class="cls-11" x="72" y="324" width="288" height="72" rx="8.3"/><path class="cls-12" d="M114.61,352.46a14.28,14.28,0,0,1,1.67.37l.32.09-.34,2.18c-.26-.14-.51-.27-.75-.37a6,6,0,0,0-1.14-.32,9.32,9.32,0,0,0-1.89-.16,5.27,5.27,0,0,0-2.85.75,4.9,4.9,0,0,0-1.86,2.15,7.73,7.73,0,0,0-.64,3.27,8,8,0,0,0,.64,3.31,5.17,5.17,0,0,0,1.86,2.25,5,5,0,0,0,2.84.81,10.06,10.06,0,0,0,1.63-.14,8.42,8.42,0,0,0,1.46-.36,3.06,3.06,0,0,0,.93-.47v2c-.47.18-.87.33-1.2.44a7,7,0,0,1-1.25.29,9.48,9.48,0,0,1-1.68.13,7.83,7.83,0,0,1-4-1,6.84,6.84,0,0,1-2.66-2.85,10.06,10.06,0,0,1,.09-8.68,7,7,0,0,1,2.76-2.85,7.44,7.44,0,0,1,3.77-1A14.59,14.59,0,0,1,114.61,352.46Z"/><path class="cls-12" d="M126,356.72a2.67,2.67,0,0,1,1.47,1.15,4.36,4.36,0,0,1,.53,2.34v8.47h-1a2.75,2.75,0,0,1-.73-.07.59.59,0,0,1-.38-.3,1.44,1.44,0,0,1-.14-.75v-.09a4.51,4.51,0,0,1-1.48.85,5.45,5.45,0,0,1-2,.36,4.32,4.32,0,0,1-1.94-.42,3.16,3.16,0,0,1-1.33-1.2,3.42,3.42,0,0,1-.48-1.83,3.3,3.3,0,0,1,.63-2,4.07,4.07,0,0,1,1.75-1.31,11.35,11.35,0,0,1,2.27-.6,15.68,15.68,0,0,1,2.4-.19V360a2,2,0,0,0-.28-1.16,1.32,1.32,0,0,0-.82-.52,6.6,6.6,0,0,0-1.51-.14,6.94,6.94,0,0,0-1.19.13,10.52,10.52,0,0,0-1.26.32,3.87,3.87,0,0,0-.86.37l-.58-1.47a5.64,5.64,0,0,1,1-.44,13.21,13.21,0,0,1,1.68-.48,8.25,8.25,0,0,1,1.81-.21A7.59,7.59,0,0,1,126,356.72Zm-1.9,10a6.13,6.13,0,0,0,1-.36,1.91,1.91,0,0,0,.56-.36v-3.43a11.73,11.73,0,0,0-1.77.15,5.89,5.89,0,0,0-1.59.44,3.1,3.1,0,0,0-1,.73A1.66,1.66,0,0,0,121,365c0,1.26.71,1.89,2.12,1.89A4.1,4.1,0,0,0,124.14,366.77Z"/><path class="cls-12" d="M133.83,350.93v17.74h-2.36V350.93Z"/><path class="cls-12" d="M139.82,350.93v17.74h-2.36V350.93Z"/><path class="cls-12" d="M150.72,359.17a4.93,4.93,0,0,1,2-2.06,5.85,5.85,0,0,1,2.88-.7,5.21,5.21,0,0,1,3.06.84,4.85,4.85,0,0,1,1.77,2.24,8.52,8.52,0,0,1,.55,3.16,6.87,6.87,0,0,1-.72,3.27,4.87,4.87,0,0,1-2,2.06,5.86,5.86,0,0,1-2.89.7,5.2,5.2,0,0,1-3.05-.84,4.85,4.85,0,0,1-1.77-2.24,8.52,8.52,0,0,1-.55-3.16A6.87,6.87,0,0,1,150.72,359.17Zm7.51,1.16a3.54,3.54,0,0,0-1-1.63,2.9,2.9,0,0,0-4,.5,5.34,5.34,0,0,0-.78,3.13,7.68,7.68,0,0,0,.35,2.38,3.59,3.59,0,0,0,1,1.67,2.47,2.47,0,0,0,1.73.62,2.6,2.6,0,0,0,2.27-1.13,5.45,5.45,0,0,0,.79-3.18A7.43,7.43,0,0,0,158.23,360.33Z"/><path class="cls-12" d="M165.79,356.42v1.44a9.85,9.85,0,0,1,2.08-1,6.89,6.89,0,0,1,2.37-.45,3.78,3.78,0,0,1,2,.47,2.65,2.65,0,0,1,1.1,1.49,9,9,0,0,1,.34,2.78v7.52h-2.36v-7.5a6.34,6.34,0,0,0-.16-1.61,1.54,1.54,0,0,0-.59-.89,2.18,2.18,0,0,0-1.25-.29h-.29a3.86,3.86,0,0,0-1.47.34,6.41,6.41,0,0,0-1.54.9v9.05h-2.36V356.42Z"/><path class="cls-12" d="M186,353.86c-.57-.48-1.13-1-1.68-1.54A9.37,9.37,0,0,1,183.1,351l1.69-1.45q1,1.35,3.29,3.89l.34.4-1.19,1A6.73,6.73,0,0,1,186,353.86Z"/><path class="cls-13" d="M196.73,356.42v2.5a1.74,1.74,0,0,0-.59-.32,3.89,3.89,0,0,0-2.53.21,4.3,4.3,0,0,0-1.17.8v9.06h-2.36V356.42h2l.16,1.5a3.37,3.37,0,0,1,.77-.67,6.3,6.3,0,0,1,1.22-.6,3.93,3.93,0,0,1,1.32-.24Z"/><path class="cls-13" d="M208,362.1a4.53,4.53,0,0,1-.09.8h-7.55c0,.05,0,.12,0,.21q.18,3.78,3.74,3.78a8.1,8.1,0,0,0,1.63-.2,5.08,5.08,0,0,0,1.42-.46l.45,1.35a4.74,4.74,0,0,1-1.8.79,9.19,9.19,0,0,1-2.34.31,5.67,5.67,0,0,1-2.94-.73,4.63,4.63,0,0,1-1.85-2.12,8,8,0,0,1-.63-3.32,7.46,7.46,0,0,1,.63-3.14,4.9,4.9,0,0,1,1.85-2.17,5.39,5.39,0,0,1,3-.79,5,5,0,0,1,2.25.5,3.89,3.89,0,0,1,1.62,1.5,4.93,4.93,0,0,1,.65,2.41C208,361.37,208,361.79,208,362.1Zm-2.17-1.23a3.34,3.34,0,0,0-.55-2,2.16,2.16,0,0,0-1.89-.77,2.75,2.75,0,0,0-2,.76,4,4,0,0,0-1,2.48h5.39A4.5,4.5,0,0,0,205.8,360.87Z"/><path class="cls-13" d="M217.75,356.61a3.94,3.94,0,0,1,1.16.43l-.37,1.94a3.38,3.38,0,0,0-1.16-.56,6.22,6.22,0,0,0-1.59-.18,3.49,3.49,0,0,0-1.73.45,3.35,3.35,0,0,0-1.29,1.43,5.28,5.28,0,0,0-.5,2.43,5.57,5.57,0,0,0,.45,2.35,3.54,3.54,0,0,0,1.24,1.49,3.15,3.15,0,0,0,1.76.5,6.57,6.57,0,0,0,1.66-.21,5.07,5.07,0,0,0,1.26-.47l.49,1.31a4.11,4.11,0,0,1-1.59.84,7.35,7.35,0,0,1-2.17.32,5.28,5.28,0,0,1-2.9-.78,5,5,0,0,1-1.85-2.14,7.29,7.29,0,0,1-.63-3.09,7.41,7.41,0,0,1,.67-3.21,5.08,5.08,0,0,1,2-2.23,6,6,0,0,1,3.24-.82A7.88,7.88,0,0,1,217.75,356.61Z"/><path class="cls-13" d="M230.3,362.1a5.62,5.62,0,0,1-.1.8h-7.55a1.22,1.22,0,0,1,0,.21q.18,3.78,3.74,3.78a8,8,0,0,0,1.63-.2,5.08,5.08,0,0,0,1.42-.46l.45,1.35a4.62,4.62,0,0,1-1.79.79,9.32,9.32,0,0,1-2.35.31,5.67,5.67,0,0,1-2.94-.73,4.69,4.69,0,0,1-1.85-2.12,8,8,0,0,1-.63-3.32,7.46,7.46,0,0,1,.63-3.14,5,5,0,0,1,1.86-2.17,5.36,5.36,0,0,1,3-.79,5,5,0,0,1,2.24.5,3.83,3.83,0,0,1,1.62,1.5,4.93,4.93,0,0,1,.65,2.41C230.32,361.37,230.31,361.79,230.3,362.1Zm-2.17-1.23a3.42,3.42,0,0,0-.55-2,2.18,2.18,0,0,0-1.9-.77,2.71,2.71,0,0,0-2,.76,4,4,0,0,0-1,2.48h5.4C228.12,361.12,228.13,361,228.13,360.87Z"/><path class="cls-13" d="M232.9,351.91a1.84,1.84,0,0,1,.66-.61,1.71,1.71,0,0,1,.83-.23,1.5,1.5,0,0,1,1.12.41,1.44,1.44,0,0,1,.39,1,1.59,1.59,0,0,1-.24.86,1.81,1.81,0,0,1-1.5.82,1.6,1.6,0,0,1-.75-.18,1.42,1.42,0,0,1-.55-.51,1.4,1.4,0,0,1-.21-.76A1.5,1.5,0,0,1,232.9,351.91Zm2.56,4.51v12.25H233.1V356.42Z"/><path class="cls-13" d="M249.09,356.42l-4.7,12.25h-2l-4.86-12.25h2.55l2.43,6.88.9,2.88.83-2.88,2.33-6.88Z"/><path class="cls-13" d="M259.83,362.1a5.62,5.62,0,0,1-.1.8h-7.55a1.22,1.22,0,0,1,0,.21q.18,3.78,3.74,3.78a8,8,0,0,0,1.63-.2,5.08,5.08,0,0,0,1.42-.46l.45,1.35a4.62,4.62,0,0,1-1.79.79,9.3,9.3,0,0,1-2.34.31,5.68,5.68,0,0,1-3-.73,4.69,4.69,0,0,1-1.85-2.12,8,8,0,0,1-.63-3.32,7.46,7.46,0,0,1,.63-3.14,5,5,0,0,1,1.86-2.17,5.36,5.36,0,0,1,3-.79,5,5,0,0,1,2.24.5,3.78,3.78,0,0,1,1.62,1.5,4.93,4.93,0,0,1,.65,2.41C259.85,361.37,259.84,361.79,259.83,362.1Zm-2.17-1.23a3.42,3.42,0,0,0-.55-2,2.18,2.18,0,0,0-1.9-.77,2.72,2.72,0,0,0-2,.76,3.93,3.93,0,0,0-1,2.48h5.39C257.65,361.12,257.66,361,257.66,360.87Z"/><path class="cls-12" d="M262.14,353.86a22,22,0,0,1-1.68-1.54,9.37,9.37,0,0,1-1.17-1.36l1.69-1.45c.69.9,1.79,2.2,3.28,3.89l.35.4-1.19,1A6.73,6.73,0,0,1,262.14,353.86Z"/><path class="cls-12" d="M282,357a4.43,4.43,0,0,1,1.75,1.92,6.74,6.74,0,0,1,.66,3.13,7.42,7.42,0,0,1-.77,3.42,5.62,5.62,0,0,1-2.17,2.33,6.21,6.21,0,0,1-3.24.84,10.39,10.39,0,0,1-1.7-.15,13.82,13.82,0,0,1-1.63-.36,4.69,4.69,0,0,1-1-.37V350.93h2.37V356l-.09,1.72a4.83,4.83,0,0,1,1.36-1,4.51,4.51,0,0,1,2-.39A4.79,4.79,0,0,1,282,357Zm-.79,2.23a2.73,2.73,0,0,0-2.29-1,3.48,3.48,0,0,0-1.45.3,5.66,5.66,0,0,0-1.17.73v7.23a4.25,4.25,0,0,0,2.2.41,3.13,3.13,0,0,0,1.8-.54,3.52,3.52,0,0,0,1.25-1.58,6.38,6.38,0,0,0,.45-2.52A4.79,4.79,0,0,0,281.24,359.27Z"/><path class="cls-12" d="M289.62,350.93v17.74h-2.36V350.93Z"/><path class="cls-12" d="M293.15,359.17a4.93,4.93,0,0,1,2-2.06,5.85,5.85,0,0,1,2.88-.7,5.27,5.27,0,0,1,3.07.84,4.89,4.89,0,0,1,1.76,2.24,8.51,8.51,0,0,1,.56,3.16,6.87,6.87,0,0,1-.72,3.27,4.89,4.89,0,0,1-2,2.06,5.86,5.86,0,0,1-2.89.7,5.2,5.2,0,0,1-3.05-.84A4.83,4.83,0,0,1,293,365.6a8.32,8.32,0,0,1-.56-3.16A6.87,6.87,0,0,1,293.15,359.17Zm7.51,1.16a3.46,3.46,0,0,0-1-1.63,2.9,2.9,0,0,0-4,.5,5.34,5.34,0,0,0-.78,3.13,7.68,7.68,0,0,0,.35,2.38,3.67,3.67,0,0,0,1,1.67,2.47,2.47,0,0,0,1.73.62,2.63,2.63,0,0,0,2.28-1.13,5.53,5.53,0,0,0,.78-3.18A7.43,7.43,0,0,0,300.66,360.33Z"/><path class="cls-12" d="M313.15,356.61a4.06,4.06,0,0,1,1.16.43l-.38,1.94a3.3,3.3,0,0,0-1.16-.56,6.11,6.11,0,0,0-1.59-.18,3.45,3.45,0,0,0-1.72.45,3.29,3.29,0,0,0-1.29,1.43,5.28,5.28,0,0,0-.5,2.43,5.57,5.57,0,0,0,.45,2.35,3.41,3.41,0,0,0,1.24,1.49,3.15,3.15,0,0,0,1.76.5,6.49,6.49,0,0,0,1.65-.21,5.17,5.17,0,0,0,1.27-.47l.48,1.31a4,4,0,0,1-1.59.84,7.3,7.3,0,0,1-2.17.32,5.25,5.25,0,0,1-2.89-.78,5,5,0,0,1-1.85-2.14,7.15,7.15,0,0,1-.64-3.09,7.55,7.55,0,0,1,.67-3.21,5.16,5.16,0,0,1,2-2.23,6,6,0,0,1,3.24-.82A7.88,7.88,0,0,1,313.15,356.61Z"/><path class="cls-12" d="M320.48,362.84,319,364.43l0,1.84v2.4h-2.36V350.93H319v9.68l0,1.19,4.88-5.38h2.79L322,361.24l5.19,7.43h-2.69Z"/><rect class="cls-10" x="665" y="134" width="144" height="72" rx="8.3"/><path class="cls-4" d="M709.3,174.53h-6.69l-1.46,4.14h-2.53l6.25-16.35h2.31l6.1,16.35h-2.59Zm-.6-1.78-2.2-6.34-.46-1.48-.47,1.48-2.32,6.34Z"/><path class="cls-4" d="M721.88,166.61A4.06,4.06,0,0,1,723,167l-.38,1.94a3.3,3.3,0,0,0-1.16-.56,6.11,6.11,0,0,0-1.59-.18,3.45,3.45,0,0,0-1.72.45,3.29,3.29,0,0,0-1.29,1.43,5.28,5.28,0,0,0-.5,2.43,5.57,5.57,0,0,0,.45,2.35,3.41,3.41,0,0,0,1.24,1.49,3.15,3.15,0,0,0,1.76.5,6.43,6.43,0,0,0,1.65-.21,5.17,5.17,0,0,0,1.27-.47l.48,1.31a4.06,4.06,0,0,1-1.58.84,7.4,7.4,0,0,1-2.17.32,5.26,5.26,0,0,1-2.9-.78,5,5,0,0,1-1.85-2.14,7.15,7.15,0,0,1-.64-3.09,7.55,7.55,0,0,1,.67-3.21,5.16,5.16,0,0,1,2-2.23,6,6,0,0,1,3.24-.82A7.88,7.88,0,0,1,721.88,166.61Z"/><path class="cls-4" d="M726.41,168.2h-1.59v-1.27l.39-.12.73-.24a1.13,1.13,0,0,0,.41-.27,1.26,1.26,0,0,0,.29-.48c.11-.28.26-.8.47-1.54l.24-.81h1.41v2.95h3.46v1.78h-3.46v6.09a10.6,10.6,0,0,0,.1,1.7.89.89,0,0,0,.36.65,2,2,0,0,0,.9.15,5.17,5.17,0,0,0,1.12-.15,4.94,4.94,0,0,0,1-.3l.41,1.34a5,5,0,0,1-1.51.69,6.1,6.1,0,0,1-1.87.31,3,3,0,0,1-2.09-.66,3.14,3.14,0,0,1-.74-2.4Z"/><path class="cls-4" d="M734.64,161.91a1.84,1.84,0,0,1,.66-.61,1.71,1.71,0,0,1,.83-.23,1.5,1.5,0,0,1,1.12.41,1.44,1.44,0,0,1,.39,1,1.52,1.52,0,0,1-.25.86,1.67,1.67,0,0,1-.64.6,1.71,1.71,0,0,1-.85.22,1.6,1.6,0,0,1-.75-.18,1.45,1.45,0,0,1-.56-.51,1.49,1.49,0,0,1-.2-.76A1.5,1.5,0,0,1,734.64,161.91Zm2.56,4.51v12.25h-2.36V166.42Z"/><path class="cls-4" d="M740.64,169.17a4.89,4.89,0,0,1,2-2.06,5.79,5.79,0,0,1,2.88-.7,5.21,5.21,0,0,1,3.06.84,4.83,4.83,0,0,1,1.76,2.24,8.51,8.51,0,0,1,.56,3.16,6.87,6.87,0,0,1-.72,3.27,4.83,4.83,0,0,1-2,2.06,5.83,5.83,0,0,1-2.89.7,5.2,5.2,0,0,1-3-.84,4.83,4.83,0,0,1-1.76-2.24,8.51,8.51,0,0,1-.56-3.16A6.87,6.87,0,0,1,740.64,169.17Zm7.52,1.16a3.62,3.62,0,0,0-1-1.63,2.65,2.65,0,0,0-1.75-.59,2.6,2.6,0,0,0-2.27,1.09,5.34,5.34,0,0,0-.78,3.13,7.69,7.69,0,0,0,.34,2.38,3.76,3.76,0,0,0,1,1.67,2.5,2.5,0,0,0,1.73.62,2.6,2.6,0,0,0,2.28-1.13,5.53,5.53,0,0,0,.78-3.18A7.73,7.73,0,0,0,748.16,170.33Z"/><path class="cls-4" d="M755.71,166.42v1.44a9.85,9.85,0,0,1,2.08-1,7,7,0,0,1,2.37-.45,3.82,3.82,0,0,1,2,.47,2.69,2.69,0,0,1,1.1,1.49,9.32,9.32,0,0,1,.34,2.78v7.52h-2.36v-7.5a6.28,6.28,0,0,0-.17-1.61,1.49,1.49,0,0,0-.59-.89,2.15,2.15,0,0,0-1.24-.29H759a4,4,0,0,0-1.48.34,6.54,6.54,0,0,0-1.53.9v9h-2.36V166.42Z"/><path class="cls-4" d="M767.42,176.39a8.18,8.18,0,0,0,1.28.38,7.23,7.23,0,0,0,1.45.16,2.85,2.85,0,0,0,1.62-.39,1.21,1.21,0,0,0,.56-1.07,1.36,1.36,0,0,0-.64-1.13,9.06,9.06,0,0,0-1.88-1,7.56,7.56,0,0,1-2.52-1.56,3.06,3.06,0,0,1-.9-2.26,2.6,2.6,0,0,1,.59-1.72,3.59,3.59,0,0,1,1.58-1.06,6.92,6.92,0,0,1,2.26-.35,7.91,7.91,0,0,1,1.86.21,6.37,6.37,0,0,1,1.24.42l-.38,1.86a2.85,2.85,0,0,0-1.07-.52,5.54,5.54,0,0,0-1.58-.23,3.48,3.48,0,0,0-1.72.35,1.09,1.09,0,0,0-.6,1,1.51,1.51,0,0,0,.28.9,2.35,2.35,0,0,0,.78.66,10.88,10.88,0,0,0,1.32.6,9.07,9.07,0,0,1,2.58,1.49,2.82,2.82,0,0,1,1,2.23,3,3,0,0,1-2,2.94,6.19,6.19,0,0,1-2.3.39,9.89,9.89,0,0,1-2.32-.27,4.71,4.71,0,0,1-1.58-.6l.35-1.76A4,4,0,0,0,767.42,176.39Z"/><rect class="cls-3" x="467.89" y="107.68" width="144.11" height="144.32" rx="9.9"/><path class="cls-4" d="M515.26,149.91a6.64,6.64,0,0,0,1.73.71,8.2,8.2,0,0,0,2.12.29,4.51,4.51,0,0,0,2.43-.54,1.85,1.85,0,0,0,.83-1.68,2.09,2.09,0,0,0-.41-1.29,3.54,3.54,0,0,0-1.11-1q-.71-.42-2.1-1.08a10,10,0,0,1-3-2,3.86,3.86,0,0,1-1.14-2.77,3.52,3.52,0,0,1,.77-2.37,4.31,4.31,0,0,1,2-1.33,8.38,8.38,0,0,1,2.66-.41,9.6,9.6,0,0,1,2.31.25,5.21,5.21,0,0,1,1.49.6l-.48,1.94a5.44,5.44,0,0,0-3.35-.91,5.39,5.39,0,0,0-1.53.21,2.75,2.75,0,0,0-1.15.65,1.52,1.52,0,0,0-.44,1.1,2.46,2.46,0,0,0,.31,1.27,3.12,3.12,0,0,0,1,.94,20.34,20.34,0,0,0,2,1.09,25.41,25.41,0,0,1,2.3,1.31,6.14,6.14,0,0,1,1.58,1.51,3.43,3.43,0,0,1,.64,2.06,4.16,4.16,0,0,1-.68,2.42,4.08,4.08,0,0,1-1.91,1.45,7.79,7.79,0,0,1-2.86.48,12.42,12.42,0,0,1-1.95-.15,12.58,12.58,0,0,1-1.63-.36,4.64,4.64,0,0,1-1-.42Z"/><path class="cls-4" d="M527.28,142.34h-1.59v-1.28l.39-.11.73-.24a1.3,1.3,0,0,0,.41-.28,1.14,1.14,0,0,0,.29-.47c.1-.29.26-.8.47-1.55l.24-.81h1.41v3h3.46v1.79h-3.46v6.08a10.6,10.6,0,0,0,.1,1.7.89.89,0,0,0,.36.65,1.94,1.94,0,0,0,.9.15,5.86,5.86,0,0,0,1.12-.14,4.25,4.25,0,0,0,1-.31l.41,1.34a5.22,5.22,0,0,1-1.51.7,6.39,6.39,0,0,1-1.87.3,3,3,0,0,1-2.09-.66,3.14,3.14,0,0,1-.74-2.4Z"/><path class="cls-4" d="M542.38,140.86a2.73,2.73,0,0,1,1.48,1.14,4.41,4.41,0,0,1,.52,2.34v8.47h-1a3.24,3.24,0,0,1-.73-.06.65.65,0,0,1-.39-.3,1.6,1.6,0,0,1-.14-.76v-.08a4.58,4.58,0,0,1-1.48.85,5.62,5.62,0,0,1-2,.35,4.35,4.35,0,0,1-1.94-.42,3.2,3.2,0,0,1-1.33-1.19,3.43,3.43,0,0,1-.48-1.84,3.3,3.3,0,0,1,.63-2,4.1,4.1,0,0,1,1.76-1.31,10.63,10.63,0,0,1,2.26-.59,15.74,15.74,0,0,1,2.4-.2v-1.11a2,2,0,0,0-.27-1.16,1.42,1.42,0,0,0-.83-.52,6.64,6.64,0,0,0-1.51-.13,6.14,6.14,0,0,0-1.19.13,8.77,8.77,0,0,0-1.25.32,4.31,4.31,0,0,0-.87.36l-.58-1.47a6.73,6.73,0,0,1,1-.44,13,13,0,0,1,1.67-.48,8.32,8.32,0,0,1,1.81-.21A7.52,7.52,0,0,1,542.38,140.86Zm-1.9,10a5.41,5.41,0,0,0,1-.36,2,2,0,0,0,.55-.36v-3.43a12,12,0,0,0-1.77.15,5.8,5.8,0,0,0-1.58.44,2.9,2.9,0,0,0-1,.73,1.61,1.61,0,0,0-.36,1.09c0,1.26.71,1.89,2.12,1.89A4,4,0,0,0,540.48,150.9Z"/><path class="cls-4" d="M548.1,142.34h-1.59v-1.28l.38-.11.73-.24a1.34,1.34,0,0,0,.42-.28,1.25,1.25,0,0,0,.28-.47c.11-.29.27-.8.47-1.55l.24-.81h1.42v3h3.46v1.79h-3.46v6.08a10.93,10.93,0,0,0,.09,1.7.92.92,0,0,0,.36.65,2,2,0,0,0,.9.15,5.77,5.77,0,0,0,1.12-.14,4.37,4.37,0,0,0,1-.31l.4,1.34a5.22,5.22,0,0,1-1.51.7,6.39,6.39,0,0,1-1.87.3,3,3,0,0,1-2.08-.66,3.1,3.1,0,0,1-.74-2.4Z"/><path class="cls-4" d="M565.41,146.23a4.53,4.53,0,0,1-.09.8h-7.55c0,.05,0,.12,0,.22Q558,151,561.51,151a8.23,8.23,0,0,0,1.64-.21,4.77,4.77,0,0,0,1.42-.46l.45,1.36a4.9,4.9,0,0,1-1.8.79,9.63,9.63,0,0,1-2.34.3,5.58,5.58,0,0,1-2.94-.73,4.61,4.61,0,0,1-1.85-2.11,8,8,0,0,1-.63-3.33,7.65,7.65,0,0,1,.62-3.14,5,5,0,0,1,1.86-2.16,5.39,5.39,0,0,1,3-.8,5,5,0,0,1,2.25.5,4,4,0,0,1,1.62,1.5,4.93,4.93,0,0,1,.65,2.41C565.44,145.5,565.43,145.93,565.41,146.23ZM563.24,145a3.39,3.39,0,0,0-.55-2,2.19,2.19,0,0,0-1.9-.77,2.75,2.75,0,0,0-2,.77,4,4,0,0,0-1,2.47h5.39A4.4,4.4,0,0,0,563.24,145Z"/><rect class="cls-14" x="524.69" y="182.98" width="39.62" height="39.62" transform="translate(15.02 -36.48) rotate(3.89)"/><rect class="cls-15" x="528.95" y="187.49" width="39.62" height="39.62" transform="translate(32.53 -71.31) rotate(7.66)"/><rect class="cls-16" x="520.42" y="178.46" width="39.62" height="39.62"/><rect class="cls-3" x="465.89" y="538.68" width="144.11" height="144.32" rx="9.9"/><path class="cls-4" d="M513.26,580.91a6.64,6.64,0,0,0,1.73.71,8.2,8.2,0,0,0,2.12.29,4.51,4.51,0,0,0,2.43-.54,1.85,1.85,0,0,0,.83-1.68,2.09,2.09,0,0,0-.41-1.29,3.54,3.54,0,0,0-1.11-1q-.71-.42-2.1-1.08a10,10,0,0,1-3-2,3.86,3.86,0,0,1-1.14-2.77,3.52,3.52,0,0,1,.77-2.37,4.31,4.31,0,0,1,2-1.33,8.38,8.38,0,0,1,2.66-.41,9.6,9.6,0,0,1,2.31.25,5.21,5.21,0,0,1,1.49.6l-.48,1.94a5.44,5.44,0,0,0-3.35-.91,5.39,5.39,0,0,0-1.53.21,2.75,2.75,0,0,0-1.15.65,1.52,1.52,0,0,0-.44,1.1,2.46,2.46,0,0,0,.31,1.27,3.12,3.12,0,0,0,1,.94,20.34,20.34,0,0,0,2,1.09,25.41,25.41,0,0,1,2.3,1.31,6.14,6.14,0,0,1,1.58,1.51,3.43,3.43,0,0,1,.64,2.06,4.16,4.16,0,0,1-.68,2.42,4.08,4.08,0,0,1-1.91,1.45,7.79,7.79,0,0,1-2.86.48,12.42,12.42,0,0,1-1.95-.15,12.58,12.58,0,0,1-1.63-.36,4.64,4.64,0,0,1-1-.42Z"/><path class="cls-4" d="M525.28,573.34h-1.59v-1.28l.39-.11.73-.24a1.3,1.3,0,0,0,.41-.28,1.14,1.14,0,0,0,.29-.47c.1-.29.26-.8.47-1.55l.24-.81h1.41v2.95h3.46v1.79h-3.46v6.08a10.6,10.6,0,0,0,.1,1.7.89.89,0,0,0,.36.65,1.94,1.94,0,0,0,.9.15,5.86,5.86,0,0,0,1.12-.14,4.25,4.25,0,0,0,1-.31l.41,1.34a5.22,5.22,0,0,1-1.51.7,6.39,6.39,0,0,1-1.87.3,3,3,0,0,1-2.09-.66,3.14,3.14,0,0,1-.74-2.4Z"/><path class="cls-4" d="M540.38,571.86a2.73,2.73,0,0,1,1.48,1.14,4.41,4.41,0,0,1,.52,2.34v8.47h-1a3.24,3.24,0,0,1-.73-.06.65.65,0,0,1-.39-.3,1.6,1.6,0,0,1-.14-.76v-.08a4.58,4.58,0,0,1-1.48.85,5.62,5.62,0,0,1-2,.35,4.35,4.35,0,0,1-1.94-.42,3.2,3.2,0,0,1-1.33-1.19,3.43,3.43,0,0,1-.48-1.84,3.3,3.3,0,0,1,.63-2,4.1,4.1,0,0,1,1.76-1.31,10.63,10.63,0,0,1,2.26-.59,15.74,15.74,0,0,1,2.4-.2v-1.11a2,2,0,0,0-.27-1.16,1.42,1.42,0,0,0-.83-.52,6.64,6.64,0,0,0-1.51-.13,6.14,6.14,0,0,0-1.19.13,8.77,8.77,0,0,0-1.25.32,4.31,4.31,0,0,0-.87.36l-.58-1.47a6.73,6.73,0,0,1,1-.44,13,13,0,0,1,1.67-.48,8.32,8.32,0,0,1,1.81-.21A7.52,7.52,0,0,1,540.38,571.86Zm-1.9,10a5.41,5.41,0,0,0,1-.36,2,2,0,0,0,.55-.36v-3.43a12,12,0,0,0-1.77.15,5.8,5.8,0,0,0-1.58.44,2.9,2.9,0,0,0-1,.73,1.61,1.61,0,0,0-.36,1.09c0,1.26.71,1.89,2.12,1.89A4,4,0,0,0,538.48,581.9Z"/><path class="cls-4" d="M546.1,573.34h-1.59v-1.28l.38-.11.73-.24a1.34,1.34,0,0,0,.42-.28,1.25,1.25,0,0,0,.28-.47c.11-.29.27-.8.47-1.55l.24-.81h1.42v2.95h3.46v1.79h-3.46v6.08a10.93,10.93,0,0,0,.09,1.7.92.92,0,0,0,.36.65,2,2,0,0,0,.9.15,5.77,5.77,0,0,0,1.12-.14,4.37,4.37,0,0,0,1-.31l.4,1.34a5.22,5.22,0,0,1-1.51.7,6.39,6.39,0,0,1-1.87.3,3,3,0,0,1-2.08-.66,3.1,3.1,0,0,1-.74-2.4Z"/><path class="cls-4" d="M563.41,577.23a4.53,4.53,0,0,1-.09.8h-7.55c0,.05,0,.12,0,.22Q556,582,559.51,582a8.23,8.23,0,0,0,1.64-.21,4.77,4.77,0,0,0,1.42-.46l.45,1.36a4.9,4.9,0,0,1-1.8.79,9.63,9.63,0,0,1-2.34.3,5.58,5.58,0,0,1-2.94-.73,4.61,4.61,0,0,1-1.85-2.11,8,8,0,0,1-.63-3.33,7.65,7.65,0,0,1,.62-3.14,5,5,0,0,1,1.86-2.16,5.39,5.39,0,0,1,3-.8,5,5,0,0,1,2.25.5,4,4,0,0,1,1.62,1.5,4.93,4.93,0,0,1,.65,2.41C563.44,576.5,563.43,576.93,563.41,577.23ZM561.24,576a3.39,3.39,0,0,0-.55-2,2.19,2.19,0,0,0-1.9-.77,2.75,2.75,0,0,0-2,.77,4,4,0,0,0-1,2.47h5.39A4.4,4.4,0,0,0,561.24,576Z"/><rect class="cls-14" x="522.69" y="613.98" width="39.62" height="39.62" transform="translate(44.26 -35.35) rotate(3.89)"/><rect class="cls-15" x="526.95" y="618.49" width="39.62" height="39.62" transform="translate(89.98 -67.19) rotate(7.66)"/><rect class="cls-16" x="518.42" y="609.46" width="39.62" height="39.62"/><path class="cls-1" d="M539.5,252.5v49.89"/><polygon class="cls-2" points="533.52 300.64 539.5 311 545.48 300.64 533.52 300.64"/><polyline class="cls-1" points="594.11 359.5 756.5 359.5 756.5 233"/><polygon class="cls-2" points="595.86 365.48 585.5 359.5 595.86 353.52 595.86 365.48"/><line class="cls-1" x1="538.5" y1="505" x2="538.5" y2="530.39"/><polygon class="cls-2" points="532.52 528.64 538.5 539 544.48 528.64 532.52 528.64"/><rect class="cls-17" x="504" y="324" width="72" height="72" rx="13.88" transform="translate(-96.4 487.28) rotate(-45)"/><path class="cls-12" d="M511.82,352.32l3.87,10.92.72,2.51.74-2.51,3.7-10.92h2.51l-6,16.35h-2l-6.11-16.35Z"/><path class="cls-12" d="M531.19,356.72a2.67,2.67,0,0,1,1.47,1.15,4.36,4.36,0,0,1,.53,2.34v8.47h-1a2.7,2.7,0,0,1-.73-.07.61.61,0,0,1-.39-.3,1.55,1.55,0,0,1-.14-.75v-.09a4.45,4.45,0,0,1-1.47.85,5.45,5.45,0,0,1-2,.36,4.32,4.32,0,0,1-1.94-.42,3.19,3.19,0,0,1-1.34-1.2,3.51,3.51,0,0,1-.47-1.83,3.35,3.35,0,0,1,.62-2,4.1,4.1,0,0,1,1.76-1.31,11.43,11.43,0,0,1,2.26-.6,15.68,15.68,0,0,1,2.4-.19V360a2,2,0,0,0-.27-1.16,1.35,1.35,0,0,0-.82-.52,6.64,6.64,0,0,0-1.52-.14,6.83,6.83,0,0,0-1.18.13,10.52,10.52,0,0,0-1.26.32,4.23,4.23,0,0,0-.87.37l-.58-1.47a6.2,6.2,0,0,1,1-.44,13.52,13.52,0,0,1,1.67-.48,8.41,8.41,0,0,1,1.82-.21A7.59,7.59,0,0,1,531.19,356.72Zm-1.9,10a6.13,6.13,0,0,0,1-.36,1.82,1.82,0,0,0,.55-.36v-3.43a11.72,11.72,0,0,0-1.76.15,5.78,5.78,0,0,0-1.59.44,3,3,0,0,0-1,.73,1.66,1.66,0,0,0-.35,1.09c0,1.26.7,1.89,2.11,1.89A4.17,4.17,0,0,0,529.29,366.77Z"/><path class="cls-12" d="M539,350.93v17.74h-2.36V350.93Z"/><path class="cls-12" d="M542.4,351.91a1.69,1.69,0,0,1,.66-.61,1.67,1.67,0,0,1,.82-.23,1.5,1.5,0,0,1,1.13.41,1.44,1.44,0,0,1,.39,1,1.52,1.52,0,0,1-.25.86,1.67,1.67,0,0,1-.64.6,1.71,1.71,0,0,1-.85.22,1.6,1.6,0,0,1-.75-.18,1.45,1.45,0,0,1-.56-.51,1.4,1.4,0,0,1-.21-.76A1.51,1.51,0,0,1,542.4,351.91Zm2.56,4.51v12.25h-2.37V356.42Z"/><path class="cls-12" d="M558.14,350.93v17.75h-1a2.45,2.45,0,0,1-.67-.07.66.66,0,0,1-.4-.27,1.1,1.1,0,0,1-.14-.61v-.44a5,5,0,0,1-1.38,1,4.58,4.58,0,0,1-2,.4,4.66,4.66,0,0,1-2.42-.64,4.52,4.52,0,0,1-1.75-1.91,7,7,0,0,1-.65-3.15,7.41,7.41,0,0,1,.76-3.41,5.66,5.66,0,0,1,2.16-2.33,6.16,6.16,0,0,1,3.21-.83,6.68,6.68,0,0,1,2,.3l0-.66v-5.12Zm-7.26,14.89a2.71,2.71,0,0,0,2.28,1,3.64,3.64,0,0,0,1.45-.28,5.42,5.42,0,0,0,1.17-.66v-7.14a1.87,1.87,0,0,0-.86-.46,5.11,5.11,0,0,0-1.34-.15,3.13,3.13,0,0,0-1.8.54,3.54,3.54,0,0,0-1.24,1.59,6.38,6.38,0,0,0-.45,2.52A4.85,4.85,0,0,0,550.88,365.82Z"/><path class="cls-12" d="M562.06,359.07a3.83,3.83,0,0,1,.82-.89c.32-.26.76-.56,1.29-.91s.81-.54,1.08-.74a3.78,3.78,0,0,0,.71-.67,1.6,1.6,0,0,0,.38-.77,5,5,0,0,0,.15-1.15,3,3,0,0,0-.53-1.77,3.37,3.37,0,0,0-1.55-1.12,6.77,6.77,0,0,0-2.37-.38,7.9,7.9,0,0,0-1.95.19v-1.72a2.82,2.82,0,0,1,.9-.3,6.64,6.64,0,0,1,1.42-.15,8.32,8.32,0,0,1,3.6.68,4.72,4.72,0,0,1,2.13,1.83,5,5,0,0,1,.68,2.56,6.28,6.28,0,0,1-.12,1.21,3.74,3.74,0,0,1-.57,1.45,4.82,4.82,0,0,1-1,1c-.34.27-.78.59-1.32,1s-.73.49-1,.66a3.35,3.35,0,0,0-.59.6,1.4,1.4,0,0,0-.28.73c0,.2,0,.34,0,.41a4,4,0,0,0,.1.93c.07.29.18.69.33,1.19l.07.2h-1.8a3.89,3.89,0,0,1-.65-1.26,5.88,5.88,0,0,1-.3-1.7A1.76,1.76,0,0,1,562.06,359.07Zm.56,7.1a1.9,1.9,0,0,1,.63-.66,1.58,1.58,0,0,1,.82-.24,1.43,1.43,0,0,1,1.13.47,1.66,1.66,0,0,1,.41,1.15,1.77,1.77,0,0,1-.24.91,1.84,1.84,0,0,1-.63.64,1.6,1.6,0,0,1-.84.24,1.39,1.39,0,0,1-.75-.22,1.76,1.76,0,0,1-.57-.58,1.64,1.64,0,0,1-.21-.82A1.67,1.67,0,0,1,562.62,366.17Z"/><rect class="cls-18" x="406.29" y="349.89" width="52.21" height="19.77" rx="9.88"/><path class="cls-12" d="M425.06,361.49v4.43h-1.69v-4.43l-3.74-6.93h1.78l2.52,4.93.32.78.27-.78,2.47-4.93h1.74Z"/><path class="cls-12" d="M436.8,354.56v1.29h-4.87v3.58h3.57v1.28h-3.57v3.91h5.42v1.3h-7.08V354.56Z"/><path class="cls-12" d="M439.22,363.91a4.52,4.52,0,0,0,1.2.49,5.45,5.45,0,0,0,1.48.21,3.17,3.17,0,0,0,1.68-.37,1.29,1.29,0,0,0,.58-1.17,1.44,1.44,0,0,0-.28-.9,2.41,2.41,0,0,0-.77-.66c-.33-.2-.82-.45-1.46-.76a7,7,0,0,1-2-1.41,2.69,2.69,0,0,1-.8-1.93,2.44,2.44,0,0,1,.54-1.64,3,3,0,0,1,1.39-.93,5.79,5.79,0,0,1,1.85-.28,6.7,6.7,0,0,1,1.6.17,3.59,3.59,0,0,1,1,.42l-.33,1.35a3.94,3.94,0,0,0-1-.47,4.39,4.39,0,0,0-1.33-.17,3.62,3.62,0,0,0-1.06.15,1.88,1.88,0,0,0-.8.45,1.07,1.07,0,0,0-.31.76,1.72,1.72,0,0,0,.22.89,2.2,2.2,0,0,0,.67.65,14.74,14.74,0,0,0,1.37.76,14.45,14.45,0,0,1,1.6.91,3.93,3.93,0,0,1,1.1,1.05,2.36,2.36,0,0,1,.45,1.43,2.87,2.87,0,0,1-.48,1.68,2.81,2.81,0,0,1-1.32,1,5.5,5.5,0,0,1-2,.33,9.38,9.38,0,0,1-2.49-.36,3,3,0,0,1-.69-.29Z"/><g id="Imandra-gradient-logo-blue"><g id="Group-2"><path id="Fill-6" class="cls-19" d="M511.22,62.93a8.68,8.68,0,1,0,.17,0Z"/><path id="Fill-12" class="cls-20" d="M535.23,67v9.21q0,.3,0,.6a4.09,4.09,0,1,0,8.16-.6V67a4.08,4.08,0,1,0-8.16,0"/><path id="Fill-9" class="cls-21" d="M567.16,62.93a8.71,8.71,0,0,0,.12,17.41h0a8.71,8.71,0,0,0,.05-17.41Z"/><polygon id="Fill-15" class="cls-22" points="601.33 78.51 603.08 78.51 603.08 64 601.33 64 601.33 78.51"/><polygon id="Fill-17" class="cls-23" points="635.89 64 630.78 71.39 625.67 64 623.52 64 623.52 78.51 625.27 78.51 625.27 66.55 630.52 73.94 630.92 73.94 636.3 66.69 636.3 78.51 638.05 78.51 638.05 64 635.89 64"/><path id="Fill-20" class="cls-24" d="M663.07,64l-6.46,14.51h2L660,75.29h8.33l1.49,3.22h1.88L665.22,64Zm1.07,1.86,3.37,7.8h-6.86Z"/><polygon id="Fill-23" class="cls-25" points="700.46 64 700.46 75.02 691.58 64 690.37 64 690.37 78.51 692.12 78.51 692.12 67.49 701 78.51 702.21 78.51 702.21 64 700.46 64"/><path id="Fill-26" class="cls-26" d="M722.66,64V78.51h5.24c5.11,0,7.27-3.63,7.27-7.39S732.88,64,727.9,64Zm1.74,1.74h3.5a5.18,5.18,0,0,1,5.52,5.38c0,2.69-1.62,5.65-5.52,5.65h-3.5Z"/><path id="Fill-29" class="cls-27" d="M754.8,64v1.61h6.58a3,3,0,0,1,3,3.09,2.89,2.89,0,0,1-3.22,3h-4.71V68.27l-1.62-1.35V78.5h1.75V73.27h3.5l4.59,5.11h2.25L762.06,73a4.14,4.14,0,0,0,4.17-4.43A4.51,4.51,0,0,0,761.39,64Z"/><path id="Fill-32" class="cls-28" d="M791.39,64l-6.45,14.51h2l1.34-3.22h8.33l1.49,3.22H800L793.41,64Zm1.08,1.86,3.36,7.8H789Z"/></g></g></svg>