<svg id="Layer_1" data-name="Layer 1" xmlns="http://www.w3.org/2000/svg" viewBox="0 0 1366 432"><defs><style>.cls-1,.cls-9{fill:none;}.cls-1,.cls-3{stroke:#0c80f4;}.cls-1,.cls-3,.cls-9{stroke-miterlimit:10;stroke-width:3px;}.cls-2{fill:#0c80f4;}.cls-3,.cls-5{fill:#fff;}.cls-3{stroke-dasharray:3 3;}.cls-4{fill:#2b7ad8;}.cls-6{fill:#27d798;}.cls-7,.cls-8{fill:#0f6df7;}.cls-7{opacity:0.22;}.cls-8{opacity:0.11;}.cls-9{stroke:#2970d6;}</style></defs><line class="cls-1" x1="367.61" y1="108.5" x2="422.39" y2="108.5"/><polygon class="cls-2" points="369.36 114.48 359 108.5 369.36 102.52 369.36 114.48"/><polygon class="cls-2" points="420.64 114.48 431 108.5 420.64 102.52 420.64 114.48"/><line class="cls-1" x1="583.61" y1="107.5" x2="638.39" y2="107.5"/><polygon class="cls-2" points="585.36 113.48 575 107.5 585.36 101.52 585.36 113.48"/><polygon class="cls-2" points="636.64 113.48 647 107.5 636.64 101.52 636.64 113.48"/><line class="cls-1" x1="17" y1="108.5" x2="63.39" y2="108.5"/><polygon class="cls-2" points="61.64 114.48 72 108.5 61.64 102.52 61.64 114.48"/><line class="cls-3" x1="17" y1="108.5" x2="-1" y2="108.5"/><line class="cls-3" x1="917" y1="107.5" x2="935" y2="107.5"/><line class="cls-1" x1="215.5" y1="145" x2="215.5" y2="279.89"/><polygon class="cls-2" points="209.52 278.14 215.5 288.5 221.48 278.14 209.52 278.14"/><path class="cls-1" d="M367.61,324l377.32.48a10.56,10.56,0,0,0,10.57-10.56V144"/><polygon class="cls-2" points="369.35 330 359 324 369.37 318.03 369.35 330"/><line class="cls-1" x1="72" y1="324.5" x2="7.61" y2="324.5"/><polygon class="cls-2" points="9.36 318.52 -1 324.5 9.36 330.48 9.36 318.52"/><line class="cls-1" x1="917" y1="107.5" x2="870.61" y2="107.5"/><polygon class="cls-2" points="872.36 101.52 862 107.5 872.36 113.48 872.36 101.52"/><rect class="cls-4" x="71" y="72" width="288" height="72" rx="8.3"/><rect class="cls-4" x="71" y="288" width="288" height="72" rx="8.3"/><path class="cls-5" d="M122.66,100.32v16.35h-2.42V100.32Z"/><path class="cls-5" d="M128.45,104.42v1.44a9.85,9.85,0,0,1,2.08-1,7,7,0,0,1,2.37-.45,3.82,3.82,0,0,1,2,.47,2.69,2.69,0,0,1,1.1,1.49,9.37,9.37,0,0,1,.34,2.78v7.52H134v-7.5a6.28,6.28,0,0,0-.17-1.61,1.49,1.49,0,0,0-.59-.89,2.15,2.15,0,0,0-1.24-.29h-.29a4,4,0,0,0-1.48.34,6.54,6.54,0,0,0-1.53.9v9h-2.36V104.42Z"/><path class="cls-5" d="M147.74,105a4.52,4.52,0,0,1,1.75,1.91,6.81,6.81,0,0,1,.65,3.14,7.42,7.42,0,0,1-.76,3.42,5.7,5.7,0,0,1-2.18,2.33,6.2,6.2,0,0,1-3.23.84,10.61,10.61,0,0,1-1.71-.15,14.08,14.08,0,0,1-1.62-.36,4.46,4.46,0,0,1-1-.37V98.93H142V104l-.08,1.72a4.83,4.83,0,0,1,1.36-1,4.48,4.48,0,0,1,2-.39A4.79,4.79,0,0,1,147.74,105Zm-.79,2.23a2.74,2.74,0,0,0-2.29-1,3.45,3.45,0,0,0-1.45.3,6,6,0,0,0-1.18.73v7.23a4.29,4.29,0,0,0,2.21.41,3.13,3.13,0,0,0,1.8-.54,3.52,3.52,0,0,0,1.25-1.58,6.38,6.38,0,0,0,.45-2.52A4.86,4.86,0,0,0,147,107.27Z"/><path class="cls-5" d="M152.86,107.17a4.89,4.89,0,0,1,2-2.06,5.79,5.79,0,0,1,2.88-.7,5.24,5.24,0,0,1,3.06.84,4.83,4.83,0,0,1,1.76,2.24,8.51,8.51,0,0,1,.56,3.16,6.87,6.87,0,0,1-.72,3.27,4.83,4.83,0,0,1-2,2.06,5.83,5.83,0,0,1-2.89.7,5.2,5.2,0,0,1-3-.84,4.83,4.83,0,0,1-1.76-2.24,8.51,8.51,0,0,1-.56-3.16A6.87,6.87,0,0,1,152.86,107.17Zm7.51,1.16a3.52,3.52,0,0,0-1-1.63,2.65,2.65,0,0,0-1.75-.59,2.62,2.62,0,0,0-2.28,1.09,5.34,5.34,0,0,0-.77,3.13,7.73,7.73,0,0,0,.34,2.38,3.85,3.85,0,0,0,1,1.68,2.52,2.52,0,0,0,1.73.61,2.58,2.58,0,0,0,2.28-1.13,5.53,5.53,0,0,0,.78-3.18A7.43,7.43,0,0,0,160.37,108.33Z"/><path class="cls-5" d="M175.41,104.42v12.26h-.92a2.33,2.33,0,0,1-.66-.07.59.59,0,0,1-.38-.27,1.1,1.1,0,0,1-.14-.61v-.3a9.85,9.85,0,0,1-1.93.88,6.48,6.48,0,0,1-2,.37,3.61,3.61,0,0,1-2.29-.63,3,3,0,0,1-1.07-1.73,11.76,11.76,0,0,1-.28-2.84v-7.06h2.36v7a7.67,7.67,0,0,0,.22,2.17,1.37,1.37,0,0,0,.68.9,3.31,3.31,0,0,0,1.34.21,4.69,4.69,0,0,0,1.46-.27,6,6,0,0,0,1.27-.57v-9.47Z"/><path class="cls-5" d="M180.93,104.42v1.44a9.85,9.85,0,0,1,2.08-1,7,7,0,0,1,2.37-.45,3.8,3.8,0,0,1,2,.47,2.69,2.69,0,0,1,1.1,1.49,9.37,9.37,0,0,1,.34,2.78v7.52h-2.36v-7.5a6.84,6.84,0,0,0-.16-1.61,1.55,1.55,0,0,0-.6-.89,2.15,2.15,0,0,0-1.24-.29h-.29a4,4,0,0,0-1.48.34,6.54,6.54,0,0,0-1.53.9v9h-2.36V104.42Z"/><path class="cls-5" d="M201.92,98.93v17.75h-1a2.4,2.4,0,0,1-.67-.07.66.66,0,0,1-.4-.27,1,1,0,0,1-.15-.61v-.44a4.77,4.77,0,0,1-1.37,1,4.48,4.48,0,0,1-2,.4,4.63,4.63,0,0,1-2.42-.64,4.52,4.52,0,0,1-1.75-1.91,6.83,6.83,0,0,1-.65-3.15,7.41,7.41,0,0,1,.76-3.41,5.63,5.63,0,0,1,2.15-2.33,6.2,6.2,0,0,1,3.22-.83,6.73,6.73,0,0,1,2,.3l0-.66V98.93Zm-7.27,14.89a2.73,2.73,0,0,0,2.28,1,3.69,3.69,0,0,0,1.46-.28,5.42,5.42,0,0,0,1.17-.66v-7.14a1.92,1.92,0,0,0-.86-.46,5.13,5.13,0,0,0-1.35-.15,3.12,3.12,0,0,0-1.79.54,3.55,3.55,0,0,0-1.25,1.59,6.38,6.38,0,0,0-.45,2.52A4.91,4.91,0,0,0,194.65,113.82Z"/><path class="cls-5" d="M228.61,104.87a2.65,2.65,0,0,1,1.13,1.47,8.54,8.54,0,0,1,.36,2.76v7.57h-2.37v-7.49a6.46,6.46,0,0,0-.17-1.65,1.37,1.37,0,0,0-.65-.87,2.86,2.86,0,0,0-1.41-.28,4.34,4.34,0,0,0-1.48.29,6,6,0,0,0-1.52.77,11.75,11.75,0,0,1,.1,1.66v7.57h-2.37v-7.49a6.46,6.46,0,0,0-.17-1.65,1.41,1.41,0,0,0-.66-.87,2.82,2.82,0,0,0-1.4-.28,4.16,4.16,0,0,0-1.48.33,5.9,5.9,0,0,0-1.53.91v9h-2.36V104.42h2.1l0,1.43a9.52,9.52,0,0,1,2-1,6.09,6.09,0,0,1,2.24-.45,4.84,4.84,0,0,1,2,.34,2.36,2.36,0,0,1,1.15,1.14,8.32,8.32,0,0,1,2.07-1,7.34,7.34,0,0,1,2.42-.44A3.9,3.9,0,0,1,228.61,104.87Z"/><path class="cls-5" d="M242.7,110.1a5.62,5.62,0,0,1-.1.8h-7.55s0,.12,0,.21c.12,2.52,1.36,3.78,3.74,3.78a8,8,0,0,0,1.63-.2,5.08,5.08,0,0,0,1.42-.46l.45,1.35a4.67,4.67,0,0,1-1.8.79,9.19,9.19,0,0,1-2.34.31,5.67,5.67,0,0,1-2.94-.73,4.63,4.63,0,0,1-1.85-2.12,8,8,0,0,1-.63-3.32,7.46,7.46,0,0,1,.63-3.14,4.9,4.9,0,0,1,1.85-2.17,5.4,5.4,0,0,1,3-.79,5,5,0,0,1,2.24.5,3.89,3.89,0,0,1,1.62,1.5,4.93,4.93,0,0,1,.65,2.41C242.72,109.37,242.71,109.79,242.7,110.1Zm-2.17-1.23a3.35,3.35,0,0,0-.56-2,2.16,2.16,0,0,0-1.89-.77,2.75,2.75,0,0,0-2,.76,4,4,0,0,0-1,2.48h5.39C240.52,109.12,240.53,109,240.53,108.87Z"/><path class="cls-5" d="M245.84,114.4a11.23,11.23,0,0,0,1.28.37,7.23,7.23,0,0,0,1.45.16,2.85,2.85,0,0,0,1.62-.39,1.23,1.23,0,0,0,.56-1.07,1.36,1.36,0,0,0-.64-1.13,9.06,9.06,0,0,0-1.88-1,7.36,7.36,0,0,1-2.52-1.56,3.06,3.06,0,0,1-.9-2.26,2.55,2.55,0,0,1,.59-1.72,3.54,3.54,0,0,1,1.58-1.06,6.92,6.92,0,0,1,2.26-.35,7.39,7.39,0,0,1,1.85.22,6,6,0,0,1,1.25.41L252,106.9a2.79,2.79,0,0,0-1.06-.52,5.54,5.54,0,0,0-1.58-.23,3.45,3.45,0,0,0-1.72.35,1.09,1.09,0,0,0-.6,1,1.5,1.5,0,0,0,.27.9,2.57,2.57,0,0,0,.78.66,11.91,11.91,0,0,0,1.33.6,8.87,8.87,0,0,1,2.57,1.49,2.79,2.79,0,0,1,1,2.23,3.07,3.07,0,0,1-.52,1.81,3.13,3.13,0,0,1-1.49,1.13,6.21,6.21,0,0,1-2.31.39,9.86,9.86,0,0,1-2.31-.27,4.71,4.71,0,0,1-1.58-.6l.35-1.76A4.6,4.6,0,0,0,245.84,114.4Z"/><path class="cls-5" d="M256,114.4a11,11,0,0,0,1.27.37,7.31,7.31,0,0,0,1.45.16,2.81,2.81,0,0,0,1.62-.39,1.22,1.22,0,0,0,.57-1.07,1.39,1.39,0,0,0-.64-1.13,9.46,9.46,0,0,0-1.89-1,7.56,7.56,0,0,1-2.52-1.56,3.05,3.05,0,0,1-.89-2.26,2.59,2.59,0,0,1,.58-1.72,3.57,3.57,0,0,1,1.59-1.06,6.81,6.81,0,0,1,2.25-.35,7.41,7.41,0,0,1,1.86.22,6.22,6.22,0,0,1,1.25.41l-.39,1.86a2.88,2.88,0,0,0-1.06-.52,5.59,5.59,0,0,0-1.58-.23,3.5,3.5,0,0,0-1.73.35,1.08,1.08,0,0,0-.59,1,1.5,1.5,0,0,0,.27.9,2.35,2.35,0,0,0,.78.66,12.52,12.52,0,0,0,1.32.6,8.8,8.8,0,0,1,2.58,1.49,2.82,2.82,0,0,1,1,2.23,3,3,0,0,1-2,2.94,6.12,6.12,0,0,1-2.3.39,9.89,9.89,0,0,1-2.32-.27,4.9,4.9,0,0,1-1.58-.6l.35-1.76A4.41,4.41,0,0,0,256,114.4Z"/><path class="cls-5" d="M272.51,104.72a2.67,2.67,0,0,1,1.47,1.15,4.36,4.36,0,0,1,.53,2.34v8.47h-1a2.75,2.75,0,0,1-.73-.07.64.64,0,0,1-.39-.3,1.57,1.57,0,0,1-.13-.75v-.09a4.51,4.51,0,0,1-1.48.85,5.45,5.45,0,0,1-2,.36,4.32,4.32,0,0,1-1.94-.42,3.1,3.1,0,0,1-1.33-1.2,3.42,3.42,0,0,1-.48-1.83,3.3,3.3,0,0,1,.63-2,4.07,4.07,0,0,1,1.75-1.31,11.43,11.43,0,0,1,2.26-.6,15.91,15.91,0,0,1,2.41-.19V108a2,2,0,0,0-.28-1.16,1.32,1.32,0,0,0-.82-.52,6.6,6.6,0,0,0-1.51-.14,6.84,6.84,0,0,0-1.19.13,10.52,10.52,0,0,0-1.26.32,3.87,3.87,0,0,0-.86.37l-.58-1.47a5.64,5.64,0,0,1,1-.44,13.21,13.21,0,0,1,1.68-.48,8.25,8.25,0,0,1,1.81-.21A7.59,7.59,0,0,1,272.51,104.72Zm-1.9,10a5.3,5.3,0,0,0,1-.36,1.91,1.91,0,0,0,.56-.36v-3.43a11.73,11.73,0,0,0-1.77.15,5.78,5.78,0,0,0-1.59.44,3.1,3.1,0,0,0-1,.73,1.66,1.66,0,0,0-.35,1.09c0,1.26.7,1.89,2.12,1.89A4.1,4.1,0,0,0,270.61,114.77Z"/><path class="cls-5" d="M288.62,106.38h-2.24a3.81,3.81,0,0,1,.55,2,3.67,3.67,0,0,1-.65,2.18,4.05,4.05,0,0,1-1.76,1.38,6.51,6.51,0,0,1-2.52.46,5.57,5.57,0,0,1-1.34-.14,1.71,1.71,0,0,0-.49.57,1.43,1.43,0,0,0-.19.71,1.23,1.23,0,0,0,.3,1,1.69,1.69,0,0,0,1.09.27h2.23a5.11,5.11,0,0,1,3.53.94,3.21,3.21,0,0,1,1,2.43,3,3,0,0,1-.8,2.06,5.14,5.14,0,0,1-2.14,1.39,8.83,8.83,0,0,1-3,.48,6.91,6.91,0,0,1-3.78-.88,3,3,0,0,1-1.36-2.66,2.26,2.26,0,0,1,.51-1.46,4,4,0,0,1,1.2-1,2,2,0,0,1-.94-1.82,2.58,2.58,0,0,1,.4-1.32,3.79,3.79,0,0,1,1.1-1.16,3.9,3.9,0,0,1-1.55-1.37,3.42,3.42,0,0,1-.56-1.94,3.85,3.85,0,0,1,.64-2.27,3.78,3.78,0,0,1,1.77-1.36,6.8,6.8,0,0,1,2.56-.45,5.6,5.6,0,0,1,3,.74,3.69,3.69,0,0,1,1-.53,4,4,0,0,1,1.26-.21h1.19Zm-8.48,10.21a2.38,2.38,0,0,0-.58.7,2.09,2.09,0,0,0-.21,1A2,2,0,0,0,280,120a3.55,3.55,0,0,0,2.2.54,7.29,7.29,0,0,0,1.8-.21,3.37,3.37,0,0,0,1.32-.61,1.24,1.24,0,0,0,.49-1,2.19,2.19,0,0,0-.25-1.12,1.59,1.59,0,0,0-.91-.66,5.73,5.73,0,0,0-1.87-.23h-1.09A13.47,13.47,0,0,1,280.14,116.59Zm3.79-6.27a2.32,2.32,0,0,0,.64-1.87,2.53,2.53,0,0,0-.6-1.82,2.42,2.42,0,0,0-1.81-.62,3.09,3.09,0,0,0-1.89.53,2.14,2.14,0,0,0-.71,1.86,2.53,2.53,0,0,0,.61,1.76,2.38,2.38,0,0,0,1.88.7A2.83,2.83,0,0,0,283.93,110.32Z"/><path class="cls-5" d="M299.74,110.1a5.62,5.62,0,0,1-.1.8h-7.55a1.22,1.22,0,0,1,0,.21q.18,3.78,3.74,3.78a8,8,0,0,0,1.63-.2,5.08,5.08,0,0,0,1.42-.46l.45,1.35a4.62,4.62,0,0,1-1.79.79,9.32,9.32,0,0,1-2.35.31,5.67,5.67,0,0,1-2.94-.73,4.63,4.63,0,0,1-1.85-2.12,8,8,0,0,1-.63-3.32,7.46,7.46,0,0,1,.63-3.14,5,5,0,0,1,1.86-2.17,5.36,5.36,0,0,1,3-.79,5,5,0,0,1,2.24.5,3.83,3.83,0,0,1,1.62,1.5,4.93,4.93,0,0,1,.65,2.41C299.76,109.37,299.75,109.79,299.74,110.1Zm-2.17-1.23a3.35,3.35,0,0,0-.56-2,2.16,2.16,0,0,0-1.89-.77,2.71,2.71,0,0,0-2,.76,4,4,0,0,0-1,2.48h5.4C297.56,109.12,297.57,109,297.57,108.87Z"/><path class="cls-5" d="M302.88,114.4a11.23,11.23,0,0,0,1.28.37,7.23,7.23,0,0,0,1.45.16,2.85,2.85,0,0,0,1.62-.39,1.23,1.23,0,0,0,.56-1.07,1.36,1.36,0,0,0-.64-1.13,9.33,9.33,0,0,0-1.88-1,7.36,7.36,0,0,1-2.52-1.56,3.06,3.06,0,0,1-.9-2.26,2.55,2.55,0,0,1,.59-1.72,3.54,3.54,0,0,1,1.58-1.06,6.92,6.92,0,0,1,2.26-.35,7.39,7.39,0,0,1,1.85.22,6,6,0,0,1,1.25.41L309,106.9a2.79,2.79,0,0,0-1.06-.52,5.59,5.59,0,0,0-1.58-.23,3.45,3.45,0,0,0-1.72.35,1.09,1.09,0,0,0-.6,1,1.5,1.5,0,0,0,.27.9,2.57,2.57,0,0,0,.78.66,12.52,12.52,0,0,0,1.32.6,8.8,8.8,0,0,1,2.58,1.49,2.79,2.79,0,0,1,1,2.23,3.07,3.07,0,0,1-.52,1.81,3.13,3.13,0,0,1-1.49,1.13,6.21,6.21,0,0,1-2.31.39,9.86,9.86,0,0,1-2.31-.27,4.88,4.88,0,0,1-1.59-.6l.36-1.76A4.22,4.22,0,0,0,302.88,114.4Z"/><rect class="cls-4" x="647.08" y="71.89" width="215.92" height="72.11" rx="9.27"/><path class="cls-5" d="M726.84,112.53h-6.69l-1.46,4.14h-2.53l6.25-16.35h2.31l6.1,16.35h-2.59Zm-.6-1.78-2.2-6.34-.46-1.48-.47,1.48-2.32,6.34Z"/><path class="cls-5" d="M739.42,104.61a4.06,4.06,0,0,1,1.16.43L740.2,107a3.3,3.3,0,0,0-1.16-.56,6.11,6.11,0,0,0-1.59-.18,3.45,3.45,0,0,0-1.72.45,3.29,3.29,0,0,0-1.29,1.43,5.29,5.29,0,0,0-.5,2.44,5.55,5.55,0,0,0,.45,2.34,3.41,3.41,0,0,0,1.24,1.49,3.15,3.15,0,0,0,1.76.5,6.43,6.43,0,0,0,1.65-.21,5.17,5.17,0,0,0,1.27-.47l.48,1.31a4.06,4.06,0,0,1-1.58.84,7.4,7.4,0,0,1-2.17.32,5.26,5.26,0,0,1-2.9-.78,5,5,0,0,1-1.85-2.14,7.15,7.15,0,0,1-.64-3.09,7.55,7.55,0,0,1,.67-3.21,5.16,5.16,0,0,1,2-2.23,6,6,0,0,1,3.24-.82A7.88,7.88,0,0,1,739.42,104.61Z"/><path class="cls-5" d="M744,106.2h-1.59v-1.27l.39-.12c.33-.09.57-.18.73-.24a1.13,1.13,0,0,0,.41-.27,1.26,1.26,0,0,0,.29-.48c.11-.28.26-.8.47-1.54l.24-.81h1.41v3h3.46v1.78H746.3v6.09a10.6,10.6,0,0,0,.1,1.7.89.89,0,0,0,.36.65,2,2,0,0,0,.9.15,5.17,5.17,0,0,0,1.12-.15,4.94,4.94,0,0,0,1-.3l.41,1.34a5,5,0,0,1-1.51.69,6.1,6.1,0,0,1-1.87.31,3,3,0,0,1-2.09-.66,3.14,3.14,0,0,1-.74-2.4Z"/><path class="cls-5" d="M752.18,99.91a1.84,1.84,0,0,1,.66-.61,1.71,1.71,0,0,1,.83-.23,1.5,1.5,0,0,1,1.12.41,1.44,1.44,0,0,1,.39,1,1.52,1.52,0,0,1-.25.86,1.67,1.67,0,0,1-.64.6,1.71,1.71,0,0,1-.85.22,1.6,1.6,0,0,1-.75-.18,1.45,1.45,0,0,1-.56-.51,1.49,1.49,0,0,1-.2-.76A1.5,1.5,0,0,1,752.18,99.91Zm2.56,4.51v12.25h-2.36V104.42Z"/><path class="cls-5" d="M758.18,107.17a4.89,4.89,0,0,1,2-2.06,5.79,5.79,0,0,1,2.88-.7,5.21,5.21,0,0,1,3.06.84,4.83,4.83,0,0,1,1.76,2.24,8.51,8.51,0,0,1,.56,3.16,6.87,6.87,0,0,1-.72,3.27,4.83,4.83,0,0,1-2,2.06,5.83,5.83,0,0,1-2.89.7,5.2,5.2,0,0,1-3.05-.84A4.83,4.83,0,0,1,758,113.6a8.51,8.51,0,0,1-.56-3.16A6.87,6.87,0,0,1,758.18,107.17Zm7.52,1.16a3.62,3.62,0,0,0-1-1.63,2.65,2.65,0,0,0-1.75-.59,2.6,2.6,0,0,0-2.27,1.09,5.34,5.34,0,0,0-.78,3.13,7.73,7.73,0,0,0,.34,2.38,3.85,3.85,0,0,0,1,1.68A2.54,2.54,0,0,0,763,115a2.58,2.58,0,0,0,2.28-1.13,5.53,5.53,0,0,0,.78-3.18A7.73,7.73,0,0,0,765.7,108.33Z"/><path class="cls-5" d="M773.25,104.42v1.44a9.85,9.85,0,0,1,2.08-1,7,7,0,0,1,2.37-.45,3.82,3.82,0,0,1,2,.47,2.69,2.69,0,0,1,1.1,1.49,9.37,9.37,0,0,1,.34,2.78v7.52h-2.36v-7.5a6.28,6.28,0,0,0-.17-1.61,1.49,1.49,0,0,0-.59-.89,2.15,2.15,0,0,0-1.24-.29h-.29a4,4,0,0,0-1.48.34,6.54,6.54,0,0,0-1.53.9v9h-2.36V104.42Z"/><path class="cls-5" d="M785,114.4a11.23,11.23,0,0,0,1.28.37,7.23,7.23,0,0,0,1.45.16,2.85,2.85,0,0,0,1.62-.39,1.21,1.21,0,0,0,.56-1.07,1.36,1.36,0,0,0-.64-1.13,9.06,9.06,0,0,0-1.88-1,7.56,7.56,0,0,1-2.52-1.56,3.06,3.06,0,0,1-.9-2.26,2.6,2.6,0,0,1,.59-1.72,3.59,3.59,0,0,1,1.58-1.06,6.92,6.92,0,0,1,2.26-.35,7.41,7.41,0,0,1,1.86.22,5.86,5.86,0,0,1,1.24.41l-.38,1.86a2.85,2.85,0,0,0-1.07-.52,5.54,5.54,0,0,0-1.58-.23,3.48,3.48,0,0,0-1.72.35,1.09,1.09,0,0,0-.6,1,1.51,1.51,0,0,0,.28.9,2.35,2.35,0,0,0,.78.66,10.88,10.88,0,0,0,1.32.6,9.07,9.07,0,0,1,2.58,1.49,2.82,2.82,0,0,1,1,2.23,3,3,0,0,1-2,2.94,6.19,6.19,0,0,1-2.3.39,9.89,9.89,0,0,1-2.32-.27,4.8,4.8,0,0,1-1.58-.6l.35-1.76A4.6,4.6,0,0,0,785,114.4Z"/><path class="cls-5" d="M110.71,320.07a6.76,6.76,0,0,1,2.73-2.82,7.89,7.89,0,0,1,3.87-.94,6.94,6.94,0,0,1,3.72,1,6.52,6.52,0,0,1,2.49,2.77,9.4,9.4,0,0,1,.89,4.19,10,10,0,0,1-1,4.6,6.66,6.66,0,0,1-2.69,2.86,7.79,7.79,0,0,1-3.93,1,6.63,6.63,0,0,1-6.23-3.9,10.52,10.52,0,0,1,.13-8.71Zm10.72,1.17a5.11,5.11,0,0,0-1.61-2.26,4,4,0,0,0-2.59-.85A4.71,4.71,0,0,0,112.8,321a8.31,8.31,0,0,0-.68,3.54,8.43,8.43,0,0,0,.57,3.14,5.32,5.32,0,0,0,1.69,2.31,4.23,4.23,0,0,0,2.68.87,4.64,4.64,0,0,0,2.61-.74,4.74,4.74,0,0,0,1.71-2.2,9.18,9.18,0,0,0,.6-3.52A8.59,8.59,0,0,0,121.43,321.24Z"/><path class="cls-5" d="M136.87,320.42v12.26H136a2.45,2.45,0,0,1-.67-.07.62.62,0,0,1-.38-.27,1.11,1.11,0,0,1-.13-.61v-.3a10.13,10.13,0,0,1-1.93.88,6.59,6.59,0,0,1-2,.37,3.63,3.63,0,0,1-2.29-.63,3.06,3.06,0,0,1-1.07-1.73,11.76,11.76,0,0,1-.28-2.84v-7.06h2.36v7a8,8,0,0,0,.22,2.16,1.4,1.4,0,0,0,.68.9,3.37,3.37,0,0,0,1.35.21,4.63,4.63,0,0,0,1.45-.27,6.07,6.07,0,0,0,1.28-.57v-9.47Z"/><path class="cls-5" d="M140.77,322.2h-1.59v-1.27l.39-.12c.33-.09.57-.18.73-.24a1,1,0,0,0,.41-.27,1.26,1.26,0,0,0,.29-.48c.11-.28.26-.8.47-1.54l.24-.81h1.42v2.95h3.45v1.78h-3.45v6.09a10.93,10.93,0,0,0,.09,1.7.92.92,0,0,0,.36.65,2,2,0,0,0,.9.15,5.17,5.17,0,0,0,1.12-.15,4.72,4.72,0,0,0,1-.3l.41,1.34a5,5,0,0,1-1.51.69,6.1,6.1,0,0,1-1.87.31,3,3,0,0,1-2.09-.66,3.14,3.14,0,0,1-.74-2.4Z"/><path class="cls-5" d="M157.12,321a4.46,4.46,0,0,1,1.75,1.91,6.81,6.81,0,0,1,.66,3.14,7.42,7.42,0,0,1-.77,3.42,5.62,5.62,0,0,1-2.17,2.33,6.21,6.21,0,0,1-3.24.84,10.39,10.39,0,0,1-1.7-.15,13.82,13.82,0,0,1-1.63-.36,4.32,4.32,0,0,1-1-.37V314.93h2.36V320l-.09,1.72a5,5,0,0,1,1.36-1,4.56,4.56,0,0,1,2-.39A4.77,4.77,0,0,1,157.12,321Zm-.79,2.23a2.73,2.73,0,0,0-2.29-1,3.52,3.52,0,0,0-1.45.3,5.66,5.66,0,0,0-1.17.73v7.23a4.25,4.25,0,0,0,2.2.41,3.16,3.16,0,0,0,1.81-.54,3.51,3.51,0,0,0,1.24-1.58,6.38,6.38,0,0,0,.45-2.52A4.79,4.79,0,0,0,156.33,323.27Z"/><path class="cls-5" d="M162.25,323.17a4.87,4.87,0,0,1,2-2.06,5.85,5.85,0,0,1,2.88-.7,5.21,5.21,0,0,1,3.06.84,4.83,4.83,0,0,1,1.76,2.24,8.32,8.32,0,0,1,.56,3.16,6.87,6.87,0,0,1-.72,3.27,4.87,4.87,0,0,1-2,2.06,5.86,5.86,0,0,1-2.89.7,5.18,5.18,0,0,1-3.05-.84,4.85,4.85,0,0,1-1.77-2.24,8.52,8.52,0,0,1-.55-3.16A6.75,6.75,0,0,1,162.25,323.17Zm7.51,1.16a3.54,3.54,0,0,0-1-1.63,2.9,2.9,0,0,0-4,.5,5.34,5.34,0,0,0-.78,3.13,8,8,0,0,0,.34,2.38,3.78,3.78,0,0,0,1.05,1.68A2.51,2.51,0,0,0,167,331a2.57,2.57,0,0,0,2.27-1.13,5.45,5.45,0,0,0,.79-3.18A7.72,7.72,0,0,0,169.76,324.33Z"/><path class="cls-5" d="M184.79,320.42v12.26h-.91a2.45,2.45,0,0,1-.67-.07.62.62,0,0,1-.38-.27,1.11,1.11,0,0,1-.13-.61v-.3a10.13,10.13,0,0,1-1.93.88,6.59,6.59,0,0,1-2,.37,3.63,3.63,0,0,1-2.29-.63,3.06,3.06,0,0,1-1.07-1.73,11.76,11.76,0,0,1-.28-2.84v-7.06h2.36v7a8,8,0,0,0,.22,2.16,1.4,1.4,0,0,0,.68.9,3.37,3.37,0,0,0,1.35.21,4.63,4.63,0,0,0,1.45-.27,6.07,6.07,0,0,0,1.28-.57v-9.47Z"/><path class="cls-5" d="M190.32,320.42v1.44a9.85,9.85,0,0,1,2.08-1,6.88,6.88,0,0,1,2.36-.45,3.8,3.8,0,0,1,2,.47,2.69,2.69,0,0,1,1.1,1.49,9,9,0,0,1,.34,2.78v7.52h-2.36v-7.5a6.34,6.34,0,0,0-.16-1.61,1.58,1.58,0,0,0-.59-.89,2.18,2.18,0,0,0-1.25-.29h-.29a3.86,3.86,0,0,0-1.47.34,6.41,6.41,0,0,0-1.54.9v9.05h-2.36V320.42Z"/><path class="cls-5" d="M211.3,314.93v17.75h-1a2.45,2.45,0,0,1-.67-.07.66.66,0,0,1-.4-.27,1.1,1.1,0,0,1-.14-.61v-.44a5,5,0,0,1-1.38,1,4.45,4.45,0,0,1-2,.4,4.68,4.68,0,0,1-2.42-.64,4.44,4.44,0,0,1-1.74-1.91,6.83,6.83,0,0,1-.66-3.15,7.41,7.41,0,0,1,.76-3.41,5.66,5.66,0,0,1,2.16-2.33,6.16,6.16,0,0,1,3.21-.83,6.68,6.68,0,0,1,2,.3l0-.66v-5.12ZM204,329.82a2.71,2.71,0,0,0,2.28,1,3.64,3.64,0,0,0,1.45-.28,5.42,5.42,0,0,0,1.17-.66v-7.14a1.87,1.87,0,0,0-.86-.46,5.11,5.11,0,0,0-1.34-.15,3.13,3.13,0,0,0-1.8.54,3.54,3.54,0,0,0-1.24,1.59,6.38,6.38,0,0,0-.45,2.52A4.85,4.85,0,0,0,204,329.82Z"/><path class="cls-5" d="M238,320.87a2.63,2.63,0,0,1,1.12,1.47,8.54,8.54,0,0,1,.36,2.76v7.57h-2.36v-7.49a6,6,0,0,0-.18-1.65,1.37,1.37,0,0,0-.65-.87,2.81,2.81,0,0,0-1.41-.28,4.38,4.38,0,0,0-1.48.29,6.21,6.21,0,0,0-1.52.77,11.75,11.75,0,0,1,.1,1.66v7.57h-2.36v-7.49a6,6,0,0,0-.18-1.65,1.41,1.41,0,0,0-.66-.87,2.79,2.79,0,0,0-1.4-.28,4.11,4.11,0,0,0-1.47.33,5.59,5.59,0,0,0-1.53.91v9.05H222V320.42h2.11v1.43a9.78,9.78,0,0,1,2-1,6.09,6.09,0,0,1,2.24-.45,4.77,4.77,0,0,1,2,.34,2.38,2.38,0,0,1,1.16,1.14,8.07,8.07,0,0,1,2.06-1,7.44,7.44,0,0,1,2.43-.44A3.9,3.9,0,0,1,238,320.87Z"/><path class="cls-5" d="M252.08,326.1a5.62,5.62,0,0,1-.1.8h-7.55a1.22,1.22,0,0,1,0,.21q.18,3.78,3.74,3.78a8,8,0,0,0,1.63-.2,5.08,5.08,0,0,0,1.42-.46l.45,1.35a4.62,4.62,0,0,1-1.79.79,9.24,9.24,0,0,1-2.34.31,5.68,5.68,0,0,1-3-.73,4.69,4.69,0,0,1-1.85-2.12,8,8,0,0,1-.63-3.32,7.46,7.46,0,0,1,.63-3.14,5,5,0,0,1,1.86-2.17,5.36,5.36,0,0,1,3-.79,5,5,0,0,1,2.24.5,3.78,3.78,0,0,1,1.62,1.5,4.82,4.82,0,0,1,.65,2.41C252.1,325.37,252.09,325.79,252.08,326.1Zm-2.17-1.23a3.42,3.42,0,0,0-.55-2,2.16,2.16,0,0,0-1.9-.77,2.72,2.72,0,0,0-2,.76,3.93,3.93,0,0,0-1,2.48h5.39C249.9,325.12,249.91,325,249.91,324.87Z"/><path class="cls-5" d="M255.23,330.4a9.33,9.33,0,0,0,1.27.37,7.23,7.23,0,0,0,1.45.16,2.81,2.81,0,0,0,1.62-.39,1.21,1.21,0,0,0,.56-1.07,1.39,1.39,0,0,0-.63-1.13,9.46,9.46,0,0,0-1.89-1,7.56,7.56,0,0,1-2.52-1.56,3.06,3.06,0,0,1-.9-2.26,2.6,2.6,0,0,1,.59-1.72,3.59,3.59,0,0,1,1.58-1.06,6.92,6.92,0,0,1,2.26-.35,7.41,7.41,0,0,1,1.86.22,5.86,5.86,0,0,1,1.24.41l-.38,1.86a2.85,2.85,0,0,0-1.07-.52,5.47,5.47,0,0,0-1.57-.23,3.5,3.5,0,0,0-1.73.35,1.08,1.08,0,0,0-.59,1,1.5,1.5,0,0,0,.27.9,2.35,2.35,0,0,0,.78.66,11.64,11.64,0,0,0,1.32.6,9.07,9.07,0,0,1,2.58,1.49,2.82,2.82,0,0,1,1,2.23,3.12,3.12,0,0,1-.52,1.81,3.16,3.16,0,0,1-1.5,1.13,6.15,6.15,0,0,1-2.3.39,9.89,9.89,0,0,1-2.32-.27,4.9,4.9,0,0,1-1.58-.6l.35-1.76A4.41,4.41,0,0,0,255.23,330.4Z"/><path class="cls-5" d="M265.37,330.4a9.5,9.5,0,0,0,1.28.37,7.23,7.23,0,0,0,1.45.16,2.85,2.85,0,0,0,1.62-.39,1.23,1.23,0,0,0,.56-1.07,1.37,1.37,0,0,0-.64-1.13,9.33,9.33,0,0,0-1.88-1,7.36,7.36,0,0,1-2.52-1.56,3.06,3.06,0,0,1-.9-2.26,2.6,2.6,0,0,1,.59-1.72,3.54,3.54,0,0,1,1.58-1.06,6.92,6.92,0,0,1,2.26-.35,7.39,7.39,0,0,1,1.85.22,6,6,0,0,1,1.25.41l-.39,1.86a2.79,2.79,0,0,0-1.06-.52,5.59,5.59,0,0,0-1.58-.23,3.45,3.45,0,0,0-1.72.35,1.09,1.09,0,0,0-.6,1,1.5,1.5,0,0,0,.27.9,2.57,2.57,0,0,0,.78.66,12.52,12.52,0,0,0,1.32.6,8.8,8.8,0,0,1,2.58,1.49,2.79,2.79,0,0,1,1,2.23,3,3,0,0,1-.52,1.81,3.13,3.13,0,0,1-1.49,1.13,6.21,6.21,0,0,1-2.31.39,9.86,9.86,0,0,1-2.31-.27,4.88,4.88,0,0,1-1.59-.6l.36-1.76A4.22,4.22,0,0,0,265.37,330.4Z"/><path class="cls-5" d="M281.89,320.72a2.7,2.7,0,0,1,1.48,1.15,4.36,4.36,0,0,1,.52,2.34v8.47h-1a2.65,2.65,0,0,1-.73-.07.59.59,0,0,1-.39-.3,1.55,1.55,0,0,1-.14-.75v-.09a4.4,4.4,0,0,1-1.48.85,5.41,5.41,0,0,1-2,.36,4.35,4.35,0,0,1-1.94-.42,3.16,3.16,0,0,1-1.33-1.2,3.42,3.42,0,0,1-.48-1.83,3.3,3.3,0,0,1,.63-2,4.1,4.1,0,0,1,1.76-1.31,11.25,11.25,0,0,1,2.26-.6,15.68,15.68,0,0,1,2.4-.19V324a2,2,0,0,0-.27-1.16,1.38,1.38,0,0,0-.83-.52,6.54,6.54,0,0,0-1.51-.14,7,7,0,0,0-1.19.13,10.35,10.35,0,0,0-1.25.32,4,4,0,0,0-.87.37l-.58-1.47a5.83,5.83,0,0,1,1-.44,13,13,0,0,1,1.67-.48,8.32,8.32,0,0,1,1.81-.21A7.54,7.54,0,0,1,281.89,320.72Zm-1.9,10a5.41,5.41,0,0,0,1-.36,2,2,0,0,0,.55-.36v-3.43a12,12,0,0,0-1.77.15,5.8,5.8,0,0,0-1.58.44,2.9,2.9,0,0,0-1,.73,1.61,1.61,0,0,0-.36,1.09c0,1.26.71,1.89,2.12,1.89A4,4,0,0,0,280,330.77Z"/><path class="cls-5" d="M298,322.38h-2.25a3.72,3.72,0,0,1,.55,2,3.67,3.67,0,0,1-.64,2.18A4,4,0,0,1,293.9,328a6.47,6.47,0,0,1-2.52.46,5.49,5.49,0,0,1-1.33-.14,1.73,1.73,0,0,0-.5.57,1.43,1.43,0,0,0-.19.71,1.2,1.2,0,0,0,.31,1,1.65,1.65,0,0,0,1.09.27H293a5.1,5.1,0,0,1,3.53.94,3.17,3.17,0,0,1,1,2.43,3,3,0,0,1-.79,2.07,5.26,5.26,0,0,1-2.15,1.38,8.79,8.79,0,0,1-3,.48,6.85,6.85,0,0,1-3.77-.88,3,3,0,0,1-1.36-2.66,2.31,2.31,0,0,1,.5-1.46,3.91,3.91,0,0,1,1.21-1,2,2,0,0,1-.95-1.82,2.68,2.68,0,0,1,.4-1.32,3.71,3.71,0,0,1,1.11-1.16,4,4,0,0,1-1.56-1.37,3.5,3.5,0,0,1-.56-1.94,3.85,3.85,0,0,1,.64-2.27,3.78,3.78,0,0,1,1.77-1.36,6.84,6.84,0,0,1,2.56-.45,5.64,5.64,0,0,1,3,.74,3.43,3.43,0,0,1,1-.53,3.87,3.87,0,0,1,1.26-.21H298Zm-8.49,10.21a2.51,2.51,0,0,0-.57.7,2.09,2.09,0,0,0-.21,1,2,2,0,0,0,.68,1.66,3.57,3.57,0,0,0,2.21.54,7.29,7.29,0,0,0,1.8-.21,3.39,3.39,0,0,0,1.31-.61,1.25,1.25,0,0,0,.5-1,2.18,2.18,0,0,0-.26-1.12,1.56,1.56,0,0,0-.91-.66,5.7,5.7,0,0,0-1.86-.23h-1.1A13.47,13.47,0,0,1,289.52,332.59Zm3.8-6.27a2.32,2.32,0,0,0,.64-1.87,2.53,2.53,0,0,0-.6-1.82,2.44,2.44,0,0,0-1.82-.62,3.09,3.09,0,0,0-1.89.53,2.17,2.17,0,0,0-.71,1.86,2.54,2.54,0,0,0,.62,1.76,2.36,2.36,0,0,0,1.87.7A2.88,2.88,0,0,0,293.32,326.32Z"/><path class="cls-5" d="M309.12,326.1a4.47,4.47,0,0,1-.1.8h-7.55a1.22,1.22,0,0,1,0,.21c.13,2.52,1.37,3.78,3.74,3.78a7.94,7.94,0,0,0,1.63-.2,5,5,0,0,0,1.42-.46l.45,1.35a4.62,4.62,0,0,1-1.79.79,9.19,9.19,0,0,1-2.34.31,5.68,5.68,0,0,1-2.95-.73,4.61,4.61,0,0,1-1.84-2.12,7.8,7.8,0,0,1-.64-3.32,7.46,7.46,0,0,1,.63-3.14,5,5,0,0,1,1.86-2.17,5.36,5.36,0,0,1,3-.79,5.09,5.09,0,0,1,2.25.5,3.81,3.81,0,0,1,1.61,1.5,4.82,4.82,0,0,1,.65,2.41C309.14,325.37,309.14,325.79,309.12,326.1ZM307,324.87a3.34,3.34,0,0,0-.55-2,2.16,2.16,0,0,0-1.9-.77,2.74,2.74,0,0,0-2,.76,4,4,0,0,0-1,2.48h5.39C306.94,325.12,307,325,307,324.87Z"/><path class="cls-5" d="M312.27,330.4a9.33,9.33,0,0,0,1.27.37,7.23,7.23,0,0,0,1.45.16,2.81,2.81,0,0,0,1.62-.39,1.21,1.21,0,0,0,.56-1.07,1.39,1.39,0,0,0-.63-1.13,9.46,9.46,0,0,0-1.89-1,7.56,7.56,0,0,1-2.52-1.56,3.06,3.06,0,0,1-.9-2.26,2.6,2.6,0,0,1,.59-1.72,3.59,3.59,0,0,1,1.58-1.06,6.92,6.92,0,0,1,2.26-.35,7.41,7.41,0,0,1,1.86.22,5.86,5.86,0,0,1,1.24.41l-.38,1.86a2.85,2.85,0,0,0-1.07-.52,5.47,5.47,0,0,0-1.57-.23,3.5,3.5,0,0,0-1.73.35,1.08,1.08,0,0,0-.59,1,1.5,1.5,0,0,0,.27.9,2.35,2.35,0,0,0,.78.66,11.64,11.64,0,0,0,1.32.6,9.07,9.07,0,0,1,2.58,1.49,2.82,2.82,0,0,1,1,2.23,3.12,3.12,0,0,1-.52,1.81,3.16,3.16,0,0,1-1.5,1.13,6.15,6.15,0,0,1-2.3.39,9.89,9.89,0,0,1-2.32-.27,4.9,4.9,0,0,1-1.58-.6l.35-1.76A4.41,4.41,0,0,0,312.27,330.4Z"/><rect class="cls-6" x="430.89" y="71.68" width="144.11" height="144.32" rx="9.9"/><path class="cls-5" d="M478.26,113.91a6.32,6.32,0,0,0,1.73.7,7.81,7.81,0,0,0,2.12.3,4.51,4.51,0,0,0,2.43-.54,1.85,1.85,0,0,0,.83-1.68,2.09,2.09,0,0,0-.41-1.29,3.54,3.54,0,0,0-1.11-1q-.71-.42-2.1-1.08a10.13,10.13,0,0,1-2.95-2,3.86,3.86,0,0,1-1.14-2.77,3.52,3.52,0,0,1,.77-2.37,4.31,4.31,0,0,1,2-1.33,8.38,8.38,0,0,1,2.66-.41,9.12,9.12,0,0,1,2.31.25,5.21,5.21,0,0,1,1.49.6l-.48,1.94a5.44,5.44,0,0,0-3.35-.91,5.39,5.39,0,0,0-1.53.21,2.75,2.75,0,0,0-1.15.65,1.51,1.51,0,0,0-.44,1.09,2.47,2.47,0,0,0,.31,1.28,3.12,3.12,0,0,0,1,.94,20.34,20.34,0,0,0,2,1.09,25.41,25.41,0,0,1,2.3,1.31,6.14,6.14,0,0,1,1.58,1.51,3.43,3.43,0,0,1,.64,2.06,4.16,4.16,0,0,1-.68,2.42,4.08,4.08,0,0,1-1.91,1.45,7.79,7.79,0,0,1-2.86.48,12.42,12.42,0,0,1-1.95-.15,12.58,12.58,0,0,1-1.63-.36,4.64,4.64,0,0,1-1-.42Z"/><path class="cls-5" d="M490.28,106.34h-1.59v-1.28l.39-.11a7.24,7.24,0,0,0,.73-.25,1.13,1.13,0,0,0,.41-.27,1.14,1.14,0,0,0,.29-.47c.1-.29.26-.8.47-1.55l.24-.81h1.41v3h3.46v1.79h-3.46v6.08a10.84,10.84,0,0,0,.1,1.71.88.88,0,0,0,.36.64,1.94,1.94,0,0,0,.9.15,5.86,5.86,0,0,0,1.12-.14,4.25,4.25,0,0,0,1-.31l.41,1.34a5.22,5.22,0,0,1-1.51.7,6.39,6.39,0,0,1-1.87.3,3,3,0,0,1-2.09-.66,3.14,3.14,0,0,1-.74-2.4Z"/><path class="cls-5" d="M505.38,104.86a2.73,2.73,0,0,1,1.48,1.14,4.41,4.41,0,0,1,.52,2.34v8.47h-1a3.24,3.24,0,0,1-.73-.06.65.65,0,0,1-.39-.3,1.6,1.6,0,0,1-.14-.76v-.08a4.58,4.58,0,0,1-1.48.85,5.62,5.62,0,0,1-2,.35,4.35,4.35,0,0,1-1.94-.42,3.16,3.16,0,0,1-1.33-1.2,3.37,3.37,0,0,1-.48-1.83,3.3,3.3,0,0,1,.63-2,4.1,4.1,0,0,1,1.76-1.31,10.63,10.63,0,0,1,2.26-.59,15.74,15.74,0,0,1,2.4-.2v-1.11a2,2,0,0,0-.27-1.16,1.42,1.42,0,0,0-.83-.52,6.64,6.64,0,0,0-1.51-.13,6.14,6.14,0,0,0-1.19.13,10.38,10.38,0,0,0-1.25.31,4.87,4.87,0,0,0-.87.37l-.58-1.47a6.73,6.73,0,0,1,1-.44,13,13,0,0,1,1.67-.48,8.32,8.32,0,0,1,1.81-.21A7.52,7.52,0,0,1,505.38,104.86Zm-1.9,10a5.41,5.41,0,0,0,1-.36,2,2,0,0,0,.55-.36v-3.43a12,12,0,0,0-1.77.15,5.8,5.8,0,0,0-1.58.44,2.9,2.9,0,0,0-1,.73,1.63,1.63,0,0,0-.36,1.09c0,1.26.71,1.89,2.12,1.89A4,4,0,0,0,503.48,114.9Z"/><path class="cls-5" d="M511.1,106.34h-1.59v-1.28l.38-.11a7.24,7.24,0,0,0,.73-.25,1.17,1.17,0,0,0,.42-.27,1.25,1.25,0,0,0,.28-.47c.11-.29.27-.8.47-1.55l.24-.81h1.42v3h3.46v1.79h-3.46v6.08a11.18,11.18,0,0,0,.09,1.71.92.92,0,0,0,.36.64,2,2,0,0,0,.9.15,5.77,5.77,0,0,0,1.12-.14,4.37,4.37,0,0,0,1-.31l.4,1.34a5.22,5.22,0,0,1-1.51.7,6.39,6.39,0,0,1-1.87.3,3,3,0,0,1-2.08-.66,3.1,3.1,0,0,1-.74-2.4Z"/><path class="cls-5" d="M528.41,110.23a4.53,4.53,0,0,1-.09.8h-7.55s0,.12,0,.22Q521,115,524.51,115a8.23,8.23,0,0,0,1.64-.21,4.77,4.77,0,0,0,1.42-.46l.45,1.36a4.9,4.9,0,0,1-1.8.79,9.63,9.63,0,0,1-2.34.3,5.58,5.58,0,0,1-2.94-.73,4.61,4.61,0,0,1-1.85-2.11,8,8,0,0,1-.63-3.33,7.65,7.65,0,0,1,.62-3.14,5,5,0,0,1,1.86-2.16,5.39,5.39,0,0,1,3-.8,5,5,0,0,1,2.25.5,4,4,0,0,1,1.62,1.5,4.93,4.93,0,0,1,.65,2.41C528.44,109.5,528.43,109.93,528.41,110.23ZM526.24,109a3.39,3.39,0,0,0-.55-2,2.19,2.19,0,0,0-1.9-.77,2.75,2.75,0,0,0-2,.77,4,4,0,0,0-1,2.47h5.39A4.4,4.4,0,0,0,526.24,109Z"/><rect class="cls-7" x="487.69" y="146.98" width="39.62" height="39.62" transform="translate(12.49 -34.05) rotate(3.89)"/><rect class="cls-8" x="491.95" y="151.49" width="39.62" height="39.62" transform="matrix(0.99, 0.13, -0.13, 0.99, 27.4, -66.7)"/><rect class="cls-9" x="483.42" y="142.46" width="39.62" height="39.62"/></svg>