<?xml version="1.0" encoding="UTF-8"?>
<svg width="54px" height="54px" viewBox="0 0 54 54" version="1.1" xmlns="http://www.w3.org/2000/svg" xmlns:xlink="http://www.w3.org/1999/xlink">
    <!-- Generator: Sketch 47.1 (45422) - http://www.bohemiancoding.com/sketch -->
    <title>ipl big</title>
    <desc>Created with Sketch.</desc>
    <defs></defs>
    <g id="Page-1" stroke="none" stroke-width="1" fill="none" fill-rule="evenodd">
        <g id="https://aestheticintegration.github.io" transform="translate(-360.000000, -759.000000)" fill="#27D7CD">
            <g id="ipl-big" transform="translate(359.984375, 759.597656)">
                <path d="M11.9740741,21.780804 C12.8246873,21.780804 13.5142686,21.0940635 13.5142686,20.2467397 C13.5142686,19.399715 12.8246873,18.7129745 11.9740741,18.7129745 C11.1234609,18.7129745 10.4338796,19.399715 10.4338796,20.2467397 C10.4338796,21.0940635 11.1234609,21.780804 11.9740741,21.780804" id="Fill-1"></path>
                <path d="M21.8268483,21.780804 C22.6774615,21.780804 23.3670428,21.0940635 23.3670428,20.2467397 C23.3670428,19.399715 22.6774615,18.7129745 21.8268483,18.7129745 C20.9762351,18.7129745 20.2865043,19.399715 20.2865043,20.2467397 C20.2865043,21.0940635 20.9762351,21.780804 21.8268483,21.780804" id="Fill-3"></path>
                <path d="M16.8734506,18.4496268 L16.8734506,18.4496268 C17.2702738,18.4496268 17.5921881,18.7713916 17.5921881,19.1685139 L17.5921881,21.3253244 C17.5921881,21.7222972 17.2702738,22.0440619 16.8734506,22.0440619 C16.4764778,22.0440619 16.1547131,21.7222972 16.1547131,21.3253244 L16.1547131,19.1685139 C16.1547131,18.7713916 16.4764778,18.4496268 16.8734506,18.4496268" id="Fill-5"></path>
                <path d="M26.8003862,4.57459898 L26.7915646,4.57459898 L26.6463817,4.57429994 C25.4077669,4.57429994 24.4035978,3.5701308 24.4035978,2.33151598 C24.4035978,1.09290115 25.4077669,0.0887320097 26.6463817,0.0887320097 L26.8089088,0.0890310475 C28.0475236,0.0938156533 29.0478053,1.10172277 29.0430207,2.34048711 C29.0382361,3.57611156 28.0351136,4.57459898 26.8003862,4.57459898 L26.8003862,4.57459898 Z" id="Fill-7"></path>
                <path d="M11.0330169,10.2292554 C10.3900855,10.2292554 9.7520882,9.95443964 9.30846553,9.42185321 C8.51571615,8.47001569 8.64475099,7.05586564 9.59643899,6.26311627 C11.9739395,4.2833361 14.6606452,2.74359015 17.5822451,1.68679035 C18.7474461,1.265446 20.0327109,1.86800729 20.4542047,3.03275976 C20.8755491,4.19766176 20.2728383,5.48337504 19.1080858,5.90471939 C16.677506,6.78389071 14.4432447,8.06422131 12.4672025,9.70997619 C12.0479514,10.0591029 11.5389889,10.2292554 11.0330169,10.2292554 L11.0330169,10.2292554 Z" id="Path"></path>
                <path d="M42.3832492,10.3071548 C41.8744363,10.3071548 41.3630816,10.1350585 40.9429334,9.78249287 C39.952819,8.95176569 38.8785255,8.20043306 37.7502556,7.54897908 C36.6518896,6.91457025 35.4967063,6.37226509 34.3171515,5.93686596 C33.1552398,5.50789615 32.5609021,4.21814585 32.9898719,3.05623424 C33.4188417,1.89402358 34.7090406,1.30043343 35.8705036,1.72880516 C37.2880926,2.25212142 38.6751797,2.90327637 39.9931891,3.66432773 C41.346784,4.4460127 42.6363848,5.34820993 43.8258079,6.3462488 C44.7748045,7.14228758 44.8987557,8.55688619 44.1025674,9.50573333 C43.6589448,10.0345818 43.0233398,10.3071548 42.3832492,10.3071548 L42.3832492,10.3071548 Z" id="Path"></path>
                <path d="M5.50948853,16.7985192 C5.12911236,16.7985192 4.74365256,16.7016309 4.39063836,16.4979861 C3.32083041,15.880772 2.95196721,14.5152156 3.56349964,13.4437629 L3.65276244,13.289908 C4.27805061,12.2206981 5.65183055,11.860507 6.7208909,12.4860942 C7.79010078,13.1115319 8.15014237,14.4851623 7.52470468,15.5543722 L7.45413174,15.6760806 C7.03891767,16.3958647 6.28459466,16.7985192 5.50948853,16.7985192 L5.50948853,16.7985192 Z" id="Path"></path>
                <path d="M47.8795651,16.8991454 C47.0983287,16.8991454 46.3392211,16.4900616 45.9263993,15.7617549 L45.8583682,15.6428874 C45.2392103,14.570089 45.6070269,13.1985519 46.6799748,12.579394 C47.7523245,11.9603856 49.1241607,12.3279032 49.7434681,13.4010005 L49.8288435,13.5499214 C50.4396283,14.6275043 50.0610464,15.9963501 48.9834634,16.607135 C48.6341872,16.805098 48.2542596,16.8991454 47.8795651,16.8991454 L47.8795651,16.8991454 Z" id="Path"></path>
                <path d="M2.59865397,33.1442278 C1.52764987,33.1442278 0.579998886,32.3746538 0.391305995,31.2833152 C0.13174113,29.7821451 1.49518931e-05,28.2500246 1.49518931e-05,26.7295666 C1.49518931e-05,25.1733736 0.138020925,23.6088075 0.41014538,22.0793783 C0.627097349,20.8599019 1.79155078,20.0466685 3.01117671,20.264368 C4.23065311,20.48132 5.0432885,21.6457734 4.82618701,22.8652498 C4.60011439,24.1358617 4.48558288,25.4359288 4.48558288,26.7295666 C4.48558288,27.9944968 4.59503074,29.2694447 4.81123512,30.5188249 C5.02235585,31.7393479 4.20403874,32.8999138 2.9835157,33.1108851 C2.85433135,33.1333129 2.72544603,33.1442278 2.59865397,33.1442278 L2.59865397,33.1442278 Z" id="Path"></path>
                <path d="M50.713547,33.2621982 C50.583316,33.2621982 50.4517393,33.2508348 50.3192655,33.2273603 C49.0996396,33.0111559 48.2862566,31.8470015 48.502461,30.6273756 C48.727188,29.3605017 48.8411214,28.0643221 48.8411214,26.7750204 C48.8409719,25.5056046 48.7307764,24.2266197 48.5133759,22.9735015 C48.3016571,21.753128 49.1192266,20.5921135 50.3398992,20.3803947 C51.5610203,20.1689749 52.7211377,20.9863949 52.9328565,22.2067684 C53.194066,23.712125 53.3265398,25.2488806 53.3266893,26.7747213 C53.3266893,28.3262793 53.1895805,29.8859112 52.9192502,31.4105558 C52.7263708,32.4978574 51.7803645,33.2621982 50.713547,33.2621982 L50.713547,33.2621982 Z" id="Path"></path>
                <path d="M5.52130052,41.2140635 C4.74604486,41.2140635 3.99202089,40.811409 3.5766573,40.0917744 L3.4929267,39.9453954 C2.88049716,38.8687096 3.25713535,37.4995647 4.33397069,36.8872847 C5.41020795,36.2750047 6.7801004,36.6514933 7.39208139,37.7283287 L7.46175721,37.8498876 C8.0809151,38.9228354 7.71309853,40.2942231 6.64015068,40.913381 C6.28713649,41.1170257 5.90167668,41.2140635 5.52130052,41.2140635 L5.52130052,41.2140635 Z" id="Path"></path>
                <path d="M47.7294481,41.3366691 C47.345035,41.3366691 46.9558372,41.2379866 46.6001317,41.0301552 C45.5306227,40.4054651 45.1699831,39.0318347 45.7948227,37.9623258 L45.8793009,37.8166944 C46.4980102,36.7437465 47.8698464,36.3756309 48.9427943,36.9947888 C50.0157421,37.6139467 50.3837082,38.9854839 49.7646998,40.0582822 L49.6679611,40.2249958 C49.2509528,40.9386497 48.5003677,41.3366691 47.7294481,41.3366691 L47.7294481,41.3366691 Z" id="Path"></path>
                <path d="M18.2200929,51.9101993 C17.9617241,51.9101993 17.6991689,51.8651941 17.4425944,51.7703991 C16.0302386,51.2481295 14.6477866,50.5984697 13.3336647,49.8398107 C11.9749861,49.0552848 10.6816474,48.1499477 9.48983199,47.1483204 C8.54143341,46.3516835 8.41852885,44.9369354 9.21531523,43.9885368 C10.0116531,43.0399887 11.4265507,42.9172337 12.3749493,43.7141696 C13.3670074,44.5474386 14.4441418,45.3014625 15.5765982,45.9553088 C16.6716748,46.5876244 17.8229706,47.1285839 18.9981894,47.5632354 C20.160101,47.9929528 20.7536911,49.2830022 20.3241233,50.4446147 C19.9892009,51.3499519 19.1320088,51.9101993 18.2200929,51.9101993 L18.2200929,51.9101993 Z" id="Path"></path>
                <path d="M34.9695026,51.9564007 C34.0511573,51.9564007 33.1897787,51.3882287 32.8597904,50.4748176 C32.4391937,49.3097661 33.0425026,48.0243518 34.2074046,47.603456 C36.6385824,46.7254808 38.8735914,45.4464959 40.8505307,43.8019372 C41.8025177,43.0099354 43.2168173,43.1397178 44.0089686,44.0918544 C44.8011199,45.0441405 44.6713374,46.458141 43.7190514,47.2502923 C41.3408033,49.2287268 38.6532005,50.7669776 35.731152,51.8224317 C35.4796612,51.9131897 35.2223391,51.9564007 34.9695026,51.9564007 L34.9695026,51.9564007 Z" id="Path"></path>
                <path d="M26.6671649,53.4154064 L26.5059835,53.4151073 C25.2673686,53.4109208 24.2664889,52.4033127 24.270825,51.1646979 C24.2750115,49.9286249 25.278134,48.9295394 26.5131604,48.9295394 L26.5210849,48.9295394 L26.6671649,48.9298384 C27.9059292,48.9298384 28.9099488,49.9340076 28.9099488,51.1726224 C28.9099488,52.4112372 27.9059292,53.4154064 26.6671649,53.4154064 L26.6671649,53.4154064 Z" id="Path"></path>
                <path d="M40.8776534,29.4861425 C40.8776534,28.8937485 40.3985948,28.4148393 39.8064998,28.4148393 L11.5049584,28.4148393 C10.913013,28.4148393 10.4339543,28.8937485 10.4339543,29.4861425 C10.4339543,30.078387 10.913013,30.5578942 11.5049584,30.5578942 L39.8064998,30.5578942 C40.3985948,30.5578942 40.8776534,30.078387 40.8776534,29.4861425" id="Fill-10"></path>
                <path d="M39.812331,18.7826952 L27.9770105,18.7826952 C27.1681131,18.7826952 26.5132202,19.4371396 26.5132202,20.2464856 C26.5132202,21.0558315 27.1681131,21.711173 27.9770105,21.711173 L39.812331,21.711173 C40.6212284,21.711173 41.2759718,21.0558315 41.2759718,20.2464856 C41.2759718,19.4371396 40.6212284,18.7826952 39.812331,18.7826952" id="Fill-12"></path>
                <path d="M31.8009572,24.10376 L27.5163427,24.10376 C26.9242477,24.10376 26.4451891,24.5828186 26.4451891,25.1750631 C26.4451891,25.7674571 26.9242477,26.2469643 27.5163427,26.2469643 L31.8009572,26.2469643 C32.3929026,26.2469643 32.8719613,25.7674571 32.8719613,25.1750631 C32.8719613,24.5828186 32.3929026,24.10376 31.8009572,24.10376" id="Fill-14"></path>
                <path d="M15.7895729,24.10376 L11.505108,24.10376 C10.913013,24.10376 10.4339543,24.5828186 10.4339543,25.1750631 C10.4339543,25.7674571 10.913013,26.2469643 11.505108,26.2469643 L15.7895729,26.2469643 C16.3816679,26.2469643 16.8607265,25.7674571 16.8607265,25.1750631 C16.8607265,24.5828186 16.3816679,24.10376 15.7895729,24.10376" id="Fill-16"></path>
                <path d="M23.795265,24.10376 L19.5106506,24.10376 C18.9187051,24.10376 18.4394969,24.5828186 18.4394969,25.1750631 C18.4394969,25.7674571 18.9187051,26.2469643 19.5106506,26.2469643 L23.795265,26.2469643 C24.3872105,26.2469643 24.8664187,25.7674571 24.8664187,25.1750631 C24.8664187,24.5828186 24.3872105,24.10376 23.795265,24.10376" id="Fill-18"></path>
                <path d="M39.8064998,24.10376 L35.5220348,24.10376 C34.9299398,24.10376 34.4507317,24.5828186 34.4507317,25.1750631 C34.4507317,25.7674571 34.9299398,26.2469643 35.5220348,26.2469643 L39.8064998,26.2469643 C40.3985948,26.2469643 40.8776534,25.7674571 40.8776534,25.1750631 C40.8776534,24.5828186 40.3985948,24.10376 39.8064998,24.10376" id="Fill-20"></path>
                <path d="M12.1630212,32.7257691 L11.5051379,32.7257691 C10.9130429,32.7257691 10.4339842,33.2046783 10.4339842,33.7970723 C10.4339842,34.3893168 10.9130429,34.8689735 11.5051379,34.8689735 L12.1630212,34.8689735 C12.7549666,34.8689735 13.2341748,34.3893168 13.2341748,33.7970723 C13.2341748,33.2046783 12.7549666,32.7257691 12.1630212,32.7257691" id="Fill-22"></path>
                <path d="M16.1121301,32.7257691 L15.4542468,32.7257691 C14.8621518,32.7257691 14.3829437,33.2046783 14.3829437,33.7970723 C14.3829437,34.3893168 14.8621518,34.8689735 15.4542468,34.8689735 L16.1121301,34.8689735 C16.7040756,34.8689735 17.1831342,34.3893168 17.1831342,33.7970723 C17.1831342,33.2046783 16.7040756,32.7257691 16.1121301,32.7257691" id="Fill-24"></path>
                <path d="M20.0610896,32.7257691 L19.4032063,32.7257691 C18.8112608,32.7257691 18.3320526,33.2046783 18.3320526,33.7970723 C18.3320526,34.3893168 18.8112608,34.8689735 19.4032063,34.8689735 L20.0610896,34.8689735 C20.6531845,34.8689735 21.1322432,34.3893168 21.1322432,33.7970723 C21.1322432,33.2046783 20.6531845,32.7257691 20.0610896,32.7257691" id="Fill-26"></path>
                <path d="M24.0101985,32.7257691 L23.3523152,32.7257691 C22.7603698,32.7257691 22.2811616,33.2046783 22.2811616,33.7970723 C22.2811616,34.3893168 22.7603698,34.8689735 23.3523152,34.8689735 L24.0101985,34.8689735 C24.6022935,34.8689735 25.0813521,34.3893168 25.0813521,33.7970723 C25.0813521,33.2046783 24.6022935,32.7257691 24.0101985,32.7257691" id="Fill-28"></path>
                <path d="M27.9593075,32.7257691 L27.3014242,32.7257691 C26.7093292,32.7257691 26.230121,33.2046783 26.230121,33.7970723 C26.230121,34.3893168 26.7093292,34.8689735 27.3014242,34.8689735 L27.9593075,34.8689735 C28.5512529,34.8689735 29.0304611,34.3893168 29.0304611,33.7970723 C29.0304611,33.2046783 28.5512529,32.7257691 27.9593075,32.7257691" id="Fill-30"></path>
                <path d="M31.9084164,32.7257691 L31.2505331,32.7257691 C30.6584382,32.7257691 30.17923,33.2046783 30.17923,33.7970723 C30.17923,34.3893168 30.6584382,34.8689735 31.2505331,34.8689735 L31.9084164,34.8689735 C32.5003619,34.8689735 32.9794205,34.3893168 32.9794205,33.7970723 C32.9794205,33.2046783 32.5003619,32.7257691 31.9084164,32.7257691" id="Fill-32"></path>
                <path d="M35.8573908,32.7257691 L35.1995075,32.7257691 C34.6075621,32.7257691 34.1283539,33.2046783 34.1283539,33.7970723 C34.1283539,34.3893168 34.6075621,34.8689735 35.1995075,34.8689735 L35.8573908,34.8689735 C36.4494858,34.8689735 36.9285444,34.3893168 36.9285444,33.7970723 C36.9285444,33.2046783 36.4494858,32.7257691 35.8573908,32.7257691" id="Fill-34"></path>
                <path d="M39.8064998,32.7257691 L39.1486165,32.7257691 C38.5565215,32.7257691 38.0774629,33.2046783 38.0774629,33.7970723 C38.0774629,34.3893168 38.5565215,34.8689735 39.1486165,34.8689735 L39.8064998,34.8689735 C40.3985948,34.8689735 40.8776534,34.3893168 40.8776534,33.7970723 C40.8776534,33.2046783 40.3985948,32.7257691 39.8064998,32.7257691" id="Fill-36"></path>
            </g>
        </g>
    </g>
</svg>