<svg id="Layer_1" data-name="Layer 1" xmlns="http://www.w3.org/2000/svg" viewBox="0 0 1366 720"><defs><style>.cls-1{fill:#2b7ad8;}.cls-14,.cls-2{fill:#fff;}.cls-12,.cls-3,.cls-6{fill:none;stroke-width:3px;}.cls-3,.cls-6{stroke:#0c80f4;}.cls-12,.cls-14,.cls-3,.cls-6{stroke-miterlimit:10;}.cls-4{fill:#0c80f4;}.cls-5{fill:#27d798;}.cls-6{stroke-dasharray:3 3;}.cls-7{fill:#e8ebf0;}.cls-8{fill:#274382;}.cls-9{fill:#66287f;}.cls-10,.cls-11{fill:#0f6df7;}.cls-10{opacity:0.22;}.cls-11{opacity:0.11;}.cls-12{stroke:#2970d6;}.cls-13{fill:#f7bd6f;}.cls-14{stroke:#c6bfde;}</style></defs><rect class="cls-1" x="576" y="106" width="288" height="72" rx="8.3"/><path class="cls-2" d="M627.66,134.32v16.35h-2.42V134.32Z"/><path class="cls-2" d="M633.45,138.42v1.44a9.85,9.85,0,0,1,2.08-1,7,7,0,0,1,2.37-.45,3.82,3.82,0,0,1,2,.47,2.69,2.69,0,0,1,1.1,1.49,9.32,9.32,0,0,1,.34,2.78v7.52H639v-7.5a6.28,6.28,0,0,0-.17-1.61,1.49,1.49,0,0,0-.59-.89,2.15,2.15,0,0,0-1.24-.29h-.29a4,4,0,0,0-1.48.34,6.54,6.54,0,0,0-1.53.9v9h-2.36V138.42Z"/><path class="cls-2" d="M652.74,139a4.49,4.49,0,0,1,1.75,1.92,6.74,6.74,0,0,1,.65,3.13,7.42,7.42,0,0,1-.76,3.42,5.64,5.64,0,0,1-2.18,2.33,6.2,6.2,0,0,1-3.23.84,10.61,10.61,0,0,1-1.71-.15,14.08,14.08,0,0,1-1.62-.36,4.46,4.46,0,0,1-1-.37V132.93H647V138l-.08,1.72a4.83,4.83,0,0,1,1.36-1,4.48,4.48,0,0,1,2-.39A4.79,4.79,0,0,1,652.74,139Zm-.79,2.23a2.74,2.74,0,0,0-2.29-1,3.45,3.45,0,0,0-1.45.3,6,6,0,0,0-1.18.73v7.23a4.29,4.29,0,0,0,2.21.41,3.13,3.13,0,0,0,1.8-.54,3.52,3.52,0,0,0,1.25-1.58,6.38,6.38,0,0,0,.45-2.52A4.86,4.86,0,0,0,652,141.27Z"/><path class="cls-2" d="M657.86,141.17a4.89,4.89,0,0,1,2-2.06,5.79,5.79,0,0,1,2.88-.7,5.24,5.24,0,0,1,3.06.84,4.83,4.83,0,0,1,1.76,2.24,8.51,8.51,0,0,1,.56,3.16,6.87,6.87,0,0,1-.72,3.27,4.83,4.83,0,0,1-2,2.06,5.83,5.83,0,0,1-2.89.7,5.2,5.2,0,0,1-3-.84,4.83,4.83,0,0,1-1.76-2.24,8.51,8.51,0,0,1-.56-3.16A6.87,6.87,0,0,1,657.86,141.17Zm7.51,1.16a3.52,3.52,0,0,0-1-1.63,2.65,2.65,0,0,0-1.75-.59,2.62,2.62,0,0,0-2.28,1.09,5.34,5.34,0,0,0-.77,3.13,7.69,7.69,0,0,0,.34,2.38,3.76,3.76,0,0,0,1,1.67,2.48,2.48,0,0,0,1.73.62,2.6,2.6,0,0,0,2.28-1.13,5.53,5.53,0,0,0,.78-3.18A7.43,7.43,0,0,0,665.37,142.33Z"/><path class="cls-2" d="M680.41,138.42v12.26h-.92a2.33,2.33,0,0,1-.66-.07.59.59,0,0,1-.38-.27,1.1,1.1,0,0,1-.14-.61v-.3a9.85,9.85,0,0,1-1.93.88,6.48,6.48,0,0,1-2,.37,3.61,3.61,0,0,1-2.29-.63,3,3,0,0,1-1.07-1.73,11.76,11.76,0,0,1-.28-2.84v-7.06h2.36v7a7.64,7.64,0,0,0,.22,2.16,1.37,1.37,0,0,0,.68.9,3.31,3.31,0,0,0,1.34.21,4.69,4.69,0,0,0,1.46-.27,6,6,0,0,0,1.27-.57v-9.47Z"/><path class="cls-2" d="M685.93,138.42v1.44a9.85,9.85,0,0,1,2.08-1,7,7,0,0,1,2.37-.45,3.8,3.8,0,0,1,2,.47,2.69,2.69,0,0,1,1.1,1.49,9.32,9.32,0,0,1,.34,2.78v7.52h-2.36v-7.5a6.84,6.84,0,0,0-.16-1.61,1.55,1.55,0,0,0-.6-.89,2.15,2.15,0,0,0-1.24-.29h-.29a4,4,0,0,0-1.48.34,6.54,6.54,0,0,0-1.53.9v9h-2.36V138.42Z"/><path class="cls-2" d="M706.92,132.93v17.75h-1a2.4,2.4,0,0,1-.67-.07.66.66,0,0,1-.4-.27,1,1,0,0,1-.15-.61v-.44a4.77,4.77,0,0,1-1.37,1,5.09,5.09,0,0,1-4.45-.24,4.52,4.52,0,0,1-1.75-1.91,6.83,6.83,0,0,1-.65-3.15,7.41,7.41,0,0,1,.76-3.41,5.63,5.63,0,0,1,2.15-2.33,6.2,6.2,0,0,1,3.22-.83,6.73,6.73,0,0,1,2,.3l0-.66v-5.12Zm-7.27,14.89a2.73,2.73,0,0,0,2.28,1,3.69,3.69,0,0,0,1.46-.28,5.42,5.42,0,0,0,1.17-.66v-7.14a1.92,1.92,0,0,0-.86-.46,5.13,5.13,0,0,0-1.35-.15,3.12,3.12,0,0,0-1.79.54,3.55,3.55,0,0,0-1.25,1.59,6.38,6.38,0,0,0-.45,2.52A4.85,4.85,0,0,0,699.65,147.82Z"/><path class="cls-2" d="M733.61,138.87a2.65,2.65,0,0,1,1.13,1.47,8.62,8.62,0,0,1,.36,2.76v7.57h-2.37v-7.49a6.46,6.46,0,0,0-.17-1.65,1.37,1.37,0,0,0-.65-.87,2.86,2.86,0,0,0-1.41-.28,4.34,4.34,0,0,0-1.48.29,6,6,0,0,0-1.52.77,11.75,11.75,0,0,1,.1,1.66v7.57h-2.37v-7.49a6.46,6.46,0,0,0-.17-1.65,1.41,1.41,0,0,0-.66-.87,2.82,2.82,0,0,0-1.4-.28,4.16,4.16,0,0,0-1.48.33,5.9,5.9,0,0,0-1.53.91v9h-2.36V138.42h2.1l0,1.43a9.52,9.52,0,0,1,2-1,6.09,6.09,0,0,1,2.24-.45,4.84,4.84,0,0,1,2,.34,2.36,2.36,0,0,1,1.15,1.14,8.32,8.32,0,0,1,2.07-1,7.34,7.34,0,0,1,2.42-.44A3.9,3.9,0,0,1,733.61,138.87Z"/><path class="cls-2" d="M747.7,144.1a5.62,5.62,0,0,1-.1.8h-7.55s0,.12,0,.21c.12,2.52,1.36,3.78,3.74,3.78a8,8,0,0,0,1.63-.2,5.08,5.08,0,0,0,1.42-.46l.45,1.35a4.67,4.67,0,0,1-1.8.79,9.19,9.19,0,0,1-2.34.31,5.67,5.67,0,0,1-2.94-.73,4.63,4.63,0,0,1-1.85-2.12,8,8,0,0,1-.63-3.32,7.46,7.46,0,0,1,.63-3.14,4.9,4.9,0,0,1,1.85-2.17,5.4,5.4,0,0,1,3-.79,5,5,0,0,1,2.24.5,3.89,3.89,0,0,1,1.62,1.5,4.93,4.93,0,0,1,.65,2.41C747.72,143.37,747.71,143.79,747.7,144.1Zm-2.17-1.23a3.35,3.35,0,0,0-.56-2,2.16,2.16,0,0,0-1.89-.77,2.75,2.75,0,0,0-2,.76,4,4,0,0,0-1,2.48h5.39C745.52,143.12,745.53,143,745.53,142.87Z"/><path class="cls-2" d="M750.84,148.39a8.18,8.18,0,0,0,1.28.38,7.23,7.23,0,0,0,1.45.16,2.85,2.85,0,0,0,1.62-.39,1.23,1.23,0,0,0,.56-1.07,1.36,1.36,0,0,0-.64-1.13,9.06,9.06,0,0,0-1.88-1,7.36,7.36,0,0,1-2.52-1.56,3.06,3.06,0,0,1-.9-2.26,2.55,2.55,0,0,1,.59-1.72,3.54,3.54,0,0,1,1.58-1.06,6.92,6.92,0,0,1,2.26-.35,7.88,7.88,0,0,1,1.85.21,6.52,6.52,0,0,1,1.25.42L757,140.9a2.79,2.79,0,0,0-1.06-.52,5.54,5.54,0,0,0-1.58-.23,3.45,3.45,0,0,0-1.72.35,1.09,1.09,0,0,0-.6,1,1.5,1.5,0,0,0,.27.9,2.57,2.57,0,0,0,.78.66,11.91,11.91,0,0,0,1.33.6,8.87,8.87,0,0,1,2.57,1.49,2.79,2.79,0,0,1,1,2.23,3.07,3.07,0,0,1-.52,1.81,3.13,3.13,0,0,1-1.49,1.13,6.21,6.21,0,0,1-2.31.39,9.86,9.86,0,0,1-2.31-.27,4.71,4.71,0,0,1-1.58-.6l.35-1.76A4,4,0,0,0,750.84,148.39Z"/><path class="cls-2" d="M761,148.39a8,8,0,0,0,1.27.38,7.31,7.31,0,0,0,1.45.16,2.81,2.81,0,0,0,1.62-.39,1.22,1.22,0,0,0,.57-1.07,1.39,1.39,0,0,0-.64-1.13,9.46,9.46,0,0,0-1.89-1,7.56,7.56,0,0,1-2.52-1.56,3.05,3.05,0,0,1-.89-2.26,2.59,2.59,0,0,1,.58-1.72,3.59,3.59,0,0,1,1.58-1.06,6.92,6.92,0,0,1,2.26-.35,7.91,7.91,0,0,1,1.86.21,6.79,6.79,0,0,1,1.25.42l-.39,1.86a2.88,2.88,0,0,0-1.06-.52,5.59,5.59,0,0,0-1.58-.23,3.5,3.5,0,0,0-1.73.35,1.08,1.08,0,0,0-.59,1,1.5,1.5,0,0,0,.27.9,2.35,2.35,0,0,0,.78.66,12.52,12.52,0,0,0,1.32.6,8.8,8.8,0,0,1,2.58,1.49,2.82,2.82,0,0,1,1,2.23,3,3,0,0,1-2,2.94,6.12,6.12,0,0,1-2.3.39,9.89,9.89,0,0,1-2.32-.27,4.9,4.9,0,0,1-1.58-.6l.35-1.76A3.87,3.87,0,0,0,761,148.39Z"/><path class="cls-2" d="M777.51,138.72a2.67,2.67,0,0,1,1.47,1.15,4.36,4.36,0,0,1,.53,2.34v8.47h-1a2.75,2.75,0,0,1-.73-.07.64.64,0,0,1-.39-.3,1.57,1.57,0,0,1-.13-.75v-.09a4.51,4.51,0,0,1-1.48.85,5.45,5.45,0,0,1-2,.36,4.32,4.32,0,0,1-1.94-.42,3.1,3.1,0,0,1-1.33-1.2,3.42,3.42,0,0,1-.48-1.83,3.3,3.3,0,0,1,.63-2,4.07,4.07,0,0,1,1.75-1.31,11.43,11.43,0,0,1,2.26-.6,15.91,15.91,0,0,1,2.41-.19V142a2,2,0,0,0-.28-1.16,1.32,1.32,0,0,0-.82-.52,6.6,6.6,0,0,0-1.51-.14,6.84,6.84,0,0,0-1.19.13,10.52,10.52,0,0,0-1.26.32,3.87,3.87,0,0,0-.86.37l-.58-1.47a5.64,5.64,0,0,1,1-.44,13.21,13.21,0,0,1,1.68-.48,8.25,8.25,0,0,1,1.81-.21A7.59,7.59,0,0,1,777.51,138.72Zm-1.9,10.05a6.13,6.13,0,0,0,1-.36,1.91,1.91,0,0,0,.56-.36v-3.43a11.73,11.73,0,0,0-1.77.15,5.78,5.78,0,0,0-1.59.44,3.1,3.1,0,0,0-1,.73,1.66,1.66,0,0,0-.35,1.09c0,1.26.7,1.89,2.12,1.89A4.1,4.1,0,0,0,775.61,148.77Z"/><path class="cls-2" d="M793.62,140.38h-2.24a3.81,3.81,0,0,1,.55,2,3.67,3.67,0,0,1-.65,2.18,4.05,4.05,0,0,1-1.76,1.38,6.51,6.51,0,0,1-2.52.46,5.57,5.57,0,0,1-1.34-.14,1.71,1.71,0,0,0-.49.57,1.43,1.43,0,0,0-.19.71,1.25,1.25,0,0,0,.3,1,1.69,1.69,0,0,0,1.09.27h2.23a5.07,5.07,0,0,1,3.52.94,3.18,3.18,0,0,1,1,2.43,3,3,0,0,1-.8,2.06,5.14,5.14,0,0,1-2.14,1.39,8.83,8.83,0,0,1-3,.48,6.91,6.91,0,0,1-3.78-.88,3,3,0,0,1-1.36-2.66,2.26,2.26,0,0,1,.51-1.46,4,4,0,0,1,1.2-1,2,2,0,0,1-.94-1.82,2.58,2.58,0,0,1,.4-1.32,3.79,3.79,0,0,1,1.1-1.16,3.9,3.9,0,0,1-1.55-1.37,3.42,3.42,0,0,1-.56-1.94,3.85,3.85,0,0,1,.64-2.27,3.78,3.78,0,0,1,1.77-1.36,6.8,6.8,0,0,1,2.56-.45,5.6,5.6,0,0,1,3,.74,3.69,3.69,0,0,1,1-.53,4,4,0,0,1,1.26-.21h1.19Zm-8.48,10.21a2.38,2.38,0,0,0-.58.7,2.09,2.09,0,0,0-.21,1A2,2,0,0,0,785,154a3.55,3.55,0,0,0,2.2.54,7.29,7.29,0,0,0,1.8-.21,3.37,3.37,0,0,0,1.32-.61,1.24,1.24,0,0,0,.49-1,2.19,2.19,0,0,0-.25-1.12,1.59,1.59,0,0,0-.91-.66,5.77,5.77,0,0,0-1.87-.23h-1.09A13.47,13.47,0,0,1,785.14,150.59Zm3.79-6.27a2.32,2.32,0,0,0,.64-1.87,2.51,2.51,0,0,0-.6-1.82,2.42,2.42,0,0,0-1.81-.62,3.09,3.09,0,0,0-1.89.53,2.14,2.14,0,0,0-.71,1.86,2.53,2.53,0,0,0,.61,1.76,2.41,2.41,0,0,0,1.88.7A2.83,2.83,0,0,0,788.93,144.32Z"/><path class="cls-2" d="M804.74,144.1a5.62,5.62,0,0,1-.1.8h-7.55a1.22,1.22,0,0,1,0,.21q.18,3.78,3.74,3.78a8,8,0,0,0,1.63-.2,5.08,5.08,0,0,0,1.42-.46l.45,1.35a4.62,4.62,0,0,1-1.79.79,9.32,9.32,0,0,1-2.35.31,5.67,5.67,0,0,1-2.94-.73,4.63,4.63,0,0,1-1.85-2.12,8,8,0,0,1-.63-3.32,7.46,7.46,0,0,1,.63-3.14,5,5,0,0,1,1.86-2.17,5.36,5.36,0,0,1,3-.79,5,5,0,0,1,2.24.5,3.83,3.83,0,0,1,1.62,1.5,4.93,4.93,0,0,1,.65,2.41C804.76,143.37,804.75,143.79,804.74,144.1Zm-2.17-1.23a3.35,3.35,0,0,0-.56-2,2.16,2.16,0,0,0-1.89-.77,2.71,2.71,0,0,0-2,.76,4,4,0,0,0-1,2.48h5.4C802.56,143.12,802.57,143,802.57,142.87Z"/><path class="cls-2" d="M807.88,148.39a8.18,8.18,0,0,0,1.28.38,7.23,7.23,0,0,0,1.45.16,2.85,2.85,0,0,0,1.62-.39,1.23,1.23,0,0,0,.56-1.07,1.36,1.36,0,0,0-.64-1.13,9.33,9.33,0,0,0-1.88-1,7.36,7.36,0,0,1-2.52-1.56,3.06,3.06,0,0,1-.9-2.26,2.55,2.55,0,0,1,.59-1.72,3.54,3.54,0,0,1,1.58-1.06,6.92,6.92,0,0,1,2.26-.35,7.88,7.88,0,0,1,1.85.21,6.52,6.52,0,0,1,1.25.42L814,140.9a2.79,2.79,0,0,0-1.06-.52,5.59,5.59,0,0,0-1.58-.23,3.45,3.45,0,0,0-1.72.35,1.09,1.09,0,0,0-.6,1,1.5,1.5,0,0,0,.27.9,2.57,2.57,0,0,0,.78.66,12.52,12.52,0,0,0,1.32.6,8.8,8.8,0,0,1,2.58,1.49,2.79,2.79,0,0,1,1,2.23,3.07,3.07,0,0,1-.52,1.81,3.13,3.13,0,0,1-1.49,1.13,6.21,6.21,0,0,1-2.31.39,9.86,9.86,0,0,1-2.31-.27,4.88,4.88,0,0,1-1.59-.6l.36-1.76A3.71,3.71,0,0,0,807.88,148.39Z"/><line class="cls-3" x1="496" y1="324.5" x2="368.61" y2="324.5"/><polygon class="cls-4" points="370.36 318.52 360 324.5 370.36 330.48 370.36 318.52"/><rect class="cls-5" x="432.89" y="396.68" width="216.11" height="72.32" rx="9.9"/><path class="cls-2" d="M476,425.45h2.39v8.88a10.25,10.25,0,0,0,.45,3.41,3.06,3.06,0,0,0,1.31,1.71,4.29,4.29,0,0,0,2.18.49,3.64,3.64,0,0,0,2-.49,3.23,3.23,0,0,0,1.21-1.73,10.87,10.87,0,0,0,.42-3.39v-8.88h2.39v9.49a7.62,7.62,0,0,1-1.52,5.11,5.67,5.67,0,0,1-4.54,1.76q-3.28,0-4.77-1.75a7.68,7.68,0,0,1-1.48-5.15Z"/><path class="cls-2" d="M499.68,430.18a4.46,4.46,0,0,1,1.75,1.91,6.86,6.86,0,0,1,.66,3.15,7.51,7.51,0,0,1-.76,3.41,5.66,5.66,0,0,1-2.16,2.33,6.64,6.64,0,0,1-5.22.52l0,1.68v4.06h-2.36V429.55h2.13V431a5.61,5.61,0,0,1,1.4-1,4.52,4.52,0,0,1,2.11-.42A4.68,4.68,0,0,1,499.68,430.18Zm-.79,2.22a2.75,2.75,0,0,0-2.29-1,3.44,3.44,0,0,0-1.44.31,5.17,5.17,0,0,0-1.18.75v7.11a2.08,2.08,0,0,0,.86.4,6.26,6.26,0,0,0,1.34.12,3.16,3.16,0,0,0,1.81-.54,3.45,3.45,0,0,0,1.24-1.58,6.4,6.4,0,0,0,.45-2.53A4.85,4.85,0,0,0,498.89,432.4Z"/><path class="cls-2" d="M514.55,424.07v17.74h-1a2.94,2.94,0,0,1-.67-.06.7.7,0,0,1-.4-.27,1,1,0,0,1-.15-.61v-.44a4.93,4.93,0,0,1-1.37,1,4.48,4.48,0,0,1-2,.4,4.72,4.72,0,0,1-2.42-.63,4.49,4.49,0,0,1-1.75-1.92,6.79,6.79,0,0,1-.65-3.14,7.35,7.35,0,0,1,.76-3.41,5.57,5.57,0,0,1,2.15-2.33,6.11,6.11,0,0,1,3.22-.84,6.73,6.73,0,0,1,2,.3l0-.65v-5.12ZM507.28,439a2.73,2.73,0,0,0,2.28,1,3.69,3.69,0,0,0,1.46-.28,5.42,5.42,0,0,0,1.17-.66v-7.13a1.94,1.94,0,0,0-.86-.47,5.13,5.13,0,0,0-1.35-.15,3.12,3.12,0,0,0-1.79.54,3.55,3.55,0,0,0-1.25,1.59,6.38,6.38,0,0,0-.45,2.52A4.83,4.83,0,0,0,507.28,439Z"/><path class="cls-2" d="M524.53,429.86A2.7,2.7,0,0,1,526,431a4.41,4.41,0,0,1,.53,2.34v8.47h-1a3.36,3.36,0,0,1-.73-.06.66.66,0,0,1-.38-.3,1.49,1.49,0,0,1-.14-.76v-.08a4.58,4.58,0,0,1-1.48.85,5.66,5.66,0,0,1-2,.35,4.32,4.32,0,0,1-1.94-.42,3.2,3.2,0,0,1-1.33-1.19,3.43,3.43,0,0,1-.48-1.84,3.3,3.3,0,0,1,.63-2A4.07,4.07,0,0,1,519.5,435a10.73,10.73,0,0,1,2.27-.59,15.74,15.74,0,0,1,2.4-.2v-1.11a2,2,0,0,0-.28-1.16,1.37,1.37,0,0,0-.82-.52,6.64,6.64,0,0,0-1.51-.13,6.06,6.06,0,0,0-1.19.13,8.91,8.91,0,0,0-1.26.32,3.94,3.94,0,0,0-.86.36l-.58-1.47a6.49,6.49,0,0,1,1-.44,13.21,13.21,0,0,1,1.68-.48,8.25,8.25,0,0,1,1.81-.21A7.56,7.56,0,0,1,524.53,429.86Zm-1.9,10a5.3,5.3,0,0,0,1-.36,1.91,1.91,0,0,0,.56-.36v-3.43a11.73,11.73,0,0,0-1.77.15,5.89,5.89,0,0,0-1.59.44,3.1,3.1,0,0,0-1,.73,1.66,1.66,0,0,0-.35,1.09c0,1.26.71,1.89,2.12,1.89A4.1,4.1,0,0,0,522.63,439.9Z"/><path class="cls-2" d="M530.24,431.34h-1.59v-1.28L529,430l.73-.24a1.3,1.3,0,0,0,.41-.28,1.14,1.14,0,0,0,.29-.47c.11-.29.26-.8.47-1.55l.24-.81h1.41v2.95h3.46v1.79h-3.46v6.08a10.6,10.6,0,0,0,.1,1.7.92.92,0,0,0,.36.65,2,2,0,0,0,.9.15,5.77,5.77,0,0,0,1.12-.14,4.25,4.25,0,0,0,1-.31l.41,1.34a5.22,5.22,0,0,1-1.51.7,6.39,6.39,0,0,1-1.87.3,3,3,0,0,1-2.09-.66,3.14,3.14,0,0,1-.74-2.4Z"/><path class="cls-2" d="M547.56,435.23a4.47,4.47,0,0,1-.1.8h-7.55a1.28,1.28,0,0,1,0,.22q.18,3.78,3.74,3.78a8.14,8.14,0,0,0,1.63-.21,4.77,4.77,0,0,0,1.42-.46l.45,1.36a4.77,4.77,0,0,1-1.79.79,9.63,9.63,0,0,1-2.34.3,5.59,5.59,0,0,1-2.95-.73,4.59,4.59,0,0,1-1.84-2.11,7.85,7.85,0,0,1-.64-3.33,7.49,7.49,0,0,1,.63-3.14,5,5,0,0,1,1.86-2.16,5.37,5.37,0,0,1,3-.8,5.09,5.09,0,0,1,2.25.5,3.94,3.94,0,0,1,1.61,1.5,4.82,4.82,0,0,1,.65,2.41C547.58,434.5,547.57,434.93,547.56,435.23ZM545.39,434a3.39,3.39,0,0,0-.55-2,2.19,2.19,0,0,0-1.9-.77,2.75,2.75,0,0,0-2,.77,4,4,0,0,0-1,2.47h5.39C545.38,434.26,545.39,434.1,545.39,434Z"/><path class="cls-2" d="M558,439.53a9.09,9.09,0,0,0,1.28.37,6.51,6.51,0,0,0,1.45.16,2.79,2.79,0,0,0,1.61-.39,1.21,1.21,0,0,0,.57-1.07,1.35,1.35,0,0,0-.64-1.12,9,9,0,0,0-1.89-1,7.73,7.73,0,0,1-2.52-1.57,3.09,3.09,0,0,1-.89-2.26,2.59,2.59,0,0,1,.58-1.71,3.49,3.49,0,0,1,1.59-1.06,6.6,6.6,0,0,1,2.25-.36,7.9,7.9,0,0,1,1.86.22,5.36,5.36,0,0,1,1.25.42l-.39,1.85a2.66,2.66,0,0,0-1.06-.51,5.26,5.26,0,0,0-1.58-.24,3.4,3.4,0,0,0-1.73.36,1.1,1.1,0,0,0-.59,1,1.47,1.47,0,0,0,.27.89,2.46,2.46,0,0,0,.78.66,12.32,12.32,0,0,0,1.32.61,8.79,8.79,0,0,1,2.58,1.48,2.84,2.84,0,0,1,1,2.24,3,3,0,0,1-.52,1.8,3.26,3.26,0,0,1-1.49,1.14,6.42,6.42,0,0,1-2.31.38,9.86,9.86,0,0,1-2.31-.27,4.88,4.88,0,0,1-1.59-.6l.36-1.76A3.89,3.89,0,0,0,558,439.53Z"/><path class="cls-2" d="M568.28,431.34h-1.59v-1.28l.38-.11c.33-.1.58-.18.73-.24a1.34,1.34,0,0,0,.42-.28,1.13,1.13,0,0,0,.28-.47c.11-.29.27-.8.47-1.55l.24-.81h1.42v2.95h3.46v1.79h-3.46v6.08a9.52,9.52,0,0,0,.1,1.7.86.86,0,0,0,.36.65,1.89,1.89,0,0,0,.89.15,5.86,5.86,0,0,0,1.13-.14,4.25,4.25,0,0,0,1-.31l.41,1.34a5.48,5.48,0,0,1-1.51.7,6.45,6.45,0,0,1-1.88.3,3,3,0,0,1-2.08-.66,3.1,3.1,0,0,1-.74-2.4Z"/><path class="cls-2" d="M583.38,429.86a2.7,2.7,0,0,1,1.47,1.14,4.41,4.41,0,0,1,.53,2.34v8.47h-1a3.36,3.36,0,0,1-.73-.06.72.72,0,0,1-.39-.3,1.6,1.6,0,0,1-.14-.76v-.08a4.52,4.52,0,0,1-1.47.85,5.66,5.66,0,0,1-2,.35,4.32,4.32,0,0,1-1.94-.42,3.14,3.14,0,0,1-1.33-1.19,3.43,3.43,0,0,1-.48-1.84,3.3,3.3,0,0,1,.63-2,4.07,4.07,0,0,1,1.75-1.31,10.79,10.79,0,0,1,2.26-.59,16,16,0,0,1,2.4-.2v-1.11a2,2,0,0,0-.27-1.16,1.4,1.4,0,0,0-.82-.52,6.73,6.73,0,0,0-1.52-.13,6,6,0,0,0-1.18.13,8.91,8.91,0,0,0-1.26.32,3.94,3.94,0,0,0-.86.36l-.58-1.47a6.49,6.49,0,0,1,1-.44,13.21,13.21,0,0,1,1.68-.48,8.25,8.25,0,0,1,1.81-.21A7.56,7.56,0,0,1,583.38,429.86Zm-1.9,10a5.3,5.3,0,0,0,1-.36,1.82,1.82,0,0,0,.55-.36v-3.43a11.72,11.72,0,0,0-1.76.15,5.78,5.78,0,0,0-1.59.44,3.1,3.1,0,0,0-1,.73,1.66,1.66,0,0,0-.35,1.09c0,1.26.7,1.89,2.12,1.89A4.1,4.1,0,0,0,581.48,439.9Z"/><path class="cls-2" d="M589.09,431.34H587.5v-1.28l.39-.11.73-.24a1.3,1.3,0,0,0,.41-.28,1.26,1.26,0,0,0,.29-.47c.1-.29.26-.8.47-1.55l.24-.81h1.41v2.95h3.46v1.79h-3.46v6.08a10.6,10.6,0,0,0,.1,1.7.86.86,0,0,0,.36.65,1.94,1.94,0,0,0,.9.15,5.86,5.86,0,0,0,1.12-.14,4.25,4.25,0,0,0,1-.31l.41,1.34a5.22,5.22,0,0,1-1.51.7,6.44,6.44,0,0,1-1.87.3,3,3,0,0,1-2.09-.66,3.14,3.14,0,0,1-.74-2.4Z"/><path class="cls-2" d="M606.41,435.23a5.62,5.62,0,0,1-.1.8h-7.55a1.28,1.28,0,0,1,0,.22Q599,440,602.51,440a8.14,8.14,0,0,0,1.63-.21,4.77,4.77,0,0,0,1.42-.46l.45,1.36a4.77,4.77,0,0,1-1.79.79,9.69,9.69,0,0,1-2.34.3,5.59,5.59,0,0,1-3-.73,4.66,4.66,0,0,1-1.85-2.11,8,8,0,0,1-.63-3.33,7.49,7.49,0,0,1,.63-3.14,5,5,0,0,1,1.86-2.16,5.37,5.37,0,0,1,3-.8,5,5,0,0,1,2.24.5,3.9,3.9,0,0,1,1.62,1.5,4.93,4.93,0,0,1,.65,2.41C606.43,434.5,606.42,434.93,606.41,435.23ZM604.24,434a3.46,3.46,0,0,0-.55-2,2.2,2.2,0,0,0-1.9-.77,2.73,2.73,0,0,0-2,.77,3.9,3.9,0,0,0-1,2.47h5.39C604.23,434.26,604.24,434.1,604.24,434Z"/><line class="cls-3" x1="71" y1="539.5" x2="6.61" y2="539.5"/><polygon class="cls-4" points="8.36 533.52 -2 539.5 8.36 545.48 8.36 533.52"/><line class="cls-6" x1="215.5" y1="360" x2="215.5" y2="495.39"/><polygon class="cls-4" points="209.51 493.64 215.5 504 221.48 493.64 209.51 493.64"/><path class="cls-6" d="M249.5,360v69.67a3.31,3.31,0,0,0,3.33,3.32l172.06-.47"/><polygon class="cls-4" points="423.15 438.51 433.5 432.5 423.12 426.55 423.15 438.51"/><rect class="cls-1" x="72" y="503" width="288" height="72" rx="8.3"/><path class="cls-2" d="M138.28,530.78a6.81,6.81,0,0,0,1.73.7,7.82,7.82,0,0,0,2.13.3,4.47,4.47,0,0,0,2.42-.54,1.87,1.87,0,0,0,.83-1.68,2,2,0,0,0-.4-1.29,3.78,3.78,0,0,0-1.11-1c-.48-.28-1.18-.64-2.11-1.08a10,10,0,0,1-2.94-2,3.85,3.85,0,0,1-1.15-2.77,3.57,3.57,0,0,1,.77-2.37,4.29,4.29,0,0,1,2-1.33,8.15,8.15,0,0,1,2.66-.41,9.12,9.12,0,0,1,2.31.25,5.29,5.29,0,0,1,1.5.6l-.49,1.94a6,6,0,0,0-1.43-.68,6.28,6.28,0,0,0-1.92-.23,5.32,5.32,0,0,0-1.52.21,2.54,2.54,0,0,0-1.15.65,1.45,1.45,0,0,0-.44,1.09,2.4,2.4,0,0,0,.31,1.28,2.86,2.86,0,0,0,1,.93,20,20,0,0,0,2,1.1,21.11,21.11,0,0,1,2.3,1.31,6,6,0,0,1,1.58,1.51,3.41,3.41,0,0,1,.64,2.06,4.06,4.06,0,0,1-.68,2.41,4,4,0,0,1-1.91,1.46,7.77,7.77,0,0,1-2.85.48,12.24,12.24,0,0,1-2-.15,11.19,11.19,0,0,1-1.64-.37,4,4,0,0,1-1-.42Z"/><path class="cls-2" d="M159.55,527.1a5.62,5.62,0,0,1-.1.8H151.9a1.22,1.22,0,0,1,0,.21q.18,3.78,3.74,3.78a8,8,0,0,0,1.63-.2,5.08,5.08,0,0,0,1.42-.46l.45,1.35a4.62,4.62,0,0,1-1.79.79,9.32,9.32,0,0,1-2.35.31,5.67,5.67,0,0,1-2.94-.73,4.69,4.69,0,0,1-1.85-2.12,8,8,0,0,1-.63-3.32,7.46,7.46,0,0,1,.63-3.14,5,5,0,0,1,1.86-2.17,5.36,5.36,0,0,1,3-.79,5,5,0,0,1,2.24.5,3.83,3.83,0,0,1,1.62,1.5,4.93,4.93,0,0,1,.65,2.41C159.57,526.37,159.56,526.79,159.55,527.1Zm-2.17-1.23a3.35,3.35,0,0,0-.56-2,2.14,2.14,0,0,0-1.89-.77,2.71,2.71,0,0,0-2,.76,4,4,0,0,0-1,2.48h5.4C157.37,526.12,157.38,526,157.38,525.87Z"/><path class="cls-2" d="M164.43,521.42v1.44a9.85,9.85,0,0,1,2.08-1,6.88,6.88,0,0,1,2.36-.45,3.8,3.8,0,0,1,2,.47,2.65,2.65,0,0,1,1.1,1.49,9,9,0,0,1,.34,2.78v7.52H170v-7.5a6.34,6.34,0,0,0-.16-1.61,1.58,1.58,0,0,0-.59-.89,2.18,2.18,0,0,0-1.25-.29h-.29a3.86,3.86,0,0,0-1.47.34,6.41,6.41,0,0,0-1.54.9v9h-2.36V521.42Z"/><path class="cls-2" d="M185.41,515.93v17.75h-1a2.45,2.45,0,0,1-.67-.07.66.66,0,0,1-.4-.27,1.1,1.1,0,0,1-.14-.61v-.44a5,5,0,0,1-1.38,1,4.58,4.58,0,0,1-2,.4,4.68,4.68,0,0,1-2.42-.64,4.44,4.44,0,0,1-1.74-1.91A6.83,6.83,0,0,1,175,528a7.41,7.41,0,0,1,.76-3.41,5.66,5.66,0,0,1,2.16-2.33,6.16,6.16,0,0,1,3.21-.83,6.68,6.68,0,0,1,2,.3l0-.66v-5.12Zm-7.26,14.89a2.71,2.71,0,0,0,2.28,1,3.64,3.64,0,0,0,1.45-.28,5.42,5.42,0,0,0,1.17-.66v-7.14a1.87,1.87,0,0,0-.86-.46,5.11,5.11,0,0,0-1.34-.15,3.13,3.13,0,0,0-1.8.54,3.54,3.54,0,0,0-1.24,1.59,6.38,6.38,0,0,0-.45,2.52A4.85,4.85,0,0,0,178.15,530.82Z"/><path class="cls-2" d="M196,524.17a5,5,0,0,1,2-2.06,5.85,5.85,0,0,1,2.88-.7,5.21,5.21,0,0,1,3.06.84,4.83,4.83,0,0,1,1.76,2.24,8.51,8.51,0,0,1,.56,3.16,6.87,6.87,0,0,1-.72,3.27,4.83,4.83,0,0,1-2,2.06,5.81,5.81,0,0,1-2.89.7,5.23,5.23,0,0,1-3-.84,4.83,4.83,0,0,1-1.76-2.24,8.51,8.51,0,0,1-.56-3.16A6.87,6.87,0,0,1,196,524.17Zm7.52,1.16a3.54,3.54,0,0,0-1-1.63,2.63,2.63,0,0,0-1.75-.59,2.6,2.6,0,0,0-2.27,1.09,5.34,5.34,0,0,0-.78,3.13,7.69,7.69,0,0,0,.34,2.38,3.76,3.76,0,0,0,1,1.67,2.5,2.5,0,0,0,1.73.62,2.6,2.6,0,0,0,2.28-1.13,5.53,5.53,0,0,0,.79-3.18A7.72,7.72,0,0,0,203.5,525.33Z"/><path class="cls-2" d="M218.53,521.42v12.26h-.91a2.45,2.45,0,0,1-.67-.07.62.62,0,0,1-.38-.27,1.1,1.1,0,0,1-.14-.61v-.3a9.75,9.75,0,0,1-1.92.88,6.59,6.59,0,0,1-2,.37,3.63,3.63,0,0,1-2.29-.63,3,3,0,0,1-1.07-1.73,11.76,11.76,0,0,1-.28-2.84v-7.06h2.36v7a8,8,0,0,0,.22,2.16,1.4,1.4,0,0,0,.68.9,3.33,3.33,0,0,0,1.35.21,4.63,4.63,0,0,0,1.45-.27,6.31,6.31,0,0,0,1.28-.57v-9.47Z"/><path class="cls-2" d="M222.43,523.2h-1.59v-1.27l.39-.12.73-.24a1.13,1.13,0,0,0,.41-.27,1.4,1.4,0,0,0,.29-.48c.1-.28.26-.8.47-1.54l.24-.81h1.41v2.95h3.46v1.78h-3.46v6.09a10.6,10.6,0,0,0,.1,1.7.89.89,0,0,0,.36.65,1.94,1.94,0,0,0,.9.15,5.17,5.17,0,0,0,1.12-.15,4.94,4.94,0,0,0,1-.3l.41,1.34a5,5,0,0,1-1.51.69,6.1,6.1,0,0,1-1.87.31,3,3,0,0,1-2.09-.66,3.14,3.14,0,0,1-.74-2.4Z"/><path class="cls-2" d="M238.78,522a4.49,4.49,0,0,1,1.75,1.92,6.74,6.74,0,0,1,.66,3.13,7.42,7.42,0,0,1-.77,3.42,5.58,5.58,0,0,1-2.18,2.33,6.15,6.15,0,0,1-3.23.84,10.39,10.39,0,0,1-1.7-.15,13.82,13.82,0,0,1-1.63-.36,4.69,4.69,0,0,1-1-.37V515.93h2.37V521l-.09,1.72a4.83,4.83,0,0,1,1.36-1,4.51,4.51,0,0,1,2-.39A4.79,4.79,0,0,1,238.78,522Zm-.79,2.23a2.74,2.74,0,0,0-2.29-1,3.45,3.45,0,0,0-1.45.3,5.66,5.66,0,0,0-1.17.73v7.23a4.25,4.25,0,0,0,2.2.41,3.13,3.13,0,0,0,1.8-.54,3.52,3.52,0,0,0,1.25-1.58,6.38,6.38,0,0,0,.45-2.52A4.79,4.79,0,0,0,238,524.27Z"/><path class="cls-2" d="M243.9,524.17a5,5,0,0,1,2-2.06,5.85,5.85,0,0,1,2.88-.7,5.21,5.21,0,0,1,3.06.84,4.83,4.83,0,0,1,1.76,2.24,8.51,8.51,0,0,1,.56,3.16,6.87,6.87,0,0,1-.72,3.27,4.83,4.83,0,0,1-2,2.06,5.81,5.81,0,0,1-2.89.7,5.23,5.23,0,0,1-3.05-.84,4.83,4.83,0,0,1-1.76-2.24,8.51,8.51,0,0,1-.56-3.16A6.87,6.87,0,0,1,243.9,524.17Zm7.52,1.16a3.54,3.54,0,0,0-1-1.63,2.63,2.63,0,0,0-1.75-.59,2.6,2.6,0,0,0-2.27,1.09,5.34,5.34,0,0,0-.78,3.13,7.69,7.69,0,0,0,.34,2.38,3.76,3.76,0,0,0,1,1.67,2.5,2.5,0,0,0,1.73.62,2.6,2.6,0,0,0,2.28-1.13,5.53,5.53,0,0,0,.79-3.18A7.72,7.72,0,0,0,251.42,525.33Z"/><path class="cls-2" d="M266.45,521.42v12.26h-.91a2.45,2.45,0,0,1-.67-.07.62.62,0,0,1-.38-.27,1.1,1.1,0,0,1-.14-.61v-.3a9.75,9.75,0,0,1-1.92.88,6.59,6.59,0,0,1-2,.37,3.63,3.63,0,0,1-2.29-.63,3,3,0,0,1-1.07-1.73,11.76,11.76,0,0,1-.28-2.84v-7.06h2.36v7a8,8,0,0,0,.22,2.16,1.4,1.4,0,0,0,.68.9,3.33,3.33,0,0,0,1.35.21,4.63,4.63,0,0,0,1.45-.27,6.31,6.31,0,0,0,1.28-.57v-9.47Z"/><path class="cls-2" d="M272,521.42v1.44a9.75,9.75,0,0,1,2.07-1,7,7,0,0,1,2.37-.45,3.8,3.8,0,0,1,2,.47,2.69,2.69,0,0,1,1.1,1.49,9,9,0,0,1,.34,2.78v7.52h-2.36v-7.5a6.34,6.34,0,0,0-.16-1.61,1.58,1.58,0,0,0-.59-.89,2.18,2.18,0,0,0-1.25-.29h-.29a4,4,0,0,0-1.48.34,6.54,6.54,0,0,0-1.53.9v9h-2.36V521.42Z"/><path class="cls-2" d="M293,515.93v17.75h-1a2.45,2.45,0,0,1-.67-.07.66.66,0,0,1-.4-.27,1.1,1.1,0,0,1-.14-.61v-.44a5,5,0,0,1-1.38,1,4.58,4.58,0,0,1-2,.4,4.66,4.66,0,0,1-2.42-.64,4.52,4.52,0,0,1-1.75-1.91,7,7,0,0,1-.65-3.15,7.41,7.41,0,0,1,.76-3.41,5.66,5.66,0,0,1,2.16-2.33,6.16,6.16,0,0,1,3.21-.83,6.68,6.68,0,0,1,2,.3l0-.66v-5.12Zm-7.27,14.89a2.74,2.74,0,0,0,2.29,1,3.64,3.64,0,0,0,1.45-.28,5.42,5.42,0,0,0,1.17-.66v-7.14a1.87,1.87,0,0,0-.86-.46,5.11,5.11,0,0,0-1.34-.15,3.13,3.13,0,0,0-1.8.54,3.54,3.54,0,0,0-1.24,1.59,6.38,6.38,0,0,0-.45,2.52A4.91,4.91,0,0,0,285.69,530.82Z"/><path class="cls-2" d="M175.77,548.27a2.63,2.63,0,0,1,1.12,1.47,8.54,8.54,0,0,1,.36,2.76v7.57h-2.36v-7.49a6.46,6.46,0,0,0-.17-1.65,1.46,1.46,0,0,0-.66-.88,2.94,2.94,0,0,0-1.41-.27,4.38,4.38,0,0,0-1.48.29,6,6,0,0,0-1.51.77,13.61,13.61,0,0,1,.09,1.66v7.57h-2.36v-7.49a6,6,0,0,0-.18-1.65,1.46,1.46,0,0,0-.66-.88,2.9,2.9,0,0,0-1.39-.27,4.12,4.12,0,0,0-1.48.33,5.9,5.9,0,0,0-1.53.91v9.05h-2.37V547.82h2.11v1.43a9.78,9.78,0,0,1,2-1,6.09,6.09,0,0,1,2.24-.45,4.77,4.77,0,0,1,2,.34,2.38,2.38,0,0,1,1.16,1.14,8.07,8.07,0,0,1,2.06-1,7.44,7.44,0,0,1,2.43-.44A3.9,3.9,0,0,1,175.77,548.27Z"/><path class="cls-2" d="M189.85,553.5a4.47,4.47,0,0,1-.1.8H182.2a1.22,1.22,0,0,1,0,.21q.18,3.78,3.74,3.78a8,8,0,0,0,1.63-.2,4.77,4.77,0,0,0,1.42-.46l.45,1.35a4.62,4.62,0,0,1-1.79.79,9.19,9.19,0,0,1-2.34.31,5.68,5.68,0,0,1-2.95-.73,4.61,4.61,0,0,1-1.84-2.12,7.8,7.8,0,0,1-.64-3.32,7.46,7.46,0,0,1,.63-3.14,5,5,0,0,1,1.86-2.17,5.36,5.36,0,0,1,3-.79,5.09,5.09,0,0,1,2.25.5,3.81,3.81,0,0,1,1.61,1.5,4.82,4.82,0,0,1,.65,2.41C189.87,552.77,189.86,553.2,189.85,553.5Zm-2.17-1.23a3.34,3.34,0,0,0-.55-2,2.16,2.16,0,0,0-1.9-.77,2.74,2.74,0,0,0-2,.76,4,4,0,0,0-1,2.48h5.39C187.67,552.52,187.68,552.37,187.68,552.27Z"/><path class="cls-2" d="M193,557.79a9,9,0,0,0,1.28.38,7.16,7.16,0,0,0,1.45.16,2.79,2.79,0,0,0,1.61-.39,1.22,1.22,0,0,0,.57-1.07,1.39,1.39,0,0,0-.64-1.13,9.46,9.46,0,0,0-1.89-1,7.56,7.56,0,0,1-2.52-1.56,3.05,3.05,0,0,1-.89-2.26,2.59,2.59,0,0,1,.58-1.72,3.57,3.57,0,0,1,1.59-1.06,6.81,6.81,0,0,1,2.25-.35,7.41,7.41,0,0,1,1.86.22,6,6,0,0,1,1.25.41l-.39,1.86a2.88,2.88,0,0,0-1.06-.52,5.59,5.59,0,0,0-1.58-.23,3.5,3.5,0,0,0-1.73.35,1.08,1.08,0,0,0-.59,1,1.5,1.5,0,0,0,.27.9,2.35,2.35,0,0,0,.78.66,10.76,10.76,0,0,0,1.32.6,8.94,8.94,0,0,1,2.58,1.49,2.82,2.82,0,0,1,1,2.23,3,3,0,0,1-2,2.94,6.12,6.12,0,0,1-2.3.39,10,10,0,0,1-2.32-.27,4.9,4.9,0,0,1-1.58-.6l.36-1.76A3.45,3.45,0,0,0,193,557.79Z"/><path class="cls-2" d="M203.14,557.79a9.42,9.42,0,0,0,1.28.38,7.23,7.23,0,0,0,1.45.16,2.85,2.85,0,0,0,1.62-.39,1.23,1.23,0,0,0,.56-1.07,1.36,1.36,0,0,0-.64-1.13,9.06,9.06,0,0,0-1.88-1A7.56,7.56,0,0,1,203,553.2a3.06,3.06,0,0,1-.9-2.26,2.6,2.6,0,0,1,.59-1.72,3.54,3.54,0,0,1,1.58-1.06,6.92,6.92,0,0,1,2.26-.35,7.33,7.33,0,0,1,1.85.22,6,6,0,0,1,1.25.41l-.39,1.86a2.79,2.79,0,0,0-1.06-.52,5.54,5.54,0,0,0-1.58-.23,3.48,3.48,0,0,0-1.72.35,1.09,1.09,0,0,0-.6,1,1.44,1.44,0,0,0,.28.9,2.41,2.41,0,0,0,.77.66,10.32,10.32,0,0,0,1.33.6,8.87,8.87,0,0,1,2.57,1.49,2.79,2.79,0,0,1,1,2.23,3.07,3.07,0,0,1-.52,1.81,3.13,3.13,0,0,1-1.49,1.13,6.21,6.21,0,0,1-2.31.39,9.86,9.86,0,0,1-2.31-.27,4.71,4.71,0,0,1-1.58-.6l.35-1.76A4,4,0,0,0,203.14,557.79Z"/><path class="cls-2" d="M219.67,548.12a2.67,2.67,0,0,1,1.47,1.15,4.36,4.36,0,0,1,.52,2.34v8.47h-1A2.7,2.7,0,0,1,220,560a.59.59,0,0,1-.39-.3,1.58,1.58,0,0,1-.14-.75v-.08a4.57,4.57,0,0,1-1.48.84,5.41,5.41,0,0,1-2,.36,4.35,4.35,0,0,1-1.94-.42,3.16,3.16,0,0,1-1.33-1.2,3.42,3.42,0,0,1-.48-1.83,3.3,3.3,0,0,1,.63-2,4,4,0,0,1,1.76-1.31,10.62,10.62,0,0,1,2.26-.6,15.68,15.68,0,0,1,2.4-.19v-1.11a2,2,0,0,0-.27-1.16,1.38,1.38,0,0,0-.82-.52,6.7,6.7,0,0,0-1.52-.14,7,7,0,0,0-1.19.13,10.85,10.85,0,0,0-1.25.32,4.23,4.23,0,0,0-.87.37l-.58-1.47a6.2,6.2,0,0,1,1-.44,13.52,13.52,0,0,1,1.67-.48,8.32,8.32,0,0,1,1.81-.21A7.61,7.61,0,0,1,219.67,548.12Zm-1.91,10a5.41,5.41,0,0,0,1-.36,2,2,0,0,0,.55-.36V554a12,12,0,0,0-1.77.15,5.8,5.8,0,0,0-1.58.44,3,3,0,0,0-1,.73,1.61,1.61,0,0,0-.36,1.09c0,1.26.71,1.89,2.12,1.89A4,4,0,0,0,217.76,558.17Z"/><path class="cls-2" d="M235.78,549.78h-2.25a3.72,3.72,0,0,1,.55,2,3.67,3.67,0,0,1-.64,2.18,4.05,4.05,0,0,1-1.76,1.38,6.56,6.56,0,0,1-2.53.46,6.06,6.06,0,0,1-1.33-.13,1.49,1.49,0,0,0-.49.56,1.44,1.44,0,0,0-.2.71,1.24,1.24,0,0,0,.31,1,1.72,1.72,0,0,0,1.09.26h2.22a5.1,5.1,0,0,1,3.53.94,3.17,3.17,0,0,1,1,2.43,3,3,0,0,1-.79,2.06,5.21,5.21,0,0,1-2.14,1.39,8.89,8.89,0,0,1-3,.48,6.85,6.85,0,0,1-3.77-.88,3,3,0,0,1-1.36-2.66,2.31,2.31,0,0,1,.5-1.46,3.91,3.91,0,0,1,1.21-1,2,2,0,0,1-.95-1.82,2.57,2.57,0,0,1,.41-1.32,3.57,3.57,0,0,1,1.1-1.16,4,4,0,0,1-1.56-1.37,3.5,3.5,0,0,1-.56-1.94,3.92,3.92,0,0,1,.64-2.27,3.78,3.78,0,0,1,1.77-1.36,6.84,6.84,0,0,1,2.56-.45,5.64,5.64,0,0,1,3,.74,3.43,3.43,0,0,1,1-.53,3.92,3.92,0,0,1,1.26-.21h1.19ZM227.29,560a2.51,2.51,0,0,0-.57.7,2.09,2.09,0,0,0-.21,1,2,2,0,0,0,.68,1.66,3.59,3.59,0,0,0,2.21.54,7.29,7.29,0,0,0,1.8-.21,3.32,3.32,0,0,0,1.31-.61,1.25,1.25,0,0,0,.5-1,2.18,2.18,0,0,0-.26-1.12,1.56,1.56,0,0,0-.91-.66,5.7,5.7,0,0,0-1.86-.23h-1.1A13.47,13.47,0,0,1,227.29,560Zm3.8-6.27a2.32,2.32,0,0,0,.64-1.87,2.53,2.53,0,0,0-.6-1.82,2.44,2.44,0,0,0-1.82-.62,3.09,3.09,0,0,0-1.89.53,2.17,2.17,0,0,0-.71,1.86,2.54,2.54,0,0,0,.62,1.76,2.37,2.37,0,0,0,1.88.7A2.85,2.85,0,0,0,231.09,553.72Z"/><path class="cls-2" d="M246.89,553.5a4.53,4.53,0,0,1-.09.8h-7.56a1.22,1.22,0,0,1,0,.21c.13,2.52,1.37,3.78,3.74,3.78a8.11,8.11,0,0,0,1.64-.2,4.69,4.69,0,0,0,1.41-.46l.46,1.35a4.74,4.74,0,0,1-1.8.79,9.19,9.19,0,0,1-2.34.31,5.65,5.65,0,0,1-2.94-.73,4.63,4.63,0,0,1-1.85-2.12,8,8,0,0,1-.64-3.32,7.46,7.46,0,0,1,.63-3.14,5,5,0,0,1,1.86-2.17,5.36,5.36,0,0,1,3-.79,5.06,5.06,0,0,1,2.25.5,3.81,3.81,0,0,1,1.61,1.5,4.82,4.82,0,0,1,.65,2.41C246.91,552.77,246.91,553.2,246.89,553.5Zm-2.17-1.23a3.34,3.34,0,0,0-.55-2,2.16,2.16,0,0,0-1.9-.77,2.74,2.74,0,0,0-2,.76,4,4,0,0,0-1,2.48h5.39C244.71,552.52,244.72,552.37,244.72,552.27Z"/><path class="cls-2" d="M250.14,547.17a15.16,15.16,0,0,1,2.07-3.83,7.34,7.34,0,0,1,1.82-1.86l1.63.8A9.13,9.13,0,0,0,254.1,544a13.31,13.31,0,0,0-1.7,3.37,15.21,15.21,0,0,0-.87,4.92v.52a14.39,14.39,0,0,0,.75,4.84A12.71,12.71,0,0,0,254,561a9.12,9.12,0,0,0,1.69,1.8l-1.63.8a9.44,9.44,0,0,1-1.86-1.84,13.77,13.77,0,0,1-2-3.77,16.15,16.15,0,0,1-.92-5.7A14.18,14.18,0,0,1,250.14,547.17Z"/><path class="cls-2" d="M257.73,557.79a9.42,9.42,0,0,0,1.28.38,7.23,7.23,0,0,0,1.45.16,2.85,2.85,0,0,0,1.62-.39,1.23,1.23,0,0,0,.56-1.07,1.36,1.36,0,0,0-.64-1.13,9.06,9.06,0,0,0-1.88-1,7.56,7.56,0,0,1-2.52-1.56,3.06,3.06,0,0,1-.9-2.26,2.6,2.6,0,0,1,.59-1.72,3.59,3.59,0,0,1,1.58-1.06,6.92,6.92,0,0,1,2.26-.35A7.41,7.41,0,0,1,263,548a5.86,5.86,0,0,1,1.24.41l-.39,1.86a2.79,2.79,0,0,0-1.06-.52,5.54,5.54,0,0,0-1.58-.23,3.48,3.48,0,0,0-1.72.35,1.09,1.09,0,0,0-.6,1,1.44,1.44,0,0,0,.28.9,2.41,2.41,0,0,0,.77.66,10.32,10.32,0,0,0,1.33.6,8.87,8.87,0,0,1,2.57,1.49,2.79,2.79,0,0,1,1,2.23,3.07,3.07,0,0,1-.52,1.81,3.13,3.13,0,0,1-1.49,1.13,6.19,6.19,0,0,1-2.3.39,9.89,9.89,0,0,1-2.32-.27,4.71,4.71,0,0,1-1.58-.6l.35-1.76A4,4,0,0,0,257.73,557.79Z"/><path class="cls-2" d="M271,557.64a14.94,14.94,0,0,1-2.06,3.82,7.34,7.34,0,0,1-1.82,1.86l-1.63-.79A9.47,9.47,0,0,0,267,560.8a13.66,13.66,0,0,0,1.7-3.37,15.22,15.22,0,0,0,.87-4.93V552a14.34,14.34,0,0,0-.75-4.84,12.55,12.55,0,0,0-1.7-3.35,8.58,8.58,0,0,0-1.69-1.8l1.63-.81A9.29,9.29,0,0,1,269,543a13.22,13.22,0,0,1,2,3.77,16,16,0,0,1,.92,5.69A14,14,0,0,1,271,557.64Z"/><rect class="cls-7" x="72" y="288" width="288" height="72" rx="8.3"/><path class="cls-8" d="M114.61,316.46a14.28,14.28,0,0,1,1.67.37l.32.09-.34,2.18c-.26-.14-.51-.27-.75-.37a6,6,0,0,0-1.14-.32,9.32,9.32,0,0,0-1.89-.16,5.27,5.27,0,0,0-2.85.75,4.9,4.9,0,0,0-1.86,2.15,7.73,7.73,0,0,0-.64,3.27,8,8,0,0,0,.64,3.31,5.17,5.17,0,0,0,1.86,2.25,5,5,0,0,0,2.84.81,10.06,10.06,0,0,0,1.63-.14,8.42,8.42,0,0,0,1.46-.36,3.06,3.06,0,0,0,.93-.47v2c-.47.18-.87.33-1.2.44a7,7,0,0,1-1.25.29,9.48,9.48,0,0,1-1.68.13,7.83,7.83,0,0,1-4-1,6.84,6.84,0,0,1-2.66-2.85,10.06,10.06,0,0,1,.09-8.68,7,7,0,0,1,2.76-2.85,7.44,7.44,0,0,1,3.77-1A14.59,14.59,0,0,1,114.61,316.46Z"/><path class="cls-8" d="M126,320.72a2.67,2.67,0,0,1,1.47,1.15,4.36,4.36,0,0,1,.53,2.34v8.47h-1a2.75,2.75,0,0,1-.73-.07.59.59,0,0,1-.38-.3,1.44,1.44,0,0,1-.14-.75v-.09a4.51,4.51,0,0,1-1.48.85,5.45,5.45,0,0,1-2,.36,4.32,4.32,0,0,1-1.94-.42,3.16,3.16,0,0,1-1.33-1.2,3.42,3.42,0,0,1-.48-1.83,3.3,3.3,0,0,1,.63-2,4.07,4.07,0,0,1,1.75-1.31,11.35,11.35,0,0,1,2.27-.6,15.68,15.68,0,0,1,2.4-.19V324a2,2,0,0,0-.28-1.16,1.32,1.32,0,0,0-.82-.52,6.6,6.6,0,0,0-1.51-.14,6.94,6.94,0,0,0-1.19.13,10.52,10.52,0,0,0-1.26.32,3.87,3.87,0,0,0-.86.37l-.58-1.47a5.64,5.64,0,0,1,1-.44,13.21,13.21,0,0,1,1.68-.48,8.25,8.25,0,0,1,1.81-.21A7.59,7.59,0,0,1,126,320.72Zm-1.9,10a6.13,6.13,0,0,0,1-.36,1.91,1.91,0,0,0,.56-.36v-3.43a11.73,11.73,0,0,0-1.77.15,5.89,5.89,0,0,0-1.59.44,3.1,3.1,0,0,0-1,.73A1.66,1.66,0,0,0,121,329c0,1.26.71,1.89,2.12,1.89A4.1,4.1,0,0,0,124.14,330.77Z"/><path class="cls-8" d="M133.83,314.93v17.74h-2.36V314.93Z"/><path class="cls-8" d="M139.82,314.93v17.74h-2.36V314.93Z"/><path class="cls-8" d="M150.72,323.17a4.93,4.93,0,0,1,2-2.06,5.85,5.85,0,0,1,2.88-.7,5.21,5.21,0,0,1,3.06.84,4.85,4.85,0,0,1,1.77,2.24,8.52,8.52,0,0,1,.55,3.16,6.87,6.87,0,0,1-.72,3.27,4.87,4.87,0,0,1-2,2.06,5.86,5.86,0,0,1-2.89.7,5.2,5.2,0,0,1-3.05-.84,4.85,4.85,0,0,1-1.77-2.24,8.52,8.52,0,0,1-.55-3.16A6.87,6.87,0,0,1,150.72,323.17Zm7.51,1.16a3.54,3.54,0,0,0-1-1.63,2.9,2.9,0,0,0-4,.5,5.34,5.34,0,0,0-.78,3.13,7.68,7.68,0,0,0,.35,2.38,3.59,3.59,0,0,0,1,1.67,2.47,2.47,0,0,0,1.73.62,2.6,2.6,0,0,0,2.27-1.13,5.45,5.45,0,0,0,.79-3.18A7.43,7.43,0,0,0,158.23,324.33Z"/><path class="cls-8" d="M165.79,320.42v1.44a9.85,9.85,0,0,1,2.08-1,6.89,6.89,0,0,1,2.37-.45,3.78,3.78,0,0,1,2,.47,2.65,2.65,0,0,1,1.1,1.49,9,9,0,0,1,.34,2.78v7.52h-2.36v-7.5a6.34,6.34,0,0,0-.16-1.61,1.54,1.54,0,0,0-.59-.89,2.18,2.18,0,0,0-1.25-.29h-.29a3.86,3.86,0,0,0-1.47.34,6.41,6.41,0,0,0-1.54.9v9.05h-2.36V320.42Z"/><path class="cls-8" d="M186,317.86c-.57-.48-1.13-1-1.68-1.54A9.37,9.37,0,0,1,183.1,315l1.69-1.45q1,1.35,3.29,3.89l.34.4-1.19,1A6.73,6.73,0,0,1,186,317.86Z"/><path class="cls-9" d="M196.73,320.42v2.5a1.74,1.74,0,0,0-.59-.32,3.89,3.89,0,0,0-2.53.21,4.3,4.3,0,0,0-1.17.8v9.06h-2.36V320.42h2l.16,1.5a3.37,3.37,0,0,1,.77-.67,6.3,6.3,0,0,1,1.22-.6,3.93,3.93,0,0,1,1.32-.24Z"/><path class="cls-9" d="M208,326.1a4.53,4.53,0,0,1-.09.8h-7.55c0,.05,0,.12,0,.21q.18,3.78,3.74,3.78a8.1,8.1,0,0,0,1.63-.2,5.08,5.08,0,0,0,1.42-.46l.45,1.35a4.74,4.74,0,0,1-1.8.79,9.19,9.19,0,0,1-2.34.31,5.67,5.67,0,0,1-2.94-.73,4.63,4.63,0,0,1-1.85-2.12,8,8,0,0,1-.63-3.32,7.46,7.46,0,0,1,.63-3.14,4.9,4.9,0,0,1,1.85-2.17,5.39,5.39,0,0,1,3-.79,5,5,0,0,1,2.25.5,3.89,3.89,0,0,1,1.62,1.5,4.93,4.93,0,0,1,.65,2.41C208,325.37,208,325.79,208,326.1Zm-2.17-1.23a3.34,3.34,0,0,0-.55-2,2.16,2.16,0,0,0-1.89-.77,2.75,2.75,0,0,0-2,.76,4,4,0,0,0-1,2.48h5.39A4.5,4.5,0,0,0,205.8,324.87Z"/><path class="cls-9" d="M217.75,320.61a3.94,3.94,0,0,1,1.16.43l-.37,1.94a3.38,3.38,0,0,0-1.16-.56,6.22,6.22,0,0,0-1.59-.18,3.49,3.49,0,0,0-1.73.45,3.35,3.35,0,0,0-1.29,1.43,5.28,5.28,0,0,0-.5,2.43,5.57,5.57,0,0,0,.45,2.35,3.54,3.54,0,0,0,1.24,1.49,3.15,3.15,0,0,0,1.76.5,6.57,6.57,0,0,0,1.66-.21,5.07,5.07,0,0,0,1.26-.47l.49,1.31a4.11,4.11,0,0,1-1.59.84,7.35,7.35,0,0,1-2.17.32,5.28,5.28,0,0,1-2.9-.78,5,5,0,0,1-1.85-2.14,7.29,7.29,0,0,1-.63-3.09,7.41,7.41,0,0,1,.67-3.21,5.08,5.08,0,0,1,2-2.23,6,6,0,0,1,3.24-.82A7.88,7.88,0,0,1,217.75,320.61Z"/><path class="cls-9" d="M230.3,326.1a5.62,5.62,0,0,1-.1.8h-7.55a1.22,1.22,0,0,1,0,.21q.18,3.78,3.74,3.78a8,8,0,0,0,1.63-.2,5.08,5.08,0,0,0,1.42-.46l.45,1.35a4.62,4.62,0,0,1-1.79.79,9.32,9.32,0,0,1-2.35.31,5.67,5.67,0,0,1-2.94-.73,4.69,4.69,0,0,1-1.85-2.12,8,8,0,0,1-.63-3.32,7.46,7.46,0,0,1,.63-3.14,5,5,0,0,1,1.86-2.17,5.36,5.36,0,0,1,3-.79,5,5,0,0,1,2.24.5,3.83,3.83,0,0,1,1.62,1.5,4.93,4.93,0,0,1,.65,2.41C230.32,325.37,230.31,325.79,230.3,326.1Zm-2.17-1.23a3.42,3.42,0,0,0-.55-2,2.18,2.18,0,0,0-1.9-.77,2.71,2.71,0,0,0-2,.76,4,4,0,0,0-1,2.48h5.4C228.12,325.12,228.13,325,228.13,324.87Z"/><path class="cls-9" d="M232.9,315.91a1.84,1.84,0,0,1,.66-.61,1.71,1.71,0,0,1,.83-.23,1.5,1.5,0,0,1,1.12.41,1.44,1.44,0,0,1,.39,1,1.59,1.59,0,0,1-.24.86,1.81,1.81,0,0,1-1.5.82,1.6,1.6,0,0,1-.75-.18,1.42,1.42,0,0,1-.55-.51,1.4,1.4,0,0,1-.21-.76A1.5,1.5,0,0,1,232.9,315.91Zm2.56,4.51v12.25H233.1V320.42Z"/><path class="cls-9" d="M249.09,320.42l-4.7,12.25h-2l-4.86-12.25h2.55l2.43,6.88.9,2.88.83-2.88,2.33-6.88Z"/><path class="cls-9" d="M259.83,326.1a5.62,5.62,0,0,1-.1.8h-7.55a1.22,1.22,0,0,1,0,.21q.18,3.78,3.74,3.78a8,8,0,0,0,1.63-.2,5.08,5.08,0,0,0,1.42-.46l.45,1.35a4.62,4.62,0,0,1-1.79.79,9.3,9.3,0,0,1-2.34.31,5.68,5.68,0,0,1-3-.73,4.69,4.69,0,0,1-1.85-2.12,8,8,0,0,1-.63-3.32,7.46,7.46,0,0,1,.63-3.14,5,5,0,0,1,1.86-2.17,5.36,5.36,0,0,1,3-.79,5,5,0,0,1,2.24.5,3.78,3.78,0,0,1,1.62,1.5,4.93,4.93,0,0,1,.65,2.41C259.85,325.37,259.84,325.79,259.83,326.1Zm-2.17-1.23a3.42,3.42,0,0,0-.55-2,2.18,2.18,0,0,0-1.9-.77,2.72,2.72,0,0,0-2,.76,3.93,3.93,0,0,0-1,2.48h5.39C257.65,325.12,257.66,325,257.66,324.87Z"/><path class="cls-8" d="M262.14,317.86a22,22,0,0,1-1.68-1.54,9.37,9.37,0,0,1-1.17-1.36l1.69-1.45c.69.9,1.79,2.2,3.28,3.89l.35.4-1.19,1A6.73,6.73,0,0,1,262.14,317.86Z"/><path class="cls-8" d="M282,321a4.43,4.43,0,0,1,1.75,1.92,6.74,6.74,0,0,1,.66,3.13,7.42,7.42,0,0,1-.77,3.42,5.62,5.62,0,0,1-2.17,2.33,6.21,6.21,0,0,1-3.24.84,10.39,10.39,0,0,1-1.7-.15,13.82,13.82,0,0,1-1.63-.36,4.69,4.69,0,0,1-1-.37V314.93h2.37V320l-.09,1.72a4.83,4.83,0,0,1,1.36-1,4.51,4.51,0,0,1,2-.39A4.79,4.79,0,0,1,282,321Zm-.79,2.23a2.73,2.73,0,0,0-2.29-1,3.48,3.48,0,0,0-1.45.3,5.66,5.66,0,0,0-1.17.73v7.23a4.25,4.25,0,0,0,2.2.41,3.13,3.13,0,0,0,1.8-.54,3.52,3.52,0,0,0,1.25-1.58,6.38,6.38,0,0,0,.45-2.52A4.79,4.79,0,0,0,281.24,323.27Z"/><path class="cls-8" d="M289.62,314.93v17.74h-2.36V314.93Z"/><path class="cls-8" d="M293.15,323.17a4.93,4.93,0,0,1,2-2.06,5.85,5.85,0,0,1,2.88-.7,5.27,5.27,0,0,1,3.07.84,4.89,4.89,0,0,1,1.76,2.24,8.51,8.51,0,0,1,.56,3.16,6.87,6.87,0,0,1-.72,3.27,4.89,4.89,0,0,1-2,2.06,5.86,5.86,0,0,1-2.89.7,5.2,5.2,0,0,1-3.05-.84A4.83,4.83,0,0,1,293,329.6a8.32,8.32,0,0,1-.56-3.16A6.87,6.87,0,0,1,293.15,323.17Zm7.51,1.16a3.46,3.46,0,0,0-1-1.63,2.9,2.9,0,0,0-4,.5,5.34,5.34,0,0,0-.78,3.13,7.68,7.68,0,0,0,.35,2.38,3.67,3.67,0,0,0,1,1.67,2.47,2.47,0,0,0,1.73.62,2.63,2.63,0,0,0,2.28-1.13,5.53,5.53,0,0,0,.78-3.18A7.43,7.43,0,0,0,300.66,324.33Z"/><path class="cls-8" d="M313.15,320.61a4.06,4.06,0,0,1,1.16.43l-.38,1.94a3.3,3.3,0,0,0-1.16-.56,6.11,6.11,0,0,0-1.59-.18,3.45,3.45,0,0,0-1.72.45,3.29,3.29,0,0,0-1.29,1.43,5.28,5.28,0,0,0-.5,2.43,5.57,5.57,0,0,0,.45,2.35,3.41,3.41,0,0,0,1.24,1.49,3.15,3.15,0,0,0,1.76.5,6.49,6.49,0,0,0,1.65-.21,5.17,5.17,0,0,0,1.27-.47l.48,1.31a4,4,0,0,1-1.59.84,7.3,7.3,0,0,1-2.17.32,5.25,5.25,0,0,1-2.89-.78,5,5,0,0,1-1.85-2.14,7.15,7.15,0,0,1-.64-3.09,7.55,7.55,0,0,1,.67-3.21,5.16,5.16,0,0,1,2-2.23,6,6,0,0,1,3.24-.82A7.88,7.88,0,0,1,313.15,320.61Z"/><path class="cls-8" d="M320.48,326.84,319,328.43l0,1.84v2.4h-2.36V314.93H319v9.68l0,1.19,4.88-5.38h2.79L322,325.24l5.19,7.43h-2.69Z"/><rect class="cls-5" x="360.89" y="71.68" width="144.11" height="144.32" rx="9.9"/><path class="cls-2" d="M408.26,113.91a6.64,6.64,0,0,0,1.73.71,8.2,8.2,0,0,0,2.12.29,4.51,4.51,0,0,0,2.43-.54,1.85,1.85,0,0,0,.83-1.68,2.09,2.09,0,0,0-.41-1.29,3.54,3.54,0,0,0-1.11-1q-.71-.42-2.1-1.08a10,10,0,0,1-2.95-2,3.86,3.86,0,0,1-1.14-2.77,3.52,3.52,0,0,1,.77-2.37,4.31,4.31,0,0,1,2-1.33,8.38,8.38,0,0,1,2.66-.41,9.6,9.6,0,0,1,2.31.25,5.21,5.21,0,0,1,1.49.6l-.48,1.94a5.44,5.44,0,0,0-3.35-.91,5.39,5.39,0,0,0-1.53.21,2.75,2.75,0,0,0-1.15.65,1.52,1.52,0,0,0-.44,1.1,2.46,2.46,0,0,0,.31,1.27,3.12,3.12,0,0,0,1,.94,20.34,20.34,0,0,0,2,1.09,25.41,25.41,0,0,1,2.3,1.31,6.14,6.14,0,0,1,1.58,1.51,3.43,3.43,0,0,1,.64,2.06,4.16,4.16,0,0,1-.68,2.42,4.08,4.08,0,0,1-1.91,1.45,7.79,7.79,0,0,1-2.86.48,12.42,12.42,0,0,1-1.95-.15,12.58,12.58,0,0,1-1.63-.36,4.64,4.64,0,0,1-1-.42Z"/><path class="cls-2" d="M420.28,106.34h-1.59v-1.28l.39-.11.73-.24a1.3,1.3,0,0,0,.41-.28,1.14,1.14,0,0,0,.29-.47c.1-.29.26-.8.47-1.55l.24-.81h1.41v3h3.46v1.79h-3.46v6.08a10.6,10.6,0,0,0,.1,1.7.89.89,0,0,0,.36.65,1.94,1.94,0,0,0,.9.15,5.86,5.86,0,0,0,1.12-.14,4.25,4.25,0,0,0,1-.31l.41,1.34a5.22,5.22,0,0,1-1.51.7,6.39,6.39,0,0,1-1.87.3,3,3,0,0,1-2.09-.66,3.14,3.14,0,0,1-.74-2.4Z"/><path class="cls-2" d="M435.38,104.86a2.73,2.73,0,0,1,1.48,1.14,4.41,4.41,0,0,1,.52,2.34v8.47h-1a3.24,3.24,0,0,1-.73-.06.65.65,0,0,1-.39-.3,1.6,1.6,0,0,1-.14-.76v-.08a4.58,4.58,0,0,1-1.48.85,5.62,5.62,0,0,1-2,.35,4.35,4.35,0,0,1-1.94-.42,3.2,3.2,0,0,1-1.33-1.19,3.43,3.43,0,0,1-.48-1.84,3.3,3.3,0,0,1,.63-2,4.1,4.1,0,0,1,1.76-1.31,10.63,10.63,0,0,1,2.26-.59,15.74,15.74,0,0,1,2.4-.2v-1.11a2,2,0,0,0-.27-1.16,1.42,1.42,0,0,0-.83-.52,6.64,6.64,0,0,0-1.51-.13,6.14,6.14,0,0,0-1.19.13,8.77,8.77,0,0,0-1.25.32,4.31,4.31,0,0,0-.87.36l-.58-1.47a6.73,6.73,0,0,1,1-.44,13,13,0,0,1,1.67-.48,8.32,8.32,0,0,1,1.81-.21A7.52,7.52,0,0,1,435.38,104.86Zm-1.9,10a5.41,5.41,0,0,0,1-.36,2,2,0,0,0,.55-.36v-3.43a12,12,0,0,0-1.77.15,5.8,5.8,0,0,0-1.58.44,2.9,2.9,0,0,0-1,.73,1.61,1.61,0,0,0-.36,1.09c0,1.26.71,1.89,2.12,1.89A4,4,0,0,0,433.48,114.9Z"/><path class="cls-2" d="M441.1,106.34h-1.59v-1.28l.38-.11.73-.24a1.34,1.34,0,0,0,.42-.28,1.25,1.25,0,0,0,.28-.47c.11-.29.27-.8.47-1.55l.24-.81h1.42v3h3.46v1.79h-3.46v6.08a10.93,10.93,0,0,0,.09,1.7.92.92,0,0,0,.36.65,2,2,0,0,0,.9.15,5.77,5.77,0,0,0,1.12-.14,4.37,4.37,0,0,0,1-.31l.4,1.34a5.22,5.22,0,0,1-1.51.7,6.39,6.39,0,0,1-1.87.3,3,3,0,0,1-2.08-.66,3.1,3.1,0,0,1-.74-2.4Z"/><path class="cls-2" d="M458.41,110.23a4.53,4.53,0,0,1-.09.8h-7.55s0,.12,0,.22Q451,115,454.51,115a8.23,8.23,0,0,0,1.64-.21,4.77,4.77,0,0,0,1.42-.46l.45,1.36a4.9,4.9,0,0,1-1.8.79,9.63,9.63,0,0,1-2.34.3,5.58,5.58,0,0,1-2.94-.73,4.61,4.61,0,0,1-1.85-2.11,8,8,0,0,1-.63-3.33,7.65,7.65,0,0,1,.62-3.14,5,5,0,0,1,1.86-2.16,5.39,5.39,0,0,1,3-.8,5,5,0,0,1,2.25.5,4,4,0,0,1,1.62,1.5,4.93,4.93,0,0,1,.65,2.41C458.44,109.5,458.43,109.93,458.41,110.23ZM456.24,109a3.39,3.39,0,0,0-.55-2,2.19,2.19,0,0,0-1.9-.77,2.75,2.75,0,0,0-2,.77,4,4,0,0,0-1,2.47h5.39A4.4,4.4,0,0,0,456.24,109Z"/><rect class="cls-10" x="417.69" y="146.98" width="39.62" height="39.62" transform="translate(12.33 -29.3) rotate(3.89)"/><rect class="cls-11" x="421.95" y="151.49" width="39.62" height="39.62" transform="translate(26.78 -57.36) rotate(7.66)"/><rect class="cls-12" x="413.42" y="142.46" width="39.62" height="39.62"/><rect class="cls-5" x="465.89" y="502.68" width="144.11" height="144.32" rx="9.9"/><path class="cls-2" d="M513.26,544.91a6.64,6.64,0,0,0,1.73.71,8.2,8.2,0,0,0,2.12.29,4.51,4.51,0,0,0,2.43-.54,1.85,1.85,0,0,0,.83-1.68,2.09,2.09,0,0,0-.41-1.29,3.54,3.54,0,0,0-1.11-1q-.71-.42-2.1-1.08a10,10,0,0,1-3-2,3.86,3.86,0,0,1-1.14-2.77,3.52,3.52,0,0,1,.77-2.37,4.31,4.31,0,0,1,2-1.33,8.38,8.38,0,0,1,2.66-.41,9.6,9.6,0,0,1,2.31.25,5.21,5.21,0,0,1,1.49.6l-.48,1.94a5.44,5.44,0,0,0-3.35-.91,5.39,5.39,0,0,0-1.53.21,2.75,2.75,0,0,0-1.15.65,1.52,1.52,0,0,0-.44,1.1,2.46,2.46,0,0,0,.31,1.27,3.12,3.12,0,0,0,1,.94,20.34,20.34,0,0,0,2,1.09,25.41,25.41,0,0,1,2.3,1.31,6.14,6.14,0,0,1,1.58,1.51,3.43,3.43,0,0,1,.64,2.06,4.16,4.16,0,0,1-.68,2.42,4.08,4.08,0,0,1-1.91,1.45,7.79,7.79,0,0,1-2.86.48,12.42,12.42,0,0,1-1.95-.15,12.58,12.58,0,0,1-1.63-.36,4.64,4.64,0,0,1-1-.42Z"/><path class="cls-2" d="M525.28,537.34h-1.59v-1.28l.39-.11.73-.24a1.3,1.3,0,0,0,.41-.28,1.14,1.14,0,0,0,.29-.47c.1-.29.26-.8.47-1.55l.24-.81h1.41v2.95h3.46v1.79h-3.46v6.08a10.6,10.6,0,0,0,.1,1.7.89.89,0,0,0,.36.65,1.94,1.94,0,0,0,.9.15,5.86,5.86,0,0,0,1.12-.14,4.25,4.25,0,0,0,1-.31l.41,1.34a5.22,5.22,0,0,1-1.51.7,6.39,6.39,0,0,1-1.87.3,3,3,0,0,1-2.09-.66,3.14,3.14,0,0,1-.74-2.4Z"/><path class="cls-2" d="M540.38,535.86a2.73,2.73,0,0,1,1.48,1.14,4.41,4.41,0,0,1,.52,2.34v8.47h-1a3.24,3.24,0,0,1-.73-.06.65.65,0,0,1-.39-.3,1.6,1.6,0,0,1-.14-.76v-.08a4.58,4.58,0,0,1-1.48.85,5.62,5.62,0,0,1-2,.35,4.35,4.35,0,0,1-1.94-.42,3.2,3.2,0,0,1-1.33-1.19,3.43,3.43,0,0,1-.48-1.84,3.3,3.3,0,0,1,.63-2,4.1,4.1,0,0,1,1.76-1.31,10.63,10.63,0,0,1,2.26-.59,15.74,15.74,0,0,1,2.4-.2v-1.11a2,2,0,0,0-.27-1.16,1.42,1.42,0,0,0-.83-.52,6.64,6.64,0,0,0-1.51-.13,6.14,6.14,0,0,0-1.19.13,8.77,8.77,0,0,0-1.25.32,4.31,4.31,0,0,0-.87.36l-.58-1.47a6.73,6.73,0,0,1,1-.44,13,13,0,0,1,1.67-.48,8.32,8.32,0,0,1,1.81-.21A7.52,7.52,0,0,1,540.38,535.86Zm-1.9,10a5.41,5.41,0,0,0,1-.36,2,2,0,0,0,.55-.36v-3.43a12,12,0,0,0-1.77.15,5.8,5.8,0,0,0-1.58.44,2.9,2.9,0,0,0-1,.73,1.61,1.61,0,0,0-.36,1.09c0,1.26.71,1.89,2.12,1.89A4,4,0,0,0,538.48,545.9Z"/><path class="cls-2" d="M546.1,537.34h-1.59v-1.28l.38-.11.73-.24a1.34,1.34,0,0,0,.42-.28,1.25,1.25,0,0,0,.28-.47c.11-.29.27-.8.47-1.55l.24-.81h1.42v2.95h3.46v1.79h-3.46v6.08a10.93,10.93,0,0,0,.09,1.7.92.92,0,0,0,.36.65,2,2,0,0,0,.9.15,5.77,5.77,0,0,0,1.12-.14,4.37,4.37,0,0,0,1-.31l.4,1.34a5.22,5.22,0,0,1-1.51.7,6.39,6.39,0,0,1-1.87.3,3,3,0,0,1-2.08-.66,3.1,3.1,0,0,1-.74-2.4Z"/><path class="cls-2" d="M563.41,541.23a4.53,4.53,0,0,1-.09.8h-7.55c0,.05,0,.12,0,.22Q556,546,559.51,546a8.23,8.23,0,0,0,1.64-.21,4.77,4.77,0,0,0,1.42-.46l.45,1.36a4.9,4.9,0,0,1-1.8.79,9.63,9.63,0,0,1-2.34.3,5.58,5.58,0,0,1-2.94-.73,4.61,4.61,0,0,1-1.85-2.11,8,8,0,0,1-.63-3.33,7.65,7.65,0,0,1,.62-3.14,5,5,0,0,1,1.86-2.16,5.39,5.39,0,0,1,3-.8,5,5,0,0,1,2.25.5,4,4,0,0,1,1.62,1.5,4.93,4.93,0,0,1,.65,2.41C563.44,540.5,563.43,540.93,563.41,541.23ZM561.24,540a3.39,3.39,0,0,0-.55-2,2.19,2.19,0,0,0-1.9-.77,2.75,2.75,0,0,0-2,.77,4,4,0,0,0-1,2.47h5.39A4.4,4.4,0,0,0,561.24,540Z"/><rect class="cls-10" x="522.69" y="577.98" width="39.62" height="39.62" transform="translate(41.81 -35.43) rotate(3.89)"/><rect class="cls-11" x="526.95" y="582.49" width="39.62" height="39.62" transform="translate(85.18 -67.51) rotate(7.66)"/><rect class="cls-12" x="518.42" y="573.46" width="39.62" height="39.62"/><path class="cls-2" d="M432.5,216.5v.73a16.78,16.78,0,0,0,5.3,12.24l73.7,69"/><path class="cls-3" d="M432.5,216.5v.73a16.78,16.78,0,0,0,5.3,12.24l67.42,63.14"/><polygon class="cls-4" points="499.85 295.78 511.5 298.5 508.03 287.05 499.85 295.78"/><path class="cls-3" d="M648.5,178v40.74a14.68,14.68,0,0,1-5.14,11.15l-73.31,62.52"/><polygon class="cls-4" points="567.5 286.72 563.5 298 575.27 295.83 567.5 286.72"/><line class="cls-3" x1="538.5" y1="469" x2="538.5" y2="494.39"/><polygon class="cls-4" points="532.52 492.64 538.5 503 544.48 492.64 532.52 492.64"/><rect class="cls-13" x="502" y="288" width="72" height="72" rx="13.88" transform="translate(-71.53 475.32) rotate(-45)"/><path class="cls-8" d="M509.82,316.32l3.87,10.92.72,2.51.74-2.51,3.7-10.92h2.51l-6,16.35h-2l-6.11-16.35Z"/><path class="cls-8" d="M529.19,320.72a2.67,2.67,0,0,1,1.47,1.15,4.36,4.36,0,0,1,.53,2.34v8.47h-1a2.7,2.7,0,0,1-.73-.07.61.61,0,0,1-.39-.3,1.55,1.55,0,0,1-.14-.75v-.09a4.45,4.45,0,0,1-1.47.85,5.45,5.45,0,0,1-2,.36,4.32,4.32,0,0,1-1.94-.42,3.19,3.19,0,0,1-1.34-1.2,3.51,3.51,0,0,1-.47-1.83,3.35,3.35,0,0,1,.62-2,4.1,4.1,0,0,1,1.76-1.31,11.43,11.43,0,0,1,2.26-.6,15.68,15.68,0,0,1,2.4-.19V324a2,2,0,0,0-.27-1.16,1.35,1.35,0,0,0-.82-.52,6.64,6.64,0,0,0-1.52-.14,6.83,6.83,0,0,0-1.18.13,10.52,10.52,0,0,0-1.26.32,4.23,4.23,0,0,0-.87.37l-.58-1.47a6.2,6.2,0,0,1,1-.44,13.52,13.52,0,0,1,1.67-.48,8.41,8.41,0,0,1,1.82-.21A7.59,7.59,0,0,1,529.19,320.72Zm-1.9,10a6.13,6.13,0,0,0,1-.36,1.82,1.82,0,0,0,.55-.36v-3.43a11.72,11.72,0,0,0-1.76.15,5.78,5.78,0,0,0-1.59.44,3,3,0,0,0-1,.73,1.66,1.66,0,0,0-.35,1.09c0,1.26.7,1.89,2.11,1.89A4.17,4.17,0,0,0,527.29,330.77Z"/><path class="cls-8" d="M537,314.93v17.74h-2.36V314.93Z"/><path class="cls-8" d="M540.4,315.91a1.69,1.69,0,0,1,.66-.61,1.67,1.67,0,0,1,.82-.23,1.5,1.5,0,0,1,1.13.41,1.44,1.44,0,0,1,.39,1,1.52,1.52,0,0,1-.25.86,1.67,1.67,0,0,1-.64.6,1.71,1.71,0,0,1-.85.22,1.6,1.6,0,0,1-.75-.18,1.45,1.45,0,0,1-.56-.51,1.4,1.4,0,0,1-.21-.76A1.51,1.51,0,0,1,540.4,315.91Zm2.56,4.51v12.25h-2.37V320.42Z"/><path class="cls-8" d="M556.14,314.93v17.75h-1a2.45,2.45,0,0,1-.67-.07.66.66,0,0,1-.4-.27,1.1,1.1,0,0,1-.14-.61v-.44a5,5,0,0,1-1.38,1,4.58,4.58,0,0,1-2,.4,4.66,4.66,0,0,1-2.42-.64,4.52,4.52,0,0,1-1.75-1.91,7,7,0,0,1-.65-3.15,7.41,7.41,0,0,1,.76-3.41,5.66,5.66,0,0,1,2.16-2.33,6.16,6.16,0,0,1,3.21-.83,6.68,6.68,0,0,1,2,.3l0-.66v-5.12Zm-7.26,14.89a2.71,2.71,0,0,0,2.28,1,3.64,3.64,0,0,0,1.45-.28,5.42,5.42,0,0,0,1.17-.66v-7.14a1.87,1.87,0,0,0-.86-.46,5.11,5.11,0,0,0-1.34-.15,3.13,3.13,0,0,0-1.8.54,3.54,3.54,0,0,0-1.24,1.59,6.38,6.38,0,0,0-.45,2.52A4.85,4.85,0,0,0,548.88,329.82Z"/><path class="cls-8" d="M560.06,323.07a3.83,3.83,0,0,1,.82-.89,15.42,15.42,0,0,1,1.29-.91c.45-.29.81-.54,1.08-.74a3.78,3.78,0,0,0,.71-.67,1.6,1.6,0,0,0,.38-.77,5,5,0,0,0,.15-1.15,3,3,0,0,0-.53-1.77,3.37,3.37,0,0,0-1.55-1.12,6.79,6.79,0,0,0-2.38-.38,7.81,7.81,0,0,0-1.94.19v-1.72a2.82,2.82,0,0,1,.9-.3,6.64,6.64,0,0,1,1.42-.15,8.32,8.32,0,0,1,3.6.68,4.72,4.72,0,0,1,2.13,1.83,5,5,0,0,1,.68,2.56,5.6,5.6,0,0,1-.13,1.21,3.45,3.45,0,0,1-.57,1.45,4.55,4.55,0,0,1-1,1c-.34.27-.79.59-1.32,1s-.73.49-1,.66a3.35,3.35,0,0,0-.59.6,1.4,1.4,0,0,0-.28.73c0,.2,0,.34,0,.41a4,4,0,0,0,.1.93c.07.29.18.69.33,1.19l.06.2H560.7a3.89,3.89,0,0,1-.65-1.26,6.24,6.24,0,0,1-.31-1.7A1.84,1.84,0,0,1,560.06,323.07Zm.55,7.1a2,2,0,0,1,.64-.66,1.55,1.55,0,0,1,.81-.24,1.43,1.43,0,0,1,1.14.47,1.66,1.66,0,0,1,.41,1.15,1.77,1.77,0,0,1-.24.91,1.84,1.84,0,0,1-.63.64,1.6,1.6,0,0,1-.84.24,1.39,1.39,0,0,1-.75-.22,1.76,1.76,0,0,1-.57-.58,1.64,1.64,0,0,1-.21-.82A1.75,1.75,0,0,1,560.61,330.17Z"/><line class="cls-3" x1="583" y1="324.5" x2="710.39" y2="324.5"/><polygon class="cls-4" points="708.64 330.48 719 324.5 708.64 318.52 708.64 330.48"/><rect class="cls-7" x="719" y="288" width="289" height="72" rx="8.3"/><path class="cls-8" d="M762.6,316.46a14.28,14.28,0,0,1,1.67.37l.32.09-.34,2.18c-.27-.14-.52-.27-.75-.37a6,6,0,0,0-1.14-.32,9.32,9.32,0,0,0-1.89-.16,5.27,5.27,0,0,0-2.85.75,4.9,4.9,0,0,0-1.86,2.15,7.73,7.73,0,0,0-.64,3.27,8,8,0,0,0,.64,3.31,5.17,5.17,0,0,0,1.86,2.25,5,5,0,0,0,2.84.81,10.06,10.06,0,0,0,1.63-.14,8.42,8.42,0,0,0,1.46-.36,3.06,3.06,0,0,0,.93-.47v2c-.47.18-.87.33-1.2.44a7,7,0,0,1-1.25.29,9.56,9.56,0,0,1-1.68.13,7.83,7.83,0,0,1-4-1,6.93,6.93,0,0,1-2.67-2.85,9.26,9.26,0,0,1-.93-4.24,9,9,0,0,1,1-4.44,7,7,0,0,1,2.76-2.85,7.44,7.44,0,0,1,3.77-1A14.59,14.59,0,0,1,762.6,316.46Z"/><path class="cls-8" d="M774,320.72a2.67,2.67,0,0,1,1.47,1.15,4.36,4.36,0,0,1,.53,2.34v8.47h-1a2.75,2.75,0,0,1-.73-.07.64.64,0,0,1-.39-.3,1.55,1.55,0,0,1-.14-.75v-.09a4.35,4.35,0,0,1-1.47.85,5.45,5.45,0,0,1-2,.36,4.32,4.32,0,0,1-1.94-.42,3.16,3.16,0,0,1-1.33-1.2,3.42,3.42,0,0,1-.48-1.83,3.3,3.3,0,0,1,.63-2,4.07,4.07,0,0,1,1.75-1.31,11.43,11.43,0,0,1,2.26-.6,15.91,15.91,0,0,1,2.41-.19V324a2,2,0,0,0-.28-1.16,1.35,1.35,0,0,0-.82-.52,6.64,6.64,0,0,0-1.52-.14,6.94,6.94,0,0,0-1.18.13,10.52,10.52,0,0,0-1.26.32,3.87,3.87,0,0,0-.86.37l-.58-1.47a5.64,5.64,0,0,1,1-.44,13.21,13.21,0,0,1,1.68-.48,8.25,8.25,0,0,1,1.81-.21A7.59,7.59,0,0,1,774,320.72Zm-1.9,10a6.13,6.13,0,0,0,1-.36,2.06,2.06,0,0,0,.56-.36v-3.43a11.73,11.73,0,0,0-1.77.15,5.78,5.78,0,0,0-1.59.44,3.1,3.1,0,0,0-1,.73A1.66,1.66,0,0,0,769,329c0,1.26.7,1.89,2.12,1.89A4.1,4.1,0,0,0,772.13,330.77Z"/><path class="cls-8" d="M781.82,314.93v17.74h-2.36V314.93Z"/><path class="cls-8" d="M787.81,314.93v17.74h-2.36V314.93Z"/><path class="cls-8" d="M798.71,323.17a4.87,4.87,0,0,1,2-2.06,5.85,5.85,0,0,1,2.88-.7,5.21,5.21,0,0,1,3.06.84,4.83,4.83,0,0,1,1.76,2.24,8.32,8.32,0,0,1,.56,3.16,6.87,6.87,0,0,1-.72,3.27,4.87,4.87,0,0,1-2,2.06,5.86,5.86,0,0,1-2.89.7,5.18,5.18,0,0,1-3.05-.84,4.85,4.85,0,0,1-1.77-2.24,8.52,8.52,0,0,1-.55-3.16A6.87,6.87,0,0,1,798.71,323.17Zm7.51,1.16a3.54,3.54,0,0,0-1-1.63,2.9,2.9,0,0,0-4,.5,5.34,5.34,0,0,0-.78,3.13,8,8,0,0,0,.34,2.38,3.69,3.69,0,0,0,1,1.67,2.47,2.47,0,0,0,1.73.62,2.6,2.6,0,0,0,2.27-1.13,5.45,5.45,0,0,0,.79-3.18A7.43,7.43,0,0,0,806.22,324.33Z"/><path class="cls-8" d="M813.78,320.42v1.44a9.85,9.85,0,0,1,2.08-1,6.88,6.88,0,0,1,2.36-.45,3.8,3.8,0,0,1,2,.47,2.69,2.69,0,0,1,1.1,1.49,9,9,0,0,1,.34,2.78v7.52h-2.36v-7.5a6.34,6.34,0,0,0-.16-1.61,1.58,1.58,0,0,0-.59-.89,2.18,2.18,0,0,0-1.25-.29H817a4,4,0,0,0-1.48.34,6.54,6.54,0,0,0-1.53.9v9.05h-2.36V320.42Z"/><path class="cls-8" d="M833.94,317.86c-.57-.48-1.13-1-1.68-1.54a9.37,9.37,0,0,1-1.17-1.36l1.69-1.45q1,1.35,3.29,3.89l.34.4-1.19,1A6.73,6.73,0,0,1,833.94,317.86Z"/><path class="cls-9" d="M844.71,320.42v2.5a1.69,1.69,0,0,0-.58-.32,3.4,3.4,0,0,0-1-.12,3.51,3.51,0,0,0-1.51.33,4.4,4.4,0,0,0-1.16.8v9.06h-2.36V320.42h2l.16,1.5a3.37,3.37,0,0,1,.77-.67,6.3,6.3,0,0,1,1.22-.6,3.93,3.93,0,0,1,1.32-.24Z"/><path class="cls-9" d="M856,326.1a4.53,4.53,0,0,1-.09.8h-7.55c0,.05,0,.12,0,.21q.18,3.78,3.73,3.78a8.11,8.11,0,0,0,1.64-.2,5.08,5.08,0,0,0,1.42-.46l.45,1.35a4.74,4.74,0,0,1-1.8.79,9.19,9.19,0,0,1-2.34.31,5.67,5.67,0,0,1-2.94-.73,4.63,4.63,0,0,1-1.85-2.12,8,8,0,0,1-.63-3.32,7.62,7.62,0,0,1,.62-3.14,5,5,0,0,1,1.86-2.17,5.39,5.39,0,0,1,3-.79,5,5,0,0,1,2.25.5,3.89,3.89,0,0,1,1.62,1.5,4.93,4.93,0,0,1,.65,2.41C856,325.37,856,325.79,856,326.1Zm-2.17-1.23a3.34,3.34,0,0,0-.55-2,2.16,2.16,0,0,0-1.9-.77,2.74,2.74,0,0,0-2,.76,4,4,0,0,0-1,2.48h5.39A4.5,4.5,0,0,0,853.79,324.87Z"/><path class="cls-9" d="M856.42,336.38a4.07,4.07,0,0,0,.68.08,1.32,1.32,0,0,0,1.3-.8,6.35,6.35,0,0,0,.37-2.48V320.42h2.36v11.84a8.11,8.11,0,0,1-1,4.47,3.23,3.23,0,0,1-2.84,1.38l-.87,0a1.88,1.88,0,0,1-.63-.11v-1.75A2.37,2.37,0,0,0,856.42,336.38Zm2.19-20.47a1.84,1.84,0,0,1,.66-.61,1.71,1.71,0,0,1,.83-.23,1.5,1.5,0,0,1,1.12.41,1.44,1.44,0,0,1,.39,1,1.59,1.59,0,0,1-.24.86,1.81,1.81,0,0,1-1.5.82,1.6,1.6,0,0,1-.75-.18,1.42,1.42,0,0,1-.55-.51,1.4,1.4,0,0,1-.21-.76A1.5,1.5,0,0,1,858.61,315.91Z"/><path class="cls-9" d="M873.66,326.1a4.47,4.47,0,0,1-.1.8H866a1.22,1.22,0,0,1,0,.21c.13,2.52,1.37,3.78,3.74,3.78a7.94,7.94,0,0,0,1.63-.2,5,5,0,0,0,1.42-.46l.45,1.35a4.62,4.62,0,0,1-1.79.79,9.19,9.19,0,0,1-2.34.31,5.68,5.68,0,0,1-3-.73,4.67,4.67,0,0,1-1.84-2.12,7.8,7.8,0,0,1-.64-3.32,7.46,7.46,0,0,1,.63-3.14,5,5,0,0,1,1.86-2.17,5.36,5.36,0,0,1,3-.79,5.09,5.09,0,0,1,2.25.5,3.81,3.81,0,0,1,1.61,1.5,4.82,4.82,0,0,1,.65,2.41C873.68,325.37,873.68,325.79,873.66,326.1Zm-2.17-1.23a3.34,3.34,0,0,0-.55-2,2.16,2.16,0,0,0-1.9-.77,2.74,2.74,0,0,0-2,.76,4,4,0,0,0-1,2.48h5.39C871.48,325.12,871.49,325,871.49,324.87Z"/><path class="cls-9" d="M883.44,320.61a4.18,4.18,0,0,1,1.16.43l-.38,1.94a3.38,3.38,0,0,0-1.16-.56,6.11,6.11,0,0,0-1.59-.18,3.42,3.42,0,0,0-1.72.45,3.31,3.31,0,0,0-1.3,1.43,5.28,5.28,0,0,0-.49,2.43,5.57,5.57,0,0,0,.45,2.35,3.45,3.45,0,0,0,1.23,1.49,3.18,3.18,0,0,0,1.77.5,6.55,6.55,0,0,0,1.65-.21,5.17,5.17,0,0,0,1.27-.47l.48,1.31a4.11,4.11,0,0,1-1.59.84,7.3,7.3,0,0,1-2.17.32,5.23,5.23,0,0,1-2.89-.78,5,5,0,0,1-1.86-2.14,7.29,7.29,0,0,1-.63-3.09,7.41,7.41,0,0,1,.67-3.21,5.2,5.2,0,0,1,2-2.23,6.06,6.06,0,0,1,3.25-.82A7.94,7.94,0,0,1,883.44,320.61Z"/><path class="cls-9" d="M888,322.2h-1.59v-1.27l.39-.12.73-.24a1.22,1.22,0,0,0,.41-.27,1.24,1.24,0,0,0,.28-.48c.11-.28.27-.8.48-1.54l.23-.81h1.42v2.95h3.46v1.78h-3.46v6.09a9.52,9.52,0,0,0,.1,1.7.86.86,0,0,0,.36.65,1.89,1.89,0,0,0,.89.15,5.25,5.25,0,0,0,1.13-.15,4.94,4.94,0,0,0,1-.3l.41,1.34a5.1,5.1,0,0,1-1.51.69,6.16,6.16,0,0,1-1.88.31,3,3,0,0,1-2.08-.66,3.14,3.14,0,0,1-.74-2.4Z"/><path class="cls-9" d="M897.08,330.39a7.87,7.87,0,0,0,1.28.38,7.16,7.16,0,0,0,1.45.16,2.79,2.79,0,0,0,1.61-.39,1.22,1.22,0,0,0,.57-1.07,1.39,1.39,0,0,0-.64-1.13,9.46,9.46,0,0,0-1.89-1,7.56,7.56,0,0,1-2.52-1.56,3.09,3.09,0,0,1-.89-2.26,2.59,2.59,0,0,1,.58-1.72,3.57,3.57,0,0,1,1.59-1.06,6.81,6.81,0,0,1,2.25-.35,7.91,7.91,0,0,1,1.86.21,6.52,6.52,0,0,1,1.25.42l-.39,1.86a2.79,2.79,0,0,0-1.06-.52,5.59,5.59,0,0,0-1.58-.23,3.52,3.52,0,0,0-1.73.35,1.1,1.1,0,0,0-.59,1,1.5,1.5,0,0,0,.27.9,2.35,2.35,0,0,0,.78.66,12.52,12.52,0,0,0,1.32.6,8.8,8.8,0,0,1,2.58,1.49,2.82,2.82,0,0,1,1,2.23,3.07,3.07,0,0,1-.52,1.81,3.18,3.18,0,0,1-1.49,1.13,6.21,6.21,0,0,1-2.31.39,9.8,9.8,0,0,1-2.31-.27,4.88,4.88,0,0,1-1.59-.6l.36-1.76A3.45,3.45,0,0,0,897.08,330.39Z"/><path class="cls-8" d="M906.15,317.86c-.57-.48-1.13-1-1.68-1.54A9.37,9.37,0,0,1,903.3,315l1.69-1.45q1,1.35,3.29,3.89l.34.4-1.19,1A6.73,6.73,0,0,1,906.15,317.86Z"/><path class="cls-8" d="M926,321a4.43,4.43,0,0,1,1.75,1.92,6.74,6.74,0,0,1,.66,3.13,7.42,7.42,0,0,1-.77,3.42,5.62,5.62,0,0,1-2.17,2.33,6.21,6.21,0,0,1-3.24.84,10.39,10.39,0,0,1-1.7-.15,13.82,13.82,0,0,1-1.63-.36,4.32,4.32,0,0,1-1-.37V314.93h2.36V320l-.09,1.72a5,5,0,0,1,1.36-1,4.56,4.56,0,0,1,2-.39A4.77,4.77,0,0,1,926,321Zm-.79,2.23a2.73,2.73,0,0,0-2.29-1,3.44,3.44,0,0,0-1.44.3,5.74,5.74,0,0,0-1.18.73v7.23a4.25,4.25,0,0,0,2.2.41,3.16,3.16,0,0,0,1.81-.54,3.51,3.51,0,0,0,1.24-1.58,6.38,6.38,0,0,0,.45-2.52A4.79,4.79,0,0,0,925.25,323.27Z"/><path class="cls-8" d="M933.63,314.93v17.74h-2.36V314.93Z"/><path class="cls-8" d="M937.16,323.17a4.89,4.89,0,0,1,2-2.06,5.78,5.78,0,0,1,2.87-.7,5.27,5.27,0,0,1,3.07.84,4.83,4.83,0,0,1,1.76,2.24,8.51,8.51,0,0,1,.56,3.16,6.87,6.87,0,0,1-.72,3.27,4.89,4.89,0,0,1-2,2.06,5.86,5.86,0,0,1-2.89.7,5.2,5.2,0,0,1-3-.84A4.83,4.83,0,0,1,937,329.6a8.32,8.32,0,0,1-.56-3.16A6.87,6.87,0,0,1,937.16,323.17Zm7.51,1.16a3.52,3.52,0,0,0-1-1.63,2.65,2.65,0,0,0-1.76-.59,2.61,2.61,0,0,0-2.27,1.09,5.34,5.34,0,0,0-.78,3.13,7.68,7.68,0,0,0,.35,2.38,3.67,3.67,0,0,0,1,1.67A2.48,2.48,0,0,0,942,331a2.63,2.63,0,0,0,2.28-1.13,5.53,5.53,0,0,0,.78-3.18A7.43,7.43,0,0,0,944.67,324.33Z"/><path class="cls-8" d="M957.16,320.61a4.06,4.06,0,0,1,1.16.43l-.38,1.94a3.21,3.21,0,0,0-1.16-.56,6.11,6.11,0,0,0-1.59-.18,3.45,3.45,0,0,0-1.72.45,3.29,3.29,0,0,0-1.29,1.43,5.28,5.28,0,0,0-.5,2.43,5.57,5.57,0,0,0,.45,2.35,3.47,3.47,0,0,0,1.24,1.49,3.15,3.15,0,0,0,1.76.5,6.43,6.43,0,0,0,1.65-.21,5.17,5.17,0,0,0,1.27-.47l.49,1.31a4.11,4.11,0,0,1-1.59.84,7.4,7.4,0,0,1-2.17.32,5.26,5.26,0,0,1-2.9-.78,5,5,0,0,1-1.85-2.14,7.15,7.15,0,0,1-.64-3.09,7.41,7.41,0,0,1,.68-3.21,5.08,5.08,0,0,1,2-2.23,6,6,0,0,1,3.24-.82A7.88,7.88,0,0,1,957.16,320.61Z"/><path class="cls-8" d="M964.49,326.84,963,328.43l0,1.84v2.4h-2.36V314.93H963v9.68l0,1.19,4.89-5.38h2.78L966,325.24l5.19,7.43h-2.69Z"/><rect class="cls-14" x="626.29" y="313.89" width="40.21" height="19.77" rx="9.88"/><path class="cls-8" d="M645.64,318.56v11.36h-1.55l-4.7-7.21-1-1.86.09,2v7.1h-1.53V318.56h1.52l4.86,7.5.92,1.68-.1-1.89v-7.29Z"/><path class="cls-8" d="M648.39,321.17a4.73,4.73,0,0,1,1.9-2,5.57,5.57,0,0,1,2.69-.65,4.87,4.87,0,0,1,2.58.68,4.48,4.48,0,0,1,1.74,1.93,6.48,6.48,0,0,1,.61,2.9,6.94,6.94,0,0,1-.68,3.2,4.62,4.62,0,0,1-1.87,2,5.4,5.4,0,0,1-2.72.67,4.74,4.74,0,0,1-2.61-.72,4.8,4.8,0,0,1-1.73-2,7.42,7.42,0,0,1,.09-6.05Zm7.45.82a3.54,3.54,0,0,0-1.12-1.58,2.79,2.79,0,0,0-1.79-.58,3.28,3.28,0,0,0-3.08,2,5.68,5.68,0,0,0-.47,2.46,5.91,5.91,0,0,0,.39,2.18,3.64,3.64,0,0,0,1.17,1.61,3,3,0,0,0,1.87.6,3.22,3.22,0,0,0,1.81-.51,3.38,3.38,0,0,0,1.19-1.53,6.37,6.37,0,0,0,.42-2.45A5.86,5.86,0,0,0,655.84,322Z"/><rect class="cls-14" x="406.29" y="313.89" width="52.21" height="19.77" rx="9.88"/><path class="cls-8" d="M425.06,325.49v4.43h-1.69v-4.43l-3.74-6.93h1.78l2.52,4.93.32.78.27-.78,2.47-4.93h1.74Z"/><path class="cls-8" d="M436.8,318.56v1.29h-4.87v3.58h3.57v1.28h-3.57v3.91h5.42v1.3h-7.08V318.56Z"/><path class="cls-8" d="M439.22,327.91a4.52,4.52,0,0,0,1.2.49,5.45,5.45,0,0,0,1.48.21,3.17,3.17,0,0,0,1.68-.37,1.29,1.29,0,0,0,.58-1.17,1.44,1.44,0,0,0-.28-.9,2.41,2.41,0,0,0-.77-.66c-.33-.2-.82-.45-1.46-.76a7,7,0,0,1-2-1.41,2.69,2.69,0,0,1-.8-1.93,2.44,2.44,0,0,1,.54-1.64,3,3,0,0,1,1.39-.93,5.79,5.79,0,0,1,1.85-.28,6.7,6.7,0,0,1,1.6.17,3.59,3.59,0,0,1,1,.42l-.33,1.35a3.94,3.94,0,0,0-1-.47,4.39,4.39,0,0,0-1.33-.17,3.62,3.62,0,0,0-1.06.15,1.88,1.88,0,0,0-.8.45,1.07,1.07,0,0,0-.31.76,1.72,1.72,0,0,0,.22.89,2.2,2.2,0,0,0,.67.65,14.74,14.74,0,0,0,1.37.76,14.45,14.45,0,0,1,1.6.91,3.93,3.93,0,0,1,1.1,1.05,2.36,2.36,0,0,1,.45,1.43,2.87,2.87,0,0,1-.48,1.68,2.81,2.81,0,0,1-1.32,1,5.5,5.5,0,0,1-2,.33,9.38,9.38,0,0,1-2.49-.36,3,3,0,0,1-.69-.29Z"/></svg>