<svg id="Layer_1" data-name="Layer 1" xmlns="http://www.w3.org/2000/svg" viewBox="0 0 1369 939"><defs><style>.cls-1{fill:#e8ebf0;}.cls-2,.cls-7{fill:#fff;}.cls-2,.cls-5{stroke:#0c80f4;}.cls-12,.cls-2,.cls-5{stroke-miterlimit:10;stroke-width:3px;}.cls-2{stroke-dasharray:3 3;}.cls-3{fill:#f6f8f8;}.cls-4{fill:#cad3e0;}.cls-12,.cls-5{fill:none;}.cls-6{fill:#0c80f4;}.cls-8{fill:#2b7ad8;}.cls-9{fill:#27d798;}.cls-10,.cls-11{fill:#0f6df7;}.cls-10{opacity:0.22;}.cls-11{opacity:0.11;}.cls-12{stroke:#2970d6;}.cls-13{fill:#274382;}</style></defs><rect class="cls-1" x="473.89" y="331.68" width="144.11" height="171.32" rx="9.9"/><rect class="cls-1" x="77.93" y="619" width="359.92" height="252" transform="translate(515.79 1490) rotate(180)"/><line class="cls-2" x1="1066" y1="146.5" x2="1084" y2="146.5"/><rect class="cls-3" x="72.08" y="74" width="359.92" height="468" transform="translate(504.08 616) rotate(180)"/><rect class="cls-4" x="149" y="329" width="216" height="72" rx="8.3"/><rect class="cls-4" x="149" y="438" width="216" height="72" rx="8.3"/><line class="cls-5" x1="361" y1="470.5" x2="460.39" y2="470.5"/><polygon class="cls-6" points="458.64 476.48 469 470.5 458.64 464.52 458.64 476.48"/><line class="cls-7" x1="251.5" y1="506" x2="252.5" y2="615"/><line class="cls-5" x1="251.5" y1="506" x2="252.42" y2="606.39"/><polygon class="cls-6" points="246.42 604.69 252.5 615 258.39 604.58 246.42 604.69"/><line class="cls-5" x1="73" y1="757.5" x2="8.61" y2="757.5"/><polygon class="cls-6" points="10.36 751.52 0 757.5 10.36 763.48 10.36 751.52"/><line class="cls-5" x1="469" y1="362.5" x2="369.61" y2="362.5"/><polygon class="cls-6" points="371.36 356.52 361 362.5 371.36 368.48 371.36 356.52"/><rect class="cls-8" x="108" y="110" width="288" height="72" rx="8.3"/><path class="cls-7" d="M159.66,138.32v16.35h-2.42V138.32Z"/><path class="cls-7" d="M165.45,142.42v1.44a9.85,9.85,0,0,1,2.08-1,7,7,0,0,1,2.37-.45,3.82,3.82,0,0,1,2,.47,2.69,2.69,0,0,1,1.1,1.49,9.37,9.37,0,0,1,.34,2.78v7.52H171v-7.5a6.28,6.28,0,0,0-.17-1.61,1.49,1.49,0,0,0-.59-.89,2.15,2.15,0,0,0-1.24-.29h-.29a4,4,0,0,0-1.48.34,6.54,6.54,0,0,0-1.53.9v9h-2.36V142.42Z"/><path class="cls-7" d="M184.74,143a4.49,4.49,0,0,1,1.75,1.92,6.74,6.74,0,0,1,.65,3.13,7.42,7.42,0,0,1-.76,3.42,5.64,5.64,0,0,1-2.18,2.33,6.2,6.2,0,0,1-3.23.84,10.61,10.61,0,0,1-1.71-.15,14.08,14.08,0,0,1-1.62-.36,4.46,4.46,0,0,1-1-.37V136.93H179V142l-.08,1.72a4.83,4.83,0,0,1,1.36-1,4.48,4.48,0,0,1,2-.39A4.79,4.79,0,0,1,184.74,143Zm-.79,2.23a2.74,2.74,0,0,0-2.29-1,3.45,3.45,0,0,0-1.45.3,6,6,0,0,0-1.18.73v7.23a4.29,4.29,0,0,0,2.21.41,3.13,3.13,0,0,0,1.8-.54,3.52,3.52,0,0,0,1.25-1.58,6.38,6.38,0,0,0,.45-2.52A4.86,4.86,0,0,0,184,145.27Z"/><path class="cls-7" d="M189.86,145.17a4.89,4.89,0,0,1,2-2.06,5.79,5.79,0,0,1,2.88-.7,5.24,5.24,0,0,1,3.06.84,4.83,4.83,0,0,1,1.76,2.24,8.51,8.51,0,0,1,.56,3.16,6.87,6.87,0,0,1-.72,3.27,4.83,4.83,0,0,1-2,2.06,5.83,5.83,0,0,1-2.89.7,5.2,5.2,0,0,1-3-.84,4.83,4.83,0,0,1-1.76-2.24,8.51,8.51,0,0,1-.56-3.16A6.87,6.87,0,0,1,189.86,145.17Zm7.51,1.16a3.52,3.52,0,0,0-1-1.63,2.65,2.65,0,0,0-1.75-.59,2.62,2.62,0,0,0-2.28,1.09,5.34,5.34,0,0,0-.77,3.13,7.69,7.69,0,0,0,.34,2.38,3.85,3.85,0,0,0,1,1.68,2.52,2.52,0,0,0,1.73.61,2.58,2.58,0,0,0,2.28-1.13,5.53,5.53,0,0,0,.78-3.18A7.43,7.43,0,0,0,197.37,146.33Z"/><path class="cls-7" d="M212.41,142.42v12.26h-.92a2.33,2.33,0,0,1-.66-.07.59.59,0,0,1-.38-.27,1.1,1.1,0,0,1-.14-.61v-.3a9.85,9.85,0,0,1-1.93.88,6.48,6.48,0,0,1-2,.37,3.61,3.61,0,0,1-2.29-.63,3,3,0,0,1-1.07-1.73,11.76,11.76,0,0,1-.28-2.84v-7.06h2.36v7a7.64,7.64,0,0,0,.22,2.16,1.37,1.37,0,0,0,.68.9,3.31,3.31,0,0,0,1.34.21,4.69,4.69,0,0,0,1.46-.27,6,6,0,0,0,1.27-.57v-9.47Z"/><path class="cls-7" d="M217.93,142.42v1.44a9.85,9.85,0,0,1,2.08-1,7,7,0,0,1,2.37-.45,3.8,3.8,0,0,1,2,.47,2.69,2.69,0,0,1,1.1,1.49,9.37,9.37,0,0,1,.34,2.78v7.52h-2.36v-7.5a6.84,6.84,0,0,0-.16-1.61,1.55,1.55,0,0,0-.6-.89,2.15,2.15,0,0,0-1.24-.29h-.29a4,4,0,0,0-1.48.34,6.54,6.54,0,0,0-1.53.9v9h-2.36V142.42Z"/><path class="cls-7" d="M238.92,136.93v17.75h-1a2.4,2.4,0,0,1-.67-.07.66.66,0,0,1-.4-.27,1,1,0,0,1-.15-.61v-.44a4.77,4.77,0,0,1-1.37,1,4.48,4.48,0,0,1-2,.4,4.63,4.63,0,0,1-2.42-.64,4.52,4.52,0,0,1-1.75-1.91,6.83,6.83,0,0,1-.65-3.15,7.41,7.41,0,0,1,.76-3.41,5.63,5.63,0,0,1,2.15-2.33,6.2,6.2,0,0,1,3.22-.83,6.73,6.73,0,0,1,2,.3l0-.66v-5.12Zm-7.27,14.89a2.73,2.73,0,0,0,2.28,1,3.69,3.69,0,0,0,1.46-.28,5.42,5.42,0,0,0,1.17-.66v-7.14a1.92,1.92,0,0,0-.86-.46,5.13,5.13,0,0,0-1.35-.15,3.12,3.12,0,0,0-1.79.54,3.55,3.55,0,0,0-1.25,1.59,6.38,6.38,0,0,0-.45,2.52A4.85,4.85,0,0,0,231.65,151.82Z"/><path class="cls-7" d="M265.61,142.87a2.65,2.65,0,0,1,1.13,1.47,8.62,8.62,0,0,1,.36,2.76v7.57h-2.37v-7.49a6.46,6.46,0,0,0-.17-1.65,1.37,1.37,0,0,0-.65-.87,2.86,2.86,0,0,0-1.41-.28,4.34,4.34,0,0,0-1.48.29,6,6,0,0,0-1.52.77,11.75,11.75,0,0,1,.1,1.66v7.57h-2.37v-7.49a6.46,6.46,0,0,0-.17-1.65,1.41,1.41,0,0,0-.66-.87,2.82,2.82,0,0,0-1.4-.28,4.16,4.16,0,0,0-1.48.33,5.9,5.9,0,0,0-1.53.91v9h-2.36V142.42h2.1l0,1.43a9.52,9.52,0,0,1,2-1,6.09,6.09,0,0,1,2.24-.45,4.84,4.84,0,0,1,2,.34,2.36,2.36,0,0,1,1.15,1.14,8.32,8.32,0,0,1,2.07-1,7.34,7.34,0,0,1,2.42-.44A3.9,3.9,0,0,1,265.61,142.87Z"/><path class="cls-7" d="M279.7,148.1a5.62,5.62,0,0,1-.1.8h-7.55s0,.12,0,.21c.12,2.52,1.36,3.78,3.74,3.78a8,8,0,0,0,1.63-.2,5.08,5.08,0,0,0,1.42-.46l.45,1.35a4.67,4.67,0,0,1-1.8.79,9.19,9.19,0,0,1-2.34.31,5.67,5.67,0,0,1-2.94-.73,4.63,4.63,0,0,1-1.85-2.12,8,8,0,0,1-.63-3.32,7.46,7.46,0,0,1,.63-3.14,4.9,4.9,0,0,1,1.85-2.17,5.4,5.4,0,0,1,3-.79,5,5,0,0,1,2.24.5,3.89,3.89,0,0,1,1.62,1.5,4.93,4.93,0,0,1,.65,2.41C279.72,147.37,279.71,147.79,279.7,148.1Zm-2.17-1.23a3.35,3.35,0,0,0-.56-2,2.16,2.16,0,0,0-1.89-.77,2.75,2.75,0,0,0-2,.76,4,4,0,0,0-1,2.48h5.39C277.52,147.12,277.53,147,277.53,146.87Z"/><path class="cls-7" d="M282.84,152.4a9.5,9.5,0,0,0,1.28.37,7.23,7.23,0,0,0,1.45.16,2.85,2.85,0,0,0,1.62-.39,1.23,1.23,0,0,0,.56-1.07,1.37,1.37,0,0,0-.64-1.13,9.06,9.06,0,0,0-1.88-1,7.36,7.36,0,0,1-2.52-1.56,3.06,3.06,0,0,1-.9-2.26,2.55,2.55,0,0,1,.59-1.72,3.54,3.54,0,0,1,1.58-1.06,6.92,6.92,0,0,1,2.26-.35,7.88,7.88,0,0,1,1.85.21,6.52,6.52,0,0,1,1.25.42L289,144.9a2.79,2.79,0,0,0-1.06-.52,5.54,5.54,0,0,0-1.58-.23,3.45,3.45,0,0,0-1.72.35,1.09,1.09,0,0,0-.6,1,1.5,1.5,0,0,0,.27.9,2.57,2.57,0,0,0,.78.66,11.91,11.91,0,0,0,1.33.6,8.87,8.87,0,0,1,2.57,1.49,2.79,2.79,0,0,1,1,2.23,3,3,0,0,1-.52,1.81,3.13,3.13,0,0,1-1.49,1.13,6.21,6.21,0,0,1-2.31.39,9.86,9.86,0,0,1-2.31-.27,4.71,4.71,0,0,1-1.58-.6l.35-1.76A4.6,4.6,0,0,0,282.84,152.4Z"/><path class="cls-7" d="M293,152.4a9.33,9.33,0,0,0,1.27.37,7.31,7.31,0,0,0,1.45.16,2.81,2.81,0,0,0,1.62-.39,1.22,1.22,0,0,0,.57-1.07,1.4,1.4,0,0,0-.64-1.13,9.46,9.46,0,0,0-1.89-1,7.56,7.56,0,0,1-2.52-1.56,3.05,3.05,0,0,1-.89-2.26,2.59,2.59,0,0,1,.58-1.72,3.59,3.59,0,0,1,1.58-1.06,6.92,6.92,0,0,1,2.26-.35,7.91,7.91,0,0,1,1.86.21,6.79,6.79,0,0,1,1.25.42l-.39,1.86a2.88,2.88,0,0,0-1.06-.52,5.59,5.59,0,0,0-1.58-.23,3.5,3.5,0,0,0-1.73.35,1.08,1.08,0,0,0-.59,1,1.5,1.5,0,0,0,.27.9,2.35,2.35,0,0,0,.78.66,12.52,12.52,0,0,0,1.32.6,8.8,8.8,0,0,1,2.58,1.49,2.82,2.82,0,0,1,1,2.23,3.12,3.12,0,0,1-.52,1.81,3.16,3.16,0,0,1-1.5,1.13,6.12,6.12,0,0,1-2.3.39,9.89,9.89,0,0,1-2.32-.27,4.9,4.9,0,0,1-1.58-.6l.35-1.76A4.41,4.41,0,0,0,293,152.4Z"/><path class="cls-7" d="M309.51,142.72a2.72,2.72,0,0,1,1.47,1.15,4.36,4.36,0,0,1,.53,2.34v8.47h-1a2.75,2.75,0,0,1-.73-.07.64.64,0,0,1-.39-.3,1.57,1.57,0,0,1-.13-.75v-.09a4.51,4.51,0,0,1-1.48.85,5.45,5.45,0,0,1-2,.36,4.32,4.32,0,0,1-1.94-.42,3.1,3.1,0,0,1-1.33-1.2,3.42,3.42,0,0,1-.48-1.83,3.3,3.3,0,0,1,.63-2,4.07,4.07,0,0,1,1.75-1.31,11.43,11.43,0,0,1,2.26-.6,15.91,15.91,0,0,1,2.41-.19V146a2,2,0,0,0-.28-1.16,1.32,1.32,0,0,0-.82-.52,6.6,6.6,0,0,0-1.51-.14,6.84,6.84,0,0,0-1.19.13,10.52,10.52,0,0,0-1.26.32,3.87,3.87,0,0,0-.86.37l-.58-1.47a5.64,5.64,0,0,1,1-.44,13.21,13.21,0,0,1,1.68-.48,8.25,8.25,0,0,1,1.81-.21A7.59,7.59,0,0,1,309.51,142.72Zm-1.9,10.05a5.3,5.3,0,0,0,1-.36,1.91,1.91,0,0,0,.56-.36v-3.43a11.73,11.73,0,0,0-1.77.15,5.78,5.78,0,0,0-1.59.44,3.1,3.1,0,0,0-1,.73,1.66,1.66,0,0,0-.35,1.09c0,1.26.7,1.89,2.12,1.89A4.1,4.1,0,0,0,307.61,152.77Z"/><path class="cls-7" d="M325.62,144.38h-2.24a3.81,3.81,0,0,1,.55,2,3.67,3.67,0,0,1-.65,2.18,4,4,0,0,1-1.76,1.38,6.51,6.51,0,0,1-2.52.46,5.57,5.57,0,0,1-1.34-.14,1.71,1.71,0,0,0-.49.57,1.43,1.43,0,0,0-.19.71,1.23,1.23,0,0,0,.3,1,1.69,1.69,0,0,0,1.09.27h2.23a5.07,5.07,0,0,1,3.52.94,3.18,3.18,0,0,1,1,2.43,3,3,0,0,1-.8,2.07,5.22,5.22,0,0,1-2.14,1.38,8.83,8.83,0,0,1-3,.48,6.91,6.91,0,0,1-3.78-.88,3,3,0,0,1-1.36-2.66,2.26,2.26,0,0,1,.51-1.46,4,4,0,0,1,1.2-1,2,2,0,0,1-.94-1.82,2.58,2.58,0,0,1,.4-1.32,3.79,3.79,0,0,1,1.1-1.16,3.9,3.9,0,0,1-1.55-1.37,3.42,3.42,0,0,1-.56-1.94,3.85,3.85,0,0,1,.64-2.27,3.78,3.78,0,0,1,1.77-1.36,6.8,6.8,0,0,1,2.56-.45,5.6,5.6,0,0,1,3,.74,3.69,3.69,0,0,1,1-.53,4,4,0,0,1,1.26-.21h1.19Zm-8.48,10.21a2.38,2.38,0,0,0-.58.7,2.09,2.09,0,0,0-.21,1A2,2,0,0,0,317,158a3.55,3.55,0,0,0,2.2.54,7.29,7.29,0,0,0,1.8-.21,3.37,3.37,0,0,0,1.32-.61,1.24,1.24,0,0,0,.49-1,2.19,2.19,0,0,0-.25-1.12,1.59,1.59,0,0,0-.91-.66,5.77,5.77,0,0,0-1.87-.23h-1.09A13.47,13.47,0,0,1,317.14,154.59Zm3.79-6.27a2.32,2.32,0,0,0,.64-1.87,2.53,2.53,0,0,0-.6-1.82,2.42,2.42,0,0,0-1.81-.62,3.09,3.09,0,0,0-1.89.53,2.14,2.14,0,0,0-.71,1.86,2.53,2.53,0,0,0,.61,1.76,2.41,2.41,0,0,0,1.88.7A2.83,2.83,0,0,0,320.93,148.32Z"/><path class="cls-7" d="M336.74,148.1a5.62,5.62,0,0,1-.1.8h-7.55a1.22,1.22,0,0,1,0,.21q.18,3.78,3.74,3.78a8,8,0,0,0,1.63-.2,5.08,5.08,0,0,0,1.42-.46l.45,1.35a4.62,4.62,0,0,1-1.79.79,9.32,9.32,0,0,1-2.35.31,5.67,5.67,0,0,1-2.94-.73,4.63,4.63,0,0,1-1.85-2.12,8,8,0,0,1-.63-3.32,7.46,7.46,0,0,1,.63-3.14,5,5,0,0,1,1.86-2.17,5.36,5.36,0,0,1,3-.79,5,5,0,0,1,2.24.5,3.83,3.83,0,0,1,1.62,1.5,4.93,4.93,0,0,1,.65,2.41C336.76,147.37,336.75,147.79,336.74,148.1Zm-2.17-1.23a3.35,3.35,0,0,0-.56-2,2.16,2.16,0,0,0-1.89-.77,2.71,2.71,0,0,0-2,.76,4,4,0,0,0-1,2.48h5.4C334.56,147.12,334.57,147,334.57,146.87Z"/><path class="cls-7" d="M339.88,152.4a9.5,9.5,0,0,0,1.28.37,7.23,7.23,0,0,0,1.45.16,2.85,2.85,0,0,0,1.62-.39,1.23,1.23,0,0,0,.56-1.07,1.37,1.37,0,0,0-.64-1.13,9.33,9.33,0,0,0-1.88-1,7.36,7.36,0,0,1-2.52-1.56,3.06,3.06,0,0,1-.9-2.26,2.55,2.55,0,0,1,.59-1.72,3.54,3.54,0,0,1,1.58-1.06,6.92,6.92,0,0,1,2.26-.35,7.88,7.88,0,0,1,1.85.21,6.52,6.52,0,0,1,1.25.42L346,144.9a2.79,2.79,0,0,0-1.06-.52,5.59,5.59,0,0,0-1.58-.23,3.45,3.45,0,0,0-1.72.35,1.09,1.09,0,0,0-.6,1,1.5,1.5,0,0,0,.27.9,2.57,2.57,0,0,0,.78.66,12.52,12.52,0,0,0,1.32.6,8.8,8.8,0,0,1,2.58,1.49,2.79,2.79,0,0,1,1,2.23,3,3,0,0,1-.52,1.81,3.13,3.13,0,0,1-1.49,1.13,6.21,6.21,0,0,1-2.31.39,9.86,9.86,0,0,1-2.31-.27,4.88,4.88,0,0,1-1.59-.6l.36-1.76A4.22,4.22,0,0,0,339.88,152.4Z"/><rect class="cls-9" x="467.89" y="325.68" width="144.11" height="171.32" rx="9.9"/><path class="cls-7" d="M515.26,367.91a6.64,6.64,0,0,0,1.73.71,8.2,8.2,0,0,0,2.12.29,4.51,4.51,0,0,0,2.43-.54,1.85,1.85,0,0,0,.83-1.68,2.09,2.09,0,0,0-.41-1.29,3.54,3.54,0,0,0-1.11-1q-.71-.42-2.1-1.08a10,10,0,0,1-3-2,3.86,3.86,0,0,1-1.14-2.77,3.52,3.52,0,0,1,.77-2.37,4.31,4.31,0,0,1,2-1.33,8.38,8.38,0,0,1,2.66-.41,9.6,9.6,0,0,1,2.31.25,5.21,5.21,0,0,1,1.49.6l-.48,1.94a5.44,5.44,0,0,0-3.35-.91,5.39,5.39,0,0,0-1.53.21,2.75,2.75,0,0,0-1.15.65,1.52,1.52,0,0,0-.44,1.1,2.46,2.46,0,0,0,.31,1.27,3.12,3.12,0,0,0,1,.94,20.34,20.34,0,0,0,2,1.09,25.41,25.41,0,0,1,2.3,1.31,6.14,6.14,0,0,1,1.58,1.51,3.43,3.43,0,0,1,.64,2.06,4.16,4.16,0,0,1-.68,2.42,4.08,4.08,0,0,1-1.91,1.45,7.79,7.79,0,0,1-2.86.48,12.42,12.42,0,0,1-1.95-.15,12.58,12.58,0,0,1-1.63-.36,4.64,4.64,0,0,1-1-.42Z"/><path class="cls-7" d="M527.28,360.34h-1.59v-1.28l.39-.11.73-.24a1.3,1.3,0,0,0,.41-.28,1.14,1.14,0,0,0,.29-.47c.1-.29.26-.8.47-1.55l.24-.81h1.41v2.95h3.46v1.79h-3.46v6.08a10.6,10.6,0,0,0,.1,1.7.89.89,0,0,0,.36.65,1.94,1.94,0,0,0,.9.15,5.86,5.86,0,0,0,1.12-.14,4.25,4.25,0,0,0,1-.31l.41,1.34a5.22,5.22,0,0,1-1.51.7,6.39,6.39,0,0,1-1.87.3,3,3,0,0,1-2.09-.66,3.14,3.14,0,0,1-.74-2.4Z"/><path class="cls-7" d="M542.38,358.86a2.73,2.73,0,0,1,1.48,1.14,4.41,4.41,0,0,1,.52,2.34v8.47h-1a3.24,3.24,0,0,1-.73-.06.65.65,0,0,1-.39-.3,1.6,1.6,0,0,1-.14-.76v-.08a4.58,4.58,0,0,1-1.48.85,5.62,5.62,0,0,1-2,.35,4.35,4.35,0,0,1-1.94-.42,3.2,3.2,0,0,1-1.33-1.19,3.43,3.43,0,0,1-.48-1.84,3.3,3.3,0,0,1,.63-2,4.1,4.1,0,0,1,1.76-1.31,10.63,10.63,0,0,1,2.26-.59,15.74,15.74,0,0,1,2.4-.2v-1.11a2,2,0,0,0-.27-1.16,1.42,1.42,0,0,0-.83-.52,6.64,6.64,0,0,0-1.51-.13,6.14,6.14,0,0,0-1.19.13,8.77,8.77,0,0,0-1.25.32,4.31,4.31,0,0,0-.87.36l-.58-1.47a6.73,6.73,0,0,1,1-.44,13,13,0,0,1,1.67-.48,8.32,8.32,0,0,1,1.81-.21A7.52,7.52,0,0,1,542.38,358.86Zm-1.9,10a5.41,5.41,0,0,0,1-.36,2,2,0,0,0,.55-.36v-3.43a12,12,0,0,0-1.77.15,5.8,5.8,0,0,0-1.58.44,2.9,2.9,0,0,0-1,.73,1.63,1.63,0,0,0-.36,1.09c0,1.26.71,1.89,2.12,1.89A4,4,0,0,0,540.48,368.9Z"/><path class="cls-7" d="M548.1,360.34h-1.59v-1.28l.38-.11.73-.24a1.34,1.34,0,0,0,.42-.28,1.25,1.25,0,0,0,.28-.47c.11-.29.27-.8.47-1.55l.24-.81h1.42v2.95h3.46v1.79h-3.46v6.08a10.93,10.93,0,0,0,.09,1.7.92.92,0,0,0,.36.65,2,2,0,0,0,.9.15,5.77,5.77,0,0,0,1.12-.14,4.37,4.37,0,0,0,1-.31l.4,1.34a5.22,5.22,0,0,1-1.51.7,6.39,6.39,0,0,1-1.87.3,3,3,0,0,1-2.08-.66,3.1,3.1,0,0,1-.74-2.4Z"/><path class="cls-7" d="M565.41,364.23a4.53,4.53,0,0,1-.09.8h-7.55c0,.05,0,.12,0,.22Q558,369,561.51,369a8.23,8.23,0,0,0,1.64-.21,4.77,4.77,0,0,0,1.42-.46l.45,1.36a4.9,4.9,0,0,1-1.8.79,9.63,9.63,0,0,1-2.34.3,5.58,5.58,0,0,1-2.94-.73,4.61,4.61,0,0,1-1.85-2.11,8,8,0,0,1-.63-3.33,7.65,7.65,0,0,1,.62-3.14,5,5,0,0,1,1.86-2.16,5.39,5.39,0,0,1,3-.8,5,5,0,0,1,2.25.5,4,4,0,0,1,1.62,1.5,4.93,4.93,0,0,1,.65,2.41C565.44,363.5,565.43,363.93,565.41,364.23ZM563.24,363a3.39,3.39,0,0,0-.55-2,2.19,2.19,0,0,0-1.9-.77,2.75,2.75,0,0,0-2,.77,4,4,0,0,0-1,2.47h5.39A4.4,4.4,0,0,0,563.24,363Z"/><rect class="cls-10" x="524.69" y="400.98" width="39.62" height="39.62" transform="translate(29.81 -35.98) rotate(3.89)"/><rect class="cls-11" x="528.95" y="405.49" width="39.62" height="39.62" transform="matrix(0.99, 0.13, -0.13, 0.99, 61.6, -69.36)"/><rect class="cls-12" x="520.42" y="396.46" width="39.62" height="39.62"/><rect class="cls-1" x="144" y="218" width="216" height="72" rx="8.3"/><rect class="cls-1" x="144" y="324" width="216" height="72" rx="8.3"/><path class="cls-13" d="M168.85,248.17v-1.85H181.5v1.85h-5.13v14.5H174v-14.5Z"/><path class="cls-13" d="M191.71,250.42l-4.12,12.63c-.92,2.8-2.2,4.44-3.85,4.9a5.3,5.3,0,0,1-.58.12,4.24,4.24,0,0,1-.58,0,6.68,6.68,0,0,1-.7,0,1.68,1.68,0,0,1-.5-.11V266a2.72,2.72,0,0,0,.49.09l.54,0a2.6,2.6,0,0,0,1.13-.29,3.27,3.27,0,0,0,1.16-1.07,6.24,6.24,0,0,0,.88-2.13h-.7l-4.44-12.25H183l2.71,8.25.62,2,.55-2,2.32-8.25Z"/><path class="cls-13" d="M201.74,251a4.55,4.55,0,0,1,1.75,1.92,6.78,6.78,0,0,1,.66,3.14,7.42,7.42,0,0,1-.77,3.42,5.63,5.63,0,0,1-2.15,2.33,6.2,6.2,0,0,1-3.22.83,6.42,6.42,0,0,1-2-.31l0,1.68v4.05h-2.37V250.42h2.14v1.45a5.61,5.61,0,0,1,1.4-1,4.5,4.5,0,0,1,2.1-.42A4.79,4.79,0,0,1,201.74,251Zm-.79,2.23a2.74,2.74,0,0,0-2.29-1,3.31,3.31,0,0,0-1.45.31,5.3,5.3,0,0,0-1.17.74v7.12a2.21,2.21,0,0,0,.86.4,6.2,6.2,0,0,0,1.34.12,3.13,3.13,0,0,0,1.8-.54,3.58,3.58,0,0,0,1.25-1.58,6.4,6.4,0,0,0,.45-2.53A4.83,4.83,0,0,0,201,253.27Z"/><path class="cls-13" d="M216.1,256.1a4.47,4.47,0,0,1-.1.8h-7.55a1.22,1.22,0,0,1,0,.21q.18,3.78,3.74,3.78a8,8,0,0,0,1.63-.2,5.08,5.08,0,0,0,1.42-.46l.45,1.35a4.62,4.62,0,0,1-1.79.79,9.19,9.19,0,0,1-2.34.31,5.68,5.68,0,0,1-2.95-.73,4.61,4.61,0,0,1-1.84-2.12,7.8,7.8,0,0,1-.64-3.32,7.46,7.46,0,0,1,.63-3.14,5,5,0,0,1,1.86-2.17,5.36,5.36,0,0,1,3-.79,5.09,5.09,0,0,1,2.25.5,3.81,3.81,0,0,1,1.61,1.5,4.82,4.82,0,0,1,.65,2.41C216.12,255.37,216.11,255.79,216.1,256.1Zm-2.17-1.23a3.34,3.34,0,0,0-.55-2,2.16,2.16,0,0,0-1.9-.77,2.74,2.74,0,0,0-2,.76,4,4,0,0,0-1,2.48h5.39C213.92,255.12,213.93,255,213.93,254.87Z"/><path class="cls-13" d="M235.71,244.93v17.75h-1a2.5,2.5,0,0,1-.67-.07.61.61,0,0,1-.39-.27,1,1,0,0,1-.15-.61v-.44a5.06,5.06,0,0,1-1.37,1,4.48,4.48,0,0,1-2,.4,4.69,4.69,0,0,1-2.43-.64,4.5,4.5,0,0,1-1.74-1.91,6.83,6.83,0,0,1-.66-3.15,7.54,7.54,0,0,1,.76-3.41,5.66,5.66,0,0,1,2.16-2.33,6.2,6.2,0,0,1,3.22-.83,6.66,6.66,0,0,1,2,.3l0-.66v-5.12Zm-7.27,14.89a2.71,2.71,0,0,0,2.28,1,3.72,3.72,0,0,0,1.46-.28,5.58,5.58,0,0,0,1.16-.66v-7.14a1.82,1.82,0,0,0-.86-.46,5.05,5.05,0,0,0-1.34-.15,3.1,3.1,0,0,0-1.79.54,3.55,3.55,0,0,0-1.25,1.59,6.38,6.38,0,0,0-.45,2.52A4.85,4.85,0,0,0,228.44,259.82Z"/><path class="cls-13" d="M248.32,256.1a5.62,5.62,0,0,1-.1.8h-7.55a1.22,1.22,0,0,1,0,.21q.18,3.78,3.74,3.78a8,8,0,0,0,1.63-.2,5.08,5.08,0,0,0,1.42-.46l.45,1.35a4.62,4.62,0,0,1-1.79.79,9.24,9.24,0,0,1-2.34.31,5.68,5.68,0,0,1-2.95-.73,4.69,4.69,0,0,1-1.85-2.12,8,8,0,0,1-.63-3.32,7.46,7.46,0,0,1,.63-3.14,5,5,0,0,1,1.86-2.17,5.36,5.36,0,0,1,3-.79,5,5,0,0,1,2.24.5,3.78,3.78,0,0,1,1.62,1.5,4.93,4.93,0,0,1,.65,2.41C248.34,255.37,248.33,255.79,248.32,256.1Zm-2.17-1.23a3.42,3.42,0,0,0-.55-2,2.18,2.18,0,0,0-1.9-.77,2.71,2.71,0,0,0-2,.76,4,4,0,0,0-1,2.48h5.4C246.14,255.12,246.15,255,246.15,254.87Z"/><path class="cls-13" d="M249.93,252.2v-1.31l1.86-.47v-1.06a5.18,5.18,0,0,1,.66-2.78,3.79,3.79,0,0,1,1.67-1.52,5,5,0,0,1,2.11-.46,5.14,5.14,0,0,1,.88.07,3.89,3.89,0,0,1,.64.16v1.87a3.85,3.85,0,0,0-.74-.16,10.31,10.31,0,0,0-1.1,0,1.56,1.56,0,0,0-1.28.6,2.78,2.78,0,0,0-.47,1.73v1.6h3v1.78h-3v10.47h-2.37V252.2Z"/><path class="cls-13" d="M259.82,245.91a1.84,1.84,0,0,1,.66-.61,1.74,1.74,0,0,1,.83-.23,1.48,1.48,0,0,1,1.12.41,1.41,1.41,0,0,1,.4,1,1.6,1.6,0,0,1-.25.86,1.7,1.7,0,0,1-.65.6,1.65,1.65,0,0,1-.84.22,1.61,1.61,0,0,1-.76-.18,1.42,1.42,0,0,1-.55-.51,1.4,1.4,0,0,1-.21-.76A1.58,1.58,0,0,1,259.82,245.91Zm2.57,4.51v12.25H260V250.42Z"/><path class="cls-13" d="M268,250.42v1.44a9.85,9.85,0,0,1,2.08-1,6.89,6.89,0,0,1,2.37-.45,3.85,3.85,0,0,1,2,.47,2.68,2.68,0,0,1,1.09,1.49,9,9,0,0,1,.34,2.78v7.52h-2.36v-7.5a6.34,6.34,0,0,0-.16-1.61,1.54,1.54,0,0,0-.59-.89,2.18,2.18,0,0,0-1.25-.29h-.29a3.86,3.86,0,0,0-1.47.34,6.16,6.16,0,0,0-1.53.9v9.05H265.9V250.42Z"/><path class="cls-13" d="M279.15,245.91a1.84,1.84,0,0,1,.66-.61,1.71,1.71,0,0,1,.83-.23,1.5,1.5,0,0,1,1.12.41,1.44,1.44,0,0,1,.39,1,1.59,1.59,0,0,1-.24.86,1.81,1.81,0,0,1-1.5.82,1.6,1.6,0,0,1-.75-.18,1.42,1.42,0,0,1-.55-.51,1.4,1.4,0,0,1-.21-.76A1.5,1.5,0,0,1,279.15,245.91Zm2.56,4.51v12.25h-2.36V250.42Z"/><path class="cls-13" d="M285.71,252.2h-1.59v-1.27l.38-.12a6.89,6.89,0,0,0,.73-.24,1.17,1.17,0,0,0,.42-.27,1.24,1.24,0,0,0,.28-.48c.11-.28.27-.8.48-1.54l.23-.81h1.42v2.95h3.46v1.78h-3.46v6.09a9.52,9.52,0,0,0,.1,1.7.86.86,0,0,0,.36.65,1.89,1.89,0,0,0,.89.15,5.25,5.25,0,0,0,1.13-.15,4.94,4.94,0,0,0,1-.3l.41,1.34a5.1,5.1,0,0,1-1.51.69,6.16,6.16,0,0,1-1.88.31,3,3,0,0,1-2.08-.66,3.1,3.1,0,0,1-.74-2.4Z"/><path class="cls-13" d="M293.93,245.91a1.84,1.84,0,0,1,.66-.61,1.74,1.74,0,0,1,.83-.23,1.48,1.48,0,0,1,1.12.41,1.45,1.45,0,0,1,.4,1,1.6,1.6,0,0,1-.25.86,1.7,1.7,0,0,1-.65.6,1.65,1.65,0,0,1-.84.22,1.61,1.61,0,0,1-.76-.18,1.42,1.42,0,0,1-.55-.51,1.4,1.4,0,0,1-.21-.76A1.5,1.5,0,0,1,293.93,245.91Zm2.57,4.51v12.25h-2.37V250.42Z"/><path class="cls-13" d="M299.94,253.17a4.93,4.93,0,0,1,2-2.06,5.85,5.85,0,0,1,2.88-.7,5.21,5.21,0,0,1,3.06.84,4.85,4.85,0,0,1,1.77,2.24,8.52,8.52,0,0,1,.55,3.16,6.87,6.87,0,0,1-.72,3.27,4.81,4.81,0,0,1-2,2.06,5.86,5.86,0,0,1-2.89.7,5.2,5.2,0,0,1-3-.84,4.83,4.83,0,0,1-1.76-2.24,8.32,8.32,0,0,1-.56-3.16A6.87,6.87,0,0,1,299.94,253.17Zm7.51,1.16a3.46,3.46,0,0,0-1-1.63,2.9,2.9,0,0,0-4,.5,5.34,5.34,0,0,0-.78,3.13,7.68,7.68,0,0,0,.35,2.38,3.76,3.76,0,0,0,1,1.68,2.51,2.51,0,0,0,1.73.61,2.57,2.57,0,0,0,2.27-1.13,5.45,5.45,0,0,0,.79-3.18A7.43,7.43,0,0,0,307.45,254.33Z"/><path class="cls-13" d="M315,250.42v1.44a9.85,9.85,0,0,1,2.08-1,6.89,6.89,0,0,1,2.37-.45,3.85,3.85,0,0,1,2,.47,2.68,2.68,0,0,1,1.09,1.49,9,9,0,0,1,.34,2.78v7.52h-2.36v-7.5a6.34,6.34,0,0,0-.16-1.61,1.54,1.54,0,0,0-.59-.89,2.18,2.18,0,0,0-1.25-.29h-.29a3.86,3.86,0,0,0-1.47.34,6.16,6.16,0,0,0-1.53.9v9.05H312.9V250.42Z"/><path class="cls-13" d="M326.72,260.4a9.09,9.09,0,0,0,1.28.37,7.16,7.16,0,0,0,1.45.16,2.79,2.79,0,0,0,1.61-.39,1.22,1.22,0,0,0,.57-1.07,1.37,1.37,0,0,0-.64-1.13,9.46,9.46,0,0,0-1.89-1,7.56,7.56,0,0,1-2.52-1.56,3.09,3.09,0,0,1-.89-2.26,2.59,2.59,0,0,1,.58-1.72,3.57,3.57,0,0,1,1.59-1.06,6.86,6.86,0,0,1,2.25-.35,7.91,7.91,0,0,1,1.86.21,6.52,6.52,0,0,1,1.25.42l-.39,1.86a2.79,2.79,0,0,0-1.06-.52,5.59,5.59,0,0,0-1.58-.23,3.52,3.52,0,0,0-1.73.35,1.1,1.1,0,0,0-.59,1,1.5,1.5,0,0,0,.27.9,2.46,2.46,0,0,0,.78.66,12.52,12.52,0,0,0,1.32.6,8.8,8.8,0,0,1,2.58,1.49,2.82,2.82,0,0,1,1,2.23,3,3,0,0,1-.52,1.81,3.18,3.18,0,0,1-1.49,1.13,6.21,6.21,0,0,1-2.31.39,9.86,9.86,0,0,1-2.31-.27,4.88,4.88,0,0,1-1.59-.6l.36-1.76A3.89,3.89,0,0,0,326.72,260.4Z"/><rect class="cls-3" x="72.08" y="614" width="359.92" height="252" transform="translate(504.08 1480) rotate(180)"/><rect class="cls-8" x="108" y="650" width="288" height="72" rx="8.3"/><path class="cls-7" d="M147.71,682.07a6.76,6.76,0,0,1,2.73-2.82,7.89,7.89,0,0,1,3.87-.94,6.94,6.94,0,0,1,3.72,1,6.57,6.57,0,0,1,2.49,2.77,9.4,9.4,0,0,1,.89,4.19,10,10,0,0,1-1,4.6,6.66,6.66,0,0,1-2.69,2.86,7.79,7.79,0,0,1-3.93,1,6.63,6.63,0,0,1-6.23-3.9,10.52,10.52,0,0,1,.13-8.71Zm10.72,1.17a5.11,5.11,0,0,0-1.61-2.26,4,4,0,0,0-2.59-.85A4.71,4.71,0,0,0,149.8,683a8.31,8.31,0,0,0-.68,3.54,8.43,8.43,0,0,0,.57,3.14,5.32,5.32,0,0,0,1.69,2.31,4.23,4.23,0,0,0,2.68.87,4.64,4.64,0,0,0,2.61-.74,4.74,4.74,0,0,0,1.71-2.2,9.18,9.18,0,0,0,.6-3.52A8.59,8.59,0,0,0,158.43,683.24Z"/><path class="cls-7" d="M173.87,682.42v12.26H173a2.45,2.45,0,0,1-.67-.07.62.62,0,0,1-.38-.27,1.11,1.11,0,0,1-.13-.61v-.3a10.13,10.13,0,0,1-1.93.88,6.59,6.59,0,0,1-2,.37,3.63,3.63,0,0,1-2.29-.63,3.06,3.06,0,0,1-1.07-1.73,11.76,11.76,0,0,1-.28-2.84v-7.06h2.36v7a8,8,0,0,0,.22,2.16,1.4,1.4,0,0,0,.68.9,3.37,3.37,0,0,0,1.35.21,4.63,4.63,0,0,0,1.45-.27,6.07,6.07,0,0,0,1.28-.57v-9.47Z"/><path class="cls-7" d="M177.77,684.2h-1.59v-1.27l.39-.12c.33-.09.57-.18.73-.24a1,1,0,0,0,.41-.27,1.26,1.26,0,0,0,.29-.48c.11-.28.26-.8.47-1.54l.24-.81h1.42v2.95h3.45v1.78h-3.45v6.09a10.93,10.93,0,0,0,.09,1.7.92.92,0,0,0,.36.65,2,2,0,0,0,.9.15,5.17,5.17,0,0,0,1.12-.15,4.72,4.72,0,0,0,1-.3l.41,1.34a5,5,0,0,1-1.51.69,6.1,6.1,0,0,1-1.87.31,3,3,0,0,1-2.09-.66,3.14,3.14,0,0,1-.74-2.4Z"/><path class="cls-7" d="M194.12,683a4.43,4.43,0,0,1,1.75,1.92,6.74,6.74,0,0,1,.66,3.13,7.42,7.42,0,0,1-.77,3.42,5.62,5.62,0,0,1-2.17,2.33,6.21,6.21,0,0,1-3.24.84,10.39,10.39,0,0,1-1.7-.15,13.82,13.82,0,0,1-1.63-.36,4.32,4.32,0,0,1-1-.37V676.93h2.36V682l-.09,1.72a5,5,0,0,1,1.36-1,4.56,4.56,0,0,1,2-.39A4.77,4.77,0,0,1,194.12,683Zm-.79,2.23a2.73,2.73,0,0,0-2.29-1,3.52,3.52,0,0,0-1.45.3,5.66,5.66,0,0,0-1.17.73v7.23a4.25,4.25,0,0,0,2.2.41,3.16,3.16,0,0,0,1.81-.54,3.51,3.51,0,0,0,1.24-1.58,6.38,6.38,0,0,0,.45-2.52A4.79,4.79,0,0,0,193.33,685.27Z"/><path class="cls-7" d="M199.25,685.17a4.87,4.87,0,0,1,2-2.06,5.85,5.85,0,0,1,2.88-.7,5.21,5.21,0,0,1,3.06.84,4.83,4.83,0,0,1,1.76,2.24,8.32,8.32,0,0,1,.56,3.16,6.87,6.87,0,0,1-.72,3.27,4.87,4.87,0,0,1-2,2.06,5.86,5.86,0,0,1-2.89.7,5.18,5.18,0,0,1-3.05-.84,4.85,4.85,0,0,1-1.77-2.24,8.52,8.52,0,0,1-.55-3.16A6.75,6.75,0,0,1,199.25,685.17Zm7.51,1.16a3.54,3.54,0,0,0-1-1.63,2.9,2.9,0,0,0-4,.5,5.34,5.34,0,0,0-.78,3.13,8,8,0,0,0,.34,2.38,3.78,3.78,0,0,0,1.05,1.68A2.51,2.51,0,0,0,204,693a2.57,2.57,0,0,0,2.27-1.13,5.45,5.45,0,0,0,.79-3.18A7.72,7.72,0,0,0,206.76,686.33Z"/><path class="cls-7" d="M221.79,682.42v12.26h-.91a2.45,2.45,0,0,1-.67-.07.62.62,0,0,1-.38-.27,1.11,1.11,0,0,1-.13-.61v-.3a10.13,10.13,0,0,1-1.93.88,6.59,6.59,0,0,1-2,.37,3.63,3.63,0,0,1-2.29-.63,3.06,3.06,0,0,1-1.07-1.73,11.76,11.76,0,0,1-.28-2.84v-7.06h2.36v7a8,8,0,0,0,.22,2.16,1.4,1.4,0,0,0,.68.9,3.37,3.37,0,0,0,1.35.21,4.63,4.63,0,0,0,1.45-.27,6.07,6.07,0,0,0,1.28-.57v-9.47Z"/><path class="cls-7" d="M227.32,682.42v1.44a9.85,9.85,0,0,1,2.08-1,6.88,6.88,0,0,1,2.36-.45,3.8,3.8,0,0,1,2,.47,2.69,2.69,0,0,1,1.1,1.49,9,9,0,0,1,.34,2.78v7.52h-2.36v-7.5a6.34,6.34,0,0,0-.16-1.61,1.58,1.58,0,0,0-.59-.89,2.18,2.18,0,0,0-1.25-.29h-.29a3.86,3.86,0,0,0-1.47.34,6.41,6.41,0,0,0-1.54.9v9h-2.36V682.42Z"/><path class="cls-7" d="M248.3,676.93v17.75h-1a2.45,2.45,0,0,1-.67-.07.66.66,0,0,1-.4-.27,1.1,1.1,0,0,1-.14-.61v-.44a5,5,0,0,1-1.38,1,4.45,4.45,0,0,1-2,.4,4.68,4.68,0,0,1-2.42-.64,4.44,4.44,0,0,1-1.74-1.91,6.83,6.83,0,0,1-.66-3.15,7.41,7.41,0,0,1,.76-3.41,5.66,5.66,0,0,1,2.16-2.33,6.16,6.16,0,0,1,3.21-.83,6.68,6.68,0,0,1,2,.3l0-.66v-5.12ZM241,691.82a2.71,2.71,0,0,0,2.28,1,3.64,3.64,0,0,0,1.45-.28,5.42,5.42,0,0,0,1.17-.66v-7.14a1.87,1.87,0,0,0-.86-.46,5.11,5.11,0,0,0-1.34-.15,3.13,3.13,0,0,0-1.8.54,3.54,3.54,0,0,0-1.24,1.59,6.38,6.38,0,0,0-.45,2.52A4.85,4.85,0,0,0,241,691.82Z"/><path class="cls-7" d="M275,682.87a2.63,2.63,0,0,1,1.12,1.47,8.62,8.62,0,0,1,.36,2.76v7.57h-2.36v-7.49a6,6,0,0,0-.18-1.65,1.37,1.37,0,0,0-.65-.87,2.81,2.81,0,0,0-1.41-.28,4.38,4.38,0,0,0-1.48.29,6.21,6.21,0,0,0-1.52.77,11.75,11.75,0,0,1,.1,1.66v7.57h-2.36v-7.49a6,6,0,0,0-.18-1.65,1.41,1.41,0,0,0-.66-.87,2.79,2.79,0,0,0-1.4-.28,4.11,4.11,0,0,0-1.47.33,5.59,5.59,0,0,0-1.53.91v9H259V682.42h2.11v1.43a9.78,9.78,0,0,1,2-1,6.09,6.09,0,0,1,2.24-.45,4.77,4.77,0,0,1,2,.34,2.38,2.38,0,0,1,1.16,1.14,8.07,8.07,0,0,1,2.06-1,7.44,7.44,0,0,1,2.43-.44A3.9,3.9,0,0,1,275,682.87Z"/><path class="cls-7" d="M289.08,688.1a5.62,5.62,0,0,1-.1.8h-7.55a1.22,1.22,0,0,1,0,.21q.18,3.78,3.74,3.78a8,8,0,0,0,1.63-.2,5.08,5.08,0,0,0,1.42-.46l.45,1.35a4.62,4.62,0,0,1-1.79.79,9.24,9.24,0,0,1-2.34.31,5.68,5.68,0,0,1-2.95-.73,4.69,4.69,0,0,1-1.85-2.12,8,8,0,0,1-.63-3.32,7.46,7.46,0,0,1,.63-3.14,5,5,0,0,1,1.86-2.17,5.36,5.36,0,0,1,3-.79,5,5,0,0,1,2.24.5,3.78,3.78,0,0,1,1.62,1.5,4.82,4.82,0,0,1,.65,2.41C289.1,687.37,289.09,687.79,289.08,688.1Zm-2.17-1.23a3.42,3.42,0,0,0-.55-2,2.16,2.16,0,0,0-1.9-.77,2.72,2.72,0,0,0-2,.76,3.93,3.93,0,0,0-1,2.48h5.39C286.9,687.12,286.91,687,286.91,686.87Z"/><path class="cls-7" d="M292.23,692.4a9.33,9.33,0,0,0,1.27.37,7.23,7.23,0,0,0,1.45.16,2.81,2.81,0,0,0,1.62-.39,1.21,1.21,0,0,0,.56-1.07,1.39,1.39,0,0,0-.63-1.13,9.46,9.46,0,0,0-1.89-1,7.56,7.56,0,0,1-2.52-1.56,3.06,3.06,0,0,1-.9-2.26,2.6,2.6,0,0,1,.59-1.72,3.59,3.59,0,0,1,1.58-1.06,6.92,6.92,0,0,1,2.26-.35,7.91,7.91,0,0,1,1.86.21,6.37,6.37,0,0,1,1.24.42l-.38,1.86a2.85,2.85,0,0,0-1.07-.52,5.47,5.47,0,0,0-1.57-.23,3.5,3.5,0,0,0-1.73.35,1.08,1.08,0,0,0-.59,1,1.5,1.5,0,0,0,.27.9,2.35,2.35,0,0,0,.78.66,11.64,11.64,0,0,0,1.32.6,9.07,9.07,0,0,1,2.58,1.49,2.82,2.82,0,0,1,1,2.23,3.12,3.12,0,0,1-.52,1.81,3.16,3.16,0,0,1-1.5,1.13,6.15,6.15,0,0,1-2.3.39,9.89,9.89,0,0,1-2.32-.27,4.9,4.9,0,0,1-1.58-.6l.35-1.76A4.41,4.41,0,0,0,292.23,692.4Z"/><path class="cls-7" d="M302.37,692.4a9.5,9.5,0,0,0,1.28.37,7.23,7.23,0,0,0,1.45.16,2.85,2.85,0,0,0,1.62-.39,1.23,1.23,0,0,0,.56-1.07,1.37,1.37,0,0,0-.64-1.13,9.33,9.33,0,0,0-1.88-1,7.36,7.36,0,0,1-2.52-1.56,3.06,3.06,0,0,1-.9-2.26,2.6,2.6,0,0,1,.59-1.72,3.54,3.54,0,0,1,1.58-1.06,6.92,6.92,0,0,1,2.26-.35,7.88,7.88,0,0,1,1.85.21,6.52,6.52,0,0,1,1.25.42l-.39,1.86a2.79,2.79,0,0,0-1.06-.52,5.59,5.59,0,0,0-1.58-.23,3.45,3.45,0,0,0-1.72.35,1.09,1.09,0,0,0-.6,1,1.5,1.5,0,0,0,.27.9,2.57,2.57,0,0,0,.78.66,12.52,12.52,0,0,0,1.32.6,8.8,8.8,0,0,1,2.58,1.49,2.79,2.79,0,0,1,1,2.23,3,3,0,0,1-.52,1.81,3.13,3.13,0,0,1-1.49,1.13,6.21,6.21,0,0,1-2.31.39,9.86,9.86,0,0,1-2.31-.27,4.88,4.88,0,0,1-1.59-.6l.36-1.76A4.22,4.22,0,0,0,302.37,692.4Z"/><path class="cls-7" d="M318.89,682.72a2.74,2.74,0,0,1,1.48,1.15,4.36,4.36,0,0,1,.52,2.34v8.47h-1a2.65,2.65,0,0,1-.73-.07.59.59,0,0,1-.39-.3,1.55,1.55,0,0,1-.14-.75v-.09a4.4,4.4,0,0,1-1.48.85,5.41,5.41,0,0,1-2,.36,4.35,4.35,0,0,1-1.94-.42,3.16,3.16,0,0,1-1.33-1.2,3.42,3.42,0,0,1-.48-1.83,3.3,3.3,0,0,1,.63-2,4.1,4.1,0,0,1,1.76-1.31,11.25,11.25,0,0,1,2.26-.6,15.68,15.68,0,0,1,2.4-.19V686a2,2,0,0,0-.27-1.16,1.38,1.38,0,0,0-.83-.52,6.54,6.54,0,0,0-1.51-.14,7,7,0,0,0-1.19.13,10.35,10.35,0,0,0-1.25.32,4,4,0,0,0-.87.37l-.58-1.47a5.83,5.83,0,0,1,1-.44,13,13,0,0,1,1.67-.48,8.32,8.32,0,0,1,1.81-.21A7.54,7.54,0,0,1,318.89,682.72Zm-1.9,10a5.41,5.41,0,0,0,1-.36,2,2,0,0,0,.55-.36v-3.43a12,12,0,0,0-1.77.15,5.8,5.8,0,0,0-1.58.44,2.9,2.9,0,0,0-1,.73,1.61,1.61,0,0,0-.36,1.09c0,1.26.71,1.89,2.12,1.89A4,4,0,0,0,317,692.77Z"/><path class="cls-7" d="M335,684.38h-2.25a3.72,3.72,0,0,1,.55,2,3.67,3.67,0,0,1-.64,2.18A4,4,0,0,1,330.9,690a6.47,6.47,0,0,1-2.52.46,5.49,5.49,0,0,1-1.33-.14,1.73,1.73,0,0,0-.5.57,1.43,1.43,0,0,0-.19.71,1.2,1.2,0,0,0,.31,1,1.65,1.65,0,0,0,1.09.27H330a5.1,5.1,0,0,1,3.53.94,3.17,3.17,0,0,1,1,2.43,3,3,0,0,1-.79,2.07,5.26,5.26,0,0,1-2.15,1.38,8.79,8.79,0,0,1-3,.48,6.85,6.85,0,0,1-3.77-.88,3,3,0,0,1-1.36-2.66,2.31,2.31,0,0,1,.5-1.46,3.91,3.91,0,0,1,1.21-1,2,2,0,0,1-.95-1.82,2.68,2.68,0,0,1,.4-1.32,3.71,3.71,0,0,1,1.11-1.16,4,4,0,0,1-1.56-1.37,3.5,3.5,0,0,1-.56-1.94,3.85,3.85,0,0,1,.64-2.27,3.78,3.78,0,0,1,1.77-1.36,6.84,6.84,0,0,1,2.56-.45,5.64,5.64,0,0,1,3,.74,3.43,3.43,0,0,1,1-.53,3.87,3.87,0,0,1,1.26-.21H335Zm-8.49,10.21a2.51,2.51,0,0,0-.57.7,2.09,2.09,0,0,0-.21,1,2,2,0,0,0,.68,1.66,3.57,3.57,0,0,0,2.21.54,7.29,7.29,0,0,0,1.8-.21,3.39,3.39,0,0,0,1.31-.61,1.25,1.25,0,0,0,.5-1,2.18,2.18,0,0,0-.26-1.12,1.56,1.56,0,0,0-.91-.66,5.7,5.7,0,0,0-1.86-.23h-1.1A13.47,13.47,0,0,1,326.52,694.59Zm3.8-6.27a2.32,2.32,0,0,0,.64-1.87,2.53,2.53,0,0,0-.6-1.82,2.44,2.44,0,0,0-1.82-.62,3.09,3.09,0,0,0-1.89.53,2.17,2.17,0,0,0-.71,1.86,2.54,2.54,0,0,0,.62,1.76,2.39,2.39,0,0,0,1.87.7A2.88,2.88,0,0,0,330.32,688.32Z"/><path class="cls-7" d="M346.12,688.1a4.47,4.47,0,0,1-.1.8h-7.55a1.22,1.22,0,0,1,0,.21c.13,2.52,1.37,3.78,3.74,3.78a7.94,7.94,0,0,0,1.63-.2,5,5,0,0,0,1.42-.46l.45,1.35a4.62,4.62,0,0,1-1.79.79,9.19,9.19,0,0,1-2.34.31,5.68,5.68,0,0,1-2.95-.73,4.61,4.61,0,0,1-1.84-2.12,7.8,7.8,0,0,1-.64-3.32,7.46,7.46,0,0,1,.63-3.14,5,5,0,0,1,1.86-2.17,5.36,5.36,0,0,1,3-.79,5.09,5.09,0,0,1,2.25.5,3.81,3.81,0,0,1,1.61,1.5,4.82,4.82,0,0,1,.65,2.41C346.14,687.37,346.14,687.79,346.12,688.1ZM344,686.87a3.34,3.34,0,0,0-.55-2,2.16,2.16,0,0,0-1.9-.77,2.74,2.74,0,0,0-2,.76,4,4,0,0,0-1,2.48h5.39C343.94,687.12,344,687,344,686.87Z"/><path class="cls-7" d="M349.27,692.4a9.33,9.33,0,0,0,1.27.37,7.23,7.23,0,0,0,1.45.16,2.81,2.81,0,0,0,1.62-.39,1.21,1.21,0,0,0,.56-1.07,1.39,1.39,0,0,0-.63-1.13,9.46,9.46,0,0,0-1.89-1,7.56,7.56,0,0,1-2.52-1.56,3.06,3.06,0,0,1-.9-2.26,2.6,2.6,0,0,1,.59-1.72,3.59,3.59,0,0,1,1.58-1.06,6.92,6.92,0,0,1,2.26-.35,7.91,7.91,0,0,1,1.86.21,6.37,6.37,0,0,1,1.24.42l-.38,1.86a2.85,2.85,0,0,0-1.07-.52,5.47,5.47,0,0,0-1.57-.23,3.5,3.5,0,0,0-1.73.35,1.08,1.08,0,0,0-.59,1,1.5,1.5,0,0,0,.27.9,2.35,2.35,0,0,0,.78.66,11.64,11.64,0,0,0,1.32.6,9.07,9.07,0,0,1,2.58,1.49,2.82,2.82,0,0,1,1,2.23,3.12,3.12,0,0,1-.52,1.81,3.16,3.16,0,0,1-1.5,1.13,6.15,6.15,0,0,1-2.3.39,9.89,9.89,0,0,1-2.32-.27,4.9,4.9,0,0,1-1.58-.6l.35-1.76A4.41,4.41,0,0,0,349.27,692.4Z"/><rect class="cls-1" x="144" y="758" width="216" height="72" rx="8.3"/><path class="cls-13" d="M168.85,788.17v-1.85H181.5v1.85h-5.13v14.5H174v-14.5Z"/><path class="cls-13" d="M191.71,790.42l-4.12,12.63c-.92,2.8-2.2,4.44-3.85,4.9a5.3,5.3,0,0,1-.58.12,4.24,4.24,0,0,1-.58,0,6.68,6.68,0,0,1-.7,0,1.68,1.68,0,0,1-.5-.11V806a2.72,2.72,0,0,0,.49.09l.54,0a2.6,2.6,0,0,0,1.13-.29,3.27,3.27,0,0,0,1.16-1.07,6.24,6.24,0,0,0,.88-2.13h-.7l-4.44-12.25H183l2.71,8.25.62,2,.55-2,2.32-8.25Z"/><path class="cls-13" d="M201.74,791a4.55,4.55,0,0,1,1.75,1.92,6.78,6.78,0,0,1,.66,3.14,7.42,7.42,0,0,1-.77,3.42,5.63,5.63,0,0,1-2.15,2.33,6.2,6.2,0,0,1-3.22.83,6.42,6.42,0,0,1-2-.31l0,1.68v4.05h-2.37V790.42h2.14v1.45a5.61,5.61,0,0,1,1.4-1,4.5,4.5,0,0,1,2.1-.42A4.79,4.79,0,0,1,201.74,791Zm-.79,2.23a2.74,2.74,0,0,0-2.29-1,3.31,3.31,0,0,0-1.45.31,5.3,5.3,0,0,0-1.17.74v7.12a2.21,2.21,0,0,0,.86.4,6.2,6.2,0,0,0,1.34.12,3.13,3.13,0,0,0,1.8-.54,3.58,3.58,0,0,0,1.25-1.58,6.4,6.4,0,0,0,.45-2.53A4.83,4.83,0,0,0,201,793.27Z"/><path class="cls-13" d="M216.1,796.1a4.47,4.47,0,0,1-.1.8h-7.55a1.22,1.22,0,0,1,0,.21q.18,3.78,3.74,3.78a8,8,0,0,0,1.63-.2,5.08,5.08,0,0,0,1.42-.46l.45,1.35a4.62,4.62,0,0,1-1.79.79,9.19,9.19,0,0,1-2.34.31,5.68,5.68,0,0,1-2.95-.73,4.61,4.61,0,0,1-1.84-2.12,7.8,7.8,0,0,1-.64-3.32,7.46,7.46,0,0,1,.63-3.14,5,5,0,0,1,1.86-2.17,5.36,5.36,0,0,1,3-.79,5.09,5.09,0,0,1,2.25.5,3.81,3.81,0,0,1,1.61,1.5,4.82,4.82,0,0,1,.65,2.41C216.12,795.37,216.11,795.79,216.1,796.1Zm-2.17-1.23a3.34,3.34,0,0,0-.55-2,2.16,2.16,0,0,0-1.9-.77,2.74,2.74,0,0,0-2,.76,4,4,0,0,0-1,2.48h5.39C213.92,795.12,213.93,795,213.93,794.87Z"/><path class="cls-13" d="M235.71,784.93v17.75h-1a2.5,2.5,0,0,1-.67-.07.61.61,0,0,1-.39-.27,1,1,0,0,1-.15-.61v-.44a5.06,5.06,0,0,1-1.37,1,4.48,4.48,0,0,1-2,.4,4.69,4.69,0,0,1-2.43-.64,4.5,4.5,0,0,1-1.74-1.91,6.83,6.83,0,0,1-.66-3.15,7.54,7.54,0,0,1,.76-3.41,5.66,5.66,0,0,1,2.16-2.33,6.2,6.2,0,0,1,3.22-.83,6.66,6.66,0,0,1,2,.3l0-.66v-5.12Zm-7.27,14.89a2.71,2.71,0,0,0,2.28,1,3.72,3.72,0,0,0,1.46-.28,5.58,5.58,0,0,0,1.16-.66v-7.14a1.82,1.82,0,0,0-.86-.46,5.05,5.05,0,0,0-1.34-.15,3.1,3.1,0,0,0-1.79.54,3.55,3.55,0,0,0-1.25,1.59,6.38,6.38,0,0,0-.45,2.52A4.85,4.85,0,0,0,228.44,799.82Z"/><path class="cls-13" d="M248.32,796.1a5.62,5.62,0,0,1-.1.8h-7.55a1.22,1.22,0,0,1,0,.21q.18,3.78,3.74,3.78a8,8,0,0,0,1.63-.2,5.08,5.08,0,0,0,1.42-.46l.45,1.35a4.62,4.62,0,0,1-1.79.79,9.24,9.24,0,0,1-2.34.31,5.68,5.68,0,0,1-2.95-.73,4.69,4.69,0,0,1-1.85-2.12,8,8,0,0,1-.63-3.32,7.46,7.46,0,0,1,.63-3.14,5,5,0,0,1,1.86-2.17,5.36,5.36,0,0,1,3-.79,5,5,0,0,1,2.24.5,3.78,3.78,0,0,1,1.62,1.5,4.93,4.93,0,0,1,.65,2.41C248.34,795.37,248.33,795.79,248.32,796.1Zm-2.17-1.23a3.42,3.42,0,0,0-.55-2,2.18,2.18,0,0,0-1.9-.77,2.71,2.71,0,0,0-2,.76,4,4,0,0,0-1,2.48h5.4C246.14,795.12,246.15,795,246.15,794.87Z"/><path class="cls-13" d="M249.93,792.2v-1.31l1.86-.47v-1.06a5.18,5.18,0,0,1,.66-2.78,3.79,3.79,0,0,1,1.67-1.52,5,5,0,0,1,2.11-.46,5.14,5.14,0,0,1,.88.07,3.89,3.89,0,0,1,.64.16v1.87a3.85,3.85,0,0,0-.74-.16,10.31,10.31,0,0,0-1.1,0,1.56,1.56,0,0,0-1.28.6,2.78,2.78,0,0,0-.47,1.73v1.6h3v1.78h-3v10.47h-2.37V792.2Z"/><path class="cls-13" d="M259.82,785.91a1.84,1.84,0,0,1,.66-.61,1.74,1.74,0,0,1,.83-.23,1.48,1.48,0,0,1,1.12.41,1.41,1.41,0,0,1,.4,1,1.6,1.6,0,0,1-.25.86,1.7,1.7,0,0,1-.65.6,1.65,1.65,0,0,1-.84.22,1.61,1.61,0,0,1-.76-.18,1.42,1.42,0,0,1-.55-.51,1.4,1.4,0,0,1-.21-.76A1.58,1.58,0,0,1,259.82,785.91Zm2.57,4.51v12.25H260V790.42Z"/><path class="cls-13" d="M268,790.42v1.44a9.85,9.85,0,0,1,2.08-1,6.89,6.89,0,0,1,2.37-.45,3.85,3.85,0,0,1,2,.47,2.68,2.68,0,0,1,1.09,1.49,9,9,0,0,1,.34,2.78v7.52h-2.36v-7.5a6.34,6.34,0,0,0-.16-1.61,1.54,1.54,0,0,0-.59-.89,2.18,2.18,0,0,0-1.25-.29h-.29a3.86,3.86,0,0,0-1.47.34,6.16,6.16,0,0,0-1.53.9v9H265.9V790.42Z"/><path class="cls-13" d="M279.15,785.91a1.84,1.84,0,0,1,.66-.61,1.71,1.71,0,0,1,.83-.23,1.5,1.5,0,0,1,1.12.41,1.44,1.44,0,0,1,.39,1,1.59,1.59,0,0,1-.24.86,1.81,1.81,0,0,1-1.5.82,1.6,1.6,0,0,1-.75-.18,1.42,1.42,0,0,1-.55-.51,1.4,1.4,0,0,1-.21-.76A1.5,1.5,0,0,1,279.15,785.91Zm2.56,4.51v12.25h-2.36V790.42Z"/><path class="cls-13" d="M285.71,792.2h-1.59v-1.27l.38-.12a6.89,6.89,0,0,0,.73-.24,1.17,1.17,0,0,0,.42-.27,1.24,1.24,0,0,0,.28-.48c.11-.28.27-.8.48-1.54l.23-.81h1.42v2.95h3.46v1.78h-3.46v6.09a9.52,9.52,0,0,0,.1,1.7.86.86,0,0,0,.36.65,1.89,1.89,0,0,0,.89.15,5.25,5.25,0,0,0,1.13-.15,4.94,4.94,0,0,0,1-.3l.41,1.34a5.1,5.1,0,0,1-1.51.69,6.16,6.16,0,0,1-1.88.31,3,3,0,0,1-2.08-.66,3.1,3.1,0,0,1-.74-2.4Z"/><path class="cls-13" d="M293.93,785.91a1.84,1.84,0,0,1,.66-.61,1.74,1.74,0,0,1,.83-.23,1.48,1.48,0,0,1,1.12.41,1.45,1.45,0,0,1,.4,1,1.6,1.6,0,0,1-.25.86,1.7,1.7,0,0,1-.65.6,1.65,1.65,0,0,1-.84.22,1.61,1.61,0,0,1-.76-.18,1.42,1.42,0,0,1-.55-.51,1.4,1.4,0,0,1-.21-.76A1.5,1.5,0,0,1,293.93,785.91Zm2.57,4.51v12.25h-2.37V790.42Z"/><path class="cls-13" d="M299.94,793.17a4.93,4.93,0,0,1,2-2.06,5.85,5.85,0,0,1,2.88-.7,5.21,5.21,0,0,1,3.06.84,4.85,4.85,0,0,1,1.77,2.24,8.52,8.52,0,0,1,.55,3.16,6.87,6.87,0,0,1-.72,3.27,4.81,4.81,0,0,1-2,2.06,5.86,5.86,0,0,1-2.89.7,5.2,5.2,0,0,1-3-.84,4.83,4.83,0,0,1-1.76-2.24,8.32,8.32,0,0,1-.56-3.16A6.87,6.87,0,0,1,299.94,793.17Zm7.51,1.16a3.46,3.46,0,0,0-1-1.63,2.9,2.9,0,0,0-4,.5,5.34,5.34,0,0,0-.78,3.13,7.68,7.68,0,0,0,.35,2.38,3.76,3.76,0,0,0,1,1.68,2.51,2.51,0,0,0,1.73.61,2.57,2.57,0,0,0,2.27-1.13,5.45,5.45,0,0,0,.79-3.18A7.43,7.43,0,0,0,307.45,794.33Z"/><path class="cls-13" d="M315,790.42v1.44a9.85,9.85,0,0,1,2.08-1,6.89,6.89,0,0,1,2.37-.45,3.85,3.85,0,0,1,2,.47,2.68,2.68,0,0,1,1.09,1.49,9,9,0,0,1,.34,2.78v7.52h-2.36v-7.5a6.34,6.34,0,0,0-.16-1.61,1.54,1.54,0,0,0-.59-.89,2.18,2.18,0,0,0-1.25-.29h-.29a3.86,3.86,0,0,0-1.47.34,6.16,6.16,0,0,0-1.53.9v9H312.9V790.42Z"/><path class="cls-13" d="M326.72,800.4a9.09,9.09,0,0,0,1.28.37,7.16,7.16,0,0,0,1.45.16,2.79,2.79,0,0,0,1.61-.39,1.22,1.22,0,0,0,.57-1.07,1.37,1.37,0,0,0-.64-1.13,9.46,9.46,0,0,0-1.89-1,7.56,7.56,0,0,1-2.52-1.56,3.09,3.09,0,0,1-.89-2.26,2.59,2.59,0,0,1,.58-1.72,3.57,3.57,0,0,1,1.59-1.06,6.86,6.86,0,0,1,2.25-.35,7.91,7.91,0,0,1,1.86.21,6.52,6.52,0,0,1,1.25.42l-.39,1.86a2.79,2.79,0,0,0-1.06-.52,5.59,5.59,0,0,0-1.58-.23,3.52,3.52,0,0,0-1.73.35,1.1,1.1,0,0,0-.59,1,1.5,1.5,0,0,0,.27.9,2.46,2.46,0,0,0,.78.66,12.52,12.52,0,0,0,1.32.6,8.8,8.8,0,0,1,2.58,1.49,2.82,2.82,0,0,1,1,2.23,3,3,0,0,1-.52,1.81,3.18,3.18,0,0,1-1.49,1.13,6.21,6.21,0,0,1-2.31.39,9.86,9.86,0,0,1-2.31-.27,4.88,4.88,0,0,1-1.59-.6l.36-1.76A3.89,3.89,0,0,0,326.72,800.4Z"/><rect class="cls-1" x="144" y="433.89" width="216" height="72.11" rx="9.27"/><path class="cls-13" d="M188.72,478.67H186a4.15,4.15,0,0,1-.35-.68l-.24-.52q-.21-.44-.63-1.56c-.3-.8-.57-1.46-.81-2a7.54,7.54,0,0,0-.85-1.41,2.3,2.3,0,0,0-1.1-.81h-2.85v7h-2.4V462.32H182a6.7,6.7,0,0,1,4.1,1.1,4,4,0,0,1,1.47,3.41,4.91,4.91,0,0,1-.77,2.84,4.22,4.22,0,0,1-2.19,1.61,3.41,3.41,0,0,1,.91.94,9.89,9.89,0,0,1,.75,1.31q.34.69.81,1.8c.45,1,.78,1.72,1,2.13Zm-7-8.6a3.75,3.75,0,0,0,2.53-.76,3.07,3.07,0,0,0,.88-2.4,3.49,3.49,0,0,0-.35-1.66,2.06,2.06,0,0,0-1.11-.95,5.5,5.5,0,0,0-2-.31,12.68,12.68,0,0,0-2.46.2V470Q179.74,470.07,181.69,470.07Z"/><path class="cls-13" d="M199.88,472.1a5.62,5.62,0,0,1-.1.8h-7.55a1.22,1.22,0,0,1,0,.21q.18,3.78,3.74,3.78a8,8,0,0,0,1.63-.2,5.08,5.08,0,0,0,1.42-.46l.45,1.35a4.62,4.62,0,0,1-1.79.79,9.32,9.32,0,0,1-2.35.31,5.67,5.67,0,0,1-2.94-.73,4.69,4.69,0,0,1-1.85-2.12,8,8,0,0,1-.63-3.32,7.46,7.46,0,0,1,.63-3.14,5,5,0,0,1,1.86-2.17,5.36,5.36,0,0,1,3-.79,5,5,0,0,1,2.24.5,3.89,3.89,0,0,1,1.62,1.5,4.93,4.93,0,0,1,.65,2.41C199.9,471.37,199.89,471.79,199.88,472.1Zm-2.17-1.23a3.35,3.35,0,0,0-.56-2,2.14,2.14,0,0,0-1.89-.77,2.71,2.71,0,0,0-2,.76,4,4,0,0,0-1,2.48h5.4C197.7,471.12,197.71,471,197.71,470.87Z"/><path class="cls-13" d="M203,476.4a9.5,9.5,0,0,0,1.28.37,7.23,7.23,0,0,0,1.45.16,2.85,2.85,0,0,0,1.62-.39,1.23,1.23,0,0,0,.56-1.07,1.37,1.37,0,0,0-.64-1.13,9.06,9.06,0,0,0-1.88-1,7.36,7.36,0,0,1-2.52-1.56,3.06,3.06,0,0,1-.9-2.26,2.55,2.55,0,0,1,.59-1.72,3.54,3.54,0,0,1,1.58-1.06,6.92,6.92,0,0,1,2.26-.35,7.88,7.88,0,0,1,1.85.21,6.52,6.52,0,0,1,1.25.42l-.39,1.86a2.79,2.79,0,0,0-1.06-.52,5.54,5.54,0,0,0-1.58-.23,3.45,3.45,0,0,0-1.72.35,1.09,1.09,0,0,0-.6,1,1.5,1.5,0,0,0,.27.9,2.57,2.57,0,0,0,.78.66,12.52,12.52,0,0,0,1.32.6,8.8,8.8,0,0,1,2.58,1.49,2.79,2.79,0,0,1,1,2.23,3,3,0,0,1-.52,1.81,3.13,3.13,0,0,1-1.49,1.13,6.21,6.21,0,0,1-2.31.39,9.86,9.86,0,0,1-2.31-.27,4.71,4.71,0,0,1-1.58-.6l.35-1.76A4.6,4.6,0,0,0,203,476.4Z"/><path class="cls-13" d="M220.72,467a4.55,4.55,0,0,1,1.75,1.92,6.92,6.92,0,0,1,.65,3.14,7.42,7.42,0,0,1-.76,3.42,5.76,5.76,0,0,1-2.15,2.33,6.2,6.2,0,0,1-3.22.83,6.42,6.42,0,0,1-2-.31l0,1.68v4.05h-2.36V466.42h2.14v1.45a5.55,5.55,0,0,1,1.39-1,4.55,4.55,0,0,1,2.11-.42A4.79,4.79,0,0,1,220.72,467Zm-.79,2.23a2.75,2.75,0,0,0-2.3-1,3.3,3.3,0,0,0-1.44.31,5.61,5.61,0,0,0-1.18.74v7.12a2.19,2.19,0,0,0,.87.4,6.16,6.16,0,0,0,1.33.12,3.14,3.14,0,0,0,1.81-.54,3.65,3.65,0,0,0,1.25-1.58,6.4,6.4,0,0,0,.45-2.53A4.89,4.89,0,0,0,219.93,469.27Z"/><path class="cls-13" d="M225.84,469.17a4.89,4.89,0,0,1,2-2.06,5.79,5.79,0,0,1,2.88-.7,5.26,5.26,0,0,1,3.06.84,4.83,4.83,0,0,1,1.76,2.24,8.51,8.51,0,0,1,.56,3.16,6.87,6.87,0,0,1-.72,3.27,4.89,4.89,0,0,1-2,2.06,5.86,5.86,0,0,1-2.89.7,5.2,5.2,0,0,1-3.05-.84,4.83,4.83,0,0,1-1.76-2.24,8.32,8.32,0,0,1-.56-3.16A6.87,6.87,0,0,1,225.84,469.17Zm7.51,1.16a3.52,3.52,0,0,0-1-1.63,2.65,2.65,0,0,0-1.75-.59,2.62,2.62,0,0,0-2.28,1.09,5.34,5.34,0,0,0-.78,3.13,7.68,7.68,0,0,0,.35,2.38,3.76,3.76,0,0,0,1,1.68,2.52,2.52,0,0,0,1.73.61,2.6,2.6,0,0,0,2.28-1.13,5.53,5.53,0,0,0,.78-3.18A7.43,7.43,0,0,0,233.35,470.33Z"/><path class="cls-13" d="M240.91,466.42v1.44a9.85,9.85,0,0,1,2.08-1,7,7,0,0,1,2.37-.45,3.82,3.82,0,0,1,2,.47,2.68,2.68,0,0,1,1.09,1.49,9,9,0,0,1,.35,2.78v7.52h-2.37v-7.5a6.34,6.34,0,0,0-.16-1.61,1.54,1.54,0,0,0-.59-.89,2.18,2.18,0,0,0-1.25-.29h-.29a3.9,3.9,0,0,0-1.47.34,6.16,6.16,0,0,0-1.53.9v9.05H238.8V466.42Z"/><path class="cls-13" d="M252.62,476.4a9.5,9.5,0,0,0,1.28.37,7.23,7.23,0,0,0,1.45.16,2.85,2.85,0,0,0,1.62-.39,1.23,1.23,0,0,0,.56-1.07,1.37,1.37,0,0,0-.64-1.13,9.33,9.33,0,0,0-1.88-1,7.36,7.36,0,0,1-2.52-1.56,3.06,3.06,0,0,1-.9-2.26,2.6,2.6,0,0,1,.59-1.72,3.54,3.54,0,0,1,1.58-1.06,6.92,6.92,0,0,1,2.26-.35,7.88,7.88,0,0,1,1.85.21,6.52,6.52,0,0,1,1.25.42l-.39,1.86a2.79,2.79,0,0,0-1.06-.52,5.59,5.59,0,0,0-1.58-.23,3.45,3.45,0,0,0-1.72.35,1.09,1.09,0,0,0-.6,1,1.5,1.5,0,0,0,.27.9,2.57,2.57,0,0,0,.78.66,12.52,12.52,0,0,0,1.32.6,8.8,8.8,0,0,1,2.58,1.49,2.79,2.79,0,0,1,1,2.23,3,3,0,0,1-.52,1.81,3.13,3.13,0,0,1-1.49,1.13,6.21,6.21,0,0,1-2.31.39,9.86,9.86,0,0,1-2.31-.27,4.88,4.88,0,0,1-1.59-.6l.36-1.76A4.22,4.22,0,0,0,252.62,476.4Z"/><path class="cls-13" d="M271.59,472.1a5.62,5.62,0,0,1-.1.8h-7.55a1.22,1.22,0,0,1,0,.21q.18,3.78,3.74,3.78a8,8,0,0,0,1.63-.2,5.08,5.08,0,0,0,1.42-.46l.45,1.35a4.62,4.62,0,0,1-1.79.79,9.24,9.24,0,0,1-2.34.31,5.68,5.68,0,0,1-2.95-.73,4.69,4.69,0,0,1-1.85-2.12,8,8,0,0,1-.63-3.32,7.46,7.46,0,0,1,.63-3.14,5,5,0,0,1,1.86-2.17,5.36,5.36,0,0,1,3-.79,5,5,0,0,1,2.24.5,3.78,3.78,0,0,1,1.62,1.5,4.82,4.82,0,0,1,.65,2.41C271.61,471.37,271.6,471.79,271.59,472.1Zm-2.17-1.23a3.42,3.42,0,0,0-.55-2,2.16,2.16,0,0,0-1.9-.77,2.71,2.71,0,0,0-2,.76,4,4,0,0,0-1,2.48h5.4C269.41,471.12,269.42,471,269.42,470.87Z"/><path class="cls-13" d="M284.17,460.93v17.74H281.8V460.93Z"/><path class="cls-13" d="M287.7,469.17a4.93,4.93,0,0,1,2-2.06,5.85,5.85,0,0,1,2.88-.7,5.21,5.21,0,0,1,3.06.84,4.85,4.85,0,0,1,1.77,2.24,8.52,8.52,0,0,1,.55,3.16,6.87,6.87,0,0,1-.72,3.27,4.81,4.81,0,0,1-2,2.06,5.86,5.86,0,0,1-2.89.7,5.2,5.2,0,0,1-3.05-.84,4.83,4.83,0,0,1-1.76-2.24,8.32,8.32,0,0,1-.56-3.16A6.87,6.87,0,0,1,287.7,469.17Zm7.51,1.16a3.46,3.46,0,0,0-1-1.63,2.9,2.9,0,0,0-4,.5,5.34,5.34,0,0,0-.78,3.13,7.68,7.68,0,0,0,.35,2.38,3.76,3.76,0,0,0,1,1.68,2.51,2.51,0,0,0,1.73.61,2.57,2.57,0,0,0,2.27-1.13,5.45,5.45,0,0,0,.79-3.18A7.43,7.43,0,0,0,295.21,470.33Z"/><path class="cls-13" d="M311.44,468.38H309.2a3.8,3.8,0,0,1,.54,2,3.67,3.67,0,0,1-.64,2.18,4,4,0,0,1-1.76,1.38,6.56,6.56,0,0,1-2.53.46,5.54,5.54,0,0,1-1.33-.14,1.71,1.71,0,0,0-.49.57,1.44,1.44,0,0,0-.2.71,1.23,1.23,0,0,0,.31,1,1.67,1.67,0,0,0,1.09.27h2.22a5.08,5.08,0,0,1,3.53.94,3.18,3.18,0,0,1,1,2.43,3,3,0,0,1-.8,2.07,5.22,5.22,0,0,1-2.14,1.38,8.87,8.87,0,0,1-3,.48,6.91,6.91,0,0,1-3.78-.88,3,3,0,0,1-1.36-2.66,2.26,2.26,0,0,1,.51-1.46,3.77,3.77,0,0,1,1.2-1,2,2,0,0,1-.95-1.82A2.6,2.6,0,0,1,301,475a3.67,3.67,0,0,1,1.1-1.16,3.9,3.9,0,0,1-1.55-1.37,3.43,3.43,0,0,1-.57-1.94,3.85,3.85,0,0,1,.65-2.27,3.81,3.81,0,0,1,1.76-1.36,6.89,6.89,0,0,1,2.57-.45,5.63,5.63,0,0,1,3,.74,3.55,3.55,0,0,1,1-.53,4,4,0,0,1,1.26-.21h1.19ZM303,478.59a2.38,2.38,0,0,0-.58.7,2.09,2.09,0,0,0-.21,1,2,2,0,0,0,.68,1.66,3.59,3.59,0,0,0,2.21.54,7.29,7.29,0,0,0,1.8-.21,3.37,3.37,0,0,0,1.32-.61,1.27,1.27,0,0,0,.49-1,2.29,2.29,0,0,0-.25-1.12,1.61,1.61,0,0,0-.92-.66,5.7,5.7,0,0,0-1.86-.23h-1.1A13.16,13.16,0,0,1,303,478.59Zm3.79-6.27a2.32,2.32,0,0,0,.64-1.87,2.53,2.53,0,0,0-.6-1.82A2.44,2.44,0,0,0,305,468a3.13,3.13,0,0,0-1.89.53,2.16,2.16,0,0,0-.7,1.86,2.53,2.53,0,0,0,.61,1.76,2.4,2.4,0,0,0,1.88.7A2.83,2.83,0,0,0,306.75,472.32Z"/><path class="cls-13" d="M313.38,461.91a1.84,1.84,0,0,1,.66-.61,1.74,1.74,0,0,1,.83-.23,1.52,1.52,0,0,1,1.13.41,1.44,1.44,0,0,1,.39,1,1.6,1.6,0,0,1-.25.86,1.75,1.75,0,0,1-.64.6,1.71,1.71,0,0,1-.85.22,1.61,1.61,0,0,1-.76-.18,1.49,1.49,0,0,1-.55-.51,1.4,1.4,0,0,1-.21-.76A1.58,1.58,0,0,1,313.38,461.91Zm2.57,4.51v12.25h-2.37V466.42Z"/><path class="cls-13" d="M326.43,466.61a3.94,3.94,0,0,1,1.16.43l-.37,1.94a3.38,3.38,0,0,0-1.16-.56,6.22,6.22,0,0,0-1.59-.18,3.42,3.42,0,0,0-1.72.45,3.31,3.31,0,0,0-1.3,1.43,5.33,5.33,0,0,0-.49,2.44,5.55,5.55,0,0,0,.45,2.34,3.45,3.45,0,0,0,1.23,1.49,3.17,3.17,0,0,0,1.76.5,6.14,6.14,0,0,0,1.66-.21,5.17,5.17,0,0,0,1.27-.47l.48,1.31a4.11,4.11,0,0,1-1.59.84,7.3,7.3,0,0,1-2.17.32,5.23,5.23,0,0,1-2.89-.78,4.91,4.91,0,0,1-1.86-2.14,7.29,7.29,0,0,1-.63-3.09,7.41,7.41,0,0,1,.67-3.21,5.2,5.2,0,0,1,2-2.23,6.06,6.06,0,0,1,3.25-.82A7.79,7.79,0,0,1,326.43,466.61Z"/><path class="cls-13" d="M158.28,354.32l3.87,10.92.72,2.51.74-2.51,3.69-10.92h2.52l-6,16.35h-2l-6.12-16.35Z"/><path class="cls-13" d="M177.64,358.72a2.78,2.78,0,0,1,1.48,1.15,4.36,4.36,0,0,1,.52,2.34v8.47h-1a2.75,2.75,0,0,1-.73-.07.59.59,0,0,1-.38-.3,1.44,1.44,0,0,1-.14-.75v-.09a4.4,4.4,0,0,1-1.48.85,5.45,5.45,0,0,1-2,.36,4.35,4.35,0,0,1-1.94-.42,3.16,3.16,0,0,1-1.33-1.2,3.42,3.42,0,0,1-.48-1.83,3.3,3.3,0,0,1,.63-2,4,4,0,0,1,1.76-1.31,11.25,11.25,0,0,1,2.26-.6,15.68,15.68,0,0,1,2.4-.19V362a2,2,0,0,0-.28-1.16,1.32,1.32,0,0,0-.82-.52,6.54,6.54,0,0,0-1.51-.14,6.94,6.94,0,0,0-1.19.13,10.52,10.52,0,0,0-1.26.32,4.1,4.1,0,0,0-.86.37l-.58-1.47a6,6,0,0,1,1-.44,13.7,13.7,0,0,1,1.68-.48,8.32,8.32,0,0,1,1.81-.21A7.54,7.54,0,0,1,177.64,358.72Zm-1.9,10a5.7,5.7,0,0,0,1-.36,2,2,0,0,0,.55-.36v-3.43a12,12,0,0,0-1.77.15,5.8,5.8,0,0,0-1.58.44,2.9,2.9,0,0,0-1,.73,1.61,1.61,0,0,0-.36,1.09c0,1.26.71,1.89,2.12,1.89A4,4,0,0,0,175.74,368.77Z"/><path class="cls-13" d="M185.44,352.93v17.74h-2.37V352.93Z"/><path class="cls-13" d="M188.85,353.91a1.84,1.84,0,0,1,.66-.61,1.71,1.71,0,0,1,.83-.23,1.48,1.48,0,0,1,1.12.41,1.44,1.44,0,0,1,.39,1,1.59,1.59,0,0,1-.24.86,1.7,1.7,0,0,1-.65.6,1.66,1.66,0,0,1-.85.22,1.6,1.6,0,0,1-.75-.18,1.42,1.42,0,0,1-.55-.51,1.4,1.4,0,0,1-.21-.76A1.5,1.5,0,0,1,188.85,353.91Zm2.56,4.51v12.25h-2.36V358.42Z"/><path class="cls-13" d="M204.6,352.93v17.75h-1a2.4,2.4,0,0,1-.67-.07.66.66,0,0,1-.4-.27,1,1,0,0,1-.15-.61v-.44a4.77,4.77,0,0,1-1.37,1,4.48,4.48,0,0,1-2,.4,4.63,4.63,0,0,1-2.42-.64,4.52,4.52,0,0,1-1.75-1.91,6.83,6.83,0,0,1-.66-3.15,7.41,7.41,0,0,1,.77-3.41,5.63,5.63,0,0,1,2.15-2.33,6.2,6.2,0,0,1,3.22-.83,6.73,6.73,0,0,1,2,.3l0-.66v-5.12Zm-7.27,14.89a2.73,2.73,0,0,0,2.28,1,3.69,3.69,0,0,0,1.46-.28,5.11,5.11,0,0,0,1.16-.66v-7.14a1.84,1.84,0,0,0-.85-.46,5.13,5.13,0,0,0-1.35-.15,3.12,3.12,0,0,0-1.79.54,3.55,3.55,0,0,0-1.25,1.59,6.38,6.38,0,0,0-.45,2.52A4.85,4.85,0,0,0,197.33,367.82Z"/><path class="cls-13" d="M207.86,353.91a1.84,1.84,0,0,1,.66-.61,1.71,1.71,0,0,1,.83-.23,1.48,1.48,0,0,1,1.12.41,1.44,1.44,0,0,1,.39,1,1.59,1.59,0,0,1-.24.86,1.81,1.81,0,0,1-1.5.82,1.6,1.6,0,0,1-.75-.18,1.42,1.42,0,0,1-.55-.51,1.4,1.4,0,0,1-.21-.76A1.5,1.5,0,0,1,207.86,353.91Zm2.56,4.51v12.25h-2.36V358.42Z"/><path class="cls-13" d="M214.42,360.2h-1.59v-1.27l.39-.12c.32-.09.57-.18.73-.24a1.22,1.22,0,0,0,.41-.27,1.24,1.24,0,0,0,.28-.48c.11-.28.27-.8.48-1.54l.23-.81h1.42v2.95h3.46v1.78h-3.46v6.09a9.52,9.52,0,0,0,.1,1.7.86.86,0,0,0,.36.65,1.89,1.89,0,0,0,.89.15,5.25,5.25,0,0,0,1.13-.15,4.94,4.94,0,0,0,1-.3l.41,1.34a5.1,5.1,0,0,1-1.51.69,6.16,6.16,0,0,1-1.88.31,3,3,0,0,1-2.08-.66,3.14,3.14,0,0,1-.74-2.4Z"/><path class="cls-13" d="M233.13,358.42,229,371.05c-.91,2.8-2.19,4.44-3.84,4.9a5.85,5.85,0,0,1-.58.12,4.34,4.34,0,0,1-.58,0,6.54,6.54,0,0,1-.7,0,1.59,1.59,0,0,1-.5-.11V374a2.58,2.58,0,0,0,.48.09l.55,0a2.67,2.67,0,0,0,1.13-.29,3.35,3.35,0,0,0,1.16-1.07,6.24,6.24,0,0,0,.88-2.13h-.7l-4.44-12.25h2.53l2.7,8.25.63,2,.54-2,2.32-8.25Z"/><path class="cls-13" d="M249.22,358.61a3.94,3.94,0,0,1,1.16.43L250,361a3.38,3.38,0,0,0-1.16-.56,6.22,6.22,0,0,0-1.59-.18,3.46,3.46,0,0,0-1.73.45,3.35,3.35,0,0,0-1.29,1.43,5.32,5.32,0,0,0-.5,2.44,5.55,5.55,0,0,0,.45,2.34,3.54,3.54,0,0,0,1.24,1.49,3.15,3.15,0,0,0,1.76.5,6.14,6.14,0,0,0,1.66-.21,5.23,5.23,0,0,0,1.26-.47l.49,1.31a4.11,4.11,0,0,1-1.59.84,7.35,7.35,0,0,1-2.17.32,5.26,5.26,0,0,1-2.9-.78,5,5,0,0,1-1.85-2.14,7.29,7.29,0,0,1-.63-3.09,7.41,7.41,0,0,1,.67-3.21,5.08,5.08,0,0,1,2-2.23,6,6,0,0,1,3.24-.82A7.88,7.88,0,0,1,249.22,358.61Z"/><path class="cls-13" d="M252.51,361.17a4.93,4.93,0,0,1,2-2.06,5.85,5.85,0,0,1,2.88-.7,5.21,5.21,0,0,1,3.06.84,4.85,4.85,0,0,1,1.77,2.24,8.52,8.52,0,0,1,.55,3.16,7,7,0,0,1-.71,3.27,4.89,4.89,0,0,1-2,2.06,5.86,5.86,0,0,1-2.89.7,5.2,5.2,0,0,1-3.05-.84,4.83,4.83,0,0,1-1.76-2.24,8.32,8.32,0,0,1-.56-3.16A6.87,6.87,0,0,1,252.51,361.17Zm7.51,1.16a3.46,3.46,0,0,0-1-1.63,2.9,2.9,0,0,0-4,.5,5.34,5.34,0,0,0-.78,3.13,7.68,7.68,0,0,0,.35,2.38,3.76,3.76,0,0,0,1,1.68,2.51,2.51,0,0,0,1.73.61,2.6,2.6,0,0,0,2.28-1.13,5.53,5.53,0,0,0,.78-3.18A7.43,7.43,0,0,0,260,362.33Z"/><path class="cls-13" d="M267.58,358.42v1.44a9.85,9.85,0,0,1,2.08-1,6.89,6.89,0,0,1,2.37-.45,3.85,3.85,0,0,1,2,.47,2.68,2.68,0,0,1,1.09,1.49,9,9,0,0,1,.35,2.78v7.52h-2.37v-7.5a6.34,6.34,0,0,0-.16-1.61,1.54,1.54,0,0,0-.59-.89,2.18,2.18,0,0,0-1.25-.29h-.29a3.86,3.86,0,0,0-1.47.34,6.16,6.16,0,0,0-1.53.9v9.05h-2.37V358.42Z"/><path class="cls-13" d="M288.56,352.93v17.75h-1a2.45,2.45,0,0,1-.67-.07.66.66,0,0,1-.4-.27,1.1,1.1,0,0,1-.14-.61v-.44a5.06,5.06,0,0,1-1.37,1,4.52,4.52,0,0,1-2,.4,4.68,4.68,0,0,1-2.42-.64,4.5,4.5,0,0,1-1.74-1.91,6.83,6.83,0,0,1-.66-3.15,7.54,7.54,0,0,1,.76-3.41,5.66,5.66,0,0,1,2.16-2.33,6.2,6.2,0,0,1,3.22-.83,6.66,6.66,0,0,1,2,.3l0-.66v-5.12Zm-7.26,14.89a2.71,2.71,0,0,0,2.28,1,3.72,3.72,0,0,0,1.46-.28,5.58,5.58,0,0,0,1.16-.66v-7.14a1.82,1.82,0,0,0-.86-.46,5.05,5.05,0,0,0-1.34-.15,3.08,3.08,0,0,0-1.79.54,3.49,3.49,0,0,0-1.25,1.59,6.38,6.38,0,0,0-.45,2.52A4.85,4.85,0,0,0,281.3,367.82Z"/><path class="cls-13" d="M291.83,353.91a1.84,1.84,0,0,1,.66-.61,1.71,1.71,0,0,1,.83-.23,1.5,1.5,0,0,1,1.12.41,1.44,1.44,0,0,1,.39,1,1.52,1.52,0,0,1-.25.86,1.67,1.67,0,0,1-.64.6,1.71,1.71,0,0,1-.85.22,1.6,1.6,0,0,1-.75-.18,1.35,1.35,0,0,1-.55-.51,1.4,1.4,0,0,1-.21-.76A1.5,1.5,0,0,1,291.83,353.91Zm2.56,4.51v12.25H292V358.42Z"/><path class="cls-13" d="M298.38,360.2h-1.59v-1.27l.39-.12c.33-.09.57-.18.73-.24a1.17,1.17,0,0,0,.42-.27,1.38,1.38,0,0,0,.28-.48c.11-.28.27-.8.47-1.54l.24-.81h1.42v2.95h3.46v1.78h-3.46v6.09a10.93,10.93,0,0,0,.09,1.7.92.92,0,0,0,.36.65,2,2,0,0,0,.9.15,5.17,5.17,0,0,0,1.12-.15,5.08,5.08,0,0,0,1-.3l.4,1.34a5,5,0,0,1-1.51.69,6.1,6.1,0,0,1-1.87.31,3,3,0,0,1-2.08-.66,3.1,3.1,0,0,1-.75-2.4Z"/><path class="cls-13" d="M306.61,353.91a1.84,1.84,0,0,1,.66-.61,1.71,1.71,0,0,1,.83-.23,1.5,1.5,0,0,1,1.12.41,1.44,1.44,0,0,1,.39,1,1.59,1.59,0,0,1-.24.86,1.81,1.81,0,0,1-1.5.82,1.6,1.6,0,0,1-.75-.18,1.42,1.42,0,0,1-.55-.51,1.4,1.4,0,0,1-.21-.76A1.5,1.5,0,0,1,306.61,353.91Zm2.56,4.51v12.25h-2.36V358.42Z"/><path class="cls-13" d="M312.61,361.17a5,5,0,0,1,2-2.06,5.85,5.85,0,0,1,2.88-.7,5.21,5.21,0,0,1,3.06.84,4.83,4.83,0,0,1,1.76,2.24,8.32,8.32,0,0,1,.56,3.16,6.87,6.87,0,0,1-.72,3.27,4.87,4.87,0,0,1-2,2.06,5.86,5.86,0,0,1-2.89.7,5.24,5.24,0,0,1-3.06-.84,4.89,4.89,0,0,1-1.76-2.24,8.51,8.51,0,0,1-.56-3.16A6.87,6.87,0,0,1,312.61,361.17Zm7.52,1.16a3.54,3.54,0,0,0-1-1.63,2.63,2.63,0,0,0-1.75-.59,2.6,2.6,0,0,0-2.27,1.09,5.34,5.34,0,0,0-.78,3.13,7.69,7.69,0,0,0,.34,2.38,3.78,3.78,0,0,0,1.05,1.68,2.51,2.51,0,0,0,1.73.61,2.57,2.57,0,0,0,2.27-1.13,5.45,5.45,0,0,0,.79-3.18A7.72,7.72,0,0,0,320.13,362.33Z"/><path class="cls-13" d="M327.68,358.42l0,1.44a9.75,9.75,0,0,1,2.07-1,7,7,0,0,1,2.37-.45,3.8,3.8,0,0,1,2,.47,2.69,2.69,0,0,1,1.1,1.49,9,9,0,0,1,.34,2.78v7.52h-2.36v-7.5a6.84,6.84,0,0,0-.16-1.61,1.58,1.58,0,0,0-.59-.89,2.2,2.2,0,0,0-1.25-.29H331a4,4,0,0,0-1.48.34,6.54,6.54,0,0,0-1.53.9v9.05h-2.36V358.42Z"/><path class="cls-13" d="M339.4,368.4a9.33,9.33,0,0,0,1.27.37,7.31,7.31,0,0,0,1.45.16,2.81,2.81,0,0,0,1.62-.39,1.22,1.22,0,0,0,.57-1.07,1.4,1.4,0,0,0-.64-1.13,9.46,9.46,0,0,0-1.89-1,7.56,7.56,0,0,1-2.52-1.56,3.05,3.05,0,0,1-.89-2.26,2.59,2.59,0,0,1,.58-1.72,3.57,3.57,0,0,1,1.59-1.06,6.81,6.81,0,0,1,2.25-.35,7.91,7.91,0,0,1,1.86.21,6.79,6.79,0,0,1,1.25.42l-.39,1.86a2.88,2.88,0,0,0-1.06-.52,5.59,5.59,0,0,0-1.58-.23,3.5,3.5,0,0,0-1.73.35,1.1,1.1,0,0,0-.59,1,1.5,1.5,0,0,0,.27.9,2.35,2.35,0,0,0,.78.66,12.52,12.52,0,0,0,1.32.6,8.8,8.8,0,0,1,2.58,1.49,2.82,2.82,0,0,1,1,2.23,3.12,3.12,0,0,1-.52,1.81,3.16,3.16,0,0,1-1.5,1.13,6.12,6.12,0,0,1-2.3.39,9.74,9.74,0,0,1-2.31-.27,4.88,4.88,0,0,1-1.59-.6l.35-1.76A4.41,4.41,0,0,0,339.4,368.4Z"/><rect class="cls-3" x="648.08" y="74" width="359.92" height="468" transform="translate(1656.08 616) rotate(180)"/><rect class="cls-4" x="725" y="331.89" width="216" height="72.11" rx="9.27"/><rect class="cls-4" x="725" y="438.89" width="216" height="72.11" rx="9.27"/><line class="cls-5" x1="1066" y1="146.5" x2="1018.61" y2="146.5"/><polygon class="cls-6" points="1020.36 140.52 1010 146.5 1020.36 152.48 1020.36 140.52"/><line class="cls-2" x1="18" y1="146.5" y2="146.5"/><line class="cls-5" x1="18" y1="146.5" x2="64.39" y2="146.5"/><polygon class="cls-6" points="62.64 152.48 73 146.5 62.64 140.52 62.64 152.48"/><line class="cls-5" x1="720" y1="470.5" x2="620.61" y2="470.5"/><polygon class="cls-6" points="622.36 464.52 612 470.5 622.36 476.48 622.36 464.52"/><line class="cls-5" x1="612" y1="361.5" x2="711.39" y2="361.5"/><polygon class="cls-6" points="709.64 367.48 720 361.5 709.64 355.52 709.64 367.48"/><path class="cls-5" d="M827.5,506l1,244.22a8.74,8.74,0,0,1-8.75,8.76l-379.11-1"/><polygon class="cls-6" points="442.38 752.04 432 758 442.35 764.01 442.38 752.04"/><rect class="cls-8" x="684" y="110" width="288" height="72" rx="8.3"/><path class="cls-7" d="M799.84,150.53h-6.69l-1.46,4.14h-2.53l6.25-16.35h2.31l6.1,16.35h-2.59Zm-.6-1.78-2.2-6.34-.46-1.48-.47,1.48-2.32,6.34Z"/><path class="cls-7" d="M812.42,142.61a4.06,4.06,0,0,1,1.16.43L813.2,145a3.3,3.3,0,0,0-1.16-.56,6.11,6.11,0,0,0-1.59-.18,3.45,3.45,0,0,0-1.72.45,3.29,3.29,0,0,0-1.29,1.43,5.32,5.32,0,0,0-.5,2.44,5.55,5.55,0,0,0,.45,2.34,3.41,3.41,0,0,0,1.24,1.49,3.15,3.15,0,0,0,1.76.5,6,6,0,0,0,1.65-.21,5.17,5.17,0,0,0,1.27-.47l.48,1.31a4.06,4.06,0,0,1-1.58.84,7.4,7.4,0,0,1-2.17.32,5.26,5.26,0,0,1-2.9-.78,5,5,0,0,1-1.85-2.14,7.15,7.15,0,0,1-.64-3.09,7.55,7.55,0,0,1,.67-3.21,5.16,5.16,0,0,1,2-2.23,6,6,0,0,1,3.24-.82A7.88,7.88,0,0,1,812.42,142.61Z"/><path class="cls-7" d="M817,144.2h-1.59v-1.27l.39-.12c.33-.09.57-.18.73-.24a1.13,1.13,0,0,0,.41-.27,1.26,1.26,0,0,0,.29-.48c.11-.28.26-.8.47-1.54l.24-.81h1.41v2.95h3.46v1.78H819.3v6.09a10.6,10.6,0,0,0,.1,1.7.89.89,0,0,0,.36.65,2,2,0,0,0,.9.15,5.17,5.17,0,0,0,1.12-.15,4.94,4.94,0,0,0,1-.3l.41,1.34a5,5,0,0,1-1.51.69,6.1,6.1,0,0,1-1.87.31,3,3,0,0,1-2.09-.66,3.14,3.14,0,0,1-.74-2.4Z"/><path class="cls-7" d="M825.18,137.91a1.84,1.84,0,0,1,.66-.61,1.71,1.71,0,0,1,.83-.23,1.5,1.5,0,0,1,1.12.41,1.44,1.44,0,0,1,.39,1,1.52,1.52,0,0,1-.25.86,1.67,1.67,0,0,1-.64.6,1.71,1.71,0,0,1-.85.22,1.6,1.6,0,0,1-.75-.18,1.45,1.45,0,0,1-.56-.51,1.49,1.49,0,0,1-.2-.76A1.5,1.5,0,0,1,825.18,137.91Zm2.56,4.51v12.25h-2.36V142.42Z"/><path class="cls-7" d="M831.18,145.17a4.89,4.89,0,0,1,2-2.06,5.79,5.79,0,0,1,2.88-.7,5.21,5.21,0,0,1,3.06.84,4.83,4.83,0,0,1,1.76,2.24,8.51,8.51,0,0,1,.56,3.16,6.87,6.87,0,0,1-.72,3.27,4.83,4.83,0,0,1-2,2.06,5.83,5.83,0,0,1-2.89.7,5.2,5.2,0,0,1-3.05-.84A4.83,4.83,0,0,1,831,151.6a8.51,8.51,0,0,1-.56-3.16A6.87,6.87,0,0,1,831.18,145.17Zm7.52,1.16a3.62,3.62,0,0,0-1-1.63,2.65,2.65,0,0,0-1.75-.59,2.6,2.6,0,0,0-2.27,1.09,5.34,5.34,0,0,0-.78,3.13,7.69,7.69,0,0,0,.34,2.38,3.85,3.85,0,0,0,1,1.68A2.54,2.54,0,0,0,836,153a2.58,2.58,0,0,0,2.28-1.13,5.53,5.53,0,0,0,.78-3.18A7.73,7.73,0,0,0,838.7,146.33Z"/><path class="cls-7" d="M846.25,142.42v1.44a9.85,9.85,0,0,1,2.08-1,7,7,0,0,1,2.37-.45,3.82,3.82,0,0,1,2,.47,2.69,2.69,0,0,1,1.1,1.49,9.37,9.37,0,0,1,.34,2.78v7.52h-2.36v-7.5a6.28,6.28,0,0,0-.17-1.61,1.49,1.49,0,0,0-.59-.89,2.15,2.15,0,0,0-1.24-.29h-.29a4,4,0,0,0-1.48.34,6.54,6.54,0,0,0-1.53.9v9h-2.36V142.42Z"/><path class="cls-7" d="M858,152.4a9.5,9.5,0,0,0,1.28.37,7.23,7.23,0,0,0,1.45.16,2.85,2.85,0,0,0,1.62-.39,1.21,1.21,0,0,0,.56-1.07,1.37,1.37,0,0,0-.64-1.13,9.06,9.06,0,0,0-1.88-1,7.56,7.56,0,0,1-2.52-1.56,3.06,3.06,0,0,1-.9-2.26,2.6,2.6,0,0,1,.59-1.72,3.59,3.59,0,0,1,1.58-1.06,6.92,6.92,0,0,1,2.26-.35,7.91,7.91,0,0,1,1.86.21,6.37,6.37,0,0,1,1.24.42l-.38,1.86a2.85,2.85,0,0,0-1.07-.52,5.54,5.54,0,0,0-1.58-.23,3.48,3.48,0,0,0-1.72.35,1.09,1.09,0,0,0-.6,1,1.51,1.51,0,0,0,.28.9,2.35,2.35,0,0,0,.78.66,10.88,10.88,0,0,0,1.32.6,9.07,9.07,0,0,1,2.58,1.49,2.82,2.82,0,0,1,1,2.23,3.05,3.05,0,0,1-.53,1.81,3.08,3.08,0,0,1-1.49,1.13,6.19,6.19,0,0,1-2.3.39,9.89,9.89,0,0,1-2.32-.27,4.8,4.8,0,0,1-1.58-.6l.35-1.76A4.6,4.6,0,0,0,858,152.4Z"/><rect class="cls-1" x="720" y="218" width="216" height="72" rx="8.3"/><rect class="cls-1" x="720" y="326" width="216" height="72" rx="8.3"/><path class="cls-13" d="M744.85,248.17v-1.85H757.5v1.85h-5.13v14.5H750v-14.5Z"/><path class="cls-13" d="M767.71,250.42l-4.12,12.63c-.92,2.8-2.2,4.44-3.85,4.9a5.3,5.3,0,0,1-.58.12,4.24,4.24,0,0,1-.58,0,6.68,6.68,0,0,1-.7,0,1.68,1.68,0,0,1-.5-.11V266a2.72,2.72,0,0,0,.49.09l.54,0a2.6,2.6,0,0,0,1.13-.29,3.27,3.27,0,0,0,1.16-1.07,6.24,6.24,0,0,0,.88-2.13h-.7l-4.44-12.25H759l2.71,8.25.62,2,.55-2,2.32-8.25Z"/><path class="cls-13" d="M777.74,251a4.55,4.55,0,0,1,1.75,1.92,6.78,6.78,0,0,1,.66,3.14,7.42,7.42,0,0,1-.77,3.42,5.63,5.63,0,0,1-2.15,2.33,6.2,6.2,0,0,1-3.22.83,6.42,6.42,0,0,1-2-.31l0,1.68v4.05h-2.37V250.42h2.14v1.45a5.61,5.61,0,0,1,1.4-1,4.5,4.5,0,0,1,2.1-.42A4.79,4.79,0,0,1,777.74,251Zm-.79,2.23a2.74,2.74,0,0,0-2.29-1,3.31,3.31,0,0,0-1.45.31,5.3,5.3,0,0,0-1.17.74v7.12a2.21,2.21,0,0,0,.86.4,6.2,6.2,0,0,0,1.34.12,3.13,3.13,0,0,0,1.8-.54,3.58,3.58,0,0,0,1.25-1.58,6.4,6.4,0,0,0,.45-2.53A4.83,4.83,0,0,0,777,253.27Z"/><path class="cls-13" d="M792.1,256.1a4.47,4.47,0,0,1-.1.8h-7.55a1.22,1.22,0,0,1,0,.21q.18,3.78,3.74,3.78a8,8,0,0,0,1.63-.2,5.08,5.08,0,0,0,1.42-.46l.45,1.35a4.62,4.62,0,0,1-1.79.79,9.19,9.19,0,0,1-2.34.31,5.68,5.68,0,0,1-3-.73,4.61,4.61,0,0,1-1.84-2.12,7.8,7.8,0,0,1-.64-3.32,7.46,7.46,0,0,1,.63-3.14,5,5,0,0,1,1.86-2.17,5.36,5.36,0,0,1,3-.79,5.09,5.09,0,0,1,2.25.5,3.81,3.81,0,0,1,1.61,1.5,4.82,4.82,0,0,1,.65,2.41C792.12,255.37,792.11,255.79,792.1,256.1Zm-2.17-1.23a3.34,3.34,0,0,0-.55-2,2.16,2.16,0,0,0-1.9-.77,2.74,2.74,0,0,0-2,.76,4,4,0,0,0-1,2.48h5.39C789.92,255.12,789.93,255,789.93,254.87Z"/><path class="cls-13" d="M811.71,244.93v17.75h-1a2.5,2.5,0,0,1-.67-.07.61.61,0,0,1-.39-.27,1,1,0,0,1-.15-.61v-.44a5.06,5.06,0,0,1-1.37,1,4.48,4.48,0,0,1-2,.4,4.69,4.69,0,0,1-2.43-.64,4.5,4.5,0,0,1-1.74-1.91,6.83,6.83,0,0,1-.66-3.15,7.54,7.54,0,0,1,.76-3.41,5.66,5.66,0,0,1,2.16-2.33,6.2,6.2,0,0,1,3.22-.83,6.66,6.66,0,0,1,2,.3l0-.66v-5.12Zm-7.27,14.89a2.71,2.71,0,0,0,2.28,1,3.72,3.72,0,0,0,1.46-.28,5.58,5.58,0,0,0,1.16-.66v-7.14a1.82,1.82,0,0,0-.86-.46,5.05,5.05,0,0,0-1.34-.15,3.1,3.1,0,0,0-1.79.54,3.55,3.55,0,0,0-1.25,1.59,6.38,6.38,0,0,0-.45,2.52A4.85,4.85,0,0,0,804.44,259.82Z"/><path class="cls-13" d="M824.32,256.1a5.62,5.62,0,0,1-.1.8h-7.55a1.22,1.22,0,0,1,0,.21q.18,3.78,3.74,3.78a8,8,0,0,0,1.63-.2,5.08,5.08,0,0,0,1.42-.46l.45,1.35a4.62,4.62,0,0,1-1.79.79,9.24,9.24,0,0,1-2.34.31,5.68,5.68,0,0,1-2.95-.73,4.69,4.69,0,0,1-1.85-2.12,8,8,0,0,1-.63-3.32,7.46,7.46,0,0,1,.63-3.14,5,5,0,0,1,1.86-2.17,5.36,5.36,0,0,1,3-.79,5,5,0,0,1,2.24.5,3.78,3.78,0,0,1,1.62,1.5,4.93,4.93,0,0,1,.65,2.41C824.34,255.37,824.33,255.79,824.32,256.1Zm-2.17-1.23a3.42,3.42,0,0,0-.55-2,2.18,2.18,0,0,0-1.9-.77,2.71,2.71,0,0,0-2,.76,4,4,0,0,0-1,2.48h5.4C822.14,255.12,822.15,255,822.15,254.87Z"/><path class="cls-13" d="M825.93,252.2v-1.31l1.86-.47v-1.06a5.18,5.18,0,0,1,.66-2.78,3.79,3.79,0,0,1,1.67-1.52,5,5,0,0,1,2.11-.46,5.14,5.14,0,0,1,.88.07,3.89,3.89,0,0,1,.64.16v1.87a3.85,3.85,0,0,0-.74-.16,10.31,10.31,0,0,0-1.1,0,1.56,1.56,0,0,0-1.28.6,2.78,2.78,0,0,0-.47,1.73v1.6h3v1.78h-3v10.47h-2.37V252.2Z"/><path class="cls-13" d="M835.82,245.91a1.84,1.84,0,0,1,.66-.61,1.74,1.74,0,0,1,.83-.23,1.48,1.48,0,0,1,1.12.41,1.41,1.41,0,0,1,.4,1,1.6,1.6,0,0,1-.25.86,1.7,1.7,0,0,1-.65.6,1.65,1.65,0,0,1-.84.22,1.61,1.61,0,0,1-.76-.18,1.42,1.42,0,0,1-.55-.51,1.4,1.4,0,0,1-.21-.76A1.58,1.58,0,0,1,835.82,245.91Zm2.57,4.51v12.25H836V250.42Z"/><path class="cls-13" d="M844,250.42v1.44a9.85,9.85,0,0,1,2.08-1,6.89,6.89,0,0,1,2.37-.45,3.85,3.85,0,0,1,2,.47,2.68,2.68,0,0,1,1.09,1.49,9,9,0,0,1,.34,2.78v7.52h-2.36v-7.5a6.34,6.34,0,0,0-.16-1.61,1.54,1.54,0,0,0-.59-.89,2.18,2.18,0,0,0-1.25-.29h-.29a3.86,3.86,0,0,0-1.47.34,6.16,6.16,0,0,0-1.53.9v9.05H841.9V250.42Z"/><path class="cls-13" d="M855.15,245.91a1.84,1.84,0,0,1,.66-.61,1.71,1.71,0,0,1,.83-.23,1.5,1.5,0,0,1,1.12.41,1.44,1.44,0,0,1,.39,1,1.59,1.59,0,0,1-.24.86,1.81,1.81,0,0,1-1.5.82,1.6,1.6,0,0,1-.75-.18,1.42,1.42,0,0,1-.55-.51,1.4,1.4,0,0,1-.21-.76A1.5,1.5,0,0,1,855.15,245.91Zm2.56,4.51v12.25h-2.36V250.42Z"/><path class="cls-13" d="M861.71,252.2h-1.59v-1.27l.38-.12a6.89,6.89,0,0,0,.73-.24,1.17,1.17,0,0,0,.42-.27,1.24,1.24,0,0,0,.28-.48c.11-.28.27-.8.48-1.54l.23-.81h1.42v2.95h3.46v1.78h-3.46v6.09a9.52,9.52,0,0,0,.1,1.7.86.86,0,0,0,.36.65,1.89,1.89,0,0,0,.89.15,5.25,5.25,0,0,0,1.13-.15,4.94,4.94,0,0,0,1-.3l.41,1.34a5.1,5.1,0,0,1-1.51.69,6.16,6.16,0,0,1-1.88.31,3,3,0,0,1-2.08-.66,3.1,3.1,0,0,1-.74-2.4Z"/><path class="cls-13" d="M869.93,245.91a1.84,1.84,0,0,1,.66-.61,1.74,1.74,0,0,1,.83-.23,1.48,1.48,0,0,1,1.12.41,1.45,1.45,0,0,1,.4,1,1.6,1.6,0,0,1-.25.86,1.7,1.7,0,0,1-.65.6,1.65,1.65,0,0,1-.84.22,1.61,1.61,0,0,1-.76-.18,1.42,1.42,0,0,1-.55-.51,1.4,1.4,0,0,1-.21-.76A1.5,1.5,0,0,1,869.93,245.91Zm2.57,4.51v12.25h-2.37V250.42Z"/><path class="cls-13" d="M875.94,253.17a4.93,4.93,0,0,1,2-2.06,5.85,5.85,0,0,1,2.88-.7,5.21,5.21,0,0,1,3.06.84,4.85,4.85,0,0,1,1.77,2.24,8.52,8.52,0,0,1,.55,3.16,6.87,6.87,0,0,1-.72,3.27,4.81,4.81,0,0,1-2,2.06,5.86,5.86,0,0,1-2.89.7,5.2,5.2,0,0,1-3.05-.84,4.83,4.83,0,0,1-1.76-2.24,8.32,8.32,0,0,1-.56-3.16A6.87,6.87,0,0,1,875.94,253.17Zm7.51,1.16a3.46,3.46,0,0,0-1-1.63,2.9,2.9,0,0,0-4,.5,5.34,5.34,0,0,0-.78,3.13,7.68,7.68,0,0,0,.35,2.38,3.76,3.76,0,0,0,1,1.68,2.51,2.51,0,0,0,1.73.61,2.57,2.57,0,0,0,2.27-1.13,5.45,5.45,0,0,0,.79-3.18A7.43,7.43,0,0,0,883.45,254.33Z"/><path class="cls-13" d="M891,250.42v1.44a9.85,9.85,0,0,1,2.08-1,6.89,6.89,0,0,1,2.37-.45,3.85,3.85,0,0,1,2,.47,2.68,2.68,0,0,1,1.09,1.49,9,9,0,0,1,.34,2.78v7.52h-2.36v-7.5a6.34,6.34,0,0,0-.16-1.61,1.54,1.54,0,0,0-.59-.89,2.18,2.18,0,0,0-1.25-.29h-.29a3.86,3.86,0,0,0-1.47.34,6.16,6.16,0,0,0-1.53.9v9.05H888.9V250.42Z"/><path class="cls-13" d="M902.72,260.4a9.09,9.09,0,0,0,1.28.37,7.16,7.16,0,0,0,1.45.16,2.79,2.79,0,0,0,1.61-.39,1.22,1.22,0,0,0,.57-1.07,1.37,1.37,0,0,0-.64-1.13,9.46,9.46,0,0,0-1.89-1,7.56,7.56,0,0,1-2.52-1.56,3.09,3.09,0,0,1-.89-2.26,2.59,2.59,0,0,1,.58-1.72,3.57,3.57,0,0,1,1.59-1.06,6.86,6.86,0,0,1,2.25-.35,7.91,7.91,0,0,1,1.86.21,6.52,6.52,0,0,1,1.25.42l-.39,1.86a2.79,2.79,0,0,0-1.06-.52,5.59,5.59,0,0,0-1.58-.23,3.52,3.52,0,0,0-1.73.35,1.1,1.1,0,0,0-.59,1,1.5,1.5,0,0,0,.27.9,2.46,2.46,0,0,0,.78.66,12.52,12.52,0,0,0,1.32.6,8.8,8.8,0,0,1,2.58,1.49,2.82,2.82,0,0,1,1,2.23,3,3,0,0,1-.52,1.81,3.18,3.18,0,0,1-1.49,1.13,6.21,6.21,0,0,1-2.31.39,9.86,9.86,0,0,1-2.31-.27,4.88,4.88,0,0,1-1.59-.6l.36-1.76A3.89,3.89,0,0,0,902.72,260.4Z"/><rect class="cls-1" x="720" y="433.89" width="216" height="72.11" rx="9.27"/><path class="cls-13" d="M764.72,478.67H762a4.15,4.15,0,0,1-.35-.68l-.24-.52q-.21-.44-.63-1.56c-.3-.8-.57-1.46-.81-2a7.54,7.54,0,0,0-.85-1.41,2.3,2.3,0,0,0-1.1-.81h-2.85v7h-2.4V462.32H758a6.7,6.7,0,0,1,4.1,1.1,4,4,0,0,1,1.47,3.41,4.91,4.91,0,0,1-.77,2.84,4.22,4.22,0,0,1-2.19,1.61,3.41,3.41,0,0,1,.91.94,9.89,9.89,0,0,1,.75,1.31q.35.69.81,1.8c.45,1,.78,1.72,1,2.13S764.52,478.31,764.72,478.67Zm-7-8.6a3.75,3.75,0,0,0,2.53-.76,3.07,3.07,0,0,0,.88-2.4,3.49,3.49,0,0,0-.35-1.66,2.06,2.06,0,0,0-1.11-.95,5.5,5.5,0,0,0-2-.31,12.68,12.68,0,0,0-2.46.2V470Q755.74,470.07,757.69,470.07Z"/><path class="cls-13" d="M775.88,472.1a5.62,5.62,0,0,1-.1.8h-7.55a1.22,1.22,0,0,1,0,.21q.18,3.78,3.74,3.78a8,8,0,0,0,1.63-.2,5.08,5.08,0,0,0,1.42-.46l.45,1.35a4.62,4.62,0,0,1-1.79.79,9.32,9.32,0,0,1-2.35.31,5.67,5.67,0,0,1-2.94-.73,4.69,4.69,0,0,1-1.85-2.12,8,8,0,0,1-.63-3.32,7.46,7.46,0,0,1,.63-3.14,5,5,0,0,1,1.86-2.17,5.36,5.36,0,0,1,3-.79,5,5,0,0,1,2.24.5,3.89,3.89,0,0,1,1.62,1.5,4.93,4.93,0,0,1,.65,2.41C775.9,471.37,775.89,471.79,775.88,472.1Zm-2.17-1.23a3.35,3.35,0,0,0-.56-2,2.14,2.14,0,0,0-1.89-.77,2.71,2.71,0,0,0-2,.76,4,4,0,0,0-1,2.48h5.4C773.7,471.12,773.71,471,773.71,470.87Z"/><path class="cls-13" d="M779,476.4a9.5,9.5,0,0,0,1.28.37,7.23,7.23,0,0,0,1.45.16,2.85,2.85,0,0,0,1.62-.39,1.23,1.23,0,0,0,.56-1.07,1.37,1.37,0,0,0-.64-1.13,9.06,9.06,0,0,0-1.88-1,7.36,7.36,0,0,1-2.52-1.56,3.06,3.06,0,0,1-.9-2.26,2.55,2.55,0,0,1,.59-1.72,3.54,3.54,0,0,1,1.58-1.06,6.92,6.92,0,0,1,2.26-.35,7.88,7.88,0,0,1,1.85.21,6.52,6.52,0,0,1,1.25.42l-.39,1.86a2.79,2.79,0,0,0-1.06-.52,5.54,5.54,0,0,0-1.58-.23,3.45,3.45,0,0,0-1.72.35,1.09,1.09,0,0,0-.6,1,1.5,1.5,0,0,0,.27.9,2.57,2.57,0,0,0,.78.66,12.52,12.52,0,0,0,1.32.6,8.8,8.8,0,0,1,2.58,1.49,2.79,2.79,0,0,1,1,2.23,3,3,0,0,1-.52,1.81,3.13,3.13,0,0,1-1.49,1.13,6.21,6.21,0,0,1-2.31.39,9.86,9.86,0,0,1-2.31-.27,4.71,4.71,0,0,1-1.58-.6l.35-1.76A4.6,4.6,0,0,0,779,476.4Z"/><path class="cls-13" d="M796.72,467a4.55,4.55,0,0,1,1.75,1.92,6.92,6.92,0,0,1,.65,3.14,7.42,7.42,0,0,1-.76,3.42,5.76,5.76,0,0,1-2.15,2.33,6.2,6.2,0,0,1-3.22.83,6.42,6.42,0,0,1-2-.31l0,1.68v4.05h-2.36V466.42h2.14v1.45a5.55,5.55,0,0,1,1.39-1,4.55,4.55,0,0,1,2.11-.42A4.79,4.79,0,0,1,796.72,467Zm-.79,2.23a2.75,2.75,0,0,0-2.3-1,3.3,3.3,0,0,0-1.44.31,5.61,5.61,0,0,0-1.18.74v7.12a2.19,2.19,0,0,0,.87.4,6.16,6.16,0,0,0,1.33.12,3.14,3.14,0,0,0,1.81-.54,3.65,3.65,0,0,0,1.25-1.58,6.4,6.4,0,0,0,.45-2.53A4.89,4.89,0,0,0,795.93,469.27Z"/><path class="cls-13" d="M801.84,469.17a4.89,4.89,0,0,1,2-2.06,5.79,5.79,0,0,1,2.88-.7,5.26,5.26,0,0,1,3.06.84,4.83,4.83,0,0,1,1.76,2.24,8.51,8.51,0,0,1,.56,3.16,6.87,6.87,0,0,1-.72,3.27,4.89,4.89,0,0,1-2,2.06,5.86,5.86,0,0,1-2.89.7,5.2,5.2,0,0,1-3-.84,4.83,4.83,0,0,1-1.76-2.24,8.32,8.32,0,0,1-.56-3.16A6.87,6.87,0,0,1,801.84,469.17Zm7.51,1.16a3.52,3.52,0,0,0-1-1.63,2.65,2.65,0,0,0-1.75-.59,2.62,2.62,0,0,0-2.28,1.09,5.34,5.34,0,0,0-.78,3.13,7.68,7.68,0,0,0,.35,2.38,3.76,3.76,0,0,0,1,1.68,2.52,2.52,0,0,0,1.73.61,2.6,2.6,0,0,0,2.28-1.13,5.53,5.53,0,0,0,.78-3.18A7.43,7.43,0,0,0,809.35,470.33Z"/><path class="cls-13" d="M816.91,466.42v1.44a9.85,9.85,0,0,1,2.08-1,7,7,0,0,1,2.37-.45,3.82,3.82,0,0,1,2,.47,2.68,2.68,0,0,1,1.09,1.49,9,9,0,0,1,.35,2.78v7.52h-2.37v-7.5a6.34,6.34,0,0,0-.16-1.61,1.54,1.54,0,0,0-.59-.89,2.18,2.18,0,0,0-1.25-.29h-.29a3.9,3.9,0,0,0-1.47.34,6.16,6.16,0,0,0-1.53.9v9.05H814.8V466.42Z"/><path class="cls-13" d="M828.62,476.4a9.5,9.5,0,0,0,1.28.37,7.23,7.23,0,0,0,1.45.16,2.85,2.85,0,0,0,1.62-.39,1.23,1.23,0,0,0,.56-1.07,1.37,1.37,0,0,0-.64-1.13,9.33,9.33,0,0,0-1.88-1,7.36,7.36,0,0,1-2.52-1.56,3.06,3.06,0,0,1-.9-2.26,2.6,2.6,0,0,1,.59-1.72,3.54,3.54,0,0,1,1.58-1.06,6.92,6.92,0,0,1,2.26-.35,7.88,7.88,0,0,1,1.85.21,6.52,6.52,0,0,1,1.25.42l-.39,1.86a2.79,2.79,0,0,0-1.06-.52,5.59,5.59,0,0,0-1.58-.23,3.45,3.45,0,0,0-1.72.35,1.09,1.09,0,0,0-.6,1,1.5,1.5,0,0,0,.27.9,2.57,2.57,0,0,0,.78.66,12.52,12.52,0,0,0,1.32.6,8.8,8.8,0,0,1,2.58,1.49,2.79,2.79,0,0,1,1,2.23,3,3,0,0,1-.52,1.81,3.13,3.13,0,0,1-1.49,1.13,6.21,6.21,0,0,1-2.31.39,9.86,9.86,0,0,1-2.31-.27,4.88,4.88,0,0,1-1.59-.6l.36-1.76A4.22,4.22,0,0,0,828.62,476.4Z"/><path class="cls-13" d="M847.59,472.1a5.62,5.62,0,0,1-.1.8h-7.55a1.22,1.22,0,0,1,0,.21q.18,3.78,3.74,3.78a8,8,0,0,0,1.63-.2,5.08,5.08,0,0,0,1.42-.46l.45,1.35a4.62,4.62,0,0,1-1.79.79,9.24,9.24,0,0,1-2.34.31,5.68,5.68,0,0,1-2.95-.73,4.69,4.69,0,0,1-1.85-2.12,8,8,0,0,1-.63-3.32,7.46,7.46,0,0,1,.63-3.14,5,5,0,0,1,1.86-2.17,5.36,5.36,0,0,1,3-.79,5,5,0,0,1,2.24.5,3.78,3.78,0,0,1,1.62,1.5,4.82,4.82,0,0,1,.65,2.41C847.61,471.37,847.6,471.79,847.59,472.1Zm-2.17-1.23a3.42,3.42,0,0,0-.55-2,2.16,2.16,0,0,0-1.9-.77,2.71,2.71,0,0,0-2,.76,4,4,0,0,0-1,2.48h5.4C845.41,471.12,845.42,471,845.42,470.87Z"/><path class="cls-13" d="M860.17,460.93v17.74H857.8V460.93Z"/><path class="cls-13" d="M863.7,469.17a4.93,4.93,0,0,1,2-2.06,5.85,5.85,0,0,1,2.88-.7,5.21,5.21,0,0,1,3.06.84,4.85,4.85,0,0,1,1.77,2.24,8.52,8.52,0,0,1,.55,3.16,6.87,6.87,0,0,1-.72,3.27,4.81,4.81,0,0,1-2,2.06,5.86,5.86,0,0,1-2.89.7,5.2,5.2,0,0,1-3.05-.84,4.83,4.83,0,0,1-1.76-2.24,8.32,8.32,0,0,1-.56-3.16A6.87,6.87,0,0,1,863.7,469.17Zm7.51,1.16a3.46,3.46,0,0,0-1-1.63,2.9,2.9,0,0,0-4,.5,5.34,5.34,0,0,0-.78,3.13,7.68,7.68,0,0,0,.35,2.38,3.76,3.76,0,0,0,1,1.68,2.51,2.51,0,0,0,1.73.61,2.57,2.57,0,0,0,2.27-1.13,5.45,5.45,0,0,0,.79-3.18A7.43,7.43,0,0,0,871.21,470.33Z"/><path class="cls-13" d="M887.44,468.38H885.2a3.8,3.8,0,0,1,.54,2,3.67,3.67,0,0,1-.64,2.18,4,4,0,0,1-1.76,1.38,6.56,6.56,0,0,1-2.53.46,5.54,5.54,0,0,1-1.33-.14,1.71,1.71,0,0,0-.49.57,1.44,1.44,0,0,0-.2.71,1.23,1.23,0,0,0,.31,1,1.67,1.67,0,0,0,1.09.27h2.22a5.08,5.08,0,0,1,3.53.94,3.18,3.18,0,0,1,1,2.43,3,3,0,0,1-.8,2.07,5.22,5.22,0,0,1-2.14,1.38,8.87,8.87,0,0,1-3,.48,6.91,6.91,0,0,1-3.78-.88,3,3,0,0,1-1.36-2.66,2.26,2.26,0,0,1,.51-1.46,3.77,3.77,0,0,1,1.2-1,2,2,0,0,1-1-1.82A2.6,2.6,0,0,1,877,475a3.67,3.67,0,0,1,1.1-1.16,3.9,3.9,0,0,1-1.55-1.37,3.43,3.43,0,0,1-.57-1.94,3.85,3.85,0,0,1,.65-2.27,3.81,3.81,0,0,1,1.76-1.36,6.89,6.89,0,0,1,2.57-.45,5.63,5.63,0,0,1,3,.74,3.55,3.55,0,0,1,1-.53,4,4,0,0,1,1.26-.21h1.19ZM879,478.59a2.38,2.38,0,0,0-.58.7,2.09,2.09,0,0,0-.21,1,2,2,0,0,0,.68,1.66,3.59,3.59,0,0,0,2.21.54,7.29,7.29,0,0,0,1.8-.21,3.37,3.37,0,0,0,1.32-.61,1.27,1.27,0,0,0,.49-1,2.29,2.29,0,0,0-.25-1.12,1.61,1.61,0,0,0-.92-.66,5.7,5.7,0,0,0-1.86-.23h-1.1A13.16,13.16,0,0,1,879,478.59Zm3.79-6.27a2.32,2.32,0,0,0,.64-1.87,2.53,2.53,0,0,0-.6-1.82A2.44,2.44,0,0,0,881,468a3.13,3.13,0,0,0-1.89.53,2.16,2.16,0,0,0-.7,1.86,2.53,2.53,0,0,0,.61,1.76,2.4,2.4,0,0,0,1.88.7A2.83,2.83,0,0,0,882.75,472.32Z"/><path class="cls-13" d="M889.38,461.91a1.84,1.84,0,0,1,.66-.61,1.74,1.74,0,0,1,.83-.23,1.52,1.52,0,0,1,1.13.41,1.44,1.44,0,0,1,.39,1,1.6,1.6,0,0,1-.25.86,1.75,1.75,0,0,1-.64.6,1.71,1.71,0,0,1-.85.22,1.61,1.61,0,0,1-.76-.18,1.49,1.49,0,0,1-.55-.51,1.4,1.4,0,0,1-.21-.76A1.58,1.58,0,0,1,889.38,461.91Zm2.57,4.51v12.25h-2.37V466.42Z"/><path class="cls-13" d="M902.43,466.61a3.94,3.94,0,0,1,1.16.43l-.37,1.94a3.38,3.38,0,0,0-1.16-.56,6.22,6.22,0,0,0-1.59-.18,3.42,3.42,0,0,0-1.72.45,3.31,3.31,0,0,0-1.3,1.43,5.33,5.33,0,0,0-.49,2.44,5.55,5.55,0,0,0,.45,2.34,3.45,3.45,0,0,0,1.23,1.49,3.17,3.17,0,0,0,1.76.5,6.14,6.14,0,0,0,1.66-.21,5.17,5.17,0,0,0,1.27-.47l.48,1.31a4.11,4.11,0,0,1-1.59.84,7.3,7.3,0,0,1-2.17.32,5.23,5.23,0,0,1-2.89-.78,4.91,4.91,0,0,1-1.86-2.14,7.29,7.29,0,0,1-.63-3.09,7.41,7.41,0,0,1,.67-3.21,5.2,5.2,0,0,1,2-2.23,6.06,6.06,0,0,1,3.25-.82A7.79,7.79,0,0,1,902.43,466.61Z"/><path class="cls-13" d="M734.28,354.32l3.87,10.92.72,2.51.74-2.51,3.69-10.92h2.52l-6,16.35h-2l-6.12-16.35Z"/><path class="cls-13" d="M753.64,358.72a2.78,2.78,0,0,1,1.48,1.15,4.36,4.36,0,0,1,.52,2.34v8.47h-1a2.75,2.75,0,0,1-.73-.07.59.59,0,0,1-.38-.3,1.44,1.44,0,0,1-.14-.75v-.09a4.4,4.4,0,0,1-1.48.85,5.45,5.45,0,0,1-2,.36,4.35,4.35,0,0,1-1.94-.42,3.16,3.16,0,0,1-1.33-1.2,3.42,3.42,0,0,1-.48-1.83,3.3,3.3,0,0,1,.63-2,4,4,0,0,1,1.76-1.31,11.25,11.25,0,0,1,2.26-.6,15.68,15.68,0,0,1,2.4-.19V362a2,2,0,0,0-.28-1.16,1.32,1.32,0,0,0-.82-.52,6.54,6.54,0,0,0-1.51-.14,6.94,6.94,0,0,0-1.19.13,10.52,10.52,0,0,0-1.26.32,4.1,4.1,0,0,0-.86.37l-.58-1.47a6,6,0,0,1,1-.44,13.7,13.7,0,0,1,1.68-.48,8.32,8.32,0,0,1,1.81-.21A7.54,7.54,0,0,1,753.64,358.72Zm-1.9,10a5.7,5.7,0,0,0,1-.36,2,2,0,0,0,.55-.36v-3.43a12,12,0,0,0-1.77.15,5.8,5.8,0,0,0-1.58.44,2.9,2.9,0,0,0-1,.73,1.61,1.61,0,0,0-.36,1.09c0,1.26.71,1.89,2.12,1.89A4,4,0,0,0,751.74,368.77Z"/><path class="cls-13" d="M761.44,352.93v17.74h-2.37V352.93Z"/><path class="cls-13" d="M764.85,353.91a1.84,1.84,0,0,1,.66-.61,1.71,1.71,0,0,1,.83-.23,1.48,1.48,0,0,1,1.12.41,1.44,1.44,0,0,1,.39,1,1.59,1.59,0,0,1-.24.86,1.7,1.7,0,0,1-.65.6,1.66,1.66,0,0,1-.85.22,1.6,1.6,0,0,1-.75-.18,1.42,1.42,0,0,1-.55-.51,1.4,1.4,0,0,1-.21-.76A1.5,1.5,0,0,1,764.85,353.91Zm2.56,4.51v12.25h-2.36V358.42Z"/><path class="cls-13" d="M780.6,352.93v17.75h-1a2.4,2.4,0,0,1-.67-.07.66.66,0,0,1-.4-.27,1,1,0,0,1-.15-.61v-.44a4.77,4.77,0,0,1-1.37,1,4.48,4.48,0,0,1-2,.4,4.63,4.63,0,0,1-2.42-.64,4.52,4.52,0,0,1-1.75-1.91,6.83,6.83,0,0,1-.66-3.15,7.41,7.41,0,0,1,.77-3.41,5.63,5.63,0,0,1,2.15-2.33,6.2,6.2,0,0,1,3.22-.83,6.73,6.73,0,0,1,2,.3l0-.66v-5.12Zm-7.27,14.89a2.73,2.73,0,0,0,2.28,1,3.69,3.69,0,0,0,1.46-.28,5.11,5.11,0,0,0,1.16-.66v-7.14a1.84,1.84,0,0,0-.85-.46,5.13,5.13,0,0,0-1.35-.15,3.12,3.12,0,0,0-1.79.54,3.55,3.55,0,0,0-1.25,1.59,6.38,6.38,0,0,0-.45,2.52A4.85,4.85,0,0,0,773.33,367.82Z"/><path class="cls-13" d="M783.86,353.91a1.84,1.84,0,0,1,.66-.61,1.71,1.71,0,0,1,.83-.23,1.48,1.48,0,0,1,1.12.41,1.44,1.44,0,0,1,.39,1,1.59,1.59,0,0,1-.24.86,1.81,1.81,0,0,1-1.5.82,1.6,1.6,0,0,1-.75-.18,1.42,1.42,0,0,1-.55-.51,1.4,1.4,0,0,1-.21-.76A1.5,1.5,0,0,1,783.86,353.91Zm2.56,4.51v12.25h-2.36V358.42Z"/><path class="cls-13" d="M790.42,360.2h-1.59v-1.27l.39-.12c.32-.09.57-.18.73-.24a1.22,1.22,0,0,0,.41-.27,1.24,1.24,0,0,0,.28-.48c.11-.28.27-.8.48-1.54l.23-.81h1.42v2.95h3.46v1.78h-3.46v6.09a9.52,9.52,0,0,0,.1,1.7.86.86,0,0,0,.36.65,1.89,1.89,0,0,0,.89.15,5.25,5.25,0,0,0,1.13-.15,4.94,4.94,0,0,0,1-.3l.41,1.34a5.1,5.1,0,0,1-1.51.69,6.16,6.16,0,0,1-1.88.31,3,3,0,0,1-2.08-.66,3.14,3.14,0,0,1-.74-2.4Z"/><path class="cls-13" d="M809.13,358.42,805,371.05c-.91,2.8-2.19,4.44-3.84,4.9a5.85,5.85,0,0,1-.58.12,4.34,4.34,0,0,1-.58,0,6.54,6.54,0,0,1-.7,0,1.59,1.59,0,0,1-.5-.11V374a2.58,2.58,0,0,0,.48.09l.55,0a2.67,2.67,0,0,0,1.13-.29,3.35,3.35,0,0,0,1.16-1.07,6.24,6.24,0,0,0,.88-2.13h-.7l-4.44-12.25h2.53l2.7,8.25.63,2,.54-2,2.32-8.25Z"/><path class="cls-13" d="M825.22,358.61a3.94,3.94,0,0,1,1.16.43L826,361a3.38,3.38,0,0,0-1.16-.56,6.22,6.22,0,0,0-1.59-.18,3.46,3.46,0,0,0-1.73.45,3.35,3.35,0,0,0-1.29,1.43,5.32,5.32,0,0,0-.5,2.44,5.55,5.55,0,0,0,.45,2.34,3.54,3.54,0,0,0,1.24,1.49,3.15,3.15,0,0,0,1.76.5,6.14,6.14,0,0,0,1.66-.21,5.23,5.23,0,0,0,1.26-.47l.49,1.31a4.11,4.11,0,0,1-1.59.84,7.35,7.35,0,0,1-2.17.32,5.26,5.26,0,0,1-2.9-.78,5,5,0,0,1-1.85-2.14,7.29,7.29,0,0,1-.63-3.09,7.41,7.41,0,0,1,.67-3.21,5.08,5.08,0,0,1,2-2.23,6,6,0,0,1,3.24-.82A7.88,7.88,0,0,1,825.22,358.61Z"/><path class="cls-13" d="M828.51,361.17a4.93,4.93,0,0,1,2-2.06,5.85,5.85,0,0,1,2.88-.7,5.21,5.21,0,0,1,3.06.84,4.85,4.85,0,0,1,1.77,2.24,8.52,8.52,0,0,1,.55,3.16,7,7,0,0,1-.71,3.27,4.89,4.89,0,0,1-2,2.06,5.86,5.86,0,0,1-2.89.7,5.2,5.2,0,0,1-3-.84,4.83,4.83,0,0,1-1.76-2.24,8.32,8.32,0,0,1-.56-3.16A6.87,6.87,0,0,1,828.51,361.17Zm7.51,1.16a3.46,3.46,0,0,0-1-1.63,2.9,2.9,0,0,0-4,.5,5.34,5.34,0,0,0-.78,3.13,7.68,7.68,0,0,0,.35,2.38,3.76,3.76,0,0,0,1,1.68,2.51,2.51,0,0,0,1.73.61,2.6,2.6,0,0,0,2.28-1.13,5.53,5.53,0,0,0,.78-3.18A7.43,7.43,0,0,0,836,362.33Z"/><path class="cls-13" d="M843.58,358.42v1.44a9.85,9.85,0,0,1,2.08-1,6.89,6.89,0,0,1,2.37-.45,3.85,3.85,0,0,1,2,.47,2.68,2.68,0,0,1,1.09,1.49,9,9,0,0,1,.35,2.78v7.52h-2.37v-7.5a6.34,6.34,0,0,0-.16-1.61,1.54,1.54,0,0,0-.59-.89,2.18,2.18,0,0,0-1.25-.29h-.29a3.86,3.86,0,0,0-1.47.34,6.16,6.16,0,0,0-1.53.9v9.05h-2.37V358.42Z"/><path class="cls-13" d="M864.56,352.93v17.75h-1a2.45,2.45,0,0,1-.67-.07.66.66,0,0,1-.4-.27,1.1,1.1,0,0,1-.14-.61v-.44a5.06,5.06,0,0,1-1.37,1,4.52,4.52,0,0,1-2,.4,4.68,4.68,0,0,1-2.42-.64,4.5,4.5,0,0,1-1.74-1.91,6.83,6.83,0,0,1-.66-3.15,7.54,7.54,0,0,1,.76-3.41,5.66,5.66,0,0,1,2.16-2.33,6.2,6.2,0,0,1,3.22-.83,6.66,6.66,0,0,1,2,.3l0-.66v-5.12Zm-7.26,14.89a2.71,2.71,0,0,0,2.28,1,3.72,3.72,0,0,0,1.46-.28,5.58,5.58,0,0,0,1.16-.66v-7.14a1.82,1.82,0,0,0-.86-.46,5.05,5.05,0,0,0-1.34-.15,3.08,3.08,0,0,0-1.79.54,3.49,3.49,0,0,0-1.25,1.59,6.38,6.38,0,0,0-.45,2.52A4.85,4.85,0,0,0,857.3,367.82Z"/><path class="cls-13" d="M867.83,353.91a1.84,1.84,0,0,1,.66-.61,1.71,1.71,0,0,1,.83-.23,1.5,1.5,0,0,1,1.12.41,1.44,1.44,0,0,1,.39,1,1.52,1.52,0,0,1-.25.86,1.67,1.67,0,0,1-.64.6,1.71,1.71,0,0,1-.85.22,1.6,1.6,0,0,1-.75-.18,1.35,1.35,0,0,1-.55-.51,1.4,1.4,0,0,1-.21-.76A1.5,1.5,0,0,1,867.83,353.91Zm2.56,4.51v12.25H868V358.42Z"/><path class="cls-13" d="M874.38,360.2h-1.59v-1.27l.39-.12c.33-.09.57-.18.73-.24a1.17,1.17,0,0,0,.42-.27,1.38,1.38,0,0,0,.28-.48c.11-.28.27-.8.47-1.54l.24-.81h1.42v2.95h3.46v1.78h-3.46v6.09a10.93,10.93,0,0,0,.09,1.7.92.92,0,0,0,.36.65,2,2,0,0,0,.9.15,5.17,5.17,0,0,0,1.12-.15,5.08,5.08,0,0,0,1-.3l.4,1.34a5,5,0,0,1-1.51.69,6.1,6.1,0,0,1-1.87.31,3,3,0,0,1-2.08-.66,3.1,3.1,0,0,1-.75-2.4Z"/><path class="cls-13" d="M882.61,353.91a1.84,1.84,0,0,1,.66-.61,1.71,1.71,0,0,1,.83-.23,1.5,1.5,0,0,1,1.12.41,1.44,1.44,0,0,1,.39,1,1.59,1.59,0,0,1-.24.86,1.81,1.81,0,0,1-1.5.82,1.6,1.6,0,0,1-.75-.18,1.42,1.42,0,0,1-.55-.51,1.4,1.4,0,0,1-.21-.76A1.5,1.5,0,0,1,882.61,353.91Zm2.56,4.51v12.25h-2.36V358.42Z"/><path class="cls-13" d="M888.61,361.17a5,5,0,0,1,2-2.06,5.85,5.85,0,0,1,2.88-.7,5.21,5.21,0,0,1,3.06.84,4.83,4.83,0,0,1,1.76,2.24,8.32,8.32,0,0,1,.56,3.16,6.87,6.87,0,0,1-.72,3.27,4.87,4.87,0,0,1-2,2.06,5.86,5.86,0,0,1-2.89.7,5.24,5.24,0,0,1-3.06-.84,4.89,4.89,0,0,1-1.76-2.24,8.51,8.51,0,0,1-.56-3.16A6.87,6.87,0,0,1,888.61,361.17Zm7.52,1.16a3.54,3.54,0,0,0-1-1.63,2.63,2.63,0,0,0-1.75-.59,2.6,2.6,0,0,0-2.27,1.09,5.34,5.34,0,0,0-.78,3.13,7.69,7.69,0,0,0,.34,2.38,3.78,3.78,0,0,0,1,1.68,2.51,2.51,0,0,0,1.73.61,2.57,2.57,0,0,0,2.27-1.13,5.45,5.45,0,0,0,.79-3.18A7.72,7.72,0,0,0,896.13,362.33Z"/><path class="cls-13" d="M903.68,358.42l0,1.44a9.75,9.75,0,0,1,2.07-1,7,7,0,0,1,2.37-.45,3.8,3.8,0,0,1,2,.47,2.69,2.69,0,0,1,1.1,1.49,9,9,0,0,1,.34,2.78v7.52h-2.36v-7.5a6.84,6.84,0,0,0-.16-1.61,1.58,1.58,0,0,0-.59-.89,2.2,2.2,0,0,0-1.25-.29H907a4,4,0,0,0-1.48.34,6.54,6.54,0,0,0-1.53.9v9.05h-2.36V358.42Z"/><path class="cls-13" d="M915.4,368.4a9.33,9.33,0,0,0,1.27.37,7.31,7.31,0,0,0,1.45.16,2.81,2.81,0,0,0,1.62-.39,1.22,1.22,0,0,0,.57-1.07,1.4,1.4,0,0,0-.64-1.13,9.46,9.46,0,0,0-1.89-1,7.56,7.56,0,0,1-2.52-1.56,3.05,3.05,0,0,1-.89-2.26,2.59,2.59,0,0,1,.58-1.72,3.57,3.57,0,0,1,1.59-1.06,6.81,6.81,0,0,1,2.25-.35,7.91,7.91,0,0,1,1.86.21,6.79,6.79,0,0,1,1.25.42l-.39,1.86a2.88,2.88,0,0,0-1.06-.52,5.59,5.59,0,0,0-1.58-.23,3.5,3.5,0,0,0-1.73.35,1.1,1.1,0,0,0-.59,1,1.5,1.5,0,0,0,.27.9,2.35,2.35,0,0,0,.78.66,12.52,12.52,0,0,0,1.32.6,8.8,8.8,0,0,1,2.58,1.49,2.82,2.82,0,0,1,1,2.23,3.12,3.12,0,0,1-.52,1.81,3.16,3.16,0,0,1-1.5,1.13,6.12,6.12,0,0,1-2.3.39,9.74,9.74,0,0,1-2.31-.27,4.88,4.88,0,0,1-1.59-.6l.35-1.76A4.41,4.41,0,0,0,915.4,368.4Z"/></svg>