<?xml version="1.0" encoding="utf-8"?>
<!-- Generator: Adobe Illustrator 23.0.2, SVG Export Plug-In . SVG Version: 6.00 Build 0)  -->
<svg version="1.1" xmlns="http://www.w3.org/2000/svg" xmlns:xlink="http://www.w3.org/1999/xlink" x="0px" y="0px" width="1440px"
	 height="223px" viewBox="0 0 1440 223" style="enable-background:new 0 0 1440 223;" xml:space="preserve">
<style type="text/css">
	.st0{opacity:0.55;fill:#F6F6F6;}
	.st1{fill:#ECF6F5;}
	.st2{opacity:0.7;}
	.st3{opacity:0.22;fill:#00A3FF;}
	.st4{opacity:0.55;fill:#00A3FF;}
	.st5{fill:#00A3FF;}
</style>
<g id="Layer_2">
	<path id="bg-shape" class="st0" d="M1439.6,222.5V81.1h-36.8V98h-16.9V81.1H1369V47.3h-18v16.9h-17v16.9h-24.9v9h-9V64.2h-33.8
		v16.9h16.9V98h-16.9V81.1h-16.9V98h8v9h-8v-9h-17.9v17h-16.9v16.9h-16.9V115h16.9V98.1h-16.9V81.4l-16.9-0.3V98h-17.9V47.3h-8v8h-9
		v9H1129v16.9h-33.8v-17h-33.8v16.9h-17.9V98h-16.9v17h-16.9V97.1h16.9v-16h-33.8V64.2h-8v9h-10v8h-15.9V115h-34.8v16.9h-16.9V115
		H890V81.1h-17.9V55.3h-8v-8h-9v33.8h-16.9V98h-16.9V64.2h-16.9v16.9h-33.8V98h16.9v17h-16.9V98.1h-16.9v-17h-12.9v4h-5V64.2h-17.4
		l-0.5,16.9H688V98h-18V81.1h-16.9V47.3h-16.9v16.9h-15.9v16.9h-26.9v9h-8V64.2h-33.8v16.9h16.9V98h-17.9V81.1h-16.9V98h9v9h-9v-9
		h-16.9v17h-16.9v16.9H482V115h17.9V98.1H482v-17h-15.9V98H449V47.3h-9v8h-8v9h-17.9v16.9h-33.8v-17h-34.8v16.9h-16.9V98h-16.9v17
		h-16.9V97.1h16.9v-16h-33.8V64.2h-9v9h-8v8H243V115h-33.8v16.9h-16.9V115h-17.9V81.1h-16.9V55.3h-8v-8h-8v33.8h-17.9V98h-16.9V64.2
		H89.6v16.9H54.8V98h17.9v17H54.8V98.1h-17v-17H24.9v4l-3-20.9H0v158.3H1439.6z M111.5,157.8h-10v-9h10V157.8z M145.3,122.9h-9v-9h9
		V122.9z M213,171.7h-9v-9h9V171.7z M281.7,124.9h-8v-9h8V124.9z M350.4,124.9h-9v-10h9V124.9z M412.2,164.8h4v4h-4V164.8z
		 M385.3,131.9h-10v-9h10V131.9z M419.1,122.9h-9v-9h9V122.9z M453,131.9h-9v-9h9V131.9z M486.8,190.6h-9v-8h9V190.6z M589.4,157.8
		h-9v-8h9V157.8z M623.2,124.9h-8v-10h8V124.9z M658.1,118h-5v-4h5V118z M825.3,157.8h-8v-9h8V157.8z M860.1,122.9h-9v-9h9V122.9z
		 M928.8,171.7h-9v-9h9V171.7z M997.5,124.9h-9v-9h9V124.9z M1065.2,124.9h-9v-10h9V124.9z M1127,164.8h4v4h-4V164.8z M1099.1,131.9
		h-9v-9h9V131.9z M1132.9,122.9h-8v-9h8V122.9z M1167.8,131.9h-9v-9h9V131.9z M1201.6,190.6h-9v-8h9V190.6z M1303.2,157.8h-8v-8h8
		V157.8z M1338,124.9h-10v-10h10V124.9z M1371.9,118h-4v-4h4V118z"/>
</g>
<g id="Layer_1">
	<title>transition_footer</title>
	<desc>Created with Sketch.</desc>
	<rect y="19.9" class="st1" width="17.9" height="17.9"/>
	<g id="Group-5-Copy-4" transform="translate(4.980147, 0.406217)" class="st2">
		<polygon id="Fill-2_3_" class="st3" points="389.2,92.7 407.2,92.7 407.2,74.8 389.2,74.8 		"/>
		<polygon id="Fill-3_1_" class="st3" points="771.5,126.5 789.4,126.5 789.4,108.6 771.5,108.6 		"/>
		<polygon id="Fill-4_1_" class="st4" points="873.1,124.5 891,124.5 891,106.6 873.1,106.6 		"/>
		<polygon id="Fill-5_3_" class="st3" points="208,91.7 226,91.7 226,74.8 208,74.8 		"/>
		<polygon id="Fill-6_1_" class="st3" points="837.2,107.6 855.1,107.6 855.1,90.7 837.2,90.7 		"/>
		<polygon id="Fill-7_2_" class="st4" points="630.2,90.7 648.1,90.7 648.1,72.8 630.2,72.8 		"/>
		<polygon id="Fill-8_3_" class="st5" points="530.6,117.6 548.5,117.6 548.5,99.7 530.6,99.7 		"/>
		<polygon id="Fill-9_2_" class="st4" points="279.7,114.6 297.6,114.6 297.6,96.7 279.7,96.7 		"/>
		<polygon id="Fill-10_3_" class="st3" points="380.3,73.8 388.2,73.8 388.2,65.8 380.3,65.8 		"/>
		<polygon id="Fill-11_3_" class="st3" points="526.6,37.9 536.6,37.9 536.6,30 526.6,30 		"/>
		<polygon id="Fill-12_3_" class="st4" points="490.8,71.8 500.7,71.8 500.7,61.8 490.8,61.8 		"/>
		<polygon id="Fill-13_2_" class="st4" points="673,74.8 682.9,74.8 682.9,64.8 673,64.8 		"/>
		<polygon id="Fill-14_1_" class="st3" points="789.4,107.6 799.4,107.6 799.4,99.7 789.4,99.7 		"/>
		<polygon id="Fill-15_3_" class="st4" points="239.9,37.9 249.9,37.9 249.9,28 239.9,28 		"/>
		<polygon id="Fill-16_3_" class="st3" points="348.4,54.9 358.4,54.9 358.4,46.9 348.4,46.9 		"/>
		<polygon id="Fill-17_2_" class="st3" points="276.7,8.1 284.7,8.1 284.7,0.1 276.7,0.1 		"/>
		<polygon id="Fill-18_3_" class="st4" points="452,126.5 459.9,126.5 459.9,118.6 452,118.6 		"/>
		<polygon id="Fill-19_1_" class="st4" points="746.6,143.5 756.6,143.5 756.6,133.5 746.6,133.5 		"/>
		<polygon id="Fill-20_3_" class="st4" points="455.9,72.8 459.9,72.8 459.9,68.8 455.9,68.8 		"/>
		<polygon id="Fill-2_2_" class="st3" points="40.8,90.7 58.7,90.7 58.7,72.8 40.8,72.8 		"/>
		<polygon id="Fill-8_2_" class="st5" points="183.2,116.6 201.1,116.6 201.1,98.7 183.2,98.7 		"/>
		<polygon id="Fill-10_2_" class="st3" points="32.8,72.8 40.8,72.8 40.8,64.8 32.8,64.8 		"/>
		<polygon id="Fill-11_2_" class="st3" points="178.2,35.9 188.1,35.9 188.1,28 178.2,28 		"/>
		<polygon id="Fill-12_2_" class="st5" points="143.3,69.8 153.3,69.8 153.3,59.8 143.3,59.8 		"/>
		<polygon id="Fill-16_2_" class="st3" points="0,52.9 9.9,52.9 9.9,44.9 0,44.9 		"/>
		<polygon id="Fill-18_2_" class="st4" points="104.5,124.5 112.5,124.5 112.5,116.6 104.5,116.6 		"/>
		<polygon id="Fill-20_2_" class="st4" points="108.5,71.8 112.5,71.8 112.5,67.8 108.5,67.8 		"/>
		<polygon id="Fill-21_1_" class="st5" points="851.2,54.9 855.1,54.9 855.1,50.9 851.2,50.9 		"/>
		<polygon id="Fill-23_1_" class="st3" points="1370.8,72.8 1388.8,72.8 1388.8,54.9 1370.8,54.9 		"/>
		<polygon id="Fill-24_1_" class="st3" points="994.5,37.9 1012.4,37.9 1012.4,20 994.5,20 		"/>
		<polygon id="Fill-25_1_" class="st4" points="888,37.9 905.9,37.9 905.9,20 888,20 		"/>
		<polygon id="Fill-26_1_" class="st3" points="1416.6,18 1434.6,18 1434.6,0.1 1416.6,0.1 		"/>
		<polygon id="Fill-27_1_" class="st3" points="922.8,55.8 940.8,55.8 940.8,37.9 922.8,37.9 		"/>
		<polygon id="Fill-28_1_" class="st5" points="1124.9,72.8 1142.9,72.8 1142.9,54.9 1124.9,54.9 		"/>
		<polygon id="Fill-29_1_" class="st4" points="1245.4,37.9 1263.3,37.9 1263.3,20 1245.4,20 		"/>
		<polygon id="Fill-31_1_" class="st3" points="1388.8,80.7 1396.7,80.7 1396.7,72.8 1388.8,72.8 		"/>
		<polygon id="Fill-32_1_" class="st3" points="1241.4,117.6 1249.4,117.6 1249.4,107.6 1241.4,107.6 		"/>
		<polygon id="Fill-33_1_" class="st5" points="1276.3,84.7 1286.2,84.7 1286.2,74.8 1276.3,74.8 		"/>
		<polygon id="Fill-34_1_" class="st4" points="1097.1,82.7 1107,82.7 1107,72.8 1097.1,72.8 		"/>
		<polygon id="Fill-35_1_" class="st3" points="977.6,47.9 985.6,47.9 985.6,37.9 977.6,37.9 		"/>
		<polygon id="Fill-37_1_" class="st3" points="1419.6,99.7 1429.6,99.7 1429.6,89.7 1419.6,89.7 		"/>
		<polygon id="Fill-39_1_" class="st4" points="1317.1,28 1325,28 1325,20 1317.1,20 		"/>
		<polygon id="Fill-40_1_" class="st4" points="1021.4,10.1 1031.4,10.1 1031.4,0.1 1021.4,0.1 		"/>
		<polygon id="Fill-41_1_" class="st4" points="1317.1,76.8 1321.1,76.8 1321.1,72.8 1317.1,72.8 		"/>
		<polygon id="Fill-42_1_" class="st4" points="921.9,95.7 925.8,95.7 925.8,91.7 921.9,91.7 		"/>
	</g>
</g>
</svg>
