<?xml version="1.0" encoding="utf-8"?>
<!-- Generator: Adobe Illustrator 21.1.0, SVG Export Plug-In . SVG Version: 6.00 Build 0)  -->
<svg version="1.1" id="Layer_1" xmlns="http://www.w3.org/2000/svg" xmlns:xlink="http://www.w3.org/1999/xlink" x="0px" y="0px"
	 viewBox="0 0 1440 220" style="enable-background:new 0 0 1440 220;" xml:space="preserve">
<style type="text/css">
	.st0{fill:#292929;}
	.st1{fill:#E2E0DF;}
	.st2{fill:#8CC396;}
</style>
<title>Fill 1 Copy 15</title>
<desc>Created with Sketch.</desc>
<path class="st0" d="M1443,223V81h-37v17h-17V81h-17V47h-18v17h-17v17h-25v9h-9V64h-34v17h17v17h-17V81h-17v17h8v9h-8v-9h-18v17h-17
	v17h-17v-17h17V98h-17V81.3l-0.4-0.3H1183v17h-18V47h-8v8h-9v9h-17v17h-34V64h-34v17h-18v17h-17v17h-17V97h17V81h-34V64h-8v9h-10v8
	h-16v34h-35v17h-17v-17h-17V81h-18V55h-8v-8h-9v34h-17v17h-17V64h-17v17h-34v17h17v17h-17V98h-17V81h-13v4h-5V64h-17.5L718,81h-30
	v17h-18V81h-17V47h-17v17h-16v17h-27v9h-8V64h-34v17h17v17h-18V81h-17v17h9v9h-9v-9h-17v17h-17v17h-18v-17h18V98h-18V81h-16v17h-17
	V47h-9v8h-8v9h-18v17h-34V64h-35v17h-17v17h-17v17h-17V97h17V81h-34V64h-9v9h-8v8h-18v34h-34v17h-17v-17h-18V81h-17V55h-8v-8h-8v34
	h-18v17h-17V64H87v17H52v17h18v17H52V98H35V81H22v4h-3V64H-3v159H1443z M109,158H99v-9h10V158z M143,123h-9v-9h9V123z M211,172h-9
	v-9h9V172z M280,125h-8v-9h8V125z M349,125h-9v-10h9V125z M411,165h4v4h-4V165z M384,132h-10v-9h10V132z M418,123h-9v-9h9V123z
	 M452,132h-9v-9h9V132z M486,191h-9v-8h9V191z M589,158h-9v-8h9V158z M623,125h-8v-10h8V125z M658,118h-5v-4h5V118z M826,158h-8v-9
	h8V158z M861,123h-9v-9h9V123z M930,172h-9v-9h9V172z M999,125h-9v-9h9V125z M1067,125h-9v-10h9V125z M1129,165h4v4h-4V165z
	 M1101,132h-9v-9h9V132z M1135,123h-8v-9h8V123z M1170,132h-9v-9h9V132z M1204,191h-9v-8h9V191z M1306,158h-8v-8h8V158z M1341,125
	h-10v-10h10V125z M1375,118h-4v-4h4V118z"/>
<g id="Group-5-Copy-4" transform="translate(12.980147, 0.406217)">
	<polygon id="Fill-2_3_" class="st1" points="380,92.6 398,92.6 398,74.6 380,74.6 	"/>
	<polygon id="Fill-3_1_" class="st1" points="764,126.6 782,126.6 782,108.6 764,108.6 	"/>
	<polygon id="Fill-4_1_" class="st2" points="866,124.6 884,124.6 884,106.6 866,106.6 	"/>
	<polygon id="Fill-5_3_" class="st1" points="198,91.6 216,91.6 216,74.6 198,74.6 	"/>
	<polygon id="Fill-6_1_" class="st1" points="830,107.6 848,107.6 848,90.6 830,90.6 	"/>
	<polygon id="Fill-7_2_" class="st2" points="622,90.6 640,90.6 640,72.6 622,72.6 	"/>
	<polygon id="Fill-8_3_" class="st2" points="522,117.6 540,117.6 540,99.6 522,99.6 	"/>
	<polygon id="Fill-9_2_" class="st2" points="270,114.6 288,114.6 288,96.6 270,96.6 	"/>
	<polygon id="Fill-10_3_" class="st1" points="371,73.6 379,73.6 379,65.6 371,65.6 	"/>
	<polygon id="Fill-11_3_" class="st1" points="518,37.6 528,37.6 528,29.6 518,29.6 	"/>
	<polygon id="Fill-12_3_" class="st2" points="482,71.6 492,71.6 492,61.6 482,61.6 	"/>
	<polygon id="Fill-13_2_" class="st2" points="665,74.6 675,74.6 675,64.6 665,64.6 	"/>
	<polygon id="Fill-14_1_" class="st1" points="782,107.6 792,107.6 792,99.6 782,99.6 	"/>
	<polygon id="Fill-15_3_" class="st2" points="230,37.6 240,37.6 240,27.6 230,27.6 	"/>
	<polygon id="Fill-16_3_" class="st1" points="339,54.6 349,54.6 349,46.6 339,46.6 	"/>
	<polygon id="Fill-17_2_" class="st1" points="267,7.6 275,7.6 275,-0.4 267,-0.4 	"/>
	<polygon id="Fill-18_3_" class="st2" points="443,126.6 451,126.6 451,118.6 443,118.6 	"/>
	<polygon id="Fill-19_1_" class="st2" points="739,143.6 749,143.6 749,133.6 739,133.6 	"/>
	<polygon id="Fill-20_3_" class="st2" points="447,72.6 451,72.6 451,68.6 447,68.6 	"/>
	<polygon id="Fill-2_2_" class="st1" points="30,90.6 48,90.6 48,72.6 30,72.6 	"/>
	<polygon id="Fill-8_2_" class="st2" points="173,116.6 191,116.6 191,98.6 173,98.6 	"/>
	<polygon id="Fill-10_2_" class="st1" points="22,72.6 30,72.6 30,64.6 22,64.6 	"/>
	<polygon id="Fill-11_2_" class="st1" points="168,35.6 178,35.6 178,27.6 168,27.6 	"/>
	<polygon id="Fill-12_2_" class="st2" points="133,69.6 143,69.6 143,59.6 133,59.6 	"/>
	<polygon id="Fill-16_2_" class="st1" points="-11,52.6 -1,52.6 -1,44.6 -11,44.6 	"/>
	<polygon id="Fill-18_2_" class="st2" points="94,124.6 102,124.6 102,116.6 94,116.6 	"/>
	<polygon id="Fill-20_2_" class="st2" points="98,71.6 102,71.6 102,67.6 98,67.6 	"/>
	<polygon id="Fill-21_1_" class="st2" points="844,54.6 848,54.6 848,50.6 844,50.6 	"/>
	<polygon id="Fill-23_1_" class="st1" points="1366,72.6 1384,72.6 1384,54.6 1366,54.6 	"/>
	<polygon id="Fill-24_1_" class="st1" points="988,37.6 1006,37.6 1006,19.6 988,19.6 	"/>
	<polygon id="Fill-25_1_" class="st2" points="881,37.6 899,37.6 899,19.6 881,19.6 	"/>
	<polygon id="Fill-26_1_" class="st1" points="1409,17.6 1427,17.6 1427,-0.4 1409,-0.4 	"/>
	<polygon id="Fill-27_1_" class="st1" points="916,55.6 934,55.6 934,37.6 916,37.6 	"/>
	<polygon id="Fill-28_1_" class="st2" points="1119,72.6 1137,72.6 1137,54.6 1119,54.6 	"/>
	<polygon id="Fill-29_1_" class="st2" points="1240,37.6 1258,37.6 1258,19.6 1240,19.6 	"/>
	<polygon id="Fill-31_1_" class="st1" points="1384,80.6 1392,80.6 1392,72.6 1384,72.6 	"/>
	<polygon id="Fill-32_1_" class="st1" points="1236,117.6 1244,117.6 1244,107.6 1236,107.6 	"/>
	<polygon id="Fill-33_1_" class="st2" points="1271,84.6 1281,84.6 1281,74.6 1271,74.6 	"/>
	<polygon id="Fill-34_1_" class="st2" points="1091,82.6 1101,82.6 1101,72.6 1091,72.6 	"/>
	<polygon id="Fill-35_1_" class="st1" points="971,47.6 979,47.6 979,37.6 971,37.6 	"/>
	<polygon id="Fill-37_1_" class="st1" points="1415,99.6 1425,99.6 1425,89.6 1415,89.6 	"/>
	<polygon id="Fill-39_1_" class="st2" points="1312,27.6 1320,27.6 1320,19.6 1312,19.6 	"/>
	<polygon id="Fill-40_1_" class="st2" points="1015,9.6 1025,9.6 1025,-0.4 1015,-0.4 	"/>
	<polygon id="Fill-41_1_" class="st2" points="1312,76.6 1316,76.6 1316,72.6 1312,72.6 	"/>
	<polygon id="Fill-42_1_" class="st2" points="915,95.6 919,95.6 919,91.6 915,91.6 	"/>
</g>
</svg>
