<?xml version="1.0" encoding="utf-8"?>
<svg version="1.1" id="Layer_1" xmlns="http://www.w3.org/2000/svg" xmlns:xlink="http://www.w3.org/1999/xlink" x="0px" y="0px"
	 viewBox="0 0 19 20" style="enable-background:new 0 0 19 20;" xml:space="preserve">
<style type="text/css">
	.st0{fill:#BD0FE1;}
	.st1{fill:#FFFFFF;}
</style>
<title>FIX Engine Open Source</title>
<desc>FIX Engine Open Source Dot Logo</desc>
<g id="Symbols">
	<g id="FIX-Wizard-Preview-Short-Header" transform="translate(-26.000000, -15.000000)">
		<g id="FIX_Engine" transform="translate(26.000000, 15.000000)">
			<path id="Fill-60" class="st0" d="M9.6,19c5.2,0,9.4-4.2,9.4-9.4s-4.2-9.4-9.4-9.4c-5.2,0-9.4,4.2-9.4,9.4S4.4,19,9.6,19"/>
			<polygon id="Fill-62" class="st1" points="8,7.8 8,8.2 5.8,8.2 5.8,9.5 7.9,9.5 7.9,10 5.8,10 5.8,11.5 5.4,11.5 5.4,7.8 			"/>
			<polygon id="Fill-64" class="st1" points="9.2,11.5 9.6,11.5 9.6,7.8 9.2,7.8 			"/>
			<polygon id="Fill-66" class="st1" points="13.9,7.8 13.9,7.8 12.6,9.6 14,11.5 14,11.5 13.5,11.5 12.3,10 11.2,11.5 10.7,11.5 
				10.7,11.5 12,9.6 10.8,7.8 10.8,7.8 11.3,7.8 12.3,9.3 13.4,7.8 			"/>
			<polyline id="Fill-71" class="st0" points="12.6,9.6 12.5,9.8 12.7,9.7 			"/>
			<polyline id="Fill-72" class="st0" points="12,9.6 12.2,9.4 12,9.5 			"/>
		</g>
	</g>
</g>
</svg>
