<?xml version="1.0" encoding="UTF-8"?>
<svg width="301px" height="133px" viewBox="0 0 301 133" version="1.1" xmlns="http://www.w3.org/2000/svg" xmlns:xlink="http://www.w3.org/1999/xlink">
    <!-- Generator: Sketch 46.2 (44496) - http://www.bohemiancoding.com/sketch -->
    <title>imandra_fix_engine_documentation</title>
    <desc>Created with Sketch.</desc>
    <defs>
        <polygon id="path-1" points="28.6438981 0 57.287694 0 57.287694 57 28.6438981 57 0.000102299454 57 0.000102299454 0 28.6438981 0"></polygon>
        <linearGradient x1="21.0649263%" y1="49.7500002%" x2="88.0987141%" y2="49.7500002%" id="linearGradient-3">
            <stop stop-color="#394D7C" offset="0%"></stop>
            <stop stop-color="#53A0FD" offset="47.5247532%"></stop>
            <stop stop-color="#069EEA" offset="100%"></stop>
        </linearGradient>
    </defs>
    <g id="Page-1" stroke="none" stroke-width="1" fill="none" fill-rule="evenodd">
        <g id="imandra_fix_engine_documentation">
            <g id="Page-1-Copy-4">
                <g id="Group-3">
                    <mask id="mask-2" fill="white">
                        <use xlink:href="#path-1"></use>
                    </mask>
                    <g id="Clip-2"></g>
                    <path d="M41.5531173,57 L15.7347812,57 C7.08024748,57 0.000102299454,49.9554107 0.000102299454,41.3443393 L0.000102299454,15.6556607 C0.000102299454,7.04458929 7.08024748,0 15.7347812,0 L41.5531173,0 C50.2066281,0 57.2877963,7.04458929 57.2877963,15.6556607 L57.2877963,41.3443393 C57.2877963,49.9554107 50.2066281,57 41.5531173,57" id="Fill-1" fill="#2AAAA3" mask="url(#mask-2)"></path>
                </g>
                <polygon id="Fill-4" fill="#FFFFFF" points="36.377788 38.2715304 32.7768472 38.2715304 32.7768472 41.5286732 39.8968892 41.5286732 39.8968892 15.4715304 32.8586868 15.4715304 32.8586868 18.7286732 36.377788 18.7286732"></polygon>
                <polygon id="Fill-6" fill="#FFFFFF" points="27.7847362 38.2715304 20.2554964 18.7286732 23.2835602 18.7286732 23.2835602 15.4715304 15.3451226 15.4715304 20.9102129 30.6172446 16.5727161 30.6172446 16.5727161 34.1186732 22.2196459 34.1186732 23.692758 38.2715304 20.8283733 38.2715304 20.8283733 41.5286732 30.5672813 41.5286732 30.5672813 38.2715304"></polygon>
            </g>
            <g id="Group-4-Copy-3" transform="translate(143.000000, 22.000000)" fill="#2E2015">
                <path d="M0.695457451,6.41452128 L1.49508033,6.41452128 L1.49508033,0.0414361702 L0.695457451,0.0414361702 L0.695457451,6.41452128 Z M13.8693211,1.18851064 L13.8693211,6.41452128 L14.6607741,6.41452128 L14.6607741,0.0414361702 L13.7038818,0.0414361702 L11.4602401,3.31893617 L9.19617378,0.0414361702 L8.23928152,0.0414361702 L8.23928152,6.41452128 L9.03073456,6.41452128 L9.03073456,1.17132979 L11.3673082,4.41143617 L11.5327474,4.41143617 L13.8693211,1.18851064 Z M23.5944918,0.0414361702 L20.7054329,6.41452128 L21.5796056,6.41452128 L22.2056194,5.01175532 L25.8851101,5.01175532 L26.520315,6.41452128 L27.3842754,6.41452128 L24.4962377,0.0414361702 L23.5944918,0.0414361702 Z M25.5726138,4.28409574 L22.5181157,4.28409574 L24.0458754,0.841861702 L25.5726138,4.28409574 Z M33.4299554,0.0414361702 L33.4299554,6.41452128 L34.2214085,6.41452128 L34.2214085,1.55234043 L38.1766313,6.41452128 L38.7291165,6.41452128 L38.7291165,0.0414361702 L37.9376635,0.0414361702 L37.9376635,4.92079787 L33.9906106,0.0414361702 L33.4299554,0.0414361702 Z M45.4722965,0.0414361702 L45.4722965,6.41452128 L47.8190824,6.41452128 C50.0729365,6.41452128 51.0574019,4.7843617 51.0574019,3.15521277 C51.0574019,1.57962766 50.008599,0.0323404255 47.8190824,0.0323404255 L45.4722965,0.0323404255 L45.4722965,0.0414361702 Z M47.8190824,5.62117021 L46.2729406,5.62117021 L46.2729406,0.797393617 L47.8190824,0.797393617 C49.4653048,0.797393617 50.2567578,1.96265957 50.2567578,3.14611702 C50.2567578,4.36595745 49.5296422,5.62117021 47.8190824,5.62117021 L47.8190824,5.62117021 Z M61.775208,6.41452128 L62.7872467,6.41452128 L60.6620676,4.05670213 C61.9866026,3.94654255 62.5207057,3.04606383 62.5115147,2.08090426 C62.5115147,1.04196809 61.7843991,0.0414361702 60.3311892,0.0414361702 L57.4063872,0.0414361702 L57.4063872,6.41452128 L58.2060101,6.41452128 L58.2060101,4.12037234 L59.7695128,4.12037234 L61.775208,6.41452128 Z M60.2944249,3.40989362 L58.2060101,3.40989362 L58.2060101,0.750904255 L60.3311892,0.750904255 C61.2605082,0.750904255 61.7200616,1.46138298 61.7118918,2.09909574 C61.7118918,2.81867021 61.2605082,3.40989362 60.2944249,3.40989362 L60.2944249,3.40989362 Z M71.1786914,0.0414361702 L68.2896325,6.41452128 L69.1638052,6.41452128 L69.789819,5.01175532 L73.4693097,5.01175532 L74.1034934,6.41452128 L74.968475,6.41452128 L72.0804373,0.0414361702 L71.1786914,0.0414361702 Z M73.1568134,4.28409574 L70.1012941,4.28409574 L71.630075,0.841861702 L73.1568134,4.28409574 Z" id="Fill-1"></path>
                <path d="M6.32468001,12.3530319 L6.32468001,17.5790426 L7.11511182,17.5790426 L7.11511182,11.2069681 L6.15924079,11.2069681 L3.91457783,14.4834574 L1.65153273,11.2069681 L0.694640467,11.2069681 L0.694640467,17.5790426 L1.48609351,17.5790426 L1.48609351,12.3348404 L3.82266715,15.5769681 L3.98810637,15.5769681 L6.32468001,12.3530319 Z M16.0100228,11.2069681 L13.1209639,17.5790426 L13.9961578,17.5790426 L14.6211504,16.1772872 L18.3016624,16.1772872 L18.935846,17.5790426 L19.7998064,17.5790426 L16.9117687,11.2069681 L16.0100228,11.2069681 Z M17.9881448,15.448617 L14.9346679,15.448617 L16.4614064,12.0084043 L17.9881448,15.448617 Z M30.1755005,17.5790426 L31.1885604,17.5790426 L29.0633813,15.2212234 C30.3868951,15.1110638 30.9209982,14.2105851 30.9118072,13.2454255 C30.9118072,12.2085106 30.1846916,11.2069681 28.7314817,11.2069681 L25.8056585,11.2069681 L25.8056585,17.5790426 L26.6063026,17.5790426 L26.6063026,15.2848936 L28.1708265,15.2848936 L30.1755005,17.5790426 Z M28.6947174,14.5744149 L26.6063026,14.5744149 L26.6063026,11.9164362 L28.7314817,11.9164362 C29.6608007,11.9164362 30.1213753,12.6269149 30.111163,13.263617 C30.111163,13.9831915 29.6608007,14.5744149 28.6947174,14.5744149 L28.6947174,14.5744149 Z M37.3496394,17.5790426 L38.1410925,17.5790426 L38.1410925,14.5845213 L41.2783102,17.5790426 L42.2709455,17.5790426 L42.2709455,17.5244681 L38.9039511,14.2742553 L41.9962347,11.2524468 L41.9962347,11.2069681 L40.9923659,11.2069681 L38.1410925,14.0195745 L38.1410925,11.2069681 L37.3496394,11.2069681 L37.3496394,17.5790426 Z M48.1215707,17.5790426 L52.794718,17.5790426 L52.794718,16.8240957 L48.9120025,16.8240957 L48.9120025,14.666383 L52.4903915,14.666383 L52.4903915,13.928617 L48.9120025,13.928617 L48.9120025,11.9346277 L52.6466396,11.9346277 L52.6466396,11.2069681 L48.1215707,11.2069681 L48.1215707,17.5790426 Z M60.6030405,11.9164362 L60.6030405,17.5790426 L61.3944936,17.5790426 L61.3944936,11.9164362 L63.5932012,11.9164362 L63.5932012,11.2069681 L58.4043329,11.2069681 L58.4043329,11.9164362 L60.6030405,11.9164362 Z M73.6369957,12.5996277 L74.2446274,12.2256915 C73.6737599,11.2605319 72.7638442,11.0705319 71.806952,11.0705319 C70.6938116,11.0705319 69.3223,11.5253191 69.3406822,12.8553191 C69.3406822,14.1469149 70.5467545,14.4298936 71.7885698,14.6209043 C72.7546532,14.7664362 73.656399,14.9938298 73.6461867,15.7851596 C73.6461867,16.7240426 72.6065749,16.968617 71.8253341,16.968617 C71.0338811,16.968617 70.1699207,16.6047872 69.7553014,15.8498404 L69.0925233,16.2318617 C69.5898622,17.2970745 70.6754294,17.706383 71.816143,17.706383 C73.0487673,17.706383 74.4284487,17.2425 74.4376398,15.8134574 C74.4376398,14.3743085 73.1682512,14.1196277 71.8794593,13.9195213 C70.9327793,13.763883 70.1321352,13.5637766 70.1321352,12.8725 C70.1321352,12.0983511 71.0063079,11.78 71.8253341,11.78 C72.5432586,11.7890957 73.2877351,12.0447872 73.6369957,12.5996277 L73.6369957,12.5996277 Z" id="Fill-3"></path>
            </g>
            <g id="Group-6-Copy-6" transform="translate(93.000000, 9.000000)">
                <polygon id="Fill-27-Copy-4" fill="url(#linearGradient-3)" points="27.672883 0 14.9795454 18.5734 9.95194692 11.3106128 3.1625179 11.3106128 14.2163925 26.5565743 15.4690159 26.5565743 28.7623495 8.53886321 28.7623495 33.5421865 24.4044834 33.5421865 24.4044834 38.8085106 38.9491246 38.8085106 38.9491246 33.5421865 34.4267859 33.5421865 34.4267859 5.37880093 39.0043874 5.37880093 39.0043874 0"></polygon>
                <path d="M7.04421283,0 C5.28282729,0 3.63310694,1.16199551 3.63310694,3.37633909 L3.63310694,3.37633909 C3.63310694,5.64818072 5.28282729,6.86232562 7.04421283,6.86232562 L7.04421283,6.86232562 C8.80692772,6.86232562 10.4579774,5.64818072 10.4579774,3.48598654 L10.4579774,3.48598654 C10.4579774,1.2181564 8.80692772,0 7.04421283,0 L7.04421283,0 Z M0.110335849,11.3485108 L0.110335849,16.1649755 L4.23796009,16.1649755 L4.23796009,33.8797242 L0,33.8797242 L0,38.8085106 L13.7042442,38.8085106 L13.7042442,33.8797242 L9.68695582,33.8797242 L9.68695582,11.3485108 L0.110335849,11.3485108 Z" id="Fill-29-Copy-4" fill="#27D798"></path>
            </g>
            <path d="M8.02,93.897 C8.02,94.7970045 8.05599964,95.5079974 8.128,96.03 C8.20000036,96.5520026 8.33949897,96.9569986 8.5465,97.245 C8.75350103,97.5330014 9.05049806,97.7219995 9.4375,97.812 C9.82450194,97.9020005 10.3329968,97.9559999 10.963,97.974 L10.963,99 L2.215,99 L2.215,97.974 C2.84500315,97.9559999 3.35349806,97.8975005 3.7405,97.7985 C4.12750193,97.6994995 4.42899892,97.5150013 4.645,97.245 C4.86100108,96.9749987 5.00499964,96.5925025 5.077,96.0975 C5.14900036,95.6024975 5.185,94.9320042 5.185,94.086 L5.185,83.124 C5.185,82.3679962 5.15350031,81.7425025 5.0905,81.2475 C5.02749969,80.7524975 4.90150095,80.3610014 4.7125,80.073 C4.52349906,79.7849986 4.2490018,79.5825006 3.889,79.4655 C3.5289982,79.3484994 3.06100288,79.2720002 2.485,79.236 L2.485,78.21 L10.693,78.21 L10.693,79.236 C10.1169971,79.2540001 9.65350175,79.3259994 9.3025,79.452 C8.95149824,79.5780006 8.68150094,79.7894985 8.4925,80.0865 C8.30349905,80.3835015 8.17750031,80.7929974 8.1145,81.315 C8.05149969,81.8370026 8.02,82.502996 8.02,83.313 L8.02,93.897 Z M19.172,94.68 C19.172,95.4360038 19.1899998,96.0299978 19.226,96.462 C19.2620002,96.8940022 19.3564992,97.2224989 19.5095,97.4475 C19.6625008,97.6725011 19.8829986,97.8209996 20.171,97.893 C20.4590014,97.9650004 20.8639974,98.0189998 21.386,98.055 L21.386,99 L14.204,99 L14.204,98.055 C14.7260026,98.0189998 15.1399985,97.9650004 15.446,97.893 C15.7520015,97.8209996 15.9859992,97.6770011 16.148,97.461 C16.3100008,97.2449989 16.4134998,96.934502 16.4585,96.5295 C16.5035002,96.124498 16.526,95.5800034 16.526,94.896 L16.526,91.44 C16.526,90.4139949 16.5125001,89.5590034 16.4855,88.875 C16.4584999,88.1909966 16.4090004,87.7230013 16.337,87.471 C16.2829997,87.2369988 16.2200004,87.0525007 16.148,86.9175 C16.0759996,86.7824993 15.9590008,86.6745004 15.797,86.5935 C15.6349992,86.5124996 15.4235013,86.4585001 15.1625,86.4315 C14.9014987,86.4044999 14.5640021,86.391 14.15,86.391 L14.15,85.446 L18.551,84.42 L18.902,87.12 L19.037,87.12 C19.8470041,86.2019954 20.6974955,85.5225022 21.5885,85.0815 C22.4795045,84.6404978 23.4649946,84.42 24.545,84.42 C25.6790057,84.42 26.6329961,84.6494977 27.407,85.1085 C28.1810039,85.5675023 28.7209985,86.2289957 29.027,87.093 L29.135,87.093 C29.8010033,86.2469958 30.6109952,85.5900023 31.565,85.122 C32.5190048,84.6539977 33.5359946,84.42 34.616,84.42 C35.4620042,84.42 36.2314965,84.5594986 36.9245,84.8385 C37.6175035,85.1175014 38.1439982,85.4999976 38.504,85.986 C38.8280016,86.4000021 39.0574993,86.9444966 39.1925,87.6195 C39.3275007,88.2945034 39.395,89.2169942 39.395,90.387 L39.395,94.68 C39.395,95.4180037 39.4174998,96.0029978 39.4625,96.435 C39.5075002,96.8670022 39.6019993,97.1999988 39.746,97.434 C39.8900007,97.6680012 40.1104985,97.8209996 40.4075,97.893 C40.7045015,97.9650004 41.1139974,98.0189998 41.636,98.055 L41.636,99 L34.454,99 L34.454,98.055 C34.9580025,98.0369999 35.3629985,97.9875004 35.669,97.9065 C35.9750015,97.8254996 36.2089992,97.6725011 36.371,97.4475 C36.5330008,97.2224989 36.6364998,96.912002 36.6815,96.516 C36.7265002,96.119998 36.749,95.5800034 36.749,94.896 L36.749,91.494 C36.749,90.4679949 36.6950005,89.5995036 36.587,88.8885 C36.4789995,88.1774964 36.2990013,87.6015022 36.047,87.1605 C35.7949987,86.7194978 35.466502,86.400001 35.0615,86.202 C34.656498,86.003999 34.1660029,85.905 33.59,85.905 C32.797996,85.905 32.0555035,86.1254978 31.3625,86.5665 C30.6694965,87.0075022 30.125002,87.5969963 29.729,88.335 C29.6389995,88.5150009 29.5625003,88.6904991 29.4995,88.8615 C29.4364997,89.0325009 29.3870002,89.221499 29.351,89.4285 C29.3149998,89.635501 29.2925,89.8829986 29.2835,90.171 C29.2745,90.4590014 29.27,90.8189978 29.27,91.251 L29.27,94.68 C29.27,95.4180037 29.2879998,96.0029978 29.324,96.435 C29.3600002,96.8670022 29.4544992,97.1999988 29.6075,97.434 C29.7605008,97.6680012 29.9899985,97.8209996 30.296,97.893 C30.6020015,97.9650004 31.0159974,98.0189998 31.538,98.055 L31.538,99 L24.356,99 L24.356,98.055 C24.8600025,98.0189998 25.2649985,97.9650004 25.571,97.893 C25.8770015,97.8209996 26.1064992,97.6770011 26.2595,97.461 C26.4125008,97.2449989 26.5114998,96.934502 26.5565,96.5295 C26.6015002,96.124498 26.624,95.5800034 26.624,94.896 L26.624,91.494 C26.624,90.4499948 26.5700005,89.5725036 26.462,88.8615 C26.3539995,88.1504964 26.1785012,87.5745022 25.9355,87.1335 C25.6924988,86.6924978 25.373002,86.3775009 24.977,86.1885 C24.580998,85.9994991 24.0950029,85.905 23.519,85.905 C22.708996,85.905 21.9485036,86.1254978 21.2375,86.5665 C20.5264964,87.0075022 19.9910018,87.5969963 19.631,88.335 C19.5409995,88.5150009 19.4645003,88.6904991 19.4015,88.8615 C19.3384997,89.0325009 19.2890002,89.221499 19.253,89.4285 C19.2169998,89.635501 19.1945,89.8829986 19.1855,90.171 C19.1765,90.4590014 19.172,90.8189978 19.172,91.251 L19.172,94.68 Z M52.599,91.008 C51.5729949,91.404002 50.7045036,91.7909981 49.9935,92.169 C49.2824964,92.5470019 48.7110022,92.9249981 48.279,93.303 C47.8469978,93.6810019 47.5365009,94.0589981 47.3475,94.437 C47.1584991,94.8150019 47.064,95.201998 47.064,95.598 C47.064,96.192003 47.261998,96.6779981 47.658,97.056 C48.054002,97.4340019 48.5759968,97.623 49.224,97.623 C49.6920023,97.623 50.128498,97.5060012 50.5335,97.272 C50.938502,97.0379988 51.2939985,96.718502 51.6,96.3135 C51.9060015,95.908498 52.1489991,95.4315027 52.329,94.8825 C52.5090009,94.3334973 52.599,93.7530031 52.599,93.141 L52.599,91.008 Z M52.599,89.847 L52.599,88.74 C52.599,86.543989 51.6630094,85.446 49.791,85.446 C49.4849985,85.446 49.2240011,85.4729997 49.008,85.527 C48.7919989,85.5810003 48.6120007,85.6709994 48.468,85.797 C48.3239993,85.9230006 48.1935006,86.1029988 48.0765,86.337 C47.9594994,86.5710012 47.8470005,86.8589983 47.739,87.201 C47.540999,87.7230026 47.3475009,88.0694991 47.1585,88.2405 C46.9694991,88.4115009 46.6950018,88.497 46.335,88.497 C45.4349955,88.497 44.985,88.0470045 44.985,87.147 C44.985,86.2829957 45.4439954,85.6125024 46.362,85.1355 C47.2800046,84.6584976 48.5849915,84.42 50.277,84.42 C52.077009,84.42 53.3549962,84.7394968 54.111,85.3785 C54.8670038,86.0175032 55.245,87.1019924 55.245,88.632 L55.245,94.68 C55.245,96.7320103 55.649996,97.758 56.46,97.758 C56.7120013,97.758 56.9549988,97.7265003 57.189,97.6635 C57.4230012,97.6004997 57.6209992,97.4340014 57.783,97.164 L58.161,97.812 C57.9449989,98.2260021 57.5490029,98.5724986 56.973,98.8515 C56.3969971,99.1305014 55.7940031,99.27 55.164,99.27 C54.371996,99.27 53.7825019,99.0180025 53.3955,98.514 C53.0084981,98.0099975 52.815,97.2990046 52.815,96.381 L52.68,96.381 C52.2119977,97.2630044 51.5640041,97.9604974 50.736,98.4735 C49.9079959,98.9865026 48.990005,99.243 47.982,99.243 C46.8479943,99.243 45.9570032,98.9550029 45.309,98.379 C44.6609968,97.8029971 44.337,97.0290049 44.337,96.057 C44.337,95.6249978 44.4134992,95.211002 44.5665,94.815 C44.7195008,94.418998 44.9669983,94.0410018 45.309,93.681 C45.6510017,93.3209982 46.1009972,92.9655018 46.659,92.6145 C47.2170028,92.2634982 47.9009959,91.9080018 48.711,91.548 L52.599,89.847 Z M64.966,94.761 C64.966,95.4990037 64.9839998,96.0794979 65.02,96.5025 C65.0560002,96.9255021 65.1504992,97.2494989 65.3035,97.4745 C65.4565008,97.6995011 65.6814985,97.8479996 65.9785,97.92 C66.2755015,97.9920004 66.6849974,98.0459998 67.207,98.082 L67.207,99 L60.133,99 L60.133,98.082 C60.6370025,98.0459998 61.0374985,97.9920004 61.3345,97.92 C61.6315015,97.8479996 61.8609992,97.7040011 62.023,97.488 C62.1850008,97.2719989 62.2884998,96.966002 62.3335,96.57 C62.3785002,96.173998 62.401,95.6340034 62.401,94.95 L62.401,91.359 C62.401,89.2169893 62.3470005,87.9120023 62.239,87.444 C62.1849997,87.2099988 62.1175004,87.0165008 62.0365,86.8635 C61.9554996,86.7104992 61.8340008,86.5935004 61.672,86.5125 C61.5099992,86.4314996 61.3030013,86.3775001 61.051,86.3505 C60.7989987,86.3234999 60.475002,86.31 60.079,86.31 L60.079,85.446 L64.399,84.42 L64.723,87.093 L64.831,87.093 C65.5150034,86.2469958 66.3159954,85.5900023 67.234,85.122 C68.1520046,84.6539977 69.1509946,84.42 70.231,84.42 C71.0590041,84.42 71.8149966,84.5549987 72.499,84.825 C73.1830034,85.0950014 73.7049982,85.4639977 74.065,85.932 C74.3710015,86.3460021 74.5869994,86.8814967 74.713,87.5385 C74.8390006,88.1955033 74.902,89.0999942 74.902,90.252 L74.902,94.761 C74.902,95.4990037 74.9244998,96.0794979 74.9695,96.5025 C75.0145002,96.9255021 75.1089993,97.2494989 75.253,97.4745 C75.3970007,97.6995011 75.6174985,97.8479996 75.9145,97.92 C76.2115015,97.9920004 76.6029976,98.0459998 77.089,98.082 L77.089,99 L70.096,99 L70.096,98.082 C70.6000025,98.0639999 71.0004985,98.0145004 71.2975,97.9335 C71.5945015,97.8524996 71.8194992,97.7040011 71.9725,97.488 C72.1255008,97.2719989 72.2244998,96.961502 72.2695,96.5565 C72.3145002,96.151498 72.337,95.6160033 72.337,94.95 L72.337,91.386 C72.337,90.3599949 72.2830005,89.4960035 72.175,88.794 C72.0669995,88.0919965 71.8915012,87.5250022 71.6485,87.093 C71.4054988,86.6609978 71.086002,86.3505009 70.69,86.1615 C70.293998,85.9724991 69.8170028,85.878 69.259,85.878 C68.4489959,85.878 67.7065034,86.0894979 67.0315,86.5125 C66.3564966,86.9355021 65.8300019,87.5159963 65.452,88.254 C65.3619996,88.4340009 65.2855003,88.6049992 65.2225,88.767 C65.1594997,88.9290008 65.1100002,89.1179989 65.074,89.334 C65.0379998,89.5500011 65.0110001,89.7974986 64.993,90.0765 C64.9749999,90.3555014 64.966,90.7109978 64.966,91.143 L64.966,94.761 Z M91.805,96.732 L91.697,96.732 C91.0489968,97.6500046 90.3605036,98.3024981 89.6315,98.6895 C88.9024964,99.0765019 88.0430049,99.27 87.053,99.27 C86.0269949,99.27 85.0865043,99.0855018 84.2315,98.7165 C83.3764957,98.3474982 82.6385031,97.8345033 82.0175,97.1775 C81.3964969,96.5204967 80.9105018,95.7330046 80.5595,94.815 C80.2084982,93.8969954 80.033,92.8980054 80.033,91.818 C80.033,90.7559947 80.2084982,89.7705045 80.5595,88.8615 C80.9105018,87.9524955 81.3964969,87.1695033 82.0175,86.5125 C82.6385031,85.8554967 83.3809957,85.3425018 84.245,84.9735 C85.1090043,84.6044982 86.044995,84.42 87.053,84.42 C87.9170043,84.42 88.6864966,84.5639986 89.3615,84.852 C90.0365034,85.1400014 90.6889968,85.5989969 91.319,86.229 L91.319,83.475 C91.319,82.4489949 91.3055001,81.5940034 91.2785,80.91 C91.2514999,80.2259966 91.2110003,79.7580013 91.157,79.506 C91.0669995,79.109998 90.8150021,78.8310008 90.401,78.669 C89.9869979,78.5069992 89.3120047,78.426 88.376,78.426 L88.376,77.616 L93.911,76.59 L93.911,92.169 C93.911,93.4110062 93.9199999,94.432496 93.938,95.2335 C93.9560001,96.034504 94.0099995,96.6059983 94.1,96.948 C94.1540003,97.1640011 94.2214996,97.3439993 94.3025,97.488 C94.3835004,97.6320007 94.5004992,97.7444996 94.6535,97.8255 C94.8065008,97.9065004 95.0134987,97.9649998 95.2745,98.001 C95.5355013,98.0370002 95.8729979,98.055 96.287,98.055 L96.287,98.973 L91.805,99.27 L91.805,96.732 Z M91.265,90.765 C91.265,89.8289953 91.2155005,89.1180024 91.1165,88.632 C91.0174995,88.1459976 90.8240014,87.7230018 90.536,87.363 C90.1219979,86.8229973 89.5955032,86.4135014 88.9565,86.1345 C88.3174968,85.8554986 87.6830031,85.716 87.053,85.716 C85.7569935,85.716 84.7715034,86.2514946 84.0965,87.3225 C83.4214966,88.3935054 83.084,89.8469908 83.084,91.683 C83.084,92.6370048 83.1694991,93.5009961 83.3405,94.275 C83.5115009,95.0490039 83.7634983,95.7104973 84.0965,96.2595 C84.4295017,96.8085027 84.8434975,97.2314985 85.3385,97.5285 C85.8335025,97.8255015 86.4049968,97.974 87.053,97.974 C87.3770016,97.974 87.7054983,97.9380004 88.0385,97.866 C88.3715017,97.7939996 88.6954984,97.6815008 89.0105,97.5285 C89.3255016,97.3754992 89.6179987,97.195501 89.888,96.9885 C90.1580013,96.781499 90.3829991,96.5430013 90.563,96.273 C90.8150013,95.876998 90.9949995,95.4000028 91.103,94.842 C91.2110005,94.2839972 91.265,93.5190049 91.265,92.547 L91.265,90.765 Z M103.956,94.707 C103.956,95.4450037 103.974,96.0299978 104.01,96.462 C104.046,96.8940022 104.140499,97.2224989 104.2935,97.4475 C104.446501,97.6725011 104.666999,97.8209996 104.955,97.893 C105.243001,97.9650004 105.647997,98.0189998 106.17,98.055 L106.17,99 L98.988,99 L98.988,98.055 C99.5100026,98.0369999 99.9239985,97.9875004 100.23,97.9065 C100.536002,97.8254996 100.769999,97.6770011 100.932,97.461 C101.094001,97.2449989 101.1975,96.934502 101.2425,96.5295 C101.2875,96.124498 101.31,95.5800034 101.31,94.896 L101.31,91.737 C101.31,90.5129939 101.2965,89.5590034 101.2695,88.875 C101.2425,88.1909966 101.152501,87.6870016 100.9995,87.363 C100.846499,87.0389984 100.608002,86.8455003 100.284,86.7825 C99.9599984,86.7194997 99.5100029,86.688 98.934,86.688 L98.934,85.743 L103.659,84.717 L104.037,88.065 L104.145,88.065 C104.379001,87.5249973 104.671498,87.0300023 105.0225,86.58 C105.373502,86.1299978 105.755998,85.7475016 106.17,85.4325 C106.584002,85.1174984 107.015998,84.8700009 107.466,84.69 C107.916002,84.5099991 108.374998,84.42 108.843,84.42 C109.419003,84.42 109.873498,84.5594986 110.2065,84.8385 C110.539502,85.1175014 110.706,85.4909977 110.706,85.959 C110.706,86.3910022 110.571001,86.7284988 110.301,86.9715 C110.030999,87.2145012 109.644003,87.336 109.14,87.336 C108.851999,87.336 108.609001,87.3000004 108.411,87.228 C108.212999,87.1559996 108.037501,87.0795004 107.8845,86.9985 C107.731499,86.9174996 107.587501,86.8410004 107.4525,86.769 C107.317499,86.6969996 107.169001,86.661 107.007,86.661 C106.520998,86.661 106.035002,86.9714969 105.549,87.5925 C105.062998,88.2135031 104.685001,89.0009952 104.415,89.955 C104.270999,90.4770026 104.1585,91.0664967 104.0775,91.7235 C103.9965,92.3805033 103.956,93.0689964 103.956,93.789 L103.956,94.707 Z M121.264,91.008 C120.237995,91.404002 119.369504,91.7909981 118.6585,92.169 C117.947496,92.5470019 117.376002,92.9249981 116.944,93.303 C116.511998,93.6810019 116.201501,94.0589981 116.0125,94.437 C115.823499,94.8150019 115.729,95.201998 115.729,95.598 C115.729,96.192003 115.926998,96.6779981 116.323,97.056 C116.719002,97.4340019 117.240997,97.623 117.889,97.623 C118.357002,97.623 118.793498,97.5060012 119.1985,97.272 C119.603502,97.0379988 119.958998,96.718502 120.265,96.3135 C120.571002,95.908498 120.813999,95.4315027 120.994,94.8825 C121.174001,94.3334973 121.264,93.7530031 121.264,93.141 L121.264,91.008 Z M121.264,89.847 L121.264,88.74 C121.264,86.543989 120.328009,85.446 118.456,85.446 C118.149998,85.446 117.889001,85.4729997 117.673,85.527 C117.456999,85.5810003 117.277001,85.6709994 117.133,85.797 C116.988999,85.9230006 116.858501,86.1029988 116.7415,86.337 C116.624499,86.5710012 116.512001,86.8589983 116.404,87.201 C116.205999,87.7230026 116.012501,88.0694991 115.8235,88.2405 C115.634499,88.4115009 115.360002,88.497 115,88.497 C114.099995,88.497 113.65,88.0470045 113.65,87.147 C113.65,86.2829957 114.108995,85.6125024 115.027,85.1355 C115.945005,84.6584976 117.249992,84.42 118.942,84.42 C120.742009,84.42 122.019996,84.7394968 122.776,85.3785 C123.532004,86.0175032 123.91,87.1019924 123.91,88.632 L123.91,94.68 C123.91,96.7320103 124.314996,97.758 125.125,97.758 C125.377001,97.758 125.619999,97.7265003 125.854,97.6635 C126.088001,97.6004997 126.285999,97.4340014 126.448,97.164 L126.826,97.812 C126.609999,98.2260021 126.214003,98.5724986 125.638,98.8515 C125.061997,99.1305014 124.459003,99.27 123.829,99.27 C123.036996,99.27 122.447502,99.0180025 122.0605,98.514 C121.673498,98.0099975 121.48,97.2990046 121.48,96.381 L121.345,96.381 C120.876998,97.2630044 120.229004,97.9604974 119.401,98.4735 C118.572996,98.9865026 117.655005,99.243 116.647,99.243 C115.512994,99.243 114.622003,98.9550029 113.974,98.379 C113.325997,97.8029971 113.002,97.0290049 113.002,96.057 C113.002,95.6249978 113.078499,95.211002 113.2315,94.815 C113.384501,94.418998 113.631998,94.0410018 113.974,93.681 C114.316002,93.3209982 114.765997,92.9655018 115.324,92.6145 C115.882003,92.2634982 116.565996,91.9080018 117.376,91.548 L121.264,89.847 Z M143.271,94.707 C143.271,95.3910034 143.3115,95.9444979 143.3925,96.3675 C143.4735,96.7905021 143.648999,97.1144989 143.919,97.3395 C144.189001,97.5645011 144.571498,97.7219995 145.0665,97.812 C145.561502,97.9020005 146.213996,97.9559999 147.024,97.974 L147.024,99 L137.466,99 L137.466,97.974 C138.096003,97.9559999 138.604498,97.9020005 138.9915,97.812 C139.378502,97.7219995 139.679999,97.5690011 139.896,97.353 C140.112001,97.1369989 140.256,96.831002 140.328,96.435 C140.4,96.038998 140.436,95.5260031 140.436,94.896 L140.436,82.314 C140.436,81.6839969 140.4045,81.1755019 140.3415,80.7885 C140.2785,80.4014981 140.152501,80.0955011 139.9635,79.8705 C139.774499,79.6454989 139.500002,79.4925004 139.14,79.4115 C138.779998,79.3304996 138.312003,79.2720002 137.736,79.236 L137.736,78.21 L153.342,78.21 L153.639,83.367 L152.694,83.367 C152.585999,82.5929961 152.415001,81.9585025 152.181,81.4635 C151.946999,80.9684975 151.618502,80.5770014 151.1955,80.289 C150.772498,80.0009986 150.237003,79.7985006 149.589,79.6815 C148.940997,79.5644994 148.131005,79.506 147.159,79.506 L143.73,79.506 C143.423998,79.506 143.271,79.6589985 143.271,79.965 L143.271,88.119 C144.135004,88.119 144.877497,88.0695005 145.4985,87.9705 C146.119503,87.8714995 146.632498,87.6960013 147.0375,87.444 C147.442502,87.1919987 147.752999,86.8500022 147.969,86.418 C148.185001,85.9859978 148.32,85.4280034 148.374,84.744 L149.319,84.744 L149.319,92.655 L148.374,92.655 C148.284,91.9709966 148.140001,91.4040023 147.942,90.954 C147.743999,90.5039978 147.451502,90.1530013 147.0645,89.901 C146.677498,89.6489987 146.178003,89.4690005 145.566,89.361 C144.953997,89.2529995 144.189005,89.199 143.271,89.199 L143.271,94.707 Z M162.361,93.897 C162.361,94.7970045 162.397,95.5079974 162.469,96.03 C162.541,96.5520026 162.680499,96.9569986 162.8875,97.245 C163.094501,97.5330014 163.391498,97.7219995 163.7785,97.812 C164.165502,97.9020005 164.673997,97.9559999 165.304,97.974 L165.304,99 L156.556,99 L156.556,97.974 C157.186003,97.9559999 157.694498,97.8975005 158.0815,97.7985 C158.468502,97.6994995 158.769999,97.5150013 158.986,97.245 C159.202001,96.9749987 159.346,96.5925025 159.418,96.0975 C159.49,95.6024975 159.526,94.9320042 159.526,94.086 L159.526,83.124 C159.526,82.3679962 159.4945,81.7425025 159.4315,81.2475 C159.3685,80.7524975 159.242501,80.3610014 159.0535,80.073 C158.864499,79.7849986 158.590002,79.5825006 158.23,79.4655 C157.869998,79.3484994 157.402003,79.2720002 156.826,79.236 L156.826,78.21 L165.034,78.21 L165.034,79.236 C164.457997,79.2540001 163.994502,79.3259994 163.6435,79.452 C163.292498,79.5780006 163.022501,79.7894985 162.8335,80.0865 C162.644499,80.3835015 162.5185,80.7929974 162.4555,81.315 C162.3925,81.8370026 162.361,82.502996 162.361,83.313 L162.361,93.897 Z M186.311,96.057 C187.247005,97.3350064 188.389993,97.974 189.74,97.974 L189.74,99 L180.533,99 L180.533,97.974 C181.343004,97.974 181.896499,97.8975008 182.1935,97.7445 C182.490501,97.5914992 182.639,97.3800013 182.639,97.11 C182.639,96.9839994 182.6255,96.8535007 182.5985,96.7185 C182.5715,96.5834993 182.5085,96.417001 182.4095,96.219 C182.3105,96.020999 182.171001,95.7780014 181.991,95.49 C181.810999,95.2019986 181.568002,94.8240023 181.262,94.356 L178.184,89.766 L175.862,92.682 C175.303997,93.3840035 174.836002,93.9869975 174.458,94.491 C174.079998,94.9950025 173.778501,95.4269982 173.5535,95.787 C173.328499,96.1470018 173.1665,96.4439988 173.0675,96.678 C172.9685,96.9120012 172.919,97.1099992 172.919,97.272 C172.919,97.5420013 173.071998,97.7264995 173.378,97.8255 C173.684002,97.9245005 174.259996,97.974 175.106,97.974 L175.106,99 L167.6,99 L167.6,97.974 C168.032002,97.974 168.423498,97.9290005 168.7745,97.839 C169.125502,97.7489996 169.471998,97.600501 169.814,97.3935 C170.156002,97.186499 170.502498,96.9075018 170.8535,96.5565 C171.204502,96.2054982 171.586998,95.7690026 172.001,95.247 L177.293,88.497 L171.812,81.018 C171.361998,80.3879969 170.858003,79.9335014 170.3,79.6545 C169.741997,79.3754986 169.076004,79.236 168.302,79.236 L168.302,78.21 L177.266,78.21 L177.266,79.236 C176.095994,79.236 175.511,79.5869965 175.511,80.289 C175.511,80.7390022 175.762997,81.3329963 176.267,82.071 L179.21,86.445 L181.856,83.097 C182.360003,82.4669968 182.710999,81.954002 182.909,81.558 C183.107001,81.161998 183.206,80.7840018 183.206,80.424 C183.206,79.9739978 183.057501,79.6635009 182.7605,79.4925 C182.463499,79.3214991 181.937004,79.236 181.181,79.236 L181.181,78.21 L188.606,78.21 L188.606,79.236 C188.173998,79.236 187.800502,79.2674997 187.4855,79.3305 C187.170498,79.3935003 186.869001,79.523999 186.581,79.722 C186.292999,79.920001 185.978002,80.2079981 185.636,80.586 C185.293998,80.9640019 184.880002,81.4679968 184.394,82.098 L180.101,87.633 L186.311,96.057 Z M205.834,87.579 C206.806005,87.579 207.620497,87.5205006 208.2775,87.4035 C208.934503,87.2864994 209.456498,87.1020013 209.8435,86.85 C210.230502,86.5979987 210.509499,86.274002 210.6805,85.878 C210.851501,85.481998 210.937,85.0140027 210.937,84.474 L211.882,84.474 L211.882,91.845 L210.937,91.845 C210.937,91.3049973 210.860501,90.837002 210.7075,90.441 C210.554499,90.044998 210.284502,89.7165013 209.8975,89.4555 C209.510498,89.1944987 208.988503,88.9965007 208.3315,88.8615 C207.674497,88.7264993 206.842005,88.659 205.834,88.659 L205.834,94.761 C205.834,95.355003 205.905999,95.8454981 206.05,96.2325 C206.194001,96.6195019 206.441498,96.9344988 206.7925,97.1775 C207.143502,97.4205012 207.606997,97.5914995 208.183,97.6905 C208.759003,97.7895005 209.469996,97.839 210.316,97.839 C211.270005,97.839 212.079997,97.7715007 212.746,97.6365 C213.412003,97.5014993 213.969998,97.2720016 214.42,96.948 C214.870002,96.6239984 215.229999,96.1965027 215.5,95.6655 C215.770001,95.1344973 215.994999,94.473004 216.175,93.681 L217.201,93.681 L216.796,99 L200.029,99 L200.029,97.974 C200.659003,97.9559999 201.167498,97.9020005 201.5545,97.812 C201.941502,97.7219995 202.242999,97.5690011 202.459,97.353 C202.675001,97.1369989 202.819,96.831002 202.891,96.435 C202.963,96.038998 202.999,95.5260031 202.999,94.896 L202.999,82.314 C202.999,81.6839969 202.9675,81.1755019 202.9045,80.7885 C202.8415,80.4014981 202.715501,80.0955011 202.5265,79.8705 C202.337499,79.6454989 202.063002,79.4925004 201.703,79.4115 C201.342998,79.3304996 200.875003,79.2720002 200.299,79.236 L200.299,78.21 L215.905,78.21 L216.148,82.962 L215.203,82.962 C215.094999,82.2419964 214.919501,81.6525023 214.6765,81.1935 C214.433499,80.7344977 214.100502,80.3700013 213.6775,80.1 C213.254498,79.8299987 212.719003,79.6410005 212.071,79.533 C211.422997,79.4249995 210.640005,79.371 209.722,79.371 L206.293,79.371 C205.986998,79.371 205.834,79.5239985 205.834,79.83 L205.834,87.579 Z M225.248,94.761 C225.248,95.4990037 225.266,96.0794979 225.302,96.5025 C225.338,96.9255021 225.432499,97.2494989 225.5855,97.4745 C225.738501,97.6995011 225.963499,97.8479996 226.2605,97.92 C226.557501,97.9920004 226.966997,98.0459998 227.489,98.082 L227.489,99 L220.415,99 L220.415,98.082 C220.919003,98.0459998 221.319499,97.9920004 221.6165,97.92 C221.913501,97.8479996 222.142999,97.7040011 222.305,97.488 C222.467001,97.2719989 222.5705,96.966002 222.6155,96.57 C222.6605,96.173998 222.683,95.6340034 222.683,94.95 L222.683,91.359 C222.683,89.2169893 222.629001,87.9120023 222.521,87.444 C222.467,87.2099988 222.3995,87.0165008 222.3185,86.8635 C222.2375,86.7104992 222.116001,86.5935004 221.954,86.5125 C221.791999,86.4314996 221.585001,86.3775001 221.333,86.3505 C221.080999,86.3234999 220.757002,86.31 220.361,86.31 L220.361,85.446 L224.681,84.42 L225.005,87.093 L225.113,87.093 C225.797003,86.2469958 226.597995,85.5900023 227.516,85.122 C228.434005,84.6539977 229.432995,84.42 230.513,84.42 C231.341004,84.42 232.096997,84.5549987 232.781,84.825 C233.465003,85.0950014 233.986998,85.4639977 234.347,85.932 C234.653002,86.3460021 234.868999,86.8814967 234.995,87.5385 C235.121001,88.1955033 235.184,89.0999942 235.184,90.252 L235.184,94.761 C235.184,95.4990037 235.2065,96.0794979 235.2515,96.5025 C235.2965,96.9255021 235.390999,97.2494989 235.535,97.4745 C235.679001,97.6995011 235.899499,97.8479996 236.1965,97.92 C236.493501,97.9920004 236.884998,98.0459998 237.371,98.082 L237.371,99 L230.378,99 L230.378,98.082 C230.882003,98.0639999 231.282499,98.0145004 231.5795,97.9335 C231.876501,97.8524996 232.101499,97.7040011 232.2545,97.488 C232.407501,97.2719989 232.5065,96.961502 232.5515,96.5565 C232.5965,96.151498 232.619,95.6160033 232.619,94.95 L232.619,91.386 C232.619,90.3599949 232.565001,89.4960035 232.457,88.794 C232.348999,88.0919965 232.173501,87.5250022 231.9305,87.093 C231.687499,86.6609978 231.368002,86.3505009 230.972,86.1615 C230.575998,85.9724991 230.099003,85.878 229.541,85.878 C228.730996,85.878 227.988503,86.0894979 227.3135,86.5125 C226.638497,86.9355021 226.112002,87.5159963 225.734,88.254 C225.644,88.4340009 225.5675,88.6049992 225.5045,88.767 C225.4415,88.9290008 225.392,89.1179989 225.356,89.334 C225.32,89.5500011 225.293,89.7974986 225.275,90.0765 C225.257,90.3555014 225.248,90.7109978 225.248,91.143 L225.248,94.761 Z M246.417,93.195 C247.173004,93.195 247.762498,92.8530034 248.1855,92.169 C248.608502,91.4849966 248.82,90.5220062 248.82,89.28 C248.82,88.0559939 248.608502,87.1065034 248.1855,86.4315 C247.762498,85.7564966 247.164004,85.419 246.39,85.419 C245.615996,85.419 244.999502,85.7609966 244.5405,86.445 C244.081498,87.1290034 243.852,88.0649941 243.852,89.253 C243.852,90.4410059 244.085998,91.3949964 244.554,92.115 C245.022002,92.8350036 245.642996,93.195 246.417,93.195 Z M244.932,96.354 C245.364002,96.3900002 245.759998,96.4259998 246.12,96.462 C246.480002,96.4980002 246.835498,96.5339998 247.1865,96.57 C247.537502,96.6060002 247.888498,96.6509997 248.2395,96.705 C248.590502,96.7590003 248.972998,96.8129997 249.387,96.867 C250.683006,97.065001 251.722496,97.564496 252.5055,98.3655 C253.288504,99.166504 253.68,100.169994 253.68,101.376 C253.68,102.888008 253.081506,104.039996 251.8845,104.832 C250.687494,105.624004 248.955011,106.02 246.687,106.02 C245.678995,106.02 244.756504,105.930001 243.9195,105.75 C243.082496,105.569999 242.367003,105.313502 241.773,104.9805 C241.178997,104.647498 240.715502,104.247002 240.3825,103.779 C240.049498,103.310998 239.883,102.798003 239.883,102.24 C239.883,101.861998 239.945999,101.511002 240.072,101.187 C240.198001,100.862998 240.368999,100.579501 240.585,100.3365 C240.801001,100.093499 241.057499,99.9000007 241.3545,99.756 C241.651501,99.6119993 241.961998,99.54 242.286,99.54 C242.898003,99.54 243.446998,99.7289981 243.933,100.107 C243.446998,100.215001 243.051002,100.480498 242.745,100.9035 C242.438998,101.326502 242.286,101.807997 242.286,102.348 C242.286,103.140004 242.677496,103.751998 243.4605,104.184 C244.243504,104.616002 245.354993,104.832 246.795,104.832 C249.873015,104.832 251.412,103.887009 251.412,101.997 C251.412,101.276996 251.169002,100.678502 250.683,100.2015 C250.196998,99.7244976 249.621003,99.4410005 248.955,99.351 C248.522998,99.2969997 248.077502,99.2385003 247.6185,99.1755 C247.159498,99.1124997 246.709502,99.0540003 246.2685,99 C245.827498,98.9459997 245.418002,98.9010002 245.04,98.865 C244.661998,98.8289998 244.356001,98.7930002 244.122,98.757 C243.113995,98.6489995 242.349003,98.3790022 241.827,97.947 C241.304997,97.5149978 241.044,96.9210038 241.044,96.165 C241.044,95.5349968 241.304997,94.9770024 241.827,94.491 C242.349003,94.0049976 243.005996,93.6990006 243.798,93.573 L243.798,93.465 C243.401998,93.3029992 243.033002,93.0735015 242.691,92.7765 C242.348998,92.4794985 242.056501,92.1420019 241.8135,91.764 C241.570499,91.3859981 241.377001,90.9765022 241.233,90.5355 C241.088999,90.0944978 241.017,89.6400023 241.017,89.172 C241.017,88.4879966 241.147499,87.8580029 241.4085,87.282 C241.669501,86.7059971 242.038498,86.2065021 242.5155,85.7835 C242.992502,85.3604979 243.554997,85.0275012 244.203,84.7845 C244.851003,84.5414988 245.561996,84.42 246.336,84.42 C247.128004,84.42 247.874996,84.5414988 248.577,84.7845 C249.279004,85.0275012 249.881997,85.3829977 250.386,85.851 C250.998003,85.3469975 251.537998,84.9825011 252.006,84.7575 C252.474002,84.5324989 252.914998,84.42 253.329,84.42 C253.977003,84.42 254.494498,84.5684985 254.8815,84.8655 C255.268502,85.1625015 255.462,85.5629975 255.462,86.067 C255.462,86.3730015 255.358501,86.6159991 255.1515,86.796 C254.944499,86.9760009 254.688002,87.066 254.382,87.066 C254.129999,87.066 253.923001,87.0210004 253.761,86.931 C253.598999,86.8409996 253.450501,86.7465005 253.3155,86.6475 C253.180499,86.5484995 253.041001,86.4540004 252.897,86.364 C252.752999,86.2739996 252.573001,86.229 252.357,86.229 C251.924998,86.229 251.484002,86.3819985 251.034,86.688 C251.466002,87.3540033 251.682,88.190995 251.682,89.199 C251.682,90.7290077 251.205005,91.9304956 250.251,92.8035 C249.296995,93.6765044 247.86601,94.1849993 245.958,94.329 C244.859995,94.4190005 244.095002,94.5359993 243.663,94.68 C243.230998,94.8240007 243.015,95.0849981 243.015,95.463 C243.015,95.7510014 243.176998,95.9624993 243.501,96.0975 C243.825002,96.2325007 244.301997,96.3179998 244.932,96.354 Z M262.348,94.707 C262.348,95.4090035 262.3795,95.9714979 262.4425,96.3945 C262.5055,96.8175021 262.626999,97.1504988 262.807,97.3935 C262.987001,97.6365012 263.238998,97.8029996 263.563,97.893 C263.887002,97.9830004 264.318997,98.0369999 264.859,98.055 L264.859,99 L257.11,99 L257.11,98.055 C257.650003,98.0369999 258.090998,97.9785005 258.433,97.8795 C258.775002,97.7804995 259.040499,97.6185011 259.2295,97.3935 C259.418501,97.1684989 259.5445,96.853502 259.6075,96.4485 C259.6705,96.043498 259.702,95.5260031 259.702,94.896 L259.702,91.44 C259.702,90.3959948 259.6885,89.5365034 259.6615,88.8615 C259.6345,88.1864966 259.585,87.7230013 259.513,87.471 C259.423,87.0569979 259.216002,86.7735008 258.892,86.6205 C258.567998,86.4674992 257.956005,86.391 257.056,86.391 L257.056,85.446 L262.348,84.42 L262.348,94.707 Z M259.243,78.939 C259.243,78.4709977 259.404998,78.0750016 259.729,77.751 C260.053002,77.4269984 260.448998,77.265 260.917,77.265 C261.385002,77.265 261.780998,77.4269984 262.105,77.751 C262.429002,78.0750016 262.591,78.4709977 262.591,78.939 C262.591,79.4070023 262.429002,79.8029984 262.105,80.127 C261.780998,80.4510016 261.385002,80.613 260.917,80.613 C260.448998,80.613 260.053002,80.4510016 259.729,80.127 C259.404998,79.8029984 259.243,79.4070023 259.243,78.939 Z M272.231,94.761 C272.231,95.4990037 272.249,96.0794979 272.285,96.5025 C272.321,96.9255021 272.415499,97.2494989 272.5685,97.4745 C272.721501,97.6995011 272.946499,97.8479996 273.2435,97.92 C273.540501,97.9920004 273.949997,98.0459998 274.472,98.082 L274.472,99 L267.398,99 L267.398,98.082 C267.902003,98.0459998 268.302499,97.9920004 268.5995,97.92 C268.896501,97.8479996 269.125999,97.7040011 269.288,97.488 C269.450001,97.2719989 269.5535,96.966002 269.5985,96.57 C269.6435,96.173998 269.666,95.6340034 269.666,94.95 L269.666,91.359 C269.666,89.2169893 269.612001,87.9120023 269.504,87.444 C269.45,87.2099988 269.3825,87.0165008 269.3015,86.8635 C269.2205,86.7104992 269.099001,86.5935004 268.937,86.5125 C268.774999,86.4314996 268.568001,86.3775001 268.316,86.3505 C268.063999,86.3234999 267.740002,86.31 267.344,86.31 L267.344,85.446 L271.664,84.42 L271.988,87.093 L272.096,87.093 C272.780003,86.2469958 273.580995,85.5900023 274.499,85.122 C275.417005,84.6539977 276.415995,84.42 277.496,84.42 C278.324004,84.42 279.079997,84.5549987 279.764,84.825 C280.448003,85.0950014 280.969998,85.4639977 281.33,85.932 C281.636002,86.3460021 281.851999,86.8814967 281.978,87.5385 C282.104001,88.1955033 282.167,89.0999942 282.167,90.252 L282.167,94.761 C282.167,95.4990037 282.1895,96.0794979 282.2345,96.5025 C282.2795,96.9255021 282.373999,97.2494989 282.518,97.4745 C282.662001,97.6995011 282.882499,97.8479996 283.1795,97.92 C283.476501,97.9920004 283.867998,98.0459998 284.354,98.082 L284.354,99 L277.361,99 L277.361,98.082 C277.865003,98.0639999 278.265499,98.0145004 278.5625,97.9335 C278.859501,97.8524996 279.084499,97.7040011 279.2375,97.488 C279.390501,97.2719989 279.4895,96.961502 279.5345,96.5565 C279.5795,96.151498 279.602,95.6160033 279.602,94.95 L279.602,91.386 C279.602,90.3599949 279.548001,89.4960035 279.44,88.794 C279.331999,88.0919965 279.156501,87.5250022 278.9135,87.093 C278.670499,86.6609978 278.351002,86.3505009 277.955,86.1615 C277.558998,85.9724991 277.082003,85.878 276.524,85.878 C275.713996,85.878 274.971503,86.0894979 274.2965,86.5125 C273.621497,86.9355021 273.095002,87.5159963 272.717,88.254 C272.627,88.4340009 272.5505,88.6049992 272.4875,88.767 C272.4245,88.9290008 272.375,89.1179989 272.339,89.334 C272.303,89.5500011 272.276,89.7974986 272.258,90.0765 C272.24,90.3555014 272.231,90.7109978 272.231,91.143 L272.231,94.761 Z M300.096,96.489 C298.565992,98.3430093 296.667011,99.27 294.399,99.27 C293.336995,99.27 292.374004,99.0945018 291.51,98.7435 C290.645996,98.3924982 289.903503,97.8975032 289.2825,97.2585 C288.661497,96.6194968 288.180002,95.8545045 287.838,94.9635 C287.495998,94.0724955 287.325,93.0870054 287.325,92.007 C287.325,90.9089945 287.504998,89.8920047 287.865,88.956 C288.225002,88.0199953 288.733497,87.2190033 289.3905,86.553 C290.047503,85.8869967 290.830495,85.3650019 291.7395,84.987 C292.648505,84.6089981 293.642995,84.42 294.723,84.42 C296.469009,84.42 297.818995,84.8924953 298.773,85.8375 C299.727005,86.7825047 300.204,88.1369912 300.204,89.901 C300.204,90.1530013 300.1545,90.3059997 300.0555,90.36 C299.9565,90.4140003 299.727002,90.441 299.367,90.441 L290.484,90.441 C290.448,90.5850007 290.421,90.760499 290.403,90.9675 C290.385,91.174501 290.376,91.4039987 290.376,91.656 C290.376,92.5920047 290.488499,93.4424962 290.7135,94.2075 C290.938501,94.9725038 291.262498,95.6249973 291.6855,96.165 C292.108502,96.7050027 292.612497,97.1234985 293.1975,97.4205 C293.782503,97.7175015 294.434996,97.866 295.155,97.866 C295.911004,97.866 296.612997,97.6995017 297.261,97.3665 C297.909003,97.0334983 298.574997,96.4890038 299.259,95.733 L300.096,96.489 Z M295.641,89.199 C296.001002,89.199 296.288999,89.1900001 296.505,89.172 C296.721001,89.1539999 296.882999,89.1180003 296.991,89.064 C297.099001,89.0099997 297.171,88.9335005 297.207,88.8345 C297.243,88.7354995 297.261,88.6050008 297.261,88.443 C297.261,87.6149959 296.995503,86.9535025 296.4645,86.4585 C295.933497,85.9634975 295.209005,85.716 294.291,85.716 C292.34699,85.716 291.141002,86.8769884 290.673,89.199 L295.641,89.199 Z M2.026,132 L2.026,130.974 C2.71000342,130.956 3.26349788,130.9065 3.6865,130.8255 C4.10950211,130.7445 4.43799883,130.591501 4.672,130.3665 C4.90600117,130.141499 5.06349959,129.835502 5.1445,129.4485 C5.2255004,129.061498 5.266,128.544003 5.266,127.896 L5.266,115.314 C5.266,114.683997 5.23450031,114.175502 5.1715,113.7885 C5.10849969,113.401498 4.98250095,113.095501 4.7935,112.8705 C4.60449906,112.645499 4.3300018,112.4925 3.97,112.4115 C3.6099982,112.3305 3.14200288,112.272 2.566,112.236 L2.566,111.21 L12.043,111.21 C13.6630081,111.21 15.1614931,111.479997 16.5385,112.02 C17.9155069,112.560003 19.103495,113.306995 20.1025,114.261 C21.101505,115.215005 21.8799972,116.348993 22.438,117.663 C22.9960028,118.977007 23.275,120.407992 23.275,121.956 C23.275,123.432007 23.0140026,124.786494 22.492,126.0195 C21.9699974,127.252506 21.2365047,128.309996 20.2915,129.192 C19.3464953,130.074004 18.2170066,130.762498 16.903,131.2575 C15.5889934,131.752502 14.1490078,132 12.583,132 L2.026,132 Z M8.56,112.533 C8.25399847,112.533 8.101,112.685998 8.101,112.992 L8.101,127.599 C8.101,129.65101 9.44198659,130.677 12.124,130.677 C14.5900123,130.677 16.4799934,129.943507 17.794,128.4765 C19.1080066,127.009493 19.765,124.854014 19.765,122.01 C19.765,120.515993 19.5850018,119.184006 19.225,118.014 C18.8649982,116.843994 18.3475034,115.854004 17.6725,115.044 C16.9974966,114.233996 16.1830048,113.613002 15.229,113.181 C14.2749952,112.748998 13.195006,112.533 11.989,112.533 L8.56,112.533 Z M33.643,117.42 C34.6690051,117.42 35.6409954,117.604498 36.559,117.9735 C37.4770046,118.342502 38.2824965,118.850997 38.9755,119.499 C39.6685035,120.147003 40.217498,120.916496 40.6225,121.8075 C41.027502,122.698504 41.23,123.674995 41.23,124.737 C41.23,125.835005 41.027502,126.842995 40.6225,127.761 C40.217498,128.679005 39.6685035,129.470997 38.9755,130.137 C38.2824965,130.803003 37.4770046,131.324998 36.559,131.703 C35.6409954,132.081002 34.6690051,132.27 33.643,132.27 C32.634995,132.27 31.6765045,132.085502 30.7675,131.7165 C29.8584955,131.347498 29.0620034,130.830003 28.378,130.164 C27.6939966,129.497997 27.154002,128.701505 26.758,127.7745 C26.361998,126.847495 26.164,125.835005 26.164,124.737 C26.164,123.674995 26.361998,122.694005 26.758,121.794 C27.154002,120.893996 27.6939966,120.120003 28.378,119.472 C29.0620034,118.823997 29.8584955,118.320002 30.7675,117.96 C31.6765045,117.599998 32.634995,117.42 33.643,117.42 Z M33.643,118.716 C32.9769967,118.716 32.3695027,118.859999 31.8205,119.148 C31.2714973,119.436001 30.8035019,119.845497 30.4165,120.3765 C30.0294981,120.907503 29.732501,121.546496 29.5255,122.2935 C29.318499,123.040504 29.215,123.863996 29.215,124.764 C29.215,125.700005 29.318499,126.545996 29.5255,127.302 C29.732501,128.058004 30.0294981,128.701497 30.4165,129.2325 C30.8035019,129.763503 31.2669973,130.172999 31.807,130.461 C32.3470027,130.749001 32.9589966,130.893 33.643,130.893 C34.3270034,130.893 34.9479972,130.749001 35.506,130.461 C36.0640028,130.172999 36.540998,129.759003 36.937,129.219 C37.333002,128.678997 37.6389989,128.031004 37.855,127.275 C38.0710011,126.518996 38.179,125.682005 38.179,124.764 C38.179,123.863996 38.0710011,123.045004 37.855,122.307 C37.6389989,121.568996 37.333002,120.934503 36.937,120.4035 C36.540998,119.872497 36.0640028,119.458501 35.506,119.1615 C34.9479972,118.864499 34.3270034,118.716 33.643,118.716 Z M56.188,129.759 C55.5399968,130.551004 54.7030051,131.167498 53.677,131.6085 C52.6509949,132.049502 51.5440059,132.27 50.356,132.27 C49.4019952,132.27 48.524504,132.094502 47.7235,131.7435 C46.922496,131.392498 46.2340029,130.897503 45.658,130.2585 C45.0819971,129.619497 44.6365016,128.850005 44.3215,127.95 C44.0064984,127.049996 43.849,126.051005 43.849,124.953 C43.849,123.800994 44.0289982,122.761505 44.389,121.8345 C44.7490018,120.907495 45.2574967,120.115503 45.9145,119.4585 C46.5715033,118.801497 47.3634954,118.297502 48.2905,117.9465 C49.2175046,117.595498 50.2389944,117.42 51.355,117.42 C52.0570035,117.42 52.6959971,117.478499 53.272,117.5955 C53.8480029,117.712501 54.3474979,117.874499 54.7705,118.0815 C55.1935021,118.288501 55.5219988,118.540499 55.756,118.8375 C55.9900012,119.134501 56.107,119.453998 56.107,119.796 C56.107,120.156002 55.9900012,120.434999 55.756,120.633 C55.5219988,120.831001 55.1980021,120.93 54.784,120.93 C54.4599984,120.93 54.1900011,120.862501 53.974,120.7275 C53.7579989,120.592499 53.4790017,120.291002 53.137,119.823 C52.7769982,119.408998 52.4305017,119.116501 52.0975,118.9455 C51.7644983,118.774499 51.3370026,118.689 50.815,118.689 C49.5369936,118.689 48.5695033,119.183995 47.9125,120.174 C47.2554967,121.164005 46.927,122.62199 46.927,124.548 C46.927,126.61801 47.2914964,128.188495 48.0205,129.2595 C48.7495036,130.330505 49.815993,130.866 51.22,130.866 C51.9760038,130.866 52.6869967,130.717501 53.353,130.4205 C54.0190033,130.123499 54.6939966,129.642003 55.378,128.976 L56.188,129.759 Z M69.499,122.01 C69.499,121.271996 69.4810002,120.691502 69.445,120.2685 C69.4089998,119.845498 69.3145008,119.521501 69.1615,119.2965 C69.0084992,119.071499 68.7835015,118.9185 68.4865,118.8375 C68.1894985,118.7565 67.7800026,118.689 67.258,118.635 L67.258,117.69 L72.145,117.69 L72.145,125.979 C72.145,127.005005 72.1584999,127.841997 72.1855,128.49 C72.2125001,129.138003 72.2529997,129.623998 72.307,129.948 C72.3430002,130.182001 72.4014996,130.366499 72.4825,130.5015 C72.5635004,130.636501 72.6849992,130.7445 72.847,130.8255 C73.0090008,130.9065 73.2204987,130.9605 73.4815,130.9875 C73.7425013,131.0145 74.0799979,131.028 74.494,131.028 L74.494,131.973 L70.039,132.297 L69.742,129.057 L69.634,129.057 C68.9499966,130.173006 68.1625045,130.987497 67.2715,131.5005 C66.3804955,132.013503 65.4490049,132.27 64.477,132.27 C63.7209962,132.27 62.9875036,132.126001 62.2765,131.838 C61.5654964,131.549999 61.0300018,131.163002 60.67,130.677 C60.3639985,130.280998 60.1435007,129.732004 60.0085,129.03 C59.8734993,128.327996 59.806,127.419006 59.806,126.303 L59.806,122.01 C59.806,121.271996 59.7880002,120.691502 59.752,120.2685 C59.7159998,119.845498 59.6215008,119.521501 59.4685,119.2965 C59.3154992,119.071499 59.0905015,118.9185 58.7935,118.8375 C58.4964985,118.7565 58.0870026,118.689 57.565,118.635 L57.565,117.69 L62.452,117.69 L62.452,125.061 C62.452,127.02301 62.6814977,128.444996 63.1405,129.327 C63.5995023,130.209004 64.332995,130.65 65.341,130.65 C66.9250079,130.65 68.1579956,129.61501 69.04,127.545 C69.1300005,127.328999 69.2019997,127.131001 69.256,126.951 C69.3100003,126.770999 69.3549998,126.573001 69.391,126.357 C69.4270002,126.140999 69.4539999,125.898001 69.472,125.628 C69.4900001,125.357999 69.499,125.034002 69.499,124.656 L69.499,122.01 Z M81.055,127.68 C81.055,128.436004 81.0729998,129.029998 81.109,129.462 C81.1450002,129.894002 81.2394992,130.222499 81.3925,130.4475 C81.5455008,130.672501 81.7659986,130.821 82.054,130.893 C82.3420014,130.965 82.7469974,131.019 83.269,131.055 L83.269,132 L76.087,132 L76.087,131.055 C76.6090026,131.019 77.0229985,130.965 77.329,130.893 C77.6350015,130.821 77.8689992,130.677001 78.031,130.461 C78.1930008,130.244999 78.2964998,129.934502 78.3415,129.5295 C78.3865002,129.124498 78.409,128.580003 78.409,127.896 L78.409,124.44 C78.409,123.413995 78.3955001,122.559003 78.3685,121.875 C78.3414999,121.190997 78.2920004,120.723001 78.22,120.471 C78.1659997,120.236999 78.1030004,120.052501 78.031,119.9175 C77.9589996,119.782499 77.8420008,119.6745 77.68,119.5935 C77.5179992,119.5125 77.3065013,119.4585 77.0455,119.4315 C76.7844987,119.4045 76.4470021,119.391 76.033,119.391 L76.033,118.446 L80.434,117.42 L80.785,120.12 L80.92,120.12 C81.730004,119.201995 82.5804955,118.522502 83.4715,118.0815 C84.3625045,117.640498 85.3479946,117.42 86.428,117.42 C87.5620057,117.42 88.5159961,117.649498 89.29,118.1085 C90.0640039,118.567502 90.6039985,119.228996 90.91,120.093 L91.018,120.093 C91.6840033,119.246996 92.4939952,118.590002 93.448,118.122 C94.4020048,117.653998 95.4189946,117.42 96.499,117.42 C97.3450042,117.42 98.1144965,117.559499 98.8075,117.8385 C99.5005035,118.117501 100.026998,118.499998 100.387,118.986 C100.711002,119.400002 100.940499,119.944497 101.0755,120.6195 C101.210501,121.294503 101.278,122.216994 101.278,123.387 L101.278,127.68 C101.278,128.418004 101.3005,129.002998 101.3455,129.435 C101.3905,129.867002 101.484999,130.199999 101.629,130.434 C101.773001,130.668001 101.993499,130.821 102.2905,130.893 C102.587501,130.965 102.996997,131.019 103.519,131.055 L103.519,132 L96.337,132 L96.337,131.055 C96.8410025,131.037 97.2459985,130.9875 97.552,130.9065 C97.8580015,130.8255 98.0919992,130.672501 98.254,130.4475 C98.4160008,130.222499 98.5194998,129.912002 98.5645,129.516 C98.6095002,129.119998 98.632,128.580003 98.632,127.896 L98.632,124.494 C98.632,123.467995 98.5780005,122.599504 98.47,121.8885 C98.3619995,121.177496 98.1820013,120.601502 97.93,120.1605 C97.6779987,119.719498 97.349502,119.400001 96.9445,119.202 C96.539498,119.003999 96.0490029,118.905 95.473,118.905 C94.680996,118.905 93.9385035,119.125498 93.2455,119.5665 C92.5524965,120.007502 92.008002,120.596996 91.612,121.335 C91.5219996,121.515001 91.4455003,121.690499 91.3825,121.8615 C91.3194997,122.032501 91.2700002,122.221499 91.234,122.4285 C91.1979998,122.635501 91.1755,122.882999 91.1665,123.171 C91.1575,123.459001 91.153,123.818998 91.153,124.251 L91.153,127.68 C91.153,128.418004 91.1709998,129.002998 91.207,129.435 C91.2430002,129.867002 91.3374992,130.199999 91.4905,130.434 C91.6435008,130.668001 91.8729985,130.821 92.179,130.893 C92.4850015,130.965 92.8989974,131.019 93.421,131.055 L93.421,132 L86.239,132 L86.239,131.055 C86.7430025,131.019 87.1479985,130.965 87.454,130.893 C87.7600015,130.821 87.9894992,130.677001 88.1425,130.461 C88.2955008,130.244999 88.3944998,129.934502 88.4395,129.5295 C88.4845002,129.124498 88.507,128.580003 88.507,127.896 L88.507,124.494 C88.507,123.449995 88.4530005,122.572504 88.345,121.8615 C88.2369995,121.150496 88.0615012,120.574502 87.8185,120.1335 C87.5754988,119.692498 87.256002,119.377501 86.86,119.1885 C86.463998,118.999499 85.9780029,118.905 85.402,118.905 C84.5919959,118.905 83.8315036,119.125498 83.1205,119.5665 C82.4094964,120.007502 81.8740018,120.596996 81.514,121.335 C81.4239995,121.515001 81.3475003,121.690499 81.2845,121.8615 C81.2214997,122.032501 81.1720002,122.221499 81.136,122.4285 C81.0999998,122.635501 81.0775,122.882999 81.0685,123.171 C81.0595,123.459001 81.055,123.818998 81.055,124.251 L81.055,127.68 Z M118.153,129.489 C116.622992,131.343009 114.724011,132.27 112.456,132.27 C111.393995,132.27 110.431004,132.094502 109.567,131.7435 C108.702996,131.392498 107.960503,130.897503 107.3395,130.2585 C106.718497,129.619497 106.237002,128.854504 105.895,127.9635 C105.552998,127.072496 105.382,126.087005 105.382,125.007 C105.382,123.908995 105.561998,122.892005 105.922,121.956 C106.282002,121.019995 106.790497,120.219003 107.4475,119.553 C108.104503,118.886997 108.887495,118.365002 109.7965,117.987 C110.705505,117.608998 111.699995,117.42 112.78,117.42 C114.526009,117.42 115.875995,117.892495 116.83,118.8375 C117.784005,119.782505 118.261,121.136991 118.261,122.901 C118.261,123.153001 118.2115,123.306 118.1125,123.36 C118.0135,123.414 117.784002,123.441 117.424,123.441 L108.541,123.441 C108.505,123.585001 108.478,123.760499 108.46,123.9675 C108.442,124.174501 108.433,124.403999 108.433,124.656 C108.433,125.592005 108.545499,126.442496 108.7705,127.2075 C108.995501,127.972504 109.319498,128.624997 109.7425,129.165 C110.165502,129.705003 110.669497,130.123499 111.2545,130.4205 C111.839503,130.717501 112.491996,130.866 113.212,130.866 C113.968004,130.866 114.669997,130.699502 115.318,130.3665 C115.966003,130.033498 116.631997,129.489004 117.316,128.733 L118.153,129.489 Z M113.698,122.199 C114.058002,122.199 114.345999,122.19 114.562,122.172 C114.778001,122.154 114.939999,122.118 115.048,122.064 C115.156001,122.01 115.228,121.9335 115.264,121.8345 C115.3,121.7355 115.318,121.605001 115.318,121.443 C115.318,120.614996 115.052503,119.953502 114.5215,119.4585 C113.990497,118.963498 113.266005,118.716 112.348,118.716 C110.40399,118.716 109.198002,119.876988 108.73,122.199 L113.698,122.199 Z M125.362,127.761 C125.362,128.499004 125.38,129.079498 125.416,129.5025 C125.452,129.925502 125.546499,130.249499 125.6995,130.4745 C125.852501,130.699501 126.077499,130.848 126.3745,130.92 C126.671501,130.992 127.080997,131.046 127.603,131.082 L127.603,132 L120.529,132 L120.529,131.082 C121.033003,131.046 121.433499,130.992 121.7305,130.92 C122.027501,130.848 122.256999,130.704001 122.419,130.488 C122.581001,130.271999 122.6845,129.966002 122.7295,129.57 C122.7745,129.173998 122.797,128.634003 122.797,127.95 L122.797,124.359 C122.797,122.216989 122.743001,120.912002 122.635,120.444 C122.581,120.209999 122.5135,120.016501 122.4325,119.8635 C122.3515,119.710499 122.230001,119.5935 122.068,119.5125 C121.905999,119.4315 121.699001,119.3775 121.447,119.3505 C121.194999,119.3235 120.871002,119.31 120.475,119.31 L120.475,118.446 L124.795,117.42 L125.119,120.093 L125.227,120.093 C125.911003,119.246996 126.711995,118.590002 127.63,118.122 C128.548005,117.653998 129.546995,117.42 130.627,117.42 C131.455004,117.42 132.210997,117.554999 132.895,117.825 C133.579003,118.095001 134.100998,118.463998 134.461,118.932 C134.767002,119.346002 134.982999,119.881497 135.109,120.5385 C135.235001,121.195503 135.298,122.099994 135.298,123.252 L135.298,127.761 C135.298,128.499004 135.3205,129.079498 135.3655,129.5025 C135.4105,129.925502 135.504999,130.249499 135.649,130.4745 C135.793001,130.699501 136.013499,130.848 136.3105,130.92 C136.607501,130.992 136.998998,131.046 137.485,131.082 L137.485,132 L130.492,132 L130.492,131.082 C130.996003,131.064 131.396499,131.0145 131.6935,130.9335 C131.990501,130.8525 132.215499,130.704001 132.3685,130.488 C132.521501,130.271999 132.6205,129.961502 132.6655,129.5565 C132.7105,129.151498 132.733,128.616003 132.733,127.95 L132.733,124.386 C132.733,123.359995 132.679001,122.496004 132.571,121.794 C132.462999,121.091996 132.287501,120.525002 132.0445,120.093 C131.801499,119.660998 131.482002,119.350501 131.086,119.1615 C130.689998,118.972499 130.213003,118.878 129.655,118.878 C128.844996,118.878 128.102503,119.089498 127.4275,119.5125 C126.752497,119.935502 126.226002,120.515996 125.848,121.254 C125.758,121.434001 125.6815,121.604999 125.6185,121.767 C125.5555,121.929001 125.506,122.117999 125.47,122.334 C125.434,122.550001 125.407,122.797499 125.389,123.0765 C125.371,123.355501 125.362,123.710998 125.362,124.143 L125.362,127.761 Z M139.213,119.391 L139.213,118.392 C140.167005,117.833997 140.913997,117.276003 141.454,116.718 C141.994003,116.159997 142.407999,115.494004 142.696,114.72 L143.479,114.72 L143.479,118.122 L147.097,118.122 L147.097,119.391 L143.479,119.391 L143.479,127.599 C143.479,128.229003 143.5105,128.759998 143.5735,129.192 C143.6365,129.624002 143.739999,129.970499 143.884,130.2315 C144.028001,130.492501 144.216999,130.676999 144.451,130.785 C144.685001,130.893001 144.981998,130.947 145.342,130.947 C145.792002,130.947 146.174498,130.852501 146.4895,130.6635 C146.804502,130.474499 147.114998,130.155002 147.421,129.705 L148.096,130.218 C147.843999,130.884003 147.407503,131.392498 146.7865,131.7435 C146.165497,132.094502 145.396005,132.27 144.478,132.27 C143.289994,132.27 142.385503,131.986503 141.7645,131.4195 C141.143497,130.852497 140.833,130.038005 140.833,128.976 L140.833,119.391 L139.213,119.391 Z M157.762,124.008 C156.735995,124.404002 155.867504,124.790998 155.1565,125.169 C154.445496,125.547002 153.874002,125.924998 153.442,126.303 C153.009998,126.681002 152.699501,127.058998 152.5105,127.437 C152.321499,127.815002 152.227,128.201998 152.227,128.598 C152.227,129.192003 152.424998,129.677998 152.821,130.056 C153.217002,130.434002 153.738997,130.623 154.387,130.623 C154.855002,130.623 155.291498,130.506001 155.6965,130.272 C156.101502,130.037999 156.456998,129.718502 156.763,129.3135 C157.069002,128.908498 157.311999,128.431503 157.492,127.8825 C157.672001,127.333497 157.762,126.753003 157.762,126.141 L157.762,124.008 Z M157.762,122.847 L157.762,121.74 C157.762,119.543989 156.826009,118.446 154.954,118.446 C154.647998,118.446 154.387001,118.473 154.171,118.527 C153.954999,118.581 153.775001,118.670999 153.631,118.797 C153.486999,118.923001 153.356501,119.102999 153.2395,119.337 C153.122499,119.571001 153.010001,119.858998 152.902,120.201 C152.703999,120.723003 152.510501,121.069499 152.3215,121.2405 C152.132499,121.411501 151.858002,121.497 151.498,121.497 C150.597996,121.497 150.148,121.047004 150.148,120.147 C150.148,119.282996 150.606995,118.612502 151.525,118.1355 C152.443005,117.658498 153.747992,117.42 155.44,117.42 C157.240009,117.42 158.517996,117.739497 159.274,118.3785 C160.030004,119.017503 160.408,120.101992 160.408,121.632 L160.408,127.68 C160.408,129.73201 160.812996,130.758 161.623,130.758 C161.875001,130.758 162.117999,130.7265 162.352,130.6635 C162.586001,130.6005 162.783999,130.434001 162.946,130.164 L163.324,130.812 C163.107999,131.226002 162.712003,131.572499 162.136,131.8515 C161.559997,132.130501 160.957003,132.27 160.327,132.27 C159.534996,132.27 158.945502,132.018003 158.5585,131.514 C158.171498,131.009997 157.978,130.299005 157.978,129.381 L157.843,129.381 C157.374998,130.263004 156.727004,130.960497 155.899,131.4735 C155.070996,131.986503 154.153005,132.243 153.145,132.243 C152.010994,132.243 151.120003,131.955003 150.472,131.379 C149.823997,130.802997 149.5,130.029005 149.5,129.057 C149.5,128.624998 149.576499,128.211002 149.7295,127.815 C149.882501,127.418998 150.129998,127.041002 150.472,126.681 C150.814002,126.320998 151.263997,125.965502 151.822,125.6145 C152.380003,125.263498 153.063996,124.908002 153.874,124.548 L157.762,122.847 Z M164.377,119.391 L164.377,118.392 C165.331005,117.833997 166.077997,117.276003 166.618,116.718 C167.158003,116.159997 167.571999,115.494004 167.86,114.72 L168.643,114.72 L168.643,118.122 L172.261,118.122 L172.261,119.391 L168.643,119.391 L168.643,127.599 C168.643,128.229003 168.6745,128.759998 168.7375,129.192 C168.8005,129.624002 168.903999,129.970499 169.048,130.2315 C169.192001,130.492501 169.380999,130.676999 169.615,130.785 C169.849001,130.893001 170.145998,130.947 170.506,130.947 C170.956002,130.947 171.338498,130.852501 171.6535,130.6635 C171.968502,130.474499 172.278998,130.155002 172.585,129.705 L173.26,130.218 C173.007999,130.884003 172.571503,131.392498 171.9505,131.7435 C171.329497,132.094502 170.560005,132.27 169.642,132.27 C168.453994,132.27 167.549503,131.986503 166.9285,131.4195 C166.307497,130.852497 165.997,130.038005 165.997,128.976 L165.997,119.391 L164.377,119.391 Z M179.659,127.707 C179.659,128.409004 179.6905,128.971498 179.7535,129.3945 C179.8165,129.817502 179.937999,130.150499 180.118,130.3935 C180.298001,130.636501 180.549998,130.803 180.874,130.893 C181.198002,130.983 181.629997,131.037 182.17,131.055 L182.17,132 L174.421,132 L174.421,131.055 C174.961003,131.037 175.401998,130.9785 175.744,130.8795 C176.086002,130.7805 176.351499,130.618501 176.5405,130.3935 C176.729501,130.168499 176.8555,129.853502 176.9185,129.4485 C176.9815,129.043498 177.013,128.526003 177.013,127.896 L177.013,124.44 C177.013,123.395995 176.9995,122.536503 176.9725,121.8615 C176.9455,121.186497 176.896,120.723001 176.824,120.471 C176.734,120.056998 176.527002,119.773501 176.203,119.6205 C175.878998,119.467499 175.267005,119.391 174.367,119.391 L174.367,118.446 L179.659,117.42 L179.659,127.707 Z M176.554,111.939 C176.554,111.470998 176.715998,111.075002 177.04,110.751 C177.364002,110.426998 177.759998,110.265 178.228,110.265 C178.696002,110.265 179.091998,110.426998 179.416,110.751 C179.740002,111.075002 179.902,111.470998 179.902,111.939 C179.902,112.407002 179.740002,112.802998 179.416,113.127 C179.091998,113.451002 178.696002,113.613 178.228,113.613 C177.759998,113.613 177.364002,113.451002 177.04,113.127 C176.715998,112.802998 176.554,112.407002 176.554,111.939 Z M191.485,117.42 C192.511005,117.42 193.482995,117.604498 194.401,117.9735 C195.319005,118.342502 196.124497,118.850997 196.8175,119.499 C197.510503,120.147003 198.059498,120.916496 198.4645,121.8075 C198.869502,122.698504 199.072,123.674995 199.072,124.737 C199.072,125.835005 198.869502,126.842995 198.4645,127.761 C198.059498,128.679005 197.510503,129.470997 196.8175,130.137 C196.124497,130.803003 195.319005,131.324998 194.401,131.703 C193.482995,132.081002 192.511005,132.27 191.485,132.27 C190.476995,132.27 189.518505,132.085502 188.6095,131.7165 C187.700495,131.347498 186.904003,130.830003 186.22,130.164 C185.535997,129.497997 184.996002,128.701505 184.6,127.7745 C184.203998,126.847495 184.006,125.835005 184.006,124.737 C184.006,123.674995 184.203998,122.694005 184.6,121.794 C184.996002,120.893996 185.535997,120.120003 186.22,119.472 C186.904003,118.823997 187.700495,118.320002 188.6095,117.96 C189.518505,117.599998 190.476995,117.42 191.485,117.42 Z M191.485,118.716 C190.818997,118.716 190.211503,118.859999 189.6625,119.148 C189.113497,119.436001 188.645502,119.845497 188.2585,120.3765 C187.871498,120.907503 187.574501,121.546496 187.3675,122.2935 C187.160499,123.040504 187.057,123.863996 187.057,124.764 C187.057,125.700005 187.160499,126.545996 187.3675,127.302 C187.574501,128.058004 187.871498,128.701497 188.2585,129.2325 C188.645502,129.763503 189.108997,130.172999 189.649,130.461 C190.189003,130.749001 190.800997,130.893 191.485,130.893 C192.169003,130.893 192.789997,130.749001 193.348,130.461 C193.906003,130.172999 194.382998,129.759003 194.779,129.219 C195.175002,128.678997 195.480999,128.031004 195.697,127.275 C195.913001,126.518996 196.021,125.682005 196.021,124.764 C196.021,123.863996 195.913001,123.045004 195.697,122.307 C195.480999,121.568996 195.175002,120.934503 194.779,120.4035 C194.382998,119.872497 193.906003,119.458501 193.348,119.1615 C192.789997,118.864499 192.169003,118.716 191.485,118.716 Z M206.2,127.761 C206.2,128.499004 206.218,129.079498 206.254,129.5025 C206.29,129.925502 206.384499,130.249499 206.5375,130.4745 C206.690501,130.699501 206.915499,130.848 207.2125,130.92 C207.509501,130.992 207.918997,131.046 208.441,131.082 L208.441,132 L201.367,132 L201.367,131.082 C201.871003,131.046 202.271499,130.992 202.5685,130.92 C202.865501,130.848 203.094999,130.704001 203.257,130.488 C203.419001,130.271999 203.5225,129.966002 203.5675,129.57 C203.6125,129.173998 203.635,128.634003 203.635,127.95 L203.635,124.359 C203.635,122.216989 203.581001,120.912002 203.473,120.444 C203.419,120.209999 203.3515,120.016501 203.2705,119.8635 C203.1895,119.710499 203.068001,119.5935 202.906,119.5125 C202.743999,119.4315 202.537001,119.3775 202.285,119.3505 C202.032999,119.3235 201.709002,119.31 201.313,119.31 L201.313,118.446 L205.633,117.42 L205.957,120.093 L206.065,120.093 C206.749003,119.246996 207.549995,118.590002 208.468,118.122 C209.386005,117.653998 210.384995,117.42 211.465,117.42 C212.293004,117.42 213.048997,117.554999 213.733,117.825 C214.417003,118.095001 214.938998,118.463998 215.299,118.932 C215.605002,119.346002 215.820999,119.881497 215.947,120.5385 C216.073001,121.195503 216.136,122.099994 216.136,123.252 L216.136,127.761 C216.136,128.499004 216.1585,129.079498 216.2035,129.5025 C216.2485,129.925502 216.342999,130.249499 216.487,130.4745 C216.631001,130.699501 216.851499,130.848 217.1485,130.92 C217.445501,130.992 217.836998,131.046 218.323,131.082 L218.323,132 L211.33,132 L211.33,131.082 C211.834003,131.064 212.234499,131.0145 212.5315,130.9335 C212.828501,130.8525 213.053499,130.704001 213.2065,130.488 C213.359501,130.271999 213.4585,129.961502 213.5035,129.5565 C213.5485,129.151498 213.571,128.616003 213.571,127.95 L213.571,124.386 C213.571,123.359995 213.517001,122.496004 213.409,121.794 C213.300999,121.091996 213.125501,120.525002 212.8825,120.093 C212.639499,119.660998 212.320002,119.350501 211.924,119.1615 C211.527998,118.972499 211.051003,118.878 210.493,118.878 C209.682996,118.878 208.940503,119.089498 208.2655,119.5125 C207.590497,119.935502 207.064002,120.515996 206.686,121.254 C206.596,121.434001 206.5195,121.604999 206.4565,121.767 C206.3935,121.929001 206.344,122.117999 206.308,122.334 C206.272,122.550001 206.245,122.797499 206.227,123.0765 C206.209,123.355501 206.2,123.710998 206.2,124.143 L206.2,127.761 Z" id="Imandra-FIX-Engine-D" fill="#3D4B51"></path>
            <g id="imandra_fix_logo-copy" transform="translate(250.000000, 2.000000)">
                <g id="Group" transform="translate(1.000000, 12.000000)" fill-rule="nonzero" fill="#2AAAA3">
                    <polygon id="Shape" points="0.0559649123 11 0.0559649123 0.385 8.30315789 0.385 8.30315789 2.44 2.75245614 2.44 2.75245614 4.675 7.89105263 4.675 7.89105263 6.73 2.75245614 6.73 2.75245614 11"></polygon>
                    <polygon id="Shape" points="11.4677193 11 11.4677193 0.385 14.1642105 0.385 14.1642105 11"></polygon>
                    <polygon id="Shape" points="17.074386 11 21.2463158 5.32 17.6849123 0.395 20.9614035 0.395 22.8947368 3.62 24.8585965 0.39 28.0892982 0.39 24.5278947 5.285 28.6896491 11 25.3826316 11 22.8947368 7 20.3508772 11"></polygon>
                </g>
                <rect id="Rectangle-path" fill="#27D798" fill-rule="nonzero" x="1" y="51" width="3" height="8"></rect>
                <rect id="Rectangle-path" fill="#27D798" fill-rule="nonzero" x="20" y="37" width="3" height="14"></rect>
                <rect id="Rectangle-path" fill="#27D798" fill-rule="nonzero" x="7" y="47" width="3" height="8"></rect>
                <rect id="Rectangle-path" fill="#27D798" fill-rule="nonzero" x="14" y="41" width="3" height="6"></rect>
                <rect id="Rectangle-path" fill="#27D798" fill-rule="nonzero" x="33" y="26" width="3" height="18"></rect>
                <rect id="Rectangle-path" fill="#27D798" fill-rule="nonzero" x="40" y="23" width="3" height="28"></rect>
                <rect id="Rectangle-path" fill="#27D798" fill-rule="nonzero" x="27" y="33" width="3" height="14"></rect>
                <rect id="Rectangle-path" fill="#27D798" fill-rule="nonzero" x="1" y="26" width="3" height="22"></rect>
                <rect id="Rectangle-path" fill="#27D798" fill-rule="nonzero" x="20" y="26" width="3" height="7"></rect>
                <rect id="Rectangle-path" fill="#27D798" fill-rule="nonzero" x="27" y="26" width="3" height="4"></rect>
                <rect id="Rectangle-path" fill="#27D798" fill-rule="nonzero" x="7" y="26" width="3" height="18"></rect>
                <rect id="Rectangle-path" fill="#27D798" fill-rule="nonzero" x="14" y="26" width="3" height="11"></rect>
                <rect id="Rectangle-path" fill="#27D798" fill-rule="nonzero" x="33" y="2" width="3" height="21"></rect>
                <rect id="Rectangle-path" fill="#27D798" fill-rule="nonzero" x="40" y="2" width="3" height="18"></rect>
                <g id="Group" transform="translate(0.000000, 2.000000)" fill-rule="nonzero" fill="#27D798">
                    <circle id="Oval" cx="3.48" cy="3.39" r="3.195"></circle>
                </g>
                <path d="M24.5,9 C26.4329966,9 28,7.43299662 28,5.5 C28,3.56700338 26.4329966,2 24.5,2 C22.5670034,2 21,3.56700338 21,5.5 C21,7.43299662 22.5670034,9 24.5,9" id="Shape" fill="#27D798"></path>
                <rect id="Rectangle-path" fill="#27D798" fill-rule="nonzero" transform="translate(14.500000, 5.000000) rotate(-0.190000) translate(-14.500000, -5.000000) " x="13" y="1" width="3" height="8" rx="1.5"></rect>
            </g>
        </g>
    </g>
</svg>