<?xml version="1.0" encoding="UTF-8"?>
<svg width="453px" height="87px" viewBox="0 0 453 87" version="1.1" xmlns="http://www.w3.org/2000/svg" xmlns:xlink="http://www.w3.org/1999/xlink">
    <!-- Generator: Sketch 48.2 (47327) - http://www.bohemiancoding.com/sketch -->
    <title>Group 8</title>
    <desc>Created with Sketch.</desc>
    <defs></defs>
    <g id="Page-1" stroke="none" stroke-width="1" fill="none" fill-rule="evenodd">
        <g id="Group-8">
            <path d="M103.90625,3.3359375 L103.90625,31.5761719 L100.733398,31.5761719 L100.733398,3.3359375 L103.90625,3.3359375 Z M135.226562,10.1083984 C136.698575,10.1083984 137.870601,10.3805311 138.742676,10.9248047 C139.61475,11.4690782 140.251788,12.3504171 140.653809,13.5688477 C141.055829,14.7872782 141.256836,16.4417213 141.256836,18.5322266 L141.256836,31.5761719 L138.176758,31.5761719 L138.176758,18.6806641 C138.176758,17.2333912 138.071616,16.0861045 137.861328,15.2387695 C137.651041,14.3914346 137.236657,13.7482118 136.618164,13.309082 C135.999671,12.8699522 135.090501,12.6689451 133.890625,12.7060547 C132.962886,12.7184245 131.95785,12.9472634 130.875488,13.3925781 C129.793126,13.8378929 128.81283,14.3636037 127.93457,14.9697266 C128.083009,15.946945 128.157227,17.1035089 128.157227,18.4394531 L128.157227,31.5761719 L125.058594,31.5761719 L125.058594,18.6435547 C125.058594,17.1468024 124.950359,15.971684 124.733887,15.1181641 C124.517414,14.2646442 124.109215,13.6399759 123.509277,13.2441406 C122.909339,12.8483053 122.04037,12.67513 120.902344,12.7246094 C119.962235,12.7617189 118.901536,13.0245744 117.720215,13.5131836 C116.538894,14.0017928 115.527673,14.5924445 114.686523,15.2851562 L114.686523,31.5761719 L111.587891,31.5761719 L111.587891,10.4423828 L114.352539,10.4423828 L114.371094,13.1513672 C114.940107,12.6936826 115.654455,12.2360049 116.51416,11.7783203 C117.373865,11.3206357 118.298498,10.9309912 119.288086,10.609375 C120.277674,10.2877588 121.230139,10.1207683 122.145508,10.1083984 C123.518562,10.0836587 124.625647,10.2877583 125.466797,10.7207031 C126.307947,11.153648 126.944985,11.8896432 127.37793,12.9287109 C128.355148,12.1865197 129.558098,11.5309273 130.986816,10.9619141 C132.415534,10.3929008 133.828769,10.1083984 135.226562,10.1083984 Z M155.432617,10.1083984 C156.991219,10.1083984 158.293126,10.290851 159.338379,10.6557617 C160.383632,11.0206724 161.196937,11.6762648 161.77832,12.6225586 C162.359703,13.5688524 162.650391,14.8954993 162.650391,16.6025391 L162.650391,31.8730469 L161.388672,31.8730469 C160.980467,31.8730469 160.66504,31.8421227 160.442383,31.7802734 C160.219725,31.7184242 160.049643,31.5823578 159.932129,31.3720703 C159.814615,31.1617828 159.755859,30.8339866 159.755859,30.3886719 L159.755859,29.609375 C159.087887,30.2154978 158.172532,30.7443011 157.009766,31.1958008 C155.846999,31.6473004 154.572924,31.8730469 153.1875,31.8730469 C151.938145,31.8730469 150.824875,31.6380232 149.847656,31.1679688 C148.870438,30.6979143 148.109703,30.0175826 147.56543,29.1269531 C147.021156,28.2363237 146.749023,27.1910867 146.749023,25.9912109 C146.749023,24.6181572 147.135576,23.4430387 147.908691,22.4658203 C148.681807,21.4886019 149.816724,20.7216825 151.313477,20.1650391 C152.451503,19.744464 153.787427,19.4321299 155.321289,19.2280273 C156.855151,19.0239248 158.271478,18.921875 159.570312,18.921875 L159.570312,16.4726562 C159.570312,15.3717393 159.384767,14.5306019 159.013672,13.9492188 C158.642576,13.3678356 158.107588,12.9750987 157.408691,12.7709961 C156.709795,12.5668935 155.785162,12.4648438 154.634766,12.4648438 C153.954424,12.4648438 153.202966,12.5576163 152.380371,12.7431641 C151.557776,12.9287119 150.787764,13.1606431 150.070312,13.4389648 C149.352861,13.7172865 148.802411,13.9925117 148.418945,14.2646484 L147.658203,12.2236328 C147.967449,12.0133453 148.536454,11.7412126 149.365234,11.4072266 C150.194015,11.0732405 151.152664,10.7732761 152.241211,10.5073242 C153.329758,10.2413724 154.393549,10.1083984 155.432617,10.1083984 Z M154.09668,29.5537109 C154.91309,29.5537109 155.704749,29.4454763 156.47168,29.2290039 C157.238611,29.0125315 157.900388,28.7589533 158.457031,28.4682617 C159.013675,28.1775702 159.384765,27.9270844 159.570312,27.7167969 L159.570312,20.9072266 C158.593094,20.9072266 157.458177,20.9876294 156.165527,21.1484375 C154.872878,21.3092456 153.824548,21.556639 153.020508,21.890625 C151.944331,22.2988302 151.140302,22.8152638 150.608398,23.4399414 C150.076495,24.064619 149.810547,24.8346308 149.810547,25.75 C149.810547,26.9251361 150.15999,27.8528612 150.858887,28.5332031 C151.557783,29.2135451 152.637037,29.5537109 154.09668,29.5537109 Z M172.298828,10.4423828 L172.317383,13.1513672 C173.331711,12.3968061 174.565585,11.7010123 176.019043,11.0639648 C177.472501,10.4269174 178.90429,10.1083984 180.314453,10.1083984 C181.811205,10.1083984 183.001786,10.3836235 183.88623,10.934082 C184.770675,11.4845405 185.413898,12.3658794 185.815918,13.578125 C186.217938,14.7903706 186.418945,16.4293517 186.418945,18.4951172 L186.418945,31.5761719 L183.320312,31.5761719 L183.320312,18.4765625 C183.320312,17.0169198 183.193523,15.8665407 182.939941,15.0253906 C182.686359,14.1842406 182.234867,13.571942 181.585449,13.1884766 C180.936032,12.8050111 180.011399,12.6380206 178.811523,12.6875 C177.859045,12.6998699 176.807623,12.9627253 175.657227,13.4760742 C174.50683,13.9894231 173.498702,14.5924445 172.632812,15.2851562 L172.632812,31.5761719 L169.53418,31.5761719 L169.53418,10.4423828 L172.298828,10.4423828 Z M209.500977,0.701171875 L209.500977,31.7988281 L208.165039,31.7988281 C207.620766,31.7988281 207.221844,31.7184253 206.968262,31.5576172 C206.71468,31.3968091 206.587891,31.0504584 206.587891,30.5185547 L206.587891,29.2382812 C205.83333,29.9681026 204.942713,30.5896784 203.916016,31.1030273 C202.889318,31.6163763 201.615242,31.8730469 200.09375,31.8730469 C198.584628,31.8730469 197.199225,31.5081417 195.9375,30.7783203 C194.675775,30.048499 193.661462,28.9197668 192.894531,27.3920898 C192.1276,25.8644129 191.744141,23.9625765 191.744141,21.6865234 C191.744141,19.44758 192.186356,17.452971 193.070801,15.7026367 C193.955245,13.9523024 195.201489,12.5854541 196.80957,11.6020508 C198.417651,10.6186474 200.266917,10.1269531 202.357422,10.1269531 C203.866544,10.1269531 205.233392,10.3619768 206.458008,10.8320312 L206.402344,9.5703125 L206.402344,0.701171875 L209.500977,0.701171875 Z M194.916992,21.2597656 C194.879883,23.9563937 195.390131,25.9942965 196.447754,27.3735352 C197.505376,28.7527738 198.999014,29.4423828 200.928711,29.4423828 C202.029628,29.4423828 203.050126,29.229006 203.990234,28.8022461 C204.930343,28.3754861 205.734372,27.8837918 206.402344,27.3271484 L206.402344,13.4111328 C206.031248,13.1018865 205.48389,12.8544931 204.760254,12.6689453 C204.036617,12.4833975 203.136724,12.390625 202.060547,12.390625 C200.699863,12.390625 199.484543,12.7400681 198.414551,13.4389648 C197.344558,14.1378616 196.497236,15.1583592 195.872559,16.5004883 C195.247881,17.8426174 194.929362,19.4290273 194.916992,21.2597656 Z M225.532227,10.1269531 C226.484705,10.1269531 227.152667,10.207356 227.536133,10.3681641 L227.536133,13.28125 C226.991859,12.9967434 226.138352,12.8544922 224.975586,12.8544922 C223.862299,12.8544922 222.810877,13.1018855 221.821289,13.5966797 C220.831701,14.0914738 220.015303,14.6604786 219.37207,15.3037109 L219.37207,31.5761719 L216.273438,31.5761719 L216.273438,10.4423828 L218.908203,10.4423828 L219.09375,13.2626953 C219.415366,12.8421203 219.91943,12.387535 220.605957,11.8989258 C221.292484,11.4103166 222.071773,10.9928403 222.943848,10.6464844 C223.815922,10.3001285 224.678707,10.1269531 225.532227,10.1269531 Z M238.891602,10.1083984 C240.450203,10.1083984 241.752111,10.290851 242.797363,10.6557617 C243.842616,11.0206724 244.655922,11.6762648 245.237305,12.6225586 C245.818688,13.5688524 246.109375,14.8954993 246.109375,16.6025391 L246.109375,31.8730469 L244.847656,31.8730469 C244.439451,31.8730469 244.124025,31.8421227 243.901367,31.7802734 C243.67871,31.7184242 243.508627,31.5823578 243.391113,31.3720703 C243.2736,31.1617828 243.214844,30.8339866 243.214844,30.3886719 L243.214844,29.609375 C242.546872,30.2154978 241.631516,30.7443011 240.46875,31.1958008 C239.305984,31.6473004 238.031908,31.8730469 236.646484,31.8730469 C235.397129,31.8730469 234.283859,31.6380232 233.306641,31.1679688 C232.329422,30.6979143 231.568688,30.0175826 231.024414,29.1269531 C230.480141,28.2363237 230.208008,27.1910867 230.208008,25.9912109 C230.208008,24.6181572 230.59456,23.4430387 231.367676,22.4658203 C232.140792,21.4886019 233.275709,20.7216825 234.772461,20.1650391 C235.910487,19.744464 237.246412,19.4321299 238.780273,19.2280273 C240.314135,19.0239248 241.730462,18.921875 243.029297,18.921875 L243.029297,16.4726562 C243.029297,15.3717393 242.843752,14.5306019 242.472656,13.9492188 C242.101561,13.3678356 241.566573,12.9750987 240.867676,12.7709961 C240.168779,12.5668935 239.244146,12.4648438 238.09375,12.4648438 C237.413408,12.4648438 236.661951,12.5576163 235.839355,12.7431641 C235.01676,12.9287119 234.246748,13.1606431 233.529297,13.4389648 C232.811845,13.7172865 232.261395,13.9925117 231.87793,14.2646484 L231.117188,12.2236328 C231.426434,12.0133453 231.995439,11.7412126 232.824219,11.4072266 C233.652999,11.0732405 234.611648,10.7732761 235.700195,10.5073242 C236.788742,10.2413724 237.852534,10.1083984 238.891602,10.1083984 Z M237.555664,29.5537109 C238.372074,29.5537109 239.163733,29.4454763 239.930664,29.2290039 C240.697595,29.0125315 241.359372,28.7589533 241.916016,28.4682617 C242.472659,28.1775702 242.843749,27.9270844 243.029297,27.7167969 L243.029297,20.9072266 C242.052078,20.9072266 240.917161,20.9876294 239.624512,21.1484375 C238.331862,21.3092456 237.283533,21.556639 236.479492,21.890625 C235.403315,22.2988302 234.599287,22.8152638 234.067383,23.4399414 C233.535479,24.064619 233.269531,24.8346308 233.269531,25.75 C233.269531,26.9251361 233.618974,27.8528612 234.317871,28.5332031 C235.016768,29.2135451 236.096021,29.5537109 237.555664,29.5537109 Z M281.177734,3.3359375 L281.177734,5.76660156 L268.523438,5.76660156 L268.523438,16.1757812 L277.967773,16.1757812 L277.967773,18.6064453 L268.523438,18.6064453 L268.523438,31.5761719 L265.387695,31.5761719 L265.387695,3.3359375 L281.177734,3.3359375 Z M288.970703,3.3359375 L288.970703,31.5761719 L285.797852,31.5761719 L285.797852,3.3359375 L288.970703,3.3359375 Z M316.394531,31.5761719 L312.813477,31.5761719 L306.987305,22.2431641 L305.243164,19.4228516 L303.554688,22.2431641 L297.821289,31.5761719 L294.425781,31.5761719 L303.517578,17.0664062 L294.537109,3.3359375 L298.081055,3.31738281 L303.554688,11.9453125 L305.558594,15.2109375 L307.488281,11.9453125 L312.739258,3.3359375 L316.134766,3.3359375 L307.228516,17.5117188 L316.394531,31.5761719 Z M349.644531,3.3359375 L349.644531,5.76660156 L336.860352,5.76660156 L336.860352,15.7675781 L346.193359,15.7675781 L346.193359,18.1982422 L336.860352,18.1982422 L336.860352,29.1083984 L350.999023,29.1083984 L350.999023,31.5761719 L333.724609,31.5761719 L333.724609,3.3359375 L349.644531,3.3359375 Z M358.569336,10.4423828 L358.587891,13.1513672 C359.602219,12.3968061 360.836093,11.7010123 362.289551,11.0639648 C363.743009,10.4269174 365.174798,10.1083984 366.584961,10.1083984 C368.081713,10.1083984 369.272294,10.3836235 370.156738,10.934082 C371.041183,11.4845405 371.684406,12.3658794 372.086426,13.578125 C372.488446,14.7903706 372.689453,16.4293517 372.689453,18.4951172 L372.689453,31.5761719 L369.59082,31.5761719 L369.59082,18.4765625 C369.59082,17.0169198 369.464031,15.8665407 369.210449,15.0253906 C368.956867,14.1842406 368.505374,13.571942 367.855957,13.1884766 C367.20654,12.8050111 366.281907,12.6380206 365.082031,12.6875 C364.129553,12.6998699 363.078131,12.9627253 361.927734,13.4760742 C360.777338,13.9894231 359.76921,14.5924445 358.90332,15.2851562 L358.90332,31.5761719 L355.804688,31.5761719 L355.804688,10.4423828 L358.569336,10.4423828 Z M398.220703,12.9658203 L393.916016,12.9658203 C394.769536,14.1162167 395.196289,15.5078043 395.196289,17.140625 C395.196289,18.6868567 394.828291,20.016596 394.092285,21.1298828 C393.356279,22.2431696 392.354336,23.0873995 391.086426,23.6625977 C389.818516,24.2377958 388.399096,24.5253906 386.828125,24.5253906 C385.813797,24.5253906 384.861333,24.3955091 383.970703,24.1357422 C383.587238,24.4202488 383.256349,24.8068009 382.978027,25.2954102 C382.699706,25.7840194 382.560547,26.2757137 382.560547,26.7705078 C382.560547,27.3766306 382.656412,27.8497704 382.848145,28.1899414 C383.039877,28.5301124 383.352211,28.7713209 383.785156,28.9135742 C384.218101,29.0558275 384.81803,29.1269531 385.584961,29.1269531 L390.167969,29.1269531 C392.938816,29.1269531 394.843745,29.6093702 395.882812,30.5742188 C396.92188,31.5390673 397.441406,32.8069583 397.441406,34.3779297 C397.441406,35.7386136 396.993006,36.9322865 396.096191,37.9589844 C395.199377,38.9856822 393.977872,39.777341 392.431641,40.3339844 C390.885409,40.8906278 389.17221,41.1689453 387.291992,41.1689453 C384.484035,41.1689453 382.294604,40.6834358 380.723633,39.7124023 C379.152661,38.7413688 378.367188,37.2291769 378.367188,35.1757812 C378.367188,34.1985628 378.66406,33.3203164 379.257812,32.5410156 C379.851565,31.7617149 380.538082,31.1556011 381.317383,30.7226562 C380.72363,30.3886702 380.309246,29.9619167 380.074219,29.4423828 C379.839192,28.922849 379.72168,28.3291049 379.72168,27.6611328 C379.72168,26.9313115 379.953611,26.1798541 380.41748,25.4067383 C380.88135,24.6336224 381.490556,23.9687528 382.245117,23.4121094 C381.15657,22.8059866 380.303063,21.9957733 379.68457,20.9814453 C379.066078,19.9671173 378.756836,18.8105534 378.756836,17.5117188 C378.756836,15.8665282 379.127926,14.4904027 379.870117,13.3833008 C380.612308,12.2761989 381.617344,11.4567084 382.885254,10.9248047 C384.153164,10.392901 385.584953,10.1269531 387.180664,10.1269531 C389.135101,10.1269531 390.798821,10.5475218 392.171875,11.3886719 C392.654299,11.1412748 393.272783,10.927898 394.027344,10.7485352 C394.781905,10.5691723 395.5179,10.4794922 396.235352,10.4794922 L398.220703,10.4794922 L398.220703,12.9658203 Z M386.883789,22.4472656 C388.51661,22.4472656 389.79687,22.0297893 390.724609,21.1948242 C391.652348,20.3598591 392.116211,19.0455819 392.116211,17.2519531 C392.116211,15.6067626 391.68018,14.3605186 390.808105,13.5131836 C389.936031,12.6658486 388.720711,12.2421875 387.162109,12.2421875 C385.591138,12.2421875 384.310877,12.6349245 383.321289,13.4204102 C382.331701,14.2058959 381.836914,15.5201731 381.836914,17.3632812 C381.836914,18.3404997 382.031736,19.2125613 382.421387,19.9794922 C382.811037,20.7464231 383.383134,21.3494444 384.137695,21.7885742 C384.892256,22.227704 385.807612,22.4472656 386.883789,22.4472656 Z M386.048828,31.5761719 C384.824213,31.5761719 383.840824,31.5143235 383.098633,31.390625 C381.960606,32.3431037 381.391602,33.4811132 381.391602,34.8046875 C381.391602,36.2767001 381.877111,37.3497688 382.848145,38.0239258 C383.819178,38.6980828 385.319,39.0351562 387.347656,39.0351562 C388.609381,39.0351562 389.781407,38.8867202 390.86377,38.5898438 C391.946132,38.2929673 392.818193,37.8414744 393.47998,37.2353516 C394.141768,36.6292287 394.472656,35.8932335 394.472656,35.0273438 C394.472656,34.1985636 394.296388,33.5336939 393.943848,33.0327148 C393.591307,32.5317358 393.009932,32.1637382 392.199707,31.9287109 C391.389482,31.6936837 390.291674,31.5761719 388.90625,31.5761719 L386.048828,31.5761719 Z M405.828125,10.4423828 L405.828125,31.5761719 L402.748047,31.5761719 L402.748047,10.4423828 L405.828125,10.4423828 Z M402.135742,3.70703125 C402.135742,3.26171652 402.243977,2.85970231 402.460449,2.50097656 C402.676922,2.14225081 402.961424,1.85774845 403.313965,1.64746094 C403.666506,1.43717343 404.034503,1.33203125 404.417969,1.33203125 C405.061201,1.33203125 405.552895,1.5237611 405.893066,1.90722656 C406.233237,2.29069202 406.40332,2.79784841 406.40332,3.42871094 C406.40332,3.89876537 406.298178,4.31624167 406.087891,4.68115234 C405.877603,5.04606302 405.596193,5.32747297 405.243652,5.52539062 C404.891112,5.72330828 404.516929,5.82226562 404.121094,5.82226562 C403.56445,5.82226562 403.094403,5.63053577 402.710938,5.24707031 C402.327472,4.86360485 402.135742,4.35026363 402.135742,3.70703125 Z M416.088867,10.4423828 L416.107422,13.1513672 C417.12175,12.3968061 418.355624,11.7010123 419.809082,11.0639648 C421.26254,10.4269174 422.694329,10.1083984 424.104492,10.1083984 C425.601244,10.1083984 426.791825,10.3836235 427.67627,10.934082 C428.560714,11.4845405 429.203937,12.3658794 429.605957,13.578125 C430.007977,14.7903706 430.208984,16.4293517 430.208984,18.4951172 L430.208984,31.5761719 L427.110352,31.5761719 L427.110352,18.4765625 C427.110352,17.0169198 426.983562,15.8665407 426.72998,15.0253906 C426.476398,14.1842406 426.024906,13.571942 425.375488,13.1884766 C424.726071,12.8050111 423.801438,12.6380206 422.601562,12.6875 C421.649084,12.6998699 420.597662,12.9627253 419.447266,13.4760742 C418.296869,13.9894231 417.288741,14.5924445 416.422852,15.2851562 L416.422852,31.5761719 L413.324219,31.5761719 L413.324219,10.4423828 L416.088867,10.4423828 Z M438.614258,21.3154297 L438.614258,22.0576172 C438.700847,24.6429166 439.362624,26.5354758 440.599609,27.7353516 C441.836595,28.9352274 443.500315,29.5351562 445.59082,29.5351562 C446.543299,29.5351562 447.600906,29.3929051 448.763672,29.1083984 C449.926438,28.8238918 450.78613,28.4960956 451.342773,28.125 L451.936523,29.9248047 C451.256181,30.4938179 450.229499,30.9607729 448.856445,31.3256836 C447.483392,31.6905943 446.128913,31.8730469 444.792969,31.8730469 C442.826162,31.8730469 441.153164,31.4462933 439.773926,30.5927734 C438.394687,29.7392535 437.34945,28.5053792 436.638184,26.8911133 C435.926917,25.2768474 435.571289,23.3440868 435.571289,21.0927734 C435.571289,18.9404189 435.948564,17.0385825 436.703125,15.387207 C437.457686,13.7358316 438.555494,12.4462937 439.996582,11.5185547 C441.43767,10.5908157 443.160146,10.1269531 445.164062,10.1269531 C446.623705,10.1269531 447.910151,10.4547493 449.023438,11.1103516 C450.136724,11.7659538 451.008786,12.6936789 451.639648,13.8935547 C452.270511,15.0934305 452.604492,16.4850181 452.641602,18.0683594 C452.641602,18.9095094 452.632324,19.5620094 452.61377,20.0258789 C452.595215,20.4897484 452.548828,20.9195944 452.474609,21.3154297 L438.614258,21.3154297 Z M444.867188,12.3349609 C443.209627,12.3349609 441.839686,12.9008732 440.757324,14.0327148 C439.674962,15.1645564 438.997723,16.8994024 438.725586,19.2373047 L449.728516,19.2373047 C449.740885,19.0517569 449.74707,18.7672545 449.74707,18.3837891 C449.74707,16.528311 449.357426,15.0563205 448.578125,13.9677734 C447.798824,12.8792263 446.561857,12.3349609 444.867188,12.3349609 Z M100.455078,44.3359375 C101.778652,44.3359375 102.520833,44.3297527 102.681641,44.3173828 C103.201174,44.3173828 104.1289,44.2802738 105.464844,44.2060547 C107.196623,44.1194657 108.359372,44.0761719 108.953125,44.0761719 C111.90952,44.0761719 114.383454,44.6080676 116.375,45.671875 C118.366546,46.7356824 119.857091,48.2787985 120.84668,50.3012695 C121.836268,52.3237406 122.32487,54.7698424 122.3125,57.6396484 C122.3125,60.7073721 121.783697,63.3854052 120.726074,65.6738281 C119.668452,67.962251 118.122243,69.734206 116.087402,70.9897461 C114.052561,72.2452862 111.618829,72.8730469 108.786133,72.8730469 C108.316078,72.8730469 107.338875,72.8359379 105.854492,72.7617188 C104.617507,72.6751298 103.504237,72.6256511 102.514648,72.6132812 C102.019854,72.5885415 101.333338,72.5761719 100.455078,72.5761719 L100.455078,44.3359375 Z M108.97168,70.5351562 C111.012706,70.5104165 112.787753,70.0434616 114.296875,69.1342773 C115.805997,68.2250931 116.974931,66.8365979 117.803711,64.96875 C118.632491,63.1009021 119.046875,60.7692197 119.046875,57.9736328 C119.046875,53.9410606 118.153166,50.9970796 116.365723,49.1416016 C114.578279,47.2861235 111.860044,46.3583984 108.210938,46.3583984 C106.837884,46.3583984 105.29786,46.4449861 103.59082,46.6181641 L103.59082,70.2011719 C104.308272,70.3001307 105.183426,70.383626 106.216309,70.4516602 C107.249191,70.5196944 108.167639,70.5475261 108.97168,70.5351562 Z M126.023438,61.8515625 C126.023438,59.612619 126.437821,57.6860432 127.266602,56.0717773 C128.095382,54.4575115 129.236484,53.2298219 130.689941,52.3886719 C132.143399,51.5475218 133.791657,51.1269531 135.634766,51.1269531 C137.712901,51.1269531 139.43847,51.6124626 140.811523,52.5834961 C142.184577,53.5545296 143.195798,54.862622 143.845215,56.5078125 C144.494632,58.153003 144.819336,60.0022684 144.819336,62.0556641 C144.819336,64.2946075 144.411137,66.2304606 143.594727,67.8632812 C142.778316,69.4961019 141.646492,70.7392535 140.199219,71.5927734 C138.751946,72.4462933 137.100595,72.8730469 135.245117,72.8730469 C133.129872,72.8730469 131.382657,72.3782602 130.003418,71.3886719 C128.624179,70.3990836 127.616051,69.0786215 126.979004,67.4272461 C126.341956,65.7758706 126.023438,63.917328 126.023438,61.8515625 Z M141.683594,62.0927734 C141.683594,60.4228432 141.457847,58.9322982 141.006348,57.6210938 C140.554848,56.3098893 139.862147,55.2739296 138.928223,54.5131836 C137.994299,53.7524376 136.840827,53.3720703 135.467773,53.3720703 C134.156569,53.3720703 133.030929,53.7029589 132.09082,54.3647461 C131.150711,55.0265333 130.430178,55.9820901 129.929199,57.2314453 C129.42822,58.4808005 129.177734,59.9775303 129.177734,61.7216797 C129.177734,63.3916099 129.403481,64.9007094 129.85498,66.2490234 C130.30648,67.5973375 130.999182,68.6704062 131.933105,69.4682617 C132.867029,70.2661173 134.026686,70.6650391 135.412109,70.6650391 C136.735684,70.6650391 137.867508,70.3186884 138.807617,69.6259766 C139.747726,68.9332648 140.462074,67.9436913 140.950684,66.6572266 C141.439293,65.3707618 141.683594,63.8492926 141.683594,62.0927734 Z M158.716797,51.1269531 C159.867193,51.1269531 160.906245,51.2382801 161.833984,51.4609375 C162.761723,51.6835949 163.43587,51.9371731 163.856445,52.2216797 L163.318359,54.6708984 C162.811195,54.2998028 162.143233,54.0153005 161.314453,53.8173828 C160.485673,53.6194652 159.564133,53.5205078 158.549805,53.5205078 C157.325189,53.5205078 156.196457,53.8421192 155.163574,54.4853516 C154.130691,55.1285839 153.301924,56.093418 152.677246,57.3798828 C152.052568,58.6663476 151.740234,60.2372954 151.740234,62.0927734 C151.740234,63.9111419 152.037106,65.454258 152.630859,66.722168 C153.224612,67.990078 154.022456,68.9425424 155.024414,69.5795898 C156.026372,70.2166373 157.133457,70.5351562 158.345703,70.5351562 C159.44662,70.5351562 160.47021,70.3836278 161.416504,70.0805664 C162.362798,69.777505 163.12044,69.4404315 163.689453,69.0693359 L164.338867,70.8505859 C163.670895,71.4690786 162.758632,71.9607729 161.602051,72.3256836 C160.445469,72.6905943 159.20541,72.8730469 157.881836,72.8730469 C155.989248,72.8730469 154.35336,72.4184616 152.974121,71.5092773 C151.594882,70.6000931 150.543461,69.3476642 149.819824,67.7519531 C149.096188,66.156242 148.734375,64.3440857 148.734375,62.3154297 C148.722005,60.1630752 149.105465,58.2395918 149.884766,56.5449219 C150.664066,54.8502519 151.805168,53.5236051 153.308105,52.5649414 C154.811043,51.6062778 156.613922,51.1269531 158.716797,51.1269531 Z M185.287109,51.4238281 L185.287109,72.7988281 L184.099609,72.7988281 C183.542966,72.7988281 183.144044,72.7184253 182.902832,72.5576172 C182.66162,72.3968091 182.541016,72.0566432 182.541016,71.5371094 L182.541016,70.3867188 C181.526688,71.1041703 180.3392,71.6979143 178.978516,72.1679688 C177.617832,72.6380232 176.337571,72.8730469 175.137695,72.8730469 C173.393546,72.8730469 172.073084,72.5081417 171.17627,71.7783203 C170.279455,71.048499 169.682619,70.0465558 169.385742,68.7724609 C169.088866,67.498366 168.94043,65.8532002 168.94043,63.8369141 L168.94043,51.4238281 L172.020508,51.4238281 L172.020508,63.9667969 C172.020508,65.7356859 172.153482,67.0685177 172.419434,67.965332 C172.685385,68.8621464 173.121416,69.4775374 173.727539,69.8115234 C174.333662,70.1455095 175.211908,70.3125 176.362305,70.3125 C177.364263,70.3125 178.418777,70.1084005 179.525879,69.7001953 C180.632981,69.2919901 181.520504,68.8343124 182.188477,68.3271484 L182.188477,51.4238281 L185.287109,51.4238281 Z M215.939453,51.1083984 C217.411466,51.1083984 218.583492,51.3805311 219.455566,51.9248047 C220.327641,52.4690782 220.964679,53.3504171 221.366699,54.5688477 C221.768719,55.7872782 221.969727,57.4417213 221.969727,59.5322266 L221.969727,72.5761719 L218.889648,72.5761719 L218.889648,59.6806641 C218.889648,58.2333912 218.784506,57.0861045 218.574219,56.2387695 C218.363931,55.3914346 217.949547,54.7482118 217.331055,54.309082 C216.712562,53.8699522 215.803391,53.6689451 214.603516,53.7060547 C213.675777,53.7184245 212.670741,53.9472634 211.588379,54.3925781 C210.506017,54.8378929 209.525721,55.3636037 208.647461,55.9697266 C208.795899,56.946945 208.870117,58.1035089 208.870117,59.4394531 L208.870117,72.5761719 L205.771484,72.5761719 L205.771484,59.6435547 C205.771484,58.1468024 205.66325,56.971684 205.446777,56.1181641 C205.230305,55.2646442 204.822106,54.6399759 204.222168,54.2441406 C203.62223,53.8483053 202.753261,53.67513 201.615234,53.7246094 C200.675126,53.7617189 199.614426,54.0245744 198.433105,54.5131836 C197.251784,55.0017928 196.240564,55.5924445 195.399414,56.2851562 L195.399414,72.5761719 L192.300781,72.5761719 L192.300781,51.4423828 L195.06543,51.4423828 L195.083984,54.1513672 C195.652998,53.6936826 196.367346,53.2360049 197.227051,52.7783203 C198.086756,52.3206357 199.011388,51.9309912 200.000977,51.609375 C200.990565,51.2877588 201.943029,51.1207683 202.858398,51.1083984 C204.231452,51.0836587 205.338537,51.2877583 206.179688,51.7207031 C207.020838,52.153648 207.657875,52.8896432 208.09082,53.9287109 C209.068039,53.1865197 210.270989,52.5309273 211.699707,51.9619141 C213.128425,51.3929008 214.54166,51.1083984 215.939453,51.1083984 Z M230.393555,62.3154297 L230.393555,63.0576172 C230.480144,65.6429166 231.141921,67.5354758 232.378906,68.7353516 C233.615892,69.9352274 235.279612,70.5351562 237.370117,70.5351562 C238.322596,70.5351562 239.380203,70.3929051 240.542969,70.1083984 C241.705735,69.8238918 242.565427,69.4960956 243.12207,69.125 L243.71582,70.9248047 C243.035478,71.4938179 242.008796,71.9607729 240.635742,72.3256836 C239.262688,72.6905943 237.90821,72.8730469 236.572266,72.8730469 C234.605459,72.8730469 232.932461,72.4462933 231.553223,71.5927734 C230.173984,70.7392535 229.128747,69.5053792 228.41748,67.8911133 C227.706214,66.2768474 227.350586,64.3440868 227.350586,62.0927734 C227.350586,59.9404189 227.727861,58.0385825 228.482422,56.387207 C229.236983,54.7358316 230.334791,53.4462937 231.775879,52.5185547 C233.216967,51.5908157 234.939443,51.1269531 236.943359,51.1269531 C238.403002,51.1269531 239.689448,51.4547493 240.802734,52.1103516 C241.916021,52.7659538 242.788083,53.6936789 243.418945,54.8935547 C244.049808,56.0934305 244.383789,57.4850181 244.420898,59.0683594 C244.420898,59.9095094 244.411621,60.5620094 244.393066,61.0258789 C244.374512,61.4897484 244.328125,61.9195944 244.253906,62.3154297 L230.393555,62.3154297 Z M236.646484,53.3349609 C234.988924,53.3349609 233.618983,53.9008732 232.536621,55.0327148 C231.454259,56.1645564 230.77702,57.8994024 230.504883,60.2373047 L241.507812,60.2373047 C241.520182,60.0517569 241.526367,59.7672545 241.526367,59.3837891 C241.526367,57.528311 241.136723,56.0563205 240.357422,54.9677734 C239.578121,53.8792263 238.341154,53.3349609 236.646484,53.3349609 Z M252.696289,51.4423828 L252.714844,54.1513672 C253.729172,53.3968061 254.963046,52.7010123 256.416504,52.0639648 C257.869962,51.4269174 259.301751,51.1083984 260.711914,51.1083984 C262.208666,51.1083984 263.399247,51.3836235 264.283691,51.934082 C265.168136,52.4845405 265.811359,53.3658794 266.213379,54.578125 C266.615399,55.7903706 266.816406,57.4293517 266.816406,59.4951172 L266.816406,72.5761719 L263.717773,72.5761719 L263.717773,59.4765625 C263.717773,58.0169198 263.590984,56.8665407 263.337402,56.0253906 C263.08382,55.1842406 262.632327,54.571942 261.98291,54.1884766 C261.333493,53.8050111 260.40886,53.6380206 259.208984,53.6875 C258.256506,53.6998699 257.205084,53.9627253 256.054688,54.4760742 C254.904291,54.9894231 253.896163,55.5924445 253.030273,56.2851562 L253.030273,72.5761719 L249.931641,72.5761719 L249.931641,51.4423828 L252.696289,51.4423828 Z M274.702148,53.7617188 L271.751953,53.7617188 L271.751953,52.0732422 C271.962241,52.0113929 272.320961,51.9248052 272.828125,51.8134766 C273.496097,51.6526685 273.997069,51.50114 274.331055,51.3588867 C274.665041,51.2166334 274.887695,51.0032566 274.999023,50.71875 C275.073243,50.5208323 275.203124,49.9580125 275.388672,49.0302734 C275.58659,47.9293565 275.76595,47.1191432 275.926758,46.5996094 L277.782227,46.5996094 L277.782227,51.4238281 L284.350586,51.4238281 L284.350586,53.7617188 L277.782227,53.7617188 L277.782227,65.8222656 C277.782227,67.2076892 277.868814,68.2189096 278.041992,68.855957 C278.21517,69.4930045 278.490395,69.9073884 278.867676,70.0991211 C279.244956,70.2908538 279.823238,70.3867188 280.602539,70.3867188 C281.221032,70.3867188 281.94775,70.2722993 282.782715,70.043457 C283.61768,69.8146147 284.214516,69.5764986 284.573242,69.3291016 L285.111328,71.1289062 C284.554685,71.574221 283.719732,71.9762352 282.606445,72.3349609 C281.493158,72.6936867 280.466476,72.8730469 279.526367,72.8730469 C278.549149,72.8730469 277.711104,72.7338881 277.012207,72.4555664 C276.31331,72.1772447 275.753583,71.6515338 275.333008,70.878418 C274.912433,70.1053021 274.702148,69.0013093 274.702148,67.5664062 L274.702148,53.7617188 Z M296.726562,51.1083984 C298.285164,51.1083984 299.587072,51.290851 300.632324,51.6557617 C301.677577,52.0206724 302.490883,52.6762648 303.072266,53.6225586 C303.653649,54.5688524 303.944336,55.8954993 303.944336,57.6025391 L303.944336,72.8730469 L302.682617,72.8730469 C302.274412,72.8730469 301.958985,72.8421227 301.736328,72.7802734 C301.513671,72.7184242 301.343588,72.5823578 301.226074,72.3720703 C301.108561,72.1617828 301.049805,71.8339866 301.049805,71.3886719 L301.049805,70.609375 C300.381833,71.2154978 299.466477,71.7443011 298.303711,72.1958008 C297.140945,72.6473004 295.866869,72.8730469 294.481445,72.8730469 C293.23209,72.8730469 292.11882,72.6380232 291.141602,72.1679688 C290.164383,71.6979143 289.403649,71.0175826 288.859375,70.1269531 C288.315101,69.2363237 288.042969,68.1910867 288.042969,66.9912109 C288.042969,65.6181572 288.429521,64.4430387 289.202637,63.4658203 C289.975753,62.4886019 291.11067,61.7216825 292.607422,61.1650391 C293.745448,60.744464 295.081373,60.4321299 296.615234,60.2280273 C298.149096,60.0239248 299.565423,59.921875 300.864258,59.921875 L300.864258,57.4726562 C300.864258,56.3717393 300.678713,55.5306019 300.307617,54.9492188 C299.936522,54.3678356 299.401533,53.9750987 298.702637,53.7709961 C298.00374,53.5668935 297.079107,53.4648438 295.928711,53.4648438 C295.248369,53.4648438 294.496912,53.5576163 293.674316,53.7431641 C292.851721,53.9287119 292.081709,54.1606431 291.364258,54.4389648 C290.646806,54.7172865 290.096356,54.9925117 289.712891,55.2646484 L288.952148,53.2236328 C289.261395,53.0133453 289.8304,52.7412126 290.65918,52.4072266 C291.48796,52.0732405 292.446609,51.7732761 293.535156,51.5073242 C294.623703,51.2413724 295.687495,51.1083984 296.726562,51.1083984 Z M295.390625,70.5537109 C296.207035,70.5537109 296.998694,70.4454763 297.765625,70.2290039 C298.532556,70.0125315 299.194333,69.7589533 299.750977,69.4682617 C300.30762,69.1775702 300.67871,68.9270844 300.864258,68.7167969 L300.864258,61.9072266 C299.887039,61.9072266 298.752122,61.9876294 297.459473,62.1484375 C296.166823,62.3092456 295.118494,62.556639 294.314453,62.890625 C293.238276,63.2988302 292.434247,63.8152638 291.902344,64.4399414 C291.37044,65.064619 291.104492,65.8346308 291.104492,66.75 C291.104492,67.9251361 291.453935,68.8528612 292.152832,69.5332031 C292.851729,70.2135451 293.930982,70.5537109 295.390625,70.5537109 Z M311.700195,53.7617188 L308.75,53.7617188 L308.75,52.0732422 C308.960288,52.0113929 309.319008,51.9248052 309.826172,51.8134766 C310.494144,51.6526685 310.995116,51.50114 311.329102,51.3588867 C311.663088,51.2166334 311.885742,51.0032566 311.99707,50.71875 C312.071289,50.5208323 312.201171,49.9580125 312.386719,49.0302734 C312.584636,47.9293565 312.763997,47.1191432 312.924805,46.5996094 L314.780273,46.5996094 L314.780273,51.4238281 L321.348633,51.4238281 L321.348633,53.7617188 L314.780273,53.7617188 L314.780273,65.8222656 C314.780273,67.2076892 314.866861,68.2189096 315.040039,68.855957 C315.213217,69.4930045 315.488442,69.9073884 315.865723,70.0991211 C316.243003,70.2908538 316.821285,70.3867188 317.600586,70.3867188 C318.219079,70.3867188 318.945797,70.2722993 319.780762,70.043457 C320.615727,69.8146147 321.212563,69.5764986 321.571289,69.3291016 L322.109375,71.1289062 C321.552732,71.574221 320.717779,71.9762352 319.604492,72.3349609 C318.491205,72.6936867 317.464523,72.8730469 316.524414,72.8730469 C315.547196,72.8730469 314.709151,72.7338881 314.010254,72.4555664 C313.311357,72.1772447 312.75163,71.6515338 312.331055,70.878418 C311.91048,70.1053021 311.700195,69.0013093 311.700195,67.5664062 L311.700195,53.7617188 Z M329.995117,51.4423828 L329.995117,72.5761719 L326.915039,72.5761719 L326.915039,51.4423828 L329.995117,51.4423828 Z M326.302734,44.7070312 C326.302734,44.2617165 326.410969,43.8597023 326.627441,43.5009766 C326.843914,43.1422508 327.128416,42.8577484 327.480957,42.6474609 C327.833498,42.4371734 328.201495,42.3320312 328.584961,42.3320312 C329.228193,42.3320312 329.719888,42.5237611 330.060059,42.9072266 C330.40023,43.290692 330.570312,43.7978484 330.570312,44.4287109 C330.570312,44.8987654 330.46517,45.3162417 330.254883,45.6811523 C330.044595,46.046063 329.763185,46.327473 329.410645,46.5253906 C329.058104,46.7233083 328.683921,46.8222656 328.288086,46.8222656 C327.731443,46.8222656 327.261395,46.6305358 326.87793,46.2470703 C326.494464,45.8636049 326.302734,45.3502636 326.302734,44.7070312 Z M335.858398,61.8515625 C335.858398,59.612619 336.272782,57.6860432 337.101562,56.0717773 C337.930343,54.4575115 339.071445,53.2298219 340.524902,52.3886719 C341.97836,51.5475218 343.626618,51.1269531 345.469727,51.1269531 C347.547862,51.1269531 349.273431,51.6124626 350.646484,52.5834961 C352.019538,53.5545296 353.030758,54.862622 353.680176,56.5078125 C354.329593,58.153003 354.654297,60.0022684 354.654297,62.0556641 C354.654297,64.2946075 354.246098,66.2304606 353.429688,67.8632812 C352.613277,69.4961019 351.481453,70.7392535 350.03418,71.5927734 C348.586907,72.4462933 346.935556,72.8730469 345.080078,72.8730469 C342.964833,72.8730469 341.217618,72.3782602 339.838379,71.3886719 C338.45914,70.3990836 337.451012,69.0786215 336.813965,67.4272461 C336.176917,65.7758706 335.858398,63.917328 335.858398,61.8515625 Z M351.518555,62.0927734 C351.518555,60.4228432 351.292808,58.9322982 350.841309,57.6210938 C350.389809,56.3098893 349.697108,55.2739296 348.763184,54.5131836 C347.82926,53.7524376 346.675788,53.3720703 345.302734,53.3720703 C343.99153,53.3720703 342.86589,53.7029589 341.925781,54.3647461 C340.985672,55.0265333 340.265139,55.9820901 339.76416,57.2314453 C339.263181,58.4808005 339.012695,59.9775303 339.012695,61.7216797 C339.012695,63.3916099 339.238442,64.9007094 339.689941,66.2490234 C340.141441,67.5973375 340.834142,68.6704062 341.768066,69.4682617 C342.70199,70.2661173 343.861647,70.6650391 345.24707,70.6650391 C346.570645,70.6650391 347.702469,70.3186884 348.642578,69.6259766 C349.582687,68.9332648 350.297035,67.9436913 350.785645,66.6572266 C351.274254,65.3707618 351.518555,63.8492926 351.518555,62.0927734 Z M362.948242,51.4423828 L362.966797,54.1513672 C363.981125,53.3968061 365.214999,52.7010123 366.668457,52.0639648 C368.121915,51.4269174 369.553704,51.1083984 370.963867,51.1083984 C372.460619,51.1083984 373.6512,51.3836235 374.535645,51.934082 C375.420089,52.4845405 376.063312,53.3658794 376.465332,54.578125 C376.867352,55.7903706 377.068359,57.4293517 377.068359,59.4951172 L377.068359,72.5761719 L373.969727,72.5761719 L373.969727,59.4765625 C373.969727,58.0169198 373.842937,56.8665407 373.589355,56.0253906 C373.335773,55.1842406 372.884281,54.571942 372.234863,54.1884766 C371.585446,53.8050111 370.660813,53.6380206 369.460938,53.6875 C368.508459,53.6998699 367.457037,53.9627253 366.306641,54.4760742 C365.156244,54.9894231 364.148116,55.5924445 363.282227,56.2851562 L363.282227,72.5761719 L360.183594,72.5761719 L360.183594,51.4423828 L362.948242,51.4423828 Z" id="Imandra-FIX-Engine-D" fill="#405267"></path>
            <g id="imandrafix" transform="translate(0.632812, 3.500000)">
                <g id="Group">
                    <rect id="Rectangle-path" fill="#21D8AF" fill-rule="nonzero" x="0.717369247" y="71.6944802" width="4.32479247" height="11.5230064" rx="2.16239623"></rect>
                    <rect id="Rectangle-path" fill="#21D8AF" fill-rule="nonzero" x="28.7185679" y="51.2726636" width="4.32479247" height="19.6741406" rx="2.16239623"></rect>
                    <rect id="Rectangle-path" fill="#21D8AF" fill-rule="nonzero" x="10.0559889" y="66.0502595" width="4.32479247" height="12.1020888" rx="2.16239623"></rect>
                    <rect id="Rectangle-path" fill="#21D8AF" fill-rule="nonzero" x="19.3872784" y="56.8289224" width="4.32479247" height="9.06007371" rx="2.16239623"></rect>
                    <rect id="Rectangle-path" fill="#21D8AF" fill-rule="nonzero" x="47.3884771" y="35.8206932" width="4.32479247" height="26.2639515" rx="2.16239623"></rect>
                    <rect id="Rectangle-path" fill="#21D8AF" fill-rule="nonzero" x="56.7270968" y="31.3566278" width="4.32479247" height="40.8289729" rx="2.16239623"></rect>
                    <rect id="Rectangle-path" fill="#21D8AF" fill-rule="nonzero" x="38.0571876" y="46.0462618" width="4.32479247" height="19.8427342" rx="2.16239623"></rect>
                    <rect id="Rectangle-path" fill="#21D8AF" fill-rule="nonzero" x="0.717369247" y="35.4028743" width="4.32479247" height="31.3510803" rx="2.16239623"></rect>
                    <rect id="Rectangle-path" fill="#21D8AF" fill-rule="nonzero" x="28.7185679" y="35.4028743" width="4.32479247" height="10.6433876" rx="2.16239623"></rect>
                    <rect id="Rectangle-path" fill="#21D8AF" fill-rule="nonzero" x="38.0571876" y="35.4028743" width="4.32479247" height="5.41698582" rx="2.16239623"></rect>
                    <rect id="Rectangle-path" fill="#21D8AF" fill-rule="nonzero" x="10.0559889" y="35.4028743" width="4.32479247" height="25.6995295" rx="2.16239623"></rect>
                    <rect id="Rectangle-path" fill="#21D8AF" fill-rule="nonzero" x="19.3872784" y="35.4028743" width="4.32479247" height="16.36824" rx="2.16239623"></rect>
                    <rect id="Rectangle-path" fill="#21D8AF" fill-rule="nonzero" x="47.3884771" y="1.00977892" width="4.32479247" height="30.3468488" rx="2.16239623"></rect>
                    <rect id="Rectangle-path" fill="#21D8AF" fill-rule="nonzero" x="56.7270968" y="1.00977892" width="4.32479247" height="25.4869549" rx="2.16239623"></rect>
                    <path d="M35.1177947,10.2311161 C37.70468,10.2311161 39.8017649,8.13403121 39.8017649,5.54714593 C39.8017649,2.96026065 37.70468,0.863175785 35.1177947,0.863175785 C32.5309095,0.863175785 30.4338246,2.96026065 30.4338246,5.54714593 C30.4338246,8.13403121 32.5309095,10.2311161 35.1177947,10.2311161" id="Shape" fill="#21D8AF"></path>
                    <path d="M4.98597177,10.2311161 C7.57285705,10.2311161 9.66994192,8.13403121 9.66994192,5.54714593 C9.66994192,2.96026065 7.57285705,0.863175785 4.98597177,0.863175785 C2.39908649,0.863175785 0.302001625,2.96026065 0.302001625,5.54714593 C0.302001625,8.13403121 2.39908649,10.2311161 4.98597177,10.2311161" id="Shape-Copy" fill="#21D8AF"></path>
                    <rect id="Rectangle-path" fill="#21D8AF" fill-rule="nonzero" transform="translate(19.972928, 5.544048) rotate(-0.190000) translate(-19.972928, -5.544048) " x="17.7885415" y="0.0317703" width="4.36877341" height="11.0245557" rx="2.1843867"></rect>
                    <path d="M0.986511834,30.3954324 C0.874555212,30.2834757 0.81857774,30.1528616 0.81857774,30.0035861 L0.81857774,15.4716893 C0.81857774,15.3074862 0.87082338,15.1694085 0.975316228,15.0574518 C1.07980907,14.9454952 1.21415501,14.8895177 1.37835805,14.8895177 L11.7902718,14.8895177 C11.9544749,14.8895177 12.0925526,14.9454952 12.2045093,15.0574518 C12.3164659,15.1694085 12.3724434,15.3074862 12.3724434,15.4716893 L12.3724434,17.8451578 C12.3724434,18.0093608 12.3164659,18.1437068 12.2045093,18.2481996 C12.0925526,18.3526925 11.9544749,18.4049381 11.7902718,18.4049381 L4.93856083,18.4049381 L4.93856083,21.5173166 L11.3424476,21.5173166 C11.5066506,21.5173166 11.6447284,21.5732941 11.756685,21.6852507 C11.8686416,21.7972073 11.9246191,21.9352851 11.9246191,22.0994882 L11.9246191,24.4729567 C11.9246191,24.6371597 11.8686416,24.7715057 11.756685,24.8759985 C11.6447284,24.9804913 11.5066506,25.032737 11.3424476,25.032737 L4.93856083,25.032737 L4.93856083,30.0035861 C4.93856083,30.1528616 4.88631519,30.2834757 4.78182234,30.3954324 C4.6773295,30.507389 4.54298357,30.5633665 4.37878052,30.5633665 L1.37835805,30.5633665 C1.22908256,30.5633665 1.09846846,30.507389 0.986511834,30.3954324 Z M17.7225276,30.3954324 C17.610571,30.2834757 17.5545935,30.1528616 17.5545935,30.0035861 L17.5545935,15.4492981 C17.5545935,15.285095 17.610571,15.1507491 17.7225276,15.0462562 C17.8344842,14.9417634 17.9650983,14.8895177 18.1143738,14.8895177 L21.3163172,14.8895177 C21.4805202,14.8895177 21.6148662,14.9417634 21.719359,15.0462562 C21.8238519,15.1507491 21.8760975,15.285095 21.8760975,15.4492981 L21.8760975,30.0035861 C21.8760975,30.1528616 21.8238519,30.2834757 21.719359,30.3954324 C21.6148662,30.507389 21.4805202,30.5633665 21.3163172,30.5633665 L18.1143738,30.5633665 C17.9650983,30.5633665 17.8344842,30.507389 17.7225276,30.3954324 Z M26.5992278,30.4178236 C26.5021987,30.3207945 26.4536849,30.2125714 26.4536849,30.093151 C26.4536849,30.0035857 26.4760759,29.9140217 26.5208586,29.8244564 L31.4021429,22.5697036 L26.9015092,15.6284278 C26.8567265,15.5388625 26.8343355,15.4492985 26.8343355,15.3597332 C26.8343355,15.2403128 26.8828493,15.1320897 26.9798784,15.0350606 C27.0769075,14.9380316 27.1851306,14.8895177 27.304551,14.8895177 L30.7304065,14.8895177 C31.0588126,14.8895177 31.3275044,15.0537183 31.5364901,15.3821244 L34.0666972,19.2781954 L36.686469,15.3821244 C36.8954547,15.0537183 37.1566829,14.8895177 37.4701614,14.8895177 L40.7392785,14.8895177 C40.8586989,14.8895177 40.966922,14.9380316 41.063951,15.0350606 C41.1609801,15.1320897 41.2094939,15.2403128 41.2094939,15.3597332 C41.2094939,15.4492985 41.1871029,15.5388625 41.1423203,15.6284278 L36.5969042,22.5249212 L41.5229709,29.8244564 C41.5677535,29.9140217 41.5901445,30.0035857 41.5901445,30.093151 C41.5901445,30.2125714 41.5416307,30.3207945 41.4446017,30.4178236 C41.3475726,30.5148527 41.2393495,30.5633665 41.1199291,30.5633665 L37.5821175,30.5633665 C37.2537114,30.5633665 36.9924832,30.4140932 36.7984251,30.1155422 L33.9323499,25.9507767 L31.1334483,30.1155422 C30.9393902,30.4140932 30.678162,30.5633665 30.3497559,30.5633665 L26.9239004,30.5633665 C26.80448,30.5633665 26.6962569,30.5148527 26.5992278,30.4178236 Z" id="FIX" fill="#577FA1"></path>
                </g>
            </g>
        </g>
    </g>
</svg>