<?xml version="1.0" encoding="UTF-8"?>
<svg width="702px" height="321px" viewBox="0 0 702 321" version="1.1" xmlns="http://www.w3.org/2000/svg" xmlns:xlink="http://www.w3.org/1999/xlink">
    <!-- Generator: Sketch 47.1 (45422) - http://www.bohemiancoding.com/sketch -->
    <title>fix_engine_doc_ico</title>
    <desc>Created with Sketch.</desc>
    <defs>
        <path d="M0.856,3.983 L0.856,26.499 C0.856,28.249 2.277,29.669 4.027,29.669 C5.78,29.669 7.2,28.249 7.2,26.499 L7.2,3.983 C7.2,2.231 5.78,0.811 4.027,0.811 C2.277,0.811 0.856,2.231 0.856,3.983 Z" id="path-1"></path>
        <path d="M0.967,3.338 L0.967,14.825 C0.967,16.588 2.396,18.019 4.161,18.019 C5.925,18.019 7.354,16.588 7.354,14.825 L7.354,3.338 C7.354,1.575 5.925,0.144 4.161,0.144 C2.396,0.144 0.967,1.575 0.967,3.338 Z" id="path-3"></path>
        <path d="M0.174,3.675 L0.174,14.306 C0.174,16.071 1.604,17.5 3.368,17.5 C5.131,17.5 6.561,16.071 6.561,14.306 L6.561,3.675 C6.561,1.912 5.131,0.481 3.368,0.481 C1.604,0.481 0.174,1.912 0.174,3.675 Z" id="path-5"></path>
        <path d="M0.085,7.786 C0.085,11.604 3.182,14.704 7.003,14.704 C10.824,14.704 13.92,11.604 13.92,7.786 C13.92,3.965 10.824,0.867 7.003,0.867 C3.182,0.867 0.085,3.965 0.085,7.786 Z" id="path-7"></path>
        <path d="M3.585,0.639 C1.804,0.646 0.366,2.095 0.37,3.876 L0.404,13.706 C0.409,15.489 1.858,16.929 3.639,16.922 C5.422,16.916 6.861,15.466 6.856,13.685 L6.824,3.854 C6.818,2.076 5.374,0.639 3.596,0.639 C3.593,0.639 3.588,0.639 3.585,0.639 Z" id="path-9"></path>
        <path d="M0.749,3.721 L0.749,10.713 C0.749,12.476 2.178,13.907 3.941,13.907 C5.705,13.907 7.136,12.476 7.136,10.713 L7.136,3.721 C7.136,1.956 5.705,0.526 3.941,0.526 C2.178,0.526 0.749,1.956 0.749,3.721 Z" id="path-11"></path>
        <path d="M0.243,3.316 L0.243,35.499 C0.243,37.25 1.663,38.67 3.414,38.67 C5.166,38.67 6.587,37.25 6.587,35.499 L6.587,3.316 C6.587,1.565 5.166,0.146 3.414,0.146 C1.663,0.146 0.243,1.565 0.243,3.316 Z" id="path-13"></path>
        <path d="M0.94,3.768 L0.94,57.313 C0.94,59.066 2.36,60.486 4.113,60.486 C5.865,60.486 7.285,59.066 7.285,57.313 L7.285,3.768 C7.285,2.017 5.865,0.596 4.113,0.596 C2.36,0.596 0.94,2.017 0.94,3.768 Z" id="path-15"></path>
        <path d="M0.554,3.317 L0.554,26.079 C0.554,27.832 1.974,29.251 3.727,29.251 C5.479,29.251 6.899,27.832 6.899,26.079 L6.899,3.317 C6.899,1.564 5.479,0.145 3.727,0.145 C1.974,0.145 0.554,1.564 0.554,3.317 Z" id="path-17"></path>
        <path d="M0.174,4.075 L0.174,43.99 C0.174,45.754 1.604,47.185 3.368,47.185 C5.131,47.185 6.561,45.754 6.561,43.99 L6.561,4.075 C6.561,2.31 5.131,0.881 3.368,0.881 C1.604,0.881 0.174,2.31 0.174,4.075 Z" id="path-19"></path>
        <path d="M0.856,3.704 L0.856,12.972 C0.856,14.723 2.277,16.145 4.027,16.145 C5.78,16.145 7.2,14.723 7.2,12.972 L7.2,3.704 C7.2,1.952 5.78,0.533 4.027,0.533 C2.277,0.533 0.856,1.952 0.856,3.704 Z" id="path-21"></path>
        <path d="M0.554,3.704 L0.554,5.306 C0.554,7.057 1.974,8.478 3.727,8.478 C5.479,8.478 6.899,7.057 6.899,5.306 L6.899,3.704 C6.899,1.952 5.479,0.533 3.727,0.533 C1.974,0.533 0.554,1.952 0.554,3.704 Z" id="path-23"></path>
        <path d="M0.967,4.075 L0.967,35.644 C0.967,37.408 2.396,38.836 4.161,38.836 C5.925,38.836 7.354,37.408 7.354,35.644 L7.354,4.075 C7.354,2.31 5.925,0.881 4.161,0.881 C2.396,0.881 0.967,2.31 0.967,4.075 Z" id="path-25"></path>
        <path d="M0.749,4.075 L0.749,21.862 C0.749,23.625 2.178,25.056 3.941,25.056 C5.705,25.056 7.136,23.625 7.136,21.862 L7.136,4.075 C7.136,2.31 5.705,0.881 3.941,0.881 C2.178,0.881 0.749,2.31 0.749,4.075 Z" id="path-27"></path>
        <path d="M0.243,3.254 L0.243,41.425 C0.243,43.176 1.663,44.596 3.414,44.596 C5.166,44.596 6.587,43.176 6.587,41.425 L6.587,3.254 C6.587,1.501 5.166,0.082 3.414,0.082 C1.663,0.082 0.243,1.501 0.243,3.254 Z" id="path-29"></path>
        <path d="M0.94,3.254 L0.94,34.297 C0.94,36.047 2.36,37.468 4.113,37.468 C5.865,37.468 7.285,36.047 7.285,34.297 L7.285,3.254 C7.285,1.501 5.865,0.082 4.113,0.082 C2.36,0.082 0.94,1.501 0.94,3.254 Z" id="path-31"></path>
        <path d="M0.174,7.738 C0.174,11.532 3.249,14.609 7.044,14.609 C10.839,14.609 13.915,11.532 13.915,7.738 C13.915,3.943 10.839,0.868 7.044,0.868 C3.249,0.868 0.174,3.943 0.174,7.738 Z" id="path-33"></path>
        <path d="M54.694,0.441 C54.235,0.441 53.851,0.683 53.544,1.164 L49.702,6.878 L45.989,1.164 C45.685,0.683 45.289,0.441 44.808,0.441 L39.781,0.441 C39.606,0.441 39.449,0.513 39.306,0.654 C39.163,0.799 39.093,0.956 39.093,1.132 C39.093,1.264 39.125,1.394 39.19,1.526 L45.792,11.707 L38.633,22.351 C38.568,22.48 38.534,22.612 38.534,22.743 C38.534,22.919 38.606,23.078 38.747,23.219 C38.89,23.362 39.049,23.434 39.224,23.434 L44.249,23.434 C44.732,23.434 45.115,23.214 45.399,22.776 L49.505,16.667 L53.708,22.776 C53.994,23.214 54.376,23.434 54.857,23.434 L60.048,23.434 C60.223,23.434 60.38,23.362 60.524,23.219 C60.666,23.078 60.737,22.919 60.737,22.743 C60.737,22.612 60.704,22.48 60.639,22.351 L53.413,11.642 L60.08,1.526 C60.146,1.394 60.178,1.264 60.178,1.132 C60.178,0.956 60.108,0.799 59.964,0.654 C59.823,0.513 59.664,0.441 59.489,0.441 L54.694,0.441 Z M26.302,0.441 C26.083,0.441 25.892,0.519 25.727,0.672 C25.563,0.826 25.481,1.022 25.481,1.264 L25.481,22.612 C25.481,22.832 25.563,23.022 25.727,23.187 C25.892,23.353 26.083,23.434 26.302,23.434 L30.999,23.434 C31.24,23.434 31.437,23.353 31.589,23.187 C31.743,23.022 31.819,22.832 31.819,22.612 L31.819,1.264 C31.819,1.022 31.743,0.826 31.589,0.672 C31.437,0.519 31.24,0.441 30.999,0.441 L26.302,0.441 Z M1.752,0.441 C1.512,0.441 1.314,0.524 1.161,0.687 C1.009,0.853 0.931,1.054 0.931,1.297 L0.931,22.612 C0.931,22.832 1.014,23.022 1.177,23.187 C1.341,23.353 1.534,23.434 1.752,23.434 L6.154,23.434 C6.395,23.434 6.592,23.353 6.746,23.187 C6.898,23.022 6.974,22.832 6.974,22.612 L6.974,15.321 L16.368,15.321 C16.609,15.321 16.813,15.245 16.976,15.091 C17.14,14.937 17.221,14.742 17.221,14.499 L17.221,11.018 C17.221,10.777 17.14,10.575 16.976,10.412 C16.813,10.247 16.609,10.164 16.368,10.164 L6.974,10.164 L6.974,5.597 L17.025,5.597 C17.265,5.597 17.469,5.522 17.632,5.369 C17.797,5.216 17.88,5.018 17.88,4.778 L17.88,1.297 C17.88,1.054 17.797,0.853 17.632,0.687 C17.469,0.524 17.265,0.441 17.025,0.441 L1.752,0.441 Z" id="path-35"></path>
    </defs>
    <g id="Page-1" stroke="none" stroke-width="1" fill="none" fill-rule="evenodd">
        <g id="https://aestheticintegration.github.io/fix-engine" transform="translate(-319.000000, -48.000000)">
            <g id="fix_engine_doc_ico" transform="translate(318.949219, 48.000000)">
                <g id="Group-102" transform="translate(32.000000, 0.520000)" stroke="#A0CBE0">
                    <polygon id="Stroke-1" points="198.454 193.108 205.929 193.108 205.929 177.014 198.454 177.014"></polygon>
                    <polygon id="Stroke-3" points="210.158 193.108 217.633 193.108 217.633 177.014 210.158 177.014"></polygon>
                    <polygon id="Stroke-4" points="221.861 178.433 229.336 178.433 229.336 169.535 221.861 169.535"></polygon>
                    <polygon id="Stroke-5" points="233.565 171.354 241.04 171.354 241.04 167.128 233.565 167.128"></polygon>
                    <polygon id="Stroke-6" points="268.676 171.354 276.151 171.354 276.151 161.486 268.676 161.486"></polygon>
                    <polygon id="Stroke-7" points="280.379 171.354 287.854 171.354 287.854 155.26 280.379 155.26"></polygon>
                    <polygon id="Stroke-8" points="292.083 162.737 299.558 162.737 299.558 155.26 292.083 155.26"></polygon>
                    <polygon id="Stroke-9" points="303.786 257.017 311.261 257.017 311.261 161.488 303.786 161.488"></polygon>
                    <polygon id="Stroke-10" points="315.49 283.193 322.964 283.193 322.964 257.016 315.49 257.016"></polygon>
                    <polygon id="Stroke-11" points="327.194 294.928 334.669 294.928 334.669 283.194 327.194 283.194"></polygon>
                    <polygon id="Stroke-12" points="338.897 294.928 346.372 294.928 346.372 278.833 338.897 278.833"></polygon>
                    <polygon id="Stroke-13" points="350.601 281.635 358.076 281.635 358.076 199.389 350.601 199.389"></polygon>
                    <polygon id="Stroke-14" points="362.304 273.221 369.779 273.221 369.779 199.389 362.304 199.389"></polygon>
                    <polygon id="Stroke-15" points="374.007 273.221 381.482 273.221 381.482 250.119 374.007 250.119"></polygon>
                    <polygon id="Stroke-16" points="385.711 250.119 393.186 250.119 393.186 181.959 385.711 181.959"></polygon>
                    <polygon id="Stroke-17" points="397.414 181.959 404.889 181.959 404.889 161.487 397.414 161.487"></polygon>
                    <polygon id="Stroke-18" points="409.118 162.737 416.593 162.737 416.593 131.587 409.118 131.587"></polygon>
                    <polygon id="Stroke-19" points="420.822 129.764 428.297 129.764 428.297 126.026 420.822 126.026"></polygon>
                    <polygon id="Stroke-20" points="432.526 159 440.001 159 440.001 125.456 432.526 125.456"></polygon>
                    <polygon id="Stroke-21" points="444.229 177.016 451.704 177.016 451.704 158.374 444.229 158.374"></polygon>
                    <polygon id="Stroke-22" points="455.932 297.009 463.407 297.009 463.407 177.015 455.932 177.015"></polygon>
                    <polygon id="Stroke-23" points="467.636 297.009 475.111 297.009 475.111 293.662 467.636 293.662"></polygon>
                    <polygon id="Stroke-24" points="479.339 294.928 486.814 294.928 486.814 185.062 479.339 185.062"></polygon>
                    <polygon id="Stroke-25" points="491.043 185.062 498.518 185.062 498.518 73.913 491.043 73.913"></polygon>
                    <polygon id="Stroke-26" points="514.45 108.461 521.925 108.461 521.925 40.288 514.45 40.288"></polygon>
                    <polygon id="Stroke-27" points="526.154 108.461 533.629 108.461 533.629 79.763 526.154 79.763"></polygon>
                    <polygon id="Stroke-28" points="502.746 115.775 510.221 115.775 510.221 40.29 502.746 40.29"></polygon>
                    <polygon id="Stroke-29" points="245.268 169.534 252.743 169.534 252.743 119.064 245.268 119.064"></polygon>
                    <polygon id="Stroke-30" points="256.972 162.288 264.447 162.288 264.447 119.064 256.972 119.064"></polygon>
                    <path d="M202.1907,155.2607 L202.1907,196.5287" id="Stroke-31"></path>
                    <path d="M213.8958,122.7622 L213.8958,193.1092" id="Stroke-32"></path>
                    <path d="M225.6003,134.3604 L225.6003,204.7074" id="Stroke-33"></path>
                    <path d="M237.3035,162.2881 L237.3035,185.0611" id="Stroke-34"></path>
                    <path d="M249.0115,115.3032 L249.0115,173.6752" id="Stroke-35"></path>
                    <path d="M260.7161,115.3047 L260.7161,173.9847" id="Stroke-36"></path>
                    <path d="M272.4192,139.4165 L272.4192,250.1185" id="Stroke-37"></path>
                    <path d="M284.1233,129.7637 L284.1233,223.6047" id="Stroke-38"></path>
                    <path d="M295.8259,155.2607 L295.8259,178.4327" id="Stroke-39"></path>
                    <path d="M307.533,152.3198 L307.533,277.1208" id="Stroke-40"></path>
                    <path d="M319.2366,232.2773 L319.2366,319.5263" id="Stroke-41"></path>
                    <path d="M330.9407,235.4502 L330.9407,311.0752" id="Stroke-42"></path>
                    <path d="M342.6448,268.6592 L342.6448,314.0082" id="Stroke-43"></path>
                    <path d="M354.3499,190.4346 L354.3499,284.5216" id="Stroke-44"></path>
                    <path d="M366.0422,190.4346 L366.0422,284.5216" id="Stroke-45"></path>
                    <path d="M377.7581,223.6338 L377.7581,285.5618" id="Stroke-46"></path>
                    <path d="M389.4641,155.2612 L389.4641,264.4902" id="Stroke-47"></path>
                    <path d="M401.1682,109.9595 L401.1682,199.3885" id="Stroke-48"></path>
                    <path d="M412.8713,112.0771 L412.8713,175.2571" id="Stroke-49"></path>
                    <path d="M424.5754,101.0078 L424.5754,143.6668" id="Stroke-50"></path>
                    <path d="M436.2805,114.6865 L436.2805,167.6945" id="Stroke-51"></path>
                    <path d="M447.9846,140.0835 L447.9846,183.3225" id="Stroke-52"></path>
                    <path d="M459.6907,167.6953 L459.6907,300.1313" id="Stroke-53"></path>
                    <path d="M471.3958,233.9141 L471.3958,306.6521" id="Stroke-54"></path>
                    <path d="M483.0999,155.2617 L483.0999,300.1317" id="Stroke-55"></path>
                    <path d="M494.8049,68.855 L494.8049,197.912" id="Stroke-56"></path>
                    <path d="M506.509,6.2705 L506.509,122.5745" id="Stroke-57"></path>
                    <path d="M518.1887,0.3022 L518.1887,111.3872" id="Stroke-58"></path>
                    <path d="M529.8909,64.4224 L529.8909,122.5744" id="Stroke-59"></path>
                    <polygon id="Stroke-60" points="187.61 171.604 195.082 171.604 195.082 155.524 187.61 155.524"></polygon>
                    <polygon id="Stroke-61" points="175.911 171.604 183.383 171.604 183.383 155.524 175.911 155.524"></polygon>
                    <polygon id="Stroke-62" points="164.212 179.078 171.684 179.078 171.684 170.187 164.212 170.187"></polygon>
                    <polygon id="Stroke-63" points="152.512 181.479 159.984 181.479 159.984 177.257 152.512 177.257"></polygon>
                    <polygon id="Stroke-64" points="70.617 91.676 78.089 91.676 78.089 65.524 70.617 65.524"></polygon>
                    <polygon id="Stroke-65" points="58.918 65.523 66.39 65.523 66.39 53.8 58.918 53.8"></polygon>
                    <polygon id="Stroke-66" points="47.219 69.879 54.691 69.879 54.691 53.8 47.219 53.8"></polygon>
                    <polygon id="Stroke-67" points="35.52 149.251 42.992 149.251 42.992 67.082 35.52 67.082"></polygon>
                    <polygon id="Stroke-68" points="23.82 149.251 31.292 149.251 31.292 75.488 23.82 75.488"></polygon>
                    <polygon id="Stroke-69" points="12.121 98.568 19.593 98.568 19.593 75.487 12.121 75.487"></polygon>
                    <polygon id="Stroke-70" points="0.422 166.665 7.894 166.665 7.894 98.568 0.422 98.568"></polygon>
                    <path d="M191.3474,193.3369 L191.3474,152.1079" id="Stroke-71"></path>
                    <path d="M179.6467,225.8057 L179.6467,155.5237" id="Stroke-72"></path>
                    <path d="M167.9465,214.2188 L167.9465,143.9358" id="Stroke-73"></path>
                    <path d="M156.2478,186.3174 L156.2478,163.5644" id="Stroke-74"></path>
                    <path d="M74.3445,100.9888 L74.3445,29.2248" id="Stroke-75"></path>
                    <path d="M62.6448,85.9829 L62.6448,37.6679" id="Stroke-76"></path>
                    <path d="M50.9451,80.0435 L50.9451,34.7395" id="Stroke-77"></path>
                    <path d="M39.2439,158.1963 L39.2439,64.1963" id="Stroke-78"></path>
                    <path d="M27.5564,158.1963 L27.5564,64.1963" id="Stroke-79"></path>
                    <path d="M15.8445,125.0278 L15.8445,63.1568" id="Stroke-80"></path>
                    <path d="M4.1428,193.3369 L4.1428,84.2099" id="Stroke-81"></path>
                    <polygon id="Stroke-82" points="644.802 98.659 652.278 98.659 652.278 75.549 644.802 75.549"></polygon>
                    <polygon id="Stroke-83" points="633.097 166.844 640.573 166.844 640.573 98.658 633.097 98.658"></polygon>
                    <polygon id="Stroke-84" points="621.393 187.322 628.869 187.322 628.869 166.843 621.393 166.843"></polygon>
                    <polygon id="Stroke-85" points="609.688 217.233 617.164 217.233 617.164 186.071 609.688 186.071"></polygon>
                    <polygon id="Stroke-86" points="597.984 222.797 605.46 222.797 605.46 219.057 597.984 219.057"></polygon>
                    <polygon id="Stroke-87" points="586.279 223.368 593.755 223.368 593.755 189.811 586.279 189.811"></polygon>
                    <polygon id="Stroke-88" points="574.574 190.437 582.049 190.437 582.049 171.789 574.574 171.789"></polygon>
                    <polygon id="Stroke-89" points="562.869 171.788 570.345 171.788 570.345 51.75 562.869 51.75"></polygon>
                    <polygon id="Stroke-90" points="551.164 55.098 558.64 55.098 558.64 51.75 551.164 51.75"></polygon>
                    <polygon id="Stroke-91" points="539.46 163.738 546.936 163.738 546.936 53.832 539.46 53.832"></polygon>
                    <path d="M648.5266,125.1523 L648.5266,63.2013" id="Stroke-92"></path>
                    <path d="M636.8196,193.5508 L636.8196,84.2808" id="Stroke-93"></path>
                    <path d="M625.1145,238.8691 L625.1145,149.4071" id="Stroke-94"></path>
                    <path d="M613.4104,236.75 L613.4104,173.547" id="Stroke-95"></path>
                    <path d="M601.7053,247.8242 L601.7053,205.1492" id="Stroke-96"></path>
                    <path d="M589.9993,234.1396 L589.9993,181.1126" id="Stroke-97"></path>
                    <path d="M578.2942,208.7334 L578.2942,165.4794" id="Stroke-98"></path>
                    <path d="M566.5862,181.1123 L566.5862,48.6263" id="Stroke-99"></path>
                    <path d="M554.8801,114.8687 L554.8801,42.1037" id="Stroke-100"></path>
                    <path d="M543.175,193.5498 L543.175,48.6268" id="Stroke-101"></path>
                </g>
                <path d="M507.4114,164.645 L188.2474,164.777" id="Stroke-103" stroke="#979797" stroke-linecap="square" stroke-dasharray="3,4"></path>
                <path d="M79.219,164.5766 L4.555,164.7126" id="Stroke-104" stroke="#979797" stroke-linecap="square" stroke-dasharray="3,4"></path>
                <path d="M22.1785,291.0014 L22.0575,33.4514" id="Stroke-105" stroke="#979797" stroke-linecap="square" stroke-dasharray="3,4"></path>
                <path d="M539.5051,164.8286 L691.6301,164.4306" id="Stroke-106" stroke="#979797" stroke-linecap="square" stroke-dasharray="3,4"></path>
                <g id="Group-109" transform="translate(132.000000, 181.520000)">
                    <mask id="mask-2" fill="white">
                        <use xlink:href="#path-1"></use>
                    </mask>
                    <g id="Clip-108"></g>
                    <polygon id="Fill-107" fill="#27D798" mask="url(#mask-2)" points="-21.027 51.553 29.084 51.553 29.084 -21.073 -21.027 -21.073"></polygon>
                </g>
                <g id="Group-112" transform="translate(104.000000, 204.520000)">
                    <mask id="mask-4" fill="white">
                        <use xlink:href="#path-3"></use>
                    </mask>
                    <g id="Clip-111"></g>
                    <polygon id="Fill-110" fill="#27D798" mask="url(#mask-4)" points="-21.068 40.054 29.389 40.054 29.389 -21.889 -21.068 -21.889"></polygon>
                </g>
                <g id="Group-115" transform="translate(91.000000, 212.520000)">
                    <mask id="mask-6" fill="white">
                        <use xlink:href="#path-5"></use>
                    </mask>
                    <g id="Clip-114"></g>
                    <polygon id="Fill-113" fill="#27D798" mask="url(#mask-6)" points="-21.861 39.534 28.596 39.534 28.596 -21.554 -21.861 -21.554"></polygon>
                </g>
                <g id="Group-118" transform="translate(133.000000, 107.520000)">
                    <mask id="mask-8" fill="white">
                        <use xlink:href="#path-7"></use>
                    </mask>
                    <g id="Clip-117"></g>
                    <polygon id="Fill-116" fill="#27D798" mask="url(#mask-8)" points="-21.95 36.737 35.955 36.737 35.955 -21.168 -21.95 -21.168"></polygon>
                </g>
                <g id="Group-121" transform="translate(116.000000, 106.520000)">
                    <mask id="mask-10" fill="white">
                        <use xlink:href="#path-9"></use>
                    </mask>
                    <g id="Clip-120"></g>
                    <polygon id="Fill-119" fill="#27D798" mask="url(#mask-10)" points="-21.7473 -21.3115 28.7737 -21.4785 28.9737 38.8725 -21.5473 39.0405"></polygon>
                </g>
                <g id="Group-124" transform="translate(118.000000, 190.520000)">
                    <mask id="mask-12" fill="white">
                        <use xlink:href="#path-11"></use>
                    </mask>
                    <g id="Clip-123"></g>
                    <polygon id="Fill-122" fill="#27D798" mask="url(#mask-12)" points="-21.286 35.941 29.17 35.941 29.17 -21.509 -21.286 -21.509"></polygon>
                </g>
                <g id="Group-127" transform="translate(160.000000, 159.520000)">
                    <mask id="mask-14" fill="white">
                        <use xlink:href="#path-13"></use>
                    </mask>
                    <g id="Clip-126"></g>
                    <polygon id="Fill-125" fill="#27D798" mask="url(#mask-14)" points="-21.641 60.554 28.471 60.554 28.471 -21.739 -21.641 -21.739"></polygon>
                </g>
                <g id="Group-130" transform="translate(173.000000, 152.520000)">
                    <mask id="mask-16" fill="white">
                        <use xlink:href="#path-15"></use>
                    </mask>
                    <g id="Clip-129"></g>
                    <polygon id="Fill-128" fill="#27D798" mask="url(#mask-16)" points="-20.943 82.37 29.168 82.37 29.168 -21.288 -20.943 -21.288"></polygon>
                </g>
                <g id="Group-133" transform="translate(146.000000, 174.520000)">
                    <mask id="mask-18" fill="white">
                        <use xlink:href="#path-17"></use>
                    </mask>
                    <g id="Clip-132"></g>
                    <polygon id="Fill-131" fill="#27D798" mask="url(#mask-18)" points="-21.329 51.134 28.783 51.134 28.783 -21.74 -21.329 -21.74"></polygon>
                </g>
                <g id="Group-136" transform="translate(91.000000, 158.520000)">
                    <mask id="mask-20" fill="white">
                        <use xlink:href="#path-19"></use>
                    </mask>
                    <g id="Clip-135"></g>
                    <polygon id="Fill-134" fill="#27D798" mask="url(#mask-20)" points="-21.861 69.219 28.596 69.219 28.596 -21.154 -21.861 -21.154"></polygon>
                </g>
                <g id="Group-139" transform="translate(132.000000, 158.520000)">
                    <mask id="mask-22" fill="white">
                        <use xlink:href="#path-21"></use>
                    </mask>
                    <g id="Clip-138"></g>
                    <polygon id="Fill-137" fill="#27D798" mask="url(#mask-22)" points="-21.027 38.027 29.084 38.027 29.084 -21.353 -21.027 -21.353"></polygon>
                </g>
                <g id="Group-142" transform="translate(146.000000, 158.520000)">
                    <mask id="mask-24" fill="white">
                        <use xlink:href="#path-23"></use>
                    </mask>
                    <g id="Clip-141"></g>
                    <polygon id="Fill-140" fill="#27D798" mask="url(#mask-24)" points="-21.329 30.361 28.783 30.361 28.783 -21.353 -21.329 -21.353"></polygon>
                </g>
                <g id="Group-145" transform="translate(104.000000, 158.520000)">
                    <mask id="mask-26" fill="white">
                        <use xlink:href="#path-25"></use>
                    </mask>
                    <g id="Clip-144"></g>
                    <polygon id="Fill-143" fill="#27D798" mask="url(#mask-26)" points="-21.068 60.872 29.389 60.872 29.389 -21.154 -21.068 -21.154"></polygon>
                </g>
                <g id="Group-148" transform="translate(118.000000, 158.520000)">
                    <mask id="mask-28" fill="white">
                        <use xlink:href="#path-27"></use>
                    </mask>
                    <g id="Clip-147"></g>
                    <polygon id="Fill-146" fill="#27D798" mask="url(#mask-28)" points="-21.286 47.09 29.17 47.09 29.17 -21.154 -21.286 -21.154"></polygon>
                </g>
                <g id="Group-151" transform="translate(160.000000, 108.520000)">
                    <mask id="mask-30" fill="white">
                        <use xlink:href="#path-29"></use>
                    </mask>
                    <g id="Clip-150"></g>
                    <polygon id="Fill-149" fill="#27D798" mask="url(#mask-30)" points="-21.641 66.48 28.471 66.48 28.471 -21.802 -21.641 -21.802"></polygon>
                </g>
                <g id="Group-154" transform="translate(173.000000, 108.520000)">
                    <mask id="mask-32" fill="white">
                        <use xlink:href="#path-31"></use>
                    </mask>
                    <g id="Clip-153"></g>
                    <polygon id="Fill-152" fill="#27D798" mask="url(#mask-32)" points="-20.943 59.352 29.168 59.352 29.168 -21.801 -20.943 -21.801"></polygon>
                </g>
                <g id="Group-157" transform="translate(91.000000, 107.520000)">
                    <mask id="mask-34" fill="white">
                        <use xlink:href="#path-33"></use>
                    </mask>
                    <g id="Clip-156"></g>
                    <polygon id="Fill-155" fill="#27D798" mask="url(#mask-34)" points="-21.71 36.492 35.799 36.492 35.799 -21.017 -21.71 -21.017"></polygon>
                </g>
                <g id="Group-160" transform="translate(91.000000, 128.520000)">
                    <mask id="mask-36" fill="white">
                        <use xlink:href="#path-35"></use>
                    </mask>
                    <g id="Clip-159"></g>
                    <polygon id="Fill-158" fill="#577FA1" mask="url(#mask-36)" points="-20.952 45.316 82.622 45.316 82.622 -21.443 -20.952 -21.443"></polygon>
                </g>
                <polygon id="Fill-161" fill="#0A3347" points="274.6116 159.0254 277.4966 158.5574 277.4966 137.2234 274.6756 136.9494 274.6756 135.3714 283.4256 135.3714 283.4256 136.9494 280.6386 137.2404 280.6386 158.5414 283.5706 159.0254 283.5706 160.3944 274.6116 160.3944"></polygon>
                <g id="Group-224" transform="translate(0.000000, 133.520000)">
                    <path d="M286.4485,25.5054 L288.6395,25.1504 L288.6395,12.0504 L286.3515,10.7934 L286.3515,9.7944 L290.6375,8.5214 L291.3635,8.8434 L291.3635,11.1484 C291.7175,10.8364 292.1465,10.5274 292.6525,10.2214 C293.1565,9.9154 293.6965,9.6394 294.2715,9.3924 C294.8455,9.1454 295.4335,8.9434 296.0355,8.7874 C296.6365,8.6314 297.2125,8.5434 297.7605,8.5214 C298.9205,8.4794 299.8575,8.6314 300.5715,8.9814 C301.2865,9.3294 301.8425,9.9394 302.2395,10.8104 C302.6265,10.5194 303.0825,10.2404 303.6095,9.9724 C304.1355,9.7034 304.6885,9.4644 305.2685,9.2544 C305.8485,9.0454 306.4335,8.8764 307.0255,8.7474 C307.6155,8.6184 308.1695,8.5434 308.6845,8.5214 C309.6835,8.4894 310.5265,8.6124 311.2155,8.8924 C311.9015,9.1714 312.4555,9.6224 312.8745,10.2454 C313.2935,10.8684 313.5945,11.6744 313.7765,12.6624 C313.9595,13.6514 314.0515,14.8374 314.0515,16.2244 L314.0515,25.1664 L316.7735,25.5054 L316.7735,26.8744 L308.7655,26.8744 L308.7655,25.5054 L310.9575,25.1664 L310.9575,16.7874 C310.9575,15.7564 310.9085,14.8614 310.8115,14.1054 C310.7155,13.3474 310.5245,12.7244 310.2395,12.2354 C309.9555,11.7464 309.5595,11.3904 309.0545,11.1634 C308.5505,10.9394 307.8895,10.8414 307.0735,10.8744 C306.3435,10.9054 305.6175,11.0434 304.8985,11.2844 C304.1775,11.5264 303.4695,11.8464 302.7715,12.2434 C302.8885,12.7594 302.9805,13.3474 303.0455,14.0084 C303.1095,14.6684 303.1415,15.3534 303.1415,16.0624 L303.1415,25.1834 L305.6075,25.5054 L305.6075,26.8744 L297.6315,26.8744 L297.6315,25.5054 L300.0485,25.1504 L300.0485,16.5294 C300.0485,15.5094 299.9975,14.6344 299.8945,13.9034 C299.7935,13.1734 299.5965,12.5764 299.3065,12.1144 C299.0165,11.6524 298.6165,11.3224 298.1065,11.1234 C297.5955,10.9254 296.9325,10.8414 296.1165,10.8744 C295.5365,10.9054 294.8735,11.0544 294.1265,11.3174 C293.3805,11.5804 292.5975,11.9914 291.7815,12.5504 L291.7815,15.4984 C291.7815,17.1204 291.7765,18.7324 291.7655,20.3324 C291.7555,21.9334 291.7555,23.5444 291.7655,25.1664 L294.1665,25.5054 L294.1665,26.8744 L286.4485,26.8744 L286.4485,25.5054 Z" id="Fill-162" fill="#0A3347"></path>
                    <path d="M321.6165,21.7505 C321.6165,22.3845 321.7025,22.9215 321.8745,23.3615 C322.0465,23.8025 322.2965,24.1595 322.6235,24.4335 C322.9515,24.7075 323.3505,24.9055 323.8235,25.0295 C324.2965,25.1525 324.8285,25.2145 325.4195,25.2145 C325.7415,25.2145 326.0685,25.1725 326.4015,25.0855 C326.7345,25.0005 327.0545,24.8925 327.3605,24.7635 C327.6675,24.6345 327.9515,24.4865 328.2155,24.3205 C328.4775,24.1535 328.6905,23.9895 328.8505,23.8295 C328.8505,22.8195 328.8535,21.8175 328.8595,20.8235 C328.8645,19.8305 328.8725,18.8285 328.8845,17.8185 C328.4325,17.8185 327.9375,17.8435 327.4015,17.8915 C326.8635,17.9395 326.3265,18.0225 325.7905,18.1415 C325.2525,18.2595 324.7315,18.4155 324.2265,18.6085 C323.7215,18.8025 323.2765,19.0465 322.8895,19.3415 C322.5035,19.6375 322.1935,19.9835 321.9635,20.3805 C321.7315,20.7785 321.6165,21.2345 321.6165,21.7505 M318.4905,21.6865 C318.5655,20.9345 318.8065,20.2755 319.2165,19.7125 C319.6235,19.1475 320.1285,18.6625 320.7295,18.2535 C321.3315,17.8465 322.0005,17.5075 322.7365,17.2385 C323.4715,16.9705 324.2105,16.7555 324.9525,16.5945 C325.6925,16.4335 326.4075,16.3195 327.0955,16.2555 C327.7825,16.1905 328.3785,16.1595 328.8845,16.1595 L328.8845,14.7575 C328.8845,13.9085 328.7705,13.2185 328.5455,12.6875 C328.3195,12.1545 328.0085,11.7385 327.6105,11.4375 C327.2135,11.1375 326.7455,10.9335 326.2085,10.8255 C325.6715,10.7185 325.0915,10.6645 324.4685,10.6645 C324.1565,10.6645 323.8075,10.6935 323.4215,10.7535 C323.0345,10.8125 322.6345,10.8965 322.2205,11.0035 C321.8065,11.1105 321.3905,11.2395 320.9715,11.3905 C320.5535,11.5405 320.1555,11.7065 319.7795,11.8895 L319.1825,10.4385 C319.5805,10.1165 320.0665,9.8345 320.6415,9.5935 C321.2165,9.3515 321.8065,9.1495 322.4145,8.9885 C323.0205,8.8275 323.6115,8.7095 324.1865,8.6345 C324.7615,8.5595 325.2525,8.5215 325.6615,8.5215 C326.5095,8.5215 327.3175,8.6095 328.0865,8.7875 C328.8535,8.9645 329.5285,9.2755 330.1085,9.7225 C330.6885,10.1675 331.1475,10.7695 331.4855,11.5265 C331.8245,12.2835 331.9935,13.2485 331.9935,14.4195 L331.9615,25.5055 L334.0235,25.5055 L334.0235,26.5675 C333.6475,26.7725 333.1825,26.9385 332.6305,27.0675 C332.0765,27.1965 331.5205,27.2615 330.9625,27.2615 C330.7685,27.2615 330.5595,27.2475 330.3335,27.2215 C330.1085,27.1935 329.9015,27.1265 329.7135,27.0195 C329.5255,26.9115 329.3695,26.7455 329.2465,26.5205 C329.1225,26.2945 329.0605,25.9825 329.0605,25.5855 L329.0605,25.1345 C328.8135,25.4355 328.5205,25.7145 328.1825,25.9725 C327.8445,26.2295 327.4575,26.4555 327.0225,26.6485 C326.5875,26.8425 326.0935,26.9925 325.5405,27.1005 C324.9865,27.2075 324.3725,27.2615 323.6945,27.2615 C322.8565,27.2615 322.0965,27.1105 321.4155,26.8105 C320.7325,26.5095 320.1635,26.1045 319.7075,25.5935 C319.2505,25.0835 318.9125,24.4925 318.6915,23.8205 C318.4715,23.1495 318.4045,22.4375 318.4905,21.6865" id="Fill-164" fill="#0A3347"></path>
                    <path d="M336.2727,25.5054 L338.4637,25.1834 L338.4637,12.0504 L336.1757,10.7934 L336.1757,9.7944 L340.4617,8.5214 L341.1877,8.8434 L341.1877,11.1484 C341.5517,10.8364 341.9927,10.5274 342.5077,10.2214 C343.0237,9.9154 343.5727,9.6394 344.1527,9.3924 C344.7327,9.1454 345.3287,8.9434 345.9407,8.7874 C346.5527,8.6314 347.1327,8.5434 347.6807,8.5214 C348.6797,8.4894 349.5177,8.6094 350.1947,8.8844 C350.8717,9.1574 351.4187,9.6044 351.8377,10.2214 C352.2567,10.8394 352.5577,11.6314 352.7407,12.5984 C352.9227,13.5654 353.0137,14.7254 353.0137,16.0784 L353.0137,25.1834 L355.6087,25.5054 L355.6087,26.8744 L347.4877,26.8744 L347.4877,25.5054 L349.9197,25.1664 L349.9197,16.6424 C349.9197,15.6654 349.8727,14.8064 349.7757,14.0644 C349.6787,13.3234 349.4887,12.7104 349.2037,12.2284 C348.9187,11.7434 348.5237,11.3904 348.0197,11.1634 C347.5137,10.9394 346.8537,10.8414 346.0377,10.8744 C345.3717,10.9054 344.6687,11.0544 343.9257,11.3174 C343.1857,11.5804 342.4067,11.9914 341.5897,12.5504 L341.5897,25.1664 L343.9907,25.5054 L343.9907,26.8744 L336.2727,26.8744 L336.2727,25.5054 Z" id="Fill-166" fill="#0A3347"></path>
                    <path d="M365.4465,25.0542 C365.7905,25.0542 366.1095,25.0342 366.4055,24.9972 C366.7005,24.9592 366.9765,24.9082 367.2345,24.8442 C367.7605,24.7152 368.2125,24.5432 368.5885,24.3282 C368.9645,24.1142 369.2755,23.8832 369.5235,23.6362 L369.5235,11.3092 C369.4045,11.1692 369.2595,11.0252 369.0885,10.8742 C368.9165,10.7242 368.6935,10.5832 368.4195,10.4542 C368.1455,10.3252 367.8175,10.2212 367.4365,10.1412 C367.0545,10.0602 366.6065,10.0202 366.0915,10.0202 C365.6825,10.0202 365.2585,10.0712 364.8185,10.1732 C364.3775,10.2752 363.9425,10.4452 363.5125,10.6812 C363.0835,10.9172 362.6755,11.2232 362.2885,11.5992 C361.9015,11.9752 361.5575,12.4342 361.2575,12.9772 C360.9565,13.5192 360.7145,14.1532 360.5315,14.8782 C360.3485,15.6032 360.2525,16.4332 360.2425,17.3672 C360.2195,18.6892 360.3545,19.8332 360.6445,20.8002 C360.9345,21.7672 361.3245,22.5642 361.8125,23.1932 C362.3015,23.8212 362.8625,24.2882 363.4965,24.5942 C364.1305,24.9012 364.7805,25.0542 365.4465,25.0542 M364.2055,27.2612 C363.3025,27.2612 362.4275,27.0812 361.5795,26.7212 C360.7305,26.3622 359.9815,25.8082 359.3315,25.0622 C358.6815,24.3152 358.1575,23.3692 357.7595,22.2262 C357.3625,21.0812 357.1645,19.7262 357.1645,18.1582 C357.1645,16.7182 357.4065,15.3942 357.8885,14.1852 C358.3735,12.9772 359.0335,11.9372 359.8715,11.0682 C360.7095,10.1972 361.6945,9.5182 362.8285,9.0292 C363.9615,8.5402 365.1775,8.2962 366.4775,8.2962 C367.0475,8.2962 367.5995,8.3332 368.1365,8.4082 C368.6745,8.4842 369.1365,8.5852 369.5235,8.7142 L369.5235,3.3492 L366.0915,2.7692 L366.0915,1.3672 L371.8915,0.6912 L372.6175,1.0612 L372.6175,25.5052 L374.7925,25.5052 L374.7925,26.7132 C374.6095,26.8102 374.3815,26.9012 374.1075,26.9882 C373.8335,27.0732 373.5435,27.1482 373.2375,27.2122 C372.9305,27.2772 372.6195,27.3252 372.3025,27.3582 C371.9855,27.3902 371.6875,27.4062 371.4085,27.4062 C371.2155,27.4062 371.0135,27.3932 370.8035,27.3662 C370.5945,27.3392 370.4035,27.2722 370.2325,27.1642 C370.0595,27.0572 369.9185,26.8902 369.8045,26.6652 C369.6925,26.4392 369.6355,26.1282 369.6355,25.7302 L369.6355,25.3272 C369.4745,25.5102 369.2385,25.7142 368.9265,25.9402 C368.6155,26.1652 368.2285,26.3742 367.7665,26.5682 C367.3045,26.7612 366.7755,26.9252 366.1795,27.0602 C365.5835,27.1942 364.9255,27.2612 364.2055,27.2612" id="Fill-168" fill="#0A3347"></path>
                    <path d="M376.8157,25.5054 L379.4257,25.1664 L379.4257,12.0504 L377.1377,10.7934 L377.1377,9.7944 L381.3917,8.5214 L382.1497,8.8434 L382.1497,11.3254 C382.3527,11.0254 382.6627,10.7074 383.0757,10.3744 C383.4897,10.0414 383.9547,9.7374 384.4697,9.4644 C384.9857,9.1904 385.5217,8.9644 386.0817,8.7874 C386.6387,8.6094 387.1657,8.5214 387.6597,8.5214 C388.0147,8.5214 388.3347,8.5294 388.6187,8.5454 C388.9037,8.5624 389.1047,8.5914 389.2227,8.6344 L389.2227,11.9374 C389.0507,11.8724 388.8737,11.8064 388.6907,11.7354 C388.5077,11.6664 388.3067,11.6074 388.0867,11.5594 C387.8667,11.5104 387.6167,11.4704 387.3367,11.4384 C387.0577,11.4054 386.7357,11.3904 386.3707,11.3904 C385.5017,11.3904 384.7697,11.4994 384.1787,11.7204 C383.5877,11.9404 383.0457,12.2064 382.5517,12.5174 L382.5517,25.1184 L387.1437,25.5054 L387.1437,26.8744 L376.8157,26.8744 L376.8157,25.5054 Z" id="Fill-170" fill="#0A3347"></path>
                    <path d="M393.9202,21.7505 C393.9202,22.3845 394.0062,22.9215 394.1782,23.3615 C394.3502,23.8025 394.6002,24.1595 394.9272,24.4335 C395.2552,24.7075 395.6542,24.9055 396.1272,25.0295 C396.6002,25.1525 397.1322,25.2145 397.7232,25.2145 C398.0452,25.2145 398.3722,25.1725 398.7052,25.0855 C399.0382,25.0005 399.3582,24.8925 399.6642,24.7635 C399.9712,24.6345 400.2552,24.4865 400.5192,24.3205 C400.7812,24.1535 400.9942,23.9895 401.1542,23.8295 C401.1542,22.8195 401.1572,21.8175 401.1632,20.8235 C401.1682,19.8305 401.1762,18.8285 401.1882,17.8185 C400.7362,17.8185 400.2412,17.8435 399.7052,17.8915 C399.1672,17.9395 398.6302,18.0225 398.0942,18.1415 C397.5562,18.2595 397.0352,18.4155 396.5302,18.6085 C396.0252,18.8025 395.5802,19.0465 395.1932,19.3415 C394.8072,19.6375 394.4972,19.9835 394.2672,20.3805 C394.0352,20.7785 393.9202,21.2345 393.9202,21.7505 M390.7942,21.6865 C390.8692,20.9345 391.1102,20.2755 391.5202,19.7125 C391.9272,19.1475 392.4322,18.6625 393.0332,18.2535 C393.6352,17.8465 394.3042,17.5075 395.0402,17.2385 C395.7752,16.9705 396.5142,16.7555 397.2562,16.5945 C397.9962,16.4335 398.7112,16.3195 399.3992,16.2555 C400.0862,16.1905 400.6822,16.1595 401.1882,16.1595 L401.1882,14.7575 C401.1882,13.9085 401.0742,13.2185 400.8492,12.6875 C400.6232,12.1545 400.3122,11.7385 399.9142,11.4375 C399.5172,11.1375 399.0492,10.9335 398.5122,10.8255 C397.9752,10.7185 397.3952,10.6645 396.7722,10.6645 C396.4602,10.6645 396.1112,10.6935 395.7252,10.7535 C395.3382,10.8125 394.9382,10.8965 394.5242,11.0035 C394.1102,11.1105 393.6942,11.2395 393.2752,11.3905 C392.8572,11.5405 392.4592,11.7065 392.0832,11.8895 L391.4862,10.4385 C391.8842,10.1165 392.3702,9.8345 392.9452,9.5935 C393.5202,9.3515 394.1102,9.1495 394.7182,8.9885 C395.3242,8.8275 395.9152,8.7095 396.4902,8.6345 C397.0652,8.5595 397.5562,8.5215 397.9652,8.5215 C398.8132,8.5215 399.6212,8.6095 400.3902,8.7875 C401.1572,8.9645 401.8322,9.2755 402.4122,9.7225 C402.9922,10.1675 403.4512,10.7695 403.7892,11.5265 C404.1282,12.2835 404.2972,13.2485 404.2972,14.4195 L404.2652,25.5055 L406.3272,25.5055 L406.3272,26.5675 C405.9512,26.7725 405.4862,26.9385 404.9342,27.0675 C404.3802,27.1965 403.8242,27.2615 403.2662,27.2615 C403.0722,27.2615 402.8632,27.2475 402.6372,27.2215 C402.4122,27.1935 402.2052,27.1265 402.0172,27.0195 C401.8292,26.9115 401.6732,26.7455 401.5502,26.5205 C401.4262,26.2945 401.3642,25.9825 401.3642,25.5855 L401.3642,25.1345 C401.1172,25.4355 400.8242,25.7145 400.4862,25.9725 C400.1482,26.2295 399.7612,26.4555 399.3262,26.6485 C398.8912,26.8425 398.3972,26.9925 397.8442,27.1005 C397.2902,27.2075 396.6762,27.2615 395.9982,27.2615 C395.1602,27.2615 394.4002,27.1105 393.7192,26.8105 C393.0362,26.5095 392.4672,26.1045 392.0112,25.5935 C391.5542,25.0835 391.2162,24.4925 390.9952,23.8205 C390.7752,23.1495 390.7082,22.4375 390.7942,21.6865" id="Fill-172" fill="#0A3347"></path>
                    <polygon id="Fill-174" fill="#0A3347" points="415.4661 25.5054 418.2221 25.0374 418.2221 3.7034 415.5631 3.4294 415.5631 1.8514 432.8681 1.8514 433.1751 6.4434 431.5641 6.4754 430.8211 3.8494 421.3471 3.6224 421.3471 13.2264 428.4371 13.0814 429.0811 10.7454 430.6611 10.7454 430.6611 17.5134 428.8721 17.5134 428.4531 15.0794 421.3471 14.9504 421.3471 25.0214 426.0041 25.3434 426.0041 26.8744 415.4661 26.8744"></polygon>
                    <polygon id="Fill-176" fill="#0A3347" points="434.4397 25.5054 437.3247 25.0374 437.3247 3.7034 434.5037 3.4294 434.5037 1.8514 443.2537 1.8514 443.2537 3.4294 440.4667 3.7204 440.4667 25.0214 443.3987 25.5054 443.3987 26.8744 434.4397 26.8744"></polygon>
                    <polygon id="Fill-178" fill="#0A3347" points="444.2952 25.5054 447.1472 25.0374 454.0432 14.2904 447.2752 3.7034 444.8752 3.4294 444.8752 1.8514 453.9142 1.8514 453.9142 3.4294 451.0632 3.7034 456.1062 12.3884 461.0842 3.7034 458.6042 3.4294 458.6042 1.8514 466.2892 1.8514 466.2892 3.4294 463.9692 3.6874 457.2662 13.6614 464.3562 25.0214 467.0142 25.5054 467.0142 26.8744 457.7492 26.8744 457.7492 25.5054 460.7462 25.0374 455.1072 15.8684 450.0472 25.0214 453.1412 25.5054 453.1412 26.8744 444.2952 26.8744"></polygon>
                    <polygon id="Fill-180" fill="#0A3347" points="475.0247 25.5054 477.7487 25.0214 477.7487 3.7204 475.0887 3.4294 475.0887 1.8514 491.8147 1.8514 492.2817 6.4584 490.5097 6.4584 489.7677 3.7514 480.8737 3.5424 480.8737 12.9374 486.8677 12.8234 487.3517 10.2944 488.9947 10.2944 488.9947 17.2224 487.3517 17.2224 486.8677 14.7574 480.8737 14.6604 480.8737 25.1344 490.4457 24.8274 492.0567 21.4924 493.6197 21.8794 492.8947 26.8744 475.0247 26.8744"></polygon>
                    <path d="M495.8684,25.5054 L498.0594,25.1834 L498.0594,12.0504 L495.7714,10.7934 L495.7714,9.7944 L500.0574,8.5214 L500.7834,8.8434 L500.7834,11.1484 C501.1474,10.8364 501.5884,10.5274 502.1034,10.2214 C502.6194,9.9154 503.1684,9.6394 503.7484,9.3924 C504.3284,9.1454 504.9244,8.9434 505.5364,8.7874 C506.1484,8.6314 506.7284,8.5434 507.2764,8.5214 C508.2754,8.4894 509.1134,8.6094 509.7904,8.8844 C510.4674,9.1574 511.0144,9.6044 511.4334,10.2214 C511.8524,10.8394 512.1534,11.6314 512.3364,12.5984 C512.5184,13.5654 512.6094,14.7254 512.6094,16.0784 L512.6094,25.1834 L515.2044,25.5054 L515.2044,26.8744 L507.0834,26.8744 L507.0834,25.5054 L509.5154,25.1664 L509.5154,16.6424 C509.5154,15.6654 509.4684,14.8064 509.3714,14.0644 C509.2744,13.3234 509.0844,12.7104 508.7994,12.2284 C508.5144,11.7434 508.1194,11.3904 507.6154,11.1634 C507.1094,10.9394 506.4494,10.8414 505.6334,10.8744 C504.9674,10.9054 504.2644,11.0544 503.5214,11.3174 C502.7814,11.5804 502.0024,11.9914 501.1854,12.5504 L501.1854,25.1664 L503.5864,25.5054 L503.5864,26.8744 L495.8684,26.8744 L495.8684,25.5054 Z" id="Fill-182" fill="#0A3347"></path>
                    <path d="M524.9299,19.0112 C525.5949,19.0112 526.1589,18.9202 526.6209,18.7382 C527.0829,18.5552 527.4559,18.2782 527.7419,17.9072 C528.0259,17.5362 528.2329,17.0742 528.3619,16.5222 C528.4909,15.9682 528.5549,15.3222 528.5549,14.5792 C528.5549,12.9802 528.2109,11.7922 527.5239,11.0192 C526.8359,10.2452 525.8049,9.8592 524.4299,9.8592 C523.8929,9.8592 523.3909,9.9292 522.9229,10.0682 C522.4559,10.2082 522.0479,10.4422 521.6989,10.7692 C521.3499,11.0972 521.0759,11.5322 520.8769,12.0742 C520.6779,12.6162 520.5779,13.2962 520.5779,14.1132 C520.5779,14.7792 520.6589,15.4092 520.8209,16.0062 C520.9819,16.6022 521.2369,17.1232 521.5859,17.5692 C521.9349,18.0152 522.3859,18.3662 522.9399,18.6242 C523.4929,18.8822 524.1569,19.0112 524.9299,19.0112 M520.1919,29.5972 C520.1919,30.3282 520.3309,30.9492 520.6119,31.4592 C520.8899,31.9692 521.2659,32.3832 521.7389,32.7002 C522.2109,33.0162 522.7589,33.2482 523.3829,33.3922 C524.0049,33.5382 524.6659,33.6102 525.3649,33.6102 C526.2349,33.6102 527.0159,33.5382 527.7089,33.3922 C528.4019,33.2482 528.9909,33.0302 529.4729,32.7402 C529.9569,32.4502 530.3269,32.0822 530.5849,31.6362 C530.8429,31.1902 530.9719,30.6672 530.9719,30.0652 C530.9719,29.5502 530.9119,29.0912 530.7949,28.6872 C530.6759,28.2842 530.4459,27.9432 530.1019,27.6632 C529.7579,27.3842 529.2779,27.1722 528.6589,27.0282 C528.0419,26.8822 527.2339,26.8102 526.2349,26.8102 L524.2039,26.7782 C523.5709,26.7782 523.0039,26.7592 522.5039,26.7212 C522.0049,26.6842 521.5559,26.6322 521.1589,26.5682 C521.0299,26.7192 520.9089,26.8882 520.7959,27.0752 C520.6839,27.2642 520.5809,27.4792 520.4909,27.7202 C520.3989,27.9622 520.3259,28.2362 520.2729,28.5432 C520.2189,28.8482 520.1919,29.2002 520.1919,29.5972 M517.1959,30.6292 C517.1959,30.1352 517.2839,29.6622 517.4609,29.2112 C517.6379,28.7602 517.8609,28.3462 518.1289,27.9702 C518.3979,27.5942 518.6909,27.2582 519.0079,26.9632 C519.3249,26.6672 519.6279,26.4292 519.9179,26.2452 C519.4349,26.0742 519.0699,25.8752 518.8229,25.6502 C518.5759,25.4242 518.4009,25.1882 518.2989,24.9412 C518.1969,24.6942 518.1399,24.4412 518.1289,24.1832 C518.1179,23.9252 518.1139,23.6842 518.1139,23.4582 C518.1139,23.2652 518.1569,23.0132 518.2429,22.7002 C518.3279,22.3902 518.4539,22.0562 518.6209,21.7022 C518.7869,21.3472 518.9969,20.9882 519.2489,20.6222 C519.5019,20.2572 519.7889,19.9292 520.1119,19.6402 C519.3059,19.1562 518.6689,18.5092 518.2019,17.6982 C517.7349,16.8872 517.5009,15.8962 517.5009,14.7252 C517.5009,13.6182 517.7129,12.6572 518.1379,11.8412 C518.5619,11.0252 519.1199,10.3482 519.8139,9.8102 C520.5059,9.2742 521.2929,8.8702 522.1739,8.6022 C523.0549,8.3332 523.9469,8.1892 524.8489,8.1672 C525.7619,8.1462 526.6179,8.2402 527.4189,8.4482 C528.2189,8.6582 528.9259,8.9942 529.5369,9.4562 C529.7519,9.2092 530.0669,9.0072 530.4809,8.8522 C530.8939,8.6962 531.4449,8.6182 532.1319,8.6182 L534.0819,8.6182 L534.0819,11.0512 L530.9239,11.0512 C531.1489,11.4592 531.3239,11.9212 531.4479,12.4372 C531.5709,12.9522 531.6329,13.5172 531.6329,14.1282 C531.6329,15.1932 531.4369,16.1352 531.0439,16.9562 C530.6529,17.7792 530.1259,18.4692 529.4649,19.0272 C528.8049,19.5862 528.0419,20.0102 527.1769,20.3002 C526.3129,20.5902 525.4079,20.7362 524.4619,20.7362 C523.1949,20.7362 522.0609,20.5362 521.0629,20.1392 C520.9979,20.3112 520.9519,20.4962 520.9249,20.6952 C520.8989,20.8942 520.8819,21.0872 520.8769,21.2752 C520.8709,21.4632 520.8709,21.6402 520.8769,21.8072 C520.8819,21.9732 520.8849,22.1112 520.8849,22.2182 C520.8849,22.7982 521.0379,23.2492 521.3439,23.5722 C521.6509,23.8942 522.1849,24.0872 522.9479,24.1522 C523.4309,24.1952 524.0109,24.2182 524.6879,24.2242 C525.3649,24.2292 526.1699,24.2322 527.1049,24.2322 C528.1039,24.2322 528.9569,24.3102 529.6659,24.4652 C530.3749,24.6212 530.9639,24.8272 531.4309,25.0852 C531.8989,25.3432 532.2659,25.6452 532.5349,25.9882 C532.8029,26.3322 533.0069,26.6922 533.1469,27.0682 C533.2859,27.4442 533.3729,27.8232 533.4049,28.2032 C533.4379,28.5862 533.4529,28.9482 533.4529,29.2922 C533.4529,30.2162 533.2599,31.0532 532.8729,31.8052 C532.4869,32.5572 531.9309,33.2022 531.2049,33.7392 C530.4809,34.2762 529.5939,34.6922 528.5469,34.9882 C527.4989,35.2832 526.3099,35.4312 524.9779,35.4312 C524.0109,35.4312 523.0629,35.3552 522.1339,35.2052 C521.2039,35.0542 520.3739,34.7952 519.6449,34.4242 C518.9129,34.0532 518.3229,33.5592 517.8709,32.9412 C517.4199,32.3242 517.1959,31.5532 517.1959,30.6292" id="Fill-184" fill="#0A3347"></path>
                    <path d="M538.9084,4.7183 C538.6504,4.7183 538.3984,4.6733 538.1514,4.5813 C537.9044,4.4903 537.6864,4.3623 537.4994,4.1953 C537.3104,4.0293 537.1604,3.8223 537.0484,3.5743 C536.9344,3.3273 536.8794,3.0483 536.8794,2.7373 C536.8794,2.4043 536.9514,2.0923 537.0964,1.8023 C537.2414,1.5123 537.4264,1.2623 537.6524,1.0533 C537.8774,0.8433 538.1334,0.6803 538.4174,0.5623 C538.7024,0.4443 538.9894,0.3843 539.2794,0.3843 C539.9884,0.3843 540.5074,0.5803 540.8344,0.9723 C541.1624,1.3643 541.3264,1.8343 541.3264,2.3823 C541.3264,2.7373 541.2564,3.0593 541.1164,3.3493 C540.9764,3.6393 540.7944,3.8833 540.5684,4.0823 C540.3434,4.2813 540.0854,4.4373 539.7954,4.5493 C539.5054,4.6623 539.2094,4.7183 538.9084,4.7183 L538.9084,4.7183 Z M535.3474,25.5053 L538.0874,25.1663 L538.0874,11.9703 L535.8634,10.7933 L535.8634,9.7943 L540.3264,8.5213 L541.0524,8.8433 L541.0524,25.1663 L543.6624,25.5053 L543.6624,26.8743 L535.3474,26.8743 L535.3474,25.5053 Z" id="Fill-186" fill="#0A3347"></path>
                    <path d="M545.7815,25.5054 L547.9725,25.1834 L547.9725,12.0504 L545.6845,10.7934 L545.6845,9.7944 L549.9705,8.5214 L550.6965,8.8434 L550.6965,11.1484 C551.0605,10.8364 551.5015,10.5274 552.0165,10.2214 C552.5325,9.9154 553.0815,9.6394 553.6615,9.3924 C554.2415,9.1454 554.8375,8.9434 555.4495,8.7874 C556.0615,8.6314 556.6415,8.5434 557.1895,8.5214 C558.1885,8.4894 559.0265,8.6094 559.7035,8.8844 C560.3805,9.1574 560.9275,9.6044 561.3465,10.2214 C561.7655,10.8394 562.0665,11.6314 562.2495,12.5984 C562.4315,13.5654 562.5225,14.7254 562.5225,16.0784 L562.5225,25.1834 L565.1175,25.5054 L565.1175,26.8744 L556.9965,26.8744 L556.9965,25.5054 L559.4285,25.1664 L559.4285,16.6424 C559.4285,15.6654 559.3815,14.8064 559.2845,14.0644 C559.1875,13.3234 558.9975,12.7104 558.7125,12.2284 C558.4275,11.7434 558.0325,11.3904 557.5285,11.1634 C557.0225,10.9394 556.3625,10.8414 555.5465,10.8744 C554.8805,10.9054 554.1775,11.0544 553.4345,11.3174 C552.6945,11.5804 551.9155,11.9914 551.0985,12.5504 L551.0985,25.1664 L553.4995,25.5054 L553.4995,26.8744 L545.7815,26.8744 L545.7815,25.5054 Z" id="Fill-188" fill="#0A3347"></path>
                    <path d="M578.5979,16.1909 C578.6299,15.6439 578.6379,15.0929 578.6219,14.5399 C578.6059,13.9869 578.5379,13.4609 578.4199,12.9609 C578.3019,12.4619 578.1219,12.0039 577.8809,11.5909 C577.6389,11.1769 577.3139,10.8409 576.9069,10.5839 C576.6259,10.4019 576.3099,10.2639 575.9549,10.1729 C575.6009,10.0819 575.1979,10.0369 574.7459,10.0369 C574.1449,10.0369 573.5629,10.1489 572.9979,10.3749 C572.4349,10.5999 571.9299,10.9609 571.4839,11.4549 C571.0379,11.9489 570.6639,12.5849 570.3639,13.3639 C570.0629,14.1419 569.8689,15.0859 569.7839,16.1909 L578.5979,16.1909 Z M566.6739,17.9159 C566.6739,16.5409 566.8919,15.2729 567.3269,14.1129 C567.7619,12.9529 568.3689,11.9489 569.1479,11.0989 C569.9259,10.2519 570.8639,9.5829 571.9589,9.0929 C573.0549,8.6049 574.2639,8.3439 575.5839,8.3119 C576.5299,8.2909 577.3839,8.4269 578.1469,8.7229 C578.9099,9.0179 579.5589,9.4569 580.0959,10.0369 C580.6329,10.6169 581.0549,11.3259 581.3619,12.1639 C581.6669,13.0019 581.8419,13.9519 581.8849,15.0149 C581.9069,15.6919 581.8929,16.2779 581.8449,16.7709 C581.7959,17.2659 581.7449,17.7069 581.6919,18.0929 L569.7519,18.0929 L569.7519,18.2779 C569.7519,18.3369 569.7569,18.3989 569.7679,18.4629 C569.8109,19.7629 570.0309,20.8369 570.4279,21.6859 C570.8259,22.5349 571.3229,23.2089 571.9189,23.7089 C572.5149,24.2079 573.1729,24.5569 573.8929,24.7549 C574.6129,24.9549 575.3159,25.0539 576.0039,25.0539 C576.4219,25.0539 576.8629,25.0299 577.3249,24.9809 C577.7859,24.9329 578.2359,24.8629 578.6699,24.7719 C579.1059,24.6799 579.5079,24.5759 579.8789,24.4579 C580.2489,24.3389 580.5469,24.2159 580.7739,24.0869 L581.3689,25.4569 C581.0579,25.7359 580.6529,25.9879 580.1529,26.2139 C579.6539,26.4389 579.1079,26.6299 578.5179,26.7859 C577.9259,26.9419 577.3089,27.0599 576.6639,27.1399 C576.0199,27.2209 575.3909,27.2609 574.7799,27.2609 C573.4789,27.2609 572.3269,27.0389 571.3229,26.5919 C570.3189,26.1469 569.4719,25.5179 568.7849,24.7079 C568.0969,23.8959 567.5739,22.9169 567.2139,21.7669 C566.8539,20.6179 566.6739,19.3339 566.6739,17.9159 L566.6739,17.9159 Z" id="Fill-190" fill="#0A3347"></path>
                    <path d="M280.4934,64.3477 C281.1804,64.5407 281.8894,64.6777 282.6204,64.7587 C283.3504,64.8387 284.1354,64.8687 284.9724,64.8477 C286.1544,64.8147 287.2794,64.5787 288.3484,64.1387 C289.4174,63.6987 290.3594,63.0397 291.1764,62.1637 C291.9924,61.2887 292.6394,60.1827 293.1184,58.8447 C293.5964,57.5077 293.8354,55.9257 293.8354,54.0997 C293.8354,52.1987 293.6064,50.5467 293.1504,49.1447 C292.6934,47.7437 292.0414,46.5827 291.1924,45.6637 C290.3444,44.7457 289.3124,44.0667 288.0984,43.6257 C286.8854,43.1857 285.5254,42.9877 284.0214,43.0297 C283.5814,43.0407 283.1944,43.0567 282.8614,43.0777 C282.5284,43.0997 282.2274,43.1207 281.9594,43.1427 C281.6904,43.1637 281.4414,43.1937 281.2104,43.2317 C280.9794,43.2687 280.7404,43.3097 280.4934,43.3517 L280.4934,64.3477 Z M274.6284,65.1057 L277.3514,64.6207 L277.3514,43.3207 L274.6924,43.0297 L274.6924,41.4517 L278.9304,41.4517 C279.6494,41.4517 280.2724,41.4407 280.7994,41.4177 C281.3254,41.3977 281.8144,41.3697 282.2654,41.3377 C282.7174,41.3057 283.1574,41.2797 283.5874,41.2577 C284.0164,41.2367 284.4834,41.2247 284.9884,41.2247 C287.0724,41.2147 288.8774,41.4857 290.4024,42.0387 C291.9284,42.5917 293.1904,43.3927 294.1894,44.4397 C295.1884,45.4877 295.9304,46.7577 296.4134,48.2497 C296.8964,49.7437 297.1394,51.4307 297.1394,53.3107 C297.1394,55.4267 296.8104,57.3177 296.1554,58.9827 C295.5004,60.6477 294.6004,62.0547 293.4564,63.2027 C292.3124,64.3537 290.9644,65.2237 289.4124,65.8147 C287.8594,66.4057 286.1914,66.6787 284.4084,66.6357 C283.6134,66.6147 282.7784,66.5787 281.9034,66.5317 C281.0274,66.4827 280.0534,66.4587 278.9784,66.4587 C278.2484,66.4587 277.5224,66.4607 276.8034,66.4667 C276.0834,66.4717 275.3584,66.4747 274.6284,66.4747 L274.6284,65.1057 Z" id="Fill-192" fill="#0A3347"></path>
                    <path d="M307.5735,65.0566 C308.4855,65.0776 309.2575,64.9226 309.8855,64.5896 C310.5135,64.2566 311.0235,63.7646 311.4165,63.1156 C311.8075,62.4646 312.0935,61.6596 312.2695,60.6986 C312.4475,59.7366 312.5365,58.6326 312.5365,57.3866 C312.5365,56.3016 312.4415,55.2886 312.2545,54.3496 C312.0655,53.4096 311.7705,52.5906 311.3675,51.8926 C310.9655,51.1946 310.4545,50.6436 309.8375,50.2406 C309.2195,49.8376 308.4855,49.6256 307.6375,49.6036 C306.7235,49.5936 305.9485,49.7516 305.3085,50.0786 C304.6705,50.4076 304.1455,50.8876 303.7375,51.5216 C303.3295,52.1556 303.0315,52.9286 302.8445,53.8416 C302.6555,54.7546 302.5615,55.7906 302.5615,56.9516 C302.5615,57.9946 302.6635,58.9976 302.8685,59.9646 C303.0715,60.9316 303.3785,61.7876 303.7865,62.5356 C304.1945,63.2816 304.7135,63.8826 305.3415,64.3396 C305.9695,64.7956 306.7135,65.0356 307.5735,65.0566 M299.2595,57.0966 C299.2795,55.6576 299.5295,54.3706 300.0085,53.2376 C300.4855,52.1046 301.1165,51.1456 301.9015,50.3616 C302.6845,49.5776 303.5905,48.9756 304.6165,48.5566 C305.6415,48.1376 306.7135,47.9226 307.8315,47.9116 C309.1945,47.9016 310.3825,48.1376 311.3915,48.6206 C312.4015,49.1046 313.2365,49.7676 313.8975,50.6116 C314.5575,51.4536 315.0505,52.4456 315.3725,53.5836 C315.6945,54.7226 315.8495,55.9426 315.8395,57.2426 C315.8285,58.6706 315.5995,59.9756 315.1545,61.1576 C314.7085,62.3386 314.1065,63.3516 313.3495,64.1946 C312.5925,65.0376 311.7065,65.6936 310.6905,66.1606 C309.6765,66.6276 308.5885,66.8616 307.4275,66.8616 C305.9455,66.8616 304.6825,66.5926 303.6415,66.0556 C302.5985,65.5186 301.7505,64.7986 301.0945,63.8966 C300.4395,62.9936 299.9655,61.9546 299.6695,60.7786 C299.3745,59.6026 299.2365,58.3746 299.2595,57.0966" id="Fill-194" fill="#0A3347"></path>
                    <path d="M318.135,57.8057 C318.124,56.3237 318.345,54.9867 318.796,53.7927 C319.247,52.6017 319.867,51.5807 320.657,50.7327 C321.447,49.8837 322.376,49.2227 323.445,48.7497 C324.514,48.2777 325.665,48.0147 326.901,47.9607 C327.352,47.9507 327.812,47.9577 328.279,47.9847 C328.746,48.0117 329.187,48.0597 329.6,48.1297 C330.014,48.1997 330.392,48.2877 330.737,48.3957 C331.079,48.5027 331.359,48.6267 331.574,48.7657 L331.574,52.6327 L330.043,52.6327 L329.221,50.6037 C329.049,50.4637 328.851,50.3457 328.625,50.2477 C328.4,50.1527 328.168,50.0717 327.932,50.0067 C327.696,49.9427 327.459,49.8967 327.223,49.8697 C326.987,49.8427 326.772,49.8297 326.578,49.8297 C325.859,49.8297 325.171,49.9637 324.516,50.2327 C323.861,50.5007 323.281,50.9067 322.776,51.4497 C322.271,51.9917 321.868,52.6737 321.568,53.4947 C321.267,54.3177 321.111,55.2817 321.1,56.3877 C321.089,57.8487 321.262,59.1007 321.615,60.1427 C321.971,61.1847 322.432,62.0347 323.002,62.6967 C323.571,63.3567 324.204,63.8397 324.903,64.1467 C325.601,64.4517 326.289,64.6057 326.965,64.6057 C327.385,64.6057 327.82,64.5787 328.271,64.5257 C328.722,64.4717 329.156,64.4017 329.576,64.3157 C329.994,64.2297 330.381,64.1247 330.737,64.0007 C331.09,63.8777 331.381,63.7517 331.606,63.6227 L332.155,65.0567 C331.842,65.3357 331.455,65.5827 330.994,65.7977 C330.531,66.0127 330.025,66.1957 329.471,66.3457 C328.918,66.4957 328.338,66.6117 327.731,66.6927 C327.124,66.7727 326.514,66.8127 325.903,66.8127 C324.656,66.8127 323.555,66.5877 322.599,66.1367 C321.643,65.6857 320.834,65.0567 320.174,64.2507 C319.513,63.4457 319.011,62.4927 318.667,61.3907 C318.323,60.2897 318.146,59.0947 318.135,57.8057" id="Fill-196" fill="#0A3347"></path>
                    <path d="M335.7405,50.7324 L334.0815,50.2484 L334.0815,49.0074 L338.2215,48.1214 L338.7865,48.4124 L338.7865,59.5134 C338.7865,60.4054 338.8345,61.1704 338.9305,61.8094 C339.0275,62.4494 339.2045,62.9754 339.4625,63.3884 C339.7195,63.8024 340.0755,64.1084 340.5265,64.3074 C340.9775,64.5054 341.5575,64.6054 342.2665,64.6054 C342.7495,64.6054 343.2245,64.5384 343.6925,64.4044 C344.1595,64.2694 344.5945,64.1084 344.9975,63.9204 C345.4005,63.7324 345.7525,63.5344 346.0535,63.3244 C346.3535,63.1154 346.5735,62.9354 346.7145,62.7854 L346.7145,50.8774 L344.6995,50.3614 L344.6995,49.0404 L349.3075,48.1214 L349.7595,48.3954 L349.7595,65.1054 L351.6925,65.1054 L351.6925,66.3304 C351.5315,66.4164 351.3325,66.4994 351.0965,66.5794 C350.8595,66.6604 350.6045,66.7324 350.3315,66.7964 C350.0565,66.8614 349.7775,66.9154 349.4935,66.9584 C349.2085,67.0014 348.9365,67.0224 348.6785,67.0224 C348.1635,67.0224 347.7585,66.9124 347.4635,66.6924 C347.1675,66.4714 347.0195,66.1204 347.0195,65.6364 L347.0195,64.3154 C346.0855,65.1314 345.1045,65.7524 344.0795,66.1764 C343.0525,66.6004 342.0515,66.8124 341.0735,66.8124 C339.8055,66.8124 338.8175,66.6174 338.1085,66.2244 C337.3995,65.8334 336.8715,65.2904 336.5215,64.5974 C336.1735,63.9044 335.9585,63.0864 335.8775,62.1404 C335.7975,61.1954 335.7515,60.1644 335.7405,59.0464 L335.7405,50.7324 Z" id="Fill-198" fill="#0A3347"></path>
                    <path d="M354.344,65.1055 L356.535,64.7505 L356.535,51.6505 L354.247,50.3935 L354.247,49.3945 L358.533,48.1215 L359.259,48.4435 L359.259,50.7485 C359.613,50.4365 360.042,50.1275 360.548,49.8215 C361.052,49.5155 361.592,49.2395 362.167,48.9925 C362.741,48.7455 363.329,48.5435 363.931,48.3875 C364.532,48.2315 365.108,48.1435 365.656,48.1215 C366.816,48.0795 367.753,48.2315 368.467,48.5815 C369.182,48.9295 369.738,49.5395 370.135,50.4105 C370.522,50.1195 370.978,49.8405 371.505,49.5725 C372.031,49.3035 372.584,49.0645 373.164,48.8545 C373.744,48.6455 374.329,48.4765 374.921,48.3475 C375.511,48.2185 376.065,48.1435 376.58,48.1215 C377.579,48.0895 378.422,48.2125 379.111,48.4925 C379.797,48.7715 380.351,49.2225 380.77,49.8455 C381.189,50.4685 381.49,51.2745 381.672,52.2625 C381.855,53.2515 381.947,54.4375 381.947,55.8245 L381.947,64.7665 L384.669,65.1055 L384.669,66.4745 L376.661,66.4745 L376.661,65.1055 L378.853,64.7665 L378.853,56.3875 C378.853,55.3565 378.804,54.4615 378.707,53.7055 C378.611,52.9475 378.42,52.3245 378.135,51.8355 C377.851,51.3465 377.455,50.9905 376.95,50.7635 C376.446,50.5395 375.785,50.4415 374.969,50.4745 C374.239,50.5055 373.513,50.6435 372.794,50.8845 C372.073,51.1265 371.365,51.4465 370.667,51.8435 C370.784,52.3595 370.876,52.9475 370.941,53.6085 C371.005,54.2685 371.037,54.9535 371.037,55.6625 L371.037,64.7835 L373.503,65.1055 L373.503,66.4745 L365.527,66.4745 L365.527,65.1055 L367.944,64.7505 L367.944,56.1295 C367.944,55.1095 367.893,54.2345 367.79,53.5035 C367.689,52.7735 367.492,52.1765 367.202,51.7145 C366.912,51.2525 366.512,50.9225 366.002,50.7235 C365.491,50.5255 364.828,50.4415 364.012,50.4745 C363.432,50.5055 362.769,50.6545 362.022,50.9175 C361.276,51.1805 360.493,51.5915 359.677,52.1505 L359.677,55.0985 C359.677,56.7205 359.672,58.3325 359.661,59.9325 C359.651,61.5335 359.651,63.1445 359.661,64.7665 L362.062,65.1055 L362.062,66.4745 L354.344,66.4745 L354.344,65.1055 Z" id="Fill-200" fill="#0A3347"></path>
                    <path d="M398.0208,55.791 C398.0528,55.244 398.0608,54.693 398.0448,54.14 C398.0288,53.587 397.9608,53.061 397.8428,52.561 C397.7248,52.062 397.5448,51.604 397.3038,51.191 C397.0618,50.777 396.7368,50.441 396.3298,50.184 C396.0488,50.002 395.7328,49.864 395.3778,49.773 C395.0238,49.682 394.6208,49.637 394.1688,49.637 C393.5678,49.637 392.9858,49.749 392.4208,49.975 C391.8578,50.2 391.3528,50.561 390.9068,51.055 C390.4608,51.549 390.0868,52.185 389.7868,52.964 C389.4858,53.742 389.2918,54.686 389.2068,55.791 L398.0208,55.791 Z M386.0968,57.516 C386.0968,56.141 386.3148,54.873 386.7498,53.713 C387.1848,52.553 387.7918,51.549 388.5708,50.699 C389.3488,49.852 390.2868,49.183 391.3818,48.693 C392.4778,48.205 393.6868,47.944 395.0068,47.912 C395.9528,47.891 396.8068,48.027 397.5698,48.323 C398.3328,48.618 398.9818,49.057 399.5188,49.637 C400.0558,50.217 400.4778,50.926 400.7848,51.764 C401.0898,52.602 401.2648,53.552 401.3078,54.615 C401.3298,55.292 401.3158,55.878 401.2678,56.371 C401.2188,56.866 401.1678,57.307 401.1148,57.693 L389.1748,57.693 L389.1748,57.878 C389.1748,57.937 389.1798,57.999 389.1908,58.063 C389.2338,59.363 389.4538,60.437 389.8508,61.286 C390.2488,62.135 390.7458,62.809 391.3418,63.309 C391.9378,63.808 392.5958,64.157 393.3158,64.355 C394.0358,64.555 394.7388,64.654 395.4268,64.654 C395.8448,64.654 396.2858,64.63 396.7478,64.581 C397.2088,64.533 397.6588,64.463 398.0928,64.372 C398.5288,64.28 398.9308,64.176 399.3018,64.058 C399.6718,63.939 399.9698,63.816 400.1968,63.687 L400.7918,65.057 C400.4808,65.336 400.0758,65.588 399.5758,65.814 C399.0768,66.039 398.5308,66.23 397.9408,66.386 C397.3488,66.542 396.7318,66.66 396.0868,66.74 C395.4428,66.821 394.8138,66.861 394.2028,66.861 C392.9018,66.861 391.7498,66.639 390.7458,66.192 C389.7418,65.747 388.8948,65.118 388.2078,64.308 C387.5198,63.496 386.9968,62.517 386.6368,61.367 C386.2768,60.218 386.0968,58.934 386.0968,57.516 L386.0968,57.516 Z" id="Fill-202" fill="#0A3347"></path>
                    <path d="M404.1682,65.1055 L406.3592,64.7835 L406.3592,51.6505 L404.0712,50.3935 L404.0712,49.3945 L408.3572,48.1215 L409.0832,48.4435 L409.0832,50.7485 C409.4472,50.4365 409.8882,50.1275 410.4032,49.8215 C410.9192,49.5155 411.4682,49.2395 412.0482,48.9925 C412.6282,48.7455 413.2242,48.5435 413.8362,48.3875 C414.4482,48.2315 415.0282,48.1435 415.5762,48.1215 C416.5752,48.0895 417.4132,48.2095 418.0902,48.4845 C418.7672,48.7575 419.3142,49.2045 419.7332,49.8215 C420.1522,50.4395 420.4532,51.2315 420.6362,52.1985 C420.8182,53.1655 420.9092,54.3255 420.9092,55.6785 L420.9092,64.7835 L423.5042,65.1055 L423.5042,66.4745 L415.3832,66.4745 L415.3832,65.1055 L417.8152,64.7665 L417.8152,56.2425 C417.8152,55.2655 417.7682,54.4065 417.6712,53.6645 C417.5742,52.9235 417.3842,52.3105 417.0992,51.8285 C416.8142,51.3435 416.4192,50.9905 415.9152,50.7635 C415.4092,50.5395 414.7492,50.4415 413.9332,50.4745 C413.2672,50.5055 412.5642,50.6545 411.8212,50.9175 C411.0812,51.1805 410.3022,51.5915 409.4852,52.1505 L409.4852,64.7665 L411.8862,65.1055 L411.8862,66.4745 L404.1682,66.4745 L404.1682,65.1055 Z" id="Fill-204" fill="#0A3347"></path>
                    <path d="M427.7034,62.2529 C427.7034,60.2759 427.7064,58.3139 427.7114,56.3629 C427.7174,54.4139 427.7194,52.4509 427.7194,50.4749 L425.2544,50.4749 L425.2544,49.2659 C425.7264,49.1479 426.1214,49.0539 426.4384,48.9829 C426.7554,48.9139 427.0184,48.8329 427.2274,48.7419 C427.4374,48.6499 427.6114,48.5349 427.7524,48.3959 C427.8904,48.2559 428.0194,48.0519 428.1394,47.7829 C428.2134,47.6009 428.3074,47.3319 428.4204,46.9779 C428.5334,46.6229 428.6404,46.2609 428.7424,45.8899 C428.8454,45.5199 428.9324,45.1699 429.0084,44.8429 C429.0834,44.5149 429.1324,44.2809 429.1534,44.1419 L430.7484,44.1419 L430.7484,48.4429 L436.1624,48.4429 L436.1624,50.4749 L430.7484,50.4749 L430.7484,58.5959 C430.7484,59.8419 430.7654,60.8539 430.7974,61.6329 C430.8294,62.4109 430.9104,63.0219 431.0394,63.4609 C431.1684,63.9019 431.3554,64.1999 431.6024,64.3559 C431.8494,64.5119 432.1934,64.5899 432.6344,64.5899 C432.9024,64.5899 433.2004,64.5629 433.5284,64.5089 C433.8554,64.4549 434.1734,64.3909 434.4784,64.3159 C434.7854,64.2399 435.0664,64.1569 435.3244,64.0649 C435.5824,63.9749 435.7754,63.8859 435.9044,63.7999 L436.4044,65.2179 C436.1574,65.4859 435.8294,65.7229 435.4224,65.9269 C435.0134,66.1309 434.5704,66.3029 434.0924,66.4419 C433.6144,66.5819 433.1364,66.6869 432.6584,66.7569 C432.1804,66.8259 431.7584,66.8609 431.3924,66.8609 C430.2224,66.8609 429.3144,66.5009 428.6704,65.7809 C428.0254,65.0629 427.7034,63.8859 427.7034,62.2529" id="Fill-206" fill="#0A3347"></path>
                    <path d="M441.3762,61.3506 C441.3762,61.9846 441.4622,62.5216 441.6342,62.9616 C441.8062,63.4026 442.0562,63.7596 442.3832,64.0336 C442.7112,64.3076 443.1102,64.5056 443.5832,64.6296 C444.0562,64.7526 444.5882,64.8146 445.1792,64.8146 C445.5012,64.8146 445.8282,64.7726 446.1612,64.6856 C446.4942,64.6006 446.8142,64.4926 447.1202,64.3636 C447.4272,64.2346 447.7112,64.0866 447.9752,63.9206 C448.2372,63.7536 448.4502,63.5896 448.6102,63.4296 C448.6102,62.4196 448.6132,61.4176 448.6192,60.4236 C448.6242,59.4306 448.6322,58.4286 448.6442,57.4186 C448.1922,57.4186 447.6972,57.4436 447.1612,57.4916 C446.6232,57.5396 446.0862,57.6226 445.5502,57.7416 C445.0122,57.8596 444.4912,58.0156 443.9862,58.2086 C443.4812,58.4026 443.0362,58.6466 442.6492,58.9416 C442.2632,59.2376 441.9532,59.5836 441.7232,59.9806 C441.4912,60.3786 441.3762,60.8346 441.3762,61.3506 M438.2502,61.2866 C438.3252,60.5346 438.5662,59.8756 438.9762,59.3126 C439.3832,58.7476 439.8882,58.2626 440.4892,57.8536 C441.0912,57.4466 441.7602,57.1076 442.4962,56.8386 C443.2312,56.5706 443.9702,56.3556 444.7122,56.1946 C445.4522,56.0336 446.1672,55.9196 446.8552,55.8556 C447.5422,55.7906 448.1382,55.7596 448.6442,55.7596 L448.6442,54.3576 C448.6442,53.5086 448.5302,52.8186 448.3052,52.2876 C448.0792,51.7546 447.7682,51.3386 447.3702,51.0376 C446.9732,50.7376 446.5052,50.5336 445.9682,50.4256 C445.4312,50.3186 444.8512,50.2646 444.2282,50.2646 C443.9162,50.2646 443.5672,50.2936 443.1812,50.3536 C442.7942,50.4126 442.3942,50.4966 441.9802,50.6036 C441.5662,50.7106 441.1502,50.8396 440.7312,50.9906 C440.3132,51.1406 439.9152,51.3066 439.5392,51.4896 L438.9422,50.0386 C439.3402,49.7166 439.8262,49.4346 440.4012,49.1936 C440.9762,48.9516 441.5662,48.7496 442.1742,48.5886 C442.7802,48.4276 443.3712,48.3096 443.9462,48.2346 C444.5212,48.1596 445.0122,48.1216 445.4212,48.1216 C446.2692,48.1216 447.0772,48.2096 447.8462,48.3876 C448.6132,48.5646 449.2882,48.8756 449.8682,49.3226 C450.4482,49.7676 450.9072,50.3696 451.2452,51.1266 C451.5842,51.8836 451.7532,52.8486 451.7532,54.0196 L451.7212,65.1056 L453.7832,65.1056 L453.7832,66.1676 C453.4072,66.3726 452.9422,66.5386 452.3902,66.6676 C451.8362,66.7966 451.2802,66.8616 450.7222,66.8616 C450.5282,66.8616 450.3192,66.8476 450.0932,66.8216 C449.8682,66.7936 449.6612,66.7266 449.4732,66.6196 C449.2852,66.5116 449.1292,66.3456 449.0062,66.1206 C448.8822,65.8946 448.8202,65.5826 448.8202,65.1856 L448.8202,64.7346 C448.5732,65.0356 448.2802,65.3146 447.9422,65.5726 C447.6042,65.8296 447.2172,66.0556 446.7822,66.2486 C446.3472,66.4426 445.8532,66.5926 445.3002,66.7006 C444.7462,66.8076 444.1322,66.8616 443.4542,66.8616 C442.6162,66.8616 441.8562,66.7106 441.1752,66.4106 C440.4922,66.1096 439.9232,65.7046 439.4672,65.1936 C439.0102,64.6836 438.6722,64.0926 438.4512,63.4206 C438.2312,62.7496 438.1642,62.0376 438.2502,61.2866" id="Fill-208" fill="#0A3347"></path>
                    <path d="M458.0627,62.2529 C458.0627,60.2759 458.0657,58.3139 458.0707,56.3629 C458.0767,54.4139 458.0787,52.4509 458.0787,50.4749 L455.6137,50.4749 L455.6137,49.2659 C456.0857,49.1479 456.4807,49.0539 456.7977,48.9829 C457.1147,48.9139 457.3777,48.8329 457.5867,48.7419 C457.7967,48.6499 457.9707,48.5349 458.1117,48.3959 C458.2497,48.2559 458.3787,48.0519 458.4987,47.7829 C458.5727,47.6009 458.6667,47.3319 458.7797,46.9779 C458.8927,46.6229 458.9997,46.2609 459.1017,45.8899 C459.2047,45.5199 459.2917,45.1699 459.3677,44.8429 C459.4427,44.5149 459.4917,44.2809 459.5127,44.1419 L461.1077,44.1419 L461.1077,48.4429 L466.5217,48.4429 L466.5217,50.4749 L461.1077,50.4749 L461.1077,58.5959 C461.1077,59.8419 461.1247,60.8539 461.1567,61.6329 C461.1887,62.4109 461.2697,63.0219 461.3987,63.4609 C461.5277,63.9019 461.7147,64.1999 461.9617,64.3559 C462.2087,64.5119 462.5527,64.5899 462.9937,64.5899 C463.2617,64.5899 463.5597,64.5629 463.8877,64.5089 C464.2147,64.4549 464.5327,64.3909 464.8377,64.3159 C465.1447,64.2399 465.4257,64.1569 465.6837,64.0649 C465.9417,63.9749 466.1347,63.8859 466.2637,63.7999 L466.7637,65.2179 C466.5167,65.4859 466.1887,65.7229 465.7817,65.9269 C465.3727,66.1309 464.9297,66.3029 464.4517,66.4419 C463.9737,66.5819 463.4957,66.6869 463.0177,66.7569 C462.5397,66.8259 462.1177,66.8609 461.7517,66.8609 C460.5817,66.8609 459.6737,66.5009 459.0297,65.7809 C458.3847,65.0629 458.0627,63.8859 458.0627,62.2529" id="Fill-210" fill="#0A3347"></path>
                    <path d="M472.0735,44.3184 C471.8155,44.3184 471.5635,44.2734 471.3165,44.1814 C471.0695,44.0904 470.8515,43.9624 470.6645,43.7954 C470.4755,43.6294 470.3255,43.4224 470.2135,43.1744 C470.0995,42.9274 470.0445,42.6484 470.0445,42.3374 C470.0445,42.0044 470.1165,41.6924 470.2615,41.4024 C470.4065,41.1124 470.5915,40.8624 470.8175,40.6534 C471.0425,40.4434 471.2985,40.2804 471.5825,40.1624 C471.8675,40.0444 472.1545,39.9844 472.4445,39.9844 C473.1535,39.9844 473.6725,40.1804 473.9995,40.5724 C474.3275,40.9644 474.4915,41.4344 474.4915,41.9824 C474.4915,42.3374 474.4215,42.6594 474.2815,42.9494 C474.1415,43.2394 473.9595,43.4834 473.7335,43.6824 C473.5085,43.8814 473.2505,44.0374 472.9605,44.1494 C472.6705,44.2624 472.3745,44.3184 472.0735,44.3184 L472.0735,44.3184 Z M468.5125,65.1054 L471.2525,64.7664 L471.2525,51.5704 L469.0285,50.3934 L469.0285,49.3944 L473.4915,48.1214 L474.2175,48.4434 L474.2175,64.7664 L476.8275,65.1054 L476.8275,66.4744 L468.5125,66.4744 L468.5125,65.1054 Z" id="Fill-212" fill="#0A3347"></path>
                    <path d="M486.6985,65.0566 C487.6105,65.0776 488.3825,64.9226 489.0105,64.5896 C489.6385,64.2566 490.1485,63.7646 490.5415,63.1156 C490.9325,62.4646 491.2185,61.6596 491.3945,60.6986 C491.5725,59.7366 491.6615,58.6326 491.6615,57.3866 C491.6615,56.3016 491.5665,55.2886 491.3795,54.3496 C491.1905,53.4096 490.8955,52.5906 490.4925,51.8926 C490.0905,51.1946 489.5795,50.6436 488.9625,50.2406 C488.3445,49.8376 487.6105,49.6256 486.7625,49.6036 C485.8485,49.5936 485.0735,49.7516 484.4335,50.0786 C483.7955,50.4076 483.2705,50.8876 482.8625,51.5216 C482.4545,52.1556 482.1565,52.9286 481.9695,53.8416 C481.7805,54.7546 481.6865,55.7906 481.6865,56.9516 C481.6865,57.9946 481.7885,58.9976 481.9935,59.9646 C482.1965,60.9316 482.5035,61.7876 482.9115,62.5356 C483.3195,63.2816 483.8385,63.8826 484.4665,64.3396 C485.0945,64.7956 485.8385,65.0356 486.6985,65.0566 M478.3845,57.0966 C478.4045,55.6576 478.6545,54.3706 479.1335,53.2376 C479.6105,52.1046 480.2415,51.1456 481.0265,50.3616 C481.8095,49.5776 482.7155,48.9756 483.7415,48.5566 C484.7665,48.1376 485.8385,47.9226 486.9565,47.9116 C488.3195,47.9016 489.5075,48.1376 490.5165,48.6206 C491.5265,49.1046 492.3615,49.7676 493.0225,50.6116 C493.6825,51.4536 494.1755,52.4456 494.4975,53.5836 C494.8195,54.7226 494.9745,55.9426 494.9645,57.2426 C494.9535,58.6706 494.7245,59.9756 494.2795,61.1576 C493.8335,62.3386 493.2315,63.3516 492.4745,64.1946 C491.7175,65.0376 490.8315,65.6936 489.8155,66.1606 C488.8015,66.6276 487.7135,66.8616 486.5525,66.8616 C485.0705,66.8616 483.8075,66.5926 482.7665,66.0556 C481.7235,65.5186 480.8755,64.7986 480.2195,63.8966 C479.5645,62.9936 479.0905,61.9546 478.7945,60.7786 C478.4995,59.6026 478.3615,58.3746 478.3845,57.0966" id="Fill-214" fill="#0A3347"></path>
                    <path d="M497.7922,65.1055 L499.9832,64.7835 L499.9832,51.6505 L497.6952,50.3935 L497.6952,49.3945 L501.9812,48.1215 L502.7072,48.4435 L502.7072,50.7485 C503.0712,50.4365 503.5122,50.1275 504.0272,49.8215 C504.5432,49.5155 505.0922,49.2395 505.6722,48.9925 C506.2522,48.7455 506.8482,48.5435 507.4602,48.3875 C508.0722,48.2315 508.6522,48.1435 509.2002,48.1215 C510.1992,48.0895 511.0372,48.2095 511.7142,48.4845 C512.3912,48.7575 512.9382,49.2045 513.3572,49.8215 C513.7762,50.4395 514.0772,51.2315 514.2602,52.1985 C514.4422,53.1655 514.5332,54.3255 514.5332,55.6785 L514.5332,64.7835 L517.1282,65.1055 L517.1282,66.4745 L509.0072,66.4745 L509.0072,65.1055 L511.4392,64.7665 L511.4392,56.2425 C511.4392,55.2655 511.3922,54.4065 511.2952,53.6645 C511.1982,52.9235 511.0082,52.3105 510.7232,51.8285 C510.4382,51.3435 510.0432,50.9905 509.5392,50.7635 C509.0332,50.5395 508.3732,50.4415 507.5572,50.4745 C506.8912,50.5055 506.1882,50.6545 505.4452,50.9175 C504.7052,51.1805 503.9262,51.5915 503.1092,52.1505 L503.1092,64.7665 L505.5102,65.1055 L505.5102,66.4745 L497.7922,66.4745 L497.7922,65.1055 Z" id="Fill-216" fill="#0A3347"></path>
                    <polyline id="Stroke-218" stroke="#979797" stroke-linecap="square" points="0.9714 27.7178 5.9724 31.1928 0.9714 35.3698"></polyline>
                    <polyline id="Stroke-220" stroke="#979797" stroke-linecap="square" points="696.0667 27.1958 701.0677 30.6698 696.0667 34.8488"></polyline>
                    <path d="M700.3772,30.8262 L692.5232,30.8262" id="Stroke-222" stroke="#979797" stroke-linecap="square"></path>
                </g>
            </g>
        </g>
    </g>
</svg>