<?xml version="1.0" encoding="UTF-8"?>
<svg width="447px" height="86px" viewBox="0 0 447 86" version="1.1" xmlns="http://www.w3.org/2000/svg" xmlns:xlink="http://www.w3.org/1999/xlink">
    <!-- Generator: Sketch 48.2 (47327) - http://www.bohemiancoding.com/sketch -->
    <title>Group 2 Copy</title>
    <desc>Created with Sketch.</desc>
    <defs></defs>
    <g id="Page-1" stroke="none" stroke-width="1" fill="none" fill-rule="evenodd">
        <g id="Group-2-Copy" transform="translate(-0.250000, -4.000000)">
            <text id="Imandra-Fix-Engine-D" font-family="MerriweatherSans-Light, Merriweather Sans" font-size="38" font-weight="300" line-spacing="41" fill="#405267">
                <tspan x="96" y="37.5761719">Imandra Fix Engine </tspan>
                <tspan x="96" y="78.5761719">Documentation</tspan>
            </text>
            <g id="imandrafix" transform="translate(0.000000, 6.500000)">
                <g id="Group">
                    <rect id="Rectangle-path" fill="#21D8AF" fill-rule="nonzero" x="0.717369247" y="71.6944802" width="4.32479247" height="11.5230064" rx="2.16239623"></rect>
                    <rect id="Rectangle-path" fill="#21D8AF" fill-rule="nonzero" x="28.7185679" y="51.2726636" width="4.32479247" height="19.6741406" rx="2.16239623"></rect>
                    <rect id="Rectangle-path" fill="#21D8AF" fill-rule="nonzero" x="10.0559889" y="66.0502595" width="4.32479247" height="12.1020888" rx="2.16239623"></rect>
                    <rect id="Rectangle-path" fill="#21D8AF" fill-rule="nonzero" x="19.3872784" y="56.8289224" width="4.32479247" height="9.06007371" rx="2.16239623"></rect>
                    <rect id="Rectangle-path" fill="#21D8AF" fill-rule="nonzero" x="47.3884771" y="35.8206932" width="4.32479247" height="26.2639515" rx="2.16239623"></rect>
                    <rect id="Rectangle-path" fill="#21D8AF" fill-rule="nonzero" x="56.7270968" y="31.3566278" width="4.32479247" height="40.8289729" rx="2.16239623"></rect>
                    <rect id="Rectangle-path" fill="#21D8AF" fill-rule="nonzero" x="38.0571876" y="46.0462618" width="4.32479247" height="19.8427342" rx="2.16239623"></rect>
                    <rect id="Rectangle-path" fill="#21D8AF" fill-rule="nonzero" x="0.717369247" y="35.4028743" width="4.32479247" height="31.3510803" rx="2.16239623"></rect>
                    <rect id="Rectangle-path" fill="#21D8AF" fill-rule="nonzero" x="28.7185679" y="35.4028743" width="4.32479247" height="10.6433876" rx="2.16239623"></rect>
                    <rect id="Rectangle-path" fill="#21D8AF" fill-rule="nonzero" x="38.0571876" y="35.4028743" width="4.32479247" height="5.41698582" rx="2.16239623"></rect>
                    <rect id="Rectangle-path" fill="#21D8AF" fill-rule="nonzero" x="10.0559889" y="35.4028743" width="4.32479247" height="25.6995295" rx="2.16239623"></rect>
                    <rect id="Rectangle-path" fill="#21D8AF" fill-rule="nonzero" x="19.3872784" y="35.4028743" width="4.32479247" height="16.36824" rx="2.16239623"></rect>
                    <rect id="Rectangle-path" fill="#21D8AF" fill-rule="nonzero" x="47.3884771" y="1.00977892" width="4.32479247" height="30.3468488" rx="2.16239623"></rect>
                    <rect id="Rectangle-path" fill="#21D8AF" fill-rule="nonzero" x="56.7270968" y="1.00977892" width="4.32479247" height="25.4869549" rx="2.16239623"></rect>
                    <path d="M35.1177947,10.2311161 C37.70468,10.2311161 39.8017649,8.13403121 39.8017649,5.54714593 C39.8017649,2.96026065 37.70468,0.863175785 35.1177947,0.863175785 C32.5309095,0.863175785 30.4338246,2.96026065 30.4338246,5.54714593 C30.4338246,8.13403121 32.5309095,10.2311161 35.1177947,10.2311161" id="Shape" fill="#21D8AF"></path>
                    <path d="M4.98597177,10.2311161 C7.57285705,10.2311161 9.66994192,8.13403121 9.66994192,5.54714593 C9.66994192,2.96026065 7.57285705,0.863175785 4.98597177,0.863175785 C2.39908649,0.863175785 0.302001625,2.96026065 0.302001625,5.54714593 C0.302001625,8.13403121 2.39908649,10.2311161 4.98597177,10.2311161" id="Shape-Copy" fill="#21D8AF"></path>
                    <rect id="Rectangle-path" fill="#21D8AF" fill-rule="nonzero" transform="translate(19.972928, 5.544048) rotate(-0.190000) translate(-19.972928, -5.544048) " x="17.7885415" y="0.0317703" width="4.36877341" height="11.0245557" rx="2.1843867"></rect>
                    <path d="M0.986511834,30.3954324 C0.874555212,30.2834757 0.81857774,30.1528616 0.81857774,30.0035861 L0.81857774,15.4716893 C0.81857774,15.3074862 0.87082338,15.1694085 0.975316228,15.0574518 C1.07980907,14.9454952 1.21415501,14.8895177 1.37835805,14.8895177 L11.7902718,14.8895177 C11.9544749,14.8895177 12.0925526,14.9454952 12.2045093,15.0574518 C12.3164659,15.1694085 12.3724434,15.3074862 12.3724434,15.4716893 L12.3724434,17.8451578 C12.3724434,18.0093608 12.3164659,18.1437068 12.2045093,18.2481996 C12.0925526,18.3526925 11.9544749,18.4049381 11.7902718,18.4049381 L4.93856083,18.4049381 L4.93856083,21.5173166 L11.3424476,21.5173166 C11.5066506,21.5173166 11.6447284,21.5732941 11.756685,21.6852507 C11.8686416,21.7972073 11.9246191,21.9352851 11.9246191,22.0994882 L11.9246191,24.4729567 C11.9246191,24.6371597 11.8686416,24.7715057 11.756685,24.8759985 C11.6447284,24.9804913 11.5066506,25.032737 11.3424476,25.032737 L4.93856083,25.032737 L4.93856083,30.0035861 C4.93856083,30.1528616 4.88631519,30.2834757 4.78182234,30.3954324 C4.6773295,30.507389 4.54298357,30.5633665 4.37878052,30.5633665 L1.37835805,30.5633665 C1.22908256,30.5633665 1.09846846,30.507389 0.986511834,30.3954324 Z M17.7225276,30.3954324 C17.610571,30.2834757 17.5545935,30.1528616 17.5545935,30.0035861 L17.5545935,15.4492981 C17.5545935,15.285095 17.610571,15.1507491 17.7225276,15.0462562 C17.8344842,14.9417634 17.9650983,14.8895177 18.1143738,14.8895177 L21.3163172,14.8895177 C21.4805202,14.8895177 21.6148662,14.9417634 21.719359,15.0462562 C21.8238519,15.1507491 21.8760975,15.285095 21.8760975,15.4492981 L21.8760975,30.0035861 C21.8760975,30.1528616 21.8238519,30.2834757 21.719359,30.3954324 C21.6148662,30.507389 21.4805202,30.5633665 21.3163172,30.5633665 L18.1143738,30.5633665 C17.9650983,30.5633665 17.8344842,30.507389 17.7225276,30.3954324 Z M26.5992278,30.4178236 C26.5021987,30.3207945 26.4536849,30.2125714 26.4536849,30.093151 C26.4536849,30.0035857 26.4760759,29.9140217 26.5208586,29.8244564 L31.4021429,22.5697036 L26.9015092,15.6284278 C26.8567265,15.5388625 26.8343355,15.4492985 26.8343355,15.3597332 C26.8343355,15.2403128 26.8828493,15.1320897 26.9798784,15.0350606 C27.0769075,14.9380316 27.1851306,14.8895177 27.304551,14.8895177 L30.7304065,14.8895177 C31.0588126,14.8895177 31.3275044,15.0537183 31.5364901,15.3821244 L34.0666972,19.2781954 L36.686469,15.3821244 C36.8954547,15.0537183 37.1566829,14.8895177 37.4701614,14.8895177 L40.7392785,14.8895177 C40.8586989,14.8895177 40.966922,14.9380316 41.063951,15.0350606 C41.1609801,15.1320897 41.2094939,15.2403128 41.2094939,15.3597332 C41.2094939,15.4492985 41.1871029,15.5388625 41.1423203,15.6284278 L36.5969042,22.5249212 L41.5229709,29.8244564 C41.5677535,29.9140217 41.5901445,30.0035857 41.5901445,30.093151 C41.5901445,30.2125714 41.5416307,30.3207945 41.4446017,30.4178236 C41.3475726,30.5148527 41.2393495,30.5633665 41.1199291,30.5633665 L37.5821175,30.5633665 C37.2537114,30.5633665 36.9924832,30.4140932 36.7984251,30.1155422 L33.9323499,25.9507767 L31.1334483,30.1155422 C30.9393902,30.4140932 30.678162,30.5633665 30.3497559,30.5633665 L26.9239004,30.5633665 C26.80448,30.5633665 26.6962569,30.5148527 26.5992278,30.4178236 Z" id="FIX" fill="#577FA1"></path>
                </g>
            </g>
        </g>
    </g>
</svg>