<?xml version="1.0" encoding="utf-8"?>
<!-- Generator: Adobe Illustrator 25.2.3, SVG Export Plug-In . SVG Version: 6.00 Build 0)  -->
<svg version="1.1" id="Layer_1" xmlns="http://www.w3.org/2000/svg" xmlns:xlink="http://www.w3.org/1999/xlink" x="0px" y="0px"
	 viewBox="0 0 453 87" style="enable-background:new 0 0 453 87;" xml:space="preserve">
<style type="text/css">
	.st0{fill:url(#SVGID_1_);}
	.st1{fill:url(#SVGID_2_);}
	.st2{fill:url(#SVGID_3_);}
	.st3{fill:url(#SVGID_4_);}
	.st4{fill:url(#SVGID_5_);}
	.st5{fill:url(#SVGID_6_);}
	.st6{fill:url(#SVGID_7_);}
	.st7{fill:url(#SVGID_8_);}
	.st8{fill:url(#SVGID_9_);}
	.st9{fill:url(#SVGID_10_);}
	.st10{fill:url(#SVGID_11_);}
	.st11{fill:url(#SVGID_12_);}
	.st12{fill:url(#SVGID_13_);}
	.st13{fill:url(#SVGID_14_);}
	.st14{fill:url(#SVGID_15_);}
	.st15{fill:url(#SVGID_16_);}
	.st16{opacity:0.8;fill:url(#SVGID_17_);enable-background:new    ;}
	.st17{opacity:0.8;fill:url(#SVGID_18_);enable-background:new    ;}
	.st18{opacity:0.8;fill:url(#SVGID_19_);enable-background:new    ;}
	.st19{opacity:0.8;fill:url(#SVGID_20_);enable-background:new    ;}
	.st20{opacity:0.8;fill:url(#SVGID_21_);enable-background:new    ;}
	.st21{opacity:0.8;fill:url(#SVGID_22_);enable-background:new    ;}
	.st22{opacity:0.8;fill:url(#SVGID_23_);enable-background:new    ;}
	.st23{opacity:0.8;fill:url(#SVGID_24_);enable-background:new    ;}
	.st24{opacity:0.8;fill:url(#SVGID_25_);enable-background:new    ;}
	.st25{opacity:0.8;fill:url(#SVGID_26_);enable-background:new    ;}
	.st26{opacity:0.8;fill:url(#SVGID_27_);enable-background:new    ;}
	.st27{opacity:0.8;fill:url(#SVGID_28_);enable-background:new    ;}
	.st28{opacity:0.8;fill:url(#SVGID_29_);enable-background:new    ;}
	.st29{opacity:0.8;fill:url(#SVGID_30_);}
	.st30{opacity:0.8;fill:url(#SVGID_31_);}
	.st31{opacity:0.8;fill:url(#SVGID_32_);}
	.st32{fill-rule:evenodd;clip-rule:evenodd;fill:url(#SVGID_33_);}
	.st33{opacity:0.8;fill:url(#SVGID_34_);}
	.st34{fill-rule:evenodd;clip-rule:evenodd;fill:url(#SVGID_35_);}
	.st35{opacity:0.8;}
	.st36{fill:url(#Rectangle-path_1_);}
	.st37{fill:url(#SVGID_36_);}
	.st38{fill:url(#SVGID_37_);}
	.st39{fill:url(#SVGID_38_);}
	.st40{fill:url(#SVGID_39_);}
	.st41{fill:url(#SVGID_40_);}
	.st42{fill:url(#SVGID_41_);}
	.st43{fill:url(#SVGID_42_);}
	.st44{fill:url(#SVGID_43_);}
	.st45{fill:url(#SVGID_44_);}
	.st46{fill:url(#SVGID_45_);}
	.st47{fill:url(#SVGID_46_);}
	.st48{opacity:0.8;fill-rule:evenodd;clip-rule:evenodd;fill:url(#Fill-5_1_);}
</style>
<desc>Created with Sketch.</desc>
<linearGradient id="SVGID_1_" gradientUnits="userSpaceOnUse" x1="95" y1="25.8154" x2="444.2062" y2="25.8154">
	<stop  offset="0" style="stop-color:#7656F0"/>
	<stop  offset="1" style="stop-color:#0088FF"/>
</linearGradient>
<path class="st0" d="M98,14.2h2.9v23.1H98V14.2z"/>
<linearGradient id="SVGID_2_" gradientUnits="userSpaceOnUse" x1="95" y1="25.8154" x2="444.2062" y2="25.8154">
	<stop  offset="0" style="stop-color:#7656F0"/>
	<stop  offset="1" style="stop-color:#0088FF"/>
</linearGradient>
<path class="st1" d="M118.9,30.1h-0.6l-8.4-11.8v19h-2.8V14.2h3.4l8.1,11.9l8.1-11.9h3.4v23.1h-2.8v-19L118.9,30.1z"/>
<linearGradient id="SVGID_3_" gradientUnits="userSpaceOnUse" x1="95" y1="25.8154" x2="444.2062" y2="25.8154">
	<stop  offset="0" style="stop-color:#7656F0"/>
	<stop  offset="1" style="stop-color:#0088FF"/>
</linearGradient>
<path class="st2" d="M147.4,14.2l10.4,23.1h-3.1l-2.3-5.1h-13.2l-2.2,5.1h-3.1l10.4-23.1H147.4z M145.8,17.2l-5.5,12.5h11
	L145.8,17.2z"/>
<linearGradient id="SVGID_4_" gradientUnits="userSpaceOnUse" x1="95" y1="25.8154" x2="444.2062" y2="25.8154">
	<stop  offset="0" style="stop-color:#7656F0"/>
	<stop  offset="1" style="stop-color:#0088FF"/>
</linearGradient>
<path class="st3" d="M163.4,14.2L177.6,32V14.2h2.8v23.1h-2l-14.2-17.6v17.6h-2.8V14.2H163.4z"/>
<linearGradient id="SVGID_5_" gradientUnits="userSpaceOnUse" x1="95" y1="25.7993" x2="444.2062" y2="25.7993">
	<stop  offset="0" style="stop-color:#7656F0"/>
	<stop  offset="1" style="stop-color:#0088FF"/>
</linearGradient>
<path class="st4" d="M186.6,14.2h8.4c7.9,0,11.6,5.6,11.6,11.3c0,5.9-3.5,11.8-11.6,11.8h-8.4V14.2L186.6,14.2z M203.8,25.5
	c0-4.3-2.8-8.5-8.8-8.5h-5.6v17.5h5.6C201.2,34.5,203.8,29.9,203.8,25.5z"/>
<linearGradient id="SVGID_6_" gradientUnits="userSpaceOnUse" x1="95" y1="25.8154" x2="444.2062" y2="25.8154">
	<stop  offset="0" style="stop-color:#7656F0"/>
	<stop  offset="1" style="stop-color:#0088FF"/>
</linearGradient>
<path class="st5" d="M220.1,29.1h-5.6v8.3h-2.9V14.2h10.5c5.2,0,7.8,3.6,7.8,7.4c0,3.5-1.9,6.8-6.6,7.2l7.6,8.6h-3.6L220.1,29.1z
	 M227,21.7c0-2.3-1.6-4.9-5-4.9h-7.6v9.7h7.5C225.4,26.5,227,24.3,227,21.7z"/>
<linearGradient id="SVGID_7_" gradientUnits="userSpaceOnUse" x1="95" y1="25.8154" x2="444.2062" y2="25.8154">
	<stop  offset="0" style="stop-color:#7656F0"/>
	<stop  offset="1" style="stop-color:#0088FF"/>
</linearGradient>
<path class="st6" d="M247.1,14.2l10.4,23.1h-3.1l-2.3-5.1h-13.2l-2.2,5.1h-3.1l10.4-23.1H247.1z M245.5,17.2L240,29.6h11L245.5,17.2
	z"/>
<linearGradient id="SVGID_8_" gradientUnits="userSpaceOnUse" x1="95" y1="25.8323" x2="444.2062" y2="25.8323">
	<stop  offset="0" style="stop-color:#7656F0"/>
	<stop  offset="1" style="stop-color:#0088FF"/>
</linearGradient>
<path class="st7" d="M286,14.2V17h-13.2v8.1h12.6v2.7h-12.6v9.7h-2.9V14.2H286z"/>
<linearGradient id="SVGID_9_" gradientUnits="userSpaceOnUse" x1="95" y1="25.8154" x2="444.2062" y2="25.8154">
	<stop  offset="0" style="stop-color:#7656F0"/>
	<stop  offset="1" style="stop-color:#0088FF"/>
</linearGradient>
<path class="st8" d="M290.3,14.2h2.9v23.1h-2.9V14.2z"/>
<linearGradient id="SVGID_10_" gradientUnits="userSpaceOnUse" x1="95" y1="25.8323" x2="444.2062" y2="25.8323">
	<stop  offset="0" style="stop-color:#7656F0"/>
	<stop  offset="1" style="stop-color:#0088FF"/>
</linearGradient>
<path class="st9" d="M316.4,14.3L316.4,14.3l-7.8,11.3l8.3,11.7v0.1h-3.3l-6.8-9.7l-6.8,9.7h-3.3v-0.1l8.3-11.7L297,14.4v-0.1h3.3
	l6.3,9.4l6.4-9.4H316.4z"/>
<linearGradient id="SVGID_11_" gradientUnits="userSpaceOnUse" x1="95" y1="25.8154" x2="444.2062" y2="25.8154">
	<stop  offset="0" style="stop-color:#7656F0"/>
	<stop  offset="1" style="stop-color:#0088FF"/>
</linearGradient>
<path class="st10" d="M329.1,14.2h16.3v2.6h-13.4v7.2h12.9v2.7h-12.9v7.8h14v2.7h-16.8V14.2z"/>
<linearGradient id="SVGID_12_" gradientUnits="userSpaceOnUse" x1="95" y1="25.8154" x2="444.2062" y2="25.8154">
	<stop  offset="0" style="stop-color:#7656F0"/>
	<stop  offset="1" style="stop-color:#0088FF"/>
</linearGradient>
<path class="st11" d="M352.5,14.2L366.7,32V14.2h2.8v23.1h-2l-14.2-17.6v17.6h-2.8V14.2H352.5z"/>
<linearGradient id="SVGID_13_" gradientUnits="userSpaceOnUse" x1="95" y1="25.7986" x2="444.2062" y2="25.7986">
	<stop  offset="0" style="stop-color:#7656F0"/>
	<stop  offset="1" style="stop-color:#0088FF"/>
</linearGradient>
<path class="st12" d="M393.3,19.2c-1.8-1.8-4.5-2.7-6.8-2.7c-6,0-9.2,4.5-9.2,9.6c0,4.7,3,9.1,9.3,9.1c2.2,0,4.4-0.7,6.3-2.3v-5.5
	h-7.2v-2.5h9.8v9.2c-2.3,2.5-5.2,3.9-9,3.9c-8.2,0-12.1-5.6-12.1-11.8c0-6.9,4.5-12.2,12-12.2c3.1,0,6.1,1.2,8.5,3.5L393.3,19.2z"/>
<linearGradient id="SVGID_14_" gradientUnits="userSpaceOnUse" x1="95" y1="25.8154" x2="444.2062" y2="25.8154">
	<stop  offset="0" style="stop-color:#7656F0"/>
	<stop  offset="1" style="stop-color:#0088FF"/>
</linearGradient>
<path class="st13" d="M400.8,14.2h2.9v23.1h-2.9V14.2z"/>
<linearGradient id="SVGID_15_" gradientUnits="userSpaceOnUse" x1="95" y1="25.8154" x2="444.2062" y2="25.8154">
	<stop  offset="0" style="stop-color:#7656F0"/>
	<stop  offset="1" style="stop-color:#0088FF"/>
</linearGradient>
<path class="st14" d="M411.9,14.2L426.1,32V14.2h2.8v23.1h-2l-14.2-17.6v17.6h-2.8V14.2H411.9z"/>
<linearGradient id="SVGID_16_" gradientUnits="userSpaceOnUse" x1="95" y1="25.8154" x2="444.2062" y2="25.8154">
	<stop  offset="0" style="stop-color:#7656F0"/>
	<stop  offset="1" style="stop-color:#0088FF"/>
</linearGradient>
<path class="st15" d="M435.1,14.2h16.3v2.6H438v7.2h12.9v2.7H438v7.8h13.9v2.7h-16.8V14.2z"/>
<linearGradient id="SVGID_17_" gradientUnits="userSpaceOnUse" x1="96" y1="65.4846" x2="384" y2="65.4846">
	<stop  offset="0" style="stop-color:#0088FF"/>
	<stop  offset="1" style="stop-color:#00F0B4"/>
</linearGradient>
<path class="st16" d="M98,53.9h8.4c7.9,0,11.6,5.6,11.6,11.3c0,5.9-3.5,11.8-11.6,11.8H98V53.9L98,53.9z M115.2,65.2
	c0-4.3-2.8-8.5-8.8-8.5h-5.6v17.5h5.6C112.6,74.2,115.2,69.6,115.2,65.2z"/>
<linearGradient id="SVGID_18_" gradientUnits="userSpaceOnUse" x1="96" y1="65.5343" x2="384" y2="65.5343">
	<stop  offset="0" style="stop-color:#0088FF"/>
	<stop  offset="1" style="stop-color:#00F0B4"/>
</linearGradient>
<path class="st17" d="M145.1,65.6c0,6-3.8,12-11.7,12s-11.8-5.9-11.8-12c0-6.7,4.5-12,11.8-12C141.2,53.6,145.1,59.5,145.1,65.6z
	 M133.4,56.2c-5.9,0-8.9,4.3-8.9,9.4c0,4.7,2.8,9.3,8.9,9.3c6.1,0,8.8-4.7,8.8-9.3C142.3,60.9,139.4,56.2,133.4,56.2z"/>
<linearGradient id="SVGID_19_" gradientUnits="userSpaceOnUse" x1="96" y1="65.5007" x2="384" y2="65.5007">
	<stop  offset="0" style="stop-color:#0088FF"/>
	<stop  offset="1" style="stop-color:#00F0B4"/>
</linearGradient>
<path class="st18" d="M160.6,77.4c-8.2,0-12-5.7-12.1-11.8c-0.1-6.1,3.9-12.1,12.1-12.1c3.1,0,6.1,1.2,8.5,3.5l-2,1.9
	c-1.8-1.8-4.1-2.6-6.5-2.6c-6.2,0-9.2,4.5-9.2,9.3c0.1,4.7,2.9,9.1,9.2,9.1c2.3,0,4.8-0.9,6.6-2.7l2,2
	C166.9,76.3,163.8,77.4,160.6,77.4z"/>
<linearGradient id="SVGID_20_" gradientUnits="userSpaceOnUse" x1="96" y1="65.716" x2="384" y2="65.716">
	<stop  offset="0" style="stop-color:#0088FF"/>
	<stop  offset="1" style="stop-color:#00F0B4"/>
</linearGradient>
<path class="st19" d="M191.8,54v13.9c0,6.4-4.3,9.7-9.4,9.7c-4.9,0-9.5-3.2-9.5-9.7V54h2.8v13.9c0,4.6,3.1,7,6.6,7
	c3.6,0,6.5-2.5,6.5-7V53.9L191.8,54L191.8,54z"/>
<linearGradient id="SVGID_21_" gradientUnits="userSpaceOnUse" x1="96" y1="65.5007" x2="384" y2="65.5007">
	<stop  offset="0" style="stop-color:#0088FF"/>
	<stop  offset="1" style="stop-color:#00F0B4"/>
</linearGradient>
<path class="st20" d="M209.6,69.8H209L200.7,58v19h-2.8V53.9h3.4l8.1,11.9l8.1-11.9h3.4v23.1H218v-19L209.6,69.8z"/>
<linearGradient id="SVGID_22_" gradientUnits="userSpaceOnUse" x1="96" y1="65.5007" x2="384" y2="65.5007">
	<stop  offset="0" style="stop-color:#0088FF"/>
	<stop  offset="1" style="stop-color:#00F0B4"/>
</linearGradient>
<path class="st21" d="M227.1,53.9h16.3v2.6H230v7.2h12.9v2.7H230v7.8h13.9v2.7h-16.8V53.9z"/>
<linearGradient id="SVGID_23_" gradientUnits="userSpaceOnUse" x1="96" y1="65.5007" x2="384" y2="65.5007">
	<stop  offset="0" style="stop-color:#0088FF"/>
	<stop  offset="1" style="stop-color:#00F0B4"/>
</linearGradient>
<path class="st22" d="M250.5,53.9l14.2,17.7V53.9h2.8v23.1h-2l-14.2-17.6v17.6h-2.8V53.9H250.5z"/>
<linearGradient id="SVGID_24_" gradientUnits="userSpaceOnUse" x1="96" y1="65.5007" x2="384" y2="65.5007">
	<stop  offset="0" style="stop-color:#0088FF"/>
	<stop  offset="1" style="stop-color:#00F0B4"/>
</linearGradient>
<path class="st23" d="M271.1,56.5v-2.6h18.6v2.6h-7.9v20.6H279V56.5H271.1z"/>
<linearGradient id="SVGID_25_" gradientUnits="userSpaceOnUse" x1="96" y1="65.5007" x2="384" y2="65.5007">
	<stop  offset="0" style="stop-color:#0088FF"/>
	<stop  offset="1" style="stop-color:#00F0B4"/>
</linearGradient>
<path class="st24" d="M301.7,53.9l10.4,23.1H309l-2.3-5.1h-13.2l-2.2,5.1h-3.1l10.4-23.1H301.7z M300.1,56.8l-5.5,12.5h11
	L300.1,56.8z"/>
<linearGradient id="SVGID_26_" gradientUnits="userSpaceOnUse" x1="96" y1="65.5007" x2="384" y2="65.5007">
	<stop  offset="0" style="stop-color:#0088FF"/>
	<stop  offset="1" style="stop-color:#00F0B4"/>
</linearGradient>
<path class="st25" d="M310.5,56.5v-2.6h18.6v2.6h-7.9v20.6h-2.8V56.5H310.5z"/>
<linearGradient id="SVGID_27_" gradientUnits="userSpaceOnUse" x1="96" y1="65.5007" x2="384" y2="65.5007">
	<stop  offset="0" style="stop-color:#0088FF"/>
	<stop  offset="1" style="stop-color:#00F0B4"/>
</linearGradient>
<path class="st26" d="M332.7,53.9h2.9v23.1h-2.9V53.9z"/>
<linearGradient id="SVGID_28_" gradientUnits="userSpaceOnUse" x1="96" y1="65.5343" x2="384" y2="65.5343">
	<stop  offset="0" style="stop-color:#0088FF"/>
	<stop  offset="1" style="stop-color:#00F0B4"/>
</linearGradient>
<path class="st27" d="M363.9,65.6c0,6-3.8,12-11.7,12c-7.9,0-11.8-5.9-11.8-12c0-6.7,4.5-12,11.8-12C360,53.6,363.9,59.5,363.9,65.6
	z M352.2,56.2c-5.9,0-8.9,4.3-8.9,9.4c0,4.7,2.8,9.3,8.9,9.3s8.8-4.7,8.8-9.3C361.1,60.9,358.3,56.2,352.2,56.2z"/>
<linearGradient id="SVGID_29_" gradientUnits="userSpaceOnUse" x1="96" y1="65.5007" x2="384" y2="65.5007">
	<stop  offset="0" style="stop-color:#0088FF"/>
	<stop  offset="1" style="stop-color:#00F0B4"/>
</linearGradient>
<path class="st28" d="M370.8,53.9L385,71.6V53.9h2.8v23.1h-2l-14.2-17.6v17.6h-2.8V53.9H370.8z"/>
<linearGradient id="SVGID_30_" gradientUnits="userSpaceOnUse" x1="3616.1912" y1="440.4324" x2="3666.9377" y2="389.6859" gradientTransform="matrix(0 1 -1 0 456.2137 -3594.0991)">
	<stop  offset="0" style="stop-color:#7656F0"/>
	<stop  offset="1" style="stop-color:#0088FF"/>
</linearGradient>
<path class="st29" d="M63.1,18.7v55.8c0,3.8-3.1,6.8-6.8,6.8h-32c-3.8,0-6.8-3.1-6.8-6.8V18.7c0-3.8,3.1-6.8,6.8-6.8h32
	C60.1,11.9,63.1,15,63.1,18.7z"/>
<linearGradient id="SVGID_31_" gradientUnits="userSpaceOnUse" x1="3613.9968" y1="438.0337" x2="3664.7432" y2="387.2872" gradientTransform="matrix(0 1 -1 0 456.2137 -3594.0991)">
	<stop  offset="0" style="stop-color:#F0567E"/>
	<stop  offset="1" style="stop-color:#9C56AA"/>
</linearGradient>
<path class="st30" d="M65.5,16.5v55.8c0,3.8-3.1,6.8-6.8,6.8h-32c-3.8,0-6.8-3.1-6.8-6.8V16.5c0-3.8,3.1-6.8,6.8-6.8h32
	C62.5,9.7,65.5,12.8,65.5,16.5z"/>
<linearGradient id="SVGID_32_" gradientUnits="userSpaceOnUse" x1="39.0007" y1="40.251" x2="65.5973" y2="18.2401" gradientTransform="matrix(1 0 0 1 12.0591 0)">
	<stop  offset="0" style="stop-color:#F0AA3D"/>
	<stop  offset="1" style="stop-color:#F0567E"/>
</linearGradient>
<path class="st31" d="M79.9,35.4L58.7,47.6c-2.1,1.2-4.8-0.3-4.8-2.8V20.4c0-2.5,2.7-4,4.8-2.8l21.1,12.2C82,31.1,82,34.2,79.9,35.4
	z"/>
<linearGradient id="SVGID_33_" gradientUnits="userSpaceOnUse" x1="58.325" y1="32.2882" x2="47.8172" y2="32.2882" gradientTransform="matrix(1 0 0 1 12.0591 0)">
	<stop  offset="5.339492e-03" style="stop-color:#78FF80"/>
	<stop  offset="1" style="stop-color:#F0E566"/>
</linearGradient>
<path class="st32" d="M64.9,26.6c-3.1,0-5.6,2.6-5.6,5.7c0,3.1,2.5,5.7,5.6,5.7c3.1,0,5.6-2.6,5.6-5.7c0-3.1-2.5-5.6-5.6-5.6H64.9z"
	/>
<linearGradient id="SVGID_34_" gradientUnits="userSpaceOnUse" x1="5152.1504" y1="-3360.5425" x2="5178.7466" y2="-3382.5535" gradientTransform="matrix(-1 0 0 -1 5184.1782 -3335.5752)">
	<stop  offset="0" style="stop-color:#F0AA3D"/>
	<stop  offset="1" style="stop-color:#F0567E"/>
</linearGradient>
<path class="st33" d="M3.2,29.8l21.1-12.2c2.1-1.2,4.8,0.3,4.8,2.8v24.4c0,2.5-2.7,4-4.8,2.8L3.2,35.4C1.1,34.2,1.1,31.1,3.2,29.8z"
	/>
<linearGradient id="SVGID_35_" gradientUnits="userSpaceOnUse" x1="5170.2212" y1="-3368.1843" x2="5159.7134" y2="-3368.1843" gradientTransform="matrix(-1 0 0 -1 5184.1782 -3335.5752)">
	<stop  offset="5.339492e-03" style="stop-color:#78FF80"/>
	<stop  offset="1" style="stop-color:#F0E566"/>
</linearGradient>
<path class="st34" d="M19.4,38.3c3.1,0,5.6-2.6,5.6-5.7c0-3.1-2.5-5.7-5.6-5.7c-3.1,0-5.6,2.6-5.6,5.7c0,3.1,2.5,5.6,5.6,5.6H19.4z"
	/>
<g id="Layer_1_4_" class="st35">
	<g id="icon_ifix_1_" transform="translate(13.754546, 13.251953)">
		<g>
			<linearGradient id="Rectangle-path_1_" gradientUnits="userSpaceOnUse" x1="14.9874" y1="61.4535" x2="14.9874" y2="39.7362">
				<stop  offset="5.339492e-03" style="stop-color:#78FF80"/>
				<stop  offset="1" style="stop-color:#F0E566"/>
			</linearGradient>
			<path id="Rectangle-path_15_" class="st36" d="M15,55.8L15,55.8c0.6,0,0.9,0.4,0.9,0.9v3.4c0,0.6-0.4,0.9-0.9,0.9l0,0
				c-0.6,0-0.9-0.4-0.9-0.9v-3.4C14,56.2,14.4,55.8,15,55.8z"/>
			<linearGradient id="SVGID_36_" gradientUnits="userSpaceOnUse" x1="28.1945" y1="61.4535" x2="28.1945" y2="39.7362">
				<stop  offset="5.339492e-03" style="stop-color:#78FF80"/>
				<stop  offset="1" style="stop-color:#F0E566"/>
			</linearGradient>
			<path class="st37" d="M28.2,46.2L28.2,46.2c0.6,0,0.9,0.4,0.9,0.9v7.2c0,0.6-0.4,0.9-0.9,0.9l0,0c-0.6,0-0.9-0.4-0.9-0.9v-7.2
				C27.3,46.6,27.6,46.2,28.2,46.2z"/>
			<linearGradient id="SVGID_37_" gradientUnits="userSpaceOnUse" x1="19.3269" y1="61.4535" x2="19.3269" y2="39.7362">
				<stop  offset="5.339492e-03" style="stop-color:#78FF80"/>
				<stop  offset="1" style="stop-color:#F0E566"/>
			</linearGradient>
			<path class="st38" d="M19.3,53.2L19.3,53.2c0.6,0,0.9,0.4,0.9,0.9v3.6c0,0.6-0.4,0.9-0.9,0.9l0,0c-0.6,0-0.9-0.4-0.9-0.9v-3.6
				C18.4,53.6,18.8,53.2,19.3,53.2z"/>
			<linearGradient id="SVGID_38_" gradientUnits="userSpaceOnUse" x1="23.8551" y1="61.4535" x2="23.8551" y2="39.7362">
				<stop  offset="5.339492e-03" style="stop-color:#78FF80"/>
				<stop  offset="1" style="stop-color:#F0E566"/>
			</linearGradient>
			<path class="st39" d="M23.9,48.8L23.9,48.8c0.6,0,0.9,0.4,0.9,0.9V52c0,0.6-0.4,0.9-0.9,0.9l0,0c-0.6,0-0.9-0.4-0.9-0.9v-2.3
				C23,49.2,23.3,48.8,23.9,48.8z"/>
			<linearGradient id="SVGID_39_" gradientUnits="userSpaceOnUse" x1="37.0622" y1="61.4535" x2="37.0622" y2="39.7362">
				<stop  offset="5.339492e-03" style="stop-color:#78FF80"/>
				<stop  offset="1" style="stop-color:#F0E566"/>
			</linearGradient>
			<path class="st40" d="M37.1,38.6L37.1,38.6c0.6,0,0.9,0.4,0.9,0.9v10.6c0,0.6-0.4,0.9-0.9,0.9l0,0c-0.6,0-0.9-0.4-0.9-0.9V39.6
				C36.1,39,36.5,38.6,37.1,38.6z"/>
			<linearGradient id="SVGID_40_" gradientUnits="userSpaceOnUse" x1="41.4016" y1="61.4535" x2="41.4016" y2="39.7362">
				<stop  offset="5.339492e-03" style="stop-color:#78FF80"/>
				<stop  offset="1" style="stop-color:#F0E566"/>
			</linearGradient>
			<path class="st41" d="M41.4,38.7L41.4,38.7c0.6,0,0.9,0.4,0.9,0.9v15.3c0,0.6-0.4,0.9-0.9,0.9l0,0c-0.6,0-0.9-0.4-0.9-0.9V39.6
				C40.5,39,40.8,38.7,41.4,38.7z"/>
			<linearGradient id="SVGID_41_" gradientUnits="userSpaceOnUse" x1="14.9874" y1="61.4535" x2="14.9874" y2="39.7362">
				<stop  offset="5.339492e-03" style="stop-color:#78FF80"/>
				<stop  offset="1" style="stop-color:#F0E566"/>
			</linearGradient>
			<path class="st42" d="M15,38.7L15,38.7c0.6,0,0.9,0.4,0.9,0.9v12.8c0,0.6-0.4,0.9-0.9,0.9l0,0c-0.6,0-0.9-0.4-0.9-0.9V39.6
				C14,39,14.4,38.7,15,38.7z"/>
			<linearGradient id="SVGID_42_" gradientUnits="userSpaceOnUse" x1="28.1945" y1="61.4535" x2="28.1945" y2="39.7362">
				<stop  offset="5.339492e-03" style="stop-color:#78FF80"/>
				<stop  offset="1" style="stop-color:#F0E566"/>
			</linearGradient>
			<path class="st43" d="M28.2,38.7L28.2,38.7c0.6,0,0.9,0.4,0.9,0.9v3c0,0.6-0.4,0.9-0.9,0.9l0,0c-0.6,0-0.9-0.4-0.9-0.9v-3
				C27.3,39,27.6,38.7,28.2,38.7z"/>
			<linearGradient id="SVGID_43_" gradientUnits="userSpaceOnUse" x1="32.7227" y1="61.4535" x2="32.7227" y2="39.7362">
				<stop  offset="5.339492e-03" style="stop-color:#78FF80"/>
				<stop  offset="1" style="stop-color:#F0E566"/>
			</linearGradient>
			<path class="st44" d="M32.7,38.7L32.7,38.7c0.6,0,0.9,0.4,0.9,0.9v0.6c0,0.6-0.4,0.9-0.9,0.9l0,0c-0.6,0-0.9-0.4-0.9-0.9v-0.6
				C31.8,39.1,32.2,38.7,32.7,38.7z"/>
			<linearGradient id="SVGID_44_" gradientUnits="userSpaceOnUse" x1="19.3269" y1="61.4535" x2="19.3269" y2="39.7362">
				<stop  offset="5.339492e-03" style="stop-color:#78FF80"/>
				<stop  offset="1" style="stop-color:#F0E566"/>
			</linearGradient>
			<path class="st45" d="M19.3,38.7L19.3,38.7c0.6,0,0.9,0.4,0.9,0.9v10.2c0,0.6-0.4,0.9-0.9,0.9l0,0c-0.6,0-0.9-0.4-0.9-0.9V39.6
				C18.4,39,18.8,38.7,19.3,38.7z"/>
			<linearGradient id="SVGID_45_" gradientUnits="userSpaceOnUse" x1="23.8551" y1="61.4535" x2="23.8551" y2="39.7362">
				<stop  offset="5.339492e-03" style="stop-color:#78FF80"/>
				<stop  offset="1" style="stop-color:#F0E566"/>
			</linearGradient>
			<path class="st46" d="M23.9,38.7L23.9,38.7c0.6,0,0.9,0.4,0.9,0.9v5.7c0,0.6-0.4,0.9-0.9,0.9l0,0c-0.6,0-0.9-0.4-0.9-0.9v-5.7
				C22.9,39.1,23.3,38.7,23.9,38.7z"/>
			<linearGradient id="SVGID_46_" gradientUnits="userSpaceOnUse" x1="32.7227" y1="61.4535" x2="32.7227" y2="39.7362">
				<stop  offset="5.339492e-03" style="stop-color:#78FF80"/>
				<stop  offset="1" style="stop-color:#F0E566"/>
			</linearGradient>
			<path class="st47" d="M32.7,43.7L32.7,43.7c0.6,0,0.9,0.4,0.9,0.9V52c0,0.6-0.4,0.9-0.9,0.9l0,0c-0.6,0-0.9-0.4-0.9-0.9v-7.4
				C31.9,44.2,32.2,43.7,32.7,43.7z"/>
		</g>
	</g>
</g>
<linearGradient id="Fill-5_1_" gradientUnits="userSpaceOnUse" x1="5171.4585" y1="-3375.2966" x2="5171.4585" y2="-3359.8752" gradientTransform="matrix(-1 0 0 -1 5212.7422 -3335.5752)">
	<stop  offset="0" style="stop-color:#0088FF"/>
	<stop  offset="1" style="stop-color:#00F0B4"/>
</linearGradient>
<path id="Fill-5_10_" class="st48" d="M41.3,40.2c-1.8,0-3.2-1.4-3.2-3.2v-9.7c0-1.8,1.4-3.2,3.2-3.2c1.8,0,3.2,1.4,3.2,3.2V37
	C44.5,38.9,43.1,40.2,41.3,40.2"/>
</svg>
