<?xml version="1.0" encoding="UTF-8"?>
<svg width="1440px" height="220px" viewBox="0 0 1440 220" version="1.1" xmlns="http://www.w3.org/2000/svg" xmlns:xlink="http://www.w3.org/1999/xlink">
    <!-- Generator: Sketch 46.2 (44496) - http://www.bohemiancoding.com/sketch -->
    <title>Group</title>
    <desc>Created with Sketch.</desc>
    <defs></defs>
    <g id="Page-1" stroke="none" stroke-width="1" fill="none" fill-rule="evenodd">
        <g id="Group">
            <path d="M1440,220 L1440,59.8288591 L1418.28445,59.8288591 L1418.28445,80.6174497 L1415.29607,80.6174497 L1415.29607,76.6577181 L1402.34643,76.6577181 L1402.34643,93.4865772 L1385.41229,93.4865772 L1385.41229,110.315436 L1367.48201,110.315436 L1367.48201,93.4865772 L1385.41229,93.4865772 L1385.41229,76.6577181 L1350.54787,76.6577181 L1350.54787,59.8288591 L1333.61372,59.8288591 L1333.61372,93.4865772 L1316.67958,93.4865772 L1316.67958,76.6577181 L1298.74931,76.6577181 L1298.74931,43 L1290.7803,43 L1290.7803,50.9194631 L1282.81129,50.9194631 L1282.81129,76.6577181 L1265.87714,76.6577181 L1265.87714,110.315436 L1247.94687,110.315436 L1247.94687,127.144295 L1231.01273,127.144295 L1231.01273,110.315436 L1197.14444,110.315436 L1197.14444,76.6577181 L1179.21417,76.6577181 L1179.21417,68.738255 L1171.24516,68.738255 L1171.24516,59.8288591 L1162.28002,59.8288591 L1162.28002,76.6577181 L1128.41173,76.6577181 L1128.41173,92.4966443 L1145.34588,92.4966443 L1145.34588,110.315436 L1128.41173,110.315436 L1128.41173,93.4865772 L1111.47759,93.4865772 L1111.47759,76.6577181 L1094.54344,76.6577181 L1094.54344,59.8288591 L1059.67903,59.8288591 L1059.67903,76.6577181 L1025.81074,76.6577181 L1025.81074,59.8288591 L1007.88046,59.8288591 L1007.88046,50.9194631 L999.911455,50.9194631 L999.911455,43 L990.94632,43 L990.94632,93.4865772 L974.012175,93.4865772 L974.012175,76.6577181 L958.074156,76.6577181 L958.074156,93.4865772 L940.143885,93.4865772 L940.143885,110.315436 L958.074156,110.315436 L958.074156,127.144295 L940.143885,127.144295 L940.143885,110.315436 L923.20974,110.315436 L923.20974,93.4865772 L906.275595,93.4865772 L906.275595,102.395973 L897.310459,102.395973 L897.310459,93.4865772 L906.275595,93.4865772 L906.275595,76.6577181 L889.34145,76.6577181 L889.34145,93.4865772 L871.411179,93.4865772 L871.411179,76.6577181 L888.345324,76.6577181 L888.345324,59.8288591 L854.477034,59.8288591 L854.477034,85.5671141 L846.508024,85.5671141 L846.508024,76.6577181 L819.612618,76.6577181 L819.612618,59.8288591 L803.674599,59.8288591 L803.674599,43 L786.740454,43 L786.740454,76.6577181 L769.806309,76.6577181 L769.806309,93.4865772 L751.876038,93.4865772 L751.876038,76.6577181 L721.992252,76.6577181 L721.494189,59.8288591 L704.061981,59.8288591 L704.061981,80.6174497 L699.08135,80.6174497 L699.08135,76.6577181 L686.13171,76.6577181 L686.13171,93.4865772 L669.197565,93.4865772 L669.197565,110.315436 L652.26342,110.315436 L652.26342,93.4865772 L669.197565,93.4865772 L669.197565,76.6577181 L635.329275,76.6577181 L635.329275,59.8288591 L618.39513,59.8288591 L618.39513,93.4865772 L601.460985,93.4865772 L601.460985,76.6577181 L584.52684,76.6577181 L584.52684,43 L575.561704,43 L575.561704,50.9194631 L567.592695,50.9194631 L567.592695,76.6577181 L549.662424,76.6577181 L549.662424,110.315436 L532.728279,110.315436 L532.728279,127.144295 L515.794134,127.144295 L515.794134,110.315436 L480.929718,110.315436 L480.929718,76.6577181 L464.991699,76.6577181 L464.991699,68.738255 L455.030437,68.738255 L455.030437,59.8288591 L447.061428,59.8288591 L447.061428,76.6577181 L413.193138,76.6577181 L413.193138,92.4966443 L430.127283,92.4966443 L430.127283,110.315436 L413.193138,110.315436 L413.193138,93.4865772 L396.258993,93.4865772 L396.258993,76.6577181 L378.328722,76.6577181 L378.328722,59.8288591 L344.460432,59.8288591 L344.460432,76.6577181 L310.592142,76.6577181 L310.592142,59.8288591 L293.657997,59.8288591 L293.657997,50.9194631 L284.692861,50.9194631 L284.692861,43 L276.723852,43 L276.723852,93.4865772 L258.793581,93.4865772 L258.793581,76.6577181 L242.257886,76.6577181 L241.859436,76.954698 L241.859436,93.4865772 L224.925291,93.4865772 L224.925291,110.315436 L241.859436,110.315436 L241.859436,127.144295 L224.925291,127.144295 L224.925291,110.315436 L207.991146,110.315436 L207.991146,93.4865772 L190.060874,93.4865772 L190.060874,102.395973 L182.091865,102.395973 L182.091865,93.4865772 L190.060874,93.4865772 L190.060874,76.6577181 L173.126729,76.6577181 L173.126729,93.4865772 L156.192584,93.4865772 L156.192584,76.6577181 L173.126729,76.6577181 L173.126729,59.8288591 L139.258439,59.8288591 L139.258439,85.5671141 L130.293304,85.5671141 L130.293304,76.6577181 L105.390149,76.6577181 L105.390149,59.8288591 L88.4560044,59.8288591 L88.4560044,43 L70.5257333,43 L70.5257333,76.6577181 L53.5915883,76.6577181 L53.5915883,93.4865772 L36.6574433,93.4865772 L36.6574433,76.6577181 L2.84217094e-14,76.6577181 L2.84217094e-14,220 L1440,220 Z M1328.26556,143.627803 L1338.22407,143.627803 L1338.22407,152.506726 L1328.26556,152.506726 L1328.26556,143.627803 Z M1294.40664,109.098655 L1303.36929,109.098655 L1303.36929,117.977578 L1294.40664,117.977578 L1294.40664,109.098655 Z M1226.6888,157.439462 L1235.65145,157.439462 L1235.65145,166.318386 L1226.6888,166.318386 L1226.6888,157.439462 Z M1157.9751,111.071749 L1165.94191,111.071749 L1165.94191,119.950673 L1157.9751,119.950673 L1157.9751,111.071749 Z M1089.26141,110.085202 L1098.22407,110.085202 L1098.22407,119.950673 L1089.26141,119.950673 L1089.26141,110.085202 Z M1027.51867,163.358744 L1023.53527,163.358744 L1023.53527,159.412556 L1027.51867,159.412556 L1027.51867,163.358744 Z M1054.40664,117.977578 L1064.36515,117.977578 L1064.36515,126.856502 L1054.40664,126.856502 L1054.40664,117.977578 Z M1020.54772,109.098655 L1029.51037,109.098655 L1029.51037,117.977578 L1020.54772,117.977578 L1020.54772,109.098655 Z M986.688797,117.977578 L995.651452,117.977578 L995.651452,126.856502 L986.688797,126.856502 L986.688797,117.977578 Z M952.829876,177.170404 L961.792531,177.170404 L961.792531,185.06278 L952.829876,185.06278 L952.829876,177.170404 Z M850.257261,144.61435 L859.219917,144.61435 L859.219917,152.506726 L850.257261,152.506726 L850.257261,144.61435 Z M816.39834,110.085202 L824.365145,110.085202 L824.365145,119.950673 L816.39834,119.950673 L816.39834,110.085202 Z M781.543568,109.098655 L786.522822,109.098655 L786.522822,113.044843 L781.543568,113.044843 L781.543568,109.098655 Z M614.240664,143.627803 L622.207469,143.627803 L622.207469,152.506726 L614.240664,152.506726 L614.240664,143.627803 Z M579.385892,109.098655 L588.348548,109.098655 L588.348548,117.977578 L579.385892,117.977578 L579.385892,109.098655 Z M510.672199,157.439462 L519.634855,157.439462 L519.634855,166.318386 L510.672199,166.318386 L510.672199,157.439462 Z M441.958506,111.071749 L450.921162,111.071749 L450.921162,119.950673 L441.958506,119.950673 L441.958506,111.071749 Z M374.240664,110.085202 L383.20332,110.085202 L383.20332,119.950673 L374.240664,119.950673 L374.240664,110.085202 Z M312.497925,163.358744 L308.514523,163.358744 L308.514523,159.412556 L312.497925,159.412556 L312.497925,163.358744 Z M340.381743,117.977578 L349.344398,117.977578 L349.344398,126.856502 L340.381743,126.856502 L340.381743,117.977578 Z M306.522822,109.098655 L314.489627,109.098655 L314.489627,117.977578 L306.522822,117.977578 L306.522822,109.098655 Z M271.66805,117.977578 L280.630705,117.977578 L280.630705,126.856502 L271.66805,126.856502 L271.66805,117.977578 Z M237.809129,177.170404 L246.771784,177.170404 L246.771784,185.06278 L237.809129,185.06278 L237.809129,177.170404 Z M136.232365,144.61435 L144.19917,144.61435 L144.19917,152.506726 L136.232365,152.506726 L136.232365,144.61435 Z M101.377593,110.085202 L111.3361,110.085202 L111.3361,119.950673 L101.377593,119.950673 L101.377593,110.085202 Z M67.5186722,109.098655 L71.5020747,109.098655 L71.5020747,113.044843 L67.5186722,113.044843 L67.5186722,109.098655 Z" id="Shape" fill="#1A9DCA" fill-rule="nonzero" transform="translate(720.000000, 131.500000) rotate(-360.000000) translate(-720.000000, -131.500000) "></path>
            <rect id="Rectangle-path" fill="#8CC396" fill-rule="nonzero" transform="translate(1201.493776, 131.704036) rotate(-360.000000) translate(-1201.493776, -131.704036) " x="1197.01245" y="127.264574" width="8.9626556" height="8.87892377"></rect>
            <rect id="Rectangle-path" fill="#8CC396" fill-rule="nonzero" transform="translate(949.045643, 69.058296) rotate(-360.000000) translate(-949.045643, -69.058296) " x="940.082988" y="60.1793722" width="17.9253112" height="17.7578475"></rect>
            <rect id="Rectangle-path" fill="#E2E0DF" fill-rule="nonzero" transform="translate(1115.352697, 64.618834) rotate(-360.000000) translate(-1115.352697, -64.618834) " x="1110.37344" y="60.1793722" width="9.95850622" height="8.87892377"></rect>
            <rect id="Rectangle-path" fill="#8CC396" fill-rule="nonzero" transform="translate(1142.240664, 40.448430) rotate(-360.000000) translate(-1142.240664, -40.448430) " x="1137.26141" y="35.5156951" width="9.95850622" height="9.86547085"></rect>
            <rect id="Rectangle-path" fill="#FFFFFF" fill-rule="nonzero" transform="translate(1214.937759, 51.300448) rotate(-360.000000) translate(-1214.937759, -51.300448) " x="1209.95851" y="46.367713" width="9.95850622" height="9.86547085"></rect>
            <rect id="Rectangle-path" fill="#E2E0DF" fill-rule="nonzero" transform="translate(849.460581, 56.233184) rotate(-360.000000) translate(-849.460581, -56.233184) " x="844.481328" y="51.3004484" width="9.95850622" height="9.86547085"></rect>
            <rect id="Rectangle-path" fill="#FFFFFF" fill-rule="nonzero" transform="translate(1397.178423, 53.766816) rotate(-360.000000) translate(-1397.178423, -53.766816) " x="1392.19917" y="49.3273543" width="9.95850622" height="8.87892377"></rect>
            <rect id="Rectangle-path" fill="#8CC396" fill-rule="nonzero" transform="translate(1359.834025, 23.183857) rotate(-360.000000) translate(-1359.834025, -23.183857) " x="1355.3527" y="18.7443946" width="8.9626556" height="8.87892377"></rect>
            <rect id="Rectangle-path" fill="#E2E0DF" fill-rule="nonzero" transform="translate(1363.319502, 90.269058) rotate(-360.000000) translate(-1363.319502, -90.269058) " x="1358.34025" y="85.8295964" width="9.95850622" height="8.87892377"></rect>
            <rect id="Rectangle-path" fill="#E2E0DF" fill-rule="nonzero" transform="translate(1250.788382, 4.439462) rotate(-360.000000) translate(-1250.788382, -4.439462) " x="1245.80913" y="1.98951966e-13" width="9.95850622" height="8.87892377"></rect>
            <rect id="Rectangle-path" fill="#E2E0DF" fill-rule="nonzero" transform="translate(1222.406639, 85.829596) rotate(-360.000000) translate(-1222.406639, -85.829596) " x="1212.94606" y="76.9506726" width="18.9211618" height="17.7578475"></rect>
            <rect id="Rectangle-path" fill="#E2E0DF" fill-rule="nonzero" transform="translate(1428.049793, 101.614350) rotate(-360.000000) translate(-1428.049793, -101.614350) " x="1419.08714" y="92.735426" width="17.9253112" height="17.7578475"></rect>
            <rect id="Rectangle-path" fill="#8CC396" fill-rule="nonzero" transform="translate(1063.568465, 97.668161) rotate(-360.000000) translate(-1063.568465, -97.668161) " x="1054.60581" y="88.7892377" width="17.9253112" height="17.7578475"></rect>
            <rect id="Rectangle-path" fill="#8CC396" fill-rule="nonzero" transform="translate(863.402490, 114.439462) rotate(-360.000000) translate(-863.402490, -114.439462) " x="854.439834" y="105.560538" width="17.9253112" height="17.7578475"></rect>
            <rect id="Rectangle-path" fill="#E2E0DF" fill-rule="nonzero" transform="translate(760.331950, 126.278027) rotate(-360.000000) translate(-760.331950, -126.278027) " x="750.871369" y="117.399103" width="18.9211618" height="17.7578475"></rect>
            <rect id="Rectangle-path" fill="#8CC396" fill-rule="nonzero" transform="translate(1325.477178, 110.493274) rotate(-360.000000) translate(-1325.477178, -110.493274) " x="1316.51452" y="101.61435" width="17.9253112" height="17.7578475"></rect>
            <rect id="Rectangle-path" fill="#E2E0DF" fill-rule="nonzero" transform="translate(1024.730290, 140.582960) rotate(-360.000000) translate(-1024.730290, -140.582960) " x="1019.75104" y="136.143498" width="9.95850622" height="8.87892377"></rect>
            <rect id="Rectangle-path" fill="#8CC396" fill-rule="nonzero" transform="translate(1183.568465, 51.793722) rotate(-360.000000) translate(-1183.568465, -51.793722) " x="1179.08714" y="47.3542601" width="8.9626556" height="8.87892377"></rect>
            <rect id="Rectangle-path" fill="#8CC396" fill-rule="nonzero" transform="translate(902.738589, 41.928251) rotate(-360.000000) translate(-902.738589, -41.928251) " x="898.257261" y="37.4887892" width="8.9626556" height="8.87892377"></rect>
            <rect id="Rectangle-path" fill="#8CC396" fill-rule="nonzero" transform="translate(902.738589, 130.717489) rotate(-360.000000) translate(-902.738589, -130.717489) " x="898.257261" y="126.278027" width="8.9626556" height="8.87892377"></rect>
            <rect id="Rectangle-path" fill="#FFFFFF" fill-rule="nonzero" transform="translate(748.381743, 114.932735) rotate(-360.000000) translate(-748.381743, -114.932735) " x="745.892116" y="112.466368" width="4.97925311" height="4.93273543"></rect>
            <rect id="Rectangle-path" fill="#FFFFFF" fill-rule="nonzero" transform="translate(1428.049793, 54.753363) rotate(-360.000000) translate(-1428.049793, -54.753363) " x="1425.56017" y="52.2869955" width="4.97925311" height="4.93273543"></rect>
            <rect id="Rectangle-path" fill="#8CC396" fill-rule="nonzero" transform="translate(1178.589212, 10.358744) rotate(-360.000000) translate(-1178.589212, -10.358744) " x="1176.09959" y="7.89237668" width="4.97925311" height="4.93273543"></rect>
            <rect id="Rectangle-path" fill="#8CC396" fill-rule="nonzero" transform="translate(375.933610, 14.304933) rotate(-360.000000) translate(-375.933610, -14.304933) " x="371.452282" y="9.86547085" width="8.9626556" height="8.87892377"></rect>
            <rect id="Rectangle-path" fill="#8CC396" fill-rule="nonzero" transform="translate(779.253112, 69.551570) rotate(-360.000000) translate(-779.253112, -69.551570) " x="770.788382" y="61.1659193" width="16.9294606" height="16.7713004"></rect>
            <rect id="Rectangle-path" fill="#E2E0DF" fill-rule="nonzero" transform="translate(451.618257, 90.269058) rotate(-360.000000) translate(-451.618257, -90.269058) " x="447.136929" y="85.8295964" width="8.9626556" height="8.87892377"></rect>
            <rect id="Rectangle-path" fill="#8CC396" fill-rule="nonzero" transform="translate(426.721992, 65.605381) rotate(-360.000000) translate(-426.721992, -65.605381) " x="422.240664" y="61.1659193" width="8.9626556" height="8.87892377"></rect>
            <rect id="Rectangle-path" fill="#FFFFFF" fill-rule="nonzero" transform="translate(362.489627, 89.775785) rotate(-360.000000) translate(-362.489627, -89.775785) " x="357.510373" y="84.8430493" width="9.95850622" height="9.86547085"></rect>
            <rect id="Rectangle-path" fill="#E2E0DF" fill-rule="nonzero" transform="translate(704.564315, 114.932735) rotate(-360.000000) translate(-704.564315, -114.932735) " x="700.082988" y="110.493274" width="8.9626556" height="8.87892377"></rect>
            <rect id="Rectangle-path" fill="#E2E0DF" fill-rule="nonzero" transform="translate(784.232365, 30.582960) rotate(-360.000000) translate(-784.232365, -30.582960) " x="779.751037" y="26.6367713" width="8.9626556" height="7.89237668"></rect>
            <rect id="Rectangle-path" fill="#FFFFFF" fill-rule="nonzero" transform="translate(170.788382, 109.013453) rotate(-360.000000) translate(-170.788382, -109.013453) " x="166.307054" y="104.573991" width="8.9626556" height="8.87892377"></rect>
            <rect id="Rectangle-path" fill="#8CC396" fill-rule="nonzero" transform="translate(222.572614, 131.704036) rotate(-360.000000) translate(-222.572614, -131.704036) " x="218.091286" y="127.264574" width="8.9626556" height="8.87892377"></rect>
            <rect id="Rectangle-path" fill="#E2E0DF" fill-rule="nonzero" transform="translate(221.576763, 82.376682) rotate(-360.000000) translate(-221.576763, -82.376682) " x="217.095436" y="77.9372197" width="8.9626556" height="8.87892377"></rect>
            <rect id="Rectangle-path" fill="#E2E0DF" fill-rule="nonzero" transform="translate(328.132780, 148.475336) rotate(-360.000000) translate(-328.132780, -148.475336) " x="323.651452" y="144.035874" width="8.9626556" height="8.87892377"></rect>
            <rect id="Rectangle-path" fill="#E2E0DF" fill-rule="nonzero" transform="translate(67.219917, 39.955157) rotate(-360.000000) translate(-67.219917, -39.955157) " x="62.7385892" y="35.5156951" width="8.9626556" height="8.87892377"></rect>
            <rect id="Rectangle-path" fill="#E2E0DF" fill-rule="nonzero" transform="translate(169.792531, 40.941704) rotate(-360.000000) translate(-169.792531, -40.941704) " x="165.311203" y="36.5022422" width="8.9626556" height="8.87892377"></rect>
            <rect id="Rectangle-path" fill="#E2E0DF" fill-rule="nonzero" transform="translate(8.464730, 130.717489) rotate(-360.000000) translate(-8.464730, -130.717489) " x="3.98340249" y="126.278027" width="8.9626556" height="8.87892377"></rect>
            <rect id="Rectangle-path" fill="#E2E0DF" fill-rule="nonzero" transform="translate(336.597510, 52.780269) rotate(-360.000000) translate(-336.597510, -52.780269) " x="328.13278" y="44.3946188" width="16.9294606" height="16.7713004"></rect>
            <rect id="Rectangle-path" fill="#8CC396" fill-rule="nonzero" transform="translate(507.385892, 68.565022) rotate(-360.000000) translate(-507.385892, -68.565022) " x="498.921162" y="60.1793722" width="16.9294606" height="16.7713004"></rect>
            <rect id="Rectangle-path" fill="#8CC396" fill-rule="nonzero" transform="translate(12.448133, 86.322870) rotate(-360.000000) translate(-12.448133, -86.322870) " x="3.98340249" y="77.9372197" width="16.9294606" height="16.7713004"></rect>
            <rect id="Rectangle-path" fill="#8CC396" fill-rule="nonzero" transform="translate(696.597510, 52.780269) rotate(-360.000000) translate(-696.597510, -52.780269) " x="688.13278" y="44.3946188" width="16.9294606" height="16.7713004"></rect>
            <rect id="Rectangle-path" fill="#8CC396" fill-rule="nonzero" transform="translate(251.950207, 52.780269) rotate(-360.000000) translate(-251.950207, -52.780269) " x="242.987552" y="44.3946188" width="17.9253112" height="16.7713004"></rect>
            <rect id="Rectangle-path" fill="#8CC396" fill-rule="nonzero" transform="translate(29.377593, 69.551570) rotate(-360.000000) translate(-29.377593, -69.551570) " x="20.9128631" y="61.1659193" width="16.9294606" height="16.7713004"></rect>
            <rect id="Rectangle-path" fill="#E2E0DF" fill-rule="nonzero" transform="translate(546.224066, 30.089686) rotate(-360.000000) translate(-546.224066, -30.089686) " x="541.742739" y="25.6502242" width="8.9626556" height="8.87892377"></rect>
            <rect id="Rectangle-path" fill="#8CC396" fill-rule="nonzero" transform="translate(393.858921, 98.161435) rotate(-360.000000) translate(-393.858921, -98.161435) " x="389.377593" y="93.7219731" width="8.9626556" height="8.87892377"></rect>
            <rect id="Rectangle-path" fill="#8CC396" fill-rule="nonzero" transform="translate(664.730290, 64.618834) rotate(-360.000000) translate(-664.730290, -64.618834) " x="660.248963" y="60.1793722" width="8.9626556" height="8.87892377"></rect>
            <rect id="Rectangle-path" fill="#8CC396" fill-rule="nonzero" transform="translate(623.900415, 39.955157) rotate(-360.000000) translate(-623.900415, -39.955157) " x="619.419087" y="35.5156951" width="8.9626556" height="8.87892377"></rect>
            <rect id="Rectangle-path" fill="#FFFFFF" fill-rule="nonzero" transform="translate(802.157676, 41.928251) rotate(-360.000000) translate(-802.157676, -41.928251) " x="799.66805" y="39.4618834" width="4.97925311" height="4.93273543"></rect>
            <rect id="Rectangle-path" fill="#FFFFFF" fill-rule="nonzero" transform="translate(155.850622, 75.470852) rotate(-360.000000) translate(-155.850622, -75.470852) " x="153.360996" y="73.0044843" width="4.97925311" height="4.93273543"></rect>
            <rect id="Rectangle-path" fill="#8CC396" fill-rule="nonzero" transform="translate(396.348548, 128.251121) rotate(-360.000000) translate(-396.348548, -128.251121) " x="394.356846" y="126.278027" width="3.98340249" height="3.94618834"></rect>
            <path d="M721.493776,132.197309 L721.493776,47.3542601" id="Shape" stroke="#FFFFFF" stroke-width="0.5" stroke-dasharray="3,2" transform="translate(722.213776, 89.775785) rotate(-360.000000) translate(-722.213776, -89.775785) "></path>
            <path d="M751.369295,164.206816 L751.369295,162.780269" id="Shape" stroke="#FFFFFF" stroke-width="0.5" stroke-dasharray="3,2" transform="translate(752.089295, 163.493543) rotate(-360.000000) translate(-752.089295, -163.493543) "></path>
            <path d="M751.369295,161.793722 L751.369295,43.4080717" id="Shape" stroke="#FFFFFF" stroke-width="0.5" stroke-dasharray="3,2" transform="translate(752.089295, 102.600897) rotate(-360.000000) translate(-752.089295, -102.600897) "></path>
            <path d="M751.369295,43.8480717 L751.369295,42.4215247" id="Shape" stroke="#FFFFFF" stroke-width="0.5" stroke-dasharray="3,2" transform="translate(752.089295, 43.134798) rotate(-360.000000) translate(-752.089295, -43.134798) "></path>
            <path d="M785.228216,179.55157 L785.228216,26.6367713" id="Shape" stroke="#FFFFFF" stroke-width="0.5" stroke-dasharray="3,2" transform="translate(785.948216, 103.094170) rotate(-360.000000) translate(-785.948216, -103.094170) "></path>
            <path d="M820.082988,149.955157 L820.082988,8.87892377" id="Shape" stroke="#FFFFFF" stroke-width="0.5" stroke-dasharray="3,2" transform="translate(820.802988, 79.417040) rotate(-360.000000) translate(-820.802988, -79.417040) "></path>
            <path d="M820.082988,9.31892377 L820.082988,7.89237668" id="Shape" stroke="#FFFFFF" stroke-width="0.5" stroke-dasharray="3,2" transform="translate(820.802988, 8.605650) rotate(-360.000000) translate(-820.802988, -8.605650) "></path>
            <path d="M853.941909,177.578475 L853.941909,44.3946188" id="Shape" stroke="#FFFFFF" stroke-width="0.5" stroke-dasharray="3,2" transform="translate(854.661909, 110.986547) rotate(-360.000000) translate(-854.661909, -110.986547) "></path>
            <path d="M888.79668,128.251121 L888.79668,26.6367713" id="Shape" stroke="#FFFFFF" stroke-width="0.5" stroke-dasharray="3,2" transform="translate(889.516680, 77.443946) rotate(-360.000000) translate(-889.516680, -77.443946) "></path>
            <path d="M922.655602,115.426009 L922.655602,1.13686838e-13" id="Shape" stroke="#FFFFFF" stroke-width="0.5" stroke-dasharray="3,2" transform="translate(923.375602, 57.713004) rotate(-360.000000) translate(-923.375602, -57.713004) "></path>
            <path d="M957.510373,117.839103 L957.510373,116.412556" id="Shape" stroke="#FFFFFF" stroke-width="0.5" stroke-dasharray="3,2" transform="translate(958.230373, 117.125830) rotate(-360.000000) translate(-958.230373, -117.125830) "></path>
            <path d="M957.510373,116.412556 L957.510373,8.87892377" id="Shape" stroke="#FFFFFF" stroke-width="0.5" stroke-dasharray="3,2" transform="translate(958.230373, 62.645740) rotate(-360.000000) translate(-958.230373, -62.645740) "></path>
            <path d="M957.510373,9.31892377 L957.510373,7.89237668" id="Shape" stroke="#FFFFFF" stroke-width="0.5" stroke-dasharray="3,2" transform="translate(958.230373, 8.605650) rotate(-360.000000) translate(-958.230373, -8.605650) "></path>
            <path d="M991.369295,130.664215 L991.369295,129.237668" id="Shape" stroke="#FFFFFF" stroke-width="0.5" stroke-dasharray="3,2" transform="translate(992.089295, 129.950942) rotate(-360.000000) translate(-992.089295, -129.950942) "></path>
            <path d="M991.369295,128.251121 L991.369295,42.4215247" id="Shape" stroke="#FFFFFF" stroke-width="0.5" stroke-dasharray="3,2" transform="translate(992.089295, 85.336323) rotate(-360.000000) translate(-992.089295, -85.336323) "></path>
            <path d="M991.369295,42.8615247 L991.369295,41.4349776" id="Shape" stroke="#FFFFFF" stroke-width="0.5" stroke-dasharray="3,2" transform="translate(992.089295, 42.148251) rotate(-360.000000) translate(-992.089295, -42.148251) "></path>
            <path d="M1025.22822,112.906368 L1025.22822,111.479821" id="Shape" stroke="#FFFFFF" stroke-width="0.5" stroke-dasharray="3,2" transform="translate(1025.948216, 112.193094) rotate(-360.000000) translate(-1025.948216, -112.193094) "></path>
            <path d="M1025.22822,111.479821 L1025.22822,60.1793722" id="Shape" stroke="#FFFFFF" stroke-width="0.5" stroke-dasharray="3,2" transform="translate(1025.948216, 85.829596) rotate(-360.000000) translate(-1025.948216, -85.829596) "></path>
            <path d="M1025.22822,60.6193722 L1025.22822,59.1928251" id="Shape" stroke="#FFFFFF" stroke-width="0.5" stroke-dasharray="3,2" transform="translate(1025.948216, 59.906099) rotate(-360.000000) translate(-1025.948216, -59.906099) "></path>
            <path d="M1060.08299,165.193363 L1060.08299,163.766816" id="Shape" stroke="#FFFFFF" stroke-width="0.5" stroke-dasharray="3,2" transform="translate(1060.802988, 164.480090) rotate(-360.000000) translate(-1060.802988, -164.480090) "></path>
            <path d="M1060.08299,162.780269 L1060.08299,42.4215247" id="Shape" stroke="#FFFFFF" stroke-width="0.5" stroke-dasharray="3,2" transform="translate(1060.802988, 102.600897) rotate(-360.000000) translate(-1060.802988, -102.600897) "></path>
            <path d="M1060.08299,42.8615247 L1060.08299,41.4349776" id="Shape" stroke="#FFFFFF" stroke-width="0.5" stroke-dasharray="3,2" transform="translate(1060.802988, 42.148251) rotate(-360.000000) translate(-1060.802988, -42.148251) "></path>
            <path d="M1093.94191,151.381704 L1093.94191,149.955157" id="Shape" stroke="#FFFFFF" stroke-width="0.5" stroke-dasharray="3,2" transform="translate(1094.661909, 150.668430) rotate(-360.000000) translate(-1094.661909, -150.668430) "></path>
            <path d="M1093.94191,149.955157 L1093.94191,76.9506726" id="Shape" stroke="#FFFFFF" stroke-width="0.5" stroke-dasharray="3,2" transform="translate(1094.661909, 113.452915) rotate(-360.000000) translate(-1094.661909, -113.452915) "></path>
            <path d="M1093.94191,77.3906726 L1093.94191,75.9641256" id="Shape" stroke="#FFFFFF" stroke-width="0.5" stroke-dasharray="3,2" transform="translate(1094.661909, 76.677399) rotate(-360.000000) translate(-1094.661909, -76.677399) "></path>
            <path d="M1128.79668,164.206816 L1128.79668,162.780269" id="Shape" stroke="#FFFFFF" stroke-width="0.5" stroke-dasharray="3,2" transform="translate(1129.516680, 163.493543) rotate(-360.000000) translate(-1129.516680, -163.493543) "></path>
            <path d="M1128.79668,162.780269 L1128.79668,44.3946188" id="Shape" stroke="#FFFFFF" stroke-width="0.5" stroke-dasharray="3,2" transform="translate(1129.516680, 103.587444) rotate(-360.000000) translate(-1129.516680, -103.587444) "></path>
            <path d="M1162.6556,161.247175 L1162.6556,159.820628" id="Shape" stroke="#FFFFFF" stroke-width="0.5" stroke-dasharray="3,2" transform="translate(1163.375602, 160.533901) rotate(-360.000000) translate(-1163.375602, -160.533901) "></path>
            <path d="M1162.6556,159.820628 L1162.6556,35.5156951" id="Shape" stroke="#FFFFFF" stroke-width="0.5" stroke-dasharray="3,2" transform="translate(1163.375602, 97.668161) rotate(-360.000000) translate(-1163.375602, -97.668161) "></path>
            <path d="M1162.6556,35.9556951 L1162.6556,34.529148" id="Shape" stroke="#FFFFFF" stroke-width="0.5" stroke-dasharray="3,2" transform="translate(1163.375602, 35.242422) rotate(-360.000000) translate(-1163.375602, -35.242422) "></path>
            <path d="M1196.51452,142.06278 L1196.51452,21.7040359" id="Shape" stroke="#FFFFFF" stroke-width="0.5" stroke-dasharray="3,2" transform="translate(1197.234523, 81.883408) rotate(-360.000000) translate(-1197.234523, -81.883408) "></path>
            <path d="M1196.51452,22.1440359 L1196.51452,20.7174888" id="Shape" stroke="#FFFFFF" stroke-width="0.5" stroke-dasharray="3,2" transform="translate(1197.234523, 21.430762) rotate(-360.000000) translate(-1197.234523, -21.430762) "></path>
            <path d="M1231.36929,115.426009 L1231.36929,8.87892377" id="Shape" stroke="#FFFFFF" stroke-width="0.5" stroke-dasharray="3,2" transform="translate(1232.089295, 62.152466) rotate(-360.000000) translate(-1232.089295, -62.152466) "></path>
            <path d="M1231.36929,9.31892377 L1231.36929,7.89237668" id="Shape" stroke="#FFFFFF" stroke-width="0.5" stroke-dasharray="3,2" transform="translate(1232.089295, 8.605650) rotate(-360.000000) translate(-1232.089295, -8.605650) "></path>
            <path d="M1265.22822,117.839103 L1265.22822,116.412556" id="Shape" stroke="#FFFFFF" stroke-width="0.5" stroke-dasharray="3,2" transform="translate(1265.948216, 117.125830) rotate(-360.000000) translate(-1265.948216, -117.125830) "></path>
            <path d="M1265.22822,115.426009 L1265.22822,76.9506726" id="Shape" stroke="#FFFFFF" stroke-width="0.5" stroke-dasharray="3,2" transform="translate(1265.948216, 96.188341) rotate(-360.000000) translate(-1265.948216, -96.188341) "></path>
            <path d="M1265.22822,77.3906726 L1265.22822,75.9641256" id="Shape" stroke="#FFFFFF" stroke-width="0.5" stroke-dasharray="3,2" transform="translate(1265.948216, 76.677399) rotate(-360.000000) translate(-1265.948216, -76.677399) "></path>
            <path d="M1300.08299,157.847534 L1300.08299,8.87892377" id="Shape" stroke="#FFFFFF" stroke-width="0.5" stroke-dasharray="3,2" transform="translate(1300.802988, 83.363229) rotate(-360.000000) translate(-1300.802988, -83.363229) "></path>
            <path d="M1300.08299,9.31892377 L1300.08299,7.89237668" id="Shape" stroke="#FFFFFF" stroke-width="0.5" stroke-dasharray="3,2" transform="translate(1300.802988, 8.605650) rotate(-360.000000) translate(-1300.802988, -8.605650) "></path>
            <path d="M1333.94191,112.906368 L1333.94191,111.479821" id="Shape" stroke="#FFFFFF" stroke-width="0.5" stroke-dasharray="3,2" transform="translate(1334.661909, 112.193094) rotate(-360.000000) translate(-1334.661909, -112.193094) "></path>
            <path d="M1333.94191,111.479821 L1333.94191,43.4080717" id="Shape" stroke="#FFFFFF" stroke-width="0.5" stroke-dasharray="3,2" transform="translate(1334.661909, 77.443946) rotate(-360.000000) translate(-1334.661909, -77.443946) "></path>
            <path d="M1333.94191,43.8480717 L1333.94191,42.4215247" id="Shape" stroke="#FFFFFF" stroke-width="0.5" stroke-dasharray="3,2" transform="translate(1334.661909, 43.134798) rotate(-360.000000) translate(-1334.661909, -43.134798) "></path>
            <path d="M1367.80083,164.206816 L1367.80083,162.780269" id="Shape" stroke="#FFFFFF" stroke-width="0.5" stroke-dasharray="3,2" transform="translate(1368.520830, 163.493543) rotate(-360.000000) translate(-1368.520830, -163.493543) "></path>
            <path d="M1367.80083,162.780269 L1367.80083,44.3946188" id="Shape" stroke="#FFFFFF" stroke-width="0.5" stroke-dasharray="3,2" transform="translate(1368.520830, 103.587444) rotate(-360.000000) translate(-1368.520830, -103.587444) "></path>
            <path d="M1402.6556,134.610404 L1402.6556,133.183857" id="Shape" stroke="#FFFFFF" stroke-width="0.5" stroke-dasharray="3,2" transform="translate(1403.375602, 133.897130) rotate(-360.000000) translate(-1403.375602, -133.897130) "></path>
            <path d="M1402.6556,132.197309 L1402.6556,8.87892377" id="Shape" stroke="#FFFFFF" stroke-width="0.5" stroke-dasharray="3,2" transform="translate(1403.375602, 70.538117) rotate(-360.000000) translate(-1403.375602, -70.538117) "></path>
            <path d="M1402.6556,9.31892377 L1402.6556,7.89237668" id="Shape" stroke="#FFFFFF" stroke-width="0.5" stroke-dasharray="3,2" transform="translate(1403.375602, 8.605650) rotate(-360.000000) translate(-1403.375602, -8.605650) "></path>
            <path d="M1436.51452,138.556592 L1436.51452,137.130045" id="Shape" stroke="#FFFFFF" stroke-width="0.5" stroke-dasharray="3,2" transform="translate(1437.234523, 137.843318) rotate(-360.000000) translate(-1437.234523, -137.843318) "></path>
            <path d="M1436.51452,137.130045 L1436.51452,51.3004484" id="Shape" stroke="#FFFFFF" stroke-width="0.5" stroke-dasharray="3,2" transform="translate(1437.234523, 94.215247) rotate(-360.000000) translate(-1437.234523, -94.215247) "></path>
            <path d="M1436.51452,51.7404484 L1436.51452,50.3139013" id="Shape" stroke="#FFFFFF" stroke-width="0.5" stroke-dasharray="3,2" transform="translate(1437.234523, 51.027175) rotate(-360.000000) translate(-1437.234523, -51.027175) "></path>
            <path d="M734.439834,127.704574 L734.439834,126.278027" id="Shape" stroke="#FFFFFF" stroke-width="0.5" stroke-dasharray="3,2" transform="translate(735.159834, 126.991300) rotate(-360.000000) translate(-735.159834, -126.991300) "></path>
            <path d="M734.439834,126.278027 L734.439834,23.67713" id="Shape" stroke="#FFFFFF" stroke-width="0.5" stroke-dasharray="3,2" transform="translate(735.159834, 74.977578) rotate(-360.000000) translate(-735.159834, -74.977578) "></path>
            <path d="M734.439834,24.11713 L734.439834,22.690583" id="Shape" stroke="#FFFFFF" stroke-width="0.5" stroke-dasharray="3,2" transform="translate(735.159834, 23.403857) rotate(-360.000000) translate(-735.159834, -23.403857) "></path>
            <path d="M768.298755,144.035874 L768.298755,26.6367713" id="Shape" stroke="#FFFFFF" stroke-width="0.5" stroke-dasharray="3,2" transform="translate(769.018755, 85.336323) rotate(-360.000000) translate(-769.018755, -85.336323) "></path>
            <path d="M803.153527,119.372197 L803.153527,8.87892377" id="Shape" stroke="#FFFFFF" stroke-width="0.5" stroke-dasharray="3,2" transform="translate(803.873527, 64.125561) rotate(-360.000000) translate(-803.873527, -64.125561) "></path>
            <path d="M803.153527,9.31892377 L803.153527,7.89237668" id="Shape" stroke="#FFFFFF" stroke-width="0.5" stroke-dasharray="3,2" transform="translate(803.873527, 8.605650) rotate(-360.000000) translate(-803.873527, -8.605650) "></path>
            <path d="M837.012448,149.955157 L837.012448,44.3946188" id="Shape" stroke="#FFFFFF" stroke-width="0.5" stroke-dasharray="3,2" transform="translate(837.732448, 97.174888) rotate(-360.000000) translate(-837.732448, -97.174888) "></path>
            <path d="M870.871369,144.035874 L870.871369,26.6367713" id="Shape" stroke="#FFFFFF" stroke-width="0.5" stroke-dasharray="3,2" transform="translate(871.591369, 85.336323) rotate(-360.000000) translate(-871.591369, -85.336323) "></path>
            <path d="M905.726141,110.933274 L905.726141,109.506726" id="Shape" stroke="#FFFFFF" stroke-width="0.5" stroke-dasharray="3,2" transform="translate(906.446141, 110.220000) rotate(-360.000000) translate(-906.446141, -110.220000) "></path>
            <path d="M905.726141,109.506726 L905.726141,1.13686838e-13" id="Shape" stroke="#FFFFFF" stroke-width="0.5" stroke-dasharray="3,2" transform="translate(906.446141, 54.753363) rotate(-360.000000) translate(-906.446141, -54.753363) "></path>
            <path d="M939.585062,85.2830493 L939.585062,83.8565022" id="Shape" stroke="#FFFFFF" stroke-width="0.5" stroke-dasharray="3,2" transform="translate(940.305062, 84.569776) rotate(-360.000000) translate(-940.305062, -84.569776) "></path>
            <path d="M939.585062,82.8699552 L939.585062,8.87892377" id="Shape" stroke="#FFFFFF" stroke-width="0.5" stroke-dasharray="3,2" transform="translate(940.305062, 45.874439) rotate(-360.000000) translate(-940.305062, -45.874439) "></path>
            <path d="M939.585062,9.31892377 L939.585062,7.89237668" id="Shape" stroke="#FFFFFF" stroke-width="0.5" stroke-dasharray="3,2" transform="translate(940.305062, 8.605650) rotate(-360.000000) translate(-940.305062, -8.605650) "></path>
            <path d="M974.439834,120.798744 L974.439834,119.372197" id="Shape" stroke="#FFFFFF" stroke-width="0.5" stroke-dasharray="3,2" transform="translate(975.159834, 120.085471) rotate(-360.000000) translate(-975.159834, -120.085471) "></path>
            <path d="M974.439834,119.372197 L974.439834,42.4215247" id="Shape" stroke="#FFFFFF" stroke-width="0.5" stroke-dasharray="3,2" transform="translate(975.159834, 80.896861) rotate(-360.000000) translate(-975.159834, -80.896861) "></path>
            <path d="M974.439834,42.8615247 L974.439834,41.4349776" id="Shape" stroke="#FFFFFF" stroke-width="0.5" stroke-dasharray="3,2" transform="translate(975.159834, 42.148251) rotate(-360.000000) translate(-975.159834, -42.148251) "></path>
            <path d="M1008.29876,120.798744 L1008.29876,119.372197" id="Shape" stroke="#FFFFFF" stroke-width="0.5" stroke-dasharray="3,2" transform="translate(1009.018755, 120.085471) rotate(-360.000000) translate(-1009.018755, -120.085471) "></path>
            <path d="M1008.29876,119.372197 L1008.29876,60.1793722" id="Shape" stroke="#FFFFFF" stroke-width="0.5" stroke-dasharray="3,2" transform="translate(1009.018755, 89.775785) rotate(-360.000000) translate(-1009.018755, -89.775785) "></path>
            <path d="M1008.29876,60.6193722 L1008.29876,59.1928251" id="Shape" stroke="#FFFFFF" stroke-width="0.5" stroke-dasharray="3,2" transform="translate(1009.018755, 59.906099) rotate(-360.000000) translate(-1009.018755, -59.906099) "></path>
            <path d="M1043.15353,104.027444 L1043.15353,102.600897" id="Shape" stroke="#FFFFFF" stroke-width="0.5" stroke-dasharray="3,2" transform="translate(1043.873527, 103.314170) rotate(-360.000000) translate(-1043.873527, -103.314170) "></path>
            <path d="M1043.15353,102.600897 L1043.15353,43.4080717" id="Shape" stroke="#FFFFFF" stroke-width="0.5" stroke-dasharray="3,2" transform="translate(1043.873527, 73.004484) rotate(-360.000000) translate(-1043.873527, -73.004484) "></path>
            <path d="M1043.15353,42.8615247 L1043.15353,41.4349776" id="Shape" stroke="#FFFFFF" stroke-width="0.5" stroke-dasharray="3,2" transform="translate(1043.873527, 42.148251) rotate(-360.000000) translate(-1043.873527, -42.148251) "></path>
            <path d="M1077.01245,120.798744 L1077.01245,119.372197" id="Shape" stroke="#FFFFFF" stroke-width="0.5" stroke-dasharray="3,2" transform="translate(1077.732448, 120.085471) rotate(-360.000000) translate(-1077.732448, -120.085471) "></path>
            <path d="M1077.01245,119.372197 L1077.01245,76.9506726" id="Shape" stroke="#FFFFFF" stroke-width="0.5" stroke-dasharray="3,2" transform="translate(1077.732448, 98.161435) rotate(-360.000000) translate(-1077.732448, -98.161435) "></path>
            <path d="M1077.01245,77.3906726 L1077.01245,75.9641256" id="Shape" stroke="#FFFFFF" stroke-width="0.5" stroke-dasharray="3,2" transform="translate(1077.732448, 76.677399) rotate(-360.000000) translate(-1077.732448, -76.677399) "></path>
            <path d="M1110.87137,126.278027 L1110.87137,44.3946188" id="Shape" stroke="#FFFFFF" stroke-width="0.5" stroke-dasharray="3,2" transform="translate(1111.591369, 85.336323) rotate(-360.000000) translate(-1111.591369, -85.336323) "></path>
            <path d="M1145.72614,131.210762 L1145.72614,35.5156951" id="Shape" stroke="#FFFFFF" stroke-width="0.5" stroke-dasharray="3,2" transform="translate(1146.446141, 83.363229) rotate(-360.000000) translate(-1146.446141, -83.363229) "></path>
            <path d="M1145.72614,35.9556951 L1145.72614,34.529148" id="Shape" stroke="#FFFFFF" stroke-width="0.5" stroke-dasharray="3,2" transform="translate(1146.446141, 35.242422) rotate(-360.000000) translate(-1146.446141, -35.242422) "></path>
            <path d="M1179.58506,134.610404 L1179.58506,133.183857" id="Shape" stroke="#FFFFFF" stroke-width="0.5" stroke-dasharray="3,2" transform="translate(1180.305062, 133.897130) rotate(-360.000000) translate(-1180.305062, -133.897130) "></path>
            <path d="M1179.58506,132.197309 L1179.58506,21.7040359" id="Shape" stroke="#FFFFFF" stroke-width="0.5" stroke-dasharray="3,2" transform="translate(1180.305062, 76.950673) rotate(-360.000000) translate(-1180.305062, -76.950673) "></path>
            <path d="M1179.58506,22.1440359 L1179.58506,20.7174888" id="Shape" stroke="#FFFFFF" stroke-width="0.5" stroke-dasharray="3,2" transform="translate(1180.305062, 21.430762) rotate(-360.000000) translate(-1180.305062, -21.430762) "></path>
            <path d="M1214.43983,146.448969 L1214.43983,145.022422" id="Shape" stroke="#FFFFFF" stroke-width="0.5" stroke-dasharray="3,2" transform="translate(1215.159834, 145.735695) rotate(-360.000000) translate(-1215.159834, -145.735695) "></path>
            <path d="M1214.43983,144.035874 L1214.43983,8.87892377" id="Shape" stroke="#FFFFFF" stroke-width="0.5" stroke-dasharray="3,2" transform="translate(1215.159834, 76.457399) rotate(-360.000000) translate(-1215.159834, -76.457399) "></path>
            <path d="M1214.43983,9.31892377 L1214.43983,7.89237668" id="Shape" stroke="#FFFFFF" stroke-width="0.5" stroke-dasharray="3,2" transform="translate(1215.159834, 8.605650) rotate(-360.000000) translate(-1215.159834, -8.605650) "></path>
            <path d="M1248.29876,110.933274 L1248.29876,109.506726" id="Shape" stroke="#FFFFFF" stroke-width="0.5" stroke-dasharray="3,2" transform="translate(1249.018755, 110.220000) rotate(-360.000000) translate(-1249.018755, -110.220000) "></path>
            <path d="M1248.29876,109.506726 L1248.29876,73.0044843" id="Shape" stroke="#FFFFFF" stroke-width="0.5" stroke-dasharray="3,2" transform="translate(1249.018755, 91.255605) rotate(-360.000000) translate(-1249.018755, -91.255605) "></path>
            <path d="M1248.29876,73.4444843 L1248.29876,72.0179372" id="Shape" stroke="#FFFFFF" stroke-width="0.5" stroke-dasharray="3,2" transform="translate(1249.018755, 72.731211) rotate(-360.000000) translate(-1249.018755, -72.731211) "></path>
            <path d="M1282.15768,110.933274 L1282.15768,109.506726" id="Shape" stroke="#FFFFFF" stroke-width="0.5" stroke-dasharray="3,2" transform="translate(1282.877676, 110.220000) rotate(-360.000000) translate(-1282.877676, -110.220000) "></path>
            <path d="M1282.15768,109.506726 L1282.15768,8.87892377" id="Shape" stroke="#FFFFFF" stroke-width="0.5" stroke-dasharray="3,2" transform="translate(1282.877676, 59.192825) rotate(-360.000000) translate(-1282.877676, -59.192825) "></path>
            <path d="M1282.15768,9.31892377 L1282.15768,7.89237668" id="Shape" stroke="#FFFFFF" stroke-width="0.5" stroke-dasharray="3,2" transform="translate(1282.877676, 8.605650) rotate(-360.000000) translate(-1282.877676, -8.605650) "></path>
            <path d="M1317.01245,146.448969 L1317.01245,145.022422" id="Shape" stroke="#FFFFFF" stroke-width="0.5" stroke-dasharray="3,2" transform="translate(1317.732448, 145.735695) rotate(-360.000000) translate(-1317.732448, -145.735695) "></path>
            <path d="M1317.01245,144.035874 L1317.01245,43.4080717" id="Shape" stroke="#FFFFFF" stroke-width="0.5" stroke-dasharray="3,2" transform="translate(1317.732448, 93.721973) rotate(-360.000000) translate(-1317.732448, -93.721973) "></path>
            <path d="M1317.01245,43.8480717 L1317.01245,42.4215247" id="Shape" stroke="#FFFFFF" stroke-width="0.5" stroke-dasharray="3,2" transform="translate(1317.732448, 43.134798) rotate(-360.000000) translate(-1317.732448, -43.134798) "></path>
            <path d="M1350.87137,118.82565 L1350.87137,117.399103" id="Shape" stroke="#FFFFFF" stroke-width="0.5" stroke-dasharray="3,2" transform="translate(1351.591369, 118.112377) rotate(-360.000000) translate(-1351.591369, -118.112377) "></path>
            <path d="M1350.87137,117.399103 L1350.87137,44.3946188" id="Shape" stroke="#FFFFFF" stroke-width="0.5" stroke-dasharray="3,2" transform="translate(1351.591369, 80.896861) rotate(-360.000000) translate(-1351.591369, -80.896861) "></path>
            <path d="M1385.72614,100.627803 L1385.72614,8.87892377" id="Shape" stroke="#FFFFFF" stroke-width="0.5" stroke-dasharray="3,2" transform="translate(1386.446141, 54.753363) rotate(-360.000000) translate(-1386.446141, -54.753363) "></path>
            <path d="M1385.72614,9.31892377 L1385.72614,7.89237668" id="Shape" stroke="#FFFFFF" stroke-width="0.5" stroke-dasharray="3,2" transform="translate(1386.446141, 8.605650) rotate(-360.000000) translate(-1386.446141, -8.605650) "></path>
            <path d="M1419.58506,145.462422 L1419.58506,144.035874" id="Shape" stroke="#FFFFFF" stroke-width="0.5" stroke-dasharray="3,2" transform="translate(1420.305062, 144.749148) rotate(-360.000000) translate(-1420.305062, -144.749148) "></path>
            <path d="M1419.58506,143.049327 L1419.58506,28.6098655" id="Shape" stroke="#FFFFFF" stroke-width="0.5" stroke-dasharray="3,2" transform="translate(1420.305062, 85.829596) rotate(-360.000000) translate(-1420.305062, -85.829596) "></path>
            <path d="M1419.58506,28.0633184 L1419.58506,26.6367713" id="Shape" stroke="#FFFFFF" stroke-width="0.5" stroke-dasharray="3,2" transform="translate(1420.305062, 27.350045) rotate(-360.000000) translate(-1420.305062, -27.350045) "></path>
            <path d="M1143.68066,110.986547 L1142.24066,110.986547" id="Shape" stroke="#FFFFFF" stroke-width="0.5" stroke-dasharray="3,2" transform="translate(1142.960664, 111.699821) rotate(-360.000000) translate(-1142.960664, -111.699821) "></path>
            <path d="M1141.24481,110.986547 L1006.80498,110.986547" id="Shape" stroke="#FFFFFF" stroke-width="0.5" stroke-dasharray="3,2" transform="translate(1074.024896, 111.699821) rotate(-360.000000) translate(-1074.024896, -111.699821) "></path>
            <path d="M1007.24913,110.986547 L1005.80913,110.986547" id="Shape" stroke="#FFFFFF" stroke-width="0.5" stroke-dasharray="3,2" transform="translate(1006.529129, 111.699821) rotate(-360.000000) translate(-1006.529129, -111.699821) "></path>
            <path d="M1324.92548,110.986547 L1323.48548,110.986547" id="Shape" stroke="#FFFFFF" stroke-width="0.5" stroke-dasharray="3,2" transform="translate(1324.205477, 111.699821) rotate(-360.000000) translate(-1324.205477, -111.699821) "></path>
            <path d="M1323.48548,110.986547 L1188.04979,110.986547" id="Shape" stroke="#FFFFFF" stroke-width="0.5" stroke-dasharray="3,2" transform="translate(1255.767635, 111.699821) rotate(-360.000000) translate(-1255.767635, -111.699821) "></path>
            <path d="M1188.49394,110.986547 L1187.05394,110.986547" id="Shape" stroke="#FFFFFF" stroke-width="0.5" stroke-dasharray="3,2" transform="translate(1187.773942, 111.699821) rotate(-360.000000) translate(-1187.773942, -111.699821) "></path>
            <path d="M1437.4566,110.986547 L1436.0166,110.986547" id="Shape" stroke="#FFFFFF" stroke-width="0.5" stroke-dasharray="3,2" transform="translate(1436.736598, 111.699821) rotate(-360.000000) translate(-1436.736598, -111.699821) "></path>
            <path d="M1435.02075,110.986547 L1395.18672,110.986547" id="Shape" stroke="#FFFFFF" stroke-width="0.5" stroke-dasharray="3,2" transform="translate(1415.103734, 111.699821) rotate(-360.000000) translate(-1415.103734, -111.699821) "></path>
            <path d="M916.182573,110.986547 L781.742739,110.986547" id="Shape" stroke="#FFFFFF" stroke-width="0.5" stroke-dasharray="3,2" transform="translate(848.962656, 111.699821) rotate(-360.000000) translate(-848.962656, -111.699821) "></path>
            <path d="M971.398506,76.4573991 L969.958506,76.4573991" id="Shape" stroke="#FFFFFF" stroke-width="0.5" stroke-dasharray="3,2" transform="translate(970.678506, 77.170673) rotate(-360.000000) translate(-970.678506, -77.170673) "></path>
            <path d="M969.958506,76.4573991 L868.381743,76.4573991" id="Shape" stroke="#FFFFFF" stroke-width="0.5" stroke-dasharray="3,2" transform="translate(919.170124, 77.170673) rotate(-360.000000) translate(-919.170124, -77.170673) "></path>
            <path d="M868.825892,76.4573991 L867.385892,76.4573991" id="Shape" stroke="#FFFFFF" stroke-width="0.5" stroke-dasharray="3,2" transform="translate(868.105892, 77.170673) rotate(-360.000000) translate(-868.105892, -77.170673) "></path>
            <path d="M1437.4566,127.757848 L1436.0166,127.757848" id="Shape" stroke="#FFFFFF" stroke-width="0.5" stroke-dasharray="3,2" transform="translate(1436.736598, 128.471121) rotate(-360.000000) translate(-1436.736598, -128.471121) "></path>
            <path d="M713.473195,127.757848 L712.033195,127.757848" id="Shape" stroke="#FFFFFF" stroke-width="0.5" stroke-dasharray="3,2" transform="translate(712.753195, 128.471121) rotate(-360.000000) translate(-712.753195, -128.471121) "></path>
            <path d="M1437.4566,93.2286996 L1436.0166,93.2286996" id="Shape" stroke="#FFFFFF" stroke-width="0.5" stroke-dasharray="3,2" transform="translate(1436.736598, 93.941973) rotate(-360.000000) translate(-1436.736598, -93.941973) "></path>
            <path d="M1436.0166,93.2286996 L1369.29461,93.2286996" id="Shape" stroke="#FFFFFF" stroke-width="0.5" stroke-dasharray="3,2" transform="translate(1402.655602, 93.941973) rotate(-360.000000) translate(-1402.655602, -93.941973) "></path>
            <path d="M1369.73876,93.2286996 L1368.29876,93.2286996" id="Shape" stroke="#FFFFFF" stroke-width="0.5" stroke-dasharray="3,2" transform="translate(1369.018755, 93.941973) rotate(-360.000000) translate(-1369.018755, -93.941973) "></path>
            <path d="M954.469046,59.6860987 L953.029046,59.6860987" id="Shape" stroke="#FFFFFF" stroke-width="0.5" stroke-dasharray="3,2" transform="translate(953.749046, 60.399372) rotate(-360.000000) translate(-953.749046, -60.399372) "></path>
            <path d="M952.033195,59.6860987 L886.307054,59.6860987" id="Shape" stroke="#FFFFFF" stroke-width="0.5" stroke-dasharray="3,2" transform="translate(919.170124, 60.399372) rotate(-360.000000) translate(-919.170124, -60.399372) "></path>
            <path d="M885.755353,59.6860987 L884.315353,59.6860987" id="Shape" stroke="#FFFFFF" stroke-width="0.5" stroke-dasharray="3,2" transform="translate(885.035353, 60.399372) rotate(-360.000000) translate(-885.035353, -60.399372) "></path>
            <path d="M954.469046,41.9282511 L953.029046,41.9282511" id="Shape" stroke="#FFFFFF" stroke-width="0.5" stroke-dasharray="3,2" transform="translate(953.749046, 42.641525) rotate(-360.000000) translate(-953.749046, -42.641525) "></path>
            <path d="M952.033195,41.9282511 L886.307054,41.9282511" id="Shape" stroke="#FFFFFF" stroke-width="0.5" stroke-dasharray="3,2" transform="translate(919.170124, 42.641525) rotate(-360.000000) translate(-919.170124, -42.641525) "></path>
            <path d="M885.755353,41.9282511 L884.315353,41.9282511" id="Shape" stroke="#FFFFFF" stroke-width="0.5" stroke-dasharray="3,2" transform="translate(885.035353, 42.641525) rotate(-360.000000) translate(-885.035353, -42.641525) "></path>
            <path d="M1056.59751,76.4573991 L988.879668,76.4573991" id="Shape" stroke="#FFFFFF" stroke-width="0.5" stroke-dasharray="3,2" transform="translate(1022.738589, 77.170673) rotate(-360.000000) translate(-1022.738589, -77.170673) "></path>
            <path d="M989.323817,76.4573991 L987.883817,76.4573991" id="Shape" stroke="#FFFFFF" stroke-width="0.5" stroke-dasharray="3,2" transform="translate(988.603817, 77.170673) rotate(-360.000000) translate(-988.603817, -77.170673) "></path>
            <path d="M971.398506,93.2286996 L969.958506,93.2286996" id="Shape" stroke="#FFFFFF" stroke-width="0.5" stroke-dasharray="3,2" transform="translate(970.678506, 93.941973) rotate(-360.000000) translate(-970.678506, -93.941973) "></path>
            <path d="M969.958506,93.2286996 L868.381743,93.2286996" id="Shape" stroke="#FFFFFF" stroke-width="0.5" stroke-dasharray="3,2" transform="translate(919.170124, 93.941973) rotate(-360.000000) translate(-919.170124, -93.941973) "></path>
            <path d="M868.825892,93.2286996 L867.385892,93.2286996" id="Shape" stroke="#FFFFFF" stroke-width="0.5" stroke-dasharray="3,2" transform="translate(868.105892, 93.941973) rotate(-360.000000) translate(-868.105892, -93.941973) "></path>
            <path d="M848.46473,93.2286996 L747.883817,93.2286996" id="Shape" stroke="#FFFFFF" stroke-width="0.5" stroke-dasharray="3,2" transform="translate(798.174274, 93.941973) rotate(-360.000000) translate(-798.174274, -93.941973) "></path>
            <path d="M1058.03751,93.2286996 L1056.59751,93.2286996" id="Shape" stroke="#FFFFFF" stroke-width="0.5" stroke-dasharray="3,2" transform="translate(1057.317510, 93.941973) rotate(-360.000000) translate(-1057.317510, -93.941973) "></path>
            <path d="M1055.60166,93.2286996 L988.879668,93.2286996" id="Shape" stroke="#FFFFFF" stroke-width="0.5" stroke-dasharray="3,2" transform="translate(1022.240664, 93.941973) rotate(-360.000000) translate(-1022.240664, -93.941973) "></path>
            <path d="M989.323817,93.2286996 L987.883817,93.2286996" id="Shape" stroke="#FFFFFF" stroke-width="0.5" stroke-dasharray="3,2" transform="translate(988.603817, 93.941973) rotate(-360.000000) translate(-988.603817, -93.941973) "></path>
            <path d="M1143.68066,93.2286996 L1142.24066,93.2286996" id="Shape" stroke="#FFFFFF" stroke-width="0.5" stroke-dasharray="3,2" transform="translate(1142.960664, 93.941973) rotate(-360.000000) translate(-1142.960664, -93.941973) "></path>
            <path d="M1142.24066,93.2286996 L1058.58921,93.2286996" id="Shape" stroke="#FFFFFF" stroke-width="0.5" stroke-dasharray="3,2" transform="translate(1100.414938, 93.941973) rotate(-360.000000) translate(-1100.414938, -93.941973) "></path>
            <path d="M1261.19104,76.4573991 L1259.75104,76.4573991" id="Shape" stroke="#FFFFFF" stroke-width="0.5" stroke-dasharray="3,2" transform="translate(1260.471037, 77.170673) rotate(-360.000000) translate(-1260.471037, -77.170673) "></path>
            <path d="M1258.75519,76.4573991 L1175.10373,76.4573991" id="Shape" stroke="#FFFFFF" stroke-width="0.5" stroke-dasharray="3,2" transform="translate(1216.929461, 77.170673) rotate(-360.000000) translate(-1216.929461, -77.170673) "></path>
            <path d="M1175.54788,76.4573991 L1174.10788,76.4573991" id="Shape" stroke="#FFFFFF" stroke-width="0.5" stroke-dasharray="3,2" transform="translate(1174.827884, 77.170673) rotate(-360.000000) translate(-1174.827884, -77.170673) "></path>
            <path d="M1245.80913,59.6860987 L1196.0166,59.6860987" id="Shape" stroke="#FFFFFF" stroke-width="0.5" stroke-dasharray="3,2" transform="translate(1220.912863, 60.399372) rotate(-360.000000) translate(-1220.912863, -60.399372) "></path>
            <path d="M1196.46075,59.6860987 L1195.02075,59.6860987" id="Shape" stroke="#FFFFFF" stroke-width="0.5" stroke-dasharray="3,2" transform="translate(1195.740747, 60.399372) rotate(-360.000000) translate(-1195.740747, -60.399372) "></path>
            <path d="M1437.4566,76.4573991 L1436.0166,76.4573991" id="Shape" stroke="#FFFFFF" stroke-width="0.5" stroke-dasharray="3,2" transform="translate(1436.736598, 77.170673) rotate(-360.000000) translate(-1436.736598, -77.170673) "></path>
            <path d="M1436.0166,76.4573991 L1371.28631,76.4573991" id="Shape" stroke="#FFFFFF" stroke-width="0.5" stroke-dasharray="3,2" transform="translate(1403.651452, 77.170673) rotate(-360.000000) translate(-1403.651452, -77.170673) "></path>
            <path d="M1370.73461,76.4573991 L1369.29461,76.4573991" id="Shape" stroke="#FFFFFF" stroke-width="0.5" stroke-dasharray="3,2" transform="translate(1370.014606, 77.170673) rotate(-360.000000) translate(-1370.014606, -77.170673) "></path>
            <path d="M1350.81759,93.2286996 L1349.37759,93.2286996" id="Shape" stroke="#FFFFFF" stroke-width="0.5" stroke-dasharray="3,2" transform="translate(1350.097593, 93.941973) rotate(-360.000000) translate(-1350.097593, -93.941973) "></path>
            <path d="M1348.38174,93.2286996 L1283.65145,93.2286996" id="Shape" stroke="#FFFFFF" stroke-width="0.5" stroke-dasharray="3,2" transform="translate(1316.016598, 93.941973) rotate(-360.000000) translate(-1316.016598, -93.941973) "></path>
            <path d="M1284.0956,93.2286996 L1282.6556,93.2286996" id="Shape" stroke="#FFFFFF" stroke-width="0.5" stroke-dasharray="3,2" transform="translate(1283.375602, 93.941973) rotate(-360.000000) translate(-1283.375602, -93.941973) "></path>
            <path d="M1162.15768,93.2286996 L1263.73444,93.2286996" id="Shape" stroke="#FFFFFF" stroke-width="0.5" stroke-dasharray="3,2" transform="translate(1212.946058, 93.941973) rotate(-360.000000) translate(-1212.946058, -93.941973) "></path>
            <path d="M1263.73444,93.2286996 L1265.17444,93.2286996" id="Shape" stroke="#FFFFFF" stroke-width="0.5" stroke-dasharray="3,2" transform="translate(1264.454440, 93.941973) rotate(-360.000000) translate(-1264.454440, -93.941973) "></path>
            <rect id="Rectangle-path" stroke="#FFFFFF" stroke-width="0.5" stroke-dasharray="3,2" transform="translate(919.170124, 127.264574) rotate(-360.000000) translate(-919.170124, -127.264574) " x="901.742739" y="110" width="34.8547718" height="34.529148"></rect>
            <path d="M689.626556,161.793722 L689.626556,43.4080717" id="Shape" stroke="#FFFFFF" stroke-width="0.5" stroke-dasharray="3,2" transform="translate(690.346556, 102.600897) rotate(-360.000000) translate(-690.346556, -102.600897) "></path>
            <path d="M689.626556,43.8480717 L689.626556,42.4215247" id="Shape" stroke="#FFFFFF" stroke-width="0.5" stroke-dasharray="3,2" transform="translate(690.346556, 43.134798) rotate(-360.000000) translate(-690.346556, -43.134798) "></path>
            <path d="M654.771784,179.55157 L654.771784,26.6367713" id="Shape" stroke="#FFFFFF" stroke-width="0.5" stroke-dasharray="3,2" transform="translate(655.491784, 103.094170) rotate(-360.000000) translate(-655.491784, -103.094170) "></path>
            <path d="M654.771784,26.0902242 L654.771784,24.6636771" id="Shape" stroke="#FFFFFF" stroke-width="0.5" stroke-dasharray="3,2" transform="translate(655.491784, 25.376951) rotate(-360.000000) translate(-655.491784, -25.376951) "></path>
            <path d="M620.912863,151.381704 L620.912863,149.955157" id="Shape" stroke="#FFFFFF" stroke-width="0.5" stroke-dasharray="3,2" transform="translate(621.632863, 150.668430) rotate(-360.000000) translate(-621.632863, -150.668430) "></path>
            <path d="M620.912863,149.955157 L620.912863,8.87892377" id="Shape" stroke="#FFFFFF" stroke-width="0.5" stroke-dasharray="3,2" transform="translate(621.632863, 79.417040) rotate(-360.000000) translate(-621.632863, -79.417040) "></path>
            <path d="M620.912863,9.31892377 L620.912863,7.89237668" id="Shape" stroke="#FFFFFF" stroke-width="0.5" stroke-dasharray="3,2" transform="translate(621.632863, 8.605650) rotate(-360.000000) translate(-621.632863, -8.605650) "></path>
            <path d="M586.058091,179.005022 L586.058091,177.578475" id="Shape" stroke="#FFFFFF" stroke-width="0.5" stroke-dasharray="3,2" transform="translate(586.778091, 178.291749) rotate(-360.000000) translate(-586.778091, -178.291749) "></path>
            <path d="M586.058091,177.578475 L586.058091,44.3946188" id="Shape" stroke="#FFFFFF" stroke-width="0.5" stroke-dasharray="3,2" transform="translate(586.778091, 110.986547) rotate(-360.000000) translate(-586.778091, -110.986547) "></path>
            <path d="M552.19917,128.251121 L552.19917,26.6367713" id="Shape" stroke="#FFFFFF" stroke-width="0.5" stroke-dasharray="3,2" transform="translate(552.919170, 77.443946) rotate(-360.000000) translate(-552.919170, -77.443946) "></path>
            <path d="M552.19917,26.0902242 L552.19917,24.6636771" id="Shape" stroke="#FFFFFF" stroke-width="0.5" stroke-dasharray="3,2" transform="translate(552.919170, 25.376951) rotate(-360.000000) translate(-552.919170, -25.376951) "></path>
            <path d="M517.344398,117.839103 L517.344398,116.412556" id="Shape" stroke="#FFFFFF" stroke-width="0.5" stroke-dasharray="3,2" transform="translate(518.064398, 117.125830) rotate(-360.000000) translate(-518.064398, -117.125830) "></path>
            <path d="M517.344398,115.426009 L517.344398,0" id="Shape" stroke="#FFFFFF" stroke-width="0.5" stroke-dasharray="3,2" transform="translate(518.064398, 57.713004) rotate(-360.000000) translate(-518.064398, -57.713004) "></path>
            <path d="M483.485477,117.839103 L483.485477,116.412556" id="Shape" stroke="#FFFFFF" stroke-width="0.5" stroke-dasharray="3,2" transform="translate(484.205477, 117.125830) rotate(-360.000000) translate(-484.205477, -117.125830) "></path>
            <path d="M483.485477,116.412556 L483.485477,8.87892377" id="Shape" stroke="#FFFFFF" stroke-width="0.5" stroke-dasharray="3,2" transform="translate(484.205477, 62.645740) rotate(-360.000000) translate(-484.205477, -62.645740) "></path>
            <path d="M483.485477,9.31892377 L483.485477,7.89237668" id="Shape" stroke="#FFFFFF" stroke-width="0.5" stroke-dasharray="3,2" transform="translate(484.205477, 8.605650) rotate(-360.000000) translate(-484.205477, -8.605650) "></path>
            <path d="M449.626556,128.251121 L449.626556,42.4215247" id="Shape" stroke="#FFFFFF" stroke-width="0.5" stroke-dasharray="3,2" transform="translate(450.346556, 85.336323) rotate(-360.000000) translate(-450.346556, -85.336323) "></path>
            <path d="M449.626556,42.8615247 L449.626556,41.4349776" id="Shape" stroke="#FFFFFF" stroke-width="0.5" stroke-dasharray="3,2" transform="translate(450.346556, 42.148251) rotate(-360.000000) translate(-450.346556, -42.148251) "></path>
            <path d="M414.771784,112.906368 L414.771784,111.479821" id="Shape" stroke="#FFFFFF" stroke-width="0.5" stroke-dasharray="3,2" transform="translate(415.491784, 112.193094) rotate(-360.000000) translate(-415.491784, -112.193094) "></path>
            <path d="M414.771784,111.479821 L414.771784,60.1793722" id="Shape" stroke="#FFFFFF" stroke-width="0.5" stroke-dasharray="3,2" transform="translate(415.491784, 85.829596) rotate(-360.000000) translate(-415.491784, -85.829596) "></path>
            <path d="M414.771784,60.6193722 L414.771784,59.1928251" id="Shape" stroke="#FFFFFF" stroke-width="0.5" stroke-dasharray="3,2" transform="translate(415.491784, 59.906099) rotate(-360.000000) translate(-415.491784, -59.906099) "></path>
            <path d="M380.912863,165.193363 L380.912863,163.766816" id="Shape" stroke="#FFFFFF" stroke-width="0.5" stroke-dasharray="3,2" transform="translate(381.632863, 164.480090) rotate(-360.000000) translate(-381.632863, -164.480090) "></path>
            <path d="M380.912863,162.780269 L380.912863,42.4215247" id="Shape" stroke="#FFFFFF" stroke-width="0.5" stroke-dasharray="3,2" transform="translate(381.632863, 102.600897) rotate(-360.000000) translate(-381.632863, -102.600897) "></path>
            <path d="M380.912863,42.8615247 L380.912863,41.4349776" id="Shape" stroke="#FFFFFF" stroke-width="0.5" stroke-dasharray="3,2" transform="translate(381.632863, 42.148251) rotate(-360.000000) translate(-381.632863, -42.148251) "></path>
            <path d="M346.058091,151.381704 L346.058091,149.955157" id="Shape" stroke="#FFFFFF" stroke-width="0.5" stroke-dasharray="3,2" transform="translate(346.778091, 150.668430) rotate(-360.000000) translate(-346.778091, -150.668430) "></path>
            <path d="M346.058091,149.955157 L346.058091,76.9506726" id="Shape" stroke="#FFFFFF" stroke-width="0.5" stroke-dasharray="3,2" transform="translate(346.778091, 113.452915) rotate(-360.000000) translate(-346.778091, -113.452915) "></path>
            <path d="M346.058091,77.3906726 L346.058091,75.9641256" id="Shape" stroke="#FFFFFF" stroke-width="0.5" stroke-dasharray="3,2" transform="translate(346.778091, 76.677399) rotate(-360.000000) translate(-346.778091, -76.677399) "></path>
            <path d="M312.19917,164.206816 L312.19917,162.780269" id="Shape" stroke="#FFFFFF" stroke-width="0.5" stroke-dasharray="3,2" transform="translate(312.919170, 163.493543) rotate(-360.000000) translate(-312.919170, -163.493543) "></path>
            <path d="M312.19917,161.793722 L312.19917,44.3946188" id="Shape" stroke="#FFFFFF" stroke-width="0.5" stroke-dasharray="3,2" transform="translate(312.919170, 103.094170) rotate(-360.000000) translate(-312.919170, -103.094170) "></path>
            <path d="M278.340249,161.247175 L278.340249,159.820628" id="Shape" stroke="#FFFFFF" stroke-width="0.5" stroke-dasharray="3,2" transform="translate(279.060249, 160.533901) rotate(-360.000000) translate(-279.060249, -160.533901) "></path>
            <path d="M278.340249,159.820628 L278.340249,35.5156951" id="Shape" stroke="#FFFFFF" stroke-width="0.5" stroke-dasharray="3,2" transform="translate(279.060249, 97.668161) rotate(-360.000000) translate(-279.060249, -97.668161) "></path>
            <path d="M278.340249,35.9556951 L278.340249,34.529148" id="Shape" stroke="#FFFFFF" stroke-width="0.5" stroke-dasharray="3,2" transform="translate(279.060249, 35.242422) rotate(-360.000000) translate(-279.060249, -35.242422) "></path>
            <path d="M243.485477,142.06278 L243.485477,21.7040359" id="Shape" stroke="#FFFFFF" stroke-width="0.5" stroke-dasharray="3,2" transform="translate(244.205477, 81.883408) rotate(-360.000000) translate(-244.205477, -81.883408) "></path>
            <path d="M243.485477,22.1440359 L243.485477,20.7174888" id="Shape" stroke="#FFFFFF" stroke-width="0.5" stroke-dasharray="3,2" transform="translate(244.205477, 21.430762) rotate(-360.000000) translate(-244.205477, -21.430762) "></path>
            <path d="M209.626556,115.426009 L209.626556,8.87892377" id="Shape" stroke="#FFFFFF" stroke-width="0.5" stroke-dasharray="3,2" transform="translate(210.346556, 62.152466) rotate(-360.000000) translate(-210.346556, -62.152466) "></path>
            <path d="M209.626556,9.31892377 L209.626556,7.89237668" id="Shape" stroke="#FFFFFF" stroke-width="0.5" stroke-dasharray="3,2" transform="translate(210.346556, 8.605650) rotate(-360.000000) translate(-210.346556, -8.605650) "></path>
            <path d="M174.771784,117.839103 L174.771784,116.412556" id="Shape" stroke="#FFFFFF" stroke-width="0.5" stroke-dasharray="3,2" transform="translate(175.491784, 117.125830) rotate(-360.000000) translate(-175.491784, -117.125830) "></path>
            <path d="M174.771784,115.426009 L174.771784,76.9506726" id="Shape" stroke="#FFFFFF" stroke-width="0.5" stroke-dasharray="3,2" transform="translate(175.491784, 96.188341) rotate(-360.000000) translate(-175.491784, -96.188341) "></path>
            <path d="M174.771784,77.3906726 L174.771784,75.9641256" id="Shape" stroke="#FFFFFF" stroke-width="0.5" stroke-dasharray="3,2" transform="translate(175.491784, 76.677399) rotate(-360.000000) translate(-175.491784, -76.677399) "></path>
            <path d="M140.912863,157.847534 L140.912863,8.87892377" id="Shape" stroke="#FFFFFF" stroke-width="0.5" stroke-dasharray="3,2" transform="translate(141.632863, 83.363229) rotate(-360.000000) translate(-141.632863, -83.363229) "></path>
            <path d="M140.912863,9.31892377 L140.912863,7.89237668" id="Shape" stroke="#FFFFFF" stroke-width="0.5" stroke-dasharray="3,2" transform="translate(141.632863, 8.605650) rotate(-360.000000) translate(-141.632863, -8.605650) "></path>
            <path d="M107.053942,112.906368 L107.053942,111.479821" id="Shape" stroke="#FFFFFF" stroke-width="0.5" stroke-dasharray="3,2" transform="translate(107.773942, 112.193094) rotate(-360.000000) translate(-107.773942, -112.193094) "></path>
            <path d="M107.053942,111.479821 L107.053942,43.4080717" id="Shape" stroke="#FFFFFF" stroke-width="0.5" stroke-dasharray="3,2" transform="translate(107.773942, 77.443946) rotate(-360.000000) translate(-107.773942, -77.443946) "></path>
            <path d="M107.053942,43.8480717 L107.053942,42.4215247" id="Shape" stroke="#FFFFFF" stroke-width="0.5" stroke-dasharray="3,2" transform="translate(107.773942, 43.134798) rotate(-360.000000) translate(-107.773942, -43.134798) "></path>
            <path d="M72.1991701,164.206816 L72.1991701,162.780269" id="Shape" stroke="#FFFFFF" stroke-width="0.5" stroke-dasharray="3,2" transform="translate(72.919170, 163.493543) rotate(-360.000000) translate(-72.919170, -163.493543) "></path>
            <path d="M72.1991701,161.793722 L72.1991701,44.3946188" id="Shape" stroke="#FFFFFF" stroke-width="0.5" stroke-dasharray="3,2" transform="translate(72.919170, 103.094170) rotate(-360.000000) translate(-72.919170, -103.094170) "></path>
            <path d="M38.340249,132.197309 L38.340249,8.87892377" id="Shape" stroke="#FFFFFF" stroke-width="0.5" stroke-dasharray="3,2" transform="translate(39.060249, 70.538117) rotate(-360.000000) translate(-39.060249, -70.538117) "></path>
            <path d="M38.340249,9.31892377 L38.340249,7.89237668" id="Shape" stroke="#FFFFFF" stroke-width="0.5" stroke-dasharray="3,2" transform="translate(39.060249, 8.605650) rotate(-360.000000) translate(-39.060249, -8.605650) "></path>
            <path d="M704.564315,127.704574 L704.564315,126.278027" id="Shape" stroke="#FFFFFF" stroke-width="0.5" stroke-dasharray="3,2" transform="translate(705.284315, 126.991300) rotate(-360.000000) translate(-705.284315, -126.991300) "></path>
            <path d="M704.564315,126.278027 L704.564315,25.6502242" id="Shape" stroke="#FFFFFF" stroke-width="0.5" stroke-dasharray="3,2" transform="translate(705.284315, 75.964126) rotate(-360.000000) translate(-705.284315, -75.964126) "></path>
            <path d="M704.564315,26.0902242 L704.564315,24.6636771" id="Shape" stroke="#FFFFFF" stroke-width="0.5" stroke-dasharray="3,2" transform="translate(705.284315, 25.376951) rotate(-360.000000) translate(-705.284315, -25.376951) "></path>
            <path d="M671.701245,144.035874 L671.701245,26.6367713" id="Shape" stroke="#FFFFFF" stroke-width="0.5" stroke-dasharray="3,2" transform="translate(672.421245, 85.336323) rotate(-360.000000) translate(-672.421245, -85.336323) "></path>
            <path d="M671.701245,26.0902242 L671.701245,24.6636771" id="Shape" stroke="#FFFFFF" stroke-width="0.5" stroke-dasharray="3,2" transform="translate(672.421245, 25.376951) rotate(-360.000000) translate(-672.421245, -25.376951) "></path>
            <path d="M637.842324,120.798744 L637.842324,119.372197" id="Shape" stroke="#FFFFFF" stroke-width="0.5" stroke-dasharray="3,2" transform="translate(638.562324, 120.085471) rotate(-360.000000) translate(-638.562324, -120.085471) "></path>
            <path d="M637.842324,119.372197 L637.842324,8.87892377" id="Shape" stroke="#FFFFFF" stroke-width="0.5" stroke-dasharray="3,2" transform="translate(638.562324, 64.125561) rotate(-360.000000) translate(-638.562324, -64.125561) "></path>
            <path d="M637.842324,9.31892377 L637.842324,7.89237668" id="Shape" stroke="#FFFFFF" stroke-width="0.5" stroke-dasharray="3,2" transform="translate(638.562324, 8.605650) rotate(-360.000000) translate(-638.562324, -8.605650) "></path>
            <path d="M602.987552,152.368251 L602.987552,150.941704" id="Shape" stroke="#FFFFFF" stroke-width="0.5" stroke-dasharray="3,2" transform="translate(603.707552, 151.654978) rotate(-360.000000) translate(-603.707552, -151.654978) "></path>
            <path d="M602.987552,149.955157 L602.987552,44.3946188" id="Shape" stroke="#FFFFFF" stroke-width="0.5" stroke-dasharray="3,2" transform="translate(603.707552, 97.174888) rotate(-360.000000) translate(-603.707552, -97.174888) "></path>
            <path d="M569.128631,144.035874 L569.128631,26.6367713" id="Shape" stroke="#FFFFFF" stroke-width="0.5" stroke-dasharray="3,2" transform="translate(569.848631, 85.336323) rotate(-360.000000) translate(-569.848631, -85.336323) "></path>
            <path d="M569.128631,26.0902242 L569.128631,24.6636771" id="Shape" stroke="#FFFFFF" stroke-width="0.5" stroke-dasharray="3,2" transform="translate(569.848631, 25.376951) rotate(-360.000000) translate(-569.848631, -25.376951) "></path>
            <path d="M535.26971,110.933274 L535.26971,109.506726" id="Shape" stroke="#FFFFFF" stroke-width="0.5" stroke-dasharray="3,2" transform="translate(535.989710, 110.220000) rotate(-360.000000) translate(-535.989710, -110.220000) "></path>
            <path d="M535.26971,109.506726 L535.26971,0" id="Shape" stroke="#FFFFFF" stroke-width="0.5" stroke-dasharray="3,2" transform="translate(535.989710, 54.753363) rotate(-360.000000) translate(-535.989710, -54.753363) "></path>
            <path d="M500.414938,85.2830493 L500.414938,83.8565022" id="Shape" stroke="#FFFFFF" stroke-width="0.5" stroke-dasharray="3,2" transform="translate(501.134938, 84.569776) rotate(-360.000000) translate(-501.134938, -84.569776) "></path>
            <path d="M500.414938,82.8699552 L500.414938,8.87892377" id="Shape" stroke="#FFFFFF" stroke-width="0.5" stroke-dasharray="3,2" transform="translate(501.134938, 45.874439) rotate(-360.000000) translate(-501.134938, -45.874439) "></path>
            <path d="M500.414938,9.31892377 L500.414938,7.89237668" id="Shape" stroke="#FFFFFF" stroke-width="0.5" stroke-dasharray="3,2" transform="translate(501.134938, 8.605650) rotate(-360.000000) translate(-501.134938, -8.605650) "></path>
            <path d="M466.556017,120.798744 L466.556017,119.372197" id="Shape" stroke="#FFFFFF" stroke-width="0.5" stroke-dasharray="3,2" transform="translate(467.276017, 120.085471) rotate(-360.000000) translate(-467.276017, -120.085471) "></path>
            <path d="M466.556017,119.372197 L466.556017,42.4215247" id="Shape" stroke="#FFFFFF" stroke-width="0.5" stroke-dasharray="3,2" transform="translate(467.276017, 80.896861) rotate(-360.000000) translate(-467.276017, -80.896861) "></path>
            <path d="M466.556017,42.8615247 L466.556017,41.4349776" id="Shape" stroke="#FFFFFF" stroke-width="0.5" stroke-dasharray="3,2" transform="translate(467.276017, 42.148251) rotate(-360.000000) translate(-467.276017, -42.148251) "></path>
            <path d="M431.701245,120.798744 L431.701245,119.372197" id="Shape" stroke="#FFFFFF" stroke-width="0.5" stroke-dasharray="3,2" transform="translate(432.421245, 120.085471) rotate(-360.000000) translate(-432.421245, -120.085471) "></path>
            <path d="M431.701245,119.372197 L431.701245,60.1793722" id="Shape" stroke="#FFFFFF" stroke-width="0.5" stroke-dasharray="3,2" transform="translate(432.421245, 89.775785) rotate(-360.000000) translate(-432.421245, -89.775785) "></path>
            <path d="M431.701245,60.6193722 L431.701245,59.1928251" id="Shape" stroke="#FFFFFF" stroke-width="0.5" stroke-dasharray="3,2" transform="translate(432.421245, 59.906099) rotate(-360.000000) translate(-432.421245, -59.906099) "></path>
            <path d="M397.842324,104.027444 L397.842324,102.600897" id="Shape" stroke="#FFFFFF" stroke-width="0.5" stroke-dasharray="3,2" transform="translate(398.562324, 103.314170) rotate(-360.000000) translate(-398.562324, -103.314170) "></path>
            <path d="M397.842324,102.600897 L397.842324,42.4215247" id="Shape" stroke="#FFFFFF" stroke-width="0.5" stroke-dasharray="3,2" transform="translate(398.562324, 72.511211) rotate(-360.000000) translate(-398.562324, -72.511211) "></path>
            <path d="M397.842324,42.8615247 L397.842324,41.4349776" id="Shape" stroke="#FFFFFF" stroke-width="0.5" stroke-dasharray="3,2" transform="translate(398.562324, 42.148251) rotate(-360.000000) translate(-398.562324, -42.148251) "></path>
            <path d="M363.983402,120.798744 L363.983402,119.372197" id="Shape" stroke="#FFFFFF" stroke-width="0.5" stroke-dasharray="3,2" transform="translate(364.703402, 120.085471) rotate(-360.000000) translate(-364.703402, -120.085471) "></path>
            <path d="M363.983402,119.372197 L363.983402,76.9506726" id="Shape" stroke="#FFFFFF" stroke-width="0.5" stroke-dasharray="3,2" transform="translate(364.703402, 98.161435) rotate(-360.000000) translate(-364.703402, -98.161435) "></path>
            <path d="M363.983402,77.3906726 L363.983402,75.9641256" id="Shape" stroke="#FFFFFF" stroke-width="0.5" stroke-dasharray="3,2" transform="translate(364.703402, 76.677399) rotate(-360.000000) translate(-364.703402, -76.677399) "></path>
            <path d="M329.128631,127.704574 L329.128631,126.278027" id="Shape" stroke="#FFFFFF" stroke-width="0.5" stroke-dasharray="3,2" transform="translate(329.848631, 126.991300) rotate(-360.000000) translate(-329.848631, -126.991300) "></path>
            <path d="M329.128631,126.278027 L329.128631,44.3946188" id="Shape" stroke="#FFFFFF" stroke-width="0.5" stroke-dasharray="3,2" transform="translate(329.848631, 85.336323) rotate(-360.000000) translate(-329.848631, -85.336323) "></path>
            <path d="M295.26971,131.210762 L295.26971,35.5156951" id="Shape" stroke="#FFFFFF" stroke-width="0.5" stroke-dasharray="3,2" transform="translate(295.989710, 83.363229) rotate(-360.000000) translate(-295.989710, -83.363229) "></path>
            <path d="M295.26971,35.9556951 L295.26971,34.529148" id="Shape" stroke="#FFFFFF" stroke-width="0.5" stroke-dasharray="3,2" transform="translate(295.989710, 35.242422) rotate(-360.000000) translate(-295.989710, -35.242422) "></path>
            <path d="M260.414938,134.610404 L260.414938,133.183857" id="Shape" stroke="#FFFFFF" stroke-width="0.5" stroke-dasharray="3,2" transform="translate(261.134938, 133.897130) rotate(-360.000000) translate(-261.134938, -133.897130) "></path>
            <path d="M260.414938,132.197309 L260.414938,21.7040359" id="Shape" stroke="#FFFFFF" stroke-width="0.5" stroke-dasharray="3,2" transform="translate(261.134938, 76.950673) rotate(-360.000000) translate(-261.134938, -76.950673) "></path>
            <path d="M260.414938,22.1440359 L260.414938,20.7174888" id="Shape" stroke="#FFFFFF" stroke-width="0.5" stroke-dasharray="3,2" transform="translate(261.134938, 21.430762) rotate(-360.000000) translate(-261.134938, -21.430762) "></path>
            <path d="M226.556017,146.448969 L226.556017,145.022422" id="Shape" stroke="#FFFFFF" stroke-width="0.5" stroke-dasharray="3,2" transform="translate(227.276017, 145.735695) rotate(-360.000000) translate(-227.276017, -145.735695) "></path>
            <path d="M226.556017,144.035874 L226.556017,8.87892377" id="Shape" stroke="#FFFFFF" stroke-width="0.5" stroke-dasharray="3,2" transform="translate(227.276017, 76.457399) rotate(-360.000000) translate(-227.276017, -76.457399) "></path>
            <path d="M226.556017,9.31892377 L226.556017,7.89237668" id="Shape" stroke="#FFFFFF" stroke-width="0.5" stroke-dasharray="3,2" transform="translate(227.276017, 8.605650) rotate(-360.000000) translate(-227.276017, -8.605650) "></path>
            <path d="M192.697095,110.933274 L192.697095,109.506726" id="Shape" stroke="#FFFFFF" stroke-width="0.5" stroke-dasharray="3,2" transform="translate(193.417095, 110.220000) rotate(-360.000000) translate(-193.417095, -110.220000) "></path>
            <path d="M192.697095,109.506726 L192.697095,73.0044843" id="Shape" stroke="#FFFFFF" stroke-width="0.5" stroke-dasharray="3,2" transform="translate(193.417095, 91.255605) rotate(-360.000000) translate(-193.417095, -91.255605) "></path>
            <path d="M157.842324,110.933274 L157.842324,109.506726" id="Shape" stroke="#FFFFFF" stroke-width="0.5" stroke-dasharray="3,2" transform="translate(158.562324, 110.220000) rotate(-360.000000) translate(-158.562324, -110.220000) "></path>
            <path d="M157.842324,109.506726 L157.842324,8.87892377" id="Shape" stroke="#FFFFFF" stroke-width="0.5" stroke-dasharray="3,2" transform="translate(158.562324, 59.192825) rotate(-360.000000) translate(-158.562324, -59.192825) "></path>
            <path d="M157.842324,9.31892377 L157.842324,7.89237668" id="Shape" stroke="#FFFFFF" stroke-width="0.5" stroke-dasharray="3,2" transform="translate(158.562324, 8.605650) rotate(-360.000000) translate(-158.562324, -8.605650) "></path>
            <path d="M123.983402,146.448969 L123.983402,145.022422" id="Shape" stroke="#FFFFFF" stroke-width="0.5" stroke-dasharray="3,2" transform="translate(124.703402, 145.735695) rotate(-360.000000) translate(-124.703402, -145.735695) "></path>
            <path d="M123.983402,144.035874 L123.983402,43.4080717" id="Shape" stroke="#FFFFFF" stroke-width="0.5" stroke-dasharray="3,2" transform="translate(124.703402, 93.721973) rotate(-360.000000) translate(-124.703402, -93.721973) "></path>
            <path d="M123.983402,43.8480717 L123.983402,42.4215247" id="Shape" stroke="#FFFFFF" stroke-width="0.5" stroke-dasharray="3,2" transform="translate(124.703402, 43.134798) rotate(-360.000000) translate(-124.703402, -43.134798) "></path>
            <path d="M89.1286307,118.82565 L89.1286307,117.399103" id="Shape" stroke="#FFFFFF" stroke-width="0.5" stroke-dasharray="3,2" transform="translate(89.848631, 118.112377) rotate(-360.000000) translate(-89.848631, -118.112377) "></path>
            <path d="M89.1286307,117.399103 L89.1286307,44.3946188" id="Shape" stroke="#FFFFFF" stroke-width="0.5" stroke-dasharray="3,2" transform="translate(89.848631, 80.896861) rotate(-360.000000) translate(-89.848631, -80.896861) "></path>
            <path d="M55.2697095,100.627803 L55.2697095,8.87892377" id="Shape" stroke="#FFFFFF" stroke-width="0.5" stroke-dasharray="3,2" transform="translate(55.989710, 54.753363) rotate(-360.000000) translate(-55.989710, -54.753363) "></path>
            <path d="M55.2697095,9.31892377 L55.2697095,7.89237668" id="Shape" stroke="#FFFFFF" stroke-width="0.5" stroke-dasharray="3,2" transform="translate(55.989710, 8.605650) rotate(-360.000000) translate(-55.989710, -8.605650) "></path>
            <path d="M21.4107884,143.049327 L21.4107884,27.6233184" id="Shape" stroke="#FFFFFF" stroke-width="0.5" stroke-dasharray="3,2" transform="translate(22.130788, 85.336323) rotate(-360.000000) translate(-22.130788, -85.336323) "></path>
            <path d="M21.4107884,28.0633184 L21.4107884,26.6367713" id="Shape" stroke="#FFFFFF" stroke-width="0.5" stroke-dasharray="3,2" transform="translate(22.130788, 27.350045) rotate(-360.000000) translate(-22.130788, -27.350045) "></path>
            <path d="M297.759336,110 L299.199336,110" id="Shape" stroke="#FFFFFF" stroke-width="0.5" stroke-dasharray="3,2" transform="translate(298.479336, 110.713274) rotate(-360.000000) translate(-298.479336, -110.713274) "></path>
            <path d="M298.755187,110 L434.190871,110" id="Shape" stroke="#FFFFFF" stroke-width="0.5" stroke-dasharray="3,2" transform="translate(366.473029, 110.713274) rotate(-360.000000) translate(-366.473029, -110.713274) "></path>
            <path d="M434.190871,110 L435.630871,110" id="Shape" stroke="#FFFFFF" stroke-width="0.5" stroke-dasharray="3,2" transform="translate(434.910871, 110.713274) rotate(-360.000000) translate(-434.910871, -110.713274) "></path>
            <path d="M115.518672,110 L116.958672,110" id="Shape" stroke="#FFFFFF" stroke-width="0.5" stroke-dasharray="3,2" transform="translate(116.238672, 110.713274) rotate(-360.000000) translate(-116.238672, -110.713274) "></path>
            <path d="M117.510373,110 L251.950207,110" id="Shape" stroke="#FFFFFF" stroke-width="0.5" stroke-dasharray="3,2" transform="translate(184.730290, 110.713274) rotate(-360.000000) translate(-184.730290, -110.713274) "></path>
            <path d="M251.950207,110 L253.390207,110" id="Shape" stroke="#FFFFFF" stroke-width="0.5" stroke-dasharray="3,2" transform="translate(252.670207, 110.713274) rotate(-360.000000) translate(-252.670207, -110.713274) "></path>
            <path d="M6.97095436,110 L45.8091286,110" id="Shape" stroke="#FFFFFF" stroke-width="0.5" stroke-dasharray="3,2" transform="translate(26.390041, 110.713274) rotate(-360.000000) translate(-26.390041, -110.713274) "></path>
            <path d="M522.821577,110 L524.261577,110" id="Shape" stroke="#FFFFFF" stroke-width="0.5" stroke-dasharray="3,2" transform="translate(523.541577, 110.713274) rotate(-360.000000) translate(-523.541577, -110.713274) "></path>
            <path d="M524.813278,110 L659.253112,110" id="Shape" stroke="#FFFFFF" stroke-width="0.5" stroke-dasharray="3,2" transform="translate(592.033195, 110.713274) rotate(-360.000000) translate(-592.033195, -110.713274) "></path>
            <path d="M659.253112,110 L660.693112,110" id="Shape" stroke="#FFFFFF" stroke-width="0.5" stroke-dasharray="3,2" transform="translate(659.973112, 110.713274) rotate(-360.000000) translate(-659.973112, -110.713274) "></path>
            <path d="M471.037344,76.4573991 L571.618257,76.4573991" id="Shape" stroke="#FFFFFF" stroke-width="0.5" stroke-dasharray="3,2" transform="translate(521.327801, 77.170673) rotate(-360.000000) translate(-521.327801, -77.170673) "></path>
            <path d="M572.614108,76.4573991 L574.054108,76.4573991" id="Shape" stroke="#FFFFFF" stroke-width="0.5" stroke-dasharray="3,2" transform="translate(573.334108, 77.170673) rotate(-360.000000) translate(-573.334108, -77.170673) "></path>
            <path d="M711.037344,127.757848 L712.477344,127.757848" id="Shape" stroke="#FFFFFF" stroke-width="0.5" stroke-dasharray="3,2" transform="translate(711.757344, 128.471121) rotate(-360.000000) translate(-711.757344, -128.471121) "></path>
            <path d="M71.7012448,93.2286996 L73.1412448,93.2286996" id="Shape" stroke="#FFFFFF" stroke-width="0.5" stroke-dasharray="3,2" transform="translate(72.421245, 93.941973) rotate(-360.000000) translate(-72.421245, -93.941973) "></path>
            <path d="M486.970954,59.6860987 L488.410954,59.6860987" id="Shape" stroke="#FFFFFF" stroke-width="0.5" stroke-dasharray="3,2" transform="translate(487.690954, 60.399372) rotate(-360.000000) translate(-487.690954, -60.399372) "></path>
            <path d="M487.966805,59.6860987 L554.688797,59.6860987" id="Shape" stroke="#FFFFFF" stroke-width="0.5" stroke-dasharray="3,2" transform="translate(521.327801, 60.399372) rotate(-360.000000) translate(-521.327801, -60.399372) "></path>
            <path d="M554.688797,59.6860987 L556.128797,59.6860987" id="Shape" stroke="#FFFFFF" stroke-width="0.5" stroke-dasharray="3,2" transform="translate(555.408797, 60.399372) rotate(-360.000000) translate(-555.408797, -60.399372) "></path>
            <path d="M486.970954,41.9282511 L488.410954,41.9282511" id="Shape" stroke="#FFFFFF" stroke-width="0.5" stroke-dasharray="3,2" transform="translate(487.690954, 42.641525) rotate(-360.000000) translate(-487.690954, -42.641525) "></path>
            <path d="M487.966805,41.9282511 L554.688797,41.9282511" id="Shape" stroke="#FFFFFF" stroke-width="0.5" stroke-dasharray="3,2" transform="translate(521.327801, 42.641525) rotate(-360.000000) translate(-521.327801, -42.641525) "></path>
            <path d="M554.688797,41.9282511 L556.128797,41.9282511" id="Shape" stroke="#FFFFFF" stroke-width="0.5" stroke-dasharray="3,2" transform="translate(555.408797, 42.641525) rotate(-360.000000) translate(-555.408797, -42.641525) "></path>
            <path d="M382.406639,76.4573991 L383.846639,76.4573991" id="Shape" stroke="#FFFFFF" stroke-width="0.5" stroke-dasharray="3,2" transform="translate(383.126639, 77.170673) rotate(-360.000000) translate(-383.126639, -77.170673) "></path>
            <path d="M384.39834,76.4573991 L451.120332,76.4573991" id="Shape" stroke="#FFFFFF" stroke-width="0.5" stroke-dasharray="3,2" transform="translate(417.759336, 77.170673) rotate(-360.000000) translate(-417.759336, -77.170673) "></path>
            <path d="M471.037344,93.2286996 L571.618257,93.2286996" id="Shape" stroke="#FFFFFF" stroke-width="0.5" stroke-dasharray="3,2" transform="translate(521.327801, 93.941973) rotate(-360.000000) translate(-521.327801, -93.941973) "></path>
            <path d="M572.614108,93.2286996 L574.054108,93.2286996" id="Shape" stroke="#FFFFFF" stroke-width="0.5" stroke-dasharray="3,2" transform="translate(573.334108, 93.941973) rotate(-360.000000) translate(-573.334108, -93.941973) "></path>
            <path d="M590.539419,93.2286996 L591.979419,93.2286996" id="Shape" stroke="#FFFFFF" stroke-width="0.5" stroke-dasharray="3,2" transform="translate(591.259419, 93.941973) rotate(-360.000000) translate(-591.259419, -93.941973) "></path>
            <path d="M592.53112,93.2286996 L693.112033,93.2286996" id="Shape" stroke="#FFFFFF" stroke-width="0.5" stroke-dasharray="3,2" transform="translate(642.821577, 93.941973) rotate(-360.000000) translate(-642.821577, -93.941973) "></path>
            <path d="M693.112033,93.2286996 L694.552033,93.2286996" id="Shape" stroke="#FFFFFF" stroke-width="0.5" stroke-dasharray="3,2" transform="translate(693.832033, 93.941973) rotate(-360.000000) translate(-693.832033, -93.941973) "></path>
            <path d="M383.40249,93.2286996 L384.84249,93.2286996" id="Shape" stroke="#FFFFFF" stroke-width="0.5" stroke-dasharray="3,2" transform="translate(384.122490, 93.941973) rotate(-360.000000) translate(-384.122490, -93.941973) "></path>
            <path d="M384.39834,93.2286996 L451.120332,93.2286996" id="Shape" stroke="#FFFFFF" stroke-width="0.5" stroke-dasharray="3,2" transform="translate(417.759336, 93.941973) rotate(-360.000000) translate(-417.759336, -93.941973) "></path>
            <path d="M296.763485,93.2286996 L298.203485,93.2286996" id="Shape" stroke="#FFFFFF" stroke-width="0.5" stroke-dasharray="3,2" transform="translate(297.483485, 93.941973) rotate(-360.000000) translate(-297.483485, -93.941973) "></path>
            <path d="M298.755187,93.2286996 L382.406639,93.2286996" id="Shape" stroke="#FFFFFF" stroke-width="0.5" stroke-dasharray="3,2" transform="translate(340.580913, 93.941973) rotate(-360.000000) translate(-340.580913, -93.941973) "></path>
            <path d="M382.406639,93.2286996 L383.846639,93.2286996" id="Shape" stroke="#FFFFFF" stroke-width="0.5" stroke-dasharray="3,2" transform="translate(383.126639, 93.941973) rotate(-360.000000) translate(-383.126639, -93.941973) "></path>
            <path d="M180.248963,76.4573991 L181.688963,76.4573991" id="Shape" stroke="#FFFFFF" stroke-width="0.5" stroke-dasharray="3,2" transform="translate(180.968963, 77.170673) rotate(-360.000000) translate(-180.968963, -77.170673) "></path>
            <path d="M181.244813,76.4573991 L264.896266,76.4573991" id="Shape" stroke="#FFFFFF" stroke-width="0.5" stroke-dasharray="3,2" transform="translate(223.070539, 77.170673) rotate(-360.000000) translate(-223.070539, -77.170673) "></path>
            <path d="M265.892116,76.4573991 L267.332116,76.4573991" id="Shape" stroke="#FFFFFF" stroke-width="0.5" stroke-dasharray="3,2" transform="translate(266.612116, 77.170673) rotate(-360.000000) translate(-266.612116, -77.170673) "></path>
            <path d="M193.195021,59.6860987 L194.635021,59.6860987" id="Shape" stroke="#FFFFFF" stroke-width="0.5" stroke-dasharray="3,2" transform="translate(193.915021, 60.399372) rotate(-360.000000) translate(-193.915021, -60.399372) "></path>
            <path d="M195.186722,59.6860987 L243.983402,59.6860987" id="Shape" stroke="#FFFFFF" stroke-width="0.5" stroke-dasharray="3,2" transform="translate(219.585062, 60.399372) rotate(-360.000000) translate(-219.585062, -60.399372) "></path>
            <path d="M6.97095436,76.4573991 L69.7095436,76.4573991" id="Shape" stroke="#FFFFFF" stroke-width="0.5" stroke-dasharray="3,2" transform="translate(38.340249, 77.170673) rotate(-360.000000) translate(-38.340249, -77.170673) "></path>
            <path d="M69.7095436,76.4573991 L71.1495436,76.4573991" id="Shape" stroke="#FFFFFF" stroke-width="0.5" stroke-dasharray="3,2" transform="translate(70.429544, 77.170673) rotate(-360.000000) translate(-70.429544, -77.170673) "></path>
            <path d="M90.6224066,93.2286996 L92.0624066,93.2286996" id="Shape" stroke="#FFFFFF" stroke-width="0.5" stroke-dasharray="3,2" transform="translate(91.342407, 93.941973) rotate(-360.000000) translate(-91.342407, -93.941973) "></path>
            <path d="M91.6182573,93.2286996 L156.348548,93.2286996" id="Shape" stroke="#FFFFFF" stroke-width="0.5" stroke-dasharray="3,2" transform="translate(123.983402, 93.941973) rotate(-360.000000) translate(-123.983402, -93.941973) "></path>
            <path d="M280.278174,93.2286996 L278.838174,93.2286996" id="Shape" stroke="#FFFFFF" stroke-width="0.5" stroke-dasharray="3,2" transform="translate(279.558174, 93.941973) rotate(-360.000000) translate(-279.558174, -93.941973) "></path>
            <path d="M278.838174,93.2286996 L177.261411,93.2286996" id="Shape" stroke="#FFFFFF" stroke-width="0.5" stroke-dasharray="3,2" transform="translate(228.049793, 93.941973) rotate(-360.000000) translate(-228.049793, -93.941973) "></path>
            <path d="M177.70556,93.2286996 L176.26556,93.2286996" id="Shape" stroke="#FFFFFF" stroke-width="0.5" stroke-dasharray="3,2" transform="translate(176.985560, 93.941973) rotate(-360.000000) translate(-176.985560, -93.941973) "></path>
        </g>
    </g>
</svg>